<?xml version="1.0" encoding="UTF-8" standalone="no"?>
<svg
   xmlns:dc="http://purl.org/dc/elements/1.1/"
   xmlns:cc="http://creativecommons.org/ns#"
   xmlns:rdf="http://www.w3.org/1999/02/22-rdf-syntax-ns#"
   xmlns:svg="http://www.w3.org/2000/svg"
   xmlns="http://www.w3.org/2000/svg"
   xmlns:sodipodi="http://sodipodi.sourceforge.net/DTD/sodipodi-0.dtd"
   xmlns:inkscape="http://www.inkscape.org/namespaces/inkscape"
   version="1.1"
   id="svg833"
   width="96"
   height="96"
   viewBox="0 0 96 96"
   sodipodi:docname="kaiN.svg"
   inkscape:version="1.0.1 (3bc2e813f5, 2020-09-07)">
  <metadata
     id="metadata839">
    <rdf:RDF>
      <cc:Work
         rdf:about="">
        <dc:format>image/svg+xml</dc:format>
        <dc:type
           rdf:resource="http://purl.org/dc/dcmitype/StillImage" />
        <dc:title></dc:title>
      </cc:Work>
    </rdf:RDF>
  </metadata>
  <defs
     id="defs837" />
  <sodipodi:namedview
     pagecolor="#ffffff"
     bordercolor="#666666"
     borderopacity="1"
     objecttolerance="10"
     gridtolerance="10"
     guidetolerance="10"
     inkscape:pageopacity="0"
     inkscape:pageshadow="2"
     inkscape:window-width="1280"
     inkscape:window-height="971"
     id="namedview835"
     showgrid="false"
     inkscape:zoom="1.6171875"
     inkscape:cx="-54.887325"
     inkscape:cy="102.09733"
     inkscape:window-x="-8"
     inkscape:window-y="-8"
     inkscape:window-maximized="1"
     inkscape:current-layer="g841" />
  <g
     inkscape:groupmode="layer"
     inkscape:label="Image"
     id="g841">
    <path
       style="fill:#000000;stroke-width:1"
       d="m 48.957687,84.747184 c -0.898073,-0.49526 -2.298598,-1.37857 -3.112278,-1.96291 l -1.479418,-1.06244 -2.007725,1.08465 c -1.861692,1.00576 -2.217193,1.08425 -4.887721,1.07916 -2.249293,-0.004 -3.207664,-0.15483 -4.376215,-0.68743 -1.942192,-0.88521 -4.300551,-3.07274 -4.799106,-4.45147 l -0.393248,-1.08751 h -2.433581 c -4.375585,0 -8.259454,-1.94415 -10.47785,-5.24491 -0.833541,-1.24023 -1.041261,-1.87375 -1.04635,-3.19125 -0.0063,-1.63473 -0.01536,-1.64915 -1.632398,-2.60384 -1.83823,-1.08527 -3.3727756,-2.8469 -3.9932136,-4.58413 -0.569369,-1.59425 -0.554737,-6.23176 0.0267,-8.46407 1.6468161,-6.32255 6.7281406,-13.270193 15.6852576,-21.446295 4.19508,-3.829291 6.795503,-5.701921 11.2,-8.065401 1.584,-0.849984 2.92391,-1.577639 2.977581,-1.61701 0.05367,-0.03937 -0.763988,-1.383681 -1.817015,-2.987353 -1.958032,-2.981917 -3.240566,-5.847979 -3.240566,-7.241645 0,-1.15782 0.861081,-1.27758 8.96,-1.246157 10.232576,0.0397 15.454515,0.845534 25.28,3.901134 6.227769,1.936757 9.076957,3.375127 9.223718,4.656461 0.08623,0.752864 -0.208816,1.194093 -1.750067,2.617125 -1.019581,0.941378 -3.11776,2.477889 -4.662618,3.41447 -1.544857,0.936581 -2.809328,1.79907 -2.809932,1.916641 -6.4e-4,0.117571 1.635932,1.945316 3.636752,4.061654 4.145545,4.38489 6.77982,7.764062 8.756268,11.232276 1.784944,3.13217 4.125085,8.74632 4.406842,10.5723 0.122208,0.792 0.511094,2.448 0.864189,3.68 0.449859,1.56964 0.692358,3.62036 0.810301,6.85242 0.186473,5.11016 -0.228263,8.49373 -1.246842,10.17219 -0.778179,1.28232 -3.30369,2.51362 -5.786122,2.821 -1.790643,0.22171 -1.845763,0.25816 -2.161084,1.42918 -0.177968,0.66091 -0.645847,1.61646 -1.039735,2.12344 -1.858355,2.39191 -3.653478,3.11259 -7.362115,2.95564 -2.326586,-0.0985 -2.903123,-0.24521 -4.26001,-1.08438 l -1.569267,-0.97051 -1.978582,1.49758 c -3.932371,2.9764 -8.284631,3.70706 -11.504554,1.93139 z m 7.132215,-2.28817 c 1.056867,-0.52813 2.744246,-1.68013 3.749731,-2.56 2.212182,-1.93583 3.007939,-2.02024 4.693059,-0.49784 1.516198,1.3698 4.020278,2.17888 5.462966,1.76513 1.500176,-0.43025 3.391018,-1.77655 3.91242,-2.7857 0.250457,-0.48475 0.620025,-1.49337 0.821257,-2.24137 l 0.365879,-1.36 h 1.539913 c 2.17456,0 3.513303,-0.5302 5.043795,-1.99758 1.712183,-1.64158 2.198781,-3.31279 2.166976,-7.44242 -0.01811,-2.35323 -0.262355,-4.17378 -0.922956,-6.88 C 80.17577,47.205254 76.801726,41.288534 67.753956,31.858894 63.550225,27.47774 57.102295,21.786295 54.40362,20.074846 l -1.448902,-0.918866 -4.17418,1.400031 c -2.295801,0.770016 -4.84374,1.794485 -5.662089,2.276597 -0.818346,0.482111 -2.567904,1.402535 -3.887904,2.045387 -3.284227,1.599449 -7.032112,3.850779 -9.217226,5.53673 -3.038704,2.344548 -10.01987,9.231387 -12.580465,12.410479 -4.52731,5.62087 -7.322309,11.59847 -7.322309,15.66006 0,2.53875 1.570954,4.85032 4.369787,6.42988 l 1.710213,0.96519 v 1.74534 c 0,0.95994 0.204131,2.13419 0.453625,2.60945 0.703665,1.34041 2.73002,3.1306 4.666375,4.12253 1.624837,0.83235 2.019884,0.89843 5.144037,0.86049 l 3.384037,-0.0411 0.363903,1.3606 c 0.492504,1.84141 3.003031,4.10448 5.386922,4.85593 2.153798,0.67893 3.762477,0.34178 6.390432,-1.3393 2.045014,-1.30818 2.950819,-1.38795 4.186115,-0.36867 1.159975,0.95713 4.59896,3.26079 5.224554,3.49975 1.167993,0.44615 2.883654,0.18097 4.699357,-0.72635 z M 37.07954,71.349594 c -0.282842,-0.73707 0.717786,-7.51359 1.667142,-11.29036 0.420288,-1.672 1.35762,-5.67473 2.082964,-8.89495 1.240236,-5.50615 4.632147,-16.738214 5.654518,-18.724537 0.361306,-0.701963 0.6516,-0.877641 1.321939,-0.799999 0.512586,0.05937 0.901808,0.325381 0.9652,0.659656 0.05843,0.308093 -0.908112,3.66114 -2.147872,7.451213 -1.239757,3.790077 -2.828192,9.441997 -3.529853,12.559837 -0.70166,3.11783 -1.713238,7.55559 -2.247955,9.86169 -0.534713,2.3061 -1.018969,5.21216 -1.076125,6.45791 -0.05716,1.24575 -0.291433,2.49094 -0.520617,2.76709 -0.557459,0.6717 -1.904672,0.64217 -2.169341,-0.0476 z m 36.390736,-0.0104 c -0.0016,-3.61508 -1.741773,-14.15324 -3.726755,-22.57015 -0.447514,-1.89759 -0.728995,-3.67078 -0.625517,-3.94044 0.127696,-0.33277 0.519334,-0.45802 1.219043,-0.38985 0.888016,0.0865 1.065248,0.25567 1.278714,1.22044 2.537104,11.46653 4.093613,20.98536 4.094515,25.04 2.59e-4,1.15815 -0.03879,1.2 -1.119731,1.2 -0.853232,0 -1.120064,-0.13339 -1.120269,-0.56 z M 57.15738,66.078514 c 0.0038,-1.28663 0.216685,-5.43532 0.473165,-9.21932 0.25648,-3.784 0.469405,-9.40847 0.473165,-12.49883 0.0074,-6.110116 0.189187,-6.85419 1.624764,-6.651556 l 0.782071,0.11039 -0.101235,6.239996 c -0.05568,3.432 -0.286608,9.624 -0.513178,13.76 -0.226566,4.136 -0.397011,8.168 -0.378765,8.96 0.03317,1.43983 0.03303,1.44002 -1.166822,1.53932 l -1.2,0.0993 0.0068,-2.33931 z m -38.086583,-2.09932 c 1.44e-4,-0.68282 0.428996,-2.09644 0.995053,-3.28 0.547141,-1.144 2.119815,-4.49405 3.494833,-7.44457 2.583351,-5.54336 4.788335,-9.45398 7.296282,-12.940226 1.278729,-1.777536 1.574942,-2.0152 2.511641,-2.0152 1.671328,0 1.389641,1.062909 -1.359908,5.131446 -3.018219,4.46609 -9.668262,17.8932 -10.573298,21.34855 -0.05886,0.22471 -0.599988,0.4 -1.234812,0.4 -1.092539,0 -1.130035,-0.0398 -1.129791,-1.2 z M 69.790545,22.762861 c 0.88,-0.568814 2.104,-1.470611 2.72,-2.003993 l 1.12,-0.969785 -1.76,-0.78231 C 67.985418,17.279857 58.482052,14.650735 53.030602,13.794672 48.739927,13.120891 36.030545,12.760609 36.030545,13.312759 c 0,0.825993 4.162765,7.706479 4.662499,7.706479 0.08965,0 0.769261,-0.309741 1.51025,-0.688314 2.215481,-1.131895 9.548003,-3.471686 10.879696,-3.471686 1.546064,0 3.341584,1.156568 8.468902,5.455173 l 3.758653,3.151151 1.44,-0.834247 c 0.792,-0.458835 2.16,-1.29964 3.04,-1.868454 z"
       id="path845" />
  </g>
  <g
     inkscape:groupmode="layer"
     id="layer1"
     inkscape:label="Image 1"
     style="display:inline;mix-blend-mode:multiply">
    <path
       style="fill:#edb5ae;fill-opacity:1;stroke:#000000;stroke-width:0;stroke-linecap:round;stroke-linejoin:round"
       d="m 52.685097,18.329157 c -8.478418,2.822665 -16.784263,6.649198 -23.904798,12.093249 -5.902285,5.518327 -12.092403,11.078326 -16.231198,18.103115 -2.145426,4.096632 -4.8043843,9.5106 -2.003469,13.905579 1.141152,1.92904 3.695911,2.603608 4.751621,4.448453 -0.345522,4.398831 3.7546,7.913868 7.668009,8.880682 2.026634,0.193616 4.067775,0.06421 6.100077,0.104186 1.511155,5.050335 7.922652,8.429052 12.607535,5.351977 1.332878,-0.672723 2.837573,-2.033101 4.165755,-0.595235 3.064042,2.070394 7.04788,4.976825 10.76032,2.521845 2.138888,-1.014684 3.792539,-3.09209 6.056522,-3.721705 2.826145,1.663283 6.411513,3.693406 9.612556,1.628566 2.19663,-1.01293 2.562656,-3.731115 3.869445,-5.347709 3.447951,-0.220017 7.191317,-1.929972 8.015585,-5.62013 C 85.857983,62.552791 83.0574,54.849299 80.275071,47.919185 76.020518,38.064164 67.826743,30.699948 60.138752,23.510337 57.796379,21.702635 55.507276,19.12824 52.685097,18.329157 Z M 47.625184,32.62672 c -1.836823,7.864716 -4.651467,15.506277 -6.28309,23.441518 -1.377076,4.898762 -1.786316,10.099218 -3.079243,14.951476 -0.641281,-0.441766 0.05917,-2.387654 0.04687,-3.332955 2.078795,-11.800092 4.777724,-23.54455 8.946542,-34.70734 0.06215,-0.07717 0.242919,-0.55246 0.368925,-0.352699 z m 11.856848,10.524618 c -0.113063,8.153872 -0.308708,16.285627 -1.262203,24.396893 -0.195458,-5.66273 0.465355,-11.920336 0.517321,-17.799475 0.308324,-3.624828 -0.139909,-7.615543 0.744882,-11.049287 0,1.483956 0,2.967913 0,4.451869 z m -26.191986,-3.78063 c -4.663183,7.985408 -9.19583,16.194438 -12.635691,24.734221 -1.334953,0.06819 0.1945,-1.981166 0.252783,-2.737906 3.279959,-7.439579 6.397316,-15.069321 11.51525,-21.423285 0.03465,-0.03254 1.107171,-1.055559 0.867658,-0.57303 z m 36.906192,5.911344 c 1.189761,1.159716 0.950842,3.50634 1.546666,5.070624 1.178537,6.775908 2.838615,13.580245 2.900079,20.415964 -0.393569,0.862185 -0.427726,-2.019783 -0.574737,-2.36044 -0.795908,-7.771421 -2.865147,-15.473187 -3.872008,-23.126148 z"
       id="path848" />
    <path
       style="fill:#edb5ae;fill-opacity:1;stroke:#000000;stroke-width:0;stroke-linecap:round;stroke-linejoin:round"
       d="m 38.198802,12.123185 c -1.759178,-0.47094 -3.643353,1.209099 -2.333965,2.869419 1.431349,2.202845 2.351999,5.591164 5.13848,6.347735 4.303704,-0.748164 8.234062,-3.153006 12.549437,-3.55176 4.473345,1.879884 7.458821,6.014169 11.732166,8.208588 3.267026,-0.762365 5.784453,-3.556447 8.689386,-5.15983 1.346235,-2.333174 -2.606514,-2.684107 -4.142223,-3.526728 -8.860619,-3.043846 -18.098811,-5.050962 -27.500552,-5.087604 -1.376784,-0.05313 -2.754557,-0.11556 -4.132729,-0.09982 z"
       id="path850" />
  </g>
  <g
     inkscape:groupmode="layer"
     id="layer2"
     inkscape:label="Image 2">
    <path
       style="fill:#613537;fill-opacity:1;stroke:#000000;stroke-width:0;stroke-linecap:round;stroke-linejoin:round"
       d="m 47.413626,31.458675 c -1.318171,0.392207 -1.434461,2.144075 -1.96931,3.209308 -3.3372,9.812997 -5.742315,19.923886 -7.808138,30.071478 -0.275868,2.285802 -0.981366,4.649387 -0.596441,6.943171 0.743095,0.628918 2.491608,0.356731 2.52227,-0.832217 0.619457,-3.874091 1.128367,-7.748666 2.115303,-11.553157 1.722627,-8.16639 3.995743,-16.202381 6.554441,-24.144633 0.118265,-1.039543 1.08933,-2.361414 0.350138,-3.322036 -0.330775,-0.245659 -0.756246,-0.382313 -1.168263,-0.371914 z"
       id="path865" />
    <path
       style="fill:#613537;fill-opacity:1;stroke:#000000;stroke-width:0;stroke-linecap:round;stroke-linejoin:round"
       d="m 59.338367,37.582237 c -1.43541,0.02936 -1.120436,1.89736 -1.248417,2.849033 -0.308316,8.117171 -0.563423,16.232035 -1.053257,24.341804 7.69e-4,1.212331 -0.169727,2.484689 0.05695,3.658405 0.820981,0.04505 2.735305,0.408393 2.535934,-1.021378 0.542584,-9.847363 0.861973,-19.706959 1.006005,-29.56825 -0.117764,-0.511083 -0.915307,-0.178757 -1.297216,-0.259614 z"
       id="path867" />
    <path
       style="fill:#613537;fill-opacity:1;stroke:#000000;stroke-width:0;stroke-linecap:round;stroke-linejoin:round"
       d="m 69.848894,44.356969 c -1.30386,-0.04842 -0.732748,1.668759 -0.637243,2.418551 1.453392,7.534824 3.302244,15.050228 3.957998,22.685021 0.08057,0.880779 -0.14668,2.637227 1.210109,2.520135 1.601308,0.485671 1.781962,-0.730702 1.46267,-2.018082 -0.603451,-8.120285 -2.273148,-16.126549 -4.057714,-24.057714 -0.05421,-0.834384 -0.520471,-1.665664 -1.477225,-1.544922 -0.152766,-0.0098 -0.30571,-0.0039 -0.458595,-0.003 z"
       id="path869" />
    <path
       style="fill:#613537;fill-opacity:1;stroke:#000000;stroke-width:0;stroke-linecap:round;stroke-linejoin:round"
       d="m 33.256545,38.235542 c -1.796357,0.05392 -2.434744,2.18747 -3.453824,3.324562 -4.28037,6.495391 -7.378059,13.675089 -10.544841,20.753363 -0.208023,0.883958 -0.725075,2.387525 0.224174,2.983854 1.190863,0.462918 2.250987,-0.581137 2.524832,-1.686638 3.005489,-7.315175 6.636958,-14.407448 10.800031,-21.125372 0.601072,-1.188986 1.886683,-2.384665 1.62942,-3.813805 -0.214872,-0.430822 -0.761801,-0.451998 -1.179792,-0.435964 z"
       id="path871" />
    <path
       style="fill:#613537;fill-opacity:1;stroke:#000000;stroke-width:0;stroke-linecap:round;stroke-linejoin:round"
       d="m 38.984709,11.015347 c -1.898839,0.171432 -4.013953,-0.319472 -5.78709,0.511543 -0.714469,0.923664 0.247257,2.18165 0.468204,3.141075 1.064037,2.6836 2.844447,5.01457 4.13653,7.551779 -3.120341,2.184576 -6.638694,3.783894 -9.609504,6.204908 -5.657362,4.49976 -10.856376,9.651434 -15.160004,15.470439 -2.20072,3.189206 -4.2758124,6.659338 -5.0177922,10.506978 -0.077549,2.524654 -0.2999606,5.107979 0.138347,7.605241 0.8493873,2.512826 3.1229422,4.035068 5.1410422,5.543274 0.814022,1.187353 0.341157,2.91445 1.145206,4.170478 2.168253,4.150058 6.964245,6.096224 11.460394,6.122222 1.228509,-0.118377 2.224206,0.08488 2.516494,1.396339 1.398472,2.18113 3.643064,3.953226 6.166687,4.588079 1.926219,0.113745 3.929473,0.308385 5.818432,0.09051 1.336251,-0.657527 2.672556,-1.314948 4.008903,-1.972282 2.620224,1.633435 5.243194,4.199294 8.590959,3.750657 3.604263,0.175838 6.618666,-2.069556 9.394573,-4.056385 1.59114,0.603056 3.064406,1.946358 4.915589,1.801072 2.451452,0.06181 5.289169,0.298922 7.165434,-1.62814 1.43864,-1.125979 2.060101,-2.858536 2.880947,-4.402338 2.459244,-0.693662 5.409461,-1.02282 7.206854,-3.084197 1.657525,-2.92209 1.449001,-6.47037 1.467769,-9.723898 -0.329931,-10.8651 -4.460388,-21.650214 -11.806848,-29.71045 -2.121934,-2.490341 -4.479359,-4.86518 -6.531567,-7.360664 2.926119,-2.378762 6.667248,-3.952717 8.864027,-7.124442 0.759228,-1.475578 -1.097007,-2.486829 -2.161458,-3.040647 C 69.220832,14.970984 63.64609,13.555472 58.124552,12.199373 51.848487,10.794811 45.369658,11.056917 38.984709,11.015347 Z m 0.720769,2.179392 c 7.091168,0.06515 14.231351,0.493814 21.084501,2.465309 4.230725,1.169966 8.483624,2.345312 12.497094,4.149726 -2.363457,2.223619 -5.19693,3.804386 -7.975874,5.460436 -3.46198,-2.719725 -6.609217,-5.945699 -10.490886,-8.076219 -2.526442,-1.021297 -5.162702,0.435575 -7.605667,1.049131 -2.266557,0.618086 -4.344255,1.819858 -6.592832,2.433028 -1.728393,-2.169369 -3.229575,-4.602535 -4.309679,-7.153051 1.073539,-0.430445 2.264139,-0.268797 3.393343,-0.32836 z m 14.876998,7.241866 c 6.6911,4.892161 12.624065,10.822469 18.02439,17.106775 6.038989,7.009222 9.507188,15.918314 10.855507,24.999754 0.330463,3.342898 0.663984,7.293464 -1.754495,10.01228 -1.635761,1.796737 -4.216959,2.011169 -6.494196,2.02055 -0.952677,1.531214 -0.974439,3.828187 -2.659764,4.959567 -1.541589,1.335728 -3.770292,2.074776 -5.661124,1.012836 -1.668082,-0.434764 -2.728834,-2.265516 -4.499266,-2.30322 -2.287085,0.632927 -3.763895,2.785018 -5.896965,3.76828 -1.827215,1.011966 -4.341279,1.918296 -6.142701,0.352166 -1.900334,-0.971151 -3.387821,-2.710281 -5.417244,-3.398395 -2.737977,-0.09759 -4.658712,2.805939 -7.471164,2.443704 -2.447397,0.148464 -4.626013,-1.485616 -6.122282,-3.281898 -0.761893,-0.831246 -0.916741,-2.048173 -1.491927,-2.937312 -2.862264,-0.699179 -6.16293,0.531644 -8.762402,-1.204557 -1.912759,-1.138915 -4.075017,-2.648494 -4.578687,-4.953163 -0.228042,-1.081455 0.08451,-2.276023 -0.238692,-3.331858 -2.464061,-1.264704 -5.219653,-3.077921 -5.821248,-5.974113 -0.4888295,-4.170106 1.451174,-8.069592 3.459196,-11.586966 3.804253,-6.108137 9.068174,-11.097172 14.302592,-15.96714 4.93778,-4.292298 10.916136,-7.111453 16.756023,-9.957155 2.596073,-1.133473 5.294663,-1.9736 7.968375,-2.906979 0.548692,0.375614 1.097382,0.751229 1.646074,1.126844 z"
       id="path873" />
  </g>
</svg>
