<?xml version="1.0" encoding="UTF-8" standalone="no"?>
<svg
   xmlns:dc="http://purl.org/dc/elements/1.1/"
   xmlns:cc="http://creativecommons.org/ns#"
   xmlns:rdf="http://www.w3.org/1999/02/22-rdf-syntax-ns#"
   xmlns:svg="http://www.w3.org/2000/svg"
   xmlns="http://www.w3.org/2000/svg"
   xmlns:sodipodi="http://sodipodi.sourceforge.net/DTD/sodipodi-0.dtd"
   xmlns:inkscape="http://www.inkscape.org/namespaces/inkscape"
   inkscape:version="1.0.2 (e86c870879, 2021-01-15, custom)"
   sodipodi:docname="さ行_ホバー.svg"
   viewBox="0 0 417.9971 200"
   height="200"
   width="417.9971"
   id="svg10"
   version="1.1">
  <metadata
     id="metadata16">
    <rdf:RDF>
      <cc:Work
         rdf:about="">
        <dc:format>image/svg+xml</dc:format>
        <dc:type
           rdf:resource="http://purl.org/dc/dcmitype/StillImage" />
        <dc:title />
      </cc:Work>
    </rdf:RDF>
  </metadata>
  <defs
     id="defs14" />
  <sodipodi:namedview
     inkscape:current-layer="layer3"
     inkscape:window-maximized="1"
     inkscape:window-y="-8"
     inkscape:window-x="-8"
     inkscape:cy="136.88389"
     inkscape:cx="168.67833"
     inkscape:zoom="1.9856597"
     showgrid="false"
     id="namedview12"
     inkscape:window-height="705"
     inkscape:window-width="1366"
     inkscape:pageshadow="2"
     inkscape:pageopacity="0"
     guidetolerance="10"
     gridtolerance="10"
     objecttolerance="10"
     borderopacity="1"
     bordercolor="#666666"
     pagecolor="#ffffff"
     inkscape:document-rotation="0" />
  <g
     inkscape:label="Image 1"
     id="layer1"
     inkscape:groupmode="layer">
    <path
       id="path21425"
       d="m 322.33434,32.196824 c -93.89524,0.5245 -187.79066,1.01399 -281.685988,1.5225 -2.623232,0.67426 -3.811435,3.54486 -5.532463,5.43243 -5.490973,8.13047 -9.464466,17.22524 -12.734213,26.44857 -5.488228,16.16256 -5.872751,33.55691 -4.640073,50.422646 1.718643,16.72492 8.053724,32.79973 17.089227,46.89552 1.781582,2.35057 3.26435,5.12718 5.729886,6.8023 27.686097,0.0317 55.398116,-0.34393 83.094174,-0.47073 85.31564,-0.57563 170.63101,-1.19167 255.94654,-1.78206 2.70691,-0.68023 3.73374,-3.76971 5.53889,-5.66347 6.11057,-8.61357 10.34301,-18.42762 13.91259,-28.323 1.6081,-5.06093 3.31257,-10.18186 4.135,-15.41496 -0.11805,-15.77376 1.2666,-31.814266 -2.15469,-47.351796 -2.51746,-10.2809 -6.95701,-20.01716 -11.99079,-29.28791 -2.21374,-3.61837 -4.76023,-7.37644 -8.47559,-9.52911 -19.40881,0.0426 -38.8222,0.20893 -58.2325,0.29907 z m 25.19177,20.81764 c 10.57874,-0.0664 21.39533,4.364 28.42765,12.36217 6.97275,7.40787 10.55714,17.80332 9.56246,27.93821 -0.5801,12.626416 -8.16172,24.577266 -19.29451,30.555816 -6.35296,3.52937 -13.55459,4.99821 -20.71513,4.62424 -7.39191,-0.84206 -14.38641,-3.52578 -20.71742,-7.37081 -2.74825,-0.81934 -4.40699,2.49442 -6.49639,3.72816 -11.83561,9.84706 -23.41323,20.01915 -35.44037,29.62759 -1.4916,1.45538 -3.30166,-0.77233 -4.47221,-1.58649 -1.40639,-1.17007 -1.46211,-3.56575 0.36872,-4.34026 12.92991,-10.49263 26.2668,-20.54738 39.11623,-31.09801 1.90888,-2.28747 -1.05229,-4.56242 -2.03879,-6.5698 -8.03117,-12.786316 -7.32515,-30.166956 1.58287,-42.402766 6.78283,-9.6378 18.45477,-15.53534 30.11689,-15.46805 z m -250.15107,2.05109 c 3.53102,-0.21733 5.89544,3.25961 5.39724,6.53442 -0.4885,2.10493 1.13066,4.29271 3.3892,3.78844 11.51238,0.15055 23.05828,0.33544 34.58416,0.50432 2.72932,2.52059 4.26854,7.14791 1.26029,10.10035 -1.36526,2.02211 -4.22375,0.67328 -6.31047,1.06276 -10.89172,0.0733 -21.82936,-0.14608 -32.69253,0.10909 -3.108634,0.71437 -1.70393,4.59311 -2.01118,6.87046 -0.48786,2.26954 1.63591,3.9567 3.77459,3.41849 10.73476,-0.32561 22.40192,1.04199 30.80912,8.38298 6.08154,4.825136 9.1994,12.836556 8.61649,20.435916 0.54928,8.00632 -2.97849,15.75362 -7.50885,22.27893 -3.11745,3.74255 -6.30033,8.27124 -11.27648,9.52655 -2.96632,0.0531 -7.0558,-3.19312 -5.39098,-6.3814 4.16949,-6.55918 9.91441,-12.49336 11.45384,-20.38989 1.0348,-5.73196 1.19723,-12.83117 -3.49847,-17.06183 -2.2364,-1.86136 -5.08146,0.24104 -5.78186,2.58692 -5.64374,11.87756 -11.4808,24.25708 -21.83311,32.86378 -3.959731,3.42653 -9.279705,5.40004 -14.525951,4.36927 -5.497195,-0.69557 -10.850223,-3.79052 -13.131436,-9.03482 -3.930435,-8.16441 -3.751189,-18.02961 -0.498688,-26.38946 2.770816,-5.91894 7.540887,-10.578336 12.779502,-14.416056 2.380193,-1.40848 5.782176,-2.83024 5.601726,-6.15953 0.05063,-3.32743 0.606639,-6.80932 -0.286555,-10.02942 -2.149471,-1.92282 -5.348577,-0.58235 -7.96302,-0.97998 -3.749281,-0.29519 -8.435602,1.06338 -11.234751,-2.21037 -0.99733,-1.70534 -0.270588,-3.82911 -0.441654,-5.76795 -0.141339,-2.6922 3.370664,-2.74421 5.285261,-3.11594 4.365032,-0.65237 9.033032,-0.40697 13.531361,-1.21994 2.907206,-1.80263 1.15483,-5.98324 3.389969,-8.31913 1.092158,-1.28465 2.950971,-1.39019 4.513236,-1.35696 z m 93.73814,5.52035 c 2.28975,-0.0454 5.84887,-0.16446 6.6617,2.53935 -0.29002,3.70759 -3.7901,6.00684 -6.04338,8.62098 -4.58762,4.29105 -9.15943,8.83945 -14.71792,11.8482 -2.06777,0.54413 -4.13306,-1.33898 -5.16077,-2.96083 -1.0412,-2.43023 0.37052,-4.79283 2.18881,-6.34594 4.94404,-4.70083 9.81927,-9.53031 15.38284,-13.52579 0.52431,-0.23266 1.12993,-0.14599 1.68872,-0.17597 z m 43.73575,2.78139 c 6.69803,0.10951 13.468,-0.055 20.14924,0.8381 2.92263,1.45799 3.28227,6.64638 0.13146,7.95259 -7.3423,0.99809 -14.85396,0.56434 -22.22048,0.85629 -5.90435,0.0893 -11.80936,0.10342 -17.71425,0.12091 -1.72647,-1.74385 -4.00221,-4.09312 -2.53031,-6.72638 0.76197,-2.50748 3.54632,-2.72223 5.66224,-2.67775 5.52167,-0.23455 10.98309,-0.36935 16.5221,-0.36376 z m -37.87181,18.45843 c 2.69946,-0.13436 6.1505,2.86054 4.1919,5.58086 -1.63513,3.73789 -4.74092,6.68652 -6.20822,10.45229 -0.17322,15.499446 -0.34662,30.998906 -0.52025,46.498356 -2.08997,1.91246 -4.75884,4.77984 -7.85799,3.00952 -3.30403,-1.31099 -2.26295,-5.28714 -2.62781,-7.97839 -0.39265,-7.83086 -0.17589,-15.78697 -0.88875,-23.63722 -0.48999,-2.1144 -3.00469,-2.63534 -4.69963,-1.64212 -3.43905,1.07192 -7.03338,-1.42712 -7.41634,-4.95489 -0.54227,-3.00198 2.55721,-4.93623 4.13544,-7.05177 5.43391,-5.521136 10.77528,-11.311386 15.96372,-17.136356 1.60112,-1.60841 3.49017,-3.29949 5.92793,-3.14028 z m 37.16447,9.18922 c 7.66301,0 15.32603,0 22.98905,0 1.69844,1.59596 3.66714,3.67261 2.51779,6.22561 -1.88986,3.908186 -6.7072,3.560126 -10.33962,3.770416 -3.26057,0.64624 -1.98697,4.57599 -2.29448,6.93436 -0.38345,10.79411 0.12043,21.6726 -1.31388,32.39874 -0.34096,4.24973 -4.95339,5.5665 -8.45823,6.10807 -3.35228,0.30759 -6.88875,1.16909 -10.19773,0.35193 -2.24076,-1.51947 -4.42733,-3.9358 -4.85404,-6.66309 1.24768,-3.27161 5.49119,-2.61297 8.20334,-3.07057 2.12987,0.11751 5.37372,-0.41627 4.92114,-3.26424 -0.11489,-10.26573 0.38758,-20.56843 0.36898,-30.82819 -0.5748,-3.047336 -4.33021,-1.82676 -6.51877,-2.06836 -5.97487,-0.22847 -12.01841,0.51288 -17.89228,-0.83065 -2.98323,-0.967336 -4.56419,-5.000056 -2.17977,-7.381556 1.16774,-1.72738 3.11722,-1.91284 5.07105,-1.68247 6.65915,0 13.3183,0 19.97745,0 z"
       style="fill:#62cf5a;fill-opacity:1;stroke-width:0.356107" />
    <path
       id="path21427"
       d="m 87.31433,106.28302 c -2.844179,0.85976 -3.884277,4.15706 -5.244228,6.50242 -2.011993,4.52653 -2.757161,9.87403 -1.400084,14.67063 2.094711,3.94748 7.583841,5.70063 11.518523,3.61879 2.178661,-2.11746 0.564609,-5.50694 0.526452,-8.11474 -0.950217,-5.1091 -1.1326,-10.45074 -2.831409,-15.37648 -0.498654,-0.90362 -1.543312,-1.43851 -2.569254,-1.30062 z"
       style="fill:#62cf5a;fill-opacity:1;stroke-width:0.356107" />
    <path
       id="path21429"
       d="m 104.81851,98.431984 c -2.25397,-0.34551 -5.235609,1.06071 -4.44925,3.764846 0.6844,4.57619 0.97209,9.30738 1.99543,13.77528 0.87467,2.27403 4.17293,1.44172 4.64749,-0.68696 1.90804,-4.44588 4.14404,-8.85555 5.29778,-13.55919 0.0117,-3.140636 -3.70329,-3.410806 -6.04199,-3.295366 -0.48318,-0.005 -0.96629,-0.004 -1.44946,0.001 z"
       style="fill:#62cf5a;fill-opacity:1;stroke-width:0.356107" />
    <path
       style="fill:#b4e0d6;stroke-width:0.503611"
       d="m 339.41239,34.498501 c -95.4518,0.745659 -190.90875,0.768127 -286.358897,1.691818 -4.34076,0.361074 -8.942182,-0.366873 -13.136181,0.885254 -5.520013,6.804589 -9.469579,14.841931 -12.857586,22.90246 -7.502538,18.139966 -8.338737,38.210494 -6.648486,57.535627 2.544491,17.81209 9.32126,35.28596 20.524114,49.45813 3.450619,1.26837 7.519652,0.0164 11.203186,0.3315 105.62791,-1.08689 211.26551,-1.15343 316.89247,-2.3607 3.81818,-0.4341 8.09469,0.53096 11.63027,-1.15673 9.89898,-13.15679 16.12385,-28.82334 20.00378,-44.73383 -0.33001,-14.18013 0.84763,-28.47946 -1.08394,-42.576768 -2.47536,-13.165803 -7.61162,-25.895084 -14.93226,-37.107866 -2.03732,-2.304445 -3.66474,-6.241155 -7.40458,-5.170465 -12.61063,0.100523 -25.22126,0.201047 -37.83189,0.30157 z m 8.74532,16.109649 c 17.48309,-0.4176 34.25462,12.357785 38.64035,29.241896 2.11424,8.34194 1.65602,17.353237 -1.29543,25.405794 -5.60811,15.50081 -21.69646,26.46603 -38.21227,25.65751 -8.04709,-0.13453 -15.78659,-2.93205 -22.73941,-6.84193 -2.88378,-0.0724 -4.55003,3.3753 -6.93034,4.71751 -11.28932,9.24703 -22.11253,19.09732 -33.73526,27.91982 -3.53995,2.36591 -7.38318,-1.67089 -8.96172,-4.59643 -1.30059,-3.67113 3.27294,-5.66718 5.29776,-7.89253 11.43172,-9.35354 23.14683,-18.35512 34.65177,-27.61795 1.27955,-2.50488 -1.942,-4.74461 -2.71276,-7.13056 -7.59635,-14.686543 -5.28162,-34.530775 6.62755,-46.41548 7.50232,-8.173829 18.2526,-12.795309 29.36976,-12.44765 z m -234.9168,2.185593 c 6.03469,-0.237158 8.11871,6.391059 8.91352,11.222066 0.49165,2.146785 0.77896,5.808744 3.90888,5.143324 6.13795,-0.06475 12.39675,-0.544848 18.42016,-1.226568 2.84354,1.535763 6.52313,3.137433 6.37875,6.988585 0.42708,3.736019 0.31939,9.158227 -4.16463,10.290582 -5.41463,2.200644 -11.51795,1.461867 -16.96638,3.28724 -2.08363,2.406711 0.36192,5.898835 0.61015,8.583097 0.85788,5.140431 4.14171,10.118641 3.00169,15.422031 -2.30012,4.76909 -8.55561,5.02444 -13.04668,3.87643 -5.50882,-2.32574 -5.80443,-9.13796 -7.38203,-14.0116 -1.30018,-4.191361 -1.60356,-8.847159 -3.55576,-12.728962 -10.702273,-0.813856 -21.830102,0.05248 -32.34717,-1.091814 -5.221983,-2.250989 -5.667059,-9.543661 -3.369868,-14.078483 2.264371,-4.55464 8.199935,-2.981321 12.240108,-3.533146 5.868493,-0.233451 11.759075,-0.229116 17.61065,-0.716072 2.42249,-1.558496 0.0516,-4.851271 0.15194,-7.100507 -0.63216,-3.239453 -0.69259,-7.660922 3.01136,-9.007174 2.03282,-1.000305 4.33229,-1.386324 6.58531,-1.319029 z m 77.99773,5.498409 c 3.39872,-0.12108 8.98615,0.917491 8.66663,5.410867 -1.03894,5.859353 -6.60434,9.419592 -10.49225,13.39553 -4.08759,3.263634 -7.93733,7.435645 -13.03681,9.014173 -4.41656,-0.579437 -9.00349,-5.475504 -6.40924,-10.01025 4.2805,-5.944118 10.22303,-10.558095 15.70146,-15.373905 1.59035,-1.319519 3.39662,-2.570124 5.57021,-2.436415 z m 44.14563,2.987239 c 6.53361,0.270772 13.20794,-0.546651 19.66443,0.593121 5.27345,1.487149 6.5233,10.901417 0.75444,12.386665 -10.02318,1.331841 -20.28494,0.718409 -30.45463,1.045081 -3.71367,-0.203712 -7.64202,0.448537 -11.24869,-0.305402 -3.63536,-2.437346 -5.73344,-7.909993 -2.341,-11.439445 3.24902,-3.048072 8.33134,-1.694214 12.36104,-2.222684 3.75451,-0.05442 7.50959,-0.05402 11.26441,-0.05734 z m -90.13849,5.407917 c -0.12452,0.26546 0.0528,-0.244244 0,0 z m 51.62307,12.945359 c 4.38989,-0.446032 8.34552,4.042648 6.5135,8.352858 -1.26732,4.116924 -5.03512,7.090515 -6.1832,11.124686 -0.23126,15.122599 0.41138,30.356049 -0.97457,45.393849 -0.54798,3.57015 -4.70753,5.46411 -7.97121,5.59677 -3.24459,-0.2523 -6.30714,-2.54244 -6.24891,-5.99612 -1.21994,-8.9014 -0.25034,-18.03528 -1.52237,-26.8852 -1.30743,-1.90927 -4.0679,0.4757 -5.9295,-0.90095 -4.54119,-1.25668 -7.4337,-6.97431 -4.89152,-11.11387 7.09071,-8.780362 15.00129,-16.884223 23.11496,-24.661196 1.20905,-0.744949 2.70166,-0.897511 4.09282,-0.910827 z m 37.0095,8.838767 c 7.8722,0 15.7444,0 23.6166,0 2.66764,2.369616 6.03766,5.638736 4.16463,9.599097 -1.8694,4.633909 -7.31109,4.563579 -11.33813,5.781689 -1.74956,2.14066 -0.46354,5.52382 -0.97756,8.14252 -0.50523,9.79378 -0.0782,19.67637 -1.54541,29.38732 -1.66732,6.39359 -9.07098,7.24713 -14.48374,7.97712 -5.01205,1.08604 -10.63014,-1.25683 -12.44961,-6.24989 -1.06939,-2.2244 -1.17056,-5.39871 1.48722,-6.484 3.04113,-2.21863 7.03817,-1.29967 10.2449,-2.79946 1.48692,-2.34743 0.22125,-5.82762 0.64077,-8.5967 -0.13152,-6.94217 0.26338,-13.99138 -0.19668,-20.86675 -2.04257,-2.00891 -5.93677,-0.61112 -8.70441,-1.19759 -5.14871,-0.54571 -10.77286,0.48261 -15.5683,-1.76865 -3.26328,-2.334145 -4.50951,-7.280063 -1.321,-10.270913 1.53894,-2.113947 3.63523,-3.266783 6.29907,-2.653793 6.71055,0 13.4211,0 20.13165,0 z M 82.236373,93.228196 c 2.52228,0.28943 -1.09979,3.556919 -0.835092,0.901972 0.0947,-0.408292 0.403795,-0.82639 0.835092,-0.901972 z m 9.158438,7.339734 c 4.387725,0.39649 9.433219,4.49288 7.731219,9.32566 -1.295706,5.57732 -5.797056,11.86314 -2.11084,17.45818 4.51698,5.47543 12.35314,4.0802 18.61383,4.3578 8.36737,0.21352 16.71054,-1.52419 25.02721,-0.67711 4.75126,1.77313 4.9616,8.44197 3.5056,12.55781 -1.65891,5.00841 -7.786,5.38032 -12.16703,6.06204 -10.30709,0.77317 -20.90349,1.36533 -31.15505,0.20158 -10.098264,-1.88253 -20.985698,-7.79574 -23.635553,-18.47815 -1.617442,-8.87075 0.49371,-18.57846 5.885953,-25.85432 2.025075,-2.53457 4.849028,-5.05218 8.304661,-4.95349 z"
       id="path3644" />
  </g>
  <g
     id="g18"
     inkscape:label="Image"
     inkscape:groupmode="layer">
    <path
       id="path22"
       d="m 40.175354,170.68125 c -4.60256,-1.28089 -15.54294,-20.41912 -19.75703,-34.56134 -4.19758,-14.08681 -5.06964,-21.2356 -4.49908,-36.881456 0.78281,-21.46599 3.15288,-32.07374 10.73357,-48.04033 3.86789,-8.14663 5.37505,-10.5611 9.98881,-16.00217 l 2.01507,-2.37639 124.535926,-0.75716 c 68.49477,-0.41643 145.98339,-0.79685 172.19694,-0.84537 l 47.66101,-0.0882 3.36177,4.06615 c 4.18193,5.05816 11.32092,19.84519 14.12323,29.25352 3.11832,10.46926 3.93642,16.31028 4.51794,32.25679 0.41987,11.513556 0.23422,15.916696 -0.93123,22.086716 -2.26885,12.01148 -5.3576,21.34719 -10.4016,31.43864 -5.55479,11.1134 -10.28078,17.45887 -13.45773,18.06939 -1.25063,0.24033 -8.91323,0.4719 -17.028,0.5146 -178.51062,0.93924 -318.796286,1.86068 -319.817316,2.10066 -0.71601,0.16829 -2.17503,0.063 -3.24228,-0.23405 z m 264.043106,-4.85888 75.50639,-0.54284 3.23791,-4.01438 c 5.12371,-6.35243 12.4748,-22.04459 15.61987,-33.34331 2.74901,-9.87588 2.81966,-10.56062 2.78778,-27.02041 -0.0498,-25.719306 -1.87491,-33.718986 -12.8239,-56.208816 -1.2588,-2.58565 -3.56336,-6.03019 -5.12125,-7.65453 l -2.83252,-2.95335 -170.01657,0.89942 -170.016566,0.89943 -2.93726,3.40001 c -4.08258,4.72575 -11.82331,21.18832 -14.48114,30.79769 -5.0163,18.13639 -5.2823,43.057176 -0.64441,60.373716 3.01638,11.26229 10.25125,26.83191 15.44638,33.241 l 3.17109,3.91206 93.798896,-0.62143 c 51.58939,-0.34178 127.77678,-0.8657 169.3053,-1.16426 z M 119.72516,147.8299 c -3.59859,-3.50114 -3.28059,-5.9556 1.51354,-11.68211 2.22775,-2.66101 4.98969,-6.83423 6.13767,-9.27383 3.73134,-7.92962 3.48965,-17.26894 -0.53869,-20.81582 -1.48456,-1.30714 -1.69662,-1.07723 -3.99488,4.33093 -7.19964,16.9419 -16.82088,29.46286 -26.483896,34.46582 -6.46647,3.34795 -17.19077,1.43255 -22.25022,-3.97396 -7.24139,-7.73815 -8.76299,-22.80804 -3.44419,-34.11122 2.49718,-5.30685 10.72148,-13.741776 15.13148,-15.518996 2.68389,-1.08159 2.75192,-1.24218 2.75192,-6.49509 v -5.38608 h -7.76261 c -6.9546,0 -8.01607,-0.21211 -10.1977,-2.03786 -2.00579,-1.67858 -2.43509,-2.71649 -2.43509,-5.88725 0,-6.24581 2.0614,-7.59619 12.38901,-8.11579 l 8.44034,-0.42466 0.24758,-2.53316 c 0.37597,-3.84679 1.90449,-6.16172 4.69299,-7.10746 5.62306,-1.90714 11.115376,1.63764 11.115376,7.17394 v 2.79409 l 18.30247,0.25849 18.30245,0.25849 2.09295,2.36915 c 2.8893,3.27061 2.87234,8.34856 -0.0373,11.17943 l -2.13028,2.07259 h -19.13303 -19.13302 v 2.95536 2.95536 l 6.2922,0.0125 c 12.00522,0.0238 21.17689,3.18498 28.45331,9.80692 4.94464,4.49988 7.66213,10.214876 8.3715,17.605626 1.02131,10.64078 -2.51979,20.96259 -10.29919,30.02065 -6.91659,8.05344 -11.80038,9.57385 -16.39467,5.10396 z M 91.384484,128.60169 c -0.11056,-0.55491 -0.86745,-5.62875 -1.68198,-11.2752 -1.31519,-9.11708 -1.61604,-10.09112 -2.68756,-8.70154 -3.2036,4.15451 -4.81593,8.52758 -4.88722,13.25543 -0.0641,4.24707 0.21793,5.16589 2.02126,6.5866 2.27615,1.7932 7.58565,1.89206 7.2355,0.13471 z m 16.204166,-19.83822 c 1.46107,-3.55003 2.65648,-6.86626 2.65648,-7.36941 0,-0.52313 -1.69496,-0.91482 -3.95868,-0.91482 h -3.95868 l 0.51966,4.01084 c 0.28581,2.20596 0.72959,5.66056 0.98618,7.67688 0.25658,2.01632 0.60872,3.52767 0.78254,3.35856 0.17382,-0.16911 1.51144,-3.21204 2.9725,-6.76205 z m 78.47271,40.69736 c -4.20641,-1.65152 -4.64928,-3.53616 -4.64928,-19.78478 0,-11.80665 -0.23144,-14.9548 -1.04147,-14.16671 -1.27701,1.24243 -5.42649,1.3201 -7.6855,0.14385 -2.51626,-1.3102 -4.54231,-5.7205 -3.95049,-8.59945 0.32923,-1.60155 2.91101,-4.7751 7.28944,-8.960216 3.7288,-3.56419 8.48383,-8.68793 10.56673,-11.38608 2.0829,-2.69814 4.94164,-5.48658 6.35274,-6.19654 5.01282,-2.52202 11.03368,0.43871 11.03368,5.42577 0,1.08318 -1.54457,4.18229 -3.43237,6.88693 l -3.43237,4.91752 -0.25616,23.815766 -0.25616,23.81577 -2.83434,2.46272 c -2.92798,2.54411 -4.51297,2.8785 -7.70445,1.62545 z m 38.42306,-1.74302 c -1.37053,-1.05885 -3.06109,-3.25062 -3.75681,-4.87062 -1.16068,-2.70269 -1.12697,-3.12595 0.40905,-5.13565 1.38188,-1.80804 2.56745,-2.26388 6.79441,-2.61241 l 5.12044,-0.42219 0.23613,-15.83227 0.23611,-15.83227 h -11.23512 c -10.8208,0 -11.3336,-0.0806 -13.90538,-2.18603 -3.53994,-2.897996 -3.6956,-7.102746 -0.37381,-10.097906 l 2.29646,-2.07065 h 23.6135 23.61349 l 2.29647,2.07065 c 5.29825,4.77728 1.12855,12.283936 -6.82333,12.283936 h -3.77925 l -0.27663,18.78763 c -0.31129,21.14197 -0.75123,22.90043 -6.37932,25.49882 -1.72785,0.79771 -5.94348,1.65148 -9.36805,1.89726 -5.5629,0.39925 -6.49207,0.2417 -8.71836,-1.4783 z M 171.93189,83.938624 c -2.00479,-1.64123 -2.67027,-2.89213 -2.67027,-5.01924 0,-3.19593 0.49522,-3.79278 11.43597,-13.78319 6.91887,-6.31788 7.82219,-6.87634 11.12265,-6.87634 6.96925,0 10.10746,3.91375 7.01204,8.7449 -3.55653,5.55084 -19.34641,19.1199 -22.24919,19.1199 -1.08952,0 -3.18257,-0.98372 -4.6512,-2.18603 z m 40.25082,-10.86361 c -2.92353,-2.84436 -2.87629,-7.08382 0.10937,-9.81274 2.23824,-2.04578 2.25239,-2.04706 22.49521,-2.04706 20.24282,0 20.25697,0.002 22.49521,2.04706 3.146,2.87548 3.12353,7.70877 -0.0471,10.13528 -2.16555,1.65729 -3.36375,1.75006 -22.60457,1.75006 h -20.31785 z"
       style="fill:#000000;stroke-width:0.856058" />
    <path
       style="fill:#e0e8f5;fill-opacity:1;stroke-width:0.395248"
       d="m 355.05583,61.270774 c -14.47125,-4.04311 -31.09641,5.38783 -35.5053,19.63091 -1.64814,5.45608 -2.48901,11.29205 -0.69033,16.83299 3.06126,12.792526 15.06799,23.000686 28.37064,23.119896 13.02259,-0.0559 26.21632,-8.58637 29.84625,-21.425116 4.64923,-14.54034 -3.75477,-31.98206 -18.17446,-37.10049 -1.27106,-0.39174 -2.5578,-0.73122 -3.84688,-1.05789 z"
       id="path3453" />
    <path
       style="fill:#c5d1eb;fill-opacity:1;stroke-width:0.138336"
       id="path3455"
       d="m 346.27697,58.107914 c -0.48288,1.95409 -1.00045,3.89945 -1.50993,5.8467 -0.63632,3.011 -1.26395,6.02332 -1.96263,9.02068 -0.64399,3.33003 -1.32,6.65318 -1.96853,9.98233 -0.78399,4.0345 -1.75419,8.02901 -2.75902,12.01316 -0.80817,3.1714 -1.65293,6.333306 -2.48866,9.497456 -0.6895,2.21552 -1.09308,4.49348 -1.51061,6.7703 -0.32806,1.43313 -0.56658,2.86988 -0.73054,4.32938 -0.0903,0.82662 -0.25474,1.64186 -0.4255,2.4548 0,0 7.22616,0.31408 7.22616,0.31408 v 0 c 0.1697,-0.82881 0.33675,-1.65959 0.42712,-2.50159 0.16214,-1.44798 0.38914,-2.87384 0.70911,-4.29702 0.39686,-2.26387 0.78626,-4.5286 1.45966,-6.73168 0.83773,-3.16419 1.66923,-6.330026 2.46244,-9.505696 0.98868,-3.99659 1.95087,-8.00092 2.75557,-12.03939 0.64944,-3.3253 1.3691,-6.63583 2.0058,-9.96359 0.68436,-2.99603 1.29653,-6.00729 1.9762,-9.00423 0.51833,-1.94986 1.03298,-3.90089 1.57773,-5.84353 0,0 -7.24536,-0.34242 -7.24536,-0.34242 z" />
    <path
       style="fill:#c5d1eb;fill-opacity:1;stroke-width:0.138336"
       id="path3457"
       d="m 344.09852,58.493994 c -0.70964,1.80253 -1.26338,3.66229 -1.80487,5.52079 -0.57154,1.98943 -1.12048,3.98521 -1.64814,5.9867 -0.52951,2.0555 -1.0822,4.10483 -1.62301,6.1573 -0.55132,2.09995 -1.09931,4.20076 -1.66016,6.29821 -0.52335,1.93069 -1.01854,3.86887 -1.53063,5.80263 -0.65571,2.47503 -1.29513,4.95428 -1.94596,7.43059 -0.76884,2.91844 -1.53952,5.836306 -2.31806,8.752136 -0.67234,2.53795 -1.34279,5.07636 -2.01449,7.61446 -0.44421,1.67173 -0.90195,3.33982 -1.34665,5.01139 -0.22299,0.83747 -0.11149,0.41454 -0.33524,1.2689 0,0 7.22147,0.34129 7.22147,0.34129 v 0 c 0.22752,-0.85368 0.11565,-0.43067 0.33524,-1.26893 0.43903,-1.66988 0.86332,-3.34364 1.30122,-5.01381 0.66784,-2.53848 1.33814,-5.07629 2.00779,-7.61424 0.76449,-2.91874 1.53495,-5.835886 2.30544,-8.753006 0.66047,-2.47627 1.32745,-4.95076 1.97889,-7.42945 0.50834,-1.93489 1.03426,-3.86514 1.53448,-5.80222 0.54849,-2.10104 1.10654,-4.19955 1.66353,-6.29828 0.54198,-2.05206 1.06847,-4.10823 1.6241,-6.15662 0.53314,-1.99416 1.05244,-3.99221 1.63041,-5.974 0.54727,-1.83874 1.0876,-3.69003 1.86312,-5.44834 0,0 -7.24056,-0.42607 -7.24056,-0.42607 z" />
    <path
       style="fill:#c5d1eb;fill-opacity:1;stroke-width:0.138336"
       id="path3459"
       d="m 356.18534,60.261074 c -0.56285,2.18173 -1.14123,4.35938 -1.71663,6.53779 -0.71217,2.70387 -1.4262,5.40733 -2.14023,8.11071 -0.69827,2.6363 -1.39472,5.27309 -2.08743,7.91086 -0.71093,2.69911 -1.42738,5.39671 -2.14137,8.09499 -0.47425,2.31594 -0.90043,4.63945 -1.42231,6.94564 -0.71615,3.046176 -1.51223,6.072826 -2.30721,9.099136 -0.72488,2.51123 -1.31641,5.0471 -1.79029,7.61616 -0.26873,1.50183 -0.58042,2.99524 -0.93336,4.47942 -0.24151,1.03979 -0.56658,2.05784 -0.74003,3.11161 0,0 2.40907,0.0979 2.40907,0.0979 v 0 c 0.175,-1.04969 0.49913,-2.06427 0.74034,-3.1002 0.3496,-1.48728 0.65499,-2.98416 0.92213,-4.48853 0.4659,-2.5655 1.05664,-5.09665 1.77619,-7.60414 0.79362,-3.02903 1.59337,-6.05696 2.31458,-9.104276 0.52437,-2.30392 0.95255,-4.62493 1.42322,-6.93978 0.71078,-2.69866 1.4222,-5.39716 2.13483,-8.09537 0.69959,-2.63614 1.39547,-5.27327 2.09132,-7.9104 0.71407,-2.70361 1.42817,-5.40722 2.14409,-8.11033 0.57577,-2.17992 1.14969,-4.36033 1.73681,-6.53715 0,0 -2.41372,-0.11414 -2.41372,-0.11414 z" />
    <path
       style="fill:#000000;stroke-width:0.184449"
       d="m 279.44464,156.40356 c -0.93094,-0.40286 -3.01603,-2.24413 -3.58523,-3.16588 -0.75696,-1.22589 -0.96491,-2.62519 -0.59932,-4.0328 0.22904,-0.88033 0.43102,-1.2333 0.81619,-1.42409 0.28158,-0.13946 9.53228,-7.39483 20.55674,-16.12297 l 20.04446,-15.86937 -0.40966,-0.4848 c -1.89509,-2.24277 -4.38165,-6.69025 -5.79149,-10.35855 -1.04462,-2.71808 -2.24602,-8.322736 -2.44822,-11.421616 -0.77847,-11.92777 4.31943,-24.60223 13.05494,-32.45714 6.75458,-6.0737 15.03209,-9.60049 23.94909,-10.20405 8.62859,-0.58401 17.86828,1.85152 25.17033,6.63466 7.36792,4.82631 12.93018,12.12019 15.79737,20.71544 3.73009,11.182 1.91425,24.648756 -4.67494,34.670476 -1.70751,2.59702 -5.50911,6.86222 -7.85828,8.81658 -2.59767,2.16109 -7.97019,5.2902 -11.14635,6.49194 -3.09094,1.16954 -8.37022,2.28586 -11.83544,2.50273 -4.42643,0.27704 -7.3468,-0.0616 -12.68092,-1.47054 -5.29792,-1.39933 -8.08033,-2.57337 -11.64174,-4.91252 -1.14645,-0.75299 -2.18177,-1.33946 -2.30068,-1.30329 -0.11905,0.0378 -2.03886,1.61117 -4.26655,3.49995 -2.22769,1.88882 -8.4288,7.12653 -13.78027,11.63936 -5.3514,4.51279 -12.50831,10.55441 -15.90418,13.42579 -3.39591,2.87138 -6.26128,5.19776 -6.36752,5.16968 -0.10621,-0.0265 -0.23018,0.0888 -0.27553,0.26003 -0.13795,0.52203 -1.85439,0.25323 -3.82311,-0.59898 z m 65.93684,-35.47166 c 7.87688,0.72136 16.48755,-2.09458 22.61847,-7.39695 4.89725,-4.23542 7.86909,-8.92589 9.51095,-15.011146 0.98612,-3.65836 1.21675,-5.61373 1.05181,-8.95363 -0.42342,-8.57355 -4.13193,-16.36153 -10.44015,-21.92496 -3.43215,-3.02691 -6.60473,-4.80423 -11.01853,-6.1728 -14.16291,-4.39136 -29.40053,2.15044 -36.36907,15.61398 -1.5261,2.94853 -2.94668,8.29421 -3.08372,11.6002 -0.31521,7.6568 2.05565,14.945236 6.80912,20.934166 3.47531,4.37865 8.18109,7.75147 13.79951,9.89064 1.34033,0.51035 4.86796,1.21387 7.12055,1.4202 z"
       id="path3450" />
    <path
       style="fill:#625e5b;fill-opacity:1;stroke-width:0.279483"
       d="m 357.60088,52.997464 c -13.9903,-3.66569 -29.71237,1.1393 -39.07113,12.20504 -8.91745,10.3457 -12.12589,25.52912 -7.29815,38.535606 1.38962,4.37911 3.80458,8.34576 6.37674,12.02555 -0.68587,1.79788 -3.14135,2.69401 -4.52035,4.12819 -11.99418,9.6003 -24.19839,18.94658 -36.12737,28.6224 -2.04272,1.46589 -0.31257,4.29113 1.08775,5.6084 1.21413,1.08938 2.89458,2.30381 4.57587,2.08415 13.68654,-10.98936 26.79712,-22.74807 40.49681,-33.73618 2.23529,-0.63492 4.01828,1.72256 5.96368,2.47771 4.65781,2.29379 9.85704,3.49428 14.88132,4.53774 8.79315,1.10487 17.8659,-1.24657 25.23073,-6.15496 10.505,-6.46224 17.17549,-18.47725 17.64468,-30.746566 0.76343,-12.6127 -5.10074,-25.41249 -15.26604,-32.89527 -4.1359,-3.13282 -8.91519,-5.41818 -13.97454,-6.69181 z m -1.45152,7.27253 c 11.97959,3.00076 21.41805,13.73314 23.0189,25.95704 1.06334,6.82303 -0.52429,13.960356 -3.8282,19.967576 -7.15249,12.39413 -23.26553,18.94473 -36.92213,14.23242 -10.23632,-3.2733 -18.22859,-12.15519 -20.73483,-22.560606 -3.15855,-11.39032 1.44348,-24.08322 10.52341,-31.4604 7.60525,-6.55552 18.30709,-8.72897 27.94285,-6.13603 z"
       id="path3470" />
  </g>
  <g
     style="display:inline;opacity:1"
     inkscape:label="Image 2"
     id="layer2"
     inkscape:groupmode="layer">
    <path
       id="path21442"
       d="m 191.39606,56.912614 c -5.673,0.19433 -9.05177,5.58914 -13.18972,8.72932 -3.55033,3.9134 -9.06492,6.88043 -10.23999,12.3948 -0.70126,5.1181 4.58221,8.88303 9.06499,9.56172 5.98321,-3.00434 11.01619,-7.72591 15.97917,-12.18256 3.40631,-3.64676 8.509,-7.44051 8.15187,-12.97241 -0.96566,-4.14646 -6.02642,-5.62863 -9.76632,-5.53087 z"
       style="fill:#0b280b;fill-opacity:1;stroke-width:0.503611" />
    <path
       id="path21444"
       d="m 196.31414,78.327884 c -6.13119,0.31639 -9.18278,6.64511 -13.23983,10.30389 -4.91935,5.70574 -11.02611,10.49792 -15.07157,16.896016 -2.44929,5.90202 3.13975,13.21892 9.56566,12.28634 2.66345,-1.19285 2.11046,1.19357 2.18795,3.10547 0.60992,8.43424 -0.28835,17.12952 1.41011,25.48527 1.18197,3.57438 5.7012,5.64772 9.27156,4.85807 3.3724,-1.40903 7.3548,-3.63327 7.25318,-7.86498 0.87095,-15.00041 0.44655,-30.05532 0.8105,-45.076136 2.33912,-4.40479 7.00304,-8.44821 6.63842,-13.82077 -0.80418,-3.95635 -4.94323,-6.4581 -8.82598,-6.17317 z"
       style="fill:#0b280b;fill-opacity:1;stroke-width:0.503611" />
    <path
       id="path21446"
       d="m 227.72687,59.915594 c -5.24855,0.4308 -11.12657,-0.86826 -15.90801,1.81968 -3.40026,2.77045 -4.29051,8.20327 -1.05148,11.46699 1.63051,2.28938 3.85377,4.22752 6.88324,3.38742 12.47565,-0.36544 25.02425,0.37184 37.45518,-0.83986 5.47462,-0.61119 7.34519,-7.71728 4.29741,-11.78961 -2.66825,-4.84994 -8.7749,-3.82657 -13.37318,-4.01785 -6.10092,-0.0476 -12.20212,-0.0313 -18.30316,-0.0268 z"
       style="fill:#0b280b;fill-opacity:1;stroke-width:0.503611" />
    <path
       id="path21448"
       d="m 209.28212,87.764684 c -3.68658,2.44619 -6.98192,7.98724 -3.57544,11.97355 1.65475,2.773606 4.57879,4.427876 7.82466,4.168556 6.15845,0.43641 12.34676,0.24425 18.49983,0.75443 -0.0933,9.53721 -0.11948,19.0749 -0.17213,28.61238 -4.50126,0.47909 -10.79714,0.38443 -12.83323,5.42759 -1.06685,4.58388 2.88703,8.75725 6.3335,11.20043 4.63879,1.40279 9.76371,0.5547 14.44734,-0.39836 4.44824,-0.9555 9.05762,-3.93665 9.39746,-8.88598 1.82777,-12.04067 0.58936,-24.28418 1.6328,-36.36524 5.18885,0.5526 11.9152,-1.80368 12.46929,-7.752856 0.61787,-3.93928 -2.76097,-7.32637 -5.75907,-9.14368 -15.87175,0.11834 -31.82944,-0.23632 -47.64757,0.17715 l -0.47143,0.17716 z"
       style="fill:#0b280b;fill-opacity:1;stroke-width:0.503611" />
    <path
       id="path21450"
       d="m 321.73983,29.948774 c -94.38829,0.25253 -188.77688,0.70064 -283.161173,1.6269 -3.084025,1.77883 -4.898512,5.36778 -7.07028,8.19412 -8.589519,14.01054 -14.896128,29.72634 -16.03281,46.25356 -1.926224,18.685196 -1.750874,38.187486 5.568183,55.796886 4.162023,9.68611 8.414812,19.70681 15.456529,27.69466 1.807106,2.33719 4.384931,3.45009 7.325753,2.83446 108.890418,-1.22055 217.791998,-1.20287 326.682008,-2.38417 4.99727,-0.53489 11.51753,0.65652 15.04283,-3.81819 6.68402,-9.22056 11.83075,-19.58441 15.58342,-30.3219 3.41791,-10.37413 5.7497,-21.18822 5.32136,-32.16717 -0.031,-15.113156 -0.80383,-30.559396 -6.48975,-44.760866 -3.93887,-10.19319 -8.47079,-20.69898 -16.16181,-28.59686 -5.29945,-0.84939 -10.98928,-0.1066 -16.43534,-0.35727 -15.20964,0.002 -30.41929,-0.009 -45.62892,0.006 z m 59.58642,7.09481 c 6.35264,6.57738 9.28503,15.55406 12.83126,23.79562 6.38035,15.70837 5.89082,32.8748 5.66788,49.536656 0.18829,12.42606 -4.65762,24.29475 -9.60656,35.49866 -2.95765,6.40374 -6.61521,12.49333 -11.0644,18.03083 -93.16229,0.51665 -186.32327,1.3373 -279.486015,1.82945 -19.299726,0.13848 -38.60012,0.21346 -57.89891,0.45844 -9.389586,-11.2183 -14.849343,-25.10067 -18.580491,-39.09084 -3.524224,-16.45218 -3.07971,-33.623046 -0.248595,-50.040226 2.730104,-12.97267 8.208602,-25.37922 15.484144,-36.43608 1.358697,-2.07737 2.931564,-4.13053 5.715411,-3.3332 111.838706,-0.60188 223.677406,-1.20503 335.516096,-1.81129 0.55673,0.52066 1.11345,1.04132 1.67018,1.56198 z"
       style="fill:#0b280b;fill-opacity:1;stroke-width:0.503611" />
    <path
       id="path21454"
       d="m 347.38017,49.255474 c -13.65986,-0.0188 -27.01822,7.40797 -34.26772,18.97401 -4.3285,6.89537 -6.79967,15.02621 -6.62964,23.19299 -0.0372,4.77893 1.02888,9.518146 2.5599,14.022046 1.41982,3.54303 3.19291,6.96931 5.44245,10.05932 -12.8572,10.31173 -25.83982,20.44791 -38.75686,30.68152 -1.16959,0.86805 -2.15589,2.09556 -2.08413,3.63201 -0.35863,2.28908 0.76268,4.49027 2.44197,5.98287 1.92405,1.74566 4.52621,3.30319 7.21638,2.84329 1.66918,-0.60373 2.80471,-2.13044 4.24643,-3.11561 12.20122,-10.16656 24.28119,-20.5105 36.46589,-30.66967 3.28725,2.03832 6.6962,3.9369 10.44185,4.99245 5.27135,1.67245 10.80273,2.85565 16.36063,2.32314 4.42415,-0.34185 8.83027,-1.29178 12.96184,-2.91364 3.81722,-1.82671 7.6197,-3.84715 10.85639,-6.60049 4.45302,-4.05027 8.47174,-8.71968 10.90542,-14.28009 2.81552,-6.18198 4.19276,-13.020606 3.84428,-19.813536 -0.24345,-8.98991 -3.91602,-17.7511 -9.65327,-24.61808 -7.87518,-9.41705 -20.11724,-14.82045 -32.35181,-14.69253 z m 0.63605,4.20929 c 3.79175,-0.10712 7.49268,0.43931 11.0942,1.61195 11.51638,3.456 21.10146,12.85412 24.52795,24.36402 1.71224,5.24581 1.9028,10.69239 1.3907,16.14026 -1.10552,8.666676 -5.47268,17.138446 -12.00365,22.969576 -6.35382,5.46849 -14.45682,9.12422 -22.83985,9.57171 -4.39621,0.3771 -9.10148,-0.77528 -13.45626,-1.99262 -3.63479,-0.97517 -7.13361,-2.45077 -10.27319,-4.53514 -1.37756,-0.80271 -3.30228,-1.25266 -4.58418,-0.01 -8.92894,6.99543 -17.4444,14.51294 -26.15285,21.76439 -4.53092,3.74749 -9.04663,7.69399 -13.6313,11.23112 -1.66146,-0.14902 -3.02498,-1.50755 -3.92552,-2.8259 -0.33541,-0.6014 -0.9791,-1.62643 -0.0779,-2.07613 9.58196,-7.91308 19.47369,-15.46571 29.20512,-23.21633 3.47155,-2.82533 7.07315,-5.4967 10.50948,-8.35962 1.01655,-0.90617 1.90922,-2.50142 0.77796,-3.67512 -5.59977,-7.72863 -8.81757,-17.387246 -7.82864,-26.973956 1.12605,-12.74766 9.10001,-24.81881 20.76253,-30.28482 5.12095,-2.46318 10.79324,-3.88466 16.49567,-3.70365 z m -24.41591,71.099626 c -0.0206,0.006 -0.1761,-0.0444 0,0 z"
       style="fill:#0b280b;fill-opacity:1;stroke-width:0.178053" />
    <path
       id="path21458"
       d="m 347.74914,57.669194 c -9.81681,-0.0113 -19.38834,4.83143 -25.41377,12.54232 -3.77505,4.80639 -6.34147,10.66271 -6.97917,16.7586 -0.0745,3.74207 -0.3548,7.57917 0.80499,11.2005 2.32461,9.355246 8.76071,17.666296 17.45544,21.917106 6.81018,3.53211 14.91318,4.35695 22.30975,2.34316 10.43504,-2.70009 19.74267,-10.48379 23.13547,-20.86737 1.22373,-3.355136 2.01004,-6.894086 1.82896,-10.483226 0.15116,-3.5396 -0.23903,-7.09944 -1.42382,-10.45229 -3.43059,-10.76253 -12.64327,-19.55098 -23.71633,-22.04513 -2.61741,-0.62489 -5.31043,-0.93475 -8.00152,-0.91367 z m 0.31229,4.14252 c 3.23147,-0.0773 6.56184,0.36957 9.63001,1.5314 8.8418,2.87669 15.65356,10.63023 18.20787,19.50637 1.20335,3.89008 1.06968,7.83225 0.86558,11.85098 -0.99242,6.017056 -3.65738,11.853776 -8.11167,16.098076 -5.75079,5.68565 -13.83968,8.94484 -21.94106,8.63282 -3.20697,-0.16733 -6.44213,-0.78549 -9.42122,-2.00023 -5.04724,-2.21777 -9.46829,-5.6003 -12.61561,-10.13648 -5.62908,-7.818756 -7.08745,-18.507556 -3.41128,-27.459906 2.83622,-7.24968 9.0614,-13.18273 16.10966,-16.0321 3.38465,-1.41674 7.05751,-2.09737 10.68772,-1.99093 z"
       style="fill:#0b280b;fill-opacity:1;stroke-width:0.178053" />
  </g>
  <g
     inkscape:label="Image 3"
     id="layer3"
     inkscape:groupmode="layer"
     style="display:inline">
    <path
       d="m 79.851229,63.038532 c 6.994732,9.325455 12.51944,19.619804 18.270819,29.727464 0,0 14.953012,-8.626401 14.953012,-8.626401 v 0 C 107.23947,74.02118 101.65511,63.738152 95.121556,54.043908 c 0,0 -15.270327,8.994624 -15.270327,8.994624 z"
       id="path21473"
       style="fill:#62cf5a;fill-opacity:1" />
    <path
       d="m 83.115049,58.625364 c 0.311323,0.311789 0.67678,0.577612 0.933969,0.935366 1.517931,2.111472 4.053571,6.638837 5.088548,8.555514 4.057307,7.513738 7.607859,15.277054 11.223844,23.007864 4.79587,10.787702 9.80832,21.484862 14.45225,32.339722 3.72125,8.09792 0.42891,6.15585 15.87125,-6.02265 0.38818,-0.30614 -0.94884,-0.32224 -1.35363,-0.60606 -2.37031,-1.66193 -5.00193,-4.32682 -7.02303,-6.23309 -5.97384,-5.95526 -11.17345,-12.606394 -16.79491,-18.879873 -2.31148,-2.579583 -4.67343,-5.113507 -7.001844,-7.677812 -1.059838,-1.210368 -2.126287,-2.414978 -3.179514,-3.631102 -1.05464,-1.217757 -3.881503,-4.49431 -5.007278,-5.970016 C 90.10442,74.15447 90.067928,73.329423 89.755305,73.514283 73.648839,83.03831 71.633194,78.960458 76.98915,85.67586 c 0.791725,1.107192 1.630889,2.181953 2.375175,3.321576 0.100783,0.154315 2.711955,4.44397 3.03056,5.37659 0.07118,0.208368 -0.676311,-0.300114 -0.499869,-0.431843 C 86.604524,90.426148 92.527469,88.339082 96.4,83.918056 97.415537,82.758681 94.980345,81.18192 94.270517,79.813852 91.820725,74.535961 89.395814,69.242364 87.109186,63.891094 c -0.59428,-1.390761 -1.210143,-2.774217 -1.729864,-4.194525 -0.264666,-0.723289 0.06973,-2.569651 -0.61953,-2.22597 -5.211769,2.598711 -9.660449,6.506848 -14.490673,9.760272 2.095208,3.558901 3.727055,7.369443 5.285814,11.185903 0.510048,1.248799 1.120003,2.467072 1.474849,3.768506 0.132538,0.486097 -0.469665,1.76646 -0.03532,1.511114 4.844553,-2.848047 9.22685,-6.417907 13.840274,-9.62686 -4.997218,-4.552204 -7.76024,-10.864372 -11.866627,-16.114931 -0.501546,-0.641293 -0.994412,-2.071984 -1.730302,-1.723745 -5.631959,2.665159 -10.523089,6.674783 -15.784633,10.012174 1.533095,7.431435 3.806043,14.704709 5.294811,22.144819 0.196548,0.98225 -0.524441,3.342697 0.408263,2.977305 5.450443,-2.135243 10.038689,-6.02421 15.058033,-9.036316 -0.317296,-0.955184 -1.302198,-3.876167 -1.425499,-4.508137 -1.136751,-5.826291 11.812189,-16.589684 -13.97326,7.764749 -0.67122,0.63397 1.459118,1.138991 2.113393,1.790435 0.994482,0.990181 1.881585,2.082655 2.822378,3.123983 0.859214,0.948281 1.718428,1.896562 2.577642,2.844843 0.625421,0.66471 1.259043,1.321798 1.876262,1.99413 0.4084,0.444867 0.890971,0.838391 1.200246,1.357088 0.633731,1.062855 2.228871,6.096839 2.316869,6.371019 0.617054,1.92254 1.19349,3.85789 1.790235,5.78684 2.529281,7.73842 4.809149,15.56439 7.544339,23.23507 0.287419,0.80604 0.115716,2.65321 0.930821,2.39258 5.697808,-1.82186 10.758583,-5.23352 16.137873,-7.85028 -0.46463,-1.2452 -0.93197,-2.48939 -1.3939,-3.7356 -3.07827,-8.30455 -0.85671,-2.29034 -4.21011,-11.71717 -1.328097,-3.73343 -3.049188,-8.70297 -4.689164,-12.404949 -0.378773,-0.855019 -0.8864,-1.646937 -1.3296,-2.470406 -5.446294,2.93672 -11.492857,4.962755 -16.338882,8.810155 -1.036314,0.82276 0.170591,2.64092 0.252088,3.96162 0.324751,5.26278 0.241666,4.43187 0.635821,9.7449 0.342837,4.62128 1.229984,3.09581 -0.488294,5.15241 4.412974,-3.28366 10.019694,-5.39079 13.238921,-9.85098 0.986176,-1.36634 -2.39458,-2.37697 -3.487421,-3.65959 -1.388031,-1.62906 -2.672673,-3.34471 -3.946126,-5.06483 -1.26114,-1.70348 -2.380311,-3.50972 -3.655332,-5.20284 -0.886611,-1.177343 -1.414897,-3.832254 -2.824483,-3.401803 -6.063886,1.851751 -11.051618,6.217763 -16.577427,9.326643 0.64076,5.67075 1.39792,11.34555 2.514976,16.94527 0.268993,1.34844 0.370704,2.76695 0.949295,4.0143 0.244916,0.528 0.911474,1.36557 1.39803,1.04615 5.562557,-3.65183 10.486754,-8.19387 15.730131,-12.29081 0.344964,-3.17548 0.196815,-6.37124 0.370063,-9.55338 0.391545,-7.191726 4.423633,-11.006927 -14.448452,6.6646 -0.87265,0.81714 0.820546,2.24593 1.211628,3.37566 0.657762,1.90009 1.289856,3.80898 1.934783,5.71347 0.602356,1.87109 3.049702,9.58161 3.858753,11.70791 0.410868,1.07982 0.32552,3.50497 1.427649,3.15836 18.097667,-5.69157 16.945593,-4.63488 15.318333,-15.18404 -3.775808,-6.37197 -1.710809,-3.74711 -16.587779,8.9695 -0.888575,0.75954 -0.0082,2.33793 -0.0033,3.50688 0.01307,3.07807 0.160425,6.16207 0.01061,9.23718 4.763497,-3.57427 10.591183,-6.05574 14.29049,-10.7228 1.060269,-1.33763 -1.368796,-3.12756 -2.083452,-4.67763 -1.280798,-2.77801 -2.819218,-7.43173 -6.023364,-8.73914 -0.460788,-0.18802 -0.985449,-0.13999 -1.478174,-0.20999 -0.684509,0.10903 -0.60781,0.29406 -0.94658,-0.22531 -3.718078,-5.70022 4.472663,-8.01998 -16.289281,8.28282 -0.770093,0.60469 0.417746,1.91337 0.649218,2.86475 0.290463,1.19385 0.610953,2.38019 0.91643,3.57028 0.526924,1.78302 1.284545,4.92202 2.378294,6.56877 0.521986,0.7859 1.326043,1.3424 1.989064,2.0136 0,0 14.977127,-9.25586 14.977127,-9.25586 v 0 c -0.557443,-0.46052 -1.253949,-0.79183 -1.672329,-1.38156 -1.076266,-1.51705 -1.786904,-4.62963 -2.257854,-6.26362 -0.262014,-1.16549 -0.58434,-2.31904 -0.786041,-3.49647 -0.131208,-0.76592 0.527117,-2.56572 -0.210651,-2.32169 -13.58561,4.49356 -18.567156,2.77932 -14.958996,8.4033 0.341296,0.53197 0.586313,1.14993 1.051389,1.57793 0.266326,0.24509 0.687707,0.22596 1.03156,0.33895 0.302728,-0.22108 0.539878,-0.59345 0.908183,-0.66323 1.834422,-0.34757 2.650016,1.62849 3.380633,2.89535 7.450949,12.91958 -1.810318,12.00018 20.887039,3.41487 -0.152817,-3.02925 -0.229367,-6.08133 -0.111782,-9.11319 0.0429,-1.10626 1.32739,-3.55345 0.246936,-3.31207 -18.888811,4.21988 -19.64124,3.51696 -14.841179,6.93524 0.130054,0.97537 0.349486,1.94294 0.390161,2.9261 0.285123,6.89174 -6.375087,11.00635 15.078266,-4.5945 0.8767,-0.63754 -1.077494,-1.88829 -1.488445,-2.89137 -1.207931,-2.94842 -2.96667,-8.78961 -3.870911,-11.6634 -0.601876,-1.94088 -1.185769,-3.88743 -1.805629,-5.82265 -0.445322,-1.3903 0.03918,-4.45241 -1.389725,-4.1533 -5.850478,1.22467 -11.107443,4.5905 -16.135948,7.82192 -0.732255,0.47056 -0.06602,1.73958 -0.09664,2.60946 -0.224023,6.36527 0.0029,3.06002 -0.615019,9.32219 4.785099,-1.94986 9.455993,-4.20765 14.355297,-5.84959 0.374293,-0.12543 -0.135774,1.49659 -0.310788,1.14276 -0.585777,-1.1843 -0.747422,-2.53751 -1.01868,-3.83062 -0.401628,-1.91459 -0.713351,-3.84786 -0.998054,-5.7833 -0.926177,-6.29623 -0.771428,-4.63764 -0.595229,-10.024783 -4.867678,2.228923 -10.503683,3.243263 -14.603034,6.686763 -1.091307,0.91671 1.997242,2.04211 2.873721,3.16599 2.659409,3.41005 4.743568,7.24752 7.631162,10.4916 1.140775,1.43274 1.747912,4.43182 3.562341,4.18291 6.273111,-0.8606 11.748758,-4.72619 17.623137,-7.08929 0.48281,-3.10071 0.26067,-0.81033 -0.116566,-5.74985 -0.124837,-1.63462 -0.23962,-3.27032 -0.319112,-4.90777 -0.07692,-1.58455 -0.194703,-3.17109 -0.150075,-4.75689 0.02928,-1.04052 1.376243,-3.371721 0.37121,-3.100677 -5.376785,1.450047 -10.087753,4.720917 -15.131629,7.081367 0.474775,0.70354 1.05031,1.34871 1.424326,2.1106 1.687073,3.43667 3.506992,8.79505 4.707735,12.27842 0.12292,0.3566 3.592271,10.70255 3.904312,11.80968 0.182999,0.64929 0.220802,1.33098 0.331202,1.99648 5.229661,-2.48665 10.854063,-4.27304 15.688983,-7.45994 0.67656,-0.44595 -0.73409,-1.4474 -1.03252,-2.20076 -2.98721,-7.54093 -5.113823,-15.40516 -7.596975,-23.11515 -0.56623,-1.959606 -1.117608,-3.923563 -1.698689,-5.878816 -0.415568,-1.398323 -1.549056,-5.520734 -2.507983,-7.128566 -0.321335,-0.538783 -0.850381,-0.922797 -1.289905,-1.370415 -4.189959,-4.267118 0.611527,0.834575 -4.512884,-4.697661 -0.941152,-1.098253 -1.858779,-2.217111 -2.823455,-3.294759 -0.79587,-0.889074 -1.322639,-2.974946 -2.456686,-2.603735 -18.08802,5.920802 -18.060947,5.297255 -14.344646,16.074405 5.19667,-2.841484 10.895956,-4.912631 15.590011,-8.524454 0.805763,-0.619991 -0.400899,-1.993826 -0.633938,-2.98344 -1.684763,-7.15445 -3.836743,-14.247376 -4.651072,-21.572904 -5.035015,2.326889 -10.376988,4.080447 -15.105044,6.980665 -0.597307,0.366392 1.233655,0.717124 1.692727,1.246531 1.078503,1.243741 1.949644,2.654161 2.872093,4.017668 2.975118,4.397638 5.640627,9.037388 9.229902,12.991815 5.529838,-2.760379 11.347875,-5.006384 16.589514,-8.281138 0.534495,-0.333929 -0.164862,-1.257559 -0.365273,-1.855078 -0.432732,-1.290178 -1.00539,-2.529229 -1.526834,-3.786174 -1.65161,-3.981218 -3.369774,-7.941397 -5.330418,-11.781831 -5.371678,2.62023 -11.134969,4.556225 -16.115033,7.86069 -0.673231,0.446715 0.536872,1.524883 0.844168,2.27212 2.800916,6.810861 6.084978,13.416669 8.953513,20.198549 4.486372,9.572756 0.966154,5.847503 18.899647,-1.996917 0.278614,-0.121871 -0.203554,-0.575716 -0.347981,-0.843332 -1.659092,-3.074211 -3.583315,-6.022063 -5.573863,-8.887984 -5.051197,-7.038331 -1.585748,-3.856984 -17.591687,5.825738 -0.350948,0.212305 0.519603,0.634859 0.785272,0.947362 1.383717,1.627652 3.825242,4.447746 5.128425,5.942692 1.06554,1.222333 2.137362,2.439177 3.206043,3.658765 2.343944,2.544195 4.736042,5.04403 7.062175,7.604524 5.692584,6.26611 10.929796,12.93637 16.828146,19.01875 5.41013,5.385 2.18241,2.31577 6.92344,6.58221 0.70644,0.63572 1.24215,2.3145 2.10707,1.92067 17.21877,-7.84024 17.50568,-5.2306 13.56081,-13.35179 -4.92078,-10.72947 -10.05925,-21.359502 -14.88002,-32.135687 -3.61014,-7.779813 -7.16166,-15.590247 -11.07468,-23.224696 -0.90909,-1.773672 -3.63246,-6.941306 -4.96825,-9.021387 -0.434384,-0.676418 -0.972515,-1.280289 -1.458772,-1.920434 0,0 -14.610781,10.077938 -14.610781,10.077938 z"
       id="path21475"
       style="fill:#62cf5a;fill-opacity:1" />
    <path
       d="m 95.352738,52.532975 c 3.247666,7.578547 6.048532,15.341935 8.660542,23.159365 4.30166,13.91944 8.83574,27.75659 13.62869,41.51478 2.39893,6.81258 5.25019,13.44916 8.00474,20.12112 1.86635,4.52061 3.7101,9.03054 5.7294,13.48515 4.65499,6.57173 2.27412,4.43761 17.92511,-6.70363 0.98207,-0.69909 0.19026,-2.40354 0.26761,-3.60655 0.42495,-6.60958 0.42742,-13.15542 0.34231,-19.7779 -0.66773,-18.5556 -3.96175,-36.857498 -7.52467,-55.035474 -2.4323,-10.970442 -1.92774,-12.849524 -18.10377,2.601332 -1.23307,1.177787 0.34004,3.393571 0.54256,5.086679 0.96323,8.052886 1.00281,7.65926 2.42289,16.413714 1.46459,8.534126 2.93903,17.066519 4.39862,25.601499 0.0522,0.30527 1.25459,7.75303 1.69115,9.11646 0.12712,0.39701 0.47137,0.68769 0.70705,1.03154 5.18767,-3.58851 11.21596,-6.1947 15.56301,-10.76552 1.14804,-1.20713 -0.35572,-3.31381 -0.60671,-4.96067 -1.6708,-10.96315 -4.33383,-21.782423 -6.60271,-32.631102 -0.0851,-0.426116 -2.42085,-12.053615 -2.62559,-13.296871 -0.17655,-1.072042 0.64394,-3.66217 -0.3571,-3.239827 -16.11562,6.799298 -15.96508,5.419406 -12.77763,14.467801 1.54808,4.655751 2.76802,9.421 4.39966,14.049774 0.33783,0.958412 0.64041,1.939964 1.12307,2.83424 0.2449,0.453766 0.57631,1.400054 1.02969,1.154421 5.63796,-3.05459 10.76322,-6.97293 16.14484,-10.459395 0.50609,-6.559713 0.16314,-1.659594 0.56362,-8.941917 0.12866,-2.339638 0.11685,-5.654272 0.94003,-8.008541 0.19159,-0.547952 1.49224,-1.718407 0.98504,-1.436077 -4.92283,2.740274 -9.58377,5.926608 -14.37565,8.889913 1.49394,1.93006 1.90416,4.671654 2.40442,6.993706 0.14398,0.668287 1.07438,4.744153 0.69311,5.806365 -0.13713,0.382027 -0.74875,0.313637 -1.12312,0.470455 4.51647,-3.102874 9.90261,-5.218734 13.5494,-9.308623 0.87028,-0.976011 -1.93399,-1.768972 -2.79216,-2.755639 -1.19304,-1.371677 -2.28831,-2.828005 -3.34865,-4.30466 -3.21077,-4.47138 -5.88272,-9.298444 -8.84278,-13.93312 -7.52629,-4.359202 -4.70741,-3.584833 -18.96318,9.586687 -1.29397,1.19556 -0.43556,3.496714 -0.61699,5.249088 -0.12531,1.210326 -0.41704,7.413815 -1.31147,9.077505 -0.25259,0.469836 -0.985,0.409833 -1.4775,0.61475 4.75349,-3.098181 10.07337,-5.465359 14.26046,-9.294544 0.71074,-0.64998 -0.88124,-1.715445 -1.24726,-2.606311 -0.46878,-1.14095 -0.86,-2.312662 -1.25401,-3.481539 -0.37368,-1.108595 -0.76773,-2.213673 -1.04856,-3.349348 -0.10899,-0.440741 0.27603,-1.587409 -0.11527,-1.357162 -5.0348,2.962538 -9.62961,6.616178 -14.44441,9.924267 5.88807,10.659922 10.52951,21.952767 15.48797,33.061464 0,0 14.96611,-8.442439 14.96611,-8.442439 v 0 c -5.1081,-11.210234 -9.87894,-22.57576 -15.26077,-33.658998 -5.45711,2.471782 -11.1371,4.501143 -16.37133,7.415344 -0.44755,0.249178 0.22869,0.999443 0.37656,1.489879 0.34325,1.138448 0.71352,2.268792 1.09615,3.394616 4.09187,12.03967 1.81685,7.465655 19.91276,0.202702 0.28876,-0.518291 0.70496,-0.983923 0.86628,-1.554874 0.70817,-2.506334 0.81701,-6.715453 1.1998,-9.075845 0.25826,-1.592524 2.66758,-4.896457 1.06375,-4.721641 -35.382029,3.856608 -16.53108,5.810133 -12.17271,6.331121 0.8481,1.26195 1.73167,2.500772 2.5443,3.785851 1.05679,1.671199 2.00938,3.406684 3.06228,5.08034 2.0868,3.317142 4.25721,6.59488 6.71669,9.652541 0.93862,1.166913 1.51369,3.646058 2.98349,3.35903 6.19539,-1.20986 11.63516,-4.899932 17.45274,-7.349898 0.16239,-0.526831 0.45407,-1.030198 0.48716,-1.580493 0.094,-1.562957 -0.60692,-4.692366 -0.90736,-6.050469 -0.6841,-3.092399 -1.29631,-6.285325 -3.30022,-8.836513 -5.41273,2.852473 -11.02923,5.347904 -16.23819,8.55742 -0.55699,0.343193 -0.51582,1.211091 -0.65378,1.850614 -0.24126,1.118429 -0.37324,2.25964 -0.47863,3.398931 -0.41197,4.45371 -0.23618,8.977484 -1.22333,13.37046 4.94871,-2.138973 9.98892,-4.077607 14.84614,-6.416918 0.24898,-0.119914 -0.59176,-0.143285 -0.73799,-0.377781 -0.51268,-0.82214 -0.81864,-1.758431 -1.15966,-2.665324 -1.72982,-4.60021 -2.9064,-9.386777 -4.38976,-14.065966 -3.64914,-11.355242 -2.67891,-11.598189 -18.03776,2.157799 -0.81388,0.728946 0.37634,2.15284 0.59489,3.223356 0.39888,1.953777 0.84153,3.898367 1.25722,5.848635 0.5227,2.452287 1.03865,4.906009 1.55798,7.359013 1.82073,8.529588 3.78382,17.051777 5.24048,25.653967 0.39014,2.30393 0.75012,4.61492 1.00703,6.93749 0.17734,1.60327 -1.31011,4.99356 0.29463,4.83015 5.50878,-0.56096 10.21397,-4.28019 15.32095,-6.42029 -1.47759,-0.29222 -0.51295,0.0237 -1.23951,-3.31989 -2.23875,-10.30238 -3.72676,-20.766086 -5.6054,-31.134606 -0.80242,-5.638292 -1.66749,-10.790155 -2.03501,-16.441438 -0.10093,-1.552007 1.49089,-4.847827 -0.0537,-4.665548 -29.08908,3.432903 -16.23737,2.000791 -14.27161,8.148685 0.51888,1.622806 0.81293,3.309091 1.2194,4.963636 3.82992,18.015013 7.05589,36.229761 7.44329,54.694961 -0.0303,6.35992 0.077,8.72995 -0.35763,14.80364 -0.11594,1.62024 -0.18999,3.25299 -0.5009,4.84734 -0.17017,0.87261 -1.77576,2.77838 -0.93171,2.49912 17.0071,-5.62691 18.39442,-3.15828 13.77048,-8.47827 -5.23769,-10.8311 -9.62172,-22.07111 -13.92351,-33.29801 -2.60296,-7.42919 -5.20982,-14.852294 -7.56729,-22.364333 -2.41729,-7.70266 -1.91371,-6.452882 -4.15022,-13.811707 -0.55151,-1.814655 -1.13244,-3.62024 -1.69866,-5.43036 -2.64244,-7.873048 -5.50172,-15.671109 -8.48543,-23.421054 0,0 -15.434312,8.668369 -15.434312,8.668369 z"
       id="path21477"
       style="fill:#62cf5a;fill-opacity:1" />
    <path
       d="m 109.37593,63.077662 c 5.38458,11.246861 9.43458,23.071046 13.33852,34.89521 0.47162,1.513036 0.94324,3.026068 1.41486,4.539108 0,0 15.27247,-8.392 15.27247,-8.392 v 0 c -0.50225,-1.505465 -1.00451,-3.010929 -1.50676,-4.516393 -4.11304,-11.877076 -8.25861,-23.762677 -13.21512,-35.319376 0,0 -15.30397,8.793451 -15.30397,8.793451 z"
       id="path21479"
       style="fill:#62cf5a;fill-opacity:1" />
    <path
       d="m 99.674984,112.84061 c 3.212596,6.24233 5.902266,12.75598 8.692436,19.199 1.97497,4.32809 3.69161,8.78386 5.95696,12.97164 1.58892,3.43578 3.48029,6.74064 4.82153,10.28456 0.606,1.22533 0.5634,2.65117 0.9422,3.92841 1.86255,6.28007 10.74353,-4.28257 16.78,-8.30617 0,0 -16.04912,7.53866 -16.04912,7.53866 v 0 c 8.28655,-4.75109 13.46904,-14.09645 15.11804,-7.12227 0.0373,0.15786 -0.18039,-0.27579 -0.22394,-0.43205 -0.38829,-1.39306 -0.51494,-2.87093 -1.13038,-4.20423 -1.42012,-3.59443 -3.33505,-6.97018 -4.94294,-10.48237 -2.27963,-4.11797 -3.97248,-8.5284 -5.99399,-12.77486 -2.89036,-6.49113 -5.66078,-13.03881 -8.63441,-19.48922 0,0 -15.336386,8.8889 -15.336386,8.8889 z"
       id="path21481"
       style="fill:#62cf5a;fill-opacity:1" />
    <path
       d="m 89.216914,117.49585 c 1.972147,6.569 3.841474,13.16556 5.866454,19.71849 0.863756,2.6122 1.634549,5.25199 2.374897,7.90111 0,0 15.457145,-8.42633 15.457145,-8.42633 v 0 c -0.7757,-2.65006 -1.55804,-5.29872 -2.45137,-7.91227 -2.08491,-6.49638 -4.03696,-13.04035 -5.61812,-19.67978 0,0 -15.629006,8.39878 -15.629006,8.39878 z"
       id="path21483"
       style="fill:#62cf5a;fill-opacity:1" />
    <path
       d="m 74.467303,132.98602 c 2.37111,6.07391 4.548635,12.22107 6.76942,18.35129 0.505689,1.49265 1.275286,2.6697 2.3876,3.74327 0,0 15.012929,-9.45486 15.012929,-9.45486 v 0 c -1.118505,-0.57429 -1.517652,-1.71737 -2.022953,-2.82476 -2.297254,-6.04935 -4.537448,-12.12178 -6.590963,-18.25877 0,0 -15.556033,8.44383 -15.556033,8.44383 z"
       id="path21485"
       style="fill:#62cf5a;fill-opacity:1" />
    <path
       d="m 68.01051,140.26375 c 1.539382,3.7682 3.33594,7.42984 5.31214,10.98696 1.017792,1.11862 1.416315,2.0838 3.546445,0.89109 6.018371,-3.36983 11.864478,-7.07321 17.456349,-11.11147 1.069847,-0.7726 1.622154,-2.08558 2.345927,-3.18905 1.863172,-2.84061 2.305896,-4.04734 3.737719,-7.08197 0.42885,-1.07195 0.85769,-2.1439 1.28654,-3.21585 0,0 -15.920492,7.34607 -15.920492,7.34607 v 0 c -0.434028,1.03157 -0.868057,2.06315 -1.302086,3.09472 -1.442335,2.83033 -1.972311,4.15053 -3.88372,6.74195 -0.764585,1.0366 -3.705398,3.38778 -2.493166,2.95233 4.437598,-1.59405 8.1828,-4.74024 12.533192,-6.55885 0.697267,-0.29148 -0.662791,1.44698 -1.295075,1.86093 -0.250319,0.16389 -0.4743,-0.36484 -0.711451,-0.54726 -2.006916,-3.46871 -3.76869,-7.09178 -5.132932,-10.86328 0,0 -15.47939,8.69368 -15.47939,8.69368 z"
       id="path21487"
       style="fill:#62cf5a;fill-opacity:1" />
    <path
       d="m 82.936683,134.66887 c 2.153056,4.69969 3.702984,9.64497 5.390308,14.52344 0.659124,1.57806 1.123759,3.76746 2.78708,4.68682 0.524705,0.29002 1.152126,0.33212 1.728189,0.49818 0,0 14.32835,-10.38137 14.32835,-10.38137 v 0 c -0.35609,0.15379 -0.68042,0.46652 -1.06827,0.46138 -1.47227,-0.0195 -1.88104,-3.0095 -2.36379,-3.78454 -1.73143,-4.86215 -3.35679,-9.7641 -5.261857,-14.56247 0,0 -15.54001,8.55856 -15.54001,8.55856 z"
       id="path21489"
       style="fill:#62cf5a;fill-opacity:1" />
    <path
       style="fill:#b4e0d6;stroke-width:0.503611"
       d="m 110.52711,42.995953 c -3.87616,1.436403 -7.41623,4.455701 -11.156162,5.707919 -2.465997,-2.194541 -5.249014,1.434923 -7.398816,2.475435 -3.697088,2.529244 -7.362165,5.131408 -11.304627,7.271207 -1.11141,-2.420976 -3.248676,-4.740172 -5.765952,-2.246577 -4.988303,2.977993 -10.252545,5.942126 -14.287994,10.145007 0.260063,4.016853 1.929236,8.085039 2.522363,12.115431 1.35589,4.379239 0.417191,9.565285 3.190474,13.436924 2.067642,1.442566 4.571432,-2.24595 5.822055,0.720841 0.604463,1.411552 5.176989,3.576056 2.198396,4.397864 -4.760785,2.556682 -9.536297,5.330646 -13.821794,8.542996 -0.637385,3.64089 0.771635,7.66917 1.120805,11.43631 0.198265,2.53663 1.600061,5.26613 -0.06934,7.49014 -0.460442,5.37388 1.636382,10.7058 3.624622,15.6149 1.770637,2.53432 4.005863,4.75182 5.107242,7.76492 1.211165,2.47964 3.014791,7.04669 6.593844,5.3565 1.355801,-0.26674 3.320773,-2.80405 3.70823,-0.44853 0.597725,2.27602 3.16714,4.21352 5.222996,2.24166 1.265417,-0.42654 2.885948,-2.98078 3.842985,-0.94328 2.736365,2.68544 6.412887,-0.18926 8.385319,-2.34396 0.928131,-3.06647 -3.504034,-3.23408 -5.32726,-4.23152 -7.970785,-3.33493 -15.800285,-10.35662 -15.994566,-19.50607 -0.407261,-9.36986 2.2317,-19.88576 9.909923,-25.89366 4.383034,-3.567413 11.856076,-0.19726 12.753554,5.11086 -6.57e-4,6.57063 -6.104706,12.79981 -2.866254,19.40279 3.745067,5.88475 11.574697,4.91513 17.581137,5.11283 8.77443,0.27295 17.55028,-1.46537 26.29499,-0.73377 4.86966,1.59025 5.29237,8.39632 3.77413,12.5342 -0.89165,1.49501 -3.0807,5.49387 0.30393,5.30366 2.2772,-0.9027 5.38667,-1.74137 5.77678,-4.46856 1.10835,-10.58616 0.82469,-21.31626 0.53311,-31.95176 -1.30728,-8.37465 -1.61651,-16.933005 -3.53511,-25.193337 -1.2178,-2.729718 -4.56315,-0.242553 -6.60402,-0.476882 -3.66848,0.88402 -7.91043,0.131777 -11.23679,2.035913 -1.45477,2.929301 0.79608,6.290113 1.18027,9.277664 0.79156,4.945422 4.25142,9.900162 2.51517,14.964512 -2.85657,4.45228 -9.24502,4.79244 -13.71159,2.882 -4.96585,-2.68983 -4.94323,-9.27414 -6.59499,-13.97624 C 111.553,97.887146 111.2734,93.374978 109.35759,89.638984 98.655209,88.82732 87.528209,89.69187 77.011407,88.548155 71.873614,86.35865 71.397934,79.262843 73.493016,74.753936 c 1.974336,-4.625638 7.772542,-3.385412 11.760478,-3.795799 6.051523,-0.24673 12.1812,-0.238042 18.238806,-0.737684 2.42243,-1.558421 0.0512,-4.851298 0.15193,-7.100507 -0.55592,-3.147251 -0.79262,-7.437593 2.79694,-8.843895 2.2502,-1.956268 6.12281,-0.599344 7.87286,-3.047239 -0.29685,-2.662198 -1.34471,-5.545173 -2.73988,-7.799198 -0.24879,-0.378765 -0.63034,-0.465139 -1.04704,-0.433661 z M 82.236371,93.228196 c 2.522281,0.289429 -1.099789,3.556919 -0.835089,0.901972 0.0947,-0.408293 0.403795,-0.826388 0.835089,-0.901972 z m 67.535019,51.225694 c 0.11383,0.2506 -0.23279,-0.39793 0,0 z"
       id="path3646" />
    <path
       style="fill:#b4e0d6;stroke-width:0.503611"
       d="m 132.47353,52.742595 c -2.31155,0.291736 -4.0619,3.005103 -5.74136,3.568556 -0.20977,-2.869097 -2.89202,-3.574077 -4.8207,-1.680998 -3.02309,1.471864 -0.51591,4.910039 -0.26823,7.185485 1.07263,2.319456 0.33988,6.070475 2.74498,7.417266 6.77688,0.09198 13.67546,-0.534376 20.34052,-1.395701 2.18683,-1.779797 -1.37775,-4.083291 -1.8338,-6.135841 -1.17977,-4.590714 -5.74841,-8.452782 -10.42141,-8.958767 z"
       id="path3648" />
    <path
       style="fill:#b4e0d6;stroke-width:0.251805"
       d="m 151.78644,62.050646 c -2.52854,0.72977 -4.9464,2.018734 -7.08301,3.552818 -1.23427,1.032389 -0.42281,3.115655 1.14443,3.176094 2.44242,0.771263 4.51722,2.777455 4.71953,5.424775 0.61563,2.363505 0.23471,4.686516 0.41622,7.057776 0.8394,1.852527 2.85798,0.437823 4.11811,-0.104738 2.2333,-0.703083 2.56537,-3.290877 2.18608,-5.271686 -0.6855,-4.511155 -1.65373,-9.134463 -3.91528,-13.141098 -0.34003,-0.516021 -0.98242,-0.767698 -1.58608,-0.693941 z"
       id="path3650" />
    <path
       style="fill:#b4e0d6;stroke-width:0.251805"
       d="m 142.33439,146.88549 c -1.86028,0.64249 -3.63452,1.61427 -5.62709,1.90515 -1.99394,0.58472 -4.24619,0.37879 -6.05973,1.43865 -0.23634,0.5063 -1.65283,-0.62934 -2.61431,-0.16677 -3.46076,0.15907 -6.93517,0.22015 -10.38269,0.55333 -2.0224,0.84493 -0.49863,2.98317 -0.0271,4.34266 1.13743,2.23631 0.7266,5.27885 2.82445,6.96842 2.96896,1.38239 5.84876,-1.0741 8.12466,-2.71871 1.70595,-1.20309 3.31151,-2.93359 4.97414,-3.90151 2.31963,1.40475 4.44822,-1.0568 6.21153,-2.27166 1.45607,-1.33882 3.41535,-2.30699 4.42873,-4.03725 0.31264,-1.13547 -0.6698,-2.30597 -1.85264,-2.11231 z m -11.4542,5.45808 c -1.03501,0.95367 -0.27136,-0.68454 0,0 z"
       id="path3652" />
    <path
       style="fill:#b4e0d6"
       id="path3654"
       d="m 74.316941,82.348785 c 0.563039,1.444502 1.372028,2.785188 1.917048,4.236093 0.74974,1.995892 1.79534,6.007508 2.324228,7.982638 1.143325,4.269736 1.291984,4.90079 2.389674,9.191194 0.883053,3.70104 1.645804,7.42833 2.389265,11.15924 0,0 14.952151,-8.15315 14.952151,-8.15315 v 0 c -1.323895,-3.44713 -2.561457,-6.924755 -3.495693,-10.502548 -0.390159,-1.53117 -0.810224,-3.055029 -1.170477,-4.59351 -0.581989,-2.485425 -1.392442,-6.557605 -1.840087,-9.101617 -0.235556,-1.338696 -0.490521,-2.675906 -0.646993,-4.026131 -0.196085,-1.692051 -0.149589,-3.405567 -0.350528,-5.098088 0,0 -16.468588,8.905879 -16.468588,8.905879 z" />
  </g>
  <g
     inkscape:label="Image 4"
     id="layer4"
     inkscape:groupmode="layer"
     style="display:none">
    <text
       id="text21511"
       y="145.74451"
       x="63.903057"
       style="font-size:120.699px;line-height:1.25;font-family:'Corporate Logo Rounded';-inkscape-font-specification:'Corporate Logo Rounded';stroke-width:3.01745"
       xml:space="preserve"><tspan
         style="stroke-width:3.01745"
         y="145.74451"
         x="63.903057"
         id="tspan21509"
         sodipodi:role="line">さ</tspan></text>
  </g>
  <g
     inkscape:groupmode="layer"
     id="layer20"
     inkscape:label="Image 6" />
  <g
     style="display:inline"
     inkscape:label="Image 5"
     id="layer5"
     inkscape:groupmode="layer">
    <path
       id="path21515"
       d="m 112.40045,51.442119 c -4.67507,0.0064 -11.07056,2.892063 -10.42632,8.437451 0.30728,3.141664 1.13325,6.201695 1.67903,9.305 -8.894568,0.735695 -17.897289,-0.237648 -26.737612,1.091813 -6.009909,2.02884 -6.796187,9.810613 -4.865944,14.98636 1.508744,4.066347 6.137704,5.466115 10.113531,5.086274 8.884562,0.128797 17.77075,0.04166 26.655975,0.06787 2.071,7.314022 3.15846,15.038573 5.83185,22.203143 1.99671,3.76931 6.1122,6.32787 10.45091,5.55349 4.17061,0.13341 8.32373,-2.03135 9.84624,-6.05731 0.89817,-3.41835 -1.59467,-6.91931 -2.08454,-10.35561 -0.94732,-4.069091 -2.85927,-8.701574 -3.15838,-12.434543 6.59739,-1.450993 14.13608,-0.446393 19.97132,-4.358399 3.53059,-3.192646 2.86326,-8.763492 1.73707,-12.905031 -1.74782,-4.439533 -7.11922,-5.567341 -11.37944,-4.797091 -5.25253,0.292684 -10.56693,0.971553 -15.76146,0.948205 -1.6035,-5.443661 -1.32585,-13.017565 -7.25809,-15.855876 -1.45213,-0.610748 -3.03577,-0.949137 -4.61414,-0.915746 z"
       style="fill:#0b280b;fill-opacity:1;stroke-width:0.503611" />
    <path
       id="path21517"
       d="m 90.883867,99.517294 c -6.702223,0.147676 -10.382771,6.945526 -12.68962,12.385686 -3.531526,8.6111 -4.727976,19.37895 1.348537,27.19105 7.705599,10.30619 21.573426,13.09126 33.736946,12.90461 8.85142,-0.55291 17.9608,-0.19688 26.55276,-2.66025 7.462,-2.55031 8.55966,-14.11996 2.70002,-18.80279 -4.29422,-2.39297 -9.52377,-0.46806 -14.15651,-0.5004 -8.60089,0.59219 -17.41399,1.42739 -25.93662,-0.1901 -3.560675,-1.1245 -6.803603,-4.42568 -5.714806,-8.41581 0.355703,-4.98314 4.126296,-9.16503 4.078066,-14.15029 -0.7992,-4.60441 -5.296878,-7.989959 -9.918773,-7.761706 z"
       style="fill:#0b280b;fill-opacity:1;stroke-width:0.503611" />
  </g>
</svg>
