<?xml version="1.0" encoding="UTF-8" standalone="no"?>
<svg
   xmlns:dc="http://purl.org/dc/elements/1.1/"
   xmlns:cc="http://creativecommons.org/ns#"
   xmlns:rdf="http://www.w3.org/1999/02/22-rdf-syntax-ns#"
   xmlns:svg="http://www.w3.org/2000/svg"
   xmlns="http://www.w3.org/2000/svg"
   xmlns:sodipodi="http://sodipodi.sourceforge.net/DTD/sodipodi-0.dtd"
   xmlns:inkscape="http://www.inkscape.org/namespaces/inkscape"
   version="1.1"
   id="svg833"
   width="896"
   height="900"
   viewBox="0 0 896 900"
   sodipodi:docname="koumori_move_1.svg"
   inkscape:version="1.0.1 (3bc2e813f5, 2020-09-07)">
  <metadata
     id="metadata839">
    <rdf:RDF>
      <cc:Work
         rdf:about="">
        <dc:format>image/svg+xml</dc:format>
        <dc:type
           rdf:resource="http://purl.org/dc/dcmitype/StillImage" />
        <dc:title></dc:title>
      </cc:Work>
    </rdf:RDF>
  </metadata>
  <defs
     id="defs837" />
  <sodipodi:namedview
     pagecolor="#ffffff"
     bordercolor="#666666"
     borderopacity="1"
     objecttolerance="10"
     gridtolerance="10"
     guidetolerance="10"
     inkscape:pageopacity="0"
     inkscape:pageshadow="2"
     inkscape:window-width="1280"
     inkscape:window-height="971"
     id="namedview835"
     showgrid="false"
     showguides="false"
     inkscape:zoom="0.30625"
     inkscape:cx="-95.138445"
     inkscape:cy="-112.36079"
     inkscape:window-x="-8"
     inkscape:window-y="-8"
     inkscape:window-maximized="1"
     inkscape:current-layer="g841" />
  <g
     inkscape:groupmode="layer"
     id="layer14"
     inkscape:label="Image 1"
     style="display:inline;mix-blend-mode:normal">
    <path
       style="fill:#4d4d4d;fill-opacity:1;stroke:#ababab;stroke-width:0.982677;stroke-opacity:0;paint-order:stroke fill markers"
       id="path2267"
       d="m 399.40644,395.87159 c -0.0213,0.92387 0.177,1.83031 0.28424,2.74425 0.0982,0.89427 0.12161,1.79398 0.13435,2.69277 0.007,0.81974 0.005,1.63953 0.004,2.45929 0.0119,0.79868 0.0351,1.57931 -0.12497,2.36203 -0.0671,0.53252 -0.1122,0.54371 -0.57576,0.5593 0,0 3.09329,1.90697 3.09329,1.90697 v 0 c 0.62361,-0.68546 1.02985,-1.42377 1.10825,-2.36737 0.13184,-0.92543 0.11657,-1.85508 0.11141,-2.78813 6.8e-4,-0.83651 0.003,-1.67309 -0.0115,-2.5095 -0.0224,-0.98347 -0.0639,-1.9672 -0.17943,-2.94483 -0.0977,-0.81356 -0.26669,-1.6241 -0.20748,-2.44697 0,0 -3.6361,0.33219 -3.6361,0.33219 z" />
    <path
       style="fill:#4d4d4d;fill-opacity:1;stroke:#ababab;stroke-width:0.982677;stroke-opacity:0;paint-order:stroke fill markers"
       id="path2269"
       d="m 396.5493,417.09608 c 0.0571,0.77707 -0.13775,1.53617 -0.23888,2.3036 -0.11972,0.80973 -0.55376,1.44252 -0.963,2.1219 -0.32656,0.46834 -0.1565,0.23881 -0.51024,0.68852 0,0 3.39533,1.24819 3.39533,1.24819 v 0 c 0.40893,-0.60818 0.2135,-0.30223 0.58705,-0.91737 0.55648,-0.97277 0.96411,-2.0041 1.11299,-3.12184 0.12525,-0.88141 0.28358,-1.76061 0.25285,-2.65519 0,0 -3.6361,0.33219 -3.6361,0.33219 z" />
    <path
       style="fill:#4d4d4d;fill-opacity:1;stroke:#ababab;stroke-width:0.982677;stroke-opacity:0;paint-order:stroke fill markers"
       id="path2271"
       d="m 377.36839,461.22629 c -0.12671,0.86717 -0.2689,1.7252 -0.43917,2.58454 -0.41565,1.2815 -0.55532,2.61218 -0.66808,3.94722 -0.086,1.10251 -0.10518,2.20842 -0.11199,3.31375 -0.0133,1.1068 -0.19297,2.20675 -0.2926,3.30932 -0.0748,0.95314 -0.0247,1.90394 -0.23386,2.83795 -0.10099,0.94068 -0.28498,1.85971 -0.44734,2.79163 -0.16883,1.05182 -0.20744,2.11925 -0.23533,3.18251 0.0555,1.02077 -0.0617,2.01755 -0.20071,3.02505 -0.12676,1.04049 -0.13276,2.07826 -0.36228,3.10321 -0.19857,0.82791 -0.35585,1.66377 -0.4873,2.5046 0,0 3.60823,0.0773 3.60823,0.0773 v 0 c 0.13167,-0.80402 0.29223,-1.60214 0.47423,-2.39638 0.20503,-1.0866 0.24673,-2.18264 0.38179,-3.27877 0.14029,-1.09505 0.21444,-2.18912 0.19635,-3.29394 0.0269,-0.93579 0.0671,-1.87448 0.2398,-2.7969 0.17129,-0.92444 0.30584,-1.85165 0.45818,-2.77886 0.15945,-1.01959 0.12689,-2.04926 0.21811,-3.07576 0.10573,-1.17499 0.2866,-2.34697 0.29109,-3.52815 0.004,-1.03408 0.0149,-2.06904 0.0971,-3.10045 0.11387,-1.24385 0.3384,-2.45868 0.68273,-3.66079 0.21097,-1.02292 0.35986,-2.05955 0.46164,-3.09873 0,0 -3.63056,0.33169 -3.63056,0.33169 z" />
    <path
       style="fill:#4d4d4d;fill-opacity:1;stroke:#ababab;stroke-width:0.982677;stroke-opacity:0;paint-order:stroke fill markers"
       id="path2273"
       d="m 367.92808,504.94224 c -0.35008,0.71187 -0.51782,1.51585 -0.89723,2.21229 -0.55223,1.3435 -1.01447,2.72206 -1.49355,4.09434 -0.5024,1.55479 -0.88221,3.14475 -1.19147,4.74805 -0.27277,1.28343 -0.30583,2.63932 -0.71782,3.89023 -0.68045,1.17263 0.49225,-0.94083 2.65077,-1.02905 0.44987,-0.0184 0.4282,0.83384 0.79923,1.08891 0.13223,0.0909 0.0621,-0.31495 0.0997,-0.47095 0.056,-0.23271 0.12063,-0.46326 0.18094,-0.69489 0.0693,-0.2881 0.13864,-0.5762 0.20796,-0.8643 0.42966,-1.67466 1.00789,-3.29903 1.56285,-4.93359 0.38753,-1.13235 1.10682,-2.09859 1.71993,-3.11379 0.0835,-0.12372 0.15542,-0.25607 0.25045,-0.37115 0.51875,-0.62818 -0.0808,0.30332 0.49166,-0.54651 0.0282,-0.0418 0.32127,-0.58863 0.40571,-0.6145 0.0444,-0.0136 0.0114,0.0921 0.0171,0.13811 -2.52115,0.8646 -1.80693,1.38962 -3.14425,-0.009 -0.0345,-0.0361 -0.0307,-0.1654 -0.0689,-0.13318 -0.048,0.0404 0.0114,0.12587 0.004,0.18811 -0.011,0.0893 -0.14137,0.46322 -0.1517,0.49446 -0.3777,1.16731 -0.6759,2.35185 -0.88001,3.56216 -0.1342,1.04186 -0.24192,2.09462 -0.48675,3.11765 -0.31641,1.23805 -0.55433,2.49766 -0.91258,3.72593 -0.34726,1.25741 -0.75158,2.49216 -1.00703,3.77295 -0.0849,1.02188 -0.34351,2.00103 -0.59168,2.9895 -0.19939,1.06733 -0.44736,2.1244 -0.61324,3.19751 -0.0876,1.35627 -0.41862,2.66967 -0.71878,3.98911 -0.22914,0.98768 -0.30791,1.9977 -0.34383,3.008 -0.0199,0.83222 -0.0141,1.66478 -0.0119,2.49716 3.6e-4,0.13553 7.3e-4,0.27106 10e-4,0.40658 0,0 3.61156,-0.33663 3.61156,-0.33663 v 0 c -3.4e-4,-0.13537 -6.7e-4,-0.27075 -10e-4,-0.40613 -0.002,-0.79562 -0.007,-1.59154 0.0191,-2.38686 0.0397,-0.85704 0.12471,-1.71105 0.32238,-2.54805 0.29907,-1.36387 0.56723,-2.73265 0.72876,-4.12094 0.18753,-0.9967 0.38063,-1.99344 0.60294,-2.98269 0.27091,-1.02446 0.45444,-2.06133 0.59905,-3.11055 0.26478,-1.21581 0.66187,-2.39666 0.97215,-3.6012 0.34764,-1.28863 0.64281,-2.59218 0.94662,-3.89147 0.20038,-1.06246 0.36105,-2.13078 0.48935,-3.20415 0.21307,-1.1634 0.56622,-2.28418 0.88219,-3.422 0.14305,-0.77166 0.37398,-3.19822 -0.97705,-3.30343 -0.86602,-0.0675 -1.65878,0.5163 -2.48817,0.77446 -0.44221,0.711 -0.9755,1.34939 -1.40564,2.06905 -0.71186,1.16228 -1.39526,2.35219 -1.79973,3.66208 -0.58645,1.7002 -1.1421,3.40881 -1.58561,5.15311 -0.094,0.36909 -0.63217,2.15843 -0.55842,2.46266 0.15198,0.62691 0.1117,1.68084 0.74836,1.78465 2.57113,0.41924 2.68535,-0.45162 3.03324,-1.6673 0.28568,-1.33649 0.4627,-2.6921 0.68716,-4.0395 0.30262,-1.48443 0.7007,-2.94892 1.15982,-4.39247 0.45885,-1.31107 0.93053,-2.61553 1.50312,-3.88199 0.3377,-0.87953 0.70898,-1.74832 0.98736,-2.64884 0,0 -3.63803,-0.30203 -3.63803,-0.30203 z" />
    <path
       style="fill:#4d4d4d;fill-opacity:1;stroke:#ababab;stroke-width:0.401093;stroke-opacity:0;paint-order:stroke fill markers"
       d="m 262.626,382.79189 c -4.69014,0.30713 -7.53089,5.57637 -7.12459,9.89858 -0.0546,10.79898 -0.25078,21.65716 0.85124,32.40952 2.19882,11.04948 5.61465,21.89454 10.11049,32.22211 5.69384,11.25445 11.42943,22.54484 18.17577,33.20815 1.93686,2.45997 4.89522,0.23801 6.36873,-1.54263 4.39758,-4.83974 10.06853,-9.11461 16.84555,-9.47458 12.14215,-1.46884 24.25021,3.3114 33.95489,10.33721 5.60628,4.01082 10.00412,9.62318 12.18564,16.1924 3.16377,8.04029 5.52893,16.17463 7.89543,24.3023 1.17508,2.58259 4.72928,0.86769 4.54692,-1.6249 0.34095,-2.7168 2.55855,-6.80542 -0.64522,-8.62108 0.68123,-4.36988 1.84928,-8.68943 3.56346,-12.77025 3.62737,0.76145 3.87019,-3.53843 4.57869,-5.99031 3.00236,-9.52871 3.21309,-19.57664 4.30027,-29.42806 0.33767,-2.86062 0.24795,-6.07613 1.10988,-8.70312 2.55817,-0.0365 4.39225,-2.12455 4.36783,-4.62133 0.46582,-4.60017 1.43066,-9.23149 4.2371,-13.02218 3.18601,-6.74858 6.32214,-13.43962 9.63566,-20.12275 0.63571,-1.23205 0.83227,-2.78165 0.18655,-3.99075 0.96577,-2.08034 1.91656,-6.10176 -1.45984,-6.18506 -14.92466,2.7952 -29.67974,6.73365 -44.69609,9.05974 -5.74115,0.25451 -11.81772,0.89131 -17.27215,-1.30128 -6.90913,-3.58902 -13.54767,-7.7072 -20.59021,-11.06114 -14.81828,-7.28015 -28.27687,-16.8924 -42.19345,-25.68765 -2.76419,-1.53893 -5.65637,-3.46433 -8.93255,-3.48294 z"
       id="path2275" />
    <path
       style="fill:#4d4d4d;fill-opacity:1;stroke:#ababab;stroke-width:1.13446;stroke-opacity:0;paint-order:stroke fill markers"
       d="m 290.79798,382.45706 c -5.87646,2.51652 1.20144,7.78279 3.88954,9.86026 13.24754,9.7474 26.55426,20.39134 42.10171,26.13995 21.45076,3.20595 42.20979,-5.24683 62.6926,-10.22329 3.57014,-3.20858 2.4121,-12.91862 -4.25933,-11.72723 -18.73594,-1.11729 -36.99648,-6.27513 -55.77711,-7.39126 -16.34564,-1.33168 -32.39584,-4.42083 -48.64741,-6.65843 z"
       id="path2277" />
    <path
       style="fill:#4d4d4d;fill-opacity:1;stroke:#ababab;stroke-width:1.13446;stroke-opacity:0;paint-order:stroke fill markers"
       d="m 239.41774,397.29818 c -18.42003,25.49112 -35.53191,52.20187 -48.95181,80.67692 -2.62281,10.30754 -5.81434,21.22703 -4.71028,31.87392 4.41867,4.4926 7.09198,-4.26965 9.26724,-6.98313 8.49399,-13.62963 23.23004,-22.38622 39.1141,-24.03397 8.94818,-1.85818 18.00171,0.39607 26.82992,0.80271 3.54223,-4.285 -2.68545,-9.67769 -3.69401,-14.24677 -7.80302,-15.31543 -14.89136,-31.79922 -13.64704,-49.30711 -0.54911,-6.33027 1.06992,-13.12326 -0.80561,-19.16363 -1.34654,-0.7018 -2.2645,-0.60472 -3.40251,0.38106 z"
       id="path2279" />
    <path
       style="fill:#4d4d4d;fill-opacity:1;stroke:#ababab;stroke-width:1.13446;stroke-opacity:0;paint-order:stroke fill markers"
       d="m 228.04901,391.56196 c -15.5842,7.20848 -29.2289,18.29655 -43.94368,27.16463 -26.01021,17.33555 -53.85938,31.66561 -80.29155,48.27212 -6.438875,5.65169 -14.681273,10.5063 -18.744188,18.18951 1.460482,5.66362 8.51197,0.7353 12.286431,0.28861 13.021917,-0.64461 25.937787,3.78121 38.442167,6.65168 13.84894,3.58448 26.91002,10.02481 37.46358,19.74532 5.51728,2.88016 5.32552,-5.44169 5.39814,-8.74289 1.675,-17.66321 6.56782,-35.22013 15.56253,-50.75915 10.11563,-20.28636 23.68865,-38.33432 36.3903,-57.03754 1.10304,-1.75704 -0.57222,-4.09464 -2.56373,-3.77229 z"
       id="path2281" />
    <path
       style="fill:#4d4d4d;fill-opacity:1;stroke:#ababab;stroke-width:0.100273;stroke-opacity:0;paint-order:stroke fill markers"
       d="m 84.622674,484.37005 c -1.139161,0.6474 -1.802597,1.84717 -2.630939,2.82525 -1.042927,1.23412 -0.435239,3.37112 1.145645,3.79595 1.375957,0.42389 2.643784,-0.53314 3.868107,-1.01553 1.090315,-0.40256 2.114207,-1.39172 1.931729,-2.64194 -0.01325,-0.94771 -0.803942,-1.55018 -1.454046,-2.11 -0.650087,-0.89775 -1.823041,-1.26603 -2.860496,-0.85373 z"
       id="path2283" />
    <path
       style="fill:#4d4d4d;fill-opacity:1;stroke:#ababab;stroke-width:0.982677;stroke-opacity:0;paint-order:stroke fill markers"
       id="path2289"
       d="m 521.75933,408.2892 c 0.14227,0.92091 0.37325,1.82229 0.57411,2.73101 0.18297,0.77437 0.16569,1.57339 0.27287,2.35697 0.0915,0.6861 0.29107,1.34972 0.46744,2.01766 0.16518,0.8007 0.4575,1.56147 0.72398,2.33094 0.21267,0.42777 0.39028,0.84979 0.45357,1.32365 0.0855,0.59389 0.21456,1.17601 0.26982,1.77535 0.14744,0.66915 0.22226,1.35228 0.36256,2.02181 0.18062,0.24891 0.36125,0.49781 0.54187,0.74672 0,0 1.88789,-1.73336 1.88789,-1.73336 v 0 c 0.0197,0.1258 0.0394,0.25161 0.0591,0.37742 -0.13105,-0.59935 -0.18502,-1.21664 -0.32933,-1.81464 -0.0614,-0.63473 -0.18481,-1.25431 -0.2752,-1.88403 -0.097,-0.577 -0.25404,-1.13644 -0.54987,-1.64653 -0.25644,-0.71686 -0.5423,-1.42204 -0.68293,-2.17515 -0.1485,-0.60374 -0.32875,-1.19855 -0.41622,-1.81446 -0.11133,-0.83414 -0.10695,-1.6858 -0.31961,-2.50637 -0.21007,-0.92328 -0.45202,-1.8378 -0.54883,-2.78317 0,0 -2.4912,0.67618 -2.4912,0.67618 z" />
    <path
       style="fill:#4d4d4d;fill-opacity:1;stroke:#ababab;stroke-width:0.982677;stroke-opacity:0;paint-order:stroke fill markers"
       id="path2291"
       d="m 534.59934,444.04436 c 0.45919,1.0133 0.86322,2.05151 1.25939,3.09094 0.35555,0.89921 0.48743,1.85564 0.63533,2.8045 0.0916,0.97644 0.29864,1.93312 0.49467,2.89223 0.029,0.16123 0.058,0.32246 0.087,0.4837 0,0 2.4786,-0.55397 2.4786,-0.55397 v 0 c -0.032,-0.17164 -0.0641,-0.34327 -0.0961,-0.51491 -0.18661,-0.93393 -0.37079,-1.86761 -0.4796,-2.8146 -0.16898,-1.07225 -0.32211,-2.14932 -0.74025,-3.16083 -0.41382,-1.0986 -0.87611,-2.17811 -1.29171,-3.27618 0,0 -2.34739,1.04912 -2.34739,1.04912 z" />
    <path
       style="fill:#4d4d4d;fill-opacity:1;stroke:#ababab;stroke-width:0.982677;stroke-opacity:0;paint-order:stroke fill markers"
       id="path2293"
       d="m 536.40422,473.58416 c 0.0225,0.88382 0.0203,1.76807 0.0254,2.65211 -0.002,1.03683 -0.008,2.07359 -0.003,3.11041 0.003,0.99688 -10e-4,1.99377 -0.006,2.99064 0.002,0.82341 -4.9e-4,1.64681 -0.004,2.47022 -0.0995,0.6209 -0.17843,1.23762 -0.32216,1.85017 -0.096,0.63632 -0.43419,1.17011 -0.74695,1.71836 -0.32129,0.53198 -0.4356,1.12645 -0.53997,1.72893 0,0 2.54857,0.11294 2.54857,0.11294 v 0 c 0.0914,-0.41248 0.22171,-0.79896 0.45035,-1.15937 0.38586,-0.70403 0.70738,-1.4383 0.84106,-2.23568 0.15719,-0.74 0.26111,-1.4936 0.31482,-2.24793 -0.003,-0.82318 -0.006,-1.64635 -0.004,-2.46954 -0.005,-0.99651 -0.008,-1.99304 -0.006,-2.98956 0.005,-1.03663 -0.001,-2.0732 -0.003,-3.10984 0.005,-0.88558 0.003,-1.77139 0.0254,-2.65675 0,0 -2.5711,0.23489 -2.5711,0.23489 z" />
    <path
       style="fill:#4d4d4d;fill-opacity:1;stroke:#ababab;stroke-width:0.567231;stroke-opacity:0;paint-order:stroke fill markers"
       d="m 658.22296,422.41135 c -22.73846,6.47213 -44.93964,14.7526 -67.81735,20.78805 -9.66971,2.31656 -19.16805,6.1137 -29.16969,6.62248 -8.34424,-0.0914 -14.65786,-6.03557 -21.07003,-10.55587 -1.77289,-1.55828 -5.64077,-3.41529 -6.51525,0.0575 0.22147,4.92314 4.9426,9.46817 2.94703,14.48036 -0.76222,11.08333 1.03925,22.19648 -0.28749,33.21553 -2.98883,11.23166 -8.27486,21.65021 -12.83097,32.26738 -0.63539,3.11289 3.51111,3.71147 5.1263,1.64601 2.23832,-1.24344 4.39047,-3.7297 6.57614,-4.21762 3.84129,1.73119 7.93321,-1.44305 11.71258,-2.13642 19.51337,-6.75765 41.34654,-7.5301 61.2157,-0.82526 5.57964,2.10794 12.46178,4.87019 14.15679,11.33378 1.25164,3.02596 5.1376,1.62725 5.99778,-0.92899 7.9087,-14.22707 15.19683,-28.95622 19.24025,-44.80522 4.72123,-17.26729 10.17846,-34.3711 13.96513,-51.87291 0.58863,-2.29362 -0.31979,-5.41027 -3.24692,-5.0688 z"
       id="path2295" />
    <path
       style="fill:#4d4d4d;fill-opacity:1;stroke:#ababab;stroke-width:0.567231;stroke-opacity:0;paint-order:stroke fill markers"
       d="m 535.4387,408.0426 c -3.96502,0.39306 -8.21048,-0.55362 -11.97302,0.8309 -1.62936,3.49792 1.08088,7.42354 1.31455,11.10942 0.9006,5.04058 7.23208,4.87977 10.93209,6.6731 9.60592,4.34254 17.54011,11.85342 27.19102,16.15905 10.41756,2.884 20.73276,-2.524 30.58572,-5.23345 12.81608,-4.52517 26.0295,-8.22918 38.27591,-14.18326 3.74088,-3.35191 -2.04679,-5.41857 -5.02133,-4.43264 -25.93698,0.17353 -52.17125,-1.7005 -77.01625,-9.58602 -4.662,-1.21943 -9.4932,-1.4282 -14.28869,-1.3371 z"
       id="path2297" />
    <path
       style="fill:#4d4d4d;fill-opacity:1;stroke:#ababab;stroke-width:0.567231;stroke-opacity:0;paint-order:stroke fill markers"
       d="m 673.52907,419.29521 c -4.99907,7.97743 -6.8139,17.54037 -9.60885,26.45111 -5.45493,19.75502 -7.74077,40.48673 -16.74533,59.15519 -2.49946,6.0531 -6.19825,11.73806 -8.09094,17.96364 0.6591,3.8446 4.89018,1.56092 6.87851,0.1575 6.82126,-4.02797 14.2785,-7.96412 22.47187,-7.29959 14.56956,0.16636 29.34556,4.31965 40.84006,13.73338 12.43969,9.34347 22.73102,21.09791 31.3261,34.13838 1.10853,2.79771 5.59082,2.33359 5.46339,-0.8929 -1.78391,-16.21017 -4.93391,-32.44031 -11.00728,-47.64599 -10.14629,-27.30611 -23.28306,-53.80726 -41.97916,-76.329 -5.45857,-6.60414 -10.97151,-13.30695 -16.97427,-19.35303 -0.8192,-0.7654 -1.64965,-0.3209 -2.5741,-0.0787 z"
       id="path2299" />
    <path
       style="fill:#4d4d4d;fill-opacity:1;stroke:#ababab;stroke-width:0.567231;stroke-opacity:0;paint-order:stroke fill markers"
       d="m 693.09062,416.30421 c -2.68524,3.50211 2.79068,5.96033 4.48256,8.65507 17.99744,21.95513 31.27082,47.57551 41.44832,74.07407 5.30304,14.36389 11.20236,28.45958 14.34014,43.51739 1.79314,9.36665 1.07452,19.08736 2.65906,28.36838 3.03115,3.16781 5.66486,-2.47877 7.86519,-4.25388 8.56042,-8.96342 17.963,-18.36252 30.18391,-21.9003 7.76155,-2.06543 15.24256,1.52857 22.43757,3.87827 3.43263,0.1059 2.97135,-3.87477 1.45694,-5.78026 -12.24064,-23.20569 -25.05691,-46.15499 -39.17169,-68.27973 -12.5832,-18.68224 -26.79872,-37.57851 -46.87855,-48.69505 -11.71538,-5.79776 -24.77421,-9.19072 -37.77373,-9.86222 l -0.55796,0.1479 z"
       id="path2301" />
    <path
       style="fill:#4d4d4d;fill-opacity:1;stroke:#ababab;stroke-width:0.0501366;stroke-opacity:0;paint-order:stroke fill markers"
       d="m 289.30537,381.16048 c -1.01449,-0.0138 -1.86853,0.68294 -2.37858,1.50889 -0.648,0.88693 -0.49718,2.19315 0.26444,2.96559 1.493,1.61306 3.10509,3.11329 4.71831,4.60511 3.6681,3.34093 7.38932,6.6304 11.28212,9.70875 2.01049,1.55348 4.19484,2.86161 6.31763,4.25238 6.09153,3.87997 12.23788,7.68006 18.52749,11.23201 0.74766,0.50145 1.75394,0.68085 2.5698,0.23564 0.87404,-0.42221 1.34013,-1.41512 1.27504,-2.36232 0.0571,-7.71723 0.025,-15.43482 0.0338,-23.15221 0.004,-1.07707 -0.81241,-2.08075 -1.87636,-2.27216 -2.99183,-0.33721 -5.99157,-0.637 -8.97715,-1.03847 -6.80423,-0.87676 -13.57154,-2.18268 -20.29917,-3.5715 -3.75076,-0.75474 -7.49668,-1.55971 -11.2844,-2.10583 -0.0576,-10e-4 -0.11526,-0.006 -0.17293,-0.006 z"
       id="path2303" />
    <path
       style="fill:#4d4d4d;fill-opacity:1;stroke:#ababab;stroke-width:0.0501366;stroke-opacity:0;paint-order:stroke fill markers"
       d="m 230.5012,389.86812 c -0.90917,0.013 -1.8921,0.35922 -2.34391,1.20095 -0.58311,0.92237 -0.34152,2.19561 0.4449,2.92503 0.47529,0.90576 1.55476,1.45837 2.56301,1.22153 0.98474,-0.17964 1.66286,-1.05754 1.89589,-1.98883 0.37865,-1.14945 -0.1226,-2.54276 -1.2349,-3.07605 -0.40639,-0.21058 -0.8693,-0.29841 -1.32499,-0.28263 z"
       id="path2305" />
  </g>
  <g
     inkscape:groupmode="layer"
     id="layer15"
     inkscape:label="Image 2"
     style="display:inline">
    <path
       style="fill:#808080;fill-opacity:1;stroke:#ababab;stroke-width:1.13446;stroke-opacity:0;paint-order:stroke fill markers"
       d="m 424.2524,267.54993 c -8.64162,3.09486 -11.58322,13.4166 -15.30786,20.999 -5.70087,15.15828 -21.57121,24.31348 -24.76679,40.77138 -5.79218,24.03657 4.86565,48.11086 17.16583,68.26421 -0.46238,3.00309 3.46373,8.72501 -1.53027,9.0351 -19.55391,5.09787 -39.40028,12.4398 -59.88384,11.13639 -16.18711,-4.54413 -29.796,-15.46373 -43.16525,-25.25944 -8.54092,-7.72675 -18.68956,-13.45462 -27.50033,-20.71603 -3.99586,-9.10564 -11.38573,-18.42951 -21.43192,-20.81861 -6.08771,0.68882 -2.01392,7.90731 -0.77566,11.28078 0.82638,3.09973 3.3159,7.25817 1.95042,10.19398 -13.30772,1.14583 -23.76112,11.13386 -34.9359,17.48047 -33.13615,21.84158 -66.32345,44.23497 -103.1912,59.38357 -22.719591,11.87563 -43.119919,29.83535 -53.375735,53.77934 -3.821685,9.07597 -9.585107,18.23639 -9.573901,28.31134 3.119711,5.14691 7.480955,-2.28245 9.01922,-5.044 13.717829,-22.08157 27.875485,-45.62141 49.893446,-60.47932 29.89674,-17.02035 60.27659,-33.26599 88.68911,-52.75698 12.66703,-8.11614 25.33399,-16.39608 38.67892,-23.2786 -21.78604,27.45695 -42.54534,56.81016 -53.28093,90.51802 -2.83391,14.79122 -5.69963,30.68055 -1.43416,45.41965 3.40805,4.38767 6.7269,-2.07863 6.1669,-5.40928 0.40769,-21.05283 4.2413,-42.2129 15.53862,-60.29514 13.05109,-23.0178 27.82168,-45.17693 43.13139,-66.63008 -3.06104,21.72214 -2.32578,45.04808 8.52422,64.68732 8.77823,16.22536 15.57738,35.5768 31.92473,45.79812 6.07731,0.60402 3.66579,-7.19786 1.76776,-10.14437 -11.12407,-24.82388 -28.67713,-48.73998 -29.22227,-76.65886 0.41892,-10.03501 -1.41665,-20.748 1.22436,-30.49172 6.11161,-5.4469 13.77183,2.08208 19.24476,5.08008 18.73186,12.45254 38.27174,23.9133 58.60012,33.49513 17.63874,2.83132 35.15793,-3.72757 52.37483,-6.75032 2.47463,0.30412 11.36355,-4.29949 9.95474,-1.02876 -8.13735,20.69513 -18.79171,40.96958 -21.11173,63.43667 -2.65547,16.52661 -9.86057,32.3136 -11.1658,48.97888 4.03311,5.2628 -2.01666,11.03773 -3.54203,16.37918 -5.90111,13.55375 -13.70248,26.68793 -16.85719,41.20627 1.01769,5.62719 6.77319,0.47667 8.56825,-0.87711 0.29582,3.57066 4.24211,7.40979 7.12744,3.59415 9.23709,-11.66295 16.30422,-25.0608 25.94604,-36.36097 26.23388,5.75633 53.92742,9.01375 80.53487,3.62797 5.94802,-2.43089 6.02402,-0.95562 2.18536,3.54499 -9.97771,14.9143 -22.66473,28.01201 -31.9082,43.3527 -1.71113,5.45303 6.39919,5.12967 8.57953,6.07444 -0.92842,5.15998 5.43758,5.09448 7.69939,1.766 38.49951,-28.40993 61.05173,-72.36421 79.79831,-115.20523 5.41295,-15.13115 3.35001,-31.62244 3.19506,-47.36668 -0.009,-4.94173 -4.22431,-9.91207 -4.73058,-13.85127 10.3043,5.00925 18.61024,16.41934 31.37786,14.49163 32.72179,-5.16924 63.50332,-18.4775 95.6601,-25.98437 1.95828,1.12282 -1.60186,7.02102 -1.42729,9.56489 -8.44907,31.57 -15.31901,64.42117 -32.67402,92.57343 -1.55773,4.1944 -6.45267,8.18703 -5.28111,12.88604 4.90823,3.41153 8.27915,-4.75424 11.38901,-7.51527 18.90833,-22.83081 25.43045,-52.4813 31.87618,-80.54388 3.10192,-10.37896 5.44373,-21.15086 11.13648,-30.4331 30.94723,28.9521 49.89287,68.08229 63.11666,107.73642 5.53108,15.9552 4.68646,33.46404 10.53654,49.23407 3.20424,4.44166 7.19749,-1.5672 6.4059,-5.14997 2.43801,-21.90449 -2.51714,-43.76095 -11.03727,-63.86735 -13.00932,-33.41536 -28.52917,-66.98333 -53.95071,-92.8957 19.55431,4.03147 41.00218,6.82506 56.16718,21.1884 25.40567,21.74579 39.62877,52.79901 56.47384,80.93847 10.36766,17.15839 18.52157,35.9287 30.96524,51.70268 4.16529,3.63233 7.079,-2.83413 5.74524,-6.41944 -3.84428,-19.5282 -15.96855,-36.16523 -25.1773,-53.46281 -19.43442,-32.1383 -39.98165,-64.86318 -69.31255,-88.95516 -14.33805,-11.15315 -33.26669,-12.66343 -50.688,-14.36537 2.77548,-3.97414 10.26953,-6.90319 8.83207,-12.45779 -5.11962,-3.56759 -11.02434,2.78306 -15.72502,4.75539 -7.31842,5.05102 -14.08497,11.25058 -23.07778,13.01308 -29.33605,8.51847 -57.4928,21.00084 -86.94316,29.23294 -8.29727,2.70777 -17.19775,0.95306 -23.85809,-4.72157 -8.60062,-6.37073 -18.76901,-10.04713 -27.77694,-15.67991 0.2998,-4.20857 -2.31911,-9.73014 -2.62911,-12.77572 13.17461,-0.85833 20.60599,-14.07367 27.08472,-23.9821 7.7925,-11.96015 8.04695,-26.56322 6.82078,-40.27082 2.61012,-10.85326 11.8666,-19.88578 12.32251,-31.44551 -2.18943,-7.49539 -12.3423,-5.36985 -18.24587,-5.97523 -5.64677,0.26215 -13.94456,-0.93692 -17.58974,3.46789 -15.73408,-10.53134 -30.88292,-24.6193 -50.29793,-27.3846 -10.3992,-0.56708 -20.94439,0.65245 -31.21778,1.20181 -9.71169,-4.19963 -17.15041,-14.12911 -27.79272,-15.87383 z m 1.36642,8.53895 c 5.25331,0.7537 9.81479,5.69344 10.76444,10.60209 -5.72832,4.58006 -12.86712,9.06643 -19.95728,9.91663 1.63368,-6.9256 2.82451,-15.25913 8.04514,-20.39471 0.36538,-0.13592 0.76263,-0.15236 1.1477,-0.12401 z m 36.28431,34.0002 c 10.26539,-0.25416 18.72153,9.85304 16.10382,19.9911 -0.64036,7.2042 -4.98758,15.58954 -13.25825,15.10719 -9.95511,2.10779 -21.54577,-6.25929 -19.90542,-17.13426 -0.26533,-9.94955 6.62298,-18.38957 17.05985,-17.96403 z m 90.55071,3.16349 c 2.27612,0.6959 8.25925,-0.9969 8.64943,2.26608 -2.13172,5.44354 -5.01821,12.15577 -10.40367,14.88848 -3.72889,-4.00315 -7.09172,-9.98076 -6.1466,-15.51983 2.05441,-1.854 5.32475,-1.51763 7.90084,-1.63473 z m -32.37674,11.57617 c 12.13634,0.43306 20.96336,15.19134 13.76107,25.63036 -3.69461,8.031 -14.64979,13.68002 -21.97082,6.75089 -8.18069,-6.29418 -8.69894,-18.28174 -2.79821,-26.27073 2.05102,-4.28127 6.30477,-6.50027 11.00796,-6.11052 z m -35.83336,24.02494 c 6.35407,0.0538 14.73742,6.8995 12.23457,13.58971 -7.9135,3.47191 -18.58585,-1.07503 -20.44883,-9.63703 1.027,-3.23052 5.28113,-3.98937 8.21426,-3.95268 z m -27.28088,12.00007 c -0.0195,2.4947 2.54868,4.59633 -1.04173,3.01017 0.0562,-0.769 0.86509,-2.92893 1.04173,-3.01017 z"
       id="path2331" />
    <path
       style="fill:#808080;fill-opacity:1;stroke:#ababab;stroke-width:0.0501366;stroke-opacity:0;paint-order:stroke fill markers"
       d="m 366.937,529.51235 c -1.00809,0.22654 -1.74864,1.15432 -1.84979,2.16846 -0.27735,1.43016 -0.62336,2.86267 -0.66047,4.32478 0.0275,1.13758 0.9759,2.17655 2.12278,2.24259 1.06234,0.12737 2.08572,-0.60363 2.45402,-1.58489 0.30407,-0.74908 0.70088,-1.45464 1.02418,-2.1934 0.21174,-0.87049 0.007,-1.77464 -0.13751,-2.6413 -0.13783,-0.91905 -0.64635,-1.85805 -1.55884,-2.19348 -0.43154,-0.2003 -0.93374,-0.20556 -1.39437,-0.12276 z"
       id="path2333" />
    <path
       style="fill:#808080;fill-opacity:1;stroke:#ababab;stroke-width:0.0709038;stroke-opacity:0;paint-order:stroke fill markers"
       d="m 619.71425,537.00239 c -1.08337,0.4616 -1.51525,1.63708 -2.12388,2.55794 -0.64699,1.10706 -1.31166,2.51471 -0.6362,3.76489 0.61311,1.26258 2.2989,1.66441 3.49867,1.02107 1.31298,-0.67493 2.4328,-1.68299 3.45944,-2.73043 0.93148,-1.0078 0.75548,-2.77811 -0.39817,-3.54124 -0.48216,-0.37245 -1.15051,-0.36322 -1.60067,-0.7968 -0.63804,-0.45551 -1.46746,-0.54041 -2.19919,-0.27543 z m 2.52891,0.63318 c 0.0144,10e-4 -0.0177,-10e-4 0,0 z"
       id="path2335" />
    <path
       style="fill:#808080;fill-opacity:1;stroke:#ababab;stroke-width:0.982677;stroke-opacity:0;paint-order:stroke fill markers"
       id="path2341"
       d="m 357.51226,591.27182 c 0.0397,0.0432 0.076,0.0897 0.11899,0.12958 0.11561,0.10708 0.24362,0.19291 0.37313,0.28169 0.14493,0.0993 0.29124,0.19421 0.44414,0.28063 0.0817,0.039 0.20279,0.11133 0.29038,0.006 0.0484,-0.0583 0.006,-0.15361 -0.013,-0.22695 -0.004,-0.0144 -0.14426,-0.10673 -0.16545,-0.12231 -0.31769,-0.19676 -0.70256,-0.26226 -1.06342,-0.33915 -0.13232,-0.0181 -0.33886,-0.0845 -0.26681,0.26174 0.0163,0.0782 0.14673,0.064 0.22296,0.0879 0.10955,0.0343 0.22188,0.059 0.33338,0.0863 0.0579,0.0142 0.71705,0.1668 0.78497,0.18254 -0.0533,-0.43342 0.39644,0.27072 0.44903,0.12456 0.0265,-0.0736 -0.0387,-0.15256 -0.0721,-0.22325 -0.009,-0.0192 -0.0304,-0.0347 -0.0515,-0.0378 -0.1004,-0.015 -0.20283,-0.009 -0.30415,-0.0152 -0.10402,-0.006 -0.20789,-0.0152 -0.31183,-0.0228 -0.0865,-0.008 -0.17329,-0.0136 -0.25947,-0.0246 -0.091,-0.0116 -0.39417,-0.13628 -0.14651,0.26085 0.0369,0.0592 0.13957,-0.003 0.20935,-0.002 0.0841,10e-4 0.16814,0.005 0.25221,0.008 0,0 0.11327,-0.27342 0.11327,-0.27342 v 0 c -0.0841,-0.004 -0.16824,-0.008 -0.2523,-0.0125 -0.0719,-0.004 -0.15472,-0.0537 -0.21554,-0.0151 -0.45403,0.28796 -0.25497,0.28795 -0.082,0.30335 0.0878,0.008 0.1758,0.0134 0.26371,0.0201 0.10435,0.008 0.20873,0.0159 0.31306,0.0244 0.1019,0.008 0.20339,0.0248 0.30562,0.0257 0.1333,10e-4 0.28903,0.0553 0.39944,-0.0194 0.0702,-0.0475 0.044,-0.17893 0.005,-0.25417 -0.0748,-0.14423 -0.48191,0.13149 -0.47513,-0.10853 -0.27843,-0.0627 -0.49756,-0.10908 -0.77392,-0.18342 -0.10519,-0.0283 -0.20879,-0.0622 -0.31347,-0.0924 -0.0487,-0.014 -0.10084,-0.0618 -0.14667,-0.0402 -0.092,0.0435 -0.16516,0.12645 -0.21884,0.21291 -0.0163,0.0263 0.0616,-0.006 0.0924,-0.009 0.33228,0.0626 0.6783,0.12466 0.97665,0.2909 0.0496,0.0383 0.0588,0.047 0.10956,0.0805 0.0102,0.007 0.0271,0.0303 0.0314,0.0189 0.0219,-0.0577 -0.0161,-0.14228 0.0306,-0.1826 0.0611,-0.0527 0.3051,0.008 0.14905,-0.0275 -0.15372,-0.0681 -0.29136,-0.15711 -0.43099,-0.25079 -0.14898,-0.1 -0.30175,-0.20046 -0.41779,-0.33972 0,0 -0.28742,0.1373 -0.28742,0.1373 z" />
    <path
       style="fill:#808080;fill-opacity:1;stroke:#ababab;stroke-width:0.982677;stroke-opacity:0;paint-order:stroke fill markers"
       id="path2345"
       d="m 447.48945,614.2755 c 0.005,0.10643 0.006,0.21322 0.013,0.31958 0.002,0.0375 -0.004,0.0773 0.01,0.11231 0.014,0.0355 0.0319,0.0899 0.0701,0.0907 0.0906,0.002 0.17237,-0.056 0.25856,-0.084 0.19931,-0.24684 0.34568,-0.53019 0.52448,-0.79107 0.0919,-0.13407 0.0477,-0.11322 0.13878,-0.13615 -0.0637,0.008 -0.1383,-0.0129 -0.19103,0.0236 -0.0347,0.0241 -0.0142,0.0833 -0.0229,0.12467 -0.0573,0.27291 -0.13672,0.53876 -0.22084,0.80435 -0.009,0.0151 -0.0461,0.0457 -0.0282,0.0454 0.0806,-10e-4 0.17275,-1.1e-4 0.23677,-0.0491 0.0442,-0.0338 0.026,-0.10811 0.0393,-0.16211 0.0652,-0.26531 0.13308,-0.52953 0.20543,-0.79298 -0.003,-0.13263 0.0979,-0.24338 0.11131,-0.37216 0.003,-0.0296 0.005,-0.10053 -0.0214,-0.0867 -0.30725,0.1614 -0.3072,0.2883 -0.44007,0.57363 -0.0604,0.12969 -0.12199,0.25881 -0.18298,0.38822 -0.16376,0.3315 -0.30728,0.67447 -0.49296,0.99492 -0.0232,0.0401 -0.11572,0.0893 -0.0774,0.11533 0.20048,0.13615 0.23345,-0.0922 0.26609,-0.18009 0.15896,-0.42387 0.34335,-0.83844 0.54206,-1.24509 0.045,-0.0921 0.21187,-0.43369 0.30396,-0.54594 0.0128,-0.0156 0.0376,-0.0146 0.0564,-0.0219 -0.0704,0.0206 -0.16182,0.008 -0.21119,0.0618 -0.0517,0.0568 -0.0315,0.15028 -0.0497,0.22486 -0.026,0.10671 -0.0541,0.21288 -0.0826,0.31892 -0.0579,0.21512 -0.12379,0.42804 -0.18132,0.64325 -0.018,0.0673 -0.0325,0.13543 -0.0487,0.20315 0.006,0.0337 -0.015,0.0983 0.0192,0.1011 0.30612,0.0254 0.32517,-0.11473 0.4637,-0.32614 0.073,-0.11134 0.14487,-0.22337 0.21629,-0.33571 0.29664,-0.47235 0.15121,-0.24258 0.43607,-0.68946 -0.34043,-0.0952 0.36285,-0.24875 0.25328,-0.33654 -0.0519,-0.0416 -0.14044,-0.0107 -0.19834,0.022 -0.0505,0.0285 -0.0675,0.0945 -0.0965,0.14472 -0.0653,0.11296 -0.12258,0.23036 -0.18612,0.34431 -0.0785,0.14081 -0.16001,0.27994 -0.24002,0.41991 -0.21572,0.36535 -0.42885,0.73263 -0.65161,1.09378 -0.0327,0.053 -0.14629,0.11282 -0.10201,0.15669 0.2257,0.2236 0.41009,-0.22872 0.45015,-0.28924 0.26572,-0.37967 0.52949,-0.76169 0.82598,-1.11844 0.0528,-0.0636 0.10354,-0.13 0.16551,-0.18472 0.009,-0.008 0.0443,0.007 0.0331,0.009 -0.0913,0.0221 -0.18497,0.0331 -0.27746,0.0497 -0.24246,0.39854 -0.51495,0.77774 -0.78457,1.15804 -0.0766,0.10799 -0.3216,0.45747 -0.42866,0.58646 -0.0234,0.0282 -0.0531,0.0503 -0.0797,0.0755 0.0812,-5.2e-4 0.17345,0.0394 0.24349,-0.002 0.0754,-0.0442 0.0906,-0.14951 0.13884,-0.22234 0.0752,-0.1134 0.15312,-0.22494 0.23139,-0.33622 0.24026,-0.34157 0.49055,-0.67492 0.74556,-1.00551 0.0777,0.094 0.18039,-0.28479 0.0825,-0.28182 -0.22608,0.007 -0.41437,0.22962 -0.5614,0.36066 -0.19186,0.17098 -0.38599,0.33941 -0.57872,0.50941 -0.0283,0.0245 -0.391,0.34039 -0.45023,0.38555 -0.0381,0.029 -0.12772,0.0291 -0.1215,0.0765 0.006,0.0441 0.083,-0.0325 0.12556,-0.0456 0.22479,-0.0693 0.0361,0.0615 0.306,-0.28789 0.28059,-0.31771 0.32496,-0.3755 0.6237,-0.68269 0.14773,-0.1519 0.351,-0.35654 0.52246,-0.49388 0.0447,-0.0358 0.15156,-0.039 0.14274,-0.0956 -0.008,-0.0515 -0.10113,0.0254 -0.1517,0.0381 -0.0353,0.017 -0.0783,0.0232 -0.10575,0.0511 -0.0795,0.0808 -0.13667,0.18085 -0.20857,0.26844 -0.0982,0.1197 -0.2003,0.2362 -0.30169,0.35324 -0.28847,0.33299 -0.58196,0.66135 -0.8799,0.98586 -0.0518,0.0491 -0.10353,0.0981 -0.1553,0.14721 -0.0123,-2.9e-4 -0.049,0.002 -0.0369,-8.8e-4 0.1028,-0.0208 0.22129,0.002 0.3099,-0.0544 0.10791,-0.0683 0.16051,-0.19873 0.2434,-0.2959 0.22203,-0.2603 0.42869,-0.48515 0.65816,-0.73894 0.0952,-0.0954 0.18712,-0.19417 0.28569,-0.28606 0.0654,-0.061 0.13471,-0.11794 0.20586,-0.17214 0.0177,-0.0135 -0.025,0.0393 -0.0448,0.0495 -0.047,0.0243 -0.11433,0.0124 -0.15031,0.0513 -0.0803,0.0867 -0.11771,0.20514 -0.18017,0.30552 -0.0754,0.12114 -0.15547,0.23926 -0.23321,0.35889 -0.20068,0.2934 -0.39489,0.59185 -0.60644,0.87771 -0.0291,0.0393 -0.1252,0.0799 -0.0912,0.11507 0.20946,0.21635 0.34875,-0.10272 0.4245,-0.1992 0.24934,-0.29836 0.49668,-0.60023 0.76809,-0.87921 0.0431,-0.0443 0.1453,-0.0653 0.1356,-0.12633 -0.008,-0.0515 -0.0965,0.0408 -0.14743,0.052 -0.0471,0.0103 -0.0961,0.008 -0.14414,0.0118 -0.17188,0.21996 -0.2057,0.26474 -0.39088,0.49464 -0.0683,0.0848 -0.13433,0.17169 -0.20634,0.25343 -0.042,0.0477 -0.16781,0.0798 -0.13528,0.13437 0.12729,0.21362 0.27716,-0.14781 0.28498,-0.16182 0.12062,-0.22651 0.25274,-0.44652 0.38346,-0.66725 0.0229,-0.0387 0.0616,-0.0719 0.0684,-0.1164 0.006,-0.0394 0.007,-0.11655 -0.033,-0.1149 -0.10202,0.004 -0.18557,0.0852 -0.27835,0.12786 -0.22439,0.27458 -0.44793,0.54981 -0.67622,0.82116 -0.0641,0.0762 -0.12698,0.15354 -0.19352,0.22764 -0.0351,0.0391 -0.14231,0.0694 -0.11115,0.11168 0.0422,0.0572 0.1412,0.0166 0.21179,0.0249 0.0348,-0.0416 0.0712,-0.0821 0.10452,-0.1249 0.0727,-0.0933 0.14058,-0.19028 0.21342,-0.28347 0.32123,-0.41097 0.6635,-0.80492 1.01663,-1.1886 0.0439,-0.0395 0.095,-0.0724 0.13184,-0.11861 0.0203,-0.0254 -0.0498,0.045 -0.0809,0.0548 -0.0543,0.0171 -0.12657,-0.014 -0.16903,0.0238 -0.0877,0.0782 -0.12544,0.19873 -0.19023,0.29674 -0.18951,0.28672 -0.34439,0.50619 -0.54089,0.78913 -0.18717,0.26526 -0.2377,0.35133 -0.42877,0.57867 -0.0325,0.0387 -0.14147,0.0779 -0.10331,0.11104 0.20401,0.17737 0.30001,-0.12245 0.35242,-0.20667 0.0624,-0.10035 0.12722,-0.19922 0.19083,-0.29883 0.20576,-0.31352 0.41737,-0.62335 0.64573,-0.92095 0.0381,-0.0497 0.0764,-0.0995 0.11762,-0.14658 0.004,-0.005 0.0242,-0.009 0.0178,-0.008 -0.10218,0.0133 -0.20384,0.0303 -0.30575,0.0454 -0.0712,0.0927 -0.1417,0.18598 -0.21356,0.27818 -0.046,0.059 -0.48843,0.61945 -0.54093,0.68341 -0.24096,0.29359 -0.15163,0.19202 -0.37285,0.3966 -0.0185,0.0171 0.0377,-0.0333 0.0565,-0.05 0.0487,-0.0143 0.11359,-0.004 0.14612,-0.0428 0.0773,-0.0926 0.10538,-0.21709 0.16044,-0.32445 0.0662,-0.12911 0.13441,-0.25722 0.20337,-0.3849 0.064,-0.11841 0.12959,-0.23591 0.19534,-0.35333 0.16226,-0.28979 0.0895,-0.13945 0.17525,-0.32495 -0.0873,-0.008 -0.18019,-0.0545 -0.26192,-0.0229 -0.0681,0.0264 -0.0879,0.11665 -0.13156,0.17522 -0.0557,0.0747 -0.11085,0.1499 -0.16643,0.22474 -0.14399,0.19387 -0.28693,0.38834 -0.42859,0.58392 -0.0227,0.0269 -0.0978,0.0618 -0.0681,0.0806 0.20404,0.12939 0.23985,-0.0168 0.3233,-0.13476 0.0642,-0.0907 0.12717,-0.18221 0.19348,-0.27132 0.17427,-0.2342 0.26209,-0.33669 0.44422,-0.5595 -0.28455,-0.19432 0.3612,-0.15557 0.28913,-0.26451 -0.0253,-0.0383 -0.0863,0.0316 -0.12811,0.0504 -0.13376,0.06 -0.0782,0.0638 -0.17346,0.25155 -0.047,0.0926 -0.097,0.18369 -0.14553,0.27553 -0.13553,0.22416 -0.24961,0.4634 -0.40498,0.67538 -0.0154,0.021 -0.0775,0.048 -0.0531,0.0571 0.24643,0.0921 0.2262,0.0215 0.30821,-0.13802 0.045,-0.0783 0.0889,-0.15724 0.13509,-0.23481 0.0344,-0.0576 0.30208,-0.49262 0.34026,-0.55067 0.042,-0.0639 0.0835,-0.12852 0.1326,-0.18716 0.0154,-0.0184 0.0825,-0.0385 0.0587,-0.0415 -0.0769,-0.01 -0.15443,0.013 -0.23165,0.0195 -0.15316,0.32766 -0.32112,0.64864 -0.49599,0.96523 -0.1092,0.19768 -0.0575,0.0902 -0.1137,0.21159 0.0876,8.5e-4 0.18271,0.038 0.26284,0.003 0.0642,-0.0284 0.0798,-0.11564 0.12114,-0.17242 0.10799,-0.14828 0.20872,-0.28057 0.32706,-0.42049 0.13741,-0.16246 0.084,-0.12142 0.20711,-0.19349 -0.0662,0.004 -0.13809,-0.0154 -0.19858,0.0118 -0.034,0.0153 -0.0339,0.0665 -0.0504,0.1 -0.0323,0.0655 -0.0634,0.13166 -0.0961,0.19695 -0.0944,0.18813 -0.1961,0.37212 -0.29508,0.55781 -0.006,0.0206 -0.0383,0.0572 -0.0174,0.0617 0.091,0.0193 0.19344,0.0304 0.27902,-0.006 0.0696,-0.0297 0.0958,-0.11717 0.14498,-0.1747 0.0699,-0.0818 0.14069,-0.1627 0.21208,-0.24313 0.20238,-0.22804 0.28414,-0.3144 0.48922,-0.53646 0.0727,-0.075 0.24994,-0.27077 0.35548,-0.34193 0.0193,-0.013 0.0905,-0.014 0.0675,-0.018 -0.0669,-0.0116 -0.14251,-0.0352 -0.20365,-0.006 -0.0524,0.0253 -0.0607,0.0994 -0.092,0.14847 -0.0532,0.0836 -0.10768,0.16641 -0.16152,0.24961 -0.21234,0.31642 -0.43686,0.62424 -0.66498,0.92936 0,0 0.19306,0.0711 0.19306,0.0711 v 0 c 0.21829,-0.31308 0.43681,-0.626 0.65673,-0.93793 0.0582,-0.0848 0.11977,-0.16734 0.17448,-0.2544 0.0424,-0.0675 0.13343,-0.1309 0.11668,-0.20887 -0.0161,-0.075 -0.11549,-0.11078 -0.18964,-0.1306 -0.0318,-0.008 -0.0549,0.0367 -0.0793,0.0587 -0.0978,0.0886 -0.26678,0.27648 -0.34426,0.36006 -0.23709,0.2595 -0.47356,0.51984 -0.71579,0.77458 -0.0496,0.0521 -0.14726,0.0826 -0.1508,0.15444 -0.003,0.0563 0.15659,0.19218 0.13654,0.0998 0.0888,-0.19004 0.18958,-0.37352 0.28666,-0.55947 0.0359,-0.0688 0.0758,-0.13565 0.10716,-0.20659 0.0251,-0.0568 0.0923,-0.12147 0.0621,-0.17579 -0.0368,-0.0662 -0.13948,-0.0593 -0.20922,-0.089 -0.1997,0.19915 -0.36231,0.43414 -0.53898,0.65328 -0.043,0.0533 -0.1381,0.0901 -0.13114,0.1582 0.007,0.0666 0.10648,0.0812 0.15973,0.12173 0.0217,-0.0937 0.007,-0.0443 0.0844,-0.1965 0.042,-0.0826 0.086,-0.16424 0.12918,-0.24628 0.13081,-0.24872 0.26808,-0.49391 0.39411,-0.7451 -0.0616,-0.0471 -0.11023,-0.11999 -0.18479,-0.14124 -0.0291,-0.008 -0.0368,0.0481 -0.0535,0.0733 -0.0426,0.0643 -0.0834,0.12981 -0.12438,0.19516 -0.1647,0.2627 -0.32889,0.52571 -0.49327,0.7886 -0.0841,0.14634 -0.20377,0.22831 0.0995,0.27175 0.0287,0.004 0.0309,-0.0491 0.0457,-0.074 0.13522,-0.22701 0.26224,-0.45875 0.39407,-0.68771 0.0514,-0.0929 0.10424,-0.18493 0.15409,-0.27863 0.0323,-0.0606 0.22029,-0.35852 0.12982,-0.46341 -0.14991,-0.1738 -0.44479,0.25908 -0.48917,0.3065 -0.17651,0.221 -0.27128,0.33812 -0.44695,0.56469 -0.0702,0.0905 -0.14213,0.17966 -0.20869,0.27282 -0.0487,0.0682 -0.15819,0.12979 -0.13693,0.21085 0.0828,0.31558 0.24796,0.0138 0.27172,-0.0208 0.18513,-0.27358 0.37556,-0.54573 0.58869,-0.79853 0.0424,-0.0502 0.13647,-0.0795 0.13337,-0.14519 -0.003,-0.0634 -0.0973,-0.0814 -0.14599,-0.12206 -0.0396,0.15439 -0.0146,0.0796 -0.13614,0.31187 -0.0767,0.14659 -0.32788,0.60338 -0.40283,0.73955 -0.0613,0.11141 -0.15064,0.21135 -0.18447,0.33394 -0.0264,0.0955 0.007,0.19808 0.0103,0.29712 0.0587,-0.0248 0.12444,-0.0371 0.17612,-0.0743 0.0667,-0.0481 0.34563,-0.40724 0.35703,-0.42158 0.25506,-0.3209 0.50696,-0.64462 0.78194,-0.94906 -0.0342,-0.0689 -0.0664,-0.13879 -0.10266,-0.20663 -0.002,-0.004 0.003,0.0109 4.8e-4,0.0152 -0.0324,0.0526 -0.0691,0.10245 -0.10434,0.15325 -0.21431,0.30942 -0.43216,0.61642 -0.64327,0.92806 -0.0675,0.0994 -0.13572,0.19826 -0.20253,0.29809 -0.0512,0.0765 -0.16039,0.1393 -0.15154,0.23094 0.007,0.0731 0.11189,0.1204 0.18535,0.11924 0.0513,-8.1e-4 0.0618,-0.0819 0.0917,-0.12361 0.15412,-0.21482 0.25295,-0.36256 0.40919,-0.59074 0.47669,-0.68205 0.0802,-0.11749 0.5552,-0.78628 0.0864,-0.12169 0.3545,-0.39194 0.23144,-0.60114 -0.0584,-0.0992 -0.27997,0.2335 -0.27985,0.20254 -0.24402,0.28338 -0.48514,0.5692 -0.72581,0.85544 -0.034,0.0404 -0.46189,0.54968 -0.51893,0.62413 -0.0499,0.0651 -0.0928,0.1353 -0.13926,0.20295 0.0695,0.0193 0.13796,0.0729 0.20853,0.0579 0.0515,-0.0109 0.0659,-0.0821 0.0988,-0.12321 0.0617,-0.0769 0.12278,-0.15432 0.18523,-0.23062 0.22376,-0.27341 0.44943,-0.5463 0.69586,-0.79981 -0.0279,-0.0239 -0.0663,-0.0393 -0.0837,-0.0716 -0.0144,-0.0269 0.0245,-0.10254 -0.004,-0.0914 -0.04,0.0157 -0.0371,0.0775 -0.0574,0.11542 -0.12255,0.2285 -0.25919,0.44916 -0.38775,0.67423 -0.0394,0.0831 -0.26454,0.37249 0.1038,0.29923 0.0635,-0.0126 0.084,-0.0986 0.12496,-0.14877 0.20343,-0.24927 0.40294,-0.50179 0.61367,-0.74506 0.0261,-0.0923 0.1129,-0.18756 0.0782,-0.27703 -0.021,-0.0541 -0.11914,0.0139 -0.16818,0.0449 -0.0521,0.033 -0.0817,0.0925 -0.12234,0.13888 -0.25738,0.29362 -0.51238,0.58934 -0.77263,0.88044 -0.002,0.002 -0.4678,0.34891 -0.0459,0.35022 0.0485,1.6e-4 0.0521,-0.0819 0.0786,-0.12263 0.19351,-0.29735 0.39201,-0.59141 0.59012,-0.8857 0.0805,-0.1202 0.1622,-0.23961 0.24149,-0.36061 0.0676,-0.1031 0.35484,-0.43706 0.2123,-0.62496 -0.0406,-0.0536 -0.13421,0.0298 -0.1904,0.0667 -0.0767,0.0504 -0.45887,0.4654 -0.47488,0.48235 -0.86861,0.96102 0.20449,-0.22453 -0.6705,0.73667 -0.23503,0.25819 -0.35757,0.23726 -0.20662,0.56247 0.0391,0.0841 0.21154,-0.64138 0.18695,-0.20608 0.28757,-0.33264 0.57603,-0.66411 0.869,-0.99203 0.0208,-0.0233 0.50214,-0.55239 0.54876,-0.63024 0.0456,-0.0761 0.0564,-0.16818 0.0846,-0.25226 -0.0679,-0.004 -0.13852,-0.0321 -0.20361,-0.0124 -0.0572,0.0173 -0.0931,0.075 -0.13717,0.11544 -0.0753,0.0691 -0.14832,0.14069 -0.22053,0.21302 -0.31889,0.31945 -0.62467,0.65188 -0.92995,0.98421 -0.0437,0.053 -0.38137,0.36623 -0.27442,0.53255 0.0354,0.0551 0.13412,0.0107 0.19624,-0.0101 0.048,-0.016 0.08,-0.062 0.11831,-0.0951 0.14842,-0.12832 0.28738,-0.26734 0.43794,-0.39328 0.24413,-0.21528 0.33221,-0.29597 0.58302,-0.50491 0.0849,-0.0707 0.18951,-0.12163 0.25711,-0.20896 0.0191,-0.0247 -0.0221,-0.0589 -0.0258,-0.0899 -0.004,-0.0331 0.0317,-0.11666 0.003,-0.0999 -0.0535,0.0312 -0.0667,0.10438 -0.10003,0.15657 -0.2443,0.3385 -0.49118,0.67504 -0.73903,1.01094 -0.0825,0.11174 -0.16607,0.22264 -0.24775,0.33495 -0.0557,0.0767 -0.16564,0.13716 -0.16448,0.23194 9e-4,0.0736 0.11271,0.0947 0.16906,0.14212 0.15802,-0.22943 0.31206,-0.46154 0.47136,-0.69012 0.2706,-0.38829 0.54894,-0.77113 0.8238,-1.1564 -0.0335,-0.0828 -0.0483,-0.17585 -0.10047,-0.24832 -0.0128,-0.0178 -0.0283,0.0335 -0.0417,0.0507 -0.0508,0.065 -0.10125,0.13031 -0.15102,0.19612 -0.28067,0.37113 -0.55034,0.75036 -0.83348,1.11965 -0.0717,0.0903 -0.19539,0.15739 -0.21504,0.27103 -0.0115,0.0665 0.0762,0.14863 0.14344,0.1429 0.0608,-0.005 0.0555,-0.10878 0.0848,-0.16235 0.20309,-0.37104 0.42287,-0.73254 0.63596,-1.09782 0.0834,-0.13952 0.16683,-0.27902 0.25021,-0.41856 0.0686,-0.11485 0.14339,-0.22628 0.20582,-0.34462 0.0447,-0.0847 0.1458,-0.17272 0.11496,-0.26343 -0.0234,-0.0687 -0.14591,-0.053 -0.21544,-0.032 -0.13647,0.041 -0.056,0.37979 -0.23209,0.35906 -0.13343,0.21475 -0.29459,0.47756 -0.43365,0.6865 -0.0734,0.11019 -0.14781,0.21972 -0.22608,0.32647 -0.0549,0.0748 -0.15347,0.12727 -0.17309,0.21794 -0.006,0.0294 0.16614,0.14599 0.0806,0.0872 0.0118,-0.065 0.02,-0.13079 0.0352,-0.19511 0.0256,-0.10817 0.15258,-0.54994 0.17955,-0.64405 0.0308,-0.10747 0.0632,-0.21448 0.0929,-0.32224 0.0229,-0.0831 0.0912,-0.16808 0.0651,-0.25019 -0.0258,-0.0811 -0.13107,-0.10845 -0.19661,-0.16268 -0.0199,0.0255 -0.0431,0.0488 -0.0596,0.0766 -0.0806,0.13595 -0.22608,0.4497 -0.27985,0.564 -0.19569,0.41591 -0.38919,0.83297 -0.57633,1.25281 -0.0402,0.12143 -0.20589,0.37206 0.14347,0.27013 0.0458,-0.0134 0.0436,-0.0849 0.0645,-0.12779 0.1619,-0.33238 0.31374,-0.66958 0.47676,-1.00142 0.0638,-0.12877 0.12692,-0.25783 0.19126,-0.38631 0.0532,-0.10632 0.14378,-0.2005 0.16149,-0.31809 0.009,-0.0611 -0.0658,-0.10525 -0.0891,-0.16244 -0.009,-0.0219 0.005,-0.0916 -0.006,-0.0708 -0.0621,0.11309 -0.0142,0.26912 -0.0976,0.37459 -0.0707,0.26446 -0.14066,0.52902 -0.21738,0.79183 -0.0164,0.0561 -0.0785,0.11687 -0.0502,0.16802 0.0368,0.0666 0.12727,0.0919 0.20198,0.10629 0.0217,0.004 0.012,-0.0426 0.018,-0.0639 0.0577,-0.20283 0.11722,-0.40526 0.17083,-0.60924 0.0187,-0.071 0.0386,-0.14168 0.0536,-0.21349 0.0123,-0.0588 0.0616,-0.12788 0.0283,-0.17785 -0.0433,-0.065 -0.14159,-0.0658 -0.21238,-0.0987 -0.0189,0.0204 -0.0399,0.0389 -0.0566,0.0612 -0.0625,0.0835 -0.15754,0.24545 -0.20819,0.32573 -0.11957,0.1895 -0.23729,0.38399 -0.39513,0.5449 0.0279,0.015 0.0626,0.0215 0.0838,0.0451 0.008,0.009 -0.0113,0.0422 -0.0154,0.0313 -0.0118,-0.0322 -0.009,-0.0681 -0.0108,-0.10238 -0.006,-0.10485 -0.005,-0.21063 -0.002,-0.31555 0,0 -0.22518,0.0206 -0.22518,0.0206 z" />
    <path
       style="fill:#808080;fill-opacity:1;stroke:#ababab;stroke-width:0.982677;stroke-opacity:0;paint-order:stroke fill markers"
       id="path2347"
       d="m 449.50269,614.40951 c -0.47839,0.0173 -0.94964,-0.0957 -1.41166,-0.20514 -0.27398,-0.0772 -0.37719,-0.10155 -0.63698,-0.19138 -0.0714,-0.0247 -0.14456,-0.0462 -0.21215,-0.08 -0.0197,-0.01 -0.0451,-0.0706 -0.0449,-0.0486 0.002,0.24547 0.14778,0.14338 0.35619,0.13955 0.38937,0.0225 0.78002,0.0587 1.16434,0.12744 0.0772,0.0138 0.15387,0.0308 0.22921,0.0524 0.0174,0.005 0.0391,0.043 0.0473,0.0268 0.0295,-0.0577 0.0243,-0.12734 0.0365,-0.19101 -0.27796,-0.0119 -0.55315,-0.062 -0.8267,-0.10974 -0.091,-0.0159 -0.32888,-0.0578 -0.43996,-0.0881 -0.007,-0.002 -0.0118,-0.008 -0.0178,-0.0127 0.0199,0.0752 -0.005,0.18223 0.0599,0.22571 0.10131,0.0682 0.24149,0.0371 0.36179,0.0583 0.15421,0.0272 0.30806,0.0564 0.46167,0.0868 0.2371,0.0469 0.61635,0.12606 0.8573,0.18803 0.0921,0.0237 0.18245,0.0533 0.27368,0.08 0.0761,0.14456 0.0518,-0.0976 0.0173,-0.11571 -0.0837,-0.0439 -0.18921,0.003 -0.28365,-0.002 -0.38202,-0.0184 -0.76138,-0.0764 -1.13952,-0.13013 -0.15723,-0.002 -0.30391,-0.0594 -0.45661,-0.0848 -0.0112,-0.002 0.0259,0.004 0.0311,0.0136 0.0307,0.0594 0.0132,0.15617 0.0725,0.18711 0.10525,0.0549 0.2364,0.0222 0.35435,0.0356 0.1383,0.0157 0.27623,0.0345 0.41435,0.0518 0.20862,0.0314 0.49654,0.0723 0.70845,0.11301 0.0696,0.0134 0.13924,0.0274 0.20737,0.0469 0.024,0.007 0.0656,0.0567 0.0677,0.0318 0.008,-0.0979 -0.0399,-0.12798 -0.0937,-0.17203 -0.29675,-0.0119 -0.59101,-0.0538 -0.88514,-0.0921 0,0 -0.0857,0.17517 -0.0857,0.17517 v 0 c 0.29746,0.0377 0.59481,0.0763 0.89238,0.11311 0.14374,-0.0109 0.40337,0.0637 0.30205,-0.20105 -0.0124,-0.0325 -0.0646,-0.0265 -0.0984,-0.0343 -0.072,-0.0165 -0.14529,-0.0267 -0.21821,-0.0384 -0.1331,-0.0213 -0.6033,-0.0891 -0.71607,-0.10548 -0.13745,-0.0196 -0.27494,-0.0388 -0.41233,-0.0587 -0.11641,-0.0169 -0.23246,-0.0672 -0.34907,-0.0517 -0.12128,0.0161 -0.23283,0.0804 -0.33814,0.14267 -0.016,0.009 0.0297,0.0246 0.0478,0.0289 0.0556,0.0132 0.1134,0.0149 0.17004,0.0228 0.10069,0.0141 0.2013,0.0287 0.30194,0.0431 0.15737,0.0213 0.62692,0.0855 0.7771,0.10355 0.12297,0.0148 0.24616,0.0278 0.36939,0.0402 0.23948,0.0241 0.39473,0.10381 0.54552,-0.16813 0.019,-0.0343 -0.0665,-0.0418 -0.0998,-0.0627 -0.0952,-0.0238 -0.18996,-0.0493 -0.28557,-0.0713 -0.22637,-0.0522 -0.64501,-0.13738 -0.86319,-0.18352 -0.15236,-0.0322 -0.30471,-0.0645 -0.45684,-0.0978 -0.11735,-0.0257 -0.23273,-0.0963 -0.3516,-0.079 -0.10078,0.0146 -0.17048,0.11142 -0.25572,0.16712 0.0593,-0.0445 0.009,-0.0118 0.18542,0.0174 0.37451,0.062 0.74815,0.12912 1.1218,0.19604 0.0561,-0.0656 0.13694,-0.11637 0.16846,-0.19674 0.0104,-0.0264 -0.0535,-0.0196 -0.0813,-0.0256 -0.0806,-0.0173 -0.16179,-0.0317 -0.24326,-0.0442 -0.39032,-0.0599 -0.78376,-0.10082 -1.17675,-0.13808 -0.11088,-0.007 -0.22629,-0.0531 -0.33265,-0.021 -0.10568,0.0319 -0.2061,0.10653 -0.26324,0.201 -0.0211,0.0348 0.0597,0.0574 0.0964,0.0748 0.0706,0.0335 0.14741,0.0521 0.22183,0.076 0.26343,0.0845 0.37421,0.1118 0.64978,0.1879 0.40956,0.10077 0.34744,0.0911 0.75502,0.1696 0.22106,0.0426 0.4438,0.0861 0.66984,0.0878 0,0 0.0807,-0.21159 0.0807,-0.21159 z" />
    <path
       style="fill:#808080;fill-opacity:1;stroke:#ababab;stroke-width:0.982677;stroke-opacity:0;paint-order:stroke fill markers"
       id="path2349"
       d="m 442.99943,609.48793 c -0.37848,0.15807 -0.75536,0.32184 -1.13898,0.46731 -0.25592,0.097 -0.17088,0.0878 -0.31905,0.0931 0.0234,0.009 0.0452,0.0252 0.0701,0.0261 0.14936,0.006 0.22896,-0.10271 0.35347,-0.18019 0.10486,-0.0652 0.21211,-0.12663 0.31942,-0.18778 0.27582,-0.15718 0.34039,-0.18741 0.61262,-0.32844 0.0709,-0.0294 0.14176,-0.0587 0.21264,-0.0881 0.006,0.004 0.0239,0.0147 0.018,0.0109 -0.0309,-0.02 -0.0566,-0.0541 -0.0929,-0.0594 -0.0319,-0.005 -0.0632,0.0165 -0.0913,0.0323 -0.0644,0.0362 -0.1223,0.0829 -0.18456,0.1226 -0.0717,0.0458 -0.14489,0.0892 -0.21734,0.13387 -0.0467,0.1592 -0.24579,0.0734 -0.33165,0.16145 -0.0274,0.0281 0.075,-0.0412 0.11336,-0.0325 0.0376,0.009 0.047,0.0797 0.0855,0.0778 0.0508,-0.002 0.082,-0.0603 0.12457,-0.088 0.0647,-0.0421 0.13138,-0.0808 0.19707,-0.12123 0.1131,-0.063 0.29672,-0.16974 0.41935,-0.22124 0.039,-0.0164 0.14456,-2.8e-4 0.1218,-0.036 -0.0237,-0.0372 -0.0868,0.0288 -0.13042,0.0224 -0.21962,-0.0321 0.0253,-0.15384 -0.2366,0.045 -0.082,0.0594 -0.16333,0.12376 -0.25302,0.17214 -0.0109,0.006 -0.0462,0.004 -0.0355,0.0106 0.0717,0.0409 0.14488,0.0922 0.22719,0.0987 0.0441,0.003 0.0736,-0.0494 0.11158,-0.072 0.0488,-0.0291 0.0991,-0.0555 0.14863,-0.0833 0.048,-0.024 0.0945,-0.0513 0.14399,-0.072 0.0114,-0.005 -0.017,0.0282 -0.0284,0.0237 -0.0435,-0.0173 -0.0683,-0.0793 -0.11506,-0.0806 -0.0348,-9.3e-4 -0.0473,0.0512 -0.0723,0.0755 -0.0782,0.0764 -0.0903,0.0839 -0.16773,0.14733 -0.0763,0.0143 -0.29138,0.0512 0.20527,0.0892 0.0309,0.002 0.0452,-0.0425 0.0684,-0.0631 0.0244,-0.0217 0.049,-0.0432 0.0744,-0.0636 0.0132,-0.0106 0.0541,-0.0184 0.0413,-0.0294 -0.0596,-0.0511 -0.1378,-0.075 -0.20671,-0.11249 -0.11492,0.0896 -0.23224,0.17682 -0.35228,0.25946 -0.0298,0.0205 -0.0589,0.0424 -0.0912,0.0587 -0.008,0.004 -0.0337,-0.004 -0.0259,1.1e-4 0.0723,0.0339 0.14757,0.061 0.22136,0.0915 0.10769,-0.0878 0.22128,-0.16879 0.33722,-0.24533 0.0319,-0.0211 0.0637,-0.0425 0.0973,-0.0607 0.0134,-0.007 0.0555,-0.006 0.043,-0.0152 -0.067,-0.0469 -0.1467,-0.0723 -0.22005,-0.1085 -0.16056,0.0868 -0.32188,0.1751 -0.49326,0.23926 -0.0443,0.0166 -0.098,-0.005 -0.0911,0.006 0.015,0.0227 0.048,0.0258 0.072,0.0388 0.073,-0.059 0.12909,-0.13473 0.20753,-0.18757 0.0124,-0.008 0.0547,-0.0148 0.0405,-0.0194 -0.14053,-0.0447 -0.14475,-0.0414 -0.22963,-0.0285 -0.11881,0.16525 0.0206,-0.0265 -0.097,0.12894 -0.0652,0.0862 -0.0691,0.11407 0.19737,0.13125 0.04,0.003 0.0617,-0.0512 0.0933,-0.0758 0.0368,-0.0285 0.0746,-0.0557 0.11186,-0.0836 -0.15477,-0.004 0.25924,-0.11269 0.18667,-0.11208 -0.0324,2.8e-4 -0.0578,0.0448 -0.0894,0.0379 -0.0361,-0.008 -0.046,-0.0643 -0.0813,-0.0756 -0.0162,-0.005 -0.0218,0.026 -0.0325,0.0392 -0.0167,0.0207 -0.0331,0.0417 -0.0496,0.0626 0.10939,-0.0137 -0.12675,0.0884 -0.0885,0.0786 0.0451,-0.0115 0.0851,-0.0491 0.13153,-0.0468 0.12857,0.007 0.0151,0.1242 0.10194,0.009 0,0 -0.2112,-0.0615 -0.2112,-0.0615 v 0 c -0.0297,0.0594 -0.12174,0.18802 -0.003,0.25036 0.12046,0.0632 0.21654,-0.0822 0.27406,-0.15005 0.052,-0.0713 0.19961,-0.23645 0.0377,-0.31658 -0.0861,-0.0426 -0.29165,0.12476 -0.35538,0.16836 -0.0379,0.0266 -0.0749,0.0546 -0.11368,0.0798 -0.0268,0.0174 -0.0963,0.0192 -0.0829,0.0482 0.0284,0.0618 0.10241,0.0912 0.16209,0.12382 0.009,0.005 0.0102,-0.0181 0.0162,-0.0265 0.0341,-0.0484 0.0724,-0.0937 0.10433,-0.14364 0.055,-0.14436 0.0929,-0.14127 -0.16664,-0.16451 -0.0204,-0.002 -0.0323,0.0255 -0.0475,0.0392 -0.0439,0.0397 -0.13438,0.12863 -0.16465,0.1709 -0.0295,0.0411 -0.05,0.088 -0.075,0.13203 0.0209,0.0521 0.0229,0.11661 0.0626,0.15616 0.0245,0.0244 0.0695,0.0161 0.10333,0.009 0.0795,-0.0168 0.15479,-0.0497 0.23044,-0.0793 0.17896,-0.07 0.34772,-0.16539 0.52116,-0.2474 -0.0454,-0.0541 -0.0789,-0.12112 -0.13637,-0.16221 -0.0152,-0.0109 -0.0307,0.0211 -0.0461,0.0317 -0.0322,0.0221 -0.0644,0.0441 -0.0964,0.0664 -0.12094,0.0842 -0.243,0.16721 -0.35839,0.25898 0.0483,0.0544 0.0865,0.11982 0.14485,0.16334 0.0123,0.009 0.0244,-0.0187 0.0367,-0.0278 0.0292,-0.0216 0.0586,-0.0432 0.0881,-0.0645 0.11712,-0.0844 0.23457,-0.16908 0.35932,-0.24209 -0.0563,-0.0453 -0.10374,-0.10461 -0.16882,-0.13603 -0.0159,-0.008 -0.0256,0.0241 -0.0388,0.0358 -0.0251,0.0222 -0.0506,0.0439 -0.0759,0.0657 -0.0255,0.022 -0.0892,0.0346 -0.0767,0.0659 0.094,0.23603 0.12379,0.1872 0.18443,0.1217 0.0429,-0.04 0.13994,-0.1295 0.17379,-0.16583 0.0321,-0.0345 0.0855,-0.0613 0.091,-0.10809 0.0321,-0.27339 -0.0916,-0.19301 -0.23473,-0.13339 -0.0508,0.0212 -0.0975,0.0512 -0.14622,0.0768 -0.052,0.0289 -0.10452,0.0569 -0.15612,0.0865 -0.0421,0.0242 -0.12696,0.0263 -0.12496,0.0749 0.0121,0.29284 0.1073,0.18295 0.17108,0.13653 0.0347,-0.0253 0.0701,-0.0496 0.10499,-0.0747 0.0496,-0.0357 0.0989,-0.0719 0.14837,-0.10785 0.0488,-0.0365 0.11244,-0.059 0.1464,-0.10959 0.0414,-0.0617 0.10243,-0.14537 0.0692,-0.21175 -0.0268,-0.0535 -0.12023,-0.0173 -0.17935,-0.008 -0.0452,0.007 -0.0844,0.0356 -0.12536,0.0559 -0.14968,0.074 -0.27867,0.14894 -0.42489,0.23085 -0.0702,0.0425 -0.1426,0.0818 -0.21071,0.12761 -0.0637,0.0429 -0.29042,0.16723 -0.16114,0.31035 0.0791,0.0876 0.46046,-0.17183 0.50724,-0.19694 0.0434,-0.0265 0.37838,-0.22798 0.42422,-0.26711 0.0514,-0.0439 0.12252,-0.087 0.1323,-0.1539 0.0366,-0.25058 -0.261,-0.0887 -0.3019,-0.0725 -0.0724,0.0288 -0.14035,0.0679 -0.21052,0.10189 -0.31559,0.17097 -0.63402,0.33968 -0.94167,0.52472 -0.10376,0.0624 -0.38252,0.201 -0.4053,0.36876 -0.006,0.0479 0.0665,0.0701 0.0997,0.10511 0.082,-0.0237 0.16525,-0.0437 0.24609,-0.0712 0.0859,-0.0293 0.16939,-0.0654 0.25375,-0.099 0.3852,-0.15326 0.76913,-0.3097 1.15884,-0.45135 0,0 -0.15898,-0.1463 -0.15898,-0.1463 z" />
    <path
       style="fill:#808080;fill-opacity:1;stroke:#ababab;stroke-width:0.982677;stroke-opacity:0;paint-order:stroke fill markers"
       id="path2351"
       d="m 438.87833,605.93543 c -0.0248,0.0191 -0.0486,0.0395 -0.0743,0.0573 -0.12054,0.0836 -0.20969,0.13355 -0.3432,0.20615 -0.22368,0.12164 -0.45195,0.233 -0.68294,0.33987 -0.0436,0.0148 -0.12162,-7.6e-4 -0.1309,0.0444 -0.009,0.0423 0.0852,-0.0361 0.12696,-0.0252 0.044,0.0115 0.0604,0.0871 0.10585,0.0861 0.0612,-10e-4 0.10519,-0.0627 0.15901,-0.0919 0.1593,-0.0863 0.22993,-0.11664 0.39227,-0.19276 0.0414,-0.0122 0.0815,-0.0303 0.1242,-0.0366 0.0299,-0.004 -0.057,0.0416 -0.0852,0.0309 -0.0429,-0.0164 -0.0504,-0.0892 -0.0952,-0.0997 -0.0335,-0.008 -0.0566,0.039 -0.0856,0.0575 -0.0352,0.0225 -0.0701,0.0456 -0.10692,0.0653 -0.0118,0.006 0.0209,-0.0165 0.0313,-0.0248 0.12474,0.0597 0.10734,0.0306 0.19853,-0.0752 0.0278,-0.0322 0.0577,-0.0625 0.0854,-0.0948 0.0194,-0.0225 0.0474,-0.041 0.0558,-0.0695 0.01,-0.0329 -0.003,-0.0684 -0.005,-0.10264 -0.0838,-0.005 -0.16803,-0.0262 -0.25134,-0.0158 -0.0409,0.005 -0.0716,0.0409 -0.10787,0.0604 -0.0343,0.0184 -0.0691,0.0359 -0.10406,0.0532 -0.0276,0.0137 -0.0547,0.029 -0.0836,0.0398 -0.01,0.004 -0.0395,-0.003 -0.0308,0.003 0.0675,0.043 0.14138,0.0752 0.21207,0.11285 0.0443,-0.0249 0.12366,-0.071 0.16874,-0.0894 0.0104,-0.004 -0.0178,0.0136 -0.027,0.0199 -6.5e-4,4.3e-4 -0.002,-10e-6 -0.002,-10e-6 -0.0101,-8.9e-4 -0.0259,-0.0118 -0.0303,-0.003 -0.0111,0.023 -0.004,0.051 -0.005,0.0766 0.041,0.19744 0.008,0.0978 0.1076,0.29613 0,0 0.19299,-0.0881 0.19299,-0.0881 v 0 c -0.078,-0.14816 -0.0532,-0.0739 -0.082,-0.21996 0.004,-0.0904 0.0211,-0.16012 -0.047,-0.24015 -0.0987,-0.1161 -0.3603,0.0684 -0.46314,0.12531 0.0449,0.0564 0.0797,0.12259 0.13481,0.16912 0.0115,0.01 0.0263,-0.0147 0.0397,-0.0217 0.0274,-0.0144 0.0548,-0.0285 0.0824,-0.0425 0.0344,-0.0175 0.0684,-0.0357 0.10342,-0.052 0.0316,-0.0147 0.10256,-0.007 0.0963,-0.0409 -0.008,-0.0426 -0.0765,-0.0405 -0.11482,-0.0607 0.004,-0.0202 0.0329,-0.062 0.0123,-0.0607 -0.0262,0.002 -0.0306,0.0426 -0.0472,0.063 -0.0707,0.0865 -0.25313,0.2527 -0.22569,0.37948 0.01,0.0454 0.0673,0.064 0.101,0.096 0.17675,-0.0661 0.15753,-0.0444 0.29341,-0.14036 0.0366,-0.0258 0.0912,-0.04 0.10616,-0.0821 0.11622,-0.3279 -0.17121,-0.17199 -0.30136,-0.12137 -0.13091,0.0636 -0.27253,0.13106 -0.40082,0.19936 -0.0594,0.0316 -0.13426,0.0459 -0.17594,0.0987 -0.17792,0.22528 -0.0691,0.24159 0.10361,0.20596 0.0469,-0.01 0.0874,-0.039 0.13106,-0.0586 0.21938,-0.10849 0.20717,-0.1016 0.43946,-0.22039 0.2384,-0.1219 0.48162,-0.23991 0.69826,-0.39884 0,0 -0.19252,-0.11674 -0.19252,-0.11674 z" />
  </g>
  <g
     inkscape:groupmode="layer"
     id="layer16"
     inkscape:label="Image 3">
    <path
       style="fill:#000000;fill-opacity:1;stroke:#ababab;stroke-width:0.200546;stroke-opacity:0;paint-order:stroke fill markers"
       d="m 460.51529,308.85895 c -4.29367,-0.21692 -8.19774,2.07047 -11.58961,4.45113 -3.98706,2.75193 -5.05789,7.88521 -5.55807,12.40058 -0.27833,4.43579 -0.70984,9.43823 2.06716,13.23837 3.60807,4.78595 9.53446,7.56969 15.43891,8.03158 3.87222,0.30018 8.06481,-0.0703 11.21806,-2.5712 3.15607,-2.62937 5.44593,-6.24483 6.92163,-10.05222 0.66565,-1.67847 0.77414,-4.21626 -1.2748,-4.95754 -2.19622,-0.73983 -4.05673,1.35409 -6.25748,1.21711 -2.32784,0.12452 -5.60826,-0.0204 -6.478,-2.65864 -0.72128,-2.62562 -0.37102,-5.49719 0.35794,-8.08674 0.58285,-2.11159 2.47097,-3.37173 4.34511,-4.2335 1.71831,-0.75184 2.34636,-3.16695 0.89843,-4.4878 -2.69977,-2.40816 -6.70871,-2.26931 -10.08928,-2.29113 z"
       id="path2354" />
    <path
       style="fill:#000000;fill-opacity:1;stroke:#ababab;stroke-width:0.200546;stroke-opacity:0;paint-order:stroke fill markers"
       d="m 519.57779,322.83256 c -5.01861,-0.0329 -9.46907,3.22151 -12.03444,7.36208 -3.15242,4.9423 -5.45783,11.13317 -3.54154,16.96668 1.73998,5.26878 5.63789,9.47101 9.59583,13.20512 1.80357,1.6561 4.37387,2.09615 6.70607,1.51988 4.60968,-0.72666 9.11876,-2.79092 12.13959,-6.44016 2.32403,-2.72049 4.01831,-6.0252 4.91271,-9.48462 0.56059,-2.04835 -1.48317,-3.88974 -3.46859,-3.50845 -2.30659,0.35266 -4.74205,1.44273 -7.02767,0.34359 -2.56605,-1.06607 -4.77035,-3.72773 -4.16693,-6.64421 0.71331,-1.99848 2.09756,-3.87026 3.89549,-5.01355 2.15531,0.10528 3.63952,-2.50838 2.39716,-4.2885 -2.03453,-2.88873 -6.02286,-4.04656 -9.40768,-4.01786 z"
       id="path2356" />
  </g>
  <g
     inkscape:groupmode="layer"
     id="layer17"
     inkscape:label="Image 4">
    <path
       style="fill:#6f6460;fill-opacity:1;stroke:#ababab;stroke-width:0.0709038;stroke-opacity:0;paint-order:stroke fill markers"
       d="m 482.59621,347.03361 c -2.53398,-0.0829 -5.20578,1.01378 -6.65886,3.14911 -1.46045,2.12515 -1.25236,5.02345 -0.0102,7.19768 1.78216,3.18981 5.07211,5.23362 8.46816,6.3475 2.60761,0.85123 5.33632,1.5045 8.09864,1.35419 2.13021,0.0294 4.48444,-0.64731 5.72923,-2.49723 1.25493,-1.85793 0.99452,-4.33381 0.0173,-6.25184 -1.57828,-3.12952 -4.3151,-5.55326 -7.3393,-7.25172 -2.3787,-1.30183 -5.07225,-2.16395 -7.80746,-2.04854 -0.16582,2.8e-4 -0.33165,5.7e-4 -0.49747,8.5e-4 z"
       id="path2359" />
  </g>
  <g
     inkscape:groupmode="layer"
     inkscape:label="Image"
     id="g841"
     style="display:inline">
    <path
       style="fill:#000000"
       d="m 445.61233,616.44832 c -0.3166,-0.825 -0.3166,-2.175 0,-3 0.7687,-2.0032 -0.2636,-1.88103 -3.7992,0.44965 -3.6539,2.40866 -4.8747,1.74872 -4.014,-2.16996 0.3798,-1.7292 0.2771,-2.78988 -0.2392,-2.47078 -0.4976,0.30752 -1.4922,0.19604 -2.2102,-0.24772 -1.8301,-1.13109 -0.5539,-3.24683 9.2975,-15.41359 7.3174,-9.03722 23.8914,-31.00589 25.9991,-34.46138 0.8774,-1.43857 0.032,-1.35105 -14.8726,1.53974 -5.8914,1.14265 -10.8282,1.37398 -18.8826,0.88479 -17.4066,-1.0572 -40.6268,-4.24967 -45.5803,-6.26668 -3.3081,-1.34703 -3.529,-1.29427 -5.7668,1.37763 -1.2799,1.52806 -4.5244,6.42836 -7.2101,10.88955 -2.6857,4.46119 -6.8406,10.81902 -9.2331,14.12851 -2.3926,3.30949 -5.1332,7.45076 -6.0904,9.20283 -1.4848,2.71809 -2.2186,3.13949 -5,2.87149 -2.8368,-0.27333 -3.2991,-0.71878 -3.5633,-3.43353 l -0.3036,-3.11946 -2.8695,2.86946 c -5.2474,5.24743 -6.967,3.00708 -5.2747,-6.87231 0.7522,-4.39157 3.432,-11.15205 8.5529,-21.57681 4.1016,-8.34979 7.75,-16.1402 8.1075,-17.31202 0.8254,-2.70542 -3.4019,-22.19178 -7.2837,-33.5755 -4.8006,-14.0781 -9.3307,-19.42746 -21.6776,-25.59825 -17.7079,-8.85012 -33.0812,-7.92025 -41.0145,2.48079 -2.5131,3.29485 -2.9065,4.68533 -2.9189,10.31585 l -0.014,6.5077 -3.7296,0.30915 c -3.2661,0.27073 -4.3627,-0.28302 -8.8242,-4.45622 -2.802,-2.62095 -6.9595,-7.60204 -9.239,-11.0691 -5.6603,-8.6094 -10.6078,-10.62707 -26.2072,-10.6878 -11.4054,-0.0444 -20.9228,2.02823 -29.5694,6.43939 -9.0566,4.62034 -21.8516,22.65627 -24.2726,34.21512 -1.5341,7.32393 -2.6333,9.24823 -5.748,10.06275 -2.1476,0.56162 -2.2024,0.47475 -5.399,-8.56937 -3.5392,-10.01329 -17.3315,-20.45165 -35.04585,-26.52366 -7.19369,-2.46571 -34.4806,-8.22026 -38.97907,-8.22026 -7.700748,0 -19.316898,5.86182 -26.080478,13.16092 -5.08862,5.49151 -15.94732,22.13086 -20.56922,31.51927 -3.3851,6.87611 -4.97505,8.27979 -7.24481,6.39606 -4.05455,-3.36498 -2.62982,-10.83787 5.91379,-31.01852 8.44146,-19.93937 17.71311,-32.04039 33.87898,-44.21759 12.546028,-9.45051 15.030628,-10.79562 37.615358,-20.36417 7.425,-3.14578 15.75,-6.85375 18.5,-8.23995 7.4541,-3.75738 32.0778,-19.08418 48.2948,-30.06063 28.7492,-19.45887 49.9918,-32.17539 53.7481,-32.17539 0.8014,0 1.4571,-0.61842 1.4571,-1.37427 0,-2.68784 -3.0998,-10.10311 -5.1243,-12.25805 -3.2084,-3.41519 -2.1085,-5.7227 3.2198,-6.75496 4.0673,-0.78797 5.097,-0.5842 9.2007,1.82069 6.0451,3.54268 9.8666,8.00804 12.6965,14.83564 1.2651,3.05237 3.2468,6.02531 4.4038,6.60654 15.8319,7.95365 45.6577,14.06739 76.6035,15.70235 7.8715,0.41588 15.892,1.53219 21.6606,3.01477 9.9639,2.56078 28.3394,4.33871 28.3394,2.74198 0,-0.52828 -1.35,-2.25389 -3,-3.83469 -1.65,-1.5808 -3,-3.40498 -3,-4.05374 0,-1.29579 -3.0283,-9.14768 -6.5357,-16.94626 -3.8996,-8.67035 -5.8082,-19.7214 -5.1667,-29.91496 0.9582,-15.22558 6.3063,-27.08746 16.6694,-36.97215 5.3625,-5.11499 6.4791,-6.9046 10.1234,-16.22548 4.2939,-10.98253 8.7244,-17.86484 13.0709,-20.30447 2.2877,-1.28406 3.0903,-1.25856 6.9653,0.22129 2.4087,0.91992 8.6126,4.85131 13.7862,8.73641 l 9.4067,7.06383 6.7818,-1.05223 c 14.5718,-2.26089 31.7551,-0.91578 39.1319,3.06324 12.8279,6.91939 20.7636,11.87572 26.9549,16.83506 6.1792,4.94969 7.6127,5.69124 9.2785,4.79976 2.4132,-1.29153 23.9157,-2.27636 28.9756,-1.32712 10.0713,1.88938 9.8677,10.92385 -0.652,28.936 l -4.0688,6.9668 -0.1239,14.58701 c -0.1084,12.77428 -0.4136,15.3093 -2.4558,20.39929 -3.6428,9.07927 -13.7494,23.12724 -20.3585,28.29778 l -2.6971,2.11006 7.707,0.56026 c 4.2388,0.30814 9.7319,1.29178 12.2069,2.18586 5.0482,1.82365 22.3822,5.6837 34.5,7.68269 4.8855,0.80594 16.5648,1.32582 30,1.33539 24.0433,0.0171 28.9597,-0.73309 50.5,-7.70615 7.8856,-2.55275 10.0594,-3.7227 12.792,-6.88476 4.336,-5.01759 14.7491,-10.10788 21.8886,-10.69994 5.3373,-0.44262 5.4929,-0.38618 4.4267,1.606 -0.6077,1.13561 -3.1305,3.7245 -5.6061,5.7531 -2.4757,2.02859 -4.5012,4.04686 -4.5012,4.48503 0,1.06478 9.0503,2.95599 14.2992,2.98807 5.6324,0.0344 19.0549,3.14472 25.0671,5.8086 22.3733,9.91316 53.9696,49.18875 86.0832,107.0051 13.254,23.86206 18.7649,36.04068 19.3357,42.73032 0.4565,5.35025 -1.1918,8.43031 -4.5115,8.43031 -2.4124,0 -8.9561,-7.42796 -12.1935,-13.84103 -2.7155,-5.37952 -3.3048,-5.89807 -9.7353,-8.56764 -4.1101,-1.70624 -9.4606,-3.03921 -13.3917,-3.33627 -5.7281,-0.43286 -7.2286,-0.15008 -12,2.26153 -2.9992,1.51593 -8.2623,4.75691 -11.6956,7.20217 -7.1121,5.0654 -20.2576,18.85681 -20.2576,21.25306 0,1.93042 -5.2748,5.24369 -7.1826,4.5116 -0.7497,-0.28768 -2.9278,-3.74566 -4.8402,-7.6844 -8.4855,-17.47616 -18.1271,-29.35607 -34.4096,-42.39802 -13.3282,-10.6756 -32.016,-16.66662 -47.1242,-15.10732 -5.32,0.54908 -13.405,4.43016 -20.9434,10.05356 -5.6159,4.18929 -18.5,16.87676 -18.5,18.21767 0,0.61324 -1.752,1.6932 -3.8934,2.39992 -7.0644,2.33146 -7.9027,-0.56519 -2.581,-8.91849 5.6557,-8.87764 4.5425,-16.46619 -3.0446,-20.75371 -9.1912,-5.19404 -15.1314,-6.5141 -31.654,-7.03425 -18.7205,-0.58935 -25.5562,0.6174 -42.5977,7.52005 -14.1819,5.74438 -18.1187,9.04184 -23.3897,19.5916 -7.3358,14.6823 -27.7727,44.24735 -37.4856,54.22848 -9.0642,9.31451 -29.8347,26.37216 -32.1354,26.391 -0.7047,0.006 -1.5404,-0.66451 -1.857,-1.48951 z m 13.6384,-10.23711 c 16.3823,-12.55156 26.9693,-24.48272 41.1275,-46.3493 12.241,-18.90535 32.0288,-58.79886 34.3063,-69.16359 0.3324,-1.5125 1.2229,-2.75 1.979,-2.75 1.0911,0 1.1857,0.84061 0.4588,4.07615 -0.758,3.37341 -8.4725,21.44392 -12.0589,28.24668 -0.5286,1.00255 1.6599,-0.23864 4.8631,-2.75822 4.2781,-3.36492 5.91,-4.18066 6.1475,-3.07283 0.1779,0.82952 0.4028,1.50809 0.5,1.50792 0.097,-1.6e-4 4.5983,-1.58079 10.0025,-3.51251 21.4719,-7.67509 48.1691,-7.21128 66.8249,1.16095 6.65,2.98434 9.3659,5.5979 10.523,10.12652 0.8148,3.18899 1.0491,2.86198 8.9581,-12.5 6.2757,-12.18937 8.8553,-18.50204 11.3502,-27.77466 1.7758,-6.6 5.2534,-18.975 7.7279,-27.5 5.8278,-20.07676 8.5433,-31.08016 7.8431,-31.78036 -0.3083,-0.3083 -12.1464,3.30839 -26.3068,8.03709 -22.2452,7.42852 -33.8794,10.85231 -62.2063,18.30646 -11.6833,3.07444 -18.4932,1.40625 -28.7306,-7.03798 -6.4985,-5.36027 -8.6606,-5.91874 -6.3742,-1.64639 1.3544,2.53071 1.3582,4.12118 0.01,4.12118 -0.8239,0 -5.9452,-9.83077 -5.9452,-11.41188 0,-0.19517 0.8709,-0.5826 1.9353,-0.86095 2.2192,-0.58032 4.5378,0.84244 11.5647,7.09629 6.117,5.44401 12.2003,8.17654 18.2033,8.17654 8.177,0 49.6572,-11.51044 81.7967,-22.69797 9.2945,-3.23535 18.4505,-4.67831 19.984,-3.14941 0.36,0.35894 0.2152,1.48394 -0.3218,2.5 -0.9542,1.80552 -3.7623,11.60476 -10.8459,37.84738 -9.0377,33.48184 -10.0737,36.34544 -19.5374,54 -5.012,9.35 -10.0961,18.35 -11.298,20 -4.9116,6.74316 -3.0308,6.53948 3.5644,-0.38601 16.8943,-17.7403 28.1681,-42.75117 34.3244,-76.1482 2.874,-15.59081 12.1306,-42.18019 14.8841,-42.75419 2.0203,-0.42115 14.6102,13.59646 27.0243,30.08888 13.5837,18.04633 30.1757,52.71082 39.6786,82.89753 1.2667,4.02385 6.0287,31.97337 6.0377,35.43716 0.01,3.53457 3.2513,12.44961 4.3895,12.07021 1.8104,-0.60347 2.4131,-4.75751 2.5164,-17.34491 0.1353,-16.46861 -1.598,-24.55518 -10.5233,-49.09751 -14.5373,-39.97355 -35.3607,-76.96207 -51.4859,-91.45401 -4.6767,-4.20294 -6.9447,-6.91321 -6.4521,-7.71021 0.5901,-0.95489 1.1277,-0.91714 2.4103,0.16927 0.9079,0.76907 5.4757,1.98292 10.1507,2.69744 10.3889,1.58784 18.9943,3.43327 25.1185,5.38663 20.3463,6.48962 40.6585,26.83394 61.7511,61.84866 7.556,12.54344 33.8026,59.31792 40.3864,71.97349 4.1936,8.0609 9.8181,14.51604 11.6576,13.37917 2.7176,-1.6796 -0.2963,-13.39352 -6.7455,-26.2169 -6.8418,-13.60403 -24.0873,-43.34902 -32.7374,-56.46539 -24.9166,-37.78178 -46.0646,-61.14333 -63.1399,-69.74882 -5.2828,-2.66238 -19.8558,-6.10812 -26.0795,-6.16642 -2.5912,-0.0243 -6.9613,-0.64602 -9.7113,-1.38166 -3.4493,-0.92271 -5.3952,-1.01989 -6.2742,-0.31337 -0.7008,0.56329 -1.6004,0.69785 -1.9993,0.29902 -0.3988,-0.39883 0.8496,-2.10034 2.7742,-3.78114 8.5846,-7.49699 9.9993,-8.88665 9.9993,-9.82202 0,-3.07553 -14.8227,3.76618 -20.9069,9.64997 -5.3541,5.17778 -9.3042,6.94692 -25.5931,11.46235 -11.767,3.26192 -20.951,6.40963 -29,9.93944 -2.75,1.20599 -15.575,5.83321 -28.5,10.28273 -19.7701,6.80597 -24.5434,8.09946 -30.0739,8.14942 -7.1179,0.0643 -6.443,0.38103 -22.581,-10.59711 -3.7648,-2.56108 -10.5576,-6.08129 -15.0951,-7.82269 -4.5375,-1.7414 -8.25,-3.58347 -8.25,-4.0935 0,-1.44964 2.4271,-1.10183 7.5074,1.07588 2.5703,1.10175 5.0628,1.76245 5.5388,1.46823 0.4761,-0.29422 6.8083,3.52934 14.0715,8.49681 17.639,12.06368 14.2889,12.17058 55.8823,-1.78329 9.625,-3.22902 19.3,-6.79887 21.5,-7.93299 l 4,-2.06205 -14.8476,-0.12784 c -25.0802,-0.21595 -47.9698,-3.32494 -64.4707,-8.75676 -6.2,-2.04095 -9.066,-2.38319 -18.7561,-2.2398 -7.8089,0.11556 -11.9083,-0.2212 -12.9207,-1.06143 -2.1053,-1.74727 -0.907,-3.02696 2.2839,-2.43887 4.8516,0.89416 12.5,-4.5779 19.3725,-13.86004 11.5203,-15.55977 15.2692,-27.70957 13.0953,-42.44119 l -1.1456,-7.76397 4.8211,-8.5 c 4.3739,-7.71154 9.068,-18.6017 9.068,-21.03751 0,-0.52937 -0.9,-1.86249 -2,-2.96249 -1.784,-1.78404 -3.3228,-1.99853 -14.25,-1.98635 -14.5864,0.0163 -17.0431,0.48762 -16.2107,3.11031 1.0608,3.34208 -1.5286,2.05021 -10.8929,-5.43461 -5.0305,-4.02086 -12.2964,-9.03929 -16.1464,-11.15206 -3.85,-2.11276 -8.2107,-4.68452 -9.6904,-5.71502 -1.4798,-1.03049 -6.2048,-2.78436 -10.5,-3.89749 -8.1478,-2.11151 -19.3611,-2.0664 -32.1708,0.12942 l -5.3612,0.91901 -9.3314,-7.01366 c -10.2225,-7.68343 -15.6041,-10.40811 -18.8382,-9.53786 -3.1334,0.84313 -8.2407,9.12166 -12.4814,20.23134 -3.3988,8.90419 -4.3911,10.45339 -10.3649,16.18087 -7.0114,6.72229 -12.7084,16.48397 -14.6872,25.1661 -2.5395,11.14221 -0.2388,32.00929 4.3352,39.32025 0.75,1.19886 2.1174,4.51679 3.0386,7.37317 0.9212,2.85638 2.5471,6.30236 3.6133,7.65773 1.0661,1.35537 1.9384,2.76225 1.9384,3.1264 0,0.36416 1.3328,2.59923 2.9617,4.96683 l 2.9618,4.30474 -6.7118,0.64221 c -6.9066,0.66087 -17.0667,-0.71201 -28.7117,-3.87968 -3.3,-0.89767 -14.1,-2.25713 -24,-3.02104 -21.1316,-1.63056 -28.9341,-2.6685 -44.5,-5.91969 -6.325,-1.32108 -11.6326,-2.26983 -11.7948,-2.10832 -0.474,0.47214 13.9615,13.39037 17.7948,15.9245 8.2973,5.48518 19.9063,12.55653 25,15.22816 5.2279,2.74202 6.0689,2.8748 17,2.68378 11.7558,-0.20542 19.742,-1.77603 38.5,-7.57153 4.4,-1.35943 10.475,-2.77033 13.5,-3.13534 5.1995,-0.62739 5.3634,-0.58167 3,0.83665 -1.375,0.82517 -3.3501,1.51626 -4.3892,1.53574 -1.039,0.0195 -6.214,1.35843 -11.5,2.97542 -17.9616,5.49452 -26.1928,7.16361 -37.9975,7.70496 l -11.6133,0.53258 -8,-3.96728 c -13.3905,-6.64048 -27.8513,-16.32531 -38.1823,-25.5718 -5.3997,-4.83292 -12.9357,-10.44117 -16.7467,-12.46278 -7.0689,-3.74987 -8.0561,-4.76221 -8.9745,-9.20248 -0.6874,-3.32363 -6.9043,-10.51115 -11.7228,-13.55291 -6.5197,-4.11568 -10.6137,-2.76125 -6.9773,2.30831 2.3487,3.27432 5.5071,13.77749 4.7424,15.77045 -0.3753,0.97792 -1.5546,1.22661 -3.9632,0.83576 -2.8652,-0.46497 -5.1341,0.38529 -13.8022,5.17225 -5.7054,3.15078 -17.7984,10.77752 -26.8734,16.94831 -9.075,6.17079 -22.8,15.17544 -30.5,20.01033 -7.7,4.83489 -16.025,10.12297 -18.5,11.75129 -4.7293,3.11148 -34.76019,17.94693 -39.01934,19.27583 -7.00848,2.18673 -19.1585,9.32081 -28.740418,16.87541 -12.26253,9.66803 -13.88557,11.31812 -21.27726,21.63179 -10.94701,15.27444 -22.99695,45.00687 -19.19311,47.35777 0.55489,0.34294 4.42733,-5.53636 8.64035,-13.11815 12.76588,-22.97357 30.68321,-45.02985 43.574048,-53.63979 6.27058,-4.18819 22.47485,-13.24045 45.38442,-25.35329 5.97781,-3.1606 24.45031,-14.74654 41.05011,-25.74654 29.6473,-19.64598 41.0144,-26.5 43.9493,-26.5 0.8132,0 2.882,-1.18099 4.5974,-2.62443 5.2455,-4.41376 4.5166,-1.88265 -1.2705,4.41231 -7.2763,7.91485 -21.4441,27.10302 -30.0601,40.71212 -7.3823,11.66046 -18.3869,33.56392 -21.71,43.21158 -4.3666,12.67701 -6.4905,37.41123 -4.0431,47.0848 2.2343,8.83153 3.5501,5.95496 4.2892,-9.37712 1.2338,-25.59384 3.4635,-32.63101 19.1437,-60.41926 9.8396,-17.43761 34.2333,-54.1627 41.6802,-62.75 2.1791,-2.51283 2.7329,-1.14541 1.215,3 -2.479,6.76999 -2.8981,32.78887 -0.6766,42.00324 1.6097,6.67692 7.6788,22.90927 9.4395,25.24676 0.4143,0.55 4.0351,7.44583 8.0463,15.32407 7.0092,13.76654 11.9781,20.41762 19.7423,26.42593 7.4612,5.77381 5.2085,-2.59397 -6.2296,-23.14032 -12.2324,-21.97316 -13.8638,-25.69618 -18.233,-41.60968 -3.1555,-11.49292 -3.6271,-14.76849 -4.068,-28.25484 -0.581,-17.76845 0.6729,-23.31874 5.661,-25.05759 4.9401,-1.72213 8.2123,-0.49061 18.7555,7.05882 9.5637,6.84801 13.7375,9.56672 22.2649,14.50275 5.1767,2.9965 12.8267,7.12593 17,9.1765 4.1733,2.05057 10.2613,5.38117 13.529,7.40134 9.2181,5.69895 14.3583,5.19903 63.3088,-6.15726 6.7375,-1.56307 12.25,-2.48153 12.25,-2.04102 0,1.36781 -3.2488,2.63321 -11.0198,4.29214 -4.1141,0.87826 -13.7802,2.95536 -21.4802,4.61576 -22.8578,4.92898 -24.669,5.19348 -32.5,4.74612 -6.7048,-0.38301 -8.1947,-0.86759 -14.0525,-4.57048 -3.6038,-2.27811 -9.2288,-5.35695 -12.5,-6.84185 -8.5763,-3.89317 -23.2307,-12.4658 -33.5894,-19.64943 -17.2505,-11.96299 -20.1564,-12.96699 -23.3636,-8.07218 -1.5331,2.33984 -1.6784,4.70171 -1.2451,20.25 0.4624,16.59699 0.6999,18.3144 4.1631,30.10122 2.02,6.875 5.434,16.1 7.5867,20.5 3.8614,7.89225 16.1628,29.99529 17.3603,31.19284 0.339,0.33895 2.4363,-1.45141 4.6608,-3.97857 8.729,-9.91664 23.5758,-11.47198 40.3226,-4.22418 9.8443,4.26045 18.471,11.26463 21.7214,17.63595 3.4463,6.75533 9.6246,25.22832 10.3325,30.89398 0.9345,7.4795 1.9652,8.93458 3.5753,5.04747 0.6988,-1.68712 1.891,-3.06749 2.6492,-3.06749 0.7583,0 1.3787,0.18086 1.3787,0.4019 0,0.55177 -7.0063,15.44391 -14.6307,31.0981 -5.7412,11.78762 -10.2946,25.5 -8.4677,25.5 0.3983,0 2.0371,-1.37033 3.6417,-3.04518 2.6932,-2.81107 3.0151,-2.9117 4.1871,-1.30887 0.6983,0.95497 1.2696,3.0003 1.2696,4.54518 0,3.71362 1.6844,3.56369 3.7965,-0.33793 0.9369,-1.73074 3.7544,-5.89324 6.261,-9.25 2.5067,-3.35676 6.0753,-8.8032 7.9304,-12.1032 5.0504,-8.98453 11.2544,-16.66432 13.0121,-16.10761 0.825,0.26129 3.3527,1.15708 5.6171,1.99064 2.2644,0.83356 8.7894,2.02712 14.5,2.65235 5.7106,0.62523 13.7579,1.52378 17.8829,1.99678 10.3584,1.18776 23.8698,1.16582 30.2008,-0.049 13.5707,-2.60413 16.4848,-3.31173 19.0492,-4.62556 1.5125,-0.77491 2.75,-0.9897 2.75,-0.47731 0,1.20618 -18.6817,26.31035 -30.6719,41.21638 -5.1304,6.37814 -9.3281,11.89064 -9.3281,12.25 0,0.35935 1.1731,0.65337 2.607,0.65337 1.9964,0 2.4608,0.38088 1.983,1.62617 -0.5685,1.48144 -0.3975,1.47774 1.9212,-0.0416 3.4442,-2.2567 4.6977,-1.21526 3.8671,3.21265 l -0.6831,3.64129 3.9024,-3.24704 c 2.1463,-1.78587 5.4774,-4.45375 7.4024,-5.92862 z m -89,-98.08139 c 0,-1.00017 0.6508,-4.03767 1.4462,-6.75 3.3032,-11.2645 5.5538,-20.54948 5.5538,-22.91312 0,-1.57189 0.5638,-2.51838 1.5,-2.51838 0.825,0 1.4959,0.7875 1.4909,1.75 -0.01,1.77918 -3.8486,17.45568 -6.6125,27 -1.486,5.13157 -3.3784,7.05368 -3.3784,3.4315 z m 165.7553,-44.9315 c 0.2761,-7.5625 0.6691,-13.9375 0.8734,-14.16667 0.2042,-0.22916 0.7088,-0.0792 1.1213,0.33334 0.9767,0.97673 0.951,21.26223 -0.031,24.83333 -1.6942,6.15778 -2.4375,1.99273 -1.9632,-11 z m -156.9634,8.20855 c -0.2978,-0.2978 0.3022,-3.75487 1.3333,-7.68237 1.0312,-3.92751 1.8748,-8.52939 1.8748,-10.22642 0,-1.69702 1.125,-4.74108 2.5,-6.76457 1.375,-2.0235 2.5,-3.92198 2.5,-4.21886 0,-1.74331 11.0481,-23.56633 11.9307,-23.56633 1.8107,0 1.3074,1.36302 -6.4067,17.35223 -4.1118,8.52259 -7.7546,17.44236 -8.095,19.8217 -0.8815,6.16091 -3.565,15.82607 -4.3941,15.82607 -0.3859,0 -0.9452,-0.24365 -1.243,-0.54145 z m 88.998,-96.50616 c -2.0405,-1.07757 -4.9655,-3.53267 -6.5,-5.45578 -1.6617,-2.08254 -3.6759,-3.49656 -4.9809,-3.49658 -3.1532,-4e-5 -3.7465,-1.68878 -1.6843,-4.79401 0.9884,-1.48831 1.8925,-3.30366 2.0092,-4.03411 0.4433,-2.77639 1.3875,-4.2767 2.3263,-3.69652 1.1004,0.68008 0.2658,6.37808 -1.2096,8.25804 -0.6921,0.88187 -0.2488,1.50685 1.5551,2.19271 1.3878,0.52761 2.8165,1.8836 3.1751,3.01331 0.3585,1.1297 2.7287,3.27108 5.2669,4.7586 3.5797,2.09784 5.8083,2.67666 9.9337,2.58007 5.4378,-0.12731 7.1059,1.00964 3.0686,2.09159 -4.15,1.11216 -9.2201,0.55769 -12.9601,-1.41732 z m 18.2036,-9.8372 c -8.3884,-2.71742 -12.9711,-8.08391 -11.5928,-13.57557 1.939,-7.72555 17.2741,-5.7897 22.9673,2.89933 2.0264,3.09261 2.1131,7.91691 0.1712,9.5285 -1.8747,1.55587 -8.3108,2.19568 -11.5457,1.14774 z m 9.9056,-3.49355 c 2.8052,-3.38017 -3.9392,-10.94578 -10.7895,-12.10313 -10.535,-1.77987 -11.0468,8.27377 -0.6096,11.97516 5.1436,1.8241 9.9466,1.87801 11.3991,0.12797 z m 18.6009,-0.0992 c -8.5466,-3.97736 -13.3741,-13.67493 -11.3351,-22.77026 1.231,-5.49113 6.1305,-13.11012 9.3839,-14.59248 7.1346,-3.25074 17.3344,-0.0645 22.4646,7.01749 6.3704,8.79409 2.7776,22.57986 -7.4963,28.76352 -4.3261,2.60378 -9.4762,3.22957 -13.0171,1.58173 z m 13.0761,-4.68551 c 1.8995,-1.28532 4.3469,-4.16652 5.4387,-6.40266 2.7967,-5.72767 2.6325,-6.55588 -1.0456,-5.2737 -5.5817,1.9458 -11.9692,-2.45 -11.9692,-8.23706 0,-2.63128 3.9756,-7.92352 5.9523,-7.92352 1.9469,0 1.0643,-1.6714 -1.4993,-2.83948 -5.9866,-2.72764 -12.0779,-0.38369 -15.8396,6.09505 -5.21,8.9732 -4.441,15.20818 2.8561,23.15626 4.2376,4.61554 4.6691,4.83293 8.5578,4.31134 2.2523,-0.30211 5.6493,-1.60091 7.5488,-2.88623 z m 5.5952,-15.49193 c 2.2765,-2.06026 2.302,-3.73522 0.1131,-7.44072 -3.0207,-5.11368 -10.2844,-2.85783 -10.2844,3.19399 0,4.9675 6.4151,7.64597 10.1713,4.24673 z m -74.6713,6.22282 c -0.55,-0.21609 -2.2488,-0.66867 -3.7752,-1.00574 -3.922,-0.86609 -10.3985,-7.04351 -11.7831,-11.23889 -1.4171,-4.29379 -0.5367,-12.17854 2.0013,-17.92252 1.4293,-3.2349 2.9329,-4.65826 7.1305,-6.75 2.9255,-1.45787 6.6933,-2.64817 8.3728,-2.6451 7.954,0.0145 15.6167,4.50763 18.1897,10.66561 2.0338,4.86761 1.7179,13.59773 -0.6764,18.69128 -3.2618,6.93928 -6.7878,9.68353 -13.0753,10.17628 -2.9613,0.23209 -5.8343,0.24518 -6.3843,0.0291 z m 12.3038,-5.05621 c 2.8308,-2.38194 6.1962,-8.05665 6.1962,-10.44793 0,-0.81133 -0.5504,-0.83947 -1.9343,-0.0989 -3.2242,1.72555 -8.8674,1.23352 -11.0657,-0.96482 -3.8001,-3.80008 -1.7735,-14.98496 2.989,-16.49652 4.5973,-1.45912 0.8364,-3.46497 -6.5432,-3.48983 -2.7678,-0.009 -5.4973,0.90152 -8.6021,2.87055 -3.7773,2.39549 -4.7424,3.65661 -5.6958,7.44282 -1.4721,5.84616 -1.4117,12.57605 0.1375,15.33899 4.2833,7.63865 18.3904,11.00202 24.5184,5.84561 z m 3.5613,-13.5842 c 3.0377,-2.38944 3.3575,-5.42653 0.9429,-8.95491 -2.9008,-4.23886 -4.6979,-4.87031 -7.6718,-2.69573 -1.9238,1.40667 -3.8038,8.12287 -2.9191,10.42824 0.5435,1.41649 3.62,3.1021 5.898,3.23159 0.6134,0.0349 2.3009,-0.86927 3.75,-2.00919 z m 72.2387,-0.17742 c -4.4146,-7.56383 -6.0337,-14.74822 -3.655,-16.21833 0.5218,-0.32251 4.48,-0.85868 8.796,-1.19151 6.5946,-0.50854 8.1194,-0.33312 9.5513,1.09878 2.6273,2.62735 2.1048,4.6904 -3.2759,12.93275 -5.9302,9.08418 -7.7687,9.6282 -11.4164,3.37831 z m 9.1993,-4.70114 c 2.3083,-3.27313 4.1969,-6.87313 4.1969,-8 0,-1.85233 -0.6156,-2.04886 -6.4182,-2.04886 -8.4917,0 -9.7262,0.53175 -8.9475,3.85426 0.7442,3.17483 5.4179,12.14574 6.3278,12.14574 0.3543,0 2.5328,-2.67801 4.841,-5.95114 z m -77.7554,-15.15498 c -1.7083,-1.70837 -3.799,-4.44605 -4.6459,-6.08374 -1.9458,-3.7628 -2.3511,-10.93653 -0.6518,-11.53591 0.8349,-0.29449 1.25,0.64415 1.25,2.82671 0,4.12415 3.4311,11.30641 6.5873,13.78909 2.4189,1.90272 3.2189,4.10997 1.4896,4.10997 -0.5077,0 -2.3208,-1.39775 -4.0292,-3.10612 z m -63.6385,-11.27004 c -0.8072,-2.10328 2.4379,-13.53274 5.3861,-18.97037 2.4511,-4.52097 2.8431,-4.81156 5.8354,-4.32597 1.7643,0.2863 4.3227,1.25108 5.6854,2.14396 3.4052,2.2312 8.0433,9.14956 7.3482,10.96094 -0.3137,0.81746 -2.8695,2.74208 -5.6796,4.27694 -2.8101,1.53487 -6.9766,3.80316 -9.2589,5.04066 -4.6999,2.54839 -8.536,2.90819 -9.3166,0.87384 z m 13.7287,-6.26644 c 4.3242,-2.55343 7.8621,-5.00948 7.8621,-5.45789 0,-1.83501 -7.8268,-8.89951 -9.8599,-8.89951 -3.353,0 -5.9362,4.82875 -8.6931,16.25 -0.9708,4.02158 1.3802,3.60539 10.6909,-1.8926 z m 348.8621,259.89749 c 13.3459,-9.78968 21.9076,-11.51116 33.5,-6.73579 3.3,1.3594 6.1125,2.47372 6.25,2.47627 1.0694,0.0198 -1.2232,-4.57086 -11.3432,-22.7126 -22.8674,-40.99344 -33.467,-57.67729 -45.2749,-71.26242 -19.9206,-22.91913 -34.256,-31.00978 -61.1319,-34.50196 l -5.5,-0.71466 4.6278,4.84814 c 5.9131,6.19473 19.4376,26.5247 26.3874,39.66574 7.5728,14.31881 13.2054,27.36866 20.7966,48.18239 9.5381,26.15198 10.6951,30.86945 11.399,46.47775 l 0.6079,13.47775 7.0906,-7.58309 c 3.8999,-4.17069 9.5657,-9.39858 12.5907,-11.61752 z m -33,11.84191 c 0,-0.49675 -1.0793,-7.35925 -2.3984,-15.25 -2.546,-15.22998 -4.0888,-20.52378 -11.321,-38.8468 -13.9197,-35.26595 -26.736,-56.08304 -51.2221,-83.19841 l -4.4414,-4.91837 -1.3886,2.65025 c -2.9878,5.7023 -9.2072,26.73081 -11.6882,39.51846 -4.2856,22.0895 -7.9833,33.86504 -15.0836,48.03454 l -6.5051,12.98166 5.2742,-3.11144 c 13.0094,-7.6747 18.5051,-8.6917 34.2742,-6.34267 14.119,2.10322 23.0375,6.44794 36.3478,17.70708 9.3902,7.94309 19.1702,18.91689 23.6522,26.53916 2.7982,4.75876 4.5,6.36093 4.5,4.23654 z m -565.8413,-72.09679 c 1.499,-11.51676 4.5975,-20.5397 12.4486,-36.25053 9.8533,-19.71734 21.7411,-38.24992 36.2239,-56.47128 2.3821,-2.99706 4.0913,-5.68898 3.7983,-5.98204 -0.9726,-0.97262 -13.8838,6.73576 -34.4243,20.55244 -11.1621,7.50828 -23.5371,15.72056 -27.5,18.24952 -7.5081,4.79142 -42.93466,25.00462 -50.63327,28.88964 -10.08154,5.08755 -20.833568,13.16128 -27.889798,20.9425 -4.02482,4.43836 -7.09929,8.06975 -6.83216,8.06975 0.26714,0 2.66018,-1.08578 5.31787,-2.41284 7.91907,-3.95423 12.576728,-4.14256 27.023628,-1.09271 31.76272,6.70536 42.01433,10.90621 55.80853,22.86889 l 4,3.4689 0.7762,-6.16612 c 0.4269,-3.39137 1.2741,-9.99112 1.8825,-14.66612 z m 12.6192,14.75 c 4.3367,-7.66876 12.0027,-16.39201 17.7221,-20.16599 13.3677,-8.82085 34.688,-11.74657 51.153,-7.01958 1.9195,0.55107 1.6166,-0.44932 -2.7925,-9.22316 -13.6626,-27.18719 -16.4268,-37.53284 -15.6011,-58.38973 l 0.5606,-14.16177 -5.0233,6.85511 c -12.8402,17.52244 -33.4292,50.75097 -42.1053,67.95343 -3.5506,7.03987 -6.5826,19.56107 -7.348,30.34535 -0.3536,4.98099 -0.3935,9.05634 -0.088,9.05634 0.3048,0 1.8902,-2.3625 3.5231,-5.25 z"
       id="path2254" />
  </g>
  <g
     inkscape:groupmode="layer"
     id="layer18"
     inkscape:label="Image 5">
    <path
       style="fill:#808080;fill-opacity:1;stroke:#ababab;stroke-width:0.982677;stroke-opacity:0;paint-order:stroke fill markers"
       id="path2364"
       d="m 419.9653,275.5261 c 2.2503,4.37708 3.84367,9.03386 5.29774,13.7224 0.24729,0.86272 0.50152,1.72349 0.74189,2.58817 0.19649,0.70684 0.39132,1.41432 0.56864,2.12622 0.10474,0.4205 0.19803,0.84409 0.27731,1.27012 0.0269,0.14479 -0.10285,0.47178 0.0409,0.43994 4.62679,-1.02467 4.55808,-0.15519 3.60851,-2.44954 -1.4969,-3.54346 -2.62901,-7.22168 -3.76426,-10.892 -0.46131,-1.45273 -0.88116,-2.91803 -1.25497,-4.39563 -0.0784,-0.30981 -0.12595,-0.6283 -0.22717,-0.93142 -0.0883,-0.26443 -0.0717,-0.84337 -0.33914,-0.7645 -1.41556,0.41752 -2.62464,1.3505 -3.93696,2.02575 0.91662,5.48508 2.28855,10.87808 3.58782,16.28105 0.77109,3.08733 1.0512,7.68949 5.01806,1.75331 0.33272,-0.4979 -0.18879,-1.18272 -0.28836,-1.77321 -0.12383,-0.73435 -0.25456,-1.46751 -0.38184,-2.20126 -0.53432,-2.96806 -0.82474,-5.97194 -1.24685,-8.9554 -0.0413,-0.29162 0.12683,-0.92347 -0.16252,-0.8685 -1.48458,0.28203 -2.80228,1.13195 -4.20341,1.69792 -0.0372,4.23968 0.023,8.48797 -0.23027,12.72226 -0.62162,-1.95354 0.44272,1.87433 3.6907,-1.80476 0.53031,-0.6007 -0.36897,-1.55976 -0.53089,-2.34452 -0.60734,-2.94343 -1.06797,-5.91615 -1.54957,-8.88183 -0.1256,-0.82469 -0.24599,-1.6502 -0.37681,-2.47408 -0.081,-0.5099 -0.11226,-1.03199 -0.25851,-1.52713 -0.67419,-2.28254 -1.9896,-1.40033 -4.39441,1.0913 -0.43928,0.45514 0.0291,1.26475 0.0468,1.89705 0.022,0.78352 0.0481,1.56693 0.0722,2.35039 0.0164,0.82002 0.038,1.63995 0.0491,2.46005 0.009,0.69627 0.025,2.79216 -0.003,3.63872 -0.006,0.18015 -0.22947,0.56791 -0.0517,0.53828 4.79693,-0.79951 4.26203,-0.007 4.14465,-2.98005 -0.0274,-2.36915 0.0159,-4.73926 0.11008,-7.10661 0.0244,-0.61339 0.035,-1.22812 0.0922,-1.83931 0.0221,-0.23608 0.38243,-0.6958 0.14532,-0.69632 -1.43464,-0.003 -2.83248,0.45812 -4.24872,0.68718 -0.10784,5.61458 -0.39668,11.25201 -1.14716,16.82115 -0.0751,0.2437 -0.46712,0.8125 -0.22544,0.73109 1.16989,-0.3941 2.08123,-1.39304 3.26179,-1.75393 0.28978,-0.0886 0.615,0.80849 0.73756,0.53137 0.26659,-0.60279 -0.0848,-1.31589 -0.0992,-1.97485 -0.0375,-1.72672 0.0199,-4.16722 0.0472,-5.86095 0.0382,-0.94517 0.0529,-1.89159 0.11468,-2.83551 0.0376,-0.57406 0.10607,-1.14601 0.18314,-1.71611 0.2218,-1.64061 1.85114,-3.6057 -4.18937,0.28001 -0.5576,0.35869 -0.10351,1.32203 -0.16706,1.98198 -0.0791,0.82113 -0.17388,1.64066 -0.26081,2.46099 -0.22694,2.42737 -0.48532,4.8513 -0.76351,7.27323 0,0 3.93719,-0.0963 3.93719,-0.0963 v 0 c 0.17594,-2.39973 0.35936,-4.8 0.68862,-7.1849 0.11827,-0.80746 0.21865,-1.61774 0.35481,-2.42238 0.10829,-0.63994 0.903,-1.52797 0.37831,-1.91 -5.42915,-3.95302 -4.03949,-1.64879 -3.972,-0.14454 0.026,0.57997 0.0329,1.16086 0.0293,1.7414 -0.006,0.94711 -0.0386,1.89388 -0.0579,2.84082 -0.1582,4.20754 -0.0678,1.98365 -0.24206,5.9533 -0.0318,0.72365 -0.21308,1.45634 -0.0948,2.17096 0.13906,0.84012 0.013,2.26704 0.85274,2.40812 1.25756,0.21127 2.41398,-0.92144 3.43296,-1.68811 0.24174,-0.18189 0.0111,-0.60495 0.0167,-0.90743 0.20564,-5.63012 0.56386,-11.26907 1.41535,-16.84217 -1.38913,-0.1057 -2.78225,-0.46625 -4.16739,-0.31708 -0.25239,0.0272 0.0632,0.50458 0.0698,0.75834 0.0772,2.99431 -0.11657,5.99379 -0.22211,8.98436 -0.19501,2.91088 -0.70353,2.0536 4.04206,2.02426 0.12657,-7.8e-4 -0.10902,-0.23313 -0.12438,-0.35877 -0.0598,-0.48912 -0.076,-0.98272 -0.0998,-1.47491 -0.034,-0.70172 -0.0588,-1.40396 -0.0735,-2.10635 -0.017,-0.81189 -0.0144,-1.62407 -0.0215,-2.43611 0.0166,-0.76043 0.0146,-1.5215 0.05,-2.28129 0.0235,-0.50519 0.61016,-1.36333 0.12674,-1.5119 -1.1676,-0.35884 -2.41846,0.48374 -3.63889,0.43252 -0.19658,-0.008 -0.1426,-0.76437 -0.0562,-0.5876 0.42467,0.8689 0.74706,3.10056 0.8712,3.75905 0.51328,2.97622 1.01581,5.95427 1.45982,8.94181 0.12078,0.81272 -0.30327,1.93274 0.34226,2.44108 1.18779,0.93538 2.85538,1.0855 4.35719,1.25972 0.24951,0.0289 0.004,-0.50234 0.007,-0.75351 -0.0924,-1.7831 -0.1054,-3.56402 -0.088,-5.34968 0.0154,-1.58274 0.0479,-3.48324 0.16077,-5.06415 0.0456,-0.63892 0.13299,-1.27416 0.19949,-1.91125 -1.30433,-0.11743 -2.6039,-0.31562 -3.91299,-0.3523 -0.11424,-0.003 0.20624,0.13877 0.23539,0.24928 0.15385,0.58333 0.20742,1.18865 0.30104,1.78462 0.37474,2.38575 0.7131,4.77826 1.01876,7.17375 0.0896,0.71053 0.19681,1.41905 0.26882,2.13158 0.0521,0.51512 -0.40954,1.47821 0.10322,1.54978 1.17812,0.16444 2.21858,-1.02578 3.40763,-1.05973 0.35,-0.01 0.54035,1.28764 0.44905,0.9496 -0.28598,-1.05891 -1.34517,-1.84906 -1.05821,-3.11576 -1.19194,-4.57775 -2.46611,-9.19172 -2.99288,-13.90562 -0.0625,-0.55937 -0.0699,-1.12354 -0.10486,-1.68531 -1.29997,0.15804 -2.59225,0.40383 -3.8999,0.47414 -0.0888,0.005 -0.0136,-0.34614 0.0246,-0.26577 0.13856,0.29173 0.19376,0.61618 0.28852,0.92493 0.45523,1.48319 0.90536,2.96801 1.39935,4.43901 1.17416,3.68992 2.37864,7.36905 3.62563,11.03485 0.55051,2.09849 0.0595,1.33285 4.37537,-0.10085 0.14148,-0.047 -0.1448,-0.26159 -0.1997,-0.4002 -0.15996,-0.40384 -0.30716,-0.81287 -0.44408,-1.22509 -0.23301,-0.70156 -0.44551,-1.40978 -0.66547,-2.11554 -0.27126,-0.87039 -0.53878,-1.74194 -0.80816,-2.6129 -1.53739,-4.78757 -3.18057,-9.53922 -4.99335,-14.23025 0,0 -3.88579,1.64798 -3.88579,1.64798 z" />
    <path
       style="fill:#808080;fill-opacity:1;stroke:#ababab;stroke-width:0.982677;stroke-opacity:0;paint-order:stroke fill markers"
       id="path2366"
       d="m 422.52265,276.59779 c 0.96047,2.01006 1.62813,4.162 2.32612,6.2763 0.72756,2.46569 1.52647,4.90484 2.35832,7.33675 0.77345,2.27254 1.63602,4.50885 2.36364,6.79712 0.39594,1.19207 0.19944,0.62389 0.58606,1.70573 0,0 5.99399,-2.35156 5.99399,-2.35156 v 0 c -0.3975,-0.76324 -0.19088,-0.31735 -0.57783,-1.35637 -0.80611,-2.25976 -1.60947,-4.52037 -2.4213,-6.77815 -0.80723,-2.42779 -1.62654,-4.85094 -2.39305,-7.29215 -0.76656,-2.33339 -1.54503,-4.66207 -2.23705,-7.01875 0,0 -5.9989,2.68108 -5.9989,2.68108 z" />
    <path
       style="fill:#808080;fill-opacity:1;stroke:#ababab;stroke-width:0.982677;stroke-opacity:0;paint-order:stroke fill markers"
       id="path2368"
       d="m 421.73037,274.41778 c 1.8118,2.24188 3.47153,4.6001 5.11746,6.96595 2.62923,3.77765 5.00016,7.73608 7.03234,11.86574 0.70163,1.49953 0.37612,0.80626 0.97576,2.0802 0,0 5.73744,-2.76664 5.73744,-2.76664 v 0 c -0.72398,-1.11799 -0.33164,-0.48995 -1.16148,-1.89375 -2.32038,-4.15135 -4.82069,-8.19993 -7.38205,-12.2063 -1.51818,-2.33363 -3.01813,-4.6768 -4.4677,-7.05315 0,0 -5.85177,3.00795 -5.85177,3.00795 z" />
    <path
       style="fill:#808080;fill-opacity:1;stroke:#ababab;stroke-width:0.982677;stroke-opacity:0;paint-order:stroke fill markers"
       id="path2370"
       d="m 426.31942,275.79641 c 1.79268,2.77093 3.70949,5.46551 5.62904,8.15064 2.17645,3.0705 4.46437,6.05664 6.79517,9.01039 0,0 5.20578,-3.46745 5.20578,-3.46745 v 0 c -0.40402,-0.45084 -1.54029,-1.71318 -1.89276,-2.13183 -1.73738,-2.06359 -3.32846,-4.24862 -4.94463,-6.4063 -1.73479,-2.51928 -3.51764,-5.04674 -4.8142,-7.82737 0,0 -5.9784,2.67192 -5.9784,2.67192 z" />
    <path
       style="fill:#808080;fill-opacity:1;stroke:#ababab;stroke-width:0.982677;stroke-opacity:0;paint-order:stroke fill markers"
       id="path2372"
       d="m 417.20363,277.52257 c -0.73854,2.09533 -1.64454,4.12828 -2.29476,6.25728 -0.20839,0.68231 -0.37634,1.37632 -0.5645,2.06447 -0.48127,2.23769 -0.83953,4.50401 -1.05377,6.78325 -0.11148,1.18604 -0.23737,3.0196 -0.15835,4.22085 0.0487,0.74072 0.19157,1.47223 0.28736,2.20834 0.79823,3.01524 1.41081,6.15678 2.80662,8.97 2.19298,2.29618 1.41939,2.21722 6.43102,-0.31317 0.18993,-0.0959 0.98682,-2.53945 1.05845,-2.74934 0,0 -6.19831,-1.12951 -6.19831,-1.12951 v 0 c -0.13642,0.27199 -0.23981,0.56323 -0.40925,0.81596 -0.0661,0.0986 -0.4003,0.23264 -0.28278,0.21624 5.01897,-0.70032 3.73898,-2.18053 5.11699,0.16326 -0.55134,-0.50886 -0.83905,-1.42854 -1.09486,-2.10133 -0.61284,-1.61174 -1.12088,-3.26908 -1.45798,-4.96101 -0.068,-0.55925 -0.1691,-1.11547 -0.20406,-1.67775 -0.20312,-3.26692 0.43071,-6.61447 1.17581,-9.77547 0.1876,-0.59641 0.35649,-1.19904 0.56281,-1.78925 0.73144,-2.09249 1.7424,-4.06577 2.75836,-6.03021 0,0 -6.4788,-1.17261 -6.4788,-1.17261 z" />
    <path
       style="fill:#808080;fill-opacity:1;stroke:#ababab;stroke-width:0.982677;stroke-opacity:0;paint-order:stroke fill markers"
       id="path2374"
       d="m 419.01347,289.71659 c 0.46245,3.79826 0.42842,7.63045 0.49766,11.44931 0.01,0.66248 0.0416,2.33636 0.0286,3.08788 -0.046,2.6632 -1.30216,2.60972 6.47852,0.37249 0.004,-10e-4 -0.16483,-3.01918 -0.16568,-3.03434 0,0 -6.19468,0.6064 -6.19468,0.6064 v 0 c -0.0193,0.44626 -0.008,0.89492 -0.0579,1.33878 -0.0173,0.15377 -0.29722,0.4314 -0.14282,0.4417 2.14003,0.14272 4.29642,0.14958 6.43433,-0.0221 0.16737,-0.0134 -0.11749,-0.31713 -0.1424,-0.48318 -0.10105,-0.67341 -0.19454,-2.41543 -0.23106,-2.98684 -0.16202,-3.78315 -0.23152,-7.57673 -0.044,-11.36032 0,0 -6.46059,0.59023 -6.46059,0.59023 z" />
    <path
       style="fill:#808080;fill-opacity:1;stroke:#ababab;stroke-width:0.982677;stroke-opacity:0;paint-order:stroke fill markers"
       id="path2376"
       d="m 417.85901,275.28584 c 0.32341,3.554 0.18372,7.1246 0.25135,10.68665 0.0306,0.48427 0.0612,0.96854 0.0919,1.45281 0,0 6.17193,-1.00087 6.17193,-1.00087 v 0 c -0.0559,-0.39513 -0.11187,-0.79026 -0.1678,-1.18539 -0.22506,-3.50938 -0.14004,-7.03713 0.11325,-10.54343 0,0 -6.46059,0.59023 -6.46059,0.59023 z" />
    <path
       style="fill:#808080;fill-opacity:1;stroke:#ababab;stroke-width:0.982677;stroke-opacity:0;paint-order:stroke fill markers"
       id="path2378"
       d="m 538.36414,313.45766 c 0.99896,2.59292 1.99091,5.18884 3.01253,7.77293 1.1562,2.85713 2.29311,5.72193 3.32056,8.62806 0.57089,1.88565 1.22239,3.74459 1.74541,5.64443 0.082,0.24545 0.16405,0.49091 0.24608,0.73636 0,0 6.00464,-2.47664 6.00464,-2.47664 v 0 c -0.0522,-0.053 -0.10444,-0.10603 -0.15665,-0.15904 -0.66079,-1.95464 -1.20655,-3.94687 -1.9112,-5.88712 -1.14835,-2.88096 -2.39782,-5.72092 -3.53077,-8.60835 -0.94598,-2.45527 -1.88368,-4.94243 -2.43726,-7.51973 0,0 -6.29334,1.8691 -6.29334,1.8691 z" />
    <path
       style="fill:#808080;fill-opacity:1;stroke:#ababab;stroke-width:0.982677;stroke-opacity:0;paint-order:stroke fill markers"
       id="path2380"
       d="m 539.21886,311.38021 c 2.0755,2.54621 3.94796,5.24333 5.79688,7.95567 1.94746,2.79052 3.907,5.57008 5.76065,8.42409 1.09941,1.87147 2.36142,3.68022 3.16452,5.70758 0,0 5.9307,-2.46195 5.9307,-2.46195 v 0 c -1.07549,-2.163 -2.36938,-4.19589 -3.69195,-6.21516 -1.89086,-2.86828 -3.84364,-5.69396 -5.87166,-8.46749 -1.78052,-2.58635 -3.62284,-5.14321 -5.21269,-7.85202 0,0 -5.87645,2.90928 -5.87645,2.90928 z" />
    <path
       style="fill:#808080;fill-opacity:1;stroke:#ababab;stroke-width:0.982677;stroke-opacity:0;paint-order:stroke fill markers"
       id="path2382"
       d="m 548.01438,325.43672 c 0.15287,2.48265 0.38822,4.95891 0.60703,7.43635 0.0361,0.4633 0.0763,1.29349 0.19775,1.77022 0.072,0.28275 0.19386,0.5504 0.29078,0.8256 0,0 5.92431,-2.83437 5.92431,-2.83437 v 0 c 0.0192,0.13298 0.13129,0.28661 0.0576,0.39895 -0.22282,0.33965 -0.18319,-2.7728 -0.27353,-1.18755 -0.27626,-2.31887 -0.5081,-4.66596 -0.32334,-7.00126 0,0 -6.48059,0.59206 -6.48059,0.59206 z" />
    <path
       style="fill:#808080;fill-opacity:1;stroke:#ababab;stroke-width:0.982677;stroke-opacity:0;paint-order:stroke fill markers"
       id="path2384"
       d="m 544.26432,313.28996 c 1.65841,2.46033 3.41743,4.84374 5.24351,7.1814 1.4187,1.7902 2.92656,3.50347 4.15102,5.43587 0.52185,0.89724 0.95383,1.84791 1.29962,2.82621 0,0 6.04949,-2.40632 6.04949,-2.40632 v 0 c -0.56176,-1.14838 -1.06262,-2.32979 -1.74147,-3.41658 -0.40404,-0.64246 -0.7584,-1.23506 -1.21877,-1.84275 -1.03396,-1.36482 -2.29263,-2.54796 -3.33871,-3.90325 -1.71596,-2.14061 -3.40396,-4.33209 -4.63911,-6.79474 0,0 -5.80558,2.92016 -5.80558,2.92016 z" />
    <path
       style="fill:#808080;fill-opacity:1;stroke:#ababab;stroke-width:0.982677;stroke-opacity:0;paint-order:stroke fill markers"
       id="path2388"
       d="m 546.81492,312.40392 c 0.56935,0.58467 1.05465,1.22761 1.5055,1.90653 0.8483,1.33471 1.6338,2.70936 2.37805,4.10449 0.91502,1.70654 2.10406,3.23244 3.31881,4.73155 1.14075,1.43806 2.40252,2.76873 3.62729,4.13293 0.55134,0.74964 1.19714,1.15267 1.97166,1.69891 0,0 2.93379,-5.89252 2.93379,-5.89252 v 0 c 0.27713,0.26711 0.5744,0.51478 0.83138,0.80132 0.1365,0.15221 -1.39001,-0.71199 -0.49976,-0.35563 -1.20291,-1.26797 -2.47842,-2.46724 -3.5731,-3.83568 -1.06213,-1.28478 -2.02402,-2.62538 -2.8225,-4.09176 -0.82753,-1.42906 -1.6724,-2.84845 -2.45314,-4.30422 -0.29909,-0.51301 -0.59361,-1.02004 -0.93839,-1.50364 -0.12039,-0.16887 -0.44744,-0.72024 -0.65632,-0.82442 0,0 -5.62327,3.43214 -5.62327,3.43214 z" />
    <path
       style="fill:#808080;fill-opacity:1;stroke:#ababab;stroke-width:0.982677;stroke-opacity:0;paint-order:stroke fill markers"
       id="path2390"
       d="m 550.87358,311.9365 c 0.5748,1.18364 0.96515,2.44956 1.37821,3.69687 0.35279,1.15834 0.7704,2.27874 1.35097,3.34273 0.54046,0.90263 1.2104,1.71668 1.86793,2.53459 0.5338,0.76462 1.17023,1.44666 1.73847,2.18386 0.27346,0.38004 0.60234,0.71983 0.82968,1.13116 0,0 5.87953,-2.83917 5.87953,-2.83917 v 0 c -0.31541,-0.57 -0.64912,-1.13206 -1.10231,-1.60639 -0.29667,-0.4296 -0.60365,-0.87623 -0.96177,-1.25837 -0.0683,-0.0729 -0.16128,-0.11913 -0.23154,-0.19009 -0.26334,-0.266 -0.47303,-0.58121 -0.69317,-0.88092 -0.5086,-0.66093 -0.98274,-1.34762 -1.5123,-1.99192 -0.50408,-0.76567 -0.75415,-1.64105 -1.0568,-2.49907 -0.45775,-1.27562 -0.90166,-2.55608 -1.3225,-3.8444 0,0 -6.1644,2.22112 -6.1644,2.22112 z" />
    <path
       style="fill:#808080;fill-opacity:1;stroke:#ababab;stroke-width:0.982677;stroke-opacity:0;paint-order:stroke fill markers"
       id="path2392"
       d="m 554.31891,311.82669 c 0.87298,0.91035 1.69594,1.86567 2.53435,2.80838 1.15178,1.25847 2.37975,2.44777 3.47347,3.75809 0.37278,0.51531 0.21129,0.26699 0.4938,0.7388 0,0 5.72855,-3.01999 5.72855,-3.01999 v 0 c -0.53338,-0.84512 -0.24695,-0.4249 -0.86264,-1.25838 -1.11288,-1.34194 -2.36276,-2.55721 -3.57001,-3.81319 -0.73587,-0.87065 -1.38139,-1.82955 -2.17425,-2.64585 0,0 -5.62327,3.43214 -5.62327,3.43214 z" />
    <path
       style="fill:#808080;fill-opacity:1;stroke:#ababab;stroke-width:0.982677;stroke-opacity:0;paint-order:stroke fill markers"
       id="path2394"
       d="m 557.98996,318.94134 c 0.21688,0.66025 0.28509,1.35732 0.34876,2.04581 0,0 6.40297,-1.10891 6.40297,-1.10891 v 0 c -0.12284,-0.93987 -0.26562,-1.87761 -0.45839,-2.806 0,0 -6.29334,1.8691 -6.29334,1.8691 z" />
  </g>
</svg>
