<?xml version="1.0" encoding="UTF-8" standalone="no"?>
<svg
   xmlns:dc="http://purl.org/dc/elements/1.1/"
   xmlns:cc="http://creativecommons.org/ns#"
   xmlns:rdf="http://www.w3.org/1999/02/22-rdf-syntax-ns#"
   xmlns:svg="http://www.w3.org/2000/svg"
   xmlns="http://www.w3.org/2000/svg"
   xmlns:sodipodi="http://sodipodi.sourceforge.net/DTD/sodipodi-0.dtd"
   xmlns:inkscape="http://www.inkscape.org/namespaces/inkscape"
   inkscape:version="1.0 (4035a4fb49, 2020-05-01)"
   sodipodi:docname="チームロゴ.svg"
   viewBox="0 0 3134.9783 2270.4209"
   height="2270.4209"
   width="3134.9783"
   id="svg10"
   version="1.1">
  <metadata
     id="metadata16">
    <rdf:RDF>
      <cc:Work
         rdf:about="">
        <dc:format>image/svg+xml</dc:format>
        <dc:type
           rdf:resource="http://purl.org/dc/dcmitype/StillImage" />
        <dc:title></dc:title>
      </cc:Work>
    </rdf:RDF>
  </metadata>
  <defs
     id="defs14" />
  <sodipodi:namedview
     inkscape:current-layer="g18"
     inkscape:window-maximized="0"
     inkscape:window-y="47"
     inkscape:window-x="-5"
     inkscape:cy="1434.7684"
     inkscape:cx="1499.6985"
     inkscape:zoom="0.24012258"
     showgrid="false"
     id="namedview12"
     inkscape:window-height="984"
     inkscape:window-width="1280"
     inkscape:pageshadow="2"
     inkscape:pageopacity="0"
     guidetolerance="10"
     gridtolerance="10"
     objecttolerance="10"
     borderopacity="1"
     bordercolor="#666666"
     pagecolor="#ffffff" />
  <g
     id="g18"
     inkscape:label="Image"
     inkscape:groupmode="layer">
    <path
       id="path22"
       d="m 2834.0703,1611.0306 c -1.5683,-1.8732 -2.8515,-3.5955 -2.8515,-3.8273 0,-0.2318 -3.5269,-5.8514 -7.8375,-12.4881 -4.3106,-6.6367 -8.1509,-12.5797 -8.5341,-13.2067 -0.3831,-0.627 -2.029,-3.0462 -3.6575,-5.3761 -1.6284,-2.3299 -2.9608,-4.5389 -2.9608,-4.9089 0,-0.3701 -1.0972,-1.8873 -2.4383,-3.3717 -1.3411,-1.4844 -2.4446,-2.9745 -2.4522,-3.3112 -0.01,-0.3367 -1.1832,-2.3688 -2.6124,-4.5159 -1.4293,-2.1469 -3.1899,-4.8117 -3.9124,-5.9216 -0.7225,-1.1098 -2.9583,-4.5259 -4.9683,-7.5912 -2.01,-3.0653 -4.1739,-6.5138 -4.8087,-7.6633 -0.6347,-1.1495 -2.0893,-3.344 -3.2323,-4.8766 -1.1429,-1.5327 -2.8307,-4.2172 -3.7506,-5.9654 -0.9199,-1.7484 -2.1569,-3.5808 -2.749,-4.0722 -0.5921,-0.4913 -2.1593,-2.8229 -3.4827,-5.1812 -1.3235,-2.3582 -3.3715,-5.3631 -4.5512,-6.6774 -1.1797,-1.3143 -2.1449,-2.7033 -2.1449,-3.0868 0,-0.3835 -1.7243,-3.2619 -3.8317,-6.3967 -2.1074,-3.1348 -3.8316,-6.0016 -3.8316,-6.3709 0,-0.3692 -0.7256,-1.3529 -1.6124,-2.1861 -1.8799,-1.7661 -5.7158,-2.0202 -7.8568,-0.5207 -0.7806,0.5468 -3.5934,1.6863 -6.2508,2.5323 -2.6573,0.8461 -5.187,1.8176 -5.6213,2.159 -0.4344,0.3414 -3.215,1.0848 -6.179,1.6518 -2.964,0.5672 -6.8408,1.6917 -8.6151,2.4989 -2.3123,1.052 -5.5939,1.6411 -11.5859,2.0801 -4.598,0.3368 -10.868,0.9116 -13.9333,1.2772 -8.6005,1.0259 -21.6439,0.8576 -27.1698,-0.3504 -2.6821,-0.5863 -8.6386,-1.307 -13.2366,-1.6015 -5.7343,-0.3672 -9.0845,-0.9164 -10.667,-1.7485 -1.2689,-0.6673 -4.8404,-1.6586 -7.9367,-2.203 -3.0962,-0.5444 -6.2903,-1.4195 -7.0978,-1.9447 -0.8076,-0.5253 -2.7049,-1.1848 -4.2165,-1.4655 -1.5114,-0.2808 -4.2441,-1.2686 -6.0726,-2.1951 -1.8284,-0.9265 -3.6423,-1.6846 -4.0308,-1.6846 -1.3805,0 -18.5824,-8.6742 -23.7231,-11.9627 -15.9059,-10.1747 -27.6075,-19.7088 -37.4165,-30.4851 -10.3214,-11.3395 -16.2265,-18.6119 -16.2265,-19.9837 0,-0.2017 -1.3732,-2.3039 -3.0517,-4.6716 -1.6785,-2.3676 -3.8878,-5.8723 -4.9096,-7.7881 -1.0218,-1.9158 -2.2934,-4.267 -2.8259,-5.2249 -1.7783,-3.1995 -4.5228,-8.9912 -5.5207,-11.6507 -0.5429,-1.447 -2.1162,-5.6091 -3.4961,-9.2492 -4.3611,-11.5042 -5.8712,-16.1969 -7.2857,-22.6415 -0.757,-3.4485 -2.2324,-8.6212 -3.2789,-11.4949 -1.6651,-4.5731 -1.9375,-6.4852 -2.1831,-15.3266 -0.203,-7.309 0.01,-11.3534 0.7535,-14.6299 0.5688,-2.4905 1.235,-7.0245 1.4804,-10.0755 0.2454,-3.0509 1.0179,-7.2831 1.7166,-9.4049 0.6986,-2.1217 1.4848,-6.1566 1.747,-8.9663 0.2623,-2.8096 1.239,-7.4434 2.1706,-10.2973 0.9316,-2.8538 1.6938,-5.767 1.6938,-6.4739 0,-0.7067 0.7837,-3.0573 1.7416,-5.2233 0.9579,-2.1659 1.7491,-4.4778 1.7582,-5.1374 0.01,-0.6596 0.8258,-3.0803 1.8147,-5.3793 0.989,-2.299 2.48,-5.9042 3.3134,-8.0116 1.8601,-4.7042 5.1826,-10.9088 8.6294,-16.1154 6.3105,-9.5324 10.8632,-16.0091 11.5797,-16.4736 0.4263,-0.2764 1.6275,-1.7564 2.6694,-3.2891 5.1044,-7.5094 24.5441,-25.4151 36.4181,-33.5445 6.0396,-4.1349 15.9107,-9.8697 20.4231,-11.8654 2.1441,-0.9481 4.6959,-2.2618 5.6708,-2.9193 2.1966,-1.4813 10.0011,-4.6145 13.2409,-5.3157 1.3264,-0.287 3.5209,-1.2381 4.8766,-2.1135 1.3557,-0.8754 3.8605,-1.8146 5.5662,-2.0872 1.7057,-0.2726 4.4873,-1.0897 6.1812,-1.8158 2.0623,-0.884 5.5261,-1.4526 10.4837,-1.721 4.9601,-0.2685 8.7832,-0.8964 11.5836,-1.9023 3.8807,-1.3941 5.477,-1.5004 22.2932,-1.4841 17.1915,0.017 18.3259,0.099 22.2932,1.6172 2.7433,1.0499 6.6941,1.7917 11.4949,2.1584 4.0232,0.3073 8.569,1.0234 10.1016,1.5912 1.5327,0.5679 4.2823,1.2541 6.1104,1.5249 1.828,0.2707 5.0732,1.4125 7.2115,2.5374 2.1383,1.1248 4.6592,2.0451 5.6019,2.0451 1.8451,0 8.1212,2.7488 12.0777,5.2899 1.341,0.8613 3.709,1.9355 5.2621,2.3872 1.5532,0.4517 4.5314,2.0189 6.6183,3.4826 2.0869,1.4637 6.5135,4.291 9.8367,6.283 6.1626,3.6939 22.8682,17.2237 28.4738,23.0605 4.3187,4.4969 10.9988,12.0692 14.6644,16.6231 3.3914,4.2129 11.7775,16.3504 11.7775,17.0457 0,0.2408 1.132,2.2073 2.5155,4.3702 3.4796,5.4395 10.4388,20.8337 11.8054,26.1145 0.6221,2.404 1.7075,6.0951 2.412,8.2025 0.7045,2.1074 1.488,5.5559 1.741,7.6633 0.253,2.1074 1.1375,6.0261 1.9655,8.7083 1.439,4.6615 1.5054,6.1366 1.5054,33.4397 0,26.0858 -0.1143,28.9257 -1.3185,32.7431 -0.7251,2.299 -1.7144,6.5312 -2.1983,9.405 -0.4839,2.8737 -2.0205,8.3599 -3.4146,12.1915 -1.394,3.8317 -2.9896,8.3774 -3.5457,10.1016 -0.5561,1.7243 -1.6036,4.2323 -2.3279,5.5733 -0.7242,1.3411 -1.5301,3.1424 -1.791,4.0029 -1.3789,4.5485 -13.1408,23.9486 -19.1143,31.5269 -6.6507,8.4375 -20.7456,23.0504 -26.3499,27.3184 -1.997,1.5207 -3.8293,3.3906 -4.072,4.1554 -0.7271,2.2907 0.2929,5.8143 2.2006,7.602 0.9853,0.9234 2.9102,3.7166 4.2775,6.2072 1.3673,2.4906 3.1697,5.3121 4.0054,6.27 0.8357,0.9579 2.4074,3.3091 3.4925,5.2249 1.0853,1.9158 3.0176,4.8608 4.2941,6.5443 1.2764,1.6836 2.3207,3.4376 2.3207,3.8979 0,0.4602 0.627,1.4042 1.3934,2.0977 0.7663,0.6936 1.3933,1.5468 1.3933,1.8961 0,0.3494 0.8621,1.7569 1.9158,3.1278 1.0537,1.371 2.5428,3.6622 3.3092,5.0915 0.7663,1.4294 2.6473,4.4841 4.1799,6.7882 1.5327,2.3042 3.3374,5.0865 4.0104,6.1828 0.6731,1.0964 2.4588,3.7177 3.9682,5.8251 1.5093,2.1074 2.7613,4.1851 2.782,4.6172 0.021,0.432 0.5437,1.2054 1.162,1.7186 0.6185,0.5132 2.1076,2.6169 3.3092,4.6749 2.4708,4.2316 3.5142,5.8992 6.0561,9.6787 4.1406,6.1566 8.2399,12.5435 9.3016,14.492 1.3325,2.4456 7.9882,12.3492 10.2284,15.2197 1.6283,2.0865 2.5298,7.413 1.7682,10.4474 -0.5064,2.0179 -3.6392,4.1381 -15.7646,10.6699 -1.7242,0.9288 -3.9187,2.1262 -4.8766,2.6609 -4.7855,2.6712 -9.2032,4.5435 -10.7206,4.5435 -1.1691,0 -2.568,-1.0492 -4.5411,-3.4058 z m -137.0381,-155.4412 c 5.0246,-0.7708 11.3303,-1.7301 14.0124,-2.1321 2.6822,-0.4018 6.7576,-1.3226 9.0566,-2.0461 2.299,-0.7236 5.9042,-1.8259 8.0116,-2.4495 15.0919,-4.4665 30.4602,-12.7754 39.7357,-21.4834 2.5047,-2.3516 7.2072,-6.5838 10.4499,-9.405 6.9527,-6.049 13.1301,-12.9304 16.2178,-18.066 4.8552,-8.0756 6.0882,-10.3973 7.4759,-14.076 0.7949,-2.1074 2.18,-4.9289 3.0778,-6.2699 0.8979,-1.3411 2.1384,-4.6328 2.7566,-7.315 0.6182,-2.6821 1.5887,-6.5908 2.1566,-8.6859 0.5679,-2.0951 1.0325,-4.8555 1.0325,-6.134 0,-1.2786 0.69,-3.7966 1.5335,-5.5957 1.8256,-3.8943 2.3178,-10.9604 2.065,-29.654 -0.1548,-11.4495 -0.3061,-12.7772 -1.8834,-16.5246 -0.9433,-2.2413 -1.7219,-4.6331 -1.7302,-5.3152 -0.026,-2.0865 -4.5965,-14.4321 -6.4148,-17.3251 -0.9419,-1.4987 -2.2668,-3.8989 -2.9441,-5.334 -1.3207,-2.798 -9.2033,-14.4912 -14.2747,-21.1753 -7.9341,-10.4572 -24.2809,-23.8185 -37.8028,-30.8986 -8.0442,-4.212 -20.4427,-9.0877 -27.5122,-10.8191 -1.9924,-0.4879 -4.9706,-1.3591 -6.6183,-1.9359 -3.007,-1.0527 -21.6895,-2.6134 -30.8621,-2.5781 -8.4519,0.033 -24.9784,1.9183 -30.3574,3.464 -14.7591,4.2412 -21.3587,6.7588 -31.2153,11.9074 -14.6361,7.6452 -30.8125,20.793 -39.2381,31.8917 -8.9228,11.7537 -11.808,16.2758 -16.0732,25.1914 -3.8693,8.0881 -8.153,20.2003 -8.1832,23.1381 -0.01,0.8763 -0.6442,3.9446 -1.4116,6.8183 -1.1787,4.4146 -1.4158,7.7103 -1.5285,21.2482 -0.1253,15.0482 -0.04,16.2686 1.4115,20.0552 0.8498,2.2175 1.545,4.7489 1.545,5.6252 0,3.3313 5.551,17.3371 9.9112,25.0074 6.7974,11.9576 10.0022,16.5907 16.538,23.9087 1.7373,1.9453 4.7264,5.3809 6.6422,7.6347 6.5368,7.6899 11.1453,11.8163 19.159,17.1549 12.47,8.3073 25.8198,14.6285 35.8773,16.988 2.299,0.5393 5.6652,1.4421 7.4805,2.0061 1.8153,0.564 6.361,1.367 10.1016,1.7844 3.7405,0.4174 9.1523,1.189 12.026,1.7147 7.2097,1.3188 9.3148,1.2847 19.7757,-0.3199 z M 487.5008,1607.3349 c -1.66819,-0.4436 -3.76963,-1.9418 -5.92163,-4.2218 -1.83468,-1.9438 -4.53649,-4.712 -6.004,-6.1515 -1.87965,-1.8438 -2.60027,-3.0969 -2.43832,-4.2403 l 0.2299,-1.6231 1058.22935,-0.1963 c 582.0261,-0.108 1059.3255,0 1060.6654,0.238 1.9116,0.3408 3.8234,1.8816 8.8824,7.1589 3.5455,3.6986 6.4464,7.2386 6.4464,7.8666 0,0.6281 -0.7054,1.3309 -1.5675,1.5619 -2.7945,0.7489 -2115.70158,0.3575 -2118.522,-0.3924 z m -30.93981,-32.4341 c -1.18477,-0.6705 -4.60456,-3.9974 -7.59953,-7.3931 -4.40262,-4.9917 -5.30762,-6.3925 -4.72588,-7.3149 0.658,-1.0435 8.87407,-1.1877 96.08645,-1.6867 52.45179,-0.3001 463.72687,-0.5448 913.94457,-0.5438 786.7566,0 1106.6255,0.3171 1109.9438,1.0939 2.7959,0.6546 6.8222,4.7822 13.3344,13.6697 0.7664,1.0458 0.784,1.5118 0.089,2.3493 -0.77,0.9278 -119.4858,1.0448 -1059.8928,1.0448 -1007.31093,0 -1059.13098,-0.06 -1061.17991,-1.2192 z m 259.83783,-51.0196 c -0.8229,-0.3355 -1.6595,-0.8741 -1.8591,-1.1972 -0.1997,-0.323 0.063,-7.1636 0.5845,-15.2012 0.5211,-8.0376 1.2841,-26.5268 1.6955,-41.087 0.6861,-24.2807 1.7885,-45.8345 2.4763,-48.418 0.7902,-2.9683 1.8022,-20.3973 2.4471,-42.1481 0.3977,-13.4107 1.1857,-32.8476 1.7511,-43.193 0.5654,-10.3454 1.3378,-28.2318 1.7163,-39.7474 0.3786,-11.5156 1.1521,-25.623 1.7189,-31.3497 1.4913,-15.0679 2.3389,-31.9205 2.8011,-55.6954 0.2235,-11.4949 0.922,-27.3265 1.5522,-35.1814 1.1861,-14.7823 1.6467,-44.0558 0.7081,-45.0007 -1.3325,-1.3416 -2.2887,1.7977 -3.051,10.0167 -0.5606,6.0458 -1.2785,9.8547 -2.2604,11.9942 -0.7913,1.7242 -1.4482,3.9187 -1.4596,4.8766 -0.011,0.9579 -0.7794,5.3869 -1.7064,9.8422 -0.9271,4.4552 -1.9044,10.4116 -2.1719,13.2365 -0.2675,2.8249 -1.2296,6.9264 -2.1379,9.1145 -0.9083,2.188 -2.1254,7.3607 -2.7047,11.4949 -0.5793,4.1341 -1.3491,8.457 -1.7108,9.6065 -0.3616,1.1495 -0.9788,4.4893 -1.3714,7.4218 -0.3926,2.9325 -1.3696,6.9953 -2.171,9.0285 -0.8014,2.0332 -1.866,7.0011 -2.3657,11.0398 -0.9787,7.9091 -3.1523,18.4474 -5.3533,25.955 -0.7544,2.5734 -1.6781,7.5894 -2.0526,11.1466 -0.3745,3.5573 -1.4571,9.0217 -2.4058,12.1431 -0.9486,3.1214 -1.7248,6.4324 -1.7248,7.3579 0,0.9254 -0.6141,4.0272 -1.3646,6.8927 -0.7506,2.8655 -1.8198,8.6855 -2.376,12.9335 -0.5563,4.248 -1.5053,8.6786 -2.1089,9.8459 -0.6036,1.1672 -1.5884,5.2029 -2.1884,8.9682 -0.6,3.7654 -1.5214,8.7271 -2.0474,11.0261 -0.5261,2.299 -1.1834,6.2177 -1.4608,8.7083 -0.2774,2.4905 -1.2652,6.5577 -2.195,9.038 -0.9298,2.4803 -2.0007,7.3395 -2.3797,10.7982 -0.3791,3.4588 -1.1312,7.8561 -1.6714,9.7719 -0.5402,1.9158 -1.3375,5.8345 -1.7718,8.7083 -0.4342,2.8737 -1.3886,6.7924 -2.1208,8.7082 -0.7323,1.9159 -1.6513,6.5469 -2.0422,10.2911 -0.391,3.7443 -1.3173,8.7709 -2.0584,11.1704 -0.7411,2.3994 -1.6625,6.3896 -2.0476,8.8671 -1.0606,6.8233 -4.0415,17.5507 -5.0558,18.1942 -0.4946,0.3139 -36.3805,0.5754 -79.7465,0.5812 -70.75954,0.01 -78.95947,-0.1016 -79.94193,-1.084 -0.60211,-0.6022 -1.09475,-1.4725 -1.09475,-1.9342 0,-2.7898 1.63386,-13.4351 2.74286,-17.8709 0.71846,-2.8738 1.53046,-6.9493 1.80443,-9.0567 0.27398,-2.1074 1.06372,-5.2728 1.75498,-7.0344 0.69127,-1.7615 1.61609,-6.464 2.05518,-10.45 0.43908,-3.9858 1.38664,-9.128 2.10569,-11.427 0.71904,-2.299 1.50976,-5.7475 1.75715,-7.6633 0.2474,-1.9158 1.06489,-5.6132 1.81665,-8.2164 0.75177,-2.6032 1.68207,-7.6191 2.06733,-11.1465 0.38527,-3.5275 1.44411,-8.7648 2.35299,-11.6386 0.90888,-2.8737 1.85182,-6.7924 2.09543,-8.7082 0.24362,-1.9158 0.8798,-5.2076 1.41374,-7.315 0.53394,-2.1074 1.3018,-6.7543 1.70633,-10.3266 0.41981,-3.7071 1.44448,-8.1925 2.38718,-10.4499 0.9084,-2.1752 1.87565,-5.9927 2.14944,-8.4833 0.27378,-2.4905 1.24913,-8.1919 2.16742,-12.6697 0.91831,-4.4778 1.66964,-8.7943 1.66964,-9.5922 0,-0.7979 0.76169,-3.6308 1.69263,-6.2954 0.93095,-2.6645 2.04657,-7.9098 2.47919,-11.656 0.4326,-3.7462 1.36546,-9.0058 2.07301,-11.688 0.70755,-2.6821 1.48691,-6.2873 1.7319,-8.0116 0.24499,-1.7242 1.03964,-5.0665 1.76588,-7.4272 0.72624,-2.3608 1.67319,-7.4981 2.10433,-11.4162 0.43114,-3.9181 1.36313,-8.7268 2.07109,-10.6859 0.70791,-1.9592 1.64001,-5.7566 2.07111,-8.4388 0.4312,-2.6821 1.241,-6.4881 1.7996,-8.4578 0.5586,-1.9696 1.3218,-6.5336 1.696,-10.1422 0.3742,-3.6086 1.4332,-8.5805 2.3534,-11.0487 0.9202,-2.4683 1.8912,-6.3687 2.158,-8.6677 0.2667,-2.2989 0.9494,-6.2177 1.517,-8.7082 0.5676,-2.4906 1.3426,-6.9862 1.7222,-9.9902 0.3797,-3.0039 1.4132,-7.3929 2.2968,-9.7532 0.8835,-2.3603 1.9778,-7.2147 2.4316,-10.7876 0.4539,-3.5728 1.4397,-9.059 2.1908,-12.1915 0.751,-3.1326 1.3676,-6.5549 1.3703,-7.6052 0,-1.0503 0.7769,-4.1853 1.7204,-6.9666 0.9435,-2.7813 2.0636,-8.3351 2.4891,-12.3417 0.4255,-4.0066 1.1844,-8.2678 1.6864,-9.4691 0.5019,-1.2015 1.3001,-4.4813 1.7735,-7.2885 0.4735,-2.8071 1.4495,-7.1618 2.1688,-9.6771 0.7193,-2.5153 1.5116,-7.0865 1.7608,-10.1583 0.2491,-3.0719 1.3476,-8.3193 2.441,-11.6608 1.0935,-3.3416 1.9903,-6.9469 1.993,-8.0117 0,-1.0648 0.6049,-4.444 1.3382,-7.5093 0.7333,-3.0653 1.6594,-8.5057 2.058,-12.0898 0.4347,-3.9091 1.3207,-7.7476 2.2143,-9.5936 0.8193,-1.69237 1.9124,-6.12717 2.4291,-9.85507 0.5167,-3.7278 1.5787,-9.7561 2.36,-13.3962 0.7813,-3.64 1.4246,-7.46871 1.4296,-8.50831 0.01,-1.0395 0.6701,-3.5475 1.478,-5.5733 0.8078,-2.0257 1.9257,-7.1317 2.4842,-11.3465 0.5585,-4.2148 1.6218,-9.85151 2.3629,-12.52592 0.741,-2.67442 1.3474,-5.71486 1.3474,-6.75651 0,-1.04158 0.7538,-4.33965 1.6752,-7.32895 2.2099,-7.16963 2.8414,-11.85329 1.772,-13.14183 -0.709,-0.85425 -8.4246,-1.00305 -52.473,-1.01176 -40.23382,-0.008 -52.02661,-0.20496 -53.38352,-0.89138 l -1.74165,-0.881 -0.18813,-41.4309 -0.18813,-41.43089 1.48446,-1.21916 c 1.38893,-1.14072 5.44431,-1.21916 63.01207,-1.21916 52.8102,0 61.6707,-0.14309 62.5375,-1.00981 0.5567,-0.5567 1.2257,-3.13589 1.4908,-5.74746 0.2646,-2.60573 1.0762,-7.40238 1.8036,-10.65928 0.7275,-3.25689 1.6586,-7.87165 2.0692,-10.25507 0.4106,-2.38342 1.2249,-5.47834 1.8095,-6.87758 0.5847,-1.39932 1.5259,-6.29365 2.0917,-10.87629 0.5657,-4.58264 1.4724,-9.48184 2.0149,-10.88722 0.5425,-1.40537 1.3304,-4.59295 1.751,-7.08352 0.4206,-2.49056 1.3615,-6.72278 2.0909,-9.40493 0.7294,-2.68215 1.5392,-7.38462 1.7996,-10.44993 0.2603,-3.06531 1.1912,-7.61103 2.0686,-10.1016 0.8774,-2.49056 1.804,-6.09579 2.059,-8.01161 0.255,-1.91582 1.0394,-5.99129 1.7431,-9.0566 0.7036,-3.06531 1.4921,-7.76778 1.7523,-10.44993 0.2601,-2.68215 1.2046,-6.75762 2.0989,-9.0566 0.8943,-2.29899 1.8441,-5.12047 2.1106,-6.26996 0.2665,-1.14949 0.7932,-2.48186 1.1705,-2.96081 0.5415,-0.68759 17.4556,-0.87083 80.3833,-0.87083 h 79.6974 l 0.7576,1.66282 c 1.0113,2.21945 -0.3942,12.9087 -2.25,17.11161 -0.7526,1.70474 -1.6614,5.15322 -2.0193,7.66328 -0.358,2.51006 -1.2537,7.54197 -1.9907,11.18203 -0.7369,3.64006 -1.5615,8.49928 -1.8326,10.79826 -0.2711,2.29898 -1.1364,5.59071 -1.923,7.31495 -0.7995,1.75252 -1.8583,6.51441 -2.4009,10.79826 -0.5339,4.2148 -1.4061,9.07402 -1.9383,10.79825 -0.5322,1.72424 -1.181,4.85922 -1.4417,6.96662 -0.2608,2.10741 -1.2068,6.18288 -2.1022,9.05661 -0.8955,2.87373 -1.8414,7.73294 -2.1019,10.79826 -0.2605,3.06531 -1.1869,7.92452 -2.0587,10.79825 -0.8718,2.87373 -1.7934,6.79246 -2.048,8.70828 -0.2545,1.91582 -1.0681,5.47569 -1.8081,7.9108 -1.6281,5.35844 -1.6488,5.96768 -0.2505,7.36602 0.992,0.99197 30.3648,1.09473 312.84708,1.09473 213.5664,0 312.1766,0.22711 313.0996,0.72118 1.3095,0.70078 1.3476,1.91095 1.3476,42.8036 0,32.9009 -0.19,42.20538 -0.8708,42.64602 -0.479,0.30994 -145.673,0.72035 -322.6535,0.91193 l -321.78258,0.34833 -1.3645,1.82755 c -0.9655,1.29322 -1.6431,4.09185 -2.3175,9.57102 -0.5242,4.2589 -1.4185,9.39295 -1.9874,11.40902 -0.5689,2.01607 -1.3759,5.70329 -1.7935,8.19386 -0.4176,2.49055 -1.2378,5.76475 -1.8226,7.27595 -0.5848,1.5112 -1.493,6.414 -2.0182,10.8951 -0.5252,4.481 -1.4396,9.3075 -2.032,10.7252 -0.5924,1.4179 -1.4271,4.66611 -1.8549,7.21821 -0.4279,2.5522 -1.3596,6.9915 -2.0705,9.8652 -0.711,2.8738 -1.5981,8.0465 -1.9714,11.49497 -0.3734,3.4484 -1.3125,7.6931 -2.0869,9.4326 -0.7745,1.7395 -1.798,6.0911 -2.2745,9.6703 -0.8584,6.4473 -0.8515,6.5196 0.7417,7.8097 1.5655,1.2677 10.4073,1.3022 334.16238,1.3022 328.0737,0 332.5641,0.018 333.2755,1.3475 0.4933,0.9216 0.7212,78.9798 0.7212,246.9421 0,242.0991 -0.019,245.6049 -1.3476,246.3157 -2.1248,1.1372 -158.95,0.991 -160.493,-0.1496 -1.0844,-0.8017 -1.1918,-4.8556 -1.3523,-51.0099 l -0.1743,-50.1392 -1.7417,-0.8811 c -1.3908,-0.7036 -38.8846,-0.8831 -186.1828,-0.8914 -178.21408,-0.01 -184.48458,0.034 -185.72388,1.2724 -1.1161,1.1161 -1.3405,2.948 -1.7279,14.1074 -0.2449,7.0537 -0.9196,17.057 -1.4993,22.2297 -0.5797,5.1728 -1.3648,18.3397 -1.7447,29.2598 -1.0626,30.5475 -1.3291,35.0322 -2.1293,35.8324 -0.925,0.9252 -158.4093,1.322 -160.6596,0.4049 z M 1256.763,1330.895 c 1.3492,-1.3491 1.3933,-2.3222 1.3933,-30.6989 0,-18.8688 -0.2568,-29.7855 -0.7212,-30.6531 -0.7101,-1.327 -3.5015,-1.3475 -183.1975,-1.3475 -178.33998,0 -182.49238,0.03 -183.18238,1.319 -0.8083,1.5105 -3.2742,31.6479 -3.9616,48.4177 -0.3333,8.1336 -0.2326,11.7086 0.361,12.8179 l 0.8233,1.5383 h 183.54588 c 182.617,0 183.5529,-0.01 184.9392,-1.3934 z m -0.155,-150.8668 1.5483,-1.0845 v -29.7838 c 0,-24.6227 -0.1714,-30.0181 -0.9887,-31.1361 -0.9738,-1.3317 -3.6967,-1.3551 -178.6085,-1.5331 -168.68658,-0.1717 -177.68908,-0.1192 -179.00128,1.045 -1.2385,1.0986 -1.5032,2.9966 -2.5518,18.294 -1.7838,26.0242 -2.2181,42.9076 -1.137,44.2102 0.7975,0.961 19.5764,1.0728 180.04048,1.0728 161.0174,0 179.3068,-0.1098 180.6985,-1.0845 z m 436.4395,343.8204 -1.5675,-0.63 v -166.8862 -166.8863 l -1.9158,0.4552 c -2.6739,0.6352 -4.1661,2.1081 -5.1213,5.0547 -0.4508,1.3906 -1.403,3.3604 -2.1162,4.3775 -0.7132,1.0171 -1.2966,2.0847 -1.2966,2.3726 0,0.2878 -0.7838,1.5509 -1.7417,2.8067 -0.9579,1.2559 -1.7416,2.7395 -1.7416,3.2968 0,0.5572 -1.0338,2.5376 -2.2971,4.4006 -1.2634,1.863 -3.4839,5.8145 -4.9344,8.781 -1.4504,2.9664 -2.9241,5.571 -3.2748,5.7877 -0.3508,0.2168 -1.794,2.8056 -3.2071,5.753 -1.4132,2.9473 -3.2012,6.2798 -3.9736,7.4054 -0.7722,1.1256 -2.7597,4.681 -4.4165,7.9009 -1.6568,3.2198 -3.788,6.9957 -4.736,8.3908 -0.948,1.3952 -1.7237,2.9878 -1.7237,3.5392 0,0.5514 -0.4647,1.516 -1.0326,2.1437 -1.2639,1.3965 -3.9461,6.1167 -6.1919,10.8969 -0.9221,1.9625 -1.9731,3.7515 -2.3356,3.9755 -0.3624,0.224 -2.0132,3.164 -3.6684,6.5333 -1.6552,3.3694 -3.4438,6.6347 -3.9746,7.2563 -0.5308,0.6217 -2.3942,3.9134 -4.1409,7.315 -1.7466,3.4016 -3.4259,6.4981 -3.7317,6.8813 -0.3059,0.3832 -2.0062,3.4773 -3.7785,6.8759 -1.7724,3.3986 -3.8426,6.9678 -4.6007,7.9314 -0.758,0.9637 -1.3782,2.276 -1.3782,2.9162 0,0.6402 -0.7999,2.2438 -1.7776,3.5635 -0.9777,1.3198 -3.2073,5.221 -4.9547,8.6695 -1.7474,3.4484 -3.5668,6.7402 -4.0432,7.3149 -0.4765,0.5748 -2.0479,3.3962 -3.492,6.27 -1.4442,2.8737 -3.3706,6.1111 -4.2807,7.1942 -0.9102,1.0831 -1.655,2.4307 -1.655,2.9947 0,0.564 -1.5583,3.6145 -3.4628,6.779 -1.9045,3.1645 -3.9735,6.9896 -4.5977,8.5003 -0.6241,1.5106 -1.5465,3.2168 -2.0496,3.7916 -0.5031,0.5747 -2.3746,3.8657 -4.1589,7.3135 -1.7842,3.4476 -3.6322,6.7393 -4.1066,7.3149 -0.897,1.0883 -4.885,9.1934 -5.5709,11.3222 -0.4217,1.3085 -2.1794,1.6479 -2.857,0.5516 -0.2269,-0.3671 -0.4001,-54.5238 -0.3849,-120.3483 0.027,-118.0401 0.047,-119.7047 1.4015,-121.4224 0.7556,-0.9579 2.6669,-4.3269 4.2473,-7.4866 1.5804,-3.1596 3.4101,-6.4513 4.066,-7.3149 0.6559,-0.8635 2.5332,-4.2348 4.1716,-7.4917 1.6385,-3.2569 3.5775,-6.5688 4.3089,-7.3599 0.7314,-0.791 1.331,-1.8882 1.3324,-2.4383 0,-0.55 0.6747,-2.0973 1.4963,-3.4384 2.6701,-4.3593 4.2779,-7.2505 6.0046,-10.7982 0.9325,-1.9159 2.1018,-3.9536 2.5985,-4.5283 0.4967,-0.5748 2.3549,-3.9321 4.1293,-7.4607 1.7743,-3.5285 3.5173,-6.5955 3.8732,-6.8155 0.3559,-0.2199 2.0569,-3.3177 3.78,-6.8839 1.7231,-3.5662 3.6012,-6.8726 4.1735,-7.3476 0.5723,-0.4749 1.4098,-2.0141 1.861,-3.4204 0.4511,-1.4062 1.2144,-3.027 1.6961,-3.6017 0.4817,-0.5747 1.6176,-2.4099 2.5244,-4.0781 0.9068,-1.6682 2.5891,-4.7062 3.7386,-6.751 1.1495,-2.0448 3.5796,-6.6121 5.4001,-10.1496 1.8206,-3.5375 3.7419,-6.9263 4.2697,-7.5307 0.5277,-0.6042 2.1488,-3.45 3.6025,-6.3237 1.4536,-2.8737 3.248,-6.1022 3.9875,-7.1744 0.7395,-1.0723 2.5463,-4.364 4.0151,-7.315 1.4689,-2.951 3.4744,-6.4452 4.4569,-7.765 0.9825,-1.3197 1.7997,-2.8871 1.816,-3.4833 0.016,-0.596 1.4178,-3.2783 3.1146,-5.9604 1.6968,-2.6822 3.6743,-6.1306 4.3944,-7.6633 0.72,-1.5326 2.7669,-5.24217 4.5485,-8.24327 1.7817,-3.0012 3.2394,-5.8569 3.2394,-6.3461 0,-0.4892 1.0942,-2.2659 2.4316,-3.9483 1.3374,-1.6823 2.4516,-3.5291 2.4761,-4.1038 0.024,-0.5747 1.2721,-3.0827 2.7723,-5.57331 1.5002,-2.4906 3.6252,-6.2525 4.7222,-8.3599 1.0969,-2.1074 2.8433,-5.2424 3.8808,-6.9667 1.0375,-1.7242 2.63,-4.7024 3.539,-6.6182 0.9091,-1.9159 2.464,-4.5631 3.4553,-5.8829 2.0473,-2.7253 2.2156,-3.70543 0.8329,-4.85291 -0.7174,-0.59529 -16.409,-0.796 -60.2863,-0.77085 -40.1984,0.023 -59.7577,-0.2021 -60.6849,-0.69834 -1.3367,-0.7154 -1.3683,-1.70159 -1.3683,-42.71651 0,-31.7255 0.2043,-42.18845 0.836,-42.82018 0.6373,-0.63724 15.0909,-0.836 60.8029,-0.836 53.1472,0 60.143,-0.12331 61.5153,-1.08449 l 1.5483,-1.08449 v -81.76853 c 0,-73.4061 0.1119,-81.88044 1.0947,-82.86323 0.9844,-0.98438 10.539,-1.09476 94.7633,-1.09476 h 93.6685 l 0.6795,1.78701 c 0.4273,1.12406 0.6793,31.95723 0.6793,83.11176 0,62.32371 0.1954,81.52009 0.836,82.16074 0.6326,0.63257 11.5337,0.83599 44.7954,0.83599 33.2617,0 44.1628,0.20343 44.7953,0.836 0.6318,0.63173 0.836,11.09468 0.836,42.82018 0,41.32688 -0.022,41.99596 -1.3989,42.73289 -0.9593,0.51337 -14.9603,0.72146 -44.5572,0.66203 -23.7371,-0.0474 -43.485,0.1153 -43.8842,0.36199 -1.1658,0.72049 -0.8797,1.3743 1.8868,4.3127 4.4392,4.715 8.7046,9.5515 13.0624,14.811 6.5675,7.9265 10.0124,11.9872 13.1326,15.47981 1.5898,1.7797 4.8293,5.5417 7.1988,8.36 2.3695,2.8183 6.6017,7.8445 9.405,11.1693 2.8031,3.3248 9.4101,11.16217 14.6821,17.41647 5.2719,6.2543 12.2287,14.3497 15.4596,17.9897 3.231,3.6401 6.7875,7.8723 7.9034,9.405 1.116,1.5326 2.734,3.4128 3.5957,4.1783 3.6996,3.2865 3.5139,-1.8051 3.5139,96.3694 0,83.4735 -0.096,91.2919 -1.1359,92.1548 -0.9802,0.8134 -1.2907,0.7207 -2.2642,-0.6761 -0.6205,-0.8903 -2.6957,-3.442 -4.6115,-5.6704 -1.9158,-2.2283 -6.148,-7.2799 -9.4049,-11.2256 -3.2569,-3.9457 -8.4296,-9.9655 -11.4949,-13.3773 -3.0653,-3.4119 -6.1821,-7.0308 -6.9262,-8.0422 -0.7441,-1.0112 -2.4683,-3.1186 -3.8317,-4.6831 -1.3633,-1.5644 -4.5164,-5.3121 -7.007,-8.3281 -2.4906,-3.0161 -5.4882,-6.4385 -6.6614,-7.6056 -1.1733,-1.1669 -3.3672,-3.6892 -4.8755,-5.605 -1.5082,-1.9159 -3.213,-4.0733 -3.7885,-4.7944 -1.1308,-1.4171 -6.27,-7.364 -15.4469,-17.8746 -3.1914,-3.6552 -6.4294,-7.5378 -7.1958,-8.628 -3.064,-4.3592 -4.3066,-5.5119 -5.4635,-5.0679 -1.0714,0.4111 -1.1548,14.5894 -1.1548,196.5507 0,193.1729 -0.02,196.1184 -1.3475,196.8288 -1.7201,0.9206 -185.6803,0.9233 -187.9703,0 z m 561.7916,-0.5556 c -1.069,-1.1812 -1.153,-22.417 -1.153,-291.4677 0,-241.62617 -0.1562,-290.32318 -0.933,-290.96794 -0.675,-0.56012 -35.1483,-0.82471 -124.5955,-0.95617 -103.5932,-0.15229 -123.8494,-0.33691 -124.8144,-1.13786 -1.0479,-0.86971 -1.152,-4.69188 -1.152,-42.2827 v -41.32661 l 1.5483,-1.08449 c 1.3872,-0.97164 14.3857,-1.0845 124.9115,-1.0845 95.0202,0 123.5552,-0.19207 124.1991,-0.83599 0.6407,-0.64065 0.836,-19.7466 0.836,-81.75382 0,-56.95542 0.2265,-81.5675 0.7648,-83.11175 l 0.7649,-2.19394 h 93.9416 93.9417 l 1.0845,1.54834 c 0.9665,1.37989 1.0845,10.39345 1.0845,82.85301 0,72.98445 0.112,81.41671 1.0947,82.39942 0.9399,0.9398 3.693,1.09473 19.4568,1.09473 15.7639,0 18.517,0.15494 19.4568,1.09474 0.9709,0.97093 1.0948,5.82068 1.0948,42.86198 v 41.76717 l -1.787,0.67946 c -0.9882,0.37564 -9.5734,0.67938 -19.204,0.67938 -10.6738,0 -17.9388,0.27922 -18.7645,0.72119 -1.329,0.71122 -1.3476,4.72787 -1.3476,291.44115 v 290.72 l -1.7745,0.8084 c -1.3182,0.6006 -25.6498,0.8085 -94.638,0.8085 -89.08,0 -92.9106,-0.052 -94.0165,-1.274 z m -265.362,-127.6642 c -0.8267,-0.4816 -1.2074,-1.5399 -1.1825,-3.288 0.055,-3.8681 1.6767,-11.9649 3.028,-15.1178 0.6568,-1.5326 1.6526,-6.0783 2.2128,-10.1016 0.5602,-4.0232 1.4676,-8.7256 2.0164,-10.4499 0.5488,-1.7242 1.1978,-4.389 1.4422,-5.9216 0.2444,-1.5327 1.1797,-5.2946 2.0785,-8.36 0.8988,-3.0653 1.8528,-7.9245 2.1201,-10.7982 0.2673,-2.8737 1.0792,-6.8311 1.8043,-8.7943 0.7251,-1.963 1.779,-6.0385 2.3421,-9.0566 0.5631,-3.018 1.457,-7.0548 1.9865,-8.9706 0.5295,-1.9158 1.1976,-5.8345 1.4847,-8.7083 0.287,-2.8737 1.2461,-6.8641 2.1315,-8.8675 0.8852,-2.0035 1.8067,-5.1384 2.0475,-6.9666 0.2409,-1.8283 1.0394,-6.1455 1.7744,-9.594 0.735,-3.4485 1.6731,-8.4593 2.0846,-11.1351 0.4116,-2.6758 1.3665,-6.2627 2.1221,-7.9709 0.7556,-1.7083 1.8224,-6.2591 2.3707,-10.1131 0.5482,-3.854 1.45,-8.5748 2.0039,-10.4906 0.5538,-1.9159 1.2163,-5.0508 1.4721,-6.9667 0.2558,-1.9158 1.1887,-5.521 2.0729,-8.0116 0.8843,-2.4905 1.8231,-6.8795 2.0862,-9.7532 0.2631,-2.8738 1.0696,-7.106 1.7921,-9.405 0.7226,-2.299 1.6557,-6.1387 2.0737,-8.5326 0.4179,-2.394 1.2249,-5.6708 1.7933,-7.2819 0.5685,-1.6111 1.3854,-6.0239 1.8155,-9.8063 0.522,-4.5903 1.1902,-7.3811 2.0095,-8.393 l 1.2275,-1.5159 95.7063,-0.1838 c 81.4431,-0.1565 95.9063,-0.038 97.0489,0.7979 1.3184,0.964 1.3196,1.0938 0.066,7.1505 -0.7021,3.3928 -1.5921,8.0496 -1.9777,10.3486 -0.3857,2.299 -1.6035,6.8949 -2.7064,10.2132 -1.1029,3.3183 -2.0119,7.237 -2.0198,8.7083 -0.01,1.4712 -0.487,4.7127 -1.0645,7.2033 -0.5775,2.4906 -1.6362,7.193 -2.3527,10.4499 -0.7166,3.2569 -1.8059,7.3324 -2.4209,9.0566 -0.6149,1.7243 -1.427,6.0218 -1.8045,9.5501 -0.3776,3.5282 -1.3204,8.0739 -2.0953,10.1016 -0.7748,2.0275 -1.729,5.7242 -2.1205,8.2148 -0.3913,2.4906 -1.1652,5.939 -1.7195,7.6633 -0.5544,1.7242 -1.3343,6.0629 -1.7333,9.6414 -0.4105,3.6826 -1.3288,7.7558 -2.116,9.385 -0.7649,1.5831 -1.7047,4.9252 -2.0885,7.4267 -0.3838,2.5016 -1.2943,7.2131 -2.0233,10.47 -0.7291,3.2569 -1.5422,7.6458 -1.8071,9.7532 -0.2648,2.1074 -1.2196,5.5996 -2.1218,7.7604 -0.9021,2.1608 -1.9959,6.8633 -2.4306,10.4499 -0.4347,3.5867 -1.2112,7.7752 -1.7256,9.3079 -0.5144,1.5326 -1.1531,4.5109 -1.4194,6.6183 -0.2664,2.1074 -1.2455,5.965 -2.176,8.5724 -0.9304,2.6075 -1.9739,7.4667 -2.319,10.7983 -0.3449,3.3316 -1.219,7.7816 -1.9422,9.8891 -0.7231,2.1074 -1.5337,5.3991 -1.8011,7.3149 -0.2674,1.9158 -1.0749,5.3643 -1.7944,7.6633 -0.7195,2.299 -1.5125,5.202 -1.7622,6.4513 -0.9413,4.7093 7.1685,4.3491 -97.4,4.3258 -63.1434,-0.014 -95.2782,-0.2587 -96.0896,-0.7313 z M 876.15342,776.58443 c -0.2555,-0.2554 -0.4691,-43.90999 -0.4747,-97.01014 -0.01,-76.38334 -0.1941,-96.90944 -0.8905,-98.28737 l -0.8801,-1.74166 -17.397,-0.34833 c -9.5683,-0.19158 -17.7888,-0.60195 -18.2677,-0.91194 -1.2207,-0.79002 -1.2533,-31.17 -0.035,-32.38849 1.2102,-1.21024 106.4936,-1.21024 107.7039,0 1.1851,1.18515 1.1851,31.27929 0,32.46444 -0.6023,0.60223 -5.361,0.83599 -17.0185,0.83599 -13.7824,0 -16.3448,0.16237 -17.2772,1.09476 -0.9847,0.98474 -1.0947,10.84138 -1.0947,98.08998 0,74.51187 -0.1939,97.18905 -0.836,97.83123 -0.9053,0.90524 -32.6473,1.25699 -33.5327,0.37153 z m 110.7692,0 c -0.2554,-0.2554 -0.4644,-52.23336 -0.4644,-115.50651 0,-88.5483 0.1925,-115.23462 0.836,-115.87808 0.6339,-0.63388 12.3275,-0.836 48.36828,-0.836 42.2822,0 47.6531,0.12092 48.6269,1.09476 0.9285,0.92845 1.0948,3.40791 1.0948,16.32179 0,12.91388 -0.1663,15.39334 -1.0948,16.32179 -0.9614,0.96146 -4.7614,1.09475 -31.2104,1.09475 -22.4944,0 -30.3273,0.21157 -30.9517,0.836 -0.6246,0.62465 -0.836,8.51475 -0.836,31.21045 0,22.69569 0.2114,30.58579 0.836,31.21045 0.6144,0.61446 6.5916,0.83599 22.5562,0.83599 17.5797,0 21.8718,0.18261 22.5152,0.95794 0.5579,0.67221 0.7392,5.8152 0.6078,17.24238 l -0.1872,16.28444 -22.2932,0.1783 c -19.9676,0.1597 -22.384,0.30076 -23.164,1.35231 -1.2324,1.66143 -1.2656,60.84389 -0.035,62.07462 0.6242,0.62421 8.4011,0.83599 30.6989,0.83599 19.253,0 30.3417,0.25623 31.2105,0.72119 1.2717,0.68057 1.3475,1.61381 1.3475,16.58055 0,11.40616 -0.2348,16.09414 -0.836,16.69536 -0.6341,0.6341 -12.4676,0.83599 -48.9985,0.83599 -26.4895,0 -48.37158,-0.209 -48.62698,-0.46446 z m 135.15248,0 c -0.7395,-0.73944 -0.4972,-4.41739 0.5889,-8.94047 0.5521,-2.29899 1.2025,-7.4717 1.4454,-11.49492 0.3301,-5.46824 0.8461,-8.19435 2.0438,-10.79826 1.0423,-2.2661 1.7701,-5.5526 2.0827,-9.40493 0.2642,-3.2569 0.8881,-7.48912 1.3865,-9.40494 0.4983,-1.91582 1.2976,-7.24528 1.7762,-11.84325 0.4786,-4.59797 1.6229,-11.0058 2.543,-14.23962 0.92,-3.23382 2.1361,-10.50867 2.7024,-16.16633 0.5663,-5.65765 1.5093,-11.63298 2.0953,-13.27852 0.5861,-1.64553 1.3097,-5.81335 1.6081,-9.26183 0.3189,-3.68652 1.0564,-7.25929 1.7898,-8.67105 0.8475,-1.63154 1.4449,-5.09241 1.8637,-10.79826 0.339,-4.61844 1.2136,-10.7484 1.9436,-13.62213 0.73,-2.87373 1.5532,-7.41944 1.8295,-10.10159 0.2763,-2.68215 0.9309,-6.09629 1.4546,-7.58698 0.9037,-2.57182 1.3942,-5.98609 3.0637,-21.32449 0.3961,-3.64006 1.306,-8.02903 2.022,-9.75326 0.7159,-1.72424 1.5192,-5.32947 1.7851,-8.01162 0.2658,-2.68214 1.0782,-8.01161 1.8051,-11.84325 0.7268,-3.83164 1.3226,-8.16284 1.3237,-9.6249 0.01,-5.66714 -1.4263,-5.35333 24.4082,-5.35333 h 22.9637 l 1.8013,3.65748 c 1.3226,2.68535 1.955,5.41655 2.379,10.27576 0.3177,3.64006 1.068,7.96943 1.6674,9.62082 0.5994,1.6514 1.5599,7.76461 2.1343,13.58491 0.5746,5.8203 1.4876,11.83636 2.0289,13.36902 0.5414,1.53265 1.6503,7.33236 2.4642,12.88824 0.8139,5.55588 1.9334,12.76633 2.4877,16.02322 0.5543,3.2569 1.145,7.85444 1.3127,10.21676 0.1676,2.36233 1.0828,6.28105 2.0336,8.70828 1.2552,3.20438 1.8503,6.40091 2.1725,11.6705 0.2441,3.99156 0.9157,9.07866 1.4926,11.30467 0.5768,2.22602 1.3479,7.18705 1.7135,11.02452 0.4072,4.27349 1.1758,7.99168 1.9834,9.59518 0.7965,1.58125 1.505,4.96295 1.7891,8.5396 0.638,8.03193 2.3132,19.41972 3.5621,24.21453 0.565,2.16957 1.0274,4.85887 1.0274,5.97622 0,1.11736 0.6167,4.73509 1.3705,8.03941 1.6499,7.23197 2.8095,15.64569 2.8095,20.38488 0,2.07194 0.6336,4.93828 1.5675,7.09034 1.2193,2.80999 1.5674,4.92798 1.5674,9.5341 v 5.92162 l -16.633,0.18699 c -17.8122,0.20022 -18.5361,0.0741 -18.5637,-3.23307 -0.01,-1.00682 -0.6354,-3.19712 -1.3933,-4.86744 -0.776,-1.71002 -1.378,-4.53757 -1.378,-6.47157 0,-5.55692 -1.3499,-16.53757 -2.7706,-22.53798 -0.7258,-3.06532 -1.5264,-7.29754 -1.7791,-9.40494 -0.8758,-7.30237 0.045,-6.96662 -19.1031,-6.96662 -13.6863,0 -16.8357,0.1816 -17.6731,1.01904 -1.4424,1.44237 -2.5032,6.51048 -3.1584,15.08953 -0.4143,5.4233 -0.9782,8.21496 -2.111,10.44992 -1.1656,2.29982 -1.7074,5.10507 -2.2035,11.40958 -0.7859,9.98616 -1.5657,13.59229 -3.1974,14.7854 -0.9038,0.66085 -5.3601,0.88949 -17.3388,0.88949 -8.8672,0 -16.3312,-0.209 -16.5866,-0.46446 z m 74.7245,-86.90572 c 0.6287,-0.75763 0.5931,-1.5193 -0.1548,-3.3094 -0.5344,-1.2789 -1.194,-5.46014 -1.4657,-9.29164 -0.2717,-3.8315 -1.0747,-10.88509 -1.7845,-15.67464 -0.7099,-4.78955 -1.4929,-11.44936 -1.7402,-14.79957 -0.2473,-3.35022 -1.0815,-7.89594 -1.8539,-10.1016 -0.9248,-2.64094 -1.6411,-7.34065 -2.0976,-13.76356 -1.0858,-15.27619 -1.5917,-19.37356 -2.4261,-19.65018 -0.4577,-0.15173 -1.1126,1.45846 -1.5993,3.93242 -0.4533,2.30415 -1.4429,5.98768 -2.1991,8.18562 -0.8948,2.60082 -1.6271,7.53279 -2.0973,14.12414 -0.6733,9.4415 -1.5481,15.17162 -3.3541,21.97113 -0.4071,1.53266 -0.7477,5.06734 -0.7568,7.85485 -0.011,3.36404 -0.5055,6.40929 -1.4704,9.05661 -1.4689,4.0297 -2.7234,18.94043 -1.7967,21.3553 0.359,0.93535 2.1342,1.09464 12.1999,1.09464 9.2972,0 11.9519,-0.20741 12.5966,-0.98412 z m 91.8357,86.61772 c -1.1533,-0.67172 -1.2192,-6.89654 -1.2192,-115.19105 0,-105.58967 0.089,-114.5552 1.1508,-115.43708 0.9093,-0.75541 5.7673,-1.00055 23.1415,-1.16777 12.0949,-0.11639 22.7022,-0.033 23.5719,0.18523 0.8696,0.21828 2.0709,1.14437 2.6696,2.05798 1.0556,1.61112 3.7785,16.68028 3.7968,21.01233 0.01,1.17922 0.7551,4.0007 1.667,6.26995 0.9119,2.26926 1.8752,6.32041 2.1407,9.00255 0.2655,2.68215 0.9602,6.75762 1.5438,9.05661 0.5835,2.29898 1.3311,7.02439 1.6613,10.50091 0.4473,4.70959 1.0497,7.10711 2.3632,9.40493 1.2055,2.10903 1.7655,4.13943 1.7713,6.42251 0.01,1.83619 0.4669,5.59816 1.0274,8.35995 0.5605,2.76178 1.6579,8.74603 2.4385,13.29833 0.7806,4.55229 2.0177,10.21409 2.749,12.58177 0.7314,2.36768 1.711,8.04801 2.1771,12.62295 0.4986,4.89313 1.3452,9.32206 2.0561,10.7564 0.6647,1.34107 1.3881,4.6328 1.6075,7.31495 0.2194,2.68215 0.9076,6.08359 1.5292,7.55876 0.6217,1.47517 1.4059,5.09891 1.7429,8.05274 0.5893,5.16681 1.801,9.11999 2.7954,9.11999 0.6581,0 1.8762,-4.47435 2.4655,-9.0566 0.271,-2.1074 0.7565,-4.52911 1.0789,-5.38157 0.3224,-0.85246 0.9105,-4.06581 1.3068,-7.14079 0.3962,-3.07497 1.0535,-8.17595 1.4604,-11.33552 0.4069,-3.15956 1.3561,-7.13785 2.1093,-8.84064 0.7533,-1.70279 1.65,-5.77952 1.9926,-9.0594 0.3427,-3.27988 1.1195,-8.1579 1.7262,-10.84005 0.6068,-2.68215 1.3734,-7.59381 1.7035,-10.91481 0.3902,-3.92507 1.0891,-6.85069 1.997,-8.35994 0.8545,-1.42057 1.5618,-4.20606 1.822,-7.17631 0.5932,-6.76908 3.6942,-24.19082 6.08,-34.15852 1.1006,-4.59797 2.2086,-11.49492 2.4624,-15.32656 0.3151,-4.75846 0.8913,-7.82354 1.8181,-9.67015 0.7926,-1.57945 1.5199,-4.85968 1.749,-7.88929 0.6613,-8.74358 -1.0207,-8.18065 25.179,-8.42731 15.1546,-0.14267 22.7894,0.0335 23.751,0.54811 l 1.417,0.75836 -0.1763,115.44609 -0.1762,115.44609 -16.5145,0.18671 c -16.228,0.18343 -16.5282,0.161 -17.3082,-1.29635 -0.5828,-1.08909 -0.7332,-19.68592 -0.5661,-70.01458 0.2042,-61.50589 0.1155,-68.64357 -0.8649,-69.62398 -1.7421,-1.74214 -2.8049,0.25127 -3.4494,6.46977 -0.3076,2.9678 -1.0418,8.06073 -1.6316,11.31762 -0.5898,3.25689 -1.5448,8.54768 -2.1224,11.75732 -0.5776,3.20962 -1.6506,7.44184 -2.3845,9.40493 -0.7339,1.96308 -1.565,6.39072 -1.8471,9.8392 -0.2821,3.44848 -1.1083,7.79146 -1.8359,9.65107 -0.7278,1.85962 -1.5135,5.3081 -1.7462,7.66328 -0.2327,2.35519 -1.165,6.07533 -2.0718,8.26698 -1.0116,2.44491 -1.6533,5.40633 -1.6608,7.66328 -0.012,3.78533 -1.5266,12.08971 -2.7666,15.17339 -0.3852,0.95791 -1.1607,4.24964 -1.7235,7.31495 -0.5627,3.06531 -1.6599,8.70827 -2.4381,12.53991 -0.7783,3.83164 -1.416,8.34601 -1.4173,10.032 0,1.78025 -0.7034,4.55484 -1.6746,6.61829 -0.9197,1.95406 -2.0103,4.41502 -2.4234,5.46872 l -0.7511,1.91582 h -12.8178 c -9.4052,0 -13.01,-0.23185 -13.5392,-0.87082 -0.8191,-0.98885 -3.327,-11.71618 -3.9173,-16.75563 -0.2155,-1.83967 -1.1432,-4.66115 -2.0614,-6.26995 -1.06,-1.85709 -1.8297,-4.60772 -2.1082,-7.5337 -0.2412,-2.53474 -1.0291,-6.92371 -1.7508,-9.75327 -0.7216,-2.82955 -1.5308,-6.70477 -1.7982,-8.6116 -0.2673,-1.90682 -1.0763,-4.62385 -1.7976,-6.03783 -0.7214,-1.41398 -1.8091,-6.12381 -2.4172,-10.46628 -0.608,-4.34247 -1.6927,-9.46289 -2.4104,-11.37871 -0.7176,-1.91582 -1.5057,-4.89405 -1.7512,-6.61829 -0.2456,-1.72424 -1.0149,-4.70247 -1.7097,-6.61829 -0.6947,-1.91582 -1.49,-5.99129 -1.7672,-9.0566 -0.2963,-3.27543 -1.1465,-7.00946 -2.062,-9.0566 -0.8567,-1.91582 -1.7373,-5.27582 -1.9568,-7.46666 -0.2195,-2.19084 -0.8742,-4.85557 -1.4547,-5.92162 -0.8473,-1.55579 -3.2297,-13.55417 -3.2297,-16.2653 0,-0.35817 -0.627,-0.65121 -1.3934,-0.65121 -0.9599,0 -1.4149,0.48755 -1.4626,1.56749 -0.038,0.86212 -0.01,31.7538 0.063,68.64818 0.1019,51.70328 -0.061,67.31408 -0.7127,68.09873 -0.6955,0.83795 -3.5706,1.0142 -16.2602,0.99678 -9.1689,-0.0125 -15.9095,-0.3089 -16.6346,-0.73128 z m 262.9568,-65.9705 c -3.288,-3.64734 -5.0178,-6.1429 -5.0178,-7.23928 0,-1.77882 5.2594,-7.41942 9.7533,-10.46028 1.3411,-0.90745 5.5263,-3.99334 9.3006,-6.85752 3.7742,-2.8642 7.9281,-5.75871 9.2307,-6.43226 2.306,-1.19231 3.1787,-3.41739 1.699,-4.3319 -0.3683,-0.22759 -24.4408,-0.39781 -53.4945,-0.37827 -44.8919,0.0302 -53.0304,-0.11495 -54.1926,-0.96654 -1.2379,-0.90705 -1.3676,-1.86381 -1.3676,-10.08853 0,-7.79369 0.177,-9.26335 1.2438,-10.32985 1.1667,-1.16626 4.6417,-1.26502 56.0055,-1.59174 50.1919,-0.31926 54.823,-0.44553 55.4963,-1.51308 0.6115,-0.96975 -0.4255,-2.24532 -6.1942,-7.61868 -9.7555,-9.08695 -18.3089,-17.97228 -18.8047,-19.5344 -0.4272,-1.3461 0.5172,-2.76281 6.2172,-9.32643 3.6034,-4.14932 6.2848,-4.28194 10.0686,-0.49797 1.4367,1.43686 6.3618,6.05301 10.9445,10.25812 8.7267,8.00775 23.2541,22.66082 23.2896,23.49133 0.011,0.26611 2.0964,2.92612 4.6331,5.91114 l 4.6124,5.4273 -0.317,6.9771 -0.317,6.9771 -5.1662,5.19712 c -4.9424,4.97199 -6.7813,6.36115 -11.4361,8.63924 -1.1495,0.56257 -3.0506,2.06849 -4.2245,3.34651 -2.9541,3.21592 -10.5135,9.63861 -11.3445,9.63861 -0.3763,0 -1.8864,1.36067 -3.3558,3.02371 -1.4695,1.66304 -3.4555,3.43376 -4.4134,3.93493 -1.7959,0.93959 -4.2617,2.81021 -9.0778,6.88665 -1.912,1.6183 -3.7075,2.45527 -5.765,2.68718 -2.9816,0.33607 -2.9989,0.32479 -8.0059,-5.22931 z"
       style="fill:#000000;stroke-width:0.696662" />
  </g>
</svg>
