<?xml version="1.0" encoding="UTF-8" standalone="no"?>
<svg
   xmlns:dc="http://purl.org/dc/elements/1.1/"
   xmlns:cc="http://creativecommons.org/ns#"
   xmlns:rdf="http://www.w3.org/1999/02/22-rdf-syntax-ns#"
   xmlns:svg="http://www.w3.org/2000/svg"
   xmlns="http://www.w3.org/2000/svg"
   xmlns:sodipodi="http://sodipodi.sourceforge.net/DTD/sodipodi-0.dtd"
   xmlns:inkscape="http://www.inkscape.org/namespaces/inkscape"
   inkscape:version="1.0 (4035a4fb49, 2020-05-01)"
   sodipodi:docname="絶滅危惧種ロゴ スマホ用.svg"
   viewBox="0 0 1200 1000"
   height="1000"
   width="1200"
   id="svg258"
   version="1.1">
  <metadata
     id="metadata264">
    <rdf:RDF>
      <cc:Work
         rdf:about="">
        <dc:format>image/svg+xml</dc:format>
        <dc:type
           rdf:resource="http://purl.org/dc/dcmitype/StillImage" />
        <dc:title></dc:title>
      </cc:Work>
    </rdf:RDF>
  </metadata>
  <defs
     id="defs262" />
  <sodipodi:namedview
     inkscape:current-layer="g266"
     inkscape:window-maximized="1"
     inkscape:window-y="-8"
     inkscape:window-x="1432"
     inkscape:cy="135.50302"
     inkscape:cx="443.32229"
     inkscape:zoom="0.25"
     showgrid="false"
     id="namedview260"
     inkscape:window-height="971"
     inkscape:window-width="1280"
     inkscape:pageshadow="2"
     inkscape:pageopacity="0"
     guidetolerance="10"
     gridtolerance="10"
     objecttolerance="10"
     borderopacity="1"
     bordercolor="#666666"
     pagecolor="#ffffff" />
  <g
     inkscape:label="dddd"
     id="layer2"
     inkscape:groupmode="layer">
    <path
       id="path277"
       d="m 463.0982,362.0299 c -3.1642,-0.043 -6.8322,0.6842 -8.5831,3.6229 -1.9935,3.5169 -1.8978,7.7295 -2.2631,11.643 -0.1,1.624 -0.1819,3.2355 -0.3651,4.8489 -15.3556,0.4886 -30.7447,0.3592 -46.1016,1.0238 -3.1065,0.2077 -6.5524,0.5769 -8.7828,3.0185 -1.6878,1.6166 -3.3935,3.4538 -3.7158,5.8733 -1.0626,6.3861 -0.9041,12.8982 -1.1416,19.3495 -0.3951,16.9388 -0.3061,33.9174 -1.4884,50.8109 -0.5359,8.0956 -2.2369,16.0387 -4.3645,23.8546 -1.0885,4.8069 -3.1937,9.78 -1.9534,14.769 1.2421,4.8836 5.8202,9.227 11.0835,8.7648 2.7734,-0.1491 5.4208,-1.8269 6.4732,-4.4444 2.94,-6.3957 4.2849,-13.3766 5.7539,-20.2196 1.5636,-7.4159 2.436,-14.9702 3.8476,-22.3961 0.078,-0.8706 1.221,-0.096 1.7524,-0.1817 2.5484,0.5051 5.7342,1.3482 7.8251,-0.748 1.8011,-1.8026 2.7886,-4.2124 3.98,-6.4219 0.072,5.138 -1.5144,10.1543 -3.0652,15.0215 -1.7818,5.3798 -5.1198,10.0072 -8.1984,14.6933 -1.3388,2.2078 -1.089,4.9335 -0.9313,7.4018 0.4794,2.8912 3.2981,4.7395 5.8881,5.5981 2.2845,0.776 4.9762,0.4253 6.724,-1.3372 4.3642,-3.635 7.2609,-8.6145 10.0391,-13.4804 0.3964,-0.4267 0.6728,-1.3733 1.3022,-1.3864 1.4332,1.301 2.1829,3.3241 4.0153,4.2183 2.9097,1.6604 7.0944,0.8203 8.7743,-2.1982 2.3409,-3.9161 2.7116,-9.2829 -0.1,-13.0711 -2.3167,-3.5339 -5.6253,-6.3423 -7.7142,-10.0245 -0.3267,-0.598 -0.2597,-1.4791 0.6188,-1.4758 2.8453,-0.6923 6.3682,0.1178 8.6252,-2.2327 2.5398,-2.6591 3.3577,-6.4092 5.3358,-9.4398 1.305,4.6078 1.8204,9.4028 2.6129,14.1079 0.5002,4.2348 1.4427,8.5246 1.2486,12.7463 -0.4026,2.393 -2.3373,4.1013 -3.6363,6.0383 -3.4876,4.665 -7.622,8.7911 -11.2047,13.3744 -1.735,2.0216 -2.8191,4.7908 -2.0247,7.4438 1.5477,5.7831 8.6077,9.4153 14.1783,7.1692 3.119,-1.8819 5.3938,-4.8441 8.0346,-7.3019 0.8338,-0.8378 1.6675,-1.6756 2.5012,-2.5134 3.3621,5.2537 6.7751,10.9732 12.3697,14.1266 3.0212,1.5578 6.5999,1.4508 9.8806,1.0046 4.1023,-0.6324 6.7746,-4.2391 8.893,-7.4843 3.0078,-5.0918 4.8216,-10.8054 6.2517,-16.5149 1.1414,-4.5531 1.2489,-9.8475 -1.7737,-13.7297 -1.4692,-1.8552 -2.9277,-3.9433 -5.0972,-5.0176 -1.9353,-0.5506 -4.2491,-0.7258 -6.0338,0.3366 -1.0462,1.5865 -1.177,3.6229 -1.6881,5.4266 -0.7666,2.9965 -0.8985,6.2367 -2.3332,9.0197 -0.4845,0.9446 -1.6742,0.705 -2.1467,-0.098 -2.0016,-2.7409 -2.7139,-6.2325 -3.7731,-9.423 6.2405,-13.087 11.7195,-26.5702 15.6076,-40.554 1.2374,-4.5033 2.5426,-9.0305 3.5029,-13.5812 -1.2923,-3.1353 -2.958,-6.6691 -6.402,-7.8759 -4.4916,-1.9777 -10.0533,0.3911 -12.1742,4.7044 -2.6296,5.7478 -3.3907,12.1597 -5.5244,18.0485 -0.2798,0.9389 -0.5862,-0.3683 -0.5975,-0.7356 -1.0889,-9.4829 -1.7451,-19.0115 -2.2007,-28.5422 0.046,-1.0954 -0.1971,-2.3348 0.1383,-3.3807 2.7773,-0.7367 5.7096,-0.5412 8.5581,-0.7527 4.4391,-0.2831 8.9901,-0.085 13.3168,-1.2551 3.3176,-1.0773 4.9692,-4.7519 5.1412,-8.0171 0.1185,-2.6096 0.3318,-5.2737 -0.077,-7.8607 -0.7416,-2.1181 -2.8491,-3.1846 -4.7135,-4.1373 1.1887,-1.5621 2.4386,-3.1787 2.7111,-5.1923 0.6633,-2.9503 0.046,-6.2965 -2.2625,-8.395 -4.0933,-4.0164 -10.4511,-5.2176 -15.8728,-3.6229 -2.9993,0.9785 -5.5162,2.9165 -8.2122,4.4803 -0.8008,-2.4026 -1.5038,-5.2867 -4.0305,-6.4632 -1.9489,-1.1385 -4.2675,-0.9867 -6.4376,-1.0326 z m 11.0605,11.9589 c 2.6119,0.8081 4.766,2.6589 7.0299,4.1332 1.6444,1.288 3.5681,2.3845 4.8407,4.0193 -2.8115,0.6524 -5.7419,0.3076 -8.6118,0.4218 -1.0918,-0.1359 -2.6308,0.2682 -3.4543,-0.1916 -0.4917,-2.6048 -0.982,-5.3734 -0.3131,-7.9807 0.103,-0.19 0.2513,-0.4447 0.5086,-0.402 z m -21.2128,31.3685 c 0.797,10.0334 1.7203,20.0863 2.2534,30.1218 0.015,0.565 0.1496,1.3575 -0.6896,1.186 -3.1466,0.2537 -6.7136,0.3637 -9.0508,2.8151 -1.3973,1.2984 -2.4034,2.9472 -3.2558,4.6375 -0.01,-5.091 -0.1294,-10.1844 0.024,-15.2739 2.9568,-0.8737 6.5397,-1.6414 8.0412,-4.678 1.2081,-2.4324 0.9494,-5.302 0.4222,-7.8772 -0.9737,-3.051 -4.3893,-4.2982 -7.2987,-4.5921 -5.9812,-0.6318 -12.0268,-0.6311 -18.0295,-0.336 -3.1777,0.256 -6.9234,0.6278 -8.9151,3.4703 -2.2334,2.6818 -2.4366,6.781 -0.3797,9.6222 1.9203,2.9759 5.5933,3.8835 8.9016,4.1965 0.032,2.4611 0.064,4.9223 0.097,7.3834 -3.0221,0.2872 -6.4935,0.7054 -8.4416,3.3494 -1.9125,2.4623 -2.0765,5.7558 -3.0758,8.6158 -0.4024,1.3255 -0.8007,2.9249 -1.372,4.056 -0.2618,-12.2414 -0.028,-24.5903 0.096,-36.8714 0.073,-3.4514 0.073,-6.902 0.2781,-10.3447 3.5321,-0.5417 7.1369,-0.2757 10.7067,-0.4069 9.8652,-0.069 19.7307,-0.092 29.596,-0.1377 0.031,0.3546 0.062,0.7093 0.093,1.0639 z"
       style="fill:#ffd66b;fill-opacity:1;stroke-width:0.195809" />
    <path
       id="path279"
       d="m 371.9802,364.8109 c -4.9031,-0.3526 -9.7222,2.9514 -11.5298,7.4324 -0.885,3.3329 -0.2816,7.1339 2.4981,9.4241 3.5015,3.2281 7.786,5.6704 12.2618,7.2357 3.8383,0.1494 8.7635,0.4209 11.1833,-3.227 3.6924,-4.2854 4.2765,-11.8198 -0.6318,-15.4391 -3.9975,-2.9335 -8.5718,-5.9684 -13.7816,-5.4261 z"
       style="fill:#ffd66b;fill-opacity:1;stroke-width:0.391618" />
    <path
       id="path281"
       d="m 366.0356,408.1575 c -5.5197,-0.056 -11.4493,3.8028 -11.7761,9.6864 -0.5818,3.5106 1.4323,6.8277 4.4141,8.5682 3.7087,2.2268 7.3387,5.403 11.8205,5.7068 5.1737,0.3819 11.1201,-2.6333 11.8013,-8.2118 -0.025,-2.7894 0.7597,-5.9615 -0.6937,-8.4863 -3.838,-4.4545 -9.6032,-7.4671 -15.5661,-7.2633 z"
       style="fill:#ffd66b;fill-opacity:1;stroke-width:0.391618" />
    <path
       id="path283"
       d="m 374.2756,450.2887 c -4.0661,-0.011 -6.8011,3.4726 -8.123,6.9581 -4.2894,10.579 -8.1612,21.327 -12.1447,32.0276 -2.7517,6.3139 0.871,14.1523 7.072,16.8146 3.1714,1.3708 7.164,0.8156 10.0177,-1.041 3.8318,-4.2343 4.9927,-10.1394 7.1042,-15.3002 2.7174,-8.3673 6.1051,-16.6117 7.6373,-25.3027 0.2984,-6.2544 -4.363,-12.5804 -10.446,-14.0784 -0.369,-0.06 -0.7435,-0.09 -1.1175,-0.078 z"
       style="fill:#ffd66b;fill-opacity:1;stroke-width:0.391618" />
    <path
       id="path285"
       d="m 913.6736,579.8349 c -2.0533,1.9717 -3.3485,4.6863 -5.0274,6.9909 -15.515,24.1359 -30.4737,48.6253 -45.3122,73.1815 -1.934,3.448 -4.2642,6.7426 -5.8576,10.3473 0.7679,1.3857 2.8038,0.7721 4.1034,0.9796 27.2988,0.2366 54.5955,-0.4691 81.8888,-0.9441 6.1976,-0.2898 12.4756,-0.017 18.6092,-1.0496 1.4826,-0.1517 1.5615,-1.869 0.9432,-2.9022 -3.7421,-8.3811 -8.5718,-16.228 -12.9297,-24.2959 -11.238,-19.9403 -22.2621,-40.0137 -34.1357,-59.5858 -0.7394,-0.8029 -1.1305,-2.4879 -2.282,-2.7217 z m 8.102,32.6609 c 2.9277,-0.1212 5.0246,2.9941 4.618,5.6985 0.088,2.7815 -0.1478,6.077 -2.7423,7.7818 -1.8974,2.0677 -5.7114,1.9588 -7.0987,-0.6172 -1.414,-2.614 -2.4423,-6.2023 -0.3705,-8.7174 1.3322,-1.8111 3.0777,-4.2824 5.5935,-4.1457 z m -17.5966,1.3792 c 3.3379,-0.075 4.7765,3.5243 4.8336,6.3512 0.1322,3.2193 -0.6723,7.2026 -3.7276,8.8917 -2.5816,1.0307 -5.3484,-0.8689 -5.9077,-3.448 -0.6862,-2.6642 -0.9082,-5.5187 -0.264,-8.1885 0.6406,-1.801 1.9769,-3.7545 4.1408,-3.5972 0.3079,-0.019 0.6167,-0.023 0.9249,-0.01 z m -12.7999,8.8359 c 3.2635,0.4905 5.2495,3.7534 6.123,6.652 0.5859,1.8584 0.4294,4.0438 -1.2077,5.4047 -1.8121,1.8181 -4.2053,3.7767 -6.9186,3.5301 -2.0907,-0.8918 -3.9591,-2.9002 -4.2933,-5.1986 0.1196,-2.8724 -0.1658,-6.4655 2.4063,-8.4773 1.0863,-0.9396 2.3966,-1.8968 3.8903,-1.9109 z m 41.5105,0.8502 c 3.4566,0.047 6.7665,3.4465 5.6968,7.01 -0.7508,2.8817 -2.1965,6.1106 -5.0413,7.4303 -2.3715,0.7411 -5.1346,-0.4843 -6.6071,-2.3814 -1.2535,-2.8219 0.3997,-5.9196 1.6767,-8.433 0.9677,-1.5856 2.1561,-3.6416 4.2749,-3.6259 z m -20.2685,5.3794 c 2.1739,-0.1509 4.621,0.05 6.11,1.8702 2.3121,2.5167 3.1573,6.0663 5.1337,8.7243 3.2121,2.2121 7.2728,3.714 9.4347,7.1319 1.7061,3.4066 -0.3053,7.149 -2.105,10.0507 -1.9346,2.6084 -4.858,4.6185 -8.1057,5.184 -3.985,0.4623 -7.214,-3.2212 -11.2817,-2.9671 -4.7247,0.1388 -8.7423,3.3229 -13.3309,3.8887 -3.1961,-1.3223 -6.1311,-3.5708 -8.2869,-6.3025 -2.5837,-4.1054 -1.9643,-10.2568 2.2164,-13.1016 2.8757,-2.2347 6.6418,-3.298 8.7886,-6.4397 2.4249,-2.8292 4.2293,-7.0009 8.1963,-7.9032 1.0751,-0.1545 2.1554,-0.1214 3.2305,-0.1357 z"
       style="fill:#ffd66b;fill-opacity:1;stroke-width:0.276916" />
    <path
       id="path287"
       d="m 1002.8321,559.1007 c -1.9717,-0.2378 -3.0713,1.6766 -3.4755,3.3227 -3.7858,12.5404 -6.1082,25.482 -8.027,38.4243 -0.1212,2.6771 -1.2734,5.5354 -0.2573,8.1407 0.7509,1.5357 2.5629,2.5585 4.2257,1.7713 2.5456,-0.7545 3.4003,-3.6937 4.6848,-5.7163 3.5985,-7.0265 6.142,-14.558 7.6358,-22.3059 1.4836,-6.7675 3.4266,-13.4767 4.2581,-20.3624 -0.2101,-2.0549 -2.9072,-2.0773 -4.4047,-2.6129 -1.5218,-0.35 -3.0714,-0.6688 -4.6399,-0.6615 z"
       style="fill:#ffd66b;fill-opacity:1;stroke-width:0.276916" />
    <path
       id="path289"
       d="m 990.6667,626.8582 c -2.3849,-0.2052 -3.4023,2.2729 -3.9461,4.1559 -0.4625,1.0896 -0.5349,2.9151 1.0498,3.0207 1.7512,0.3732 4.4819,1.2935 5.4599,-0.8546 0.6087,-1.6301 1.4399,-3.8245 0.2883,-5.3761 -0.7498,-0.7121 -1.8477,-0.9475 -2.8519,-0.9459 z"
       style="fill:#ffd66b;fill-opacity:1;stroke-width:0.276916" />
  </g>
  <g
     id="g266"
     inkscape:label="Image"
     inkscape:groupmode="layer">
    <path
       id="path270"
       d="m 499.0644,701.8461 c -3.0938,-1.928 -5.7191,-5.0144 -6.4586,-7.593 -0.9548,-3.3291 -0.8897,-127.6826 0.069,-131.1339 0.8718,-3.1396 5.5435,-8.4237 8.5731,-9.697 1.7801,-0.7481 13.4662,-0.9175 63.2921,-0.9175 59.4126,0 61.1814,0.037 63.7227,1.3335 3.4156,1.7425 7.3539,6.3963 8.0076,9.4624 0.2854,1.3386 0.5189,31.132 0.5189,66.2076 v 63.7739 l -1.5582,2.9184 c -0.9627,1.8031 -2.7635,3.6828 -4.7123,4.9187 -2.9704,1.8838 -3.5645,2.0003 -10.1972,2.0003 -6.8798,0 -7.089,-0.046 -9.0262,-1.9831 -1.0907,-1.0908 -1.9832,-2.4646 -1.9832,-3.053 0,-0.9636 -4.5174,-1.0699 -45.4558,-1.0699 -40.9384,0 -45.4558,0.1063 -45.4558,1.0699 0,0.5884 -0.8924,1.9622 -1.9832,3.053 -1.9232,1.9232 -2.1844,1.983 -8.6501,1.9806 -5.3308,0 -7.075,-0.2568 -8.7024,-1.2709 z m 28.1103,-33.6475 c -3.0889,-4.0913 -4.2072,-7.5939 -3.58,-11.2134 0.8737,-5.0413 2.7476,-7.1409 10.0267,-11.2343 3.0092,-1.6923 6.2148,-3.6407 7.1235,-4.33 l 1.6522,-1.2531 -4.7826,-2.4085 c -6.4912,-3.2689 -8.3593,-5.5789 -8.3593,-10.3365 0,-3.296 0.2639,-3.9699 2.5442,-6.4969 3.1732,-3.5166 5.8218,-4.6502 10.8333,-4.637 3.2616,0.01 5.1808,0.5876 11.3858,3.4347 l 7.4629,3.4243 2.2032,-2.5866 c 1.2118,-1.4227 3.3921,-4.2658 4.8452,-6.3181 l 2.642,-3.7315 -3.9977,0.2299 c -4.7965,0.2759 -9.246,-1.5693 -11.7649,-4.8788 -1.8827,-2.4736 -5.8006,-12.7947 -5.8006,-15.2808 0,-2.7274 2.6356,-7.3915 4.9668,-8.7896 4.881,-2.9272 10.29,-2.3292 14.6625,1.6211 2.0273,1.8315 3.157,3.8491 5.1898,9.2684 l 2.5984,6.9274 2.0897,-4.537 c 3.464,-7.521 8.2691,-11.3122 14.3779,-11.3442 6.9899,-0.037 12.4258,5.1762 12.4258,11.9161 0,4.5896 -9.4182,23.1377 -17.3416,34.1522 -1.993,2.7706 -3.5063,5.2273 -3.3628,5.4595 0.1435,0.2321 3.07,2.0849 6.5035,4.1172 7.5542,4.4716 9.5757,6.8639 9.9866,11.8183 0.398,4.7991 -0.7354,7.9181 -3.9244,10.7991 -2.9173,2.6356 -5.8851,3.4606 -10.763,2.9919 -2.6047,-0.2503 -4.7286,-1.3049 -11.0971,-5.5102 -4.3317,-2.8604 -8.1945,-5.2007 -8.5839,-5.2007 -0.3894,0 -3.4052,2.0607 -6.7018,4.5795 -5.3841,4.1138 -10.0288,7.2555 -17.1324,11.5887 l -2.3746,1.4485 34.0919,0.011 34.0918,0.011 v -47.1519 -47.1519 h -45.4558 -45.4558 v 47.1519 47.1519 h 5.7887 5.7888 z m 2.9983,-54.5385 c -2.2317,-1.6166 -3.2098,-3.1854 -5.8686,-9.4131 -3.4561,-8.0952 -3.8316,-10.792 -2.0022,-14.3796 2.3654,-4.6388 7.4772,-6.6073 13.3113,-5.1259 4.1961,1.0654 6.058,2.9417 9.2526,9.3243 4.2538,8.499 4.3881,12.7881 0.5376,17.1736 -2.8218,3.2138 -5.2489,4.3607 -9.2286,4.3607 -2.5804,0 -3.9232,-0.434 -6.0021,-1.94 z m 180.3879,85.3909 c -1.7366,-1.0589 -3.5212,-3.6263 -4.5822,-6.5921 -0.028,-0.08 -8.7386,1.5374 -19.3559,3.5934 -12.0837,2.3399 -20.3871,3.63 -22.1998,3.4493 -8.2772,-0.8256 -13.5615,-10.2634 -9.7561,-17.4245 1.8198,-3.4244 4.8448,-5.1848 10.4595,-6.0866 7.1882,-1.1546 7.2808,-1.1984 7.2808,-3.4467 0,-1.9379 -0.089,-1.9897 -3.426,-1.9897 -4.1473,0 -6.4212,-1.0944 -9.6119,-4.6261 -2.5496,-2.8221 -3.7331,-6.5384 -4.3603,-13.6919 -0.2597,-2.9616 -0.045,-4.1795 1.0426,-5.9034 1.9161,-3.0384 5.029,-4.5029 8.6934,-4.0898 3.3177,0.3739 5.374,1.8769 6.7106,4.9049 0.8392,1.9011 0.9002,1.6662 0.925,-3.5618 l 0.027,-5.5972 h -5.1221 c -5.6224,0 -7.6884,-0.7594 -10.7071,-3.9354 -3.6956,-3.8882 -3.6952,-10.6302 0,-14.519 3.0179,-3.1749 5.0844,-3.9343 10.7064,-3.9343 h 5.1221 v -3.053 -3.053 h -4.0186 c -3.322,0 -4.3765,-0.3012 -6.083,-1.737 -1.2404,-1.0438 -2.2392,-2.6692 -2.5024,-4.0725 -0.241,-1.2844 -1.4901,-3.713 -2.7758,-5.3969 -3.247,-4.2525 -4.2962,-7.1075 -4.2885,-11.6694 0.01,-4.7591 1.6767,-8.3809 7.4338,-16.1348 2.2165,-2.9852 5.4506,-8.1214 7.187,-11.4139 5.2847,-10.0204 9.1725,-12.9636 17.0075,-12.8754 8.7614,0.099 13.2485,3.04 24.5202,16.0738 2.8565,3.303 2.8697,3.3092 2.8845,1.3569 0.037,-4.9346 5.5101,-11.687 10.6226,-13.1066 1.4765,-0.41 9.2496,-0.7215 18.0605,-0.7236 16.9532,0 17.7718,0.1548 21.0869,4.0946 1.4387,1.7097 1.7769,2.8118 1.7769,5.7892 0,3.2675 -0.2715,3.9779 -2.4361,6.3739 -1.5721,1.7401 -3.2566,2.8505 -4.7492,3.1305 -1.8386,0.3449 -2.3129,0.7552 -2.3129,2.0006 0,1.1877 0.4903,1.6744 2.0271,2.0119 1.1525,0.2532 3.0118,1.5957 4.3096,3.1119 l 2.2825,2.6666 1.458,-4.9236 c 0.8018,-2.7081 2.2085,-8.2524 3.1258,-12.3208 1.3092,-5.8066 2.0749,-7.8255 3.561,-9.3892 5.1279,-5.3957 12.0262,-5.2379 16.9658,0.388 2.6256,2.9905 3.2803,6.0196 2.2943,10.6169 -0.4097,1.9105 -0.7449,3.6112 -0.7449,3.7794 0,0.1683 2.1673,0.3059 4.8162,0.3059 3.0591,0 5.6719,0.4061 7.1619,1.1131 7.6459,3.6282 8.4628,15.0197 1.4365,20.0312 -2.0069,1.4314 -3.0772,1.6048 -11.1371,1.8044 l -8.9167,0.2208 -1.13,2.9587 c -1.5882,4.1586 -5.5685,7.5745 -9.5159,8.1664 -3.0982,0.4646 -6.3411,0.1927 -8.6655,-0.7265 -0.9447,-0.3736 -1.1873,-0.113 -1.1873,1.2756 0,2.2976 -3.5901,6.3281 -6.1344,6.8869 -1.6648,0.3657 -2.0069,0.7785 -2.0069,2.4222 0,1.7087 0.2569,1.9818 1.8657,1.984 2.5371,0 6.0037,2.2324 7.6362,4.91 2.7218,4.4641 1.1019,10.5672 -3.5593,13.4091 -2.049,1.2493 -3.4441,1.3484 -19.0245,1.3507 -18.5686,0 -19.8856,-0.2302 -24.1458,-4.2721 -4.5945,-4.3591 -4.8044,-5.4853 -4.821,-25.8735 l -0.015,-18.2753 -2.0353,1.95 c -1.9841,1.9009 -2.0354,2.1135 -2.0354,8.4484 0,5.0215 -0.2855,7.0358 -1.2562,8.8625 -1.6833,3.1677 -4.8236,5.1927 -8.9278,5.7572 l -3.3849,0.4656 v 2.6501 2.6501 h 4.1044 c 4.5523,0 6.8272,0.9239 9.6895,3.9353 3.6956,3.8882 3.6951,10.6303 0,14.519 -2.8616,3.0104 -5.1369,3.9344 -9.6888,3.9344 h -4.1044 l 0.079,5.5972 c 0.043,3.0784 0.227,4.9865 0.4083,4.2402 0.6696,-2.7561 3.5803,-5.7135 6.36,-6.462 3.437,-0.9255 6.4452,-0.037 9.039,2.6706 2.5976,2.7113 2.9071,6.1207 1.1047,12.1726 -2.2919,7.6959 -7.2079,11.633 -14.5252,11.633 -2.2069,0 -2.4655,0.1862 -2.4655,1.7752 0,1.5151 0.2237,1.7127 1.5265,1.3485 0.8396,-0.2347 3.8163,-0.5971 6.6148,-0.8055 4.4118,-0.3283 5.3904,-0.1878 7.3599,1.0566 1.3596,0.8591 2.6946,2.5125 3.3255,4.1186 0.6982,1.7774 1.4774,2.6832 2.308,2.6832 1.1817,0 1.2549,-0.8706 1.2689,-15.0954 0.017,-17.164 0.3413,-18.5886 5.2376,-23.003 4.3499,-3.9217 6.1453,-4.098 39.1857,-3.8473 32.2232,0.2445 30.9336,0.072 35.4143,4.743 3.965,4.1335 4.2747,5.736 4.2747,22.1189 v 14.8113 l 2.4216,0.8756 c 7.1737,2.5941 6.728,15.7574 -0.6806,20.0991 l -2.8779,1.6865 h -43.3609 c -42.0875,0 -43.4259,-0.042 -45.5746,-1.3522 z m 29.6908,-31.5499 c 0,-10.0636 -0.058,-10.5159 -1.3569,-10.5159 -1.2985,0 -1.3569,0.4523 -1.3569,10.5159 0,10.0636 0.058,10.5159 1.3569,10.5159 1.2985,0 1.3569,-0.4523 1.3569,-10.5159 z m 19.6749,0 c 0,-10.0636 -0.058,-10.5159 -1.3569,-10.5159 -1.2985,0 -1.3569,0.4523 -1.3569,10.5159 0,10.0636 0.058,10.5159 1.3569,10.5159 1.2985,0 1.3569,-0.4523 1.3569,-10.5159 z m 18.9965,0 c 0,-10.0636 -0.058,-10.5159 -1.3569,-10.5159 -1.2986,0 -1.3569,0.4523 -1.3569,10.5159 0,10.0636 0.058,10.5159 1.3569,10.5159 1.2985,0 1.3569,-0.4523 1.3569,-10.5159 z m -43.4205,-55.9717 c 0,-1.8738 -0.1885,-2.0353 -2.3746,-2.0353 -2.1861,0 -2.3746,0.1615 -2.3746,2.0353 0,1.8738 0.1885,2.0354 2.3746,2.0354 2.1861,0 2.3746,-0.1616 2.3746,-2.0354 z m 8.8197,-20.3533 v -2.0354 h -6.7844 -6.7845 v 2.0354 2.0353 h 6.7845 6.7844 z m -48.1696,-3.7687 c 0,-0.5014 -5.1365,-8.125 -7.6372,-11.3353 l -1.9886,-2.5527 -3.7361,5.6057 c -2.0548,3.0832 -4.1633,6.0877 -4.6853,6.6768 -0.5221,0.5891 -0.9492,1.276 -0.9492,1.5265 0,0.2505 4.2742,0.4554 9.4982,0.4554 5.224,0 9.4982,-0.1694 9.4982,-0.3764 z m 39.3499,-16.2455 c 0,-1.4861 -0.294,-1.6961 -2.3746,-1.6961 -2.0806,0 -2.3746,0.21 -2.3746,1.6961 0,1.4861 0.294,1.6961 2.3746,1.6961 2.0806,0 2.3746,-0.21 2.3746,-1.6961 z m 101.9506,117.6663 c -2.8047,-1.4083 -4.2385,-3.9394 -4.2507,-7.5041 -0.01,-2.5687 4.4542,-10.4857 24.4936,-43.4494 11.6443,-19.1542 27.2654,-44.9008 34.7136,-57.2145 7.4482,-12.3138 14.13,-23.2176 14.8485,-24.2306 0.7185,-1.0131 2.3757,-2.1372 3.6828,-2.4981 3.7511,-1.0357 5.9324,0.1205 8.5999,4.5584 1.2735,2.1188 7.6617,12.5533 14.1961,23.1879 16.3149,26.5524 53.8421,87.7068 56.6203,92.2686 1.2841,2.1085 2.2733,4.6464 2.2742,5.8351 0,3.2274 -1.2537,6.1129 -3.0101,6.9132 -2.3962,1.0918 -14.0934,1.4436 -72.2955,2.1744 -29.2919,0.3677 -58.6007,0.8332 -65.1308,1.0342 -11.1514,0.3434 -12.047,0.278 -14.7419,-1.0751 z m 84.2589,-18.2829 c 36.8185,-0.6074 40.1001,-0.7554 41.2033,-1.8586 1.1459,-1.146 0.1165,-3.1234 -23.3986,-44.9456 -13.5285,-24.0608 -25.048,-43.8244 -25.599,-43.9191 -0.6669,-0.1146 -10.189,14.7159 -28.4788,44.355 -15.1124,24.4899 -27.5746,45.096 -27.6939,45.7914 -0.2048,1.1945 0.4493,1.2634 11.8728,1.2505 6.6493,-0.01 30.0917,-0.3107 52.0942,-0.6736 z m -28.3882,-10.5275 c -2.8978,-2.3605 -3.9503,-3.7319 -4.5373,-5.9119 -1.5837,-5.8817 1.0279,-10.5512 7.4455,-13.312 2.5148,-1.0818 3.8061,-2.3137 6.3911,-6.097 3.573,-5.2293 5.261,-6.2064 10.7225,-6.2064 4.117,0 6.7847,2.2174 8.5568,7.1121 0.6733,1.8594 1.8392,3.6912 2.5911,4.0707 0.7519,0.3795 2.9837,1.7308 4.9596,3.0028 5.2662,3.3902 6.0668,6.4936 3.1564,12.2368 -1.6608,3.2775 -3.6714,5.1077 -7.3439,6.6849 -2.7585,1.1847 -4.2271,1.0187 -7.7958,-0.8811 -4.1694,-2.2195 -7.1187,-2.14 -12.5865,0.3392 -2.4689,1.1195 -5.2308,2.0354 -6.1377,2.0354 -0.9482,0 -3.2519,-1.306 -5.4218,-3.0735 z m -6.8786,-23.5231 c -1.638,-1.9467 -1.7977,-2.5919 -1.5362,-6.2068 0.253,-3.4974 0.58,-4.2919 2.4569,-5.9689 1.1908,-1.0639 2.9,-1.9345 3.7984,-1.9345 3.7542,0 7.8235,6.299 6.7731,10.4843 -0.5496,2.19 -5.4178,5.7984 -7.8228,5.7984 -1.2389,0 -2.4394,-0.7108 -3.6694,-2.1725 z m 41.9053,0.8231 c -2.8036,-1.7094 -2.93,-4.3919 -0.4423,-9.3842 2.6286,-5.275 5.1956,-6.0462 9.3215,-2.8008 2.2376,1.7601 2.4046,4.9529 0.4585,8.7675 -2.4191,4.7419 -5.3851,5.8274 -9.3377,3.4175 z m -26.7986,-8.2032 c -4.142,-2.4125 -4.2445,-13.553 -0.1392,-15.1284 5.38,-2.0645 8.9408,2.4787 7.6459,9.7552 -0.8367,4.702 -4.3462,7.214 -7.5067,5.3732 z m 15.1625,-3.0674 c -1.6138,-2.0516 -2.4322,-5.6254 -1.7677,-7.7189 0.2549,-0.8033 1.3841,-2.509 2.5092,-3.7905 2.6714,-3.0424 5.8486,-3.2262 8.0283,-0.4642 1.2323,1.5615 1.4256,2.5183 1.1859,5.8676 -0.248,3.4639 -0.5776,4.262 -2.4515,5.9364 -2.7991,2.501 -5.6201,2.5647 -7.5042,0.1696 z m 70.5668,13.6804 c -6.0909,-1.0069 -7.147,-2.0502 -6.5677,-6.4879 1.4328,-10.976 5.2509,-13.9179 14.4987,-11.1716 4.4889,1.3331 4.9792,2.2976 4.1573,8.1773 -0.9413,6.7343 -1.8479,9.0809 -3.7939,9.8208 -1.9379,0.7368 -1.7416,0.7448 -8.2944,-0.3386 z m 6.3095,-8.4702 c 0.6998,-3.2714 0.059,-4.0956 -3.197,-4.1134 -1.5316,-0.01 -2.0912,0.4463 -2.8834,2.3424 -1.5227,3.6442 -1.2945,4.318 1.5611,4.6099 3.734,0.3818 3.8454,0.3118 4.5193,-2.8389 z m -221.1705,-1.6737 c -6.3168,-2.8172 -7.9939,-11.715 -3.2669,-17.3327 2.5747,-3.0598 5.314,-3.5672 17.911,-3.3178 10.447,0.2069 11.3422,0.3271 13.4095,1.8016 2.9186,2.0818 4.4687,5.1813 4.4687,8.936 0,3.7546 -1.5501,6.8541 -4.4687,8.9359 -2.0911,1.4915 -2.8802,1.5892 -14.0879,1.7451 -8.9066,0.124 -12.3957,-0.068 -13.9657,-0.7681 z M 994.3294,617.296 c -0.3731,-0.1278 -2.1506,-0.431 -3.95,-0.6738 -1.8791,-0.2536 -3.8464,-1.0164 -4.6223,-1.7923 -1.2054,-1.2055 -1.3072,-1.949 -0.9452,-6.9052 0.9684,-13.2594 2.7361,-24.5125 5.8648,-37.3361 3.0709,-12.5864 3.5763,-13.7936 6.6365,-15.8536 4.3153,-2.905 15.1771,-1.4743 19.1773,2.526 3.0459,3.0459 2.8755,4.6498 -2.7736,26.1129 -1.1785,4.4778 -2.7871,10.1258 -3.5745,12.5513 -2.1787,6.7104 -8.4486,19.4293 -10.1734,20.6375 -1.4012,0.9814 -3.9479,1.3125 -5.6396,0.7333 z m 1.5316,-6.874 c 2.3088,-0.6186 8.8127,-14.8321 10.3591,-22.6382 0.3326,-1.6791 1.0653,-4.8848 1.6282,-7.1236 1.9973,-7.9436 3.7815,-16.4734 3.7815,-18.0782 0,-1.407 -0.4852,-1.7403 -3.5817,-2.4602 -5.3863,-1.2522 -7.2023,-1.0926 -7.8911,0.6938 -2.6117,6.7739 -6.7631,26.1078 -8.5473,39.8066 -0.9279,7.1249 -0.9189,7.85 0.1123,8.9894 1.2077,1.3345 1.7714,1.4449 4.139,0.8104 z M 871.1916,516.4596 c -2.644,-0.7738 -6.3931,-4.0329 -7.86,-6.8329 -0.7552,-1.4416 -0.967,-5.7066 -0.9937,-20.0141 l -0.034,-18.1821 -2.6525,5.1871 c -3.4596,6.7656 -5.3465,8.2799 -9.7906,7.8572 -5.7821,-0.5499 -8.715,-5.4892 -8.7528,-14.7404 -0.023,-5.6891 0.8734,-8.2304 6.1035,-17.3004 2.3668,-4.1046 5.8046,-10.8212 7.6395,-14.9258 l 3.3361,-7.4629 -4.8618,-0.5041 c -8.2218,-0.8526 -12.6638,-5.2687 -12.6638,-12.59 0,-3.9842 0.6372,-5.624 3.3055,-8.5071 2.99,-3.2307 4.8836,-3.8405 11.9258,-3.8405 h 6.4789 v -6.326 -6.3261 l -4.4119,0.6344 c -5.7186,0.8223 -8.6298,0.2272 -11.586,-2.3685 -4.9536,-4.3492 -6.4068,-10.5137 -3.4966,-14.8321 1.7806,-2.6422 3.2591,-3.2322 14.4062,-5.7492 4.4777,-1.0111 11.5511,-2.8687 15.7187,-4.128 11.1303,-3.3632 17.2125,-2.9824 23.0118,1.4409 3.7952,2.8947 5.1538,5.5374 4.8225,9.3801 -0.41,4.7545 -2.0951,6.6056 -7.8192,8.5896 l -4.8646,1.6861 v 8.9994 8.9994 h 5.386 5.3861 l 0.4239,-3.2226 c 0.6285,-4.7766 2.3027,-8.1451 5.341,-10.7457 3.7701,-3.2272 5.9848,-3.6632 18.6291,-3.6675 8.5625,0 11.0169,-0.1965 10.7981,-0.8518 -0.2143,-0.6418 -2.7443,-0.7924 -10.4028,-0.6192 -10.9694,0.2481 -12.9225,-0.1343 -16.1182,-3.1554 -4.1408,-3.9146 -5.527,-9.0965 -3.4882,-13.0391 1.7695,-3.4219 3.4889,-3.818 20.3419,-4.6865 8.5823,-0.4423 20.3364,-1.2539 26.1201,-1.8035 23.5025,-2.2334 25.472,-2.1204 31.3915,1.8005 5.7148,3.7854 7.6575,9.7865 4.477,13.8299 -2.024,2.573 -3.0672,2.8491 -15.7727,4.1738 -11.0312,1.1502 -11.276,1.2101 -11.276,2.7616 v 1.5859 h 13.0601 c 14.6699,0 16.492,0.4425 19.3222,4.6788 3.3258,4.9785 1.3893,12.5057 -3.9011,15.1637 -2.003,1.0063 -4.3414,1.1864 -15.4211,1.1872 -7.212,0 -13.0601,0.2724 -13.0601,0.6071 0,0.3332 4.6558,0.7277 10.3463,0.8766 8.9924,0.2353 10.715,0.4642 13.1641,1.7489 3.4467,1.8082 6.5669,5.4724 7.6021,8.9278 1.0041,3.3511 1.0425,34.6782 0.047,38.2633 -0.9197,3.3116 -4.9419,7.7823 -8.4317,9.3717 -2.2273,1.0144 -4.5078,1.2386 -12.7208,1.2509 -8.4363,0.013 -10.0071,0.1746 -10.0071,1.0325 0,0.8652 1.7531,1.0179 11.7032,1.0187 13.1799,0 15.1902,0.5248 17.9653,4.6788 3.2274,4.8313 1.3361,11.8539 -3.9011,14.4852 -1.9747,0.9921 -4.2763,1.1864 -14.0642,1.1873 -7.3492,0 -11.7032,0.2535 -11.7032,0.6795 0,0.4315 5.3717,0.6788 14.7562,0.6795 16.5373,0 18.1303,0.3558 21.0183,4.6788 3.3258,4.9785 1.3894,12.5056 -3.9011,15.1636 -2.1742,1.0924 -5.7977,1.1863 -45.7921,1.1873 -40.9686,0 -43.5652,-0.07 -45.7951,-1.2552 -7.3441,-3.9026 -7.3441,-14.6167 0,-18.5193 2.1097,-1.1211 4.0982,-1.2563 18.4877,-1.2563 9.5882,0 16.1236,-0.2579 16.1236,-0.6364 0,-0.3657 -5.3244,-0.7265 -12.5153,-0.8481 l -12.5152,-0.2116 -2.4284,-2.3553 c -1.3355,-1.2954 -2.7739,-3.5088 -3.1963,-4.9187 -1.0449,-3.4873 0.08,-7.0231 3.1963,-10.0456 l 2.4284,-2.3553 12.5152,-0.2115 c 10.3352,-0.1748 12.5153,-0.3816 12.5153,-1.1873 0,-0.8023 -1.7181,-0.9784 -9.6678,-0.9906 -7.8808,-0.012 -10.1706,-0.2433 -12.3875,-1.2504 -3.3267,-1.5113 -7.0309,-5.5934 -7.5837,-8.3573 l -0.4097,-2.0486 -1.7109,2.1861 c -1.8107,2.3137 -5.1476,4.0575 -7.7642,4.0575 -0.8659,0 -2.6897,-0.5686 -4.0529,-1.2636 l -2.4785,-1.2636 -0.2091,23.4827 c -0.2081,23.361 -0.2175,23.4961 -1.8193,26.0725 -3.0718,4.9411 -9.4853,7.4205 -15.0118,5.8032 z m 63.0954,-67.757 c 0,-1.1925 -0.4523,-1.3569 -3.7314,-1.3569 -3.2792,0 -3.7315,0.1644 -3.7315,1.3569 0,1.1924 0.4523,1.3568 3.7315,1.3568 3.2791,0 3.7314,-0.1644 3.7314,-1.3568 z m 32.5654,0 c 0,-1.1925 -0.4523,-1.3569 -3.7315,-1.3569 -3.2791,0 -3.7314,0.1644 -3.7314,1.3569 0,1.1924 0.4523,1.3568 3.7314,1.3568 3.2792,0 3.7315,-0.1644 3.7315,-1.3568 z m -61.9535,-29.8899 c 1.2566,-2.8679 4.2869,-6.0386 7.2544,-7.5906 2.3857,-1.2476 4.2228,-1.5043 12.4659,-1.7418 5.3173,-0.1531 9.6678,-0.5498 9.6678,-0.8814 0,-0.3339 -6.8139,-0.6031 -15.265,-0.6031 h -15.265 l -0.01,4.2403 c -0.01,5.6863 -0.8962,8.5506 -3.6674,11.7882 -2.2648,2.6459 -5.5104,4.4677 -9.505,5.3354 -1.9777,0.4296 -1.9663,0.4461 5.4276,7.8658 l 7.4094,7.4353 0.3606,-12.0568 c 0.1983,-6.6313 0.7026,-12.8374 1.1205,-13.7913 z m 29.3881,10.8934 c 0,-1.1924 -0.4523,-1.3569 -3.7314,-1.3569 -3.2792,0 -3.7315,0.1645 -3.7315,1.3569 0,1.1924 0.4523,1.3569 3.7315,1.3569 3.2791,0 3.7314,-0.1645 3.7314,-1.3569 z m 32.5654,0 c 0,-1.1924 -0.4523,-1.3569 -3.7315,-1.3569 -3.2791,0 -3.7314,0.1645 -3.7314,1.3569 0,1.1924 0.4523,1.3569 3.7314,1.3569 3.2792,0 3.7315,-0.1645 3.7315,-1.3569 z m -262.1555,86.1741 c -2.3015,-0.7346 -6.2083,-4.3053 -7.5844,-6.9319 -0.7912,-1.5103 -0.9673,-8.2437 -1.0028,-38.3322 -0.024,-20.1253 -0.2964,-35.8914 -0.6079,-35.1432 -0.3107,0.7463 -1.5326,2.2728 -2.7153,3.3922 -1.9259,1.8228 -2.6011,2.0353 -6.466,2.0353 -5.0141,0 -7.2192,-1.2495 -9.6905,-5.4913 -1.8121,-3.1103 -1.7921,-6.1002 0.1265,-18.9327 2.2217,-14.86 2.3079,-15.1565 5.3846,-18.5051 3.3754,-3.6737 6.0297,-4.9012 10.5976,-4.9012 h 3.414 v -12.6613 c 0,-12.3167 0.047,-12.7408 1.7142,-15.5862 1.0326,-1.7621 2.9297,-3.6373 4.7715,-4.7167 2.6509,-1.5535 3.6375,-1.7548 7.4197,-1.514 3.6027,0.2294 4.8012,0.6331 6.8838,2.3187 4.5734,3.7015 5.3003,6.0208 5.5615,17.7425 l 0.2305,10.3463 h 3.365 c 6.0361,0 8.9248,2.4519 12.4781,10.5913 l 2.3366,5.3521 0.023,-15.265 c 0.026,-17.0466 0.3585,-18.6215 4.8292,-22.8631 4.532,-4.2997 4.3157,-4.2747 36.8885,-4.2747 23.2642,0 30.0207,0.1948 31.7391,0.9149 3.2277,1.3526 6.4564,4.3166 8.1493,7.4814 1.4899,2.7852 1.4976,2.9887 1.6956,44.3053 l 0.1987,41.5073 1.9035,0.4181 c 1.0469,0.2299 2.9323,1.4796 4.1898,2.777 2.0592,2.1245 2.3124,2.819 2.548,6.9892 0.2926,5.1772 -0.4897,7.3283 -3.8142,10.488 -2.4423,2.3214 -5.6097,3.1307 -12.3367,3.1521 l -5.0768,0.016 7.2077,7.2933 c 3.9642,4.0113 7.5463,7.9601 7.9602,8.7752 1.0736,2.1144 0.9296,7.4018 -0.2645,9.711 -0.5594,1.0816 -2.1339,2.8185 -3.4988,3.8596 -2.0855,1.5907 -3.2791,1.9332 -7.4738,2.1451 -7.5679,0.3821 -10.7254,-1.4155 -18.3329,-10.4371 -3.2859,-3.8968 -6.3525,-8.0806 -6.8145,-9.2974 -1.0379,-2.7329 -0.531,-6.9241 1.1906,-9.8448 l 1.2998,-2.2049 h -12.9945 -12.9945 l 1.7402,1.8657 c 2.1614,2.3174 3.0827,4.0862 3.2688,6.2756 0.3597,4.2314 -0.079,5.5372 -2.8894,8.6105 -4.6559,5.0906 -15.4624,13.7218 -18.0959,14.4533 -4.2443,1.1791 -9.5907,0.8079 -13.3099,-0.924 -6.1505,-2.864 -8.6599,-7.5118 -7.1278,-13.2017 0.7931,-2.9453 0.8046,-2.9564 10.5477,-10.1878 2.9852,-2.2156 6.0092,-4.6726 6.72,-5.46 l 1.2925,-1.4316 h -5.3631 c -6.5066,0 -9.7227,-0.8275 -12.558,-3.2133 -7.9949,-6.7269 -2.9,-20.5283 7.5783,-20.5283 h 1.9911 v -17.2835 -17.2836 l -1.7403,0.6617 c -4.8472,1.8429 -12.1384,0.016 -15.1334,-3.7912 l -1.3977,-1.777 -0.1929,44.6697 c -0.1891,43.7942 -0.2207,44.7228 -1.6102,47.3834 -2.8053,5.3715 -10.2451,8.3443 -16.1587,6.4568 z m 91.8657,-60.7324 v -1.6961 H 781.6368 766.711 v 1.6961 1.6961 h 14.9258 14.9258 z m 0,-23.0671 v -1.6962 H 781.6368 766.711 v 1.6962 1.6961 h 14.9258 14.9258 z m 0,-23.0672 v -1.6961 H 781.6368 766.711 v 1.6961 1.6961 h 14.9258 14.9258 z m 0,-22.7279 c 0,-1.3158 -0.4523,-1.3569 -14.9258,-1.3569 -14.4735,0 -14.9258,0.041 -14.9258,1.3569 0,1.3158 0.4523,1.3569 14.9258,1.3569 14.4735,0 14.9258,-0.041 14.9258,-1.3569 z M 212.6922,513.9623 c -4.2481,-3.0937 -5.011,-5.7448 -5.0682,-17.6127 l -0.048,-9.9933 -1.3295,4.664 c -0.7312,2.5653 -1.7612,5.2806 -2.289,6.0341 -3.8125,5.4431 -12.7308,5.1068 -17.1184,-0.6455 -2.5278,-3.3142 -2.7414,-7.5833 -0.8729,-17.451 2.5162,-13.2875 2.5361,-13.3427 6.049,-16.7463 4.4358,-4.2977 8.2737,-5.2427 14.4699,-3.5628 1.0286,0.2789 1.1873,-0.1903 1.1873,-3.5097 v -3.8315 l -6.6977,0.4748 c -8.194,0.581 -10.7292,-0.1269 -13.9558,-3.8965 -2.55,-2.979 -3.5777,-6.9618 -2.7586,-10.6909 0.7178,-3.2681 4.9091,-7.2795 8.1532,-7.8032 3.6535,-0.5899 4.2378,-0.9654 6.6214,-4.2558 l 2.0558,-2.838 -1.9349,-2.5716 c -1.0642,-1.4143 -3.9637,-5.0139 -6.4432,-7.9991 -2.4796,-2.9852 -4.8602,-6.4653 -5.2902,-7.7337 -1.6742,-4.9383 -0.6928,-9.7148 3.0458,-14.8243 2.5371,-3.4676 3.5829,-4.2406 5.7367,-4.2406 1.7006,0 2.076,-0.5601 4.8887,-7.2933 1.6757,-4.0113 3.2425,-7.952 3.4817,-8.7572 0.2393,-0.8052 1.7648,-2.6897 3.3902,-4.1879 2.2109,-2.038 3.7493,-2.8431 6.1086,-3.1969 3.8545,-0.578 8.5362,1.0032 10.5498,3.5631 1.8273,2.323 2.9119,6.6094 2.339,9.2435 -0.4344,1.9973 -8.0121,16.5732 -11.6029,22.3184 -1.6083,2.5733 -2.0496,4.593 -1.0035,4.593 0.3179,0 1.9207,-2.4704 3.5618,-5.4898 6.1087,-11.2394 8.7094,-13.6649 15.0335,-14.0206 3.3723,-0.1898 4.6825,0.044 6.4441,1.1493 3.1375,1.9689 4.9069,5.1971 4.91,8.9582 0,2.714 -0.5672,4.0161 -4.1269,9.4371 -2.2711,3.4587 -5.3337,7.919 -6.8058,9.9117 l -2.6765,3.623 2.9048,0.015 c 3.5368,0.018 7.7052,1.8566 10.1555,4.4791 3.536,3.7844 9.7813,20.5324 9.137,24.5026 -0.6539,4.0292 -3.5049,7.5627 -7.6235,9.4483 -4.5482,2.0822 -6.8933,1.7166 -9.7327,-1.5173 -3.1532,-3.5912 -4.12,-3.1421 -4.119,1.9134 l 6e-4,4.2403 4.2394,0.037 c 5.017,0.043 9.0539,1.8585 11.623,5.2268 1.8769,2.4606 5.8461,13.5951 5.8461,16.3992 0,4.4521 -3.8491,9.1983 -8.5016,10.4829 -5.0075,1.3826 -10.4454,-1.8772 -12.0909,-7.2481 -0.9344,-3.05 -0.9802,-2.6472 -1.0633,9.3642 -0.048,6.9032 -0.3642,13.7473 -0.7033,15.2093 -0.386,1.6642 -1.6434,3.6849 -3.3631,5.4046 -2.5848,2.5848 -3.0172,2.7615 -7.339,2.999 -4.2244,0.2322 -4.8155,0.09 -7.3745,-1.7736 z m 13.6976,-86.8722 c -0.1974,-0.3194 -0.6832,-1.4339 -1.0797,-2.4766 l -0.7208,-1.8959 -1.6741,2.2692 c -0.9208,1.248 -1.6741,2.3625 -1.6741,2.4765 0,0.1141 1.2392,0.2075 2.7538,0.2075 1.5146,0 2.5923,-0.2614 2.3949,-0.5807 z m 256.7267,88.1805 c -4.9033,-1.5949 -11.6467,-7.6121 -13.9545,-12.4517 l -1.1024,-2.3117 -3.8333,4.0193 c -4.9522,5.1925 -6.828,6.1437 -11.3719,5.7669 -6.5948,-0.5469 -11.1186,-5.0916 -11.1186,-11.17 0,-3.9074 0.5436,-4.7973 7.4195,-12.1451 2.8224,-3.0162 6.299,-7.1926 7.7257,-9.281 l 2.5939,-3.797 -1.4068,-8.6978 c -0.7738,-4.7838 -1.5853,-9.7537 -1.8032,-11.0442 l -0.3963,-2.3463 -1.5182,3.0153 c -1.8001,3.5754 -4.7282,5.4787 -8.509,5.5308 -1.5118,0.021 -2.7487,0.1855 -2.7487,0.3658 0,0.1804 1.9786,2.465 4.3969,5.077 5.8858,6.3573 7.1065,10.8315 4.4974,16.4847 -1.3947,3.022 -3.7182,5.3787 -5.9776,6.0632 -2.1898,0.6633 -6.7281,-0.7704 -8.1466,-2.5737 l -1.2319,-1.5661 -2.3104,3.9555 c -1.2707,2.1755 -3.8737,5.6353 -5.7845,7.6884 -3.3745,3.6259 -3.5782,3.7331 -7.0995,3.7331 -5.7868,0 -9.3064,-2.8434 -10.4974,-8.4806 -0.6027,-2.8529 0.3806,-5.694 3.2897,-9.5051 3.1069,-4.0703 5.9834,-9.7058 7.4142,-14.5255 1.1736,-3.9533 1.0365,-4.8045 -0.5606,-3.479 -0.6231,0.5171 -2.4529,0.7495 -4.7675,0.6055 -4.3252,-0.2691 -3.6296,-1.7234 -5.4737,11.4429 -2.1505,15.3545 -6.4275,29.858 -9.7409,33.0325 -3.8952,3.7318 -10.2097,3.1952 -14.6498,-1.2449 -2.3069,-2.3069 -3.1086,-3.744 -3.7919,-6.7974 -0.7883,-3.5225 -0.7317,-4.311 0.627,-8.7358 5.7158,-18.6155 6.9613,-30.155 7.487,-69.3672 l 0.419,-31.2596 1.8715,-2.8265 c 1.0293,-1.5546 3.1436,-3.6687 4.6985,-4.6981 l 2.8269,-1.8715 25.4179,-0.1935 25.418,-0.1935 -0.4446,-4.7843 c -0.5276,-5.6762 0.2807,-9.2148 2.7845,-12.1905 2.4466,-2.9076 5.38,-4.0092 10.6756,-4.0092 4.1368,0 4.6094,0.1622 7.1455,2.4535 1.4937,1.3494 2.7157,2.8802 2.7157,3.4018 0,0.6846 0.7077,0.4849 2.5442,-0.7178 7.3806,-4.8336 17.3127,-3.5097 22.826,3.0426 1.4249,1.6933 1.7676,2.808 1.7676,5.7481 0,2.0061 -0.3676,4.4544 -0.817,5.4406 -0.7018,1.5404 -0.645,1.8894 0.4028,2.4758 4.1432,2.3186 4.1176,13.9454 -0.04,18.32 -3.4115,3.5892 -4.7456,3.9343 -15.2109,3.9343 h -9.6267 l 0.5057,10.0071 c 0.2781,5.5039 0.7134,11.3809 0.9673,13.0601 l 0.4616,3.053 1.6029,-6.3765 c 1.3628,-5.4215 1.9885,-6.7621 4.178,-8.9516 5.2344,-5.2344 13.061,-4.2941 17.4069,2.0915 2.0765,3.051 1.9411,5.644 -0.8156,15.6178 -4.0416,14.6224 -9.1229,28.4426 -14.0363,38.176 -2.2512,4.4595 -2.2934,6.2135 -0.2658,11.0429 1.4449,3.4414 2.0964,2.4155 2.9786,-4.6909 0.7099,-5.7184 1.4069,-6.9854 4.5693,-8.3074 3.8378,-1.6042 8.395,0.8656 11.5589,6.2646 2.5783,4.3994 3.0758,7.8596 1.8893,13.1406 -2.7827,12.386 -7.3302,21.4271 -12.4973,24.8465 -2.9723,1.967 -8.2916,2.7479 -11.5339,1.6933 z m 9.0262,-2.3539 c 4.4666,-1.8663 8.4643,-8.0196 11.5258,-17.7406 3.5127,-11.1534 3.1053,-15.7019 -1.9015,-21.232 -2.521,-2.7845 -3.1939,-3.1612 -5.6472,-3.1612 -1.5319,0 -3.1044,0.3192 -3.4946,0.7094 -0.3902,0.3902 -1.1823,3.4183 -1.7602,6.7292 -1.1608,6.6504 -1.8801,8.474 -3.3424,8.474 -1.3156,0 -2.6808,-2.2826 -4.0575,-6.7845 l -1.1411,-3.7314 2.8333,-6.106 c 6.0505,-13.0395 11.0658,-27.1374 14.5518,-40.905 l 1.768,-6.9827 -1.3121,-2.9663 c -2.7476,-6.2112 -10.9407,-7.367 -15.4904,-2.1852 -1.5089,1.7186 -2.4826,4.2646 -4.2126,11.0153 -2.4687,9.6331 -2.671,10.1789 -3.4634,9.348 -0.6488,-0.6802 -2.9749,-31.7709 -2.4746,-33.0746 0.2637,-0.6872 2.8996,-0.977 10.8207,-1.1899 11.2673,-0.3027 12.8109,-0.7434 15.1593,-4.3273 1.377,-2.1017 2.0166,-10.1189 1.013,-12.6982 -0.4011,-1.0308 -1.575,-2.2375 -2.6086,-2.6816 -1.0336,-0.4441 -1.9864,-0.8781 -2.1172,-0.9645 -0.1308,-0.086 0.3915,-0.8324 1.1606,-1.658 0.7692,-0.8256 1.5897,-2.7764 1.8234,-4.3351 0.6263,-4.1759 -0.9182,-7.2904 -4.72,-9.5184 -5.8009,-3.3996 -12.4298,-3.1174 -18.0805,0.7696 -1.91,1.3138 -3.5464,2.2887 -3.6365,2.1664 -0.09,-0.1223 -0.447,-1.2599 -0.7933,-2.5279 -0.9773,-3.5793 -3.6505,-5.164 -8.6421,-5.1231 -8.3598,0.068 -10.6528,2.7515 -11.2441,13.1573 l -0.407,7.1618 -25.1025,0.3626 c -27.3585,0.3951 -27.0776,0.3544 -30.9957,4.4955 -3.3806,3.573 -3.4253,4.0079 -3.9601,38.5623 -0.5535,35.7546 -1.1887,43.2428 -4.8632,57.3287 -1.1194,4.2911 -2.3527,9.0553 -2.7406,10.5871 -2.2588,8.9197 4.6591,17.2698 12.5479,15.1455 1.761,-0.4741 3.0277,-1.3976 3.9365,-2.8696 2.8431,-4.6055 6.4256,-19.1051 8.7121,-35.2612 0.6746,-4.7667 1.3815,-8.8217 1.571,-9.0112 0.1895,-0.1895 1.697,0.017 3.35,0.4593 4.2967,1.1492 6.496,-0.05 8.8585,-4.8309 l 1.8439,-3.7314 0.022,2.6007 c 0.028,3.3738 -2.2808,12.3744 -4.4095,17.1876 -0.9198,2.08 -3.1232,5.8058 -4.8962,8.2794 -2.8852,4.0254 -3.22,4.8699 -3.1882,8.0427 0.028,2.7538 0.3906,3.923 1.6263,5.2383 2.007,2.1363 5.5454,3.3279 8.1702,2.7514 2.6327,-0.5782 8.1141,-6.7136 11.021,-12.3359 1.2178,-2.3552 2.5194,-4.2813 2.8925,-4.2804 0.3732,0 1.2001,0.9185 1.8377,2.039 2.2394,3.9353 8.0973,4.3423 10.6618,0.7407 0.7487,-1.0514 1.5612,-3.1625 1.8057,-4.6914 0.7971,-4.9849 -0.1155,-7.2652 -5.2317,-13.0712 -5.82,-6.6047 -5.8741,-7.6869 -0.389,-7.7763 4.7641,-0.078 6.3216,-1.3858 8.8277,-7.4148 0.9253,-2.226 1.9615,-4.1402 2.3027,-4.254 0.5681,-0.1894 3.2998,16.2998 4.1004,24.7512 0.3291,3.4743 0.2449,3.6823 -3.5106,8.6719 -2.1163,2.8118 -5.8321,7.2157 -8.2573,9.7866 -2.4253,2.5709 -4.6961,5.6736 -5.0464,6.8949 -1.8767,6.5437 4.6317,12.8114 12.0926,11.6453 2.0059,-0.3135 3.5054,-1.4217 7.3884,-5.4607 l 4.8718,-5.0673 3.015,4.7038 c 3.3388,5.2088 7.8042,9.4211 10.9601,10.3388 3.1399,0.9131 7.623,0.8264 10.0664,-0.1945 z m -80.3996,-83.7194 c 0.1203,-12.9668 0.3444,-23.9576 0.4979,-24.4241 0.215,-0.6533 4.9429,-0.848 20.5928,-0.848 h 20.3137 l 0.4578,5.9364 c 0.2518,3.265 0.8401,10.5159 1.3073,16.113 0.4671,5.5972 0.7284,10.4057 0.5807,10.6856 -0.1478,0.2798 -1.553,0.5088 -3.1226,0.5088 -4.0445,0 -7.2539,1.9453 -9.0713,5.4984 l -1.5254,2.9822 -0.019,-8.5095 -0.019,-8.5095 2.8918,-0.7734 c 4.4025,-1.1775 6.2672,-3.566 6.2672,-8.0278 0,-6.6602 -3.2932,-8.3177 -16.692,-8.4009 -10.8553,-0.067 -14.6641,0.5508 -16.8477,2.7344 -4.9333,4.9333 -2.0971,12.7406 5.0158,13.8072 l 3.0822,0.4622 v 3.9409 3.9409 l -3.0952,0.3489 c -3.8175,0.4302 -6.1646,2.4819 -7.1258,6.2286 -1.7465,6.8081 -2.7442,9.8816 -3.2076,9.8816 -0.2751,0 -0.4017,-10.6092 -0.2814,-23.5759 z m 9.9381,5.56 c 2.2035,-0.4134 2.415,-0.6545 2.415,-2.7522 0,-2.0119 -0.216,-2.299 -1.7298,-2.299 -2.3252,0 -5.3028,-1.6135 -7.0301,-3.8094 l -1.4168,-1.8012 v 7.9726 7.9726 l 2.6733,-2.4152 c 1.4828,-1.3396 3.7489,-2.6169 5.0884,-2.8682 z m 27.8716,0.668 c 1.2922,-0.2424 2.8521,-0.2478 3.4665,-0.012 0.9734,0.3736 1.0613,0.022 0.6835,-2.7339 -0.2384,-1.7394 -0.4335,-4.5066 -0.4335,-6.1494 v -2.9869 l -2.5503,2.6809 c -1.6989,1.786 -3.3975,2.8399 -5.0883,3.1571 l -2.538,0.4761 v 4.734 4.7339 l 2.0553,-1.7294 c 1.1304,-0.9512 3.1125,-1.9278 4.4048,-2.1702 z m 2.4872,-24.8853 -0.2348,-5.2579 h -18.9428 -18.9429 v 5.1798 5.1798 l 1.4168,-1.8011 c 2.7333,-3.4748 4.2764,-3.8094 17.5678,-3.8094 13.6848,0 16.1837,0.5502 18.1629,3.9987 0.6376,1.1108 1.1701,1.9631 1.1834,1.8939 0.013,-0.069 -0.081,-2.4919 -0.2104,-5.3838 z m 21.3283,-29.7668 c -0.7441,-3.7205 -0.4914,-6.7164 0.6021,-7.136 1.0589,-0.4063 11.9075,7.0113 12.3956,8.4754 0.184,0.5521 -1.6194,0.7808 -6.1567,0.7808 h -6.417 z m 9.3795,0.2026 c -0.3545,-0.3084 -2.2474,-1.7082 -4.2064,-3.1108 l -3.5618,-2.5501 v 3.1108 3.1108 h 4.2063 c 2.3135,0 3.9164,-0.2523 3.5619,-0.5607 z M 273.8206,514.0789 c -12.6618,-2.5706 -17.4606,-7.7651 -19.2839,-20.8742 -0.438,-3.1491 -0.7303,-18.2312 -0.7303,-37.6844 v -32.4338 l -3.8232,-3.2663 c -4.3621,-3.7267 -6.317,-7.3882 -6.3386,-11.8723 -0.018,-3.6789 1.5518,-6.8083 8.7053,-17.3581 2.7439,-4.0465 6.7257,-10.8682 8.8487,-15.1593 4.9874,-10.0812 5.8117,-11.2688 9.1564,-13.191 3.9576,-2.2745 6.6701,-2.6663 11.7811,-1.7019 5.8029,1.0949 8.8866,3.7 9.4625,7.9939 l 0.3941,2.9376 9.5711,-0.2243 9.5713,-0.2242 4.3429,3.053 c 7.9829,5.6118 8.6687,9.6338 3.4592,20.2867 -1.8657,3.8152 -3.3923,7.0701 -3.3923,7.2331 0,0.1631 2.0254,0.2964 4.5008,0.2964 6.4215,0 9.5633,1.1384 13.2364,4.7957 4.5682,4.5485 4.8018,6.1911 4.5348,31.8915 l -0.2225,21.4222 -1.8209,2.7501 c -2.6644,4.0238 -6.4352,5.6282 -13.2276,5.6282 -4.4975,0 -5.7765,-0.2481 -7.2487,-1.4062 -0.9832,-0.7733 -1.7876,-1.8419 -1.7876,-2.3745 0,-0.8136 -2.7655,-0.9684 -17.3004,-0.9684 h -17.3003 v 12.5512 c 0,11.6466 0.098,12.649 1.3569,13.9081 1.2817,1.2817 2.2615,1.3569 17.6842,1.3569 9.4617,0 16.8542,-0.282 17.5805,-0.6707 1.2225,-0.6543 2.5197,-3.6357 4.006,-9.2074 2.307,-8.6482 13.4858,-8.844 19.6431,-0.344 2.5537,3.5252 3.0964,7.1434 1.8667,12.4444 -1.4456,6.2317 -3.3738,10.2458 -6.6064,13.7527 -6.1278,6.6479 -8.4477,7.0927 -36.5345,7.0054 -12.5004,-0.039 -23.3386,-0.1946 -24.0848,-0.3461 z m 10.5159,-81.3198 v -7.8021 h -2.7138 -2.7138 v 7.8021 7.8021 h 2.7138 2.7138 z m 28.4947,0 v -7.8021 h -3.053 -3.0531 v 7.8021 7.8021 h 3.0531 3.053 z m -22.7394,-34.2389 c 0.9392,-1.8533 1.7075,-3.5325 1.7075,-3.7315 0,-0.199 -2.4385,-0.3618 -5.419,-0.3618 h -5.419 l -1.7458,2.7655 c -3.0529,4.8361 -3.1515,4.6974 3.3408,4.6974 h 5.828 z m 295.1351,115.0052 c -6.9835,-1.2702 -11.4537,-3.4365 -14.8219,-7.1828 -5.7082,-6.3489 -6.7385,-13.8088 -6.4285,-46.5456 l 0.2186,-23.0768 2.0533,-3.3195 c 1.271,-2.0548 3.3181,-4.1018 5.373,-5.3728 l 3.3198,-2.0533 28.21,-0.2219 c 19.6933,-0.1549 29.2982,0.016 31.8145,0.5671 4.2241,0.9245 7.6933,3.6701 9.7625,7.7261 1.2975,2.5433 1.3785,3.5007 0.9817,11.5978 -0.5333,10.8806 -2.0513,20.4777 -3.9298,24.8444 -2.9504,6.8581 -9.6848,10.5229 -20.6627,11.244 -7.6114,0.4999 -11.2656,-0.5933 -14.5727,-4.3599 -4.6891,-5.3407 -5.3657,-10.9357 -1.7936,-14.8335 2.0239,-2.2084 2.6722,-2.4758 7.2106,-2.974 2.9134,-0.3198 5.2317,-0.9287 5.5759,-1.4645 0.8971,-1.3966 1.9428,-5.4417 1.947,-7.5319 v -1.8657 h -14.5865 -14.5866 v 18.613 c 0,10.3118 0.2919,19.3808 0.6544,20.3344 0.3846,1.0116 1.4337,1.939 2.5442,2.2492 1.0394,0.2902 11.354,0.5277 22.9215,0.5277 24.4462,0 24.5868,-0.03 26.3528,-5.5841 0.5658,-1.7796 1.2274,-4.2289 1.4701,-5.4428 0.2428,-1.2139 1.3454,-3.1112 2.4504,-4.2161 4.2815,-4.2815 10.449,-3.9656 15.8781,0.8133 5.3446,4.7044 6.5022,8.6126 4.697,15.8562 -1.6884,6.7747 -3.8575,11.2723 -7.1689,14.8647 -6.6209,7.1829 -10.0191,7.7835 -43.6795,7.7206 -18.2859,-0.034 -27.9263,-0.3163 -31.2084,-0.9133 z m -59.0247,-3.0214 c -3.0863,-0.7669 -4.6322,-1.7682 -7.3153,-4.738 -3.1836,-3.5239 -4.2032,-7.2281 -3.2338,-11.7482 0.402,-1.8747 1.2992,-4.2128 1.9936,-5.1958 2.2134,-3.133 6.6274,-12.4705 8.3946,-17.7582 3.0695,-9.1845 4.74,-19.7854 5.61,-35.601 l 0.4485,-8.1514 -3.2073,0.255 -3.2072,0.2551 -4.6724,-4.9941 c -5.1982,-5.5563 -6.4057,-8.4194 -5.6622,-13.4264 0.4253,-2.8643 1.1185,-3.7493 9.0708,-11.5818 9.1264,-8.989 14.3216,-15.4149 20.6901,-25.5916 7.0911,-11.3313 12.4757,-14.0778 24.2821,-12.3856 6.7689,0.9703 9.0293,2.2343 9.7342,5.4434 l 0.4503,2.0505 16.5998,-0.084 16.5998,-0.084 3.7557,2.2654 c 10.5452,6.3608 12.2178,13.1258 5.6761,22.9579 l -2.0313,3.053 18.1427,0.3392 c 15.1673,0.2836 18.4765,0.5234 20.178,1.4621 2.2743,1.2546 4.5322,3.5541 5.682,5.7866 1.066,2.0698 0.9528,8.0602 -0.1938,10.255 -1.2851,2.4598 -4.3799,5.3148 -6.7196,6.1988 -1.2848,0.4854 -17.8539,0.7216 -50.6207,0.7216 h -48.7107 l -0.3824,15.0954 c -0.515,20.3306 -2.6254,33.4894 -7.7526,48.3392 -3.9765,11.5167 -11.1977,24.0501 -15.0087,26.0495 -1.7781,0.9329 -6.3607,1.3661 -8.5903,0.812 z m 64.584,-117.9428 1.7022,-2.8834 h -12.9268 -12.9267 l -2.1105,3.0675 -2.1105,3.0675 13.3351,-0.1841 13.335,-0.1841 z M 359.9831,507.4415 c -2.7163,-1.216 -6.1329,-4.897 -7.4285,-8.0034 -1.9259,-4.6174 -1.3864,-7.8388 3.2994,-19.7034 2.3934,-6.0599 5.4872,-14.3107 6.8752,-18.3351 2.8193,-8.1743 3.971,-9.9922 7.3451,-11.5933 3.6211,-1.7184 6.6121,-1.4003 10.3551,1.1012 4.2081,2.8123 7.0307,8.0071 7.0307,12.9394 0,4.4457 -10.8739,37.5648 -13.2675,40.4095 -3.2462,3.8578 -9.5502,5.2709 -14.2095,3.1851 z m 9.2869,-1.4934 c 3.1343,-0.8784 5.126,-4.8226 10.2883,-20.3743 6.3244,-19.0524 6.6774,-20.5828 5.7472,-24.9198 -0.5543,-2.5849 -1.45,-4.0871 -3.894,-6.5312 -3.4339,-3.4338 -5.7487,-4.2558 -9.2571,-3.2871 -3.3487,0.9246 -5.2311,3.6958 -8.0464,11.8458 -1.3965,4.0427 -4.3062,11.7866 -6.4661,17.2087 -2.1599,5.4221 -4.1345,10.8084 -4.3881,11.9696 -0.6742,3.0875 0.8003,7.995 3.241,10.7862 3.283,3.7547 7.3808,4.8139 12.7752,3.3021 z m -2.1632,-72.6549 c -2.2384,-0.8281 -9.29,-5.3261 -11.3818,-7.2602 -4.5452,-4.2025 -4.5678,-10.1147 -0.057,-15.0078 3.3128,-3.594 8.0829,-5.4302 12.5251,-4.8213 3.8264,0.5245 11.9357,4.6134 13.7672,6.9419 1.9764,2.5126 2.9877,6.7482 2.4567,10.2893 -0.5214,3.4765 -4.161,7.9796 -7.6201,9.4277 -2.1652,0.9065 -7.7341,1.1538 -9.6896,0.4304 z m 10.445,-2.8049 c 3.6573,-2.0878 4.8205,-4.4396 4.8155,-9.7357 0,-4.7622 -0.014,-4.7873 -2.8731,-7.3242 -6.2523,-5.5484 -14.9589,-6.8245 -20.6893,-3.0323 -4.4486,2.944 -5.8362,9.1458 -3.0109,13.4577 1.0763,1.6426 9.5598,6.9848 12.5869,7.9262 2.3385,0.7272 6.7138,0.111 9.1709,-1.2917 z m -3.3213,-39.9429 c -2.6876,-0.6574 -12.5352,-7.0808 -13.9919,-9.1265 -1.9358,-2.7186 -2.4465,-7.8125 -1.0534,-10.5066 1.816,-3.5116 6.0713,-6.7971 9.8542,-7.6084 4.2375,-0.9088 6.7267,-0.4679 11.9755,2.1209 7.2672,3.5844 9.8375,6.9528 9.8375,12.8922 0,8.5745 -7.8751,14.3681 -16.6219,12.2284 z m 11.6395,-4.4782 c 2.7698,-3.0224 3.8662,-6.8822 3.022,-10.6393 -0.8081,-3.5966 -1.9898,-4.8548 -7.4742,-7.9577 -3.883,-2.1969 -5.0557,-2.5326 -8.8834,-2.5433 -3.4477,-0.01 -4.9624,0.3312 -6.942,1.562 -3.7555,2.3351 -5.4912,5.1397 -5.4361,8.7839 0.071,4.6679 2.5211,7.2608 11.3604,12.0208 2.9672,1.5978 3.9419,1.7849 7.7793,1.4933 3.9561,-0.3005 4.6018,-0.5677 6.574,-2.7197 z"
       style="fill:#000000;stroke-width:0.678446" />
  </g>
</svg>
