<?xml version="1.0" encoding="UTF-8" standalone="no"?>
<svg
   xmlns:dc="http://purl.org/dc/elements/1.1/"
   xmlns:cc="http://creativecommons.org/ns#"
   xmlns:rdf="http://www.w3.org/1999/02/22-rdf-syntax-ns#"
   xmlns:svg="http://www.w3.org/2000/svg"
   xmlns="http://www.w3.org/2000/svg"
   xmlns:sodipodi="http://sodipodi.sourceforge.net/DTD/sodipodi-0.dtd"
   xmlns:inkscape="http://www.inkscape.org/namespaces/inkscape"
   width="250mm"
   height="100mm"
   viewBox="0 0 250 100"
   version="1.1"
   id="svg8"
   inkscape:version="1.0.1 (3bc2e813f5, 2020-09-07)"
   sodipodi:docname="warning.svg">
  <defs
     id="defs2" />
  <sodipodi:namedview
     id="base"
     pagecolor="#ffffff"
     bordercolor="#666666"
     borderopacity="1.0"
     inkscape:pageopacity="0.0"
     inkscape:pageshadow="2"
     inkscape:zoom="0.35"
     inkscape:cx="200.63977"
     inkscape:cy="13.660001"
     inkscape:document-units="mm"
     inkscape:current-layer="layer1"
     inkscape:document-rotation="0"
     showgrid="false"
     inkscape:window-width="1264"
     inkscape:window-height="967"
     inkscape:window-x="0"
     inkscape:window-y="0"
     inkscape:window-maximized="0" />
  <metadata
     id="metadata5">
    <rdf:RDF>
      <cc:Work
         rdf:about="">
        <dc:format>image/svg+xml</dc:format>
        <dc:type
           rdf:resource="http://purl.org/dc/dcmitype/StillImage" />
        <dc:title></dc:title>
      </cc:Work>
    </rdf:RDF>
  </metadata>
  <g
     inkscape:groupmode="layer"
     id="layer3"
     inkscape:label="いろ">
    <path
       style="fill:#ff5a5a;fill-opacity:1;stroke:#ababab;stroke-width:1.7431;stroke-opacity:0;paint-order:stroke fill markers"
       d="m 116.74663,19.167101 c -5.9685,5.477917 -14.63177,5.907516 -22.221613,4.726918 -5.016542,-0.533214 -9.793506,-2.200833 -14.68275,-3.242328 -1.337672,1.2266 -0.517911,3.76002 -2.261954,4.85168 -4.210863,3.211124 -9.80339,1.757524 -14.693612,2.040721 -4.249967,0.08684 -8.452797,-0.738203 -12.669795,-1.238261 -1.443183,0.842667 0.635566,2.287286 1.26755,2.969919 1.933083,1.916917 4.766593,4.62425 3.48742,7.562477 -2.828766,2.783538 -7.310466,2.217269 -10.952935,2.591025 -1.597028,0.54506 -5.663282,-0.887582 -5.607146,1.244105 1.271469,0.783466 3.230792,3.074657 1.304461,4.282498 -5.896768,3.526629 -13.024155,3.89681 -19.510806,5.615752 -0.782825,1.569096 1.863159,1.375701 2.753615,1.631501 5.588956,0.940257 11.498416,1.398116 16.441964,4.435313 2.637966,1.52236 1.19982,4.93309 -0.718302,6.359893 -0.07372,1.73518 2.511066,0.801661 3.570375,0.972685 4.566578,-0.0926 9.573839,-0.358201 13.802502,1.744019 2.525498,2.030778 0.08025,5.135812 -1.149432,7.135773 -0.402114,1.83243 2.203601,0.812631 3.043084,0.623848 6.975081,-1.706809 14.389394,-2.699245 21.363696,-1.317784 3.294185,0.935858 5.741554,4.022685 6.013659,7.395633 1.208585,1.203611 2.846954,-1.066699 4.174755,-1.246565 6.636485,-3.482287 14.367224,-5.608267 21.729454,-3.111641 5.10065,1.512896 8.57682,5.82648 12.00636,9.601888 1.63695,0.357804 2.67533,-1.837798 3.93848,-2.612612 5.18332,-5.259641 13.23974,-7.098975 20.19516,-4.788929 1.70138,0.296711 3.41741,1.73487 5.0916,1.306676 0.98758,-1.967756 2.23531,-3.94885 4.42277,-4.787455 7.60188,-3.319193 16.10423,-1.236829 23.82625,0.529677 2.51478,0.507135 4.9918,1.5387 7.52879,1.747041 0.93702,-1.391025 -1.5302,-2.327645 -2.10692,-3.403261 -1.1786,-1.330809 -3.3516,-3.929232 -1.28379,-5.411999 4.96353,-2.735614 10.94421,-1.900767 16.2611,-2.817106 0.0322,-1.691622 -2.68021,-1.646463 -3.81889,-2.636237 -1.35055,-0.533059 -3.19692,-2.223368 -1.39379,-3.459366 5.25968,-3.14661 11.53817,-3.284048 17.47395,-4.226573 1.55533,-0.543693 3.66404,0.323156 4.88644,-0.837719 -0.14873,-1.666936 -2.67651,-1.268814 -3.84916,-1.793171 -5.15248,-1.100222 -10.68762,-1.782426 -15.2224,-4.627256 -1.59823,-0.890431 -2.1801,-3.02379 -0.67622,-4.258876 1.49384,-1.96578 3.9745,-2.778035 5.78776,-4.252232 -1.03824,-1.614615 -4.00084,-0.461783 -5.77964,-0.963396 -4.40601,-0.357076 -9.81703,-0.194273 -12.89918,-3.920027 -1.62492,-3.159974 1.56136,-5.786866 2.65839,-8.453524 -0.77345,-1.434145 -2.73168,0.23265 -3.96737,0.229092 -7.58726,2.343139 -15.43599,3.830418 -23.34584,3.310003 -4.28071,0.05398 -8.85696,-2.582042 -9.33571,-7.194835 -1.47884,-0.986354 -3.30594,1.254257 -4.92329,1.638882 -7.36824,3.351988 -16.55555,4.889391 -23.82801,0.329253 -2.22666,-1.082093 -3.7986,-3.162261 -5.84017,-4.400619 z"
       id="path885" />
    <path
       style="fill:#ff5a5a;fill-opacity:1;stroke:#ababab;stroke-width:1.23256;stroke-opacity:0;paint-order:stroke fill markers"
       d="m 116.66503,18.962086 c -3.78178,3.874325 -9.31967,5.481894 -14.58237,5.316156 -7.04194,0.415549 -14.022477,-1.534909 -20.766907,-3.444036 -1.544979,-1.049909 -2.489623,0.24181 -2.343555,1.790306 -0.07592,2.010799 -1.683784,3.427872 -3.48338,4.039319 -4.085394,1.587439 -8.572417,0.83194 -12.836122,0.955493 -4.361172,-0.05291 -8.65123,-0.973842 -12.919887,-1.59861 -1.229998,0.860795 0.557307,2.018522 1.121963,2.72425 1.918845,2.045206 4.774588,4.200621 4.44528,7.322892 -0.610314,2.015125 -3.157278,2.412494 -4.926153,2.8752 -3.96187,0.51308 -8.060287,0.06409 -12.017273,0.71519 -1.064273,1.163656 1.092642,1.703345 1.593699,2.500953 0.72766,0.639146 1.064272,1.718789 0.04855,2.291628 -2.887371,2.488395 -6.8533,2.979795 -10.382273,4.056025 -3.167661,0.910714 -6.491479,1.227079 -9.662419,2.029055 -1.032494,0.799084 0.415857,1.55443 1.207411,1.465286 5.851424,0.934612 11.915311,1.406536 17.301525,4.07638 1.465332,0.782249 3.241822,2.550991 2.13659,4.327472 -0.340371,1.151451 -1.439506,1.799823 -2.012873,2.736379 0.298478,1.423898 2.285802,0.684374 3.327287,0.904761 4.731628,0.222645 9.826868,-0.639728 14.133451,1.812304 2.279238,1.411311 0.777949,4.345911 -0.566922,5.876115 -0.540594,0.612791 -1.80085,2.259528 -0.262554,2.416029 5.908032,-1.192514 11.776411,-2.887895 17.836059,-2.634186 3.761534,-0.146008 8.08835,0.592923 10.659467,3.639055 0.990381,1.329794 1.29204,2.983082 1.476767,4.573858 0.985824,0.943824 2.301557,-0.718101 3.354633,-0.933948 5.539653,-3.013403 11.831806,-5.1983 18.189796,-4.411964 6.26817,0.278726 11.56681,4.379561 15.20472,9.157168 0.5724,0.712648 1.51518,2.330445 2.47213,1.163506 4.19052,-4.456322 9.74939,-8.512527 16.17343,-8.066829 3.07071,-0.09395 6.18962,0.309481 9.02247,1.604338 1.03701,0.339575 3.11663,1.444882 3.51209,-0.266747 0.64719,-2.558158 3.2876,-4.128312 5.66956,-4.877149 6.56358,-1.533745 13.34373,-0.536903 19.8505,0.839396 3.25277,0.638526 6.38777,1.864783 9.66138,2.417953 1.41872,-0.587196 -0.28613,-1.818894 -0.89421,-2.373062 -1.6442,-1.480013 -3.81669,-3.568274 -3.10022,-5.979633 2.30755,-1.945928 5.56284,-2.411807 8.48648,-2.654969 2.86516,-0.305457 5.87832,-0.05355 8.63913,-0.784561 0.26837,-1.411897 -1.91986,-1.397879 -2.79433,-2.055678 -1.31906,-0.764257 -3.52008,-1.460339 -3.51104,-3.259958 1.05155,-1.723395 3.42938,-1.987486 5.17858,-2.650572 5.83705,-1.694963 11.92297,-1.933254 17.86715,-2.996541 1.13676,-0.669324 -0.25923,-1.59562 -1.07691,-1.518528 -5.88809,-1.250918 -12.17641,-1.797418 -17.47431,-4.876626 -1.63117,-0.817284 -2.65198,-3.094093 -1.13224,-4.53001 1.68669,-2.018903 4.37574,-2.832418 6.28762,-4.487204 -0.58737,-1.524741 -2.99227,-0.386728 -4.33321,-0.738497 -4.62751,-0.130966 -9.74124,-0.03203 -13.76856,-2.71095 -2.03415,-1.337955 -1.69287,-4.097356 -0.54059,-5.903788 0.56049,-1.386652 1.8605,-2.330765 2.40574,-3.699645 -0.27624,-1.387168 -1.98971,-0.283159 -2.85839,-0.207462 -7.14654,1.919708 -14.3527,4.102185 -21.85099,3.833871 -3.80452,0.0968 -8.50756,-0.398643 -10.86409,-3.899943 -0.86389,-1.1646 -0.88777,-2.710672 -1.53524,-3.928131 -1.80498,0.234974 -3.33153,1.735431 -5.10499,2.322327 -6.97529,3.129341 -15.50723,4.418648 -22.55532,0.686544 -2.59963,-1.225944 -4.4512,-3.583509 -6.75795,-5.128758 l -0.24577,0.105016 z m 62.07022,23.053561 c 1.87924,0.05721 4.65709,0.395353 5.38349,2.483728 -0.0729,1.677696 -2.08847,1.709584 -3.25734,1.196448 -2.93637,-1.226153 -6.51897,0.590029 -7.31494,3.653031 -0.70815,2.967217 -0.72768,6.827975 1.80772,8.958749 1.75396,1.030923 4.31033,1.727391 6.12476,0.522013 0.61945,-1.122212 0.66443,-2.736438 0.19471,-3.91926 -0.93826,-0.714372 -2.74798,-0.07147 -3.13572,-1.598396 -0.32881,-1.613939 1.57417,-2.012161 2.75778,-1.818145 1.37006,0.06621 3.41282,-0.466653 3.87071,1.348335 0.11088,2.449201 0.401,4.997741 -0.28502,7.386453 -1.77097,2.783048 -5.56874,2.619171 -8.46597,2.352704 -4.41076,-0.738206 -7.50408,-4.984528 -7.52739,-9.345039 -0.4696,-4.808947 2.61725,-9.926436 7.50756,-10.92986 0.73739,-0.179337 1.58105,-0.287795 2.33965,-0.290761 z m -16.65267,0.370107 c 1.3494,0.203075 2.20053,1.500716 1.82025,2.829298 -0.12542,5.331097 0.26587,10.692622 -0.26465,15.991276 -0.30979,1.536996 -2.38688,1.178938 -3.47921,0.830522 -2.21669,-1.8903 -3.07083,-4.910685 -4.53001,-7.350956 -1.20088,-2.068462 -1.90847,-4.454782 -3.26778,-6.382626 -1.5933,0.383554 -0.2992,2.726108 -0.5313,3.961982 0.0538,3.139385 0.78996,6.364393 -0.24702,9.392097 -1.11655,1.537184 -4.05509,0.20841 -3.3059,-1.733076 0,-5.437611 0,-10.875224 0,-16.312838 1.25422,-2.087263 4.45601,-1.219734 5.26544,0.816687 2.21616,3.764619 3.94785,7.847338 6.15217,11.577878 1.64736,0.347133 0.57318,-2.147168 0.67647,-3.123763 -0.12801,-3.100716 -0.62009,-6.304209 -0.007,-9.378858 0.2842,-0.66962 0.96321,-1.207378 1.71846,-1.117623 z m -31.58426,0.0089 c 1.34843,0.146534 2.26634,1.492848 1.86671,2.820424 0,5.348523 0,10.697046 0,16.045569 -1.09748,1.764853 -4.10432,1.301766 -4.93561,-0.496433 -2.37467,-3.843009 -4.11611,-8.024016 -6.20984,-12.005204 -1.18003,-0.806174 -1.26862,1.103368 -1.06078,1.84844 0.16382,3.618543 0.85108,7.320399 0.10289,10.877138 -0.90987,1.260652 -3.53238,1.127884 -3.3487,-0.826344 -0.3455,-5.662899 -0.0952,-11.362891 -0.17383,-17.046784 1.29738,-2.143546 4.56226,-1.155457 5.35478,0.931791 2.18919,3.723952 3.88628,7.768912 6.05814,11.461826 1.72237,0.271288 0.53602,-2.453386 0.70064,-3.559677 -0.0457,-3.044103 -0.82958,-6.205998 0.11872,-9.153933 0.30896,-0.52669 0.90232,-0.922385 1.52688,-0.896813 z m 9.85191,-5.29e-4 c 1.33989,0.119248 2.3088,1.324486 1.90377,2.673742 0,5.427517 0,10.855041 0,16.282561 -0.93075,1.650407 -4.38937,1.159393 -3.86601,-1.069078 0,-5.556634 0,-11.113262 0,-16.669896 0.53748,-0.540355 1.11344,-1.258316 1.96224,-1.217329 z m -78.261427,0.0037 c 2.336506,0.350631 2.325859,3.304355 2.864117,5.073272 0.827804,3.501869 1.321173,7.13091 2.276805,10.568022 1.604291,0.736224 1.056124,-2.190888 1.397217,-3.202882 0.592035,-3.794376 0.732674,-7.772601 1.80307,-11.394392 0.645601,-1.466012 3.34619,-1.317043 3.372712,0.405603 -0.957336,5.863138 -1.87811,11.782917 -3.269874,17.54165 -1.05994,1.367396 -3.143951,0.922708 -4.5535,0.718288 -1.852065,-1.212511 -1.471653,-3.786986 -2.123398,-5.654474 -0.543878,-2.268169 -0.79814,-4.643524 -1.314564,-6.886315 -1.151107,-0.931659 -1.651701,1.028988 -1.681398,1.869321 -0.744027,3.256782 -0.877162,6.722271 -2.169477,9.811194 -0.995006,1.532176 -3.136779,1.169099 -4.639633,0.747519 -1.553546,-1.061391 -1.110128,-3.350442 -1.680951,-4.942257 -0.819676,-4.525026 -1.790041,-9.064885 -2.412137,-13.601655 0.984718,-2.009286 4.327051,-0.825868 4.090998,1.315468 0.698508,4.196379 1.2495,8.453197 1.733079,12.663461 0.956183,1.121966 1.620091,-0.666797 1.660514,-1.474681 0.898091,-4.134028 1.476698,-8.395187 2.817294,-12.434298 0.370078,-0.626017 1.072624,-1.155393 1.829126,-1.122844 z m 22.671973,0.01304 c 1.589799,-0.09371 2.986249,1.032232 3.146272,2.630041 1.701892,5.469387 3.544641,10.931035 4.889563,16.485472 -0.487545,1.220232 -2.522106,0.915028 -3.337737,0.215591 -1.150684,-1.126024 -0.856232,-3.215465 -2.084914,-4.111879 -2.11909,0.08842 -4.341982,-0.381839 -6.399853,0.03706 -0.647795,1.640178 -0.71619,4.518877 -3.050109,4.627626 -0.90892,0.265403 -2.209808,-0.369068 -1.704363,-1.465284 1.683281,-5.837147 3.331765,-11.760935 5.46232,-17.416891 0.693486,-0.943864 2.003666,-1.021826 3.078821,-1.001739 z m 16.994584,-0.0063 c 3.03995,0.137422 6.89931,-0.298326 8.88775,2.575602 1.95554,2.976372 0.91597,7.368775 -2.13972,9.169641 -0.87604,1.265973 0.91006,2.430854 1.24865,3.587781 0.61311,1.342697 1.71598,2.689352 1.95493,4.093086 -1.80465,1.250651 -4.24522,0.05939 -5.06455,-1.817643 -1.05074,-1.555731 -1.55868,-3.490253 -2.75621,-4.899591 -1.30038,-0.06401 -3.57549,-0.437367 -3.04373,1.632868 -0.27659,1.604471 0.33902,3.560017 -0.57642,4.965348 -1.206973,1.28405 -3.851354,0.448996 -3.572118,-1.466328 0,-5.544625 0,-11.089249 0,-16.633875 0.854218,-1.462712 2.392347,-1.272654 3.879588,-1.206889 0.39394,0 0.78788,0 1.18183,0 z"
       id="path887" />
    <path
       style="fill:#ff5a5a;fill-opacity:1;stroke:#ababab;stroke-width:0.308139;stroke-opacity:0;paint-order:stroke fill markers"
       d="m 188.16852,24.125424 c -2.65734,0.707591 -5.26831,1.572286 -7.93301,2.237335 -4.02692,1.025427 -8.1192,1.892898 -12.26465,2.284008 -1.78261,0.173357 -3.58818,0.133524 -5.38089,0.167433 -0.67771,0.09349 -0.53647,0.89307 -0.54156,1.389777 0.012,3.915048 -0.024,7.836662 0.018,11.747614 0.11311,0.628237 0.91858,0.59545 1.26137,1.061357 0.35284,0.35891 0.58506,0.830046 0.49134,1.342872 0,5.559113 0,11.11822 0,16.677333 -0.26218,0.655778 -0.84592,1.131776 -1.48841,1.376159 -0.49187,0.374943 -0.20571,1.089707 -0.28225,1.622401 0.012,2.620986 -0.024,5.248529 0.018,7.865419 0.0544,0.550603 0.67158,0.588561 1.09536,0.475007 2.04905,-0.03612 4.09514,-0.08725 6.11144,0.08522 6.41249,0.645287 12.65879,2.212039 18.79866,4.120491 0.41107,0.194183 0.97895,0.180579 1.19671,-0.288017 0.33054,-0.475747 -0.0332,-1.031833 -0.46107,-1.286497 -1.37524,-1.027861 -2.6893,-2.178034 -3.72528,-3.554317 -0.60785,-0.948489 -1.30559,-2.135394 -0.79807,-3.278283 0.53004,-0.837467 1.541,-1.176906 2.4137,-1.544984 2.70009,-0.993552 5.55822,-1.312786 8.42583,-1.412298 2.09912,-0.117009 4.21718,-0.148037 6.31348,-0.22098 0.64642,-0.04716 0.76869,-1.034037 0.14682,-1.233773 -1.93885,-0.899943 -3.97285,-1.563944 -5.64777,-2.92326 -0.45387,-0.391382 -1.02407,-0.971423 -0.72742,-1.625671 0.51717,-0.900703 1.57041,-1.285756 2.46572,-1.706584 2.96564,-1.17248 6.13983,-1.726647 9.26073,-2.271008 3.81516,-0.621618 7.71367,-0.968037 11.57376,-1.416738 0.74095,-0.06277 0.90602,-1.123768 0.33748,-1.514092 -0.64205,-0.340669 -1.41673,-0.264271 -2.11431,-0.425823 -4.65079,-0.72426 -9.34073,-1.56573 -13.8064,-3.15223 -1.62433,-0.631372 -3.34749,-1.291807 -4.55782,-2.599941 -0.41683,-0.459854 -0.68777,-1.0566 -0.59532,-1.685835 -0.0264,-0.820116 0.57544,-1.492779 1.08187,-2.074984 1.65141,-1.682655 3.81799,-2.671898 5.89104,-3.702489 0.4894,-0.176694 0.7297,-0.895991 0.23978,-1.213091 -0.45256,-0.25717 -0.98392,-0.02315 -1.48319,-0.08099 -3.0893,0.01942 -6.21791,0.138975 -9.26793,-0.240779 -2.39121,-0.3043 -4.85704,-0.732031 -6.94862,-2.033884 -1.10644,-0.710385 -2.19441,-1.854856 -2.08465,-3.272094 0.18511,-2.046023 1.35482,-3.87259 2.6295,-5.37808 0.37943,-0.510516 0.94057,-0.927253 1.14673,-1.54274 0.0734,-0.45312 -0.37028,-0.839396 -0.8086,-0.772967 z m -9.37348,17.935114 c 1.74575,0.03162 3.55547,0.473033 4.96262,1.540063 0.78898,0.861857 -0.0388,2.430087 -1.18365,2.331823 -0.57163,0.0588 -1.11944,-0.09327 -1.62835,-0.346151 -1.0162,-0.444588 -2.15818,-0.326345 -3.23484,-0.27191 -2.03377,0.385032 -3.64781,2.048161 -4.26626,3.984117 -0.51005,1.492824 -0.48196,3.111246 -0.35092,4.664035 0.22035,1.649675 0.8545,3.347366 2.2333,4.373727 1.09576,0.866312 2.51246,1.239501 3.89576,1.16468 0.82138,0.0274 1.75378,-0.01421 2.38898,-0.600054 0.46937,-0.668735 0.2162,-1.545691 0.27364,-2.305323 -0.0682,-0.615037 0.12578,-1.307547 -0.15671,-1.866775 -0.43439,-0.428556 -1.1247,-0.196702 -1.67944,-0.295662 -0.90663,0.03873 -1.67425,-0.901914 -1.43018,-1.785016 0.16007,-0.734814 0.92708,-1.266217 1.67563,-1.161992 1.22614,0.01797 2.4709,-0.12999 3.68555,0.09031 0.58599,0.194656 1.09304,0.73791 1.22223,1.330081 -0.009,2.107891 0.08,4.235178 -0.0284,6.328209 -0.18827,1.079585 -0.83004,2.152584 -1.90816,2.530174 -1.43854,0.654484 -3.014,0.984697 -4.59517,0.944628 -1.78778,0.03281 -3.5867,-0.429643 -5.15774,-1.276874 -1.49319,-0.860046 -2.76681,-2.135793 -3.46981,-3.723494 -1.01513,-2.081003 -1.21551,-4.452181 -1.00695,-6.719073 0.29437,-2.910173 1.75059,-5.813533 4.28839,-7.38103 1.62014,-1.03927 3.5486,-1.569683 5.47047,-1.548488 z"
       id="path889" />
    <path
       style="fill:#ff5a5a;fill-opacity:1;stroke:#ababab;stroke-width:0.308139;stroke-opacity:0;paint-order:stroke fill markers"
       d="m 188.40304,24.051166 c -2.64758,0.711872 -5.26706,1.577322 -7.91911,2.246969 -3.99709,1.031234 -8.01628,1.884539 -12.1165,2.312818 -1.91651,0.205094 -3.85055,0.1729 -5.77746,0.203247 -0.67771,0.09349 -0.53647,0.89307 -0.54156,1.389777 0.012,3.915048 -0.024,7.836662 0.018,11.747614 0.11311,0.628237 0.91858,0.59545 1.26137,1.061357 0.35284,0.35891 0.58506,0.830046 0.49134,1.342872 0,5.559113 0,11.11822 0,16.677333 -0.26218,0.655778 -0.84592,1.131776 -1.48841,1.376159 -0.49187,0.374943 -0.20571,1.089707 -0.28225,1.622401 0.012,2.620986 -0.024,5.248529 0.018,7.865419 0.0544,0.550603 0.67158,0.588561 1.09536,0.475007 2.04905,-0.03612 4.09514,-0.08725 6.11144,0.08522 6.35276,0.627727 12.49704,2.187459 18.59903,4.05388 0.57586,0.101867 1.2308,0.505701 1.79529,0.175712 0.4487,-0.327014 0.22768,-0.981146 -0.20512,-1.206111 -1.60592,-1.166561 -3.18716,-2.429086 -4.38018,-4.031821 -0.60785,-0.948489 -1.30559,-2.135394 -0.79807,-3.278283 0.51699,-0.822333 1.50671,-1.159338 2.35923,-1.525053 3.2949,-1.237763 6.84928,-1.409589 10.30588,-1.51145 1.55141,-0.05632 3.10465,-0.07256 4.65508,-0.149196 0.57927,-0.08087 0.70108,-0.928275 0.16247,-1.161344 -1.99424,-0.901875 -4.11007,-1.5997 -5.83491,-2.991384 -0.45209,-0.391248 -1.01922,-0.970243 -0.72311,-1.622539 0.51717,-0.900703 1.57041,-1.285756 2.46572,-1.706584 2.94314,-1.165407 6.10019,-1.715743 9.18752,-2.263571 4.05913,-0.66118 8.1596,-0.997421 12.24141,-1.497388 0.69329,-0.04448 0.94659,-1.098749 0.30016,-1.403686 -0.91025,-0.297736 -1.89322,-0.306861 -2.83152,-0.490691 -4.64883,-0.731293 -9.30511,-1.551056 -13.74055,-3.163319 -1.50304,-0.604525 -3.10347,-1.221425 -4.30484,-2.37182 -0.48213,-0.497951 -0.86467,-1.15834 -0.75406,-1.875192 -0.0272,-0.813104 0.56641,-1.478039 1.06935,-2.05568 1.77227,-1.812314 4.13202,-2.857987 6.38276,-3.936614 0.53356,-0.299548 0.27218,-1.179957 -0.34009,-1.136941 -4.35318,0.117094 -8.74942,0.30375 -13.06103,-0.563613 -2.15494,-0.47395 -4.49279,-1.113274 -5.94486,-2.90032 -0.71683,-0.788646 -0.80573,-1.925595 -0.5371,-2.915888 0.51179,-2.219952 2.04411,-3.997243 3.49703,-5.675495 0.38273,-0.327469 0.39562,-1.076037 -0.17799,-1.180325 -0.0846,-0.03784 -0.16793,-0.03882 -0.25763,-0.02148 z m -9.608,18.009372 c 1.74575,0.03162 3.55547,0.473033 4.96262,1.540063 0.78898,0.861857 -0.0388,2.430087 -1.18365,2.331823 -0.57163,0.0588 -1.11944,-0.09327 -1.62835,-0.346151 -1.0162,-0.444588 -2.15818,-0.326345 -3.23484,-0.27191 -2.03377,0.385032 -3.64781,2.048161 -4.26626,3.984117 -0.51005,1.492824 -0.48196,3.111246 -0.35092,4.664035 0.22035,1.649675 0.8545,3.347366 2.2333,4.373727 1.09576,0.866312 2.51246,1.239501 3.89576,1.16468 0.82138,0.0274 1.75378,-0.01421 2.38898,-0.600054 0.46937,-0.668735 0.2162,-1.545691 0.27364,-2.305323 -0.0682,-0.615037 0.12578,-1.307547 -0.15671,-1.866775 -0.43439,-0.428556 -1.1247,-0.196702 -1.67944,-0.295662 -0.90663,0.03873 -1.67425,-0.901914 -1.43018,-1.785016 0.16007,-0.734814 0.92708,-1.266217 1.67563,-1.161992 1.22614,0.01797 2.4709,-0.12999 3.68555,0.09031 0.58599,0.194656 1.09304,0.73791 1.22223,1.330081 -0.009,2.107891 0.08,4.235178 -0.0284,6.328209 -0.18827,1.079585 -0.83004,2.152584 -1.90816,2.530174 -1.43854,0.654484 -3.014,0.984697 -4.59517,0.944628 -1.78778,0.03281 -3.5867,-0.429643 -5.15774,-1.276874 -1.49319,-0.860046 -2.76681,-2.135793 -3.46981,-3.723494 -1.01513,-2.081003 -1.21551,-4.452181 -1.00695,-6.719073 0.29437,-2.910173 1.75059,-5.813533 4.28839,-7.38103 1.62014,-1.03927 3.5486,-1.569683 5.47047,-1.548488 z"
       id="path891" />
    <path
       style="fill:#ff5a5a;fill-opacity:1;stroke:#ababab;stroke-width:0.308139;stroke-opacity:0;paint-order:stroke fill markers"
       d="m 190.03247,36.425041 c -0.65585,0.283127 -0.36858,1.091837 -0.43026,1.648901 0.0147,8.699225 -0.0322,17.398796 0.0313,26.097799 0.0413,0.501613 -0.10621,1.274149 0.51892,1.462603 0.573,0.03648 1.14967,-0.170992 1.72901,-0.195831 3.22242,-0.342146 6.45572,-0.304551 9.69437,-0.442256 0.60782,-0.04967 0.73294,-0.963806 0.16365,-1.177785 -2.01357,-0.932347 -4.19987,-1.630286 -5.92398,-3.076668 -0.47387,-0.392014 -0.97793,-1.15625 -0.4948,-1.723353 0.89258,-1.052192 2.26755,-1.495721 3.52488,-1.950624 3.45518,-1.093624 7.06628,-1.714992 10.6611,-2.215724 3.35341,-0.461664 6.73662,-0.743138 10.09863,-1.16881 0.55219,0.01132 0.96968,-0.653124 0.6073,-1.106911 -0.39521,-0.419492 -1.05323,-0.270502 -1.56876,-0.418661 -5.44982,-0.8143 -10.89257,-1.666674 -16.08416,-3.576746 -1.49477,-0.605586 -3.0637,-1.21558 -4.17778,-2.443922 -0.58316,-0.629647 -0.8696,-1.577673 -0.47947,-2.383893 0.59238,-1.327716 1.83694,-2.25461 2.99132,-3.034982 1.38606,-0.900068 2.91316,-1.557587 4.36555,-2.329424 0.55103,-0.321185 0.18301,-1.208265 -0.42934,-1.097992 -2.3992,0.135144 -4.81612,0.07528 -7.21463,0.07691 -2.46484,-0.02315 -4.93042,-0.387612 -7.32393,-0.948336 -0.0863,0.0019 -0.17262,0.0038 -0.25894,0.0057 z"
       id="path893" />
    <path
       style="fill:#ff5a5a;fill-opacity:1;stroke:#ababab;stroke-width:0.308139;stroke-opacity:0;paint-order:stroke fill markers"
       d="m 190.03247,36.425041 c -0.65585,0.283127 -0.36858,1.091837 -0.43026,1.648901 0.0147,8.699225 -0.0322,17.398796 0.0313,26.097799 0.0413,0.501613 -0.10621,1.274149 0.51892,1.462603 0.573,0.03648 1.14967,-0.170992 1.72901,-0.195831 3.22242,-0.342146 6.45572,-0.304551 9.69437,-0.442256 0.60782,-0.04967 0.73294,-0.963806 0.16365,-1.177785 -2.01357,-0.932347 -4.19987,-1.630286 -5.92398,-3.076668 -0.47387,-0.392014 -0.97793,-1.15625 -0.4948,-1.723353 0.89258,-1.052192 2.26755,-1.495721 3.52488,-1.950624 3.36975,-1.067795 6.90192,-1.685251 10.40003,-2.18077 3.70059,-0.49911 7.43762,-0.846945 11.16072,-1.266066 0.55578,-0.153001 0.57395,-0.996064 0.0223,-1.164476 -2.42705,-0.436716 -4.86921,-0.723252 -7.28961,-1.177063 -3.92114,-0.714367 -7.84752,-1.55126 -11.52079,-3.075106 -1.3762,-0.628092 -2.88162,-1.330899 -3.66308,-2.698015 -0.52091,-0.877421 -0.11156,-1.938996 0.48821,-2.657424 1.75392,-2.16811 4.41532,-3.192431 6.81594,-4.460153 0.55103,-0.321185 0.18301,-1.208265 -0.42934,-1.097992 -2.3992,0.135144 -4.81612,0.07528 -7.21463,0.07691 -2.46484,-0.02315 -4.93042,-0.387612 -7.32393,-0.948336 -0.0863,0.0019 -0.17262,0.0038 -0.25894,0.0057 z"
       id="path895" />
    <path
       style="fill:#ff5a5a;fill-opacity:1;stroke:#ababab;stroke-width:0.308139;stroke-opacity:0;paint-order:stroke fill markers"
       d="m 79.416521,20.596369 c -0.464407,0.394589 -0.327012,1.07976 -0.453237,1.618364 -0.114186,1.090329 -0.297783,2.302846 -1.207682,3.035332 -1.25303,1.186349 -3.036173,1.597816 -4.629703,2.011209 -2.827822,0.657063 -5.754674,0.47335 -8.623385,0.426265 -4.243863,-0.09753 -8.476977,-0.72199 -12.6717,-1.400411 -0.837186,-0.09198 -1.672251,-0.412131 -2.525313,-0.375645 -0.585076,0.06533 -0.771474,0.851146 -0.354444,1.231554 1.141598,1.197914 2.522146,2.144614 3.646964,3.36351 1.205127,1.282057 2.465179,2.727505 2.71439,4.535297 0.118562,0.948523 -0.218345,2.004282 -1.100008,2.4819 -1.607646,0.942472 -3.446338,1.335844 -5.281591,1.580957 -3.028831,0.293087 -6.067947,0.137517 -9.114223,0.107841 -0.595254,0.04876 -1.217079,-0.156046 -1.793306,0.02783 -0.516448,0.269701 -0.745574,1.178365 -0.116291,1.467999 0.981094,0.627385 2.127695,1.242533 2.609284,2.36343 0.249166,0.766403 -0.482227,1.374611 -1.016355,1.80694 -2.048923,1.492941 -4.560511,2.149494 -6.977744,2.857701 -4.247279,1.160021 -8.612652,1.996678 -12.981077,2.620804 -0.617347,0.131315 -0.644573,1.003194 -0.286289,1.399085 0.372909,0.369628 0.977392,0.223697 1.452743,0.33827 4.853347,0.530291 9.734416,1.179822 14.392338,2.640488 1.845853,0.632344 3.793432,1.337302 5.158462,2.796675 0.679071,0.69043 0.9061,1.769922 0.473904,2.650898 -0.507116,1.212484 -1.643145,1.967195 -2.417302,2.982769 -0.383868,0.517697 0.179529,1.265256 0.782755,1.095701 2.179599,-0.183018 4.374612,-0.131236 6.5682,-0.155951 1.669968,0.02745 3.343461,-0.03976 5.008317,0.133866 1.802966,0.347313 3.77662,0.619403 5.383485,1.634056 0.727757,0.440452 1.15738,1.270579 1.074417,2.120535 -0.01156,1.830337 -1.317733,3.269059 -2.430854,4.585274 -0.316084,0.438817 -0.972071,0.949166 -0.6443,1.550313 0.333383,0.551997 1.030748,0.281143 1.511742,0.142248 5.452396,-1.434148 10.955546,-2.755292 16.580233,-2.756975 2.444787,0.01431 4.975516,0.003 7.31442,0.846545 0.504687,0.232048 1.02903,-0.265586 0.927047,-0.782354 0.0043,-3.166742 0.01315,-6.340118 -0.03551,-9.502648 -0.05595,-0.582239 -0.810763,-0.663763 -1.15665,-0.272629 -0.641062,0.573241 -1.557573,0.54814 -2.357213,0.459854 -0.482729,-0.238657 -0.874297,-0.796642 -0.638027,-1.346134 0.74983,-2.859609 1.717829,-5.685737 2.573285,-8.527913 0.534678,-1.781902 1.14001,-3.547575 1.630206,-5.339696 -0.01939,-8.615952 0.02835,-17.232471 -0.06251,-25.848016 0.02902,-0.479557 -0.489048,-0.859502 -0.927481,-0.605142 z M 62.172286,42.45296 c 0.880383,0.07744 1.740401,0.737066 1.854793,1.646455 0.838306,3.289062 1.63167,6.623296 2.235044,9.954347 0.286914,1.430779 0.463315,2.890197 0.838467,4.299908 0.222449,0.563247 1.116597,0.429416 1.181701,-0.165738 0.496842,-3.637325 0.882864,-7.298163 1.429612,-10.92233 0.194755,-1.154658 0.265618,-2.33925 0.581303,-3.468725 0.411671,-1.143085 2.078964,-1.835729 3.027273,-0.916651 0.383886,0.327228 0.425921,0.836152 0.324252,1.298344 -0.518666,3.694729 -1.231644,7.365127 -1.846906,11.054287 -0.358282,1.894805 -0.602122,3.816548 -1.072914,5.687279 -0.292386,0.703067 -0.974085,1.28315 -1.722999,1.390846 -0.959368,-0.04362 -1.979578,0.185113 -2.895753,-0.181737 -0.688385,-0.335529 -1.244309,-0.995471 -1.333479,-1.772489 -0.835771,-3.783332 -1.65192,-7.589903 -2.227289,-11.412069 -0.01326,-0.560416 -0.799409,-0.869447 -1.128,-0.38245 -0.299705,0.57091 -0.28647,1.265881 -0.438809,1.888903 -0.595064,3.326262 -1.206754,6.6495 -1.934578,9.935371 -0.112773,0.731687 -0.561171,1.386718 -1.240687,1.701234 -0.809223,0.397539 -1.773491,0.209121 -2.619581,0.220549 -1.139238,0.02439 -2.086896,-1.011841 -2.167374,-2.097752 -0.939581,-5.048512 -1.904656,-10.155028 -2.765629,-15.196595 -0.04173,-0.553151 -0.264379,-1.14037 -0.102314,-1.685573 0.245869,-0.542105 0.824957,-0.968052 1.418304,-0.854943 0.670465,-0.06364 1.35776,0.13144 1.816857,0.648486 0.677862,0.578427 0.581157,1.526686 0.754046,2.317208 0.634961,4.247504 1.142558,8.514476 1.708542,12.773863 0.08563,0.629772 1.06989,0.673913 1.218893,0.06055 0.416719,-1.945931 0.719204,-3.906216 1.141,-5.852697 0.620792,-2.933462 1.194048,-5.889395 1.986499,-8.7884 0.324922,-0.774004 1.156266,-1.222706 1.979726,-1.179484 z"
       id="path897" />
    <path
       style="fill:#ff5a5a;fill-opacity:1;stroke:#ababab;stroke-width:0.308139;stroke-opacity:0;paint-order:stroke fill markers"
       d="m 18.895928,50.454733 c -0.48592,0.05067 -1.190766,0.143224 -1.20467,0.771924 0.07152,0.662475 0.875107,0.736825 1.396639,0.665174 0.739742,-0.13728 0.700235,-1.376778 -0.06408,-1.432529 -0.04244,-0.005 -0.08523,-0.0062 -0.127892,-0.0046 z"
       id="path899" />
    <path
       style="fill:#ff5a5a;fill-opacity:1;stroke:#ababab;stroke-width:0.0544719;stroke-opacity:0;paint-order:stroke fill markers"
       d="m 37.242401,39.075943 c -0.287295,0.03604 -0.525068,0.297421 -0.524177,0.588449 -0.01042,0.24438 0.148443,0.470348 0.364663,0.574961 0.175639,0.113525 0.383887,0.215223 0.598226,0.163902 0.241792,-0.04201 0.423017,-0.24651 0.489041,-0.475943 0.111073,-0.27186 0.0012,-0.614096 -0.258899,-0.756579 -0.177887,-0.107529 -0.394291,-0.08757 -0.593549,-0.09784 -0.0251,0.0011 -0.0502,0.0021 -0.07531,0.003 z"
       id="path901" />
  </g>
  <g
     inkscape:groupmode="layer"
     id="layer2"
     inkscape:label="レイヤー 2"
     style="display:inline">
    <path
       style="fill:#000000;stroke-width:0.229356"
       d="m 122.74442,86.697165 c -0.0892,-0.10873 -0.56016,-0.87492 -1.04657,-1.70263 -1.21158,-2.06175 -3.1392,-4.36493 -4.94539,-5.90892 -4.9435,-4.22586 -10.54801,-5.59135 -17.301598,-4.21541 -2.906751,0.59221 -8.379096,2.94172 -11.782883,5.05889 -1.452443,0.90343 -2.875902,1.64259 -3.16324,1.64259 -0.434265,0 -0.559419,-0.45363 -0.741578,-2.68787 -0.274246,-3.36378 -1.09831,-4.63046 -3.888897,-5.97771 -4.467065,-2.15664 -12.468188,-1.64202 -23.644867,1.52082 -6.199008,1.75422 -6.628408,1.71181 -4.115724,-0.40658 1.916118,-1.61545 3.453889,-3.61401 3.874293,-5.03523 0.855149,-2.89093 -1.596087,-4.38054 -7.912232,-4.80825 -2.362937,-0.16002 -6.943956,-0.0174 -9.713072,0.30224 -1.752134,0.20229 -2.818205,0.1783 -2.818205,-0.0634 0,-0.11408 0.637989,-0.66845 1.41775,-1.23193 1.912361,-1.38194 2.809553,-2.66604 2.809553,-4.02118 0,-1.67239 -0.946395,-2.58622 -4.017735,-3.8795 -3.844444,-1.61883 -8.847068,-2.53486 -18.103044,-3.31489 -4.161249,-0.35068 -4.671616,-0.42664 -4.579579,-0.68165 0.08,-0.22165 0.78544,-0.36967 3.097921,-0.65002 7.646651,-0.92704 15.095238,-2.5174 19.109986,-4.08021 5.517554,-2.14778 5.545128,-4.16557 0.08966,-6.56094 -2.113803,-0.92812 -2.844994,-1.50441 -1.908784,-1.50441 0.209907,0 1.676249,0.148 3.258545,0.32889 2.21655,0.2534 3.88763,0.33053 7.280333,0.33598 4.970996,0.008 6.320859,-0.18017 8.362598,-1.1659 1.577151,-0.76143 1.960464,-1.41073 1.763628,-2.98748 -0.248335,-1.98924 -1.517136,-3.62121 -5.351985,-6.88388 -2.42416,-2.06245 -3.228502,-2.8822 -2.961756,-3.01844 0.285014,-0.14557 1.042362,-0.0434 3.416096,0.4607 9.169933,1.94753 18.033715,2.65344 22.783533,1.81452 4.48208,-0.79165 6.590038,-3.07715 5.803518,-6.29234 -0.503773,-2.05939 -0.340184,-2.102 3.163017,-0.82392 9.198531,3.35592 19.015695,4.72858 25.269058,3.53319 4.01366,-0.76725 7.42186,-2.63196 9.43435,-5.16175 0.56447,-0.70958 0.95816,-0.98241 1.46381,-1.01444 0.58575,-0.0371 0.81824,0.14182 1.51801,1.16837 0.45448,0.66672 1.69693,1.96318 2.76098,2.88103 1.63068,1.40661 2.35601,1.84713 4.61602,2.80356 2.11003,0.89295 3.08323,1.19091 4.56765,1.39846 4.43505,0.62009 8.5757,-0.0678 13.81299,-2.29491 1.85332,-0.7881 4.28764,-1.99083 5.40959,-2.67274 2.84591,-1.72973 3.17813,-1.6633 3.26744,0.65338 0.14485,3.75659 2.36635,5.94839 6.88552,6.79348 5.88414,1.10035 15.37427,-0.41395 27.53364,-4.39342 1.91856,-0.62789 3.62766,-1.14163 3.79801,-1.14163 0.78948,0 0.60615,0.54367 -0.57717,1.71151 -4.75274,4.69059 -5.64864,8.26525 -2.63253,10.50384 1.9244,1.42829 5.11502,2.10217 10.54282,2.22668 2.22302,0.051 4.40326,-8.6e-4 6.49381,-0.15612 4.82792,-0.35726 4.86179,-0.22857 0.4482,1.70296 -4.82288,2.11065 -7.31878,4.36755 -6.81684,6.16409 0.88013,3.15007 8.73665,5.68962 22.99137,7.43173 3.17602,0.38816 4.00865,0.54513 4.00865,0.75575 0,0.15515 -0.33,0.29531 -0.79261,0.33664 -0.43593,0.0389 -2.93269,0.24078 -5.54834,0.44855 -6.74338,0.53563 -10.52656,1.02692 -14.97169,1.94424 -7.47311,1.5422 -9.66422,3.06831 -7.38507,5.14374 0.98706,0.89883 4.51315,2.45592 7.47113,3.2992 1.00831,0.28746 1.83737,0.63844 1.84236,0.77997 0.009,0.2366 -0.43774,0.25001 -5.53924,0.16653 -4.53926,-0.0742 -5.96479,-0.0456 -7.83814,0.15767 -2.94388,0.31943 -5.16518,0.9033 -6.50046,1.70864 -0.9015,0.54373 -1.08198,0.80823 -1.1942,1.75026 -0.0851,0.71407 0.0791,1.47524 0.46043,2.13484 0.79211,1.37012 3.7431,3.91064 6.85396,5.90059 2.33696,1.49488 2.80446,2.0355 1.7602,2.0355 -0.22196,0 -1.30914,-0.33254 -2.41595,-0.73899 -9.40651,-3.4543 -20.18191,-5.83138 -26.43385,-5.83138 -6.51235,0 -10.75982,2.29213 -11.48357,6.19706 -0.36711,1.98063 -0.80439,2.16083 -2.58355,1.06468 -0.58256,-0.35892 -1.89263,-0.99852 -2.91124,-1.42132 -8.34257,-3.46286 -16.74951,-1.00484 -22.94834,6.70963 -1.06067,1.32001 -1.66842,1.87182 -2.10043,1.90709 -0.33434,0.0272 -0.68088,-0.0394 -0.77007,-0.14807 z m 5.25436,-6.0961 c 1.65258,-1.37117 4.49552,-3.00443 6.25716,-3.5947 2.42684,-0.81315 4.33909,-1.08083 7.21681,-1.01019 3.12242,0.0766 5.20143,0.51114 8.21852,1.7176 1.30121,0.52032 2.46545,0.94604 2.5872,0.94604 0.12176,0 0.22413,-0.21838 0.2275,-0.48531 0.0207,-1.63976 2.14448,-3.96098 4.60914,-5.03752 3.45724,-1.51009 8.69022,-1.83204 15.01953,-0.92403 4.77578,0.68513 9.84666,1.86363 15.18026,3.52799 1.19671,0.37345 2.25317,0.67898 2.34772,0.67898 0.0946,0 -0.30191,-0.32642 -0.881,-0.72536 -4.14462,-2.85528 -6.14156,-6.0943 -4.91321,-7.96915 0.83248,-1.2706 4.06719,-2.4178 8.1673,-2.89655 1.02106,-0.11923 3.62451,-0.25756 5.78544,-0.30741 l 3.92896,-0.0906 -2.3519,-0.98646 c -7.67016,-3.21717 -6.26996,-6.06398 4.01381,-8.16068 3.55863,-0.72555 5.88827,-1.05784 11.92434,-1.70086 l 5.23953,-0.55816 -3.77977,-0.55346 c -9.21127,-1.34879 -15.78535,-3.27985 -18.27936,-5.36934 -2.95469,-2.47546 -1.12267,-5.59674 4.97136,-8.46988 l 1.60126,-0.75495 -3.48494,0.0973 c -9.41883,0.26305 -15.28347,-1.36656 -16.73789,-4.65098 -0.79637,-1.79837 0.34701,-4.90726 2.7813,-7.56252 0.58354,-0.63651 0.98579,-1.15728 0.89389,-1.15728 -0.0919,0 -1.46202,0.39815 -3.04472,0.88479 -5.95568,1.8312 -12.06256,3.16774 -16.8491,3.68754 -3.42668,0.37212 -7.70073,0.23735 -10.10851,-0.31874 -4.13576,-0.95517 -6.49859,-3.03274 -7.03352,-6.18434 l -0.239,-1.4081 -1.50589,0.84661 c -5.26066,2.95755 -11.30123,4.73214 -16.10788,4.73214 -3.57106,0 -7.2369,-0.86153 -10.05911,-2.36403 -2.02908,-1.08025 -4.33297,-2.83058 -5.47902,-4.16257 l -0.9561,-1.11121 -1.17088,1.07154 c -2.56342,2.34594 -6.15765,3.86061 -10.4402,4.39971 -2.3115,0.29098 -6.785998,0.28807 -9.5373,-0.006 -3.25853,-0.34852 -9.666164,-1.73243 -13.091041,-2.82738 -1.67375,-0.53512 -3.090565,-0.97293 -3.14847,-0.97293 -0.05794,0 -0.181555,0.78956 -0.274757,1.75458 -0.185499,1.92059 -0.764294,2.84749 -2.412147,3.86286 -1.13265,0.69792 -3.69877,1.44563 -5.783702,1.68527 -2.51316,0.28885 -7.761865,0.19837 -11.625081,-0.20039 -3.066538,-0.31653 -8.416508,-1.12905 -10.406216,-1.58044 -0.461365,-0.10466 -0.05909,0.34306 1.378328,1.53396 3.816985,3.16241 5.537124,5.7595 5.255335,7.93454 -0.187017,1.44351 -0.984571,2.20243 -3.134233,2.9824 -0.808948,0.29352 -2.274153,0.64678 -3.256019,0.78501 -1.978299,0.27854 -6.504824,0.35177 -10.006356,0.16187 l -2.203133,-0.11948 1.39356,0.84328 c 3.832171,2.31895 3.183004,4.44331 -1.983871,6.49212 -3.430103,1.36014 -10.502831,3.00771 -16.316087,3.80078 -2.600475,0.35477 -2.790394,0.46679 -0.990684,0.58436 0.835509,0.0546 3.098958,0.30549 5.029895,0.55758 15.186203,1.98263 20.500393,5.82508 14.993226,10.84093 l -1.0201,0.9291 1.650157,-0.10781 c 0.907585,-0.0593 3.56603,-0.10564 5.907654,-0.10303 4.087876,0.005 4.350909,0.0243 6.602532,0.49412 3.704341,0.77303 5.168495,1.88316 5.168495,3.91878 0,1.44968 -0.699061,2.88453 -2.267984,4.6551 -0.668572,0.75451 -1.184768,1.38445 -1.147103,1.39984 0.03764,0.0154 1.53554,-0.36295 3.328628,-0.84082 7.357075,-1.96073 13.946868,-2.65215 19.097477,-2.00378 1.38885,0.17483 2.350763,0.43713 3.696401,1.00795 3.118542,1.32289 4.62956,3.13408 5.065769,6.07208 l 0.232701,1.56729 2.541511,-1.4343 c 4.854301,-2.73955 10.028201,-4.39638 14.645435,-4.68987 3.77179,-0.23977 8.27029,0.66729 11.35417,2.28939 2.28513,1.20196 5.83746,4.31608 7.57188,6.63781 0.81216,1.08719 1.55254,2.0775 1.64529,2.2007 0.0928,0.12318 0.91977,-0.58238 1.83782,-1.56794 0.91803,-0.98555 2.11459,-2.1615 2.65899,-2.61321 z"
       id="path882" />
  </g>
  <g
     inkscape:label="レイヤー 1"
     inkscape:groupmode="layer"
     id="layer1"
     style="display:inline">
    <text
       xml:space="preserve"
       style="font-style:normal;font-weight:normal;font-size:11.7934px;line-height:1.25;font-family:sans-serif;fill:#000000;fill-opacity:1;stroke:none;stroke-width:0.294835"
       x="48.659039"
       y="62.925755"
       id="text839"><tspan
         sodipodi:role="line"
         id="tspan837"
         x="48.659039"
         y="62.925755"
         style="font-style:normal;font-variant:normal;font-weight:normal;font-stretch:normal;font-size:28.3041px;font-family:'Corporate Logo Rounded';-inkscape-font-specification:'Corporate Logo Rounded, Normal';font-variant-ligatures:normal;font-variant-caps:normal;font-variant-numeric:normal;font-variant-east-asian:normal;stroke-width:0.294835">WARNING</tspan></text>
  </g>
</svg>
