<?xml version="1.0" standalone="no"?>
<!DOCTYPE svg PUBLIC "-//W3C//DTD SVG 20010904//EN"
 "http://www.w3.org/TR/2001/REC-SVG-20010904/DTD/svg10.dtd">
<svg version="1.0" xmlns="http://www.w3.org/2000/svg"
 width="1000.000000pt" height="1000.000000pt" viewBox="0 0 1000.000000 1000.000000"
 preserveAspectRatio="xMidYMid meet">
<metadata>
Created by potrace 1.11, written by Peter Selinger 2001-2013
</metadata>
<g transform="translate(0.000000,1000.000000) scale(0.100000,-0.100000)"
fill="#000000" stroke="none">
<path d="M6680 9840 c-152 -41 -308 -134 -405 -242 -64 -71 -112 -161 -160
-302 -52 -150 -60 -186 -40 -186 10 0 15 11 15 34 0 50 71 244 122 333 88 154
280 296 464 343 95 24 269 27 362 5 257 -61 484 -262 582 -518 45 -116 60
-195 60 -328 0 -231 -77 -428 -228 -577 -46 -46 -82 -88 -80 -93 5 -15 156
141 199 205 89 132 135 319 126 511 -12 246 -102 442 -280 611 -93 89 -184
143 -307 185 -84 28 -111 32 -225 36 -107 3 -143 0 -205 -17z"/>
<path d="M6775 9800 c-128 -15 -247 -66 -366 -156 -111 -85 -173 -176 -235
-347 -24 -67 -44 -137 -44 -157 0 -24 -7 -43 -20 -55 -23 -21 -60 -18 -210 14
-250 53 -577 81 -943 81 -386 0 -552 -23 -877 -122 -91 -28 -173 -50 -182 -50
-10 0 -20 -3 -23 -9 -9 -13 -61 -11 -72 4 -5 6 -15 39 -22 72 -16 74 -55 158
-119 256 -153 233 -402 362 -672 346 -272 -16 -496 -170 -629 -435 -94 -186
-100 -487 -15 -680 35 -78 149 -239 212 -300 55 -51 56 -53 44 -85 -7 -19 -12
-43 -12 -54 0 -11 -8 -27 -18 -36 -20 -18 -26 -30 -168 -347 -320 -712 -408
-964 -668 -1918 -52 -192 -55 -206 -43 -249 11 -41 10 -46 -8 -59 -29 -22 -51
-17 -83 19 -99 108 -157 176 -184 215 -72 105 -119 253 -162 511 -45 268 -51
343 -51 661 1 303 2 315 41 545 l7 40 -32 -28 c-20 -16 -44 -27 -63 -27 -42 0
-98 29 -111 57 -9 21 -12 22 -20 8 -7 -12 -3 -21 12 -32 65 -45 91 -97 98
-199 7 -87 -10 -180 -43 -246 -89 -176 -329 -294 -469 -229 -47 22 -89 64
-104 104 -26 68 -6 229 39 317 l20 40 -35 -17 c-32 -15 -38 -15 -67 -1 -32 15
-33 14 -62 -16 l-29 -31 6 -115 c9 -179 115 -914 163 -1127 29 -130 64 -243
123 -395 22 -57 62 -162 90 -234 141 -368 318 -754 345 -754 18 0 57 -50 79
-100 9 -19 23 -46 31 -60 8 -14 36 -68 62 -120 26 -52 75 -147 110 -211 l63
-116 -9 -194 c-13 -282 -12 -555 5 -888 18 -347 29 -454 50 -483 10 -16 15
-47 15 -105 0 -45 4 -115 10 -155 5 -40 21 -185 35 -323 14 -137 34 -304 45
-370 10 -66 31 -194 45 -285 94 -600 166 -998 200 -1117 l16 -53 3449 0 c1898
0 3450 3 3450 8 0 7 12 135 51 527 17 174 22 328 30 900 10 715 15 844 45
1180 14 155 18 301 18 645 1 397 -1 468 -22 660 -39 363 -73 614 -88 644 -12
25 -11 33 7 77 21 49 26 52 64 50 55 -4 242 198 365 394 204 326 291 559 340
910 40 290 36 932 -11 1717 l-13 206 -24 -9 c-33 -13 -56 -4 -87 33 -18 21
-29 28 -36 21 -7 -7 7 -24 43 -52 75 -60 98 -102 98 -176 -1 -113 -71 -209
-198 -272 -75 -38 -77 -38 -196 -38 -113 0 -125 2 -179 29 -70 34 -118 80
-151 144 l-25 47 -1 -76 c0 -58 4 -80 16 -90 10 -8 14 -23 11 -42 -2 -16 4
-63 15 -105 58 -247 62 -488 13 -1013 -14 -150 -75 -486 -115 -636 -23 -85
-69 -180 -104 -212 -22 -21 -28 -22 -42 -10 -20 16 -23 24 -94 234 -68 201
-138 382 -472 1220 -138 347 -262 659 -276 695 -14 36 -49 111 -79 167 -29 57
-53 110 -53 119 0 40 -105 184 -237 326 -73 78 -72 98 10 173 171 159 247 338
247 585 0 147 -18 234 -74 355 -147 319 -460 502 -791 465z m-4145 -1546 c-18
-21 -24 -10 -9 18 8 14 14 18 17 10 2 -7 -2 -19 -8 -28z m1506 -995 c92 -44
171 -149 193 -259 30 -144 -57 -298 -212 -375 -50 -25 -83 -35 -117 -35 -128
0 -235 77 -291 208 -30 68 -34 87 -34 167 0 78 4 97 27 141 51 96 107 145 198
171 65 19 175 10 236 -18z m2133 -112 c60 -36 123 -108 143 -164 7 -21 13 -74
13 -118 -1 -147 -70 -248 -198 -287 -76 -23 -130 -21 -225 7 -229 68 -254 470
-36 575 95 46 211 41 303 -13z m-1078 -217 c92 -28 173 -80 262 -168 180 -177
286 -402 342 -726 17 -101 20 -320 5 -416 -22 -139 -104 -244 -245 -317 -169
-87 -350 -119 -625 -109 -328 11 -361 16 -432 71 -160 122 -246 317 -255 580
-10 284 65 546 216 751 91 125 192 210 330 279 143 72 285 92 402 55z m1789
-516 c113 -33 180 -107 180 -198 0 -94 -65 -169 -178 -207 -56 -19 -80 -21
-191 -17 -145 6 -217 27 -268 80 -43 46 -53 70 -53 123 0 96 74 169 220 216
71 23 217 25 290 3z m-3585 -35 c57 -11 138 -46 207 -90 82 -53 101 -138 49
-222 -59 -91 -153 -127 -337 -127 -228 0 -379 69 -415 189 -54 181 196 307
496 250z m4427 -1276 c29 -26 22 -56 -23 -98 -23 -22 -93 -110 -157 -195 -321
-432 -339 -454 -500 -621 -149 -154 -342 -333 -577 -534 -71 -60 -160 -137
-199 -170 -305 -261 -550 -393 -856 -464 -281 -65 -612 -47 -820 45 -166 72
-208 104 -630 479 -218 195 -321 283 -544 470 -206 172 -228 191 -513 448
-126 114 -162 160 -149 192 13 35 74 8 225 -99 51 -36 162 -100 245 -142 83
-42 199 -103 258 -135 138 -76 422 -201 568 -250 146 -49 278 -66 575 -74 530
-16 936 39 1368 185 669 226 1258 562 1598 912 70 72 97 82 131 51z"/>
<path d="M3880 7240 c-106 -36 -181 -150 -181 -274 0 -105 54 -233 122 -287
51 -40 144 -72 191 -66 93 13 208 99 263 198 26 48 30 64 30 134 -1 63 -6 90
-23 126 -36 72 -87 125 -154 158 -74 37 -161 41 -248 11z m200 -153 c57 -38
75 -80 75 -175 0 -83 0 -84 -37 -117 -67 -62 -153 -57 -226 14 -51 49 -72 127
-53 191 27 91 163 140 241 87z"/>
<path d="M6030 7161 c-128 -42 -198 -154 -188 -300 10 -134 83 -235 188 -259
162 -38 283 9 341 132 24 50 29 74 29 136 0 123 -57 212 -172 271 -46 24 -154
35 -198 20z m181 -144 c48 -32 84 -108 84 -179 0 -76 -23 -105 -109 -141 -105
-44 -166 -22 -212 77 -29 62 -30 105 -5 154 51 99 164 141 242 89z"/>
<path d="M4990 6913 c-56 -9 -159 -47 -220 -80 -328 -178 -519 -565 -497
-1007 11 -212 67 -363 181 -480 103 -107 117 -110 476 -122 295 -10 491 28
650 128 67 42 93 66 127 116 62 91 67 119 68 347 0 185 -2 209 -29 320 -67
283 -161 462 -328 620 -141 135 -274 184 -428 158z m212 -50 c72 -28 139 -76
218 -157 152 -155 232 -313 298 -590 23 -99 26 -131 26 -301 1 -219 -5 -247
-68 -332 -99 -134 -280 -207 -576 -229 -98 -7 -446 12 -505 27 -57 16 -172
134 -213 219 -58 123 -77 216 -76 390 0 174 24 303 83 457 102 264 358 489
611 537 44 8 158 -4 202 -21z"/>
<path d="M4940 6419 c-19 -6 -49 -10 -66 -9 -45 1 -68 -29 -61 -80 7 -53 56
-157 96 -203 18 -20 31 -40 29 -44 -5 -13 -150 -146 -178 -165 -20 -13 -22
-19 -13 -29 10 -10 22 -5 60 25 l47 37 23 -86 c34 -128 82 -205 128 -205 30 0
52 32 100 145 20 50 41 94 45 98 4 4 32 -20 63 -53 32 -34 62 -58 68 -55 13 9
-11 48 -63 100 -73 73 -158 168 -158 176 0 4 24 21 54 38 44 25 59 40 81 85
54 110 44 165 -37 205 -51 24 -167 35 -218 20z m134 -422 c25 -30 46 -59 46
-64 0 -14 -88 -213 -101 -230 -23 -27 -68 36 -104 146 -34 103 -20 159 49 202
37 22 50 16 110 -54z"/>
<path d="M7712 5031 c-334 -348 -956 -702 -1626 -925 -216 -72 -325 -100 -517
-130 -261 -42 -376 -50 -714 -50 -345 1 -482 11 -629 48 -122 31 -363 131
-561 232 -88 45 -239 122 -337 172 -97 49 -220 121 -275 159 -89 64 -153 103
-167 103 -21 0 33 -63 126 -147 272 -243 422 -373 663 -575 116 -96 305 -260
421 -364 383 -343 459 -401 612 -465 209 -87 529 -101 807 -37 293 67 537 203
854 473 386 329 612 536 768 701 147 156 204 226 408 504 86 118 182 241 213
272 36 37 53 62 49 72 -11 29 -38 17 -95 -43z m-243 -333 c-185 -255 -250
-330 -483 -564 -374 -373 -789 -728 -1006 -859 -180 -108 -368 -179 -575 -217
-109 -20 -411 -17 -515 6 -102 21 -249 81 -322 129 -63 42 -239 192 -444 378
-202 184 -302 272 -489 429 -138 115 -301 257 -434 377 l-36 33 65 -29 c36
-16 189 -92 340 -169 272 -137 472 -223 613 -262 145 -41 251 -52 574 -57 414
-7 638 11 973 77 537 107 1350 477 1749 797 36 29 67 50 69 48 2 -2 -33 -54
-79 -117z"/>
<path d="M2935 9734 c-11 -2 -51 -12 -90 -20 -242 -55 -461 -251 -556 -497
-48 -125 -62 -220 -57 -377 4 -118 9 -147 36 -227 17 -51 50 -122 72 -159 54
-89 162 -227 195 -248 43 -28 40 -11 -4 30 -56 50 -168 204 -208 286 -50 102
-76 222 -75 358 0 252 79 448 247 616 277 275 713 296 1027 50 138 -109 273
-328 303 -489 4 -21 11 -35 16 -30 9 9 -19 126 -45 186 -27 61 -95 167 -153
240 -96 117 -256 218 -412 258 -73 19 -254 33 -296 23z"/>
<path d="M4710 9239 c-231 -12 -462 -56 -702 -135 -70 -23 -108 -41 -108 -50
0 -19 4 -18 91 11 93 32 308 89 414 109 167 32 283 39 575 39 371 -2 671 -28
939 -84 57 -11 98 -16 104 -10 15 15 -24 29 -143 51 -186 33 -462 61 -710 70
-257 10 -251 10 -460 -1z"/>
<path d="M8872 8318 c-28 -31 -35 -52 -88 -257 l-45 -176 4 -230 c3 -197 7
-241 25 -305 55 -195 69 -391 48 -700 -24 -349 -40 -475 -91 -730 -49 -243
-65 -302 -94 -339 l-18 -24 -23 74 c-43 143 -164 461 -447 1169 -157 393 -296
746 -310 785 -14 38 -73 162 -130 276 -89 177 -117 222 -188 307 -93 111 -96
114 -112 104 -8 -5 22 -47 83 -117 52 -61 104 -129 116 -152 12 -24 25 -43 29
-43 3 0 12 -21 18 -47 7 -27 32 -84 56 -128 52 -97 29 -40 339 -820 350 -880
426 -1078 480 -1240 72 -217 75 -224 94 -218 25 7 78 125 101 223 78 337 105
539 132 992 14 226 5 369 -36 575 -14 67 -22 129 -19 137 3 9 -2 23 -11 32
-15 15 -16 41 -13 228 4 210 4 212 47 381 43 168 60 217 82 230 18 12 31 -10
49 -87 12 -51 22 -74 33 -76 10 -2 17 1 17 7 0 25 64 151 76 151 10 0 64 -89
64 -106 0 -1 -11 -5 -25 -8 -33 -8 -65 -61 -65 -108 0 -63 69 -97 128 -64 33
18 62 66 62 102 0 31 -25 64 -48 64 -7 0 -12 3 -12 8 1 10 105 72 122 72 7 -1
25 -19 40 -40 31 -44 44 -48 89 -24 49 25 73 16 80 -30 5 -31 2 -46 -16 -72
-27 -40 -39 -107 -25 -134 7 -14 21 -20 44 -20 60 0 110 83 86 144 -13 35 -13
36 4 36 27 0 28 -20 6 -133 -20 -102 -21 -124 -11 -242 24 -290 35 -645 35
-1110 1 -418 -2 -508 -17 -615 -34 -243 -97 -473 -173 -640 -113 -247 -371
-604 -500 -692 -38 -26 -75 -45 -82 -43 -21 7 -37 -40 -24 -72 19 -47 47 -270
99 -783 13 -128 17 -261 17 -495 0 -307 -7 -447 -39 -840 -25 -310 -35 -624
-35 -1095 0 -551 -13 -772 -75 -1313 -5 -43 -4 -48 12 -45 15 3 20 22 30 138
6 74 21 223 33 330 19 169 23 282 30 850 8 650 12 740 51 1270 30 402 36 874
15 1120 -30 342 -76 739 -102 861 -5 24 2 32 65 73 150 100 353 367 507 668
98 192 169 449 206 738 27 217 13 1315 -23 1707 -9 98 -8 124 11 218 11 58 20
114 20 125 0 33 -29 52 -74 48 -39 -3 -41 -2 -46 32 -4 20 -10 41 -14 48 -10
16 -75 15 -106 -3 -35 -20 -37 -19 -60 25 -17 34 -25 40 -53 40 -19 0 -50 -12
-77 -30 -25 -16 -50 -30 -57 -30 -6 0 -21 21 -33 46 -26 53 -60 74 -85 54 -9
-8 -28 -37 -42 -64 l-26 -51 -12 40 c-18 63 -34 85 -59 85 -12 0 -32 -10 -44
-22z m316 -174 c30 -21 28 -50 -7 -85 -33 -32 -62 -37 -85 -13 -23 23 -19 61
9 89 28 29 51 31 83 9z m386 -79 c11 -42 -26 -95 -66 -95 -14 0 -4 85 12 105
19 23 47 18 54 -10z"/>
<path d="M8895 8227 c-9 -32 -5 -39 15 -27 11 7 11 14 3 32 l-11 23 -7 -28z"/>
<path d="M9057 8214 c-23 -47 -21 -52 8 -24 25 24 32 45 17 54 -5 3 -16 -11
-25 -30z"/>
<path d="M9262 8203 c-21 -18 -21 -18 -2 -41 l19 -23 22 22 c16 16 19 26 12
37 -14 23 -28 25 -51 5z"/>
<path d="M9456 8171 c-3 -5 1 -14 9 -21 13 -10 15 -9 15 9 0 21 -14 28 -24 12z"/>
<path d="M8871 8144 c-27 -23 -31 -32 -31 -78 0 -57 20 -96 50 -96 24 0 76 61
85 99 9 43 -2 69 -35 86 -37 19 -33 20 -69 -11z m68 -32 c7 -13 4 -30 -9 -59
-31 -71 -60 -66 -60 10 0 59 46 92 69 49z"/>
<path d="M2485 8126 c-15 -19 -24 -39 -21 -44 7 -12 -43 -132 -88 -211 -20
-36 -34 -71 -31 -79 3 -8 -37 -110 -89 -226 -227 -510 -316 -768 -531 -1541
-58 -209 -110 -384 -114 -388 -14 -14 -128 121 -170 202 -90 174 -150 491
-171 905 -17 339 8 607 85 904 41 159 51 284 23 290 -11 2 -35 -20 -69 -62
-29 -36 -57 -66 -63 -66 -5 0 -24 16 -42 36 -49 53 -80 46 -117 -26 -15 -30
-31 -58 -36 -63 -6 -6 -33 9 -66 37 -72 58 -102 67 -127 37 -10 -13 -22 -39
-28 -59 -18 -68 -21 -69 -92 -44 -35 12 -73 22 -85 22 -39 0 -73 -41 -103
-125 l-28 -80 -44 3 c-33 2 -49 -2 -61 -16 -20 -21 -37 -110 -37 -188 0 -44
-4 -54 -24 -67 -21 -14 -25 -26 -31 -99 -7 -86 12 -242 101 -853 61 -420 98
-551 307 -1075 193 -485 320 -747 414 -855 20 -22 82 -128 140 -237 l104 -196
-11 -309 c-5 -169 -8 -355 -5 -413 3 -58 10 -220 16 -360 7 -182 26 -396 65
-745 67 -605 69 -620 99 -780 14 -71 59 -337 101 -590 101 -612 133 -765 159
-765 20 0 19 5 -10 120 -28 110 -90 465 -160 910 -25 162 -55 349 -65 415 -30
184 -86 693 -95 859 -3 44 -9 82 -15 86 -14 9 -37 254 -51 549 -8 169 -10 373
-5 610 4 196 8 372 8 391 0 26 -27 86 -102 225 -56 105 -122 232 -147 283 -42
85 -68 120 -56 72 10 -38 -5 -20 -50 58 -81 141 -186 380 -329 747 -214 548
-217 559 -323 1305 -38 265 -57 429 -58 499 0 101 0 104 26 123 24 17 27 27
27 76 0 69 16 172 29 185 5 5 23 4 45 -2 49 -13 67 5 94 95 21 70 51 114 77
114 8 0 38 -9 67 -20 90 -34 115 -24 139 58 20 67 29 69 96 16 32 -26 63 -51
70 -56 24 -19 51 3 73 57 33 82 43 86 93 37 24 -23 50 -42 59 -42 9 0 32 22
52 49 20 26 43 54 51 61 14 12 15 8 10 -31 -13 -89 -27 -155 -45 -214 -28 -86
-67 -310 -79 -450 -39 -445 42 -1113 165 -1356 24 -48 104 -151 193 -249 39
-43 52 -52 62 -43 9 9 9 17 -4 37 -15 23 -13 36 49 263 230 842 327 1134 542
1628 162 372 268 602 291 631 22 28 28 54 12 54 -5 0 -16 3 -24 6 -9 3 -25 -8
-42 -30z"/>
<path d="M9355 8151 c-35 -7 -65 -57 -65 -107 0 -37 14 -51 59 -60 25 -5 37
-2 55 15 30 28 51 104 36 130 -9 18 -33 32 -48 30 -4 -1 -20 -4 -37 -8z m52
-32 c6 -6 10 -17 8 -23 -2 -6 -6 -23 -9 -38 -8 -36 -39 -53 -67 -37 -17 9 -20
17 -15 42 10 50 57 82 83 56z"/>
<path d="M9000 8040 c0 -11 5 -20 10 -20 6 0 10 9 10 20 0 11 -4 20 -10 20 -5
0 -10 -9 -10 -20z"/>
<path d="M9236 8024 c-9 -22 -8 -24 9 -24 8 0 15 9 15 20 0 24 -15 27 -24 4z"/>
<path d="M8948 7963 c-81 -60 -125 -160 -115 -263 9 -101 66 -178 166 -223 62
-28 222 -30 297 -4 124 43 214 141 222 242 6 71 -9 105 -67 156 -91 80 -162
103 -361 114 -103 6 -106 5 -142 -22z m211 -18 c109 -5 173 -24 243 -74 89
-64 107 -125 64 -217 -29 -61 -91 -117 -165 -146 -82 -32 -227 -32 -294 1 -99
49 -141 113 -142 216 0 88 31 154 95 203 37 28 49 33 78 27 19 -3 73 -8 121
-10z"/>
<path d="M8816 7913 c-4 -27 -9 -61 -12 -78 -4 -21 5 -9 28 35 30 58 32 66 19
77 -25 19 -28 16 -35 -34z"/>
<path d="M1140 7786 c-5 -15 -14 -35 -20 -45 -8 -15 -6 -17 14 -14 44 9 129
-48 138 -92 4 -21 30 47 43 115 l7 35 -25 -24 c-39 -35 -75 -31 -114 14 l-32
38 -11 -27z"/>
<path d="M887 7728 c-10 -24 -12 -37 -5 -30 7 7 30 12 51 12 31 0 46 -7 73
-34 18 -18 36 -31 39 -28 10 10 5 32 -7 32 -7 0 -39 20 -70 45 -32 25 -59 45
-61 45 -2 0 -11 -19 -20 -42z"/>
<path d="M1115 7679 c-85 -53 -67 -178 27 -195 32 -5 41 -2 66 23 33 32 47 88
33 126 -8 21 -78 70 -93 66 -2 0 -16 -9 -33 -20z m83 -41 c19 -19 14 -73 -9
-102 -16 -21 -26 -25 -47 -20 -39 9 -53 32 -46 74 4 19 11 41 17 48 12 15 69
16 85 0z"/>
<path d="M624 7645 c-7 -19 -14 -40 -14 -47 0 -7 -9 -32 -20 -55 -10 -24 -15
-43 -11 -43 5 0 16 20 26 45 31 82 121 120 178 75 23 -19 26 -19 29 -3 2 13
-12 23 -62 40 -91 32 -108 30 -126 -12z"/>
<path d="M878 7659 c-31 -23 -44 -70 -33 -119 5 -23 16 -36 38 -45 33 -14 31
-17 -28 -30 -81 -18 -217 -144 -265 -247 -55 -118 -63 -275 -18 -334 27 -34
92 -63 141 -64 90 0 236 74 302 154 112 137 125 386 24 470 -15 13 -47 27 -70
31 l-42 7 30 15 c57 27 72 115 28 158 -30 30 -70 32 -107 4z m87 -29 c13 -14
16 -28 11 -54 -8 -42 -27 -58 -63 -54 -26 3 -28 6 -28 53 0 43 3 51 25 62 33
17 34 16 55 -7z m53 -213 c34 -31 43 -52 52 -116 10 -74 -4 -170 -35 -236 -58
-121 -241 -231 -350 -211 -55 11 -103 59 -110 110 -9 60 9 165 39 232 27 59
127 172 187 210 78 49 171 54 217 11z"/>
<path d="M664 7577 c-44 -40 -58 -111 -29 -140 60 -60 183 38 154 122 -21 60
-72 67 -125 18z m96 -48 c0 -36 -42 -79 -77 -79 -30 0 -38 20 -23 65 22 68
100 79 100 14z"/>
<path d="M484 7457 c-23 -20 -28 -34 -32 -84 -5 -67 10 -93 54 -93 40 0 61 17
79 64 14 37 15 50 5 80 -19 59 -61 71 -106 33z m75 -39 c13 -22 12 -29 -5 -64
-24 -49 -60 -59 -70 -20 -8 32 2 75 24 99 19 22 33 18 51 -15z"/>
<path d="M627 7371 c-7 -34 -4 -35 22 -7 21 23 21 24 2 29 -15 3 -20 -1 -24
-22z"/>
</g>
</svg>
