<?xml version="1.0" encoding="UTF-8" standalone="no"?>
<svg
   xmlns:dc="http://purl.org/dc/elements/1.1/"
   xmlns:cc="http://creativecommons.org/ns#"
   xmlns:rdf="http://www.w3.org/1999/02/22-rdf-syntax-ns#"
   xmlns:svg="http://www.w3.org/2000/svg"
   xmlns="http://www.w3.org/2000/svg"
   xmlns:sodipodi="http://sodipodi.sourceforge.net/DTD/sodipodi-0.dtd"
   xmlns:inkscape="http://www.inkscape.org/namespaces/inkscape"
   inkscape:version="1.0 (4035a4fb49, 2020-05-01)"
   sodipodi:docname="レッサーパンダ.svg"
   viewBox="0 0 1066.6667 1066.6667"
   height="1066.6667"
   width="1066.6667"
   id="svg10"
   version="1.1">
  <metadata
     id="metadata16">
    <rdf:RDF>
      <cc:Work
         rdf:about="">
        <dc:format>image/svg+xml</dc:format>
        <dc:type
           rdf:resource="http://purl.org/dc/dcmitype/StillImage" />
        <dc:title></dc:title>
      </cc:Work>
    </rdf:RDF>
  </metadata>
  <defs
     id="defs14" />
  <sodipodi:namedview
     inkscape:current-layer="layer4"
     inkscape:window-maximized="1"
     inkscape:window-y="-9"
     inkscape:window-x="-9"
     inkscape:cy="471.40304"
     inkscape:cx="4.1508628"
     inkscape:zoom="0.55021742"
     showgrid="false"
     id="namedview12"
     inkscape:window-height="1001"
     inkscape:window-width="1920"
     inkscape:pageshadow="2"
     inkscape:pageopacity="0"
     guidetolerance="10"
     gridtolerance="10"
     objecttolerance="10"
     borderopacity="1"
     bordercolor="#666666"
     pagecolor="#ff68ff" />
  <g
     style="display:inline"
     inkscape:label="Image 1"
     id="layer1"
     inkscape:groupmode="layer">
    <path
       id="path35"
       d="m 481.04454,40.119042 c -41.30059,1.737788 -84.36351,7.784084 -120.47277,29.149318 -23.86775,13.790384 -45.37399,32.47946 -60.97003,55.51373 -18.30982,24.62361 -33.50995,51.3282 -48.24268,78.14901 -14.86243,30.46986 -15.50915,65.0268 -24.26597,97.22719 -3.92003,12.34685 -3.95281,26.78212 -10.97223,37.79755 -5.61404,4.32696 -17.2516,9.89565 -10.39362,18.51897 -9.32084,6.13281 1.56244,14.07104 5.56599,19.11176 4.05785,12.39059 18.21115,17.82659 26.10899,27.52014 25.27383,21.81455 47.17991,48.33751 76.17491,65.38836 5.32163,4.83282 18.7143,6.53339 15.93996,-4.34266 -12.42735,-33.73583 -14.5208,-70.10449 -1.16077,-103.77999 5.66804,-13.25489 23.8413,-25.67269 37.39644,-16.79734 4.78069,12.82811 -3.74786,26.61068 -6.37532,39.27425 -6.35715,23.80755 -9.26206,49.95585 -2.26118,73.91253 8.07078,19.66197 17.62959,44.30058 41.20176,48.89758 63.14251,18.44274 131.20048,14.04964 193.65568,-4.90928 15.82226,-2.44863 22.2859,-20.99841 27.06318,-34.19814 8.64801,-33.49012 10.70469,-73.14037 -10.95449,-102.39559 -4.09291,-5.81532 -11.06239,-15.65272 -5.20745,-22.06515 20.79663,-7.17462 37.5812,11.85037 47.43508,27.56014 12.84791,26.16729 20.48458,55.04202 18.05952,84.02346 5.20207,10.62723 16.98661,-2.65855 24.31399,-5.18671 20.61223,-12.13277 39.7007,-26.87329 59.29794,-40.37539 4.65485,-3.73123 -1.49687,-11.95309 6.79809,-11.89359 11.3333,-3.73596 2.76627,-13.0391 -3.48264,-16.86991 -17.1234,-19.21911 -11.98784,-47.26208 -14.7704,-70.81117 -1.53457,-36.49807 -2.71483,-74.99316 -22.46217,-107.08796 C 693.18976,155.99999 664.45134,110.53981 622.88834,78.559101 609.93309,68.165756 592.54319,68.278731 578.60897,59.610627 548.18176,45.575506 514.4458,39.550909 481.04454,40.119042 Z M 396.68868,221.35422 c 8.98901,0.42814 17.26047,4.31997 25.3309,7.93365 0.58597,6.22758 -0.72023,13.01131 -8.14309,13.90076 -14.7039,1.95756 -30.5915,3.69251 -44.89347,-1.19981 -3.09626,-15.35513 15.74781,-21.3391 27.70566,-20.6346 z m 189.52026,7.85556 c 11.31135,-1.96145 28.39854,5.03241 23.60573,19.00881 -10.67902,10.60599 -27.65333,4.55567 -40.80178,5.30187 -8.09024,0.12575 -23.67733,-2.83935 -20.07616,-14.31464 8.07988,-10.72036 24.14308,-8.52393 36.08988,-9.97707 l 1.12198,-0.019 z M 397.9311,289.71853 c 17.46704,-2.2506 30.21998,23.94253 16.0164,35.08557 -8.06505,6.75614 -21.41101,11.20462 -29.13621,1.35599 -6.89047,-8.10364 -11.68287,-23.46802 -3.50005,-32.00795 4.66159,-4.1199 10.64177,-4.87095 16.61986,-4.43361 z m 177.35176,1.94525 c 10.64063,0.45306 18.11641,9.93465 17.1949,20.33287 2.31163,12.23485 -7.06399,24.61736 -20.11278,23.64122 -14.07949,3.18837 -20.60773,-16.24943 -19.51643,-27.26904 -1.39805,-13.07958 12.48441,-15.79368 22.43431,-16.70505 z m -92.04103,24.94043 c 28.43151,-0.7989 60.87859,11.73587 70.52965,40.81483 5.0613,16.47323 8.19656,36.69537 -2.70135,52.09233 -9.72689,19.28545 -27.56702,36.99187 -50.60633,36.39467 -17.55268,1.9595 -35.27812,0.43923 -51.51594,-6.84669 -16.89988,-4.55451 -37.43404,-11.03579 -42.22763,-30.30762 -8.15716,-24.84344 -0.7751,-55.57083 20.96205,-71.28608 15.12512,-14.09046 34.82173,-21.79743 55.55955,-20.86144 z"
       style="fill:#c19278;fill-opacity:1;stroke-width:1.81746" />
    <path
       id="path37"
       d="m 673.74891,840.0656 c -10.7382,4.08112 -2.57605,17.36878 -3.43098,25.77603 2.76017,25.63848 -1.852,51.60104 -2.83075,77.36856 -1.0647,9.46598 6.76693,14.94009 14.44386,18.19948 6.71174,4.33927 17.0257,15.47468 22.4637,4.08158 17.80394,-21.09218 15.69284,-49.88547 15.5007,-75.6158 1.10516,-14.1229 -15.44231,-20.38546 -22.76546,-30.49846 -7.69341,-6.0156 -13.80288,-16.6561 -23.38107,-19.31139 z"
       style="fill:#c19278;fill-opacity:1;stroke-width:1.81746" />
    <path
       id="path39"
       d="m 775.11508,897.04236 c -4.62355,15.57469 -1.42452,32.93574 -3.46099,49.05022 -2.43812,21.12217 -11.56444,42.07177 -25.71071,57.94582 -8.48205,3.3021 -13.77487,14.5263 -2.09423,17.7625 20.28734,11.5798 41.54928,24.3511 64.9955,27.3866 16.48795,-5.7243 22.55228,-24.8138 29.59412,-39.2104 13.29803,-33.2483 13.13911,-70.8458 6.30433,-105.56194 -4.24044,-10.00514 -18.21484,-5.38923 -26.74846,-7.46478 -14.16655,0.25412 -29.20437,-3.17322 -42.87956,0.092 z"
       style="fill:#c19278;fill-opacity:1;stroke-width:1.81746" />
    <path
       id="path41"
       d="m 932.4925,884.24912 c -8.32594,1.65161 -23.41122,-3.75259 -26.09054,7.387 0.0986,43.57013 6.43611,87.34273 -0.74544,130.38518 -0.44282,8.6837 -12.80485,19.6937 -3.13442,26.5059 16.06273,1.3265 31.90564,-6.3306 46.38437,-12.6796 12.62884,-9.5461 17.11816,-26.4672 22.91968,-40.56308 6.89684,-30.75667 6.16304,-63.32495 0.35528,-94.20864 -2.30119,-8.7257 -6.88267,-20.27079 -18.17045,-16.84805 -7.17282,0.009 -14.34574,-0.0214 -21.51848,0.0213 z"
       style="fill:#c19278;fill-opacity:1;stroke-width:1.81746" />
  </g>
  <g
     inkscape:label="Image 2"
     id="layer2"
     inkscape:groupmode="layer">
    <path
       id="path44"
       d="m 480.05062,311.99665 c -29.05732,0.26826 -56.2176,18.32044 -72.19447,41.862 -13.58275,24.98371 -12.8787,63.51186 14.02854,79.42528 19.36611,8.65496 40.39687,14.25876 61.36779,17.16651 25.6719,2.77456 54.03744,-7.14877 66.5107,-31.08667 23.81523,-29.1181 13.16104,-77.13994 -19.43059,-94.9963 -15.02783,-9.48963 -32.70427,-12.88497 -50.28197,-12.37082 z m -3.81951,43.11506 c 8.61685,-1.3941 22.58374,4.92026 17.14521,15.33485 -3.9876,3.95516 -10.24567,5.97977 -12.27143,11.66087 -3.04234,-7.77943 -16.99389,-6.88552 -18.12494,-16.33942 2.67682,-4.9607 6.50543,-11.84381 13.25116,-10.6563 z m 4.35552,29.871 c 0.10001,6.27945 6.08939,10.08757 10.89768,12.99203 -6.00466,1.21079 -10.71952,8.30974 -16.39977,2.10144 -5.88595,-1.45605 -6.2031,-2.47625 -1.51573,-5.76832 2.32795,-3.01529 6.01395,-5.86642 7.01782,-9.32515 z"
       style="fill:#fcf8f5;fill-opacity:1;stroke-width:1.81746" />
    <path
       id="path46"
       d="m 355.94485,336.37622 c -24.42832,0.69035 -35.22519,26.74817 -38.74675,47.41609 -4.93043,30.20206 -3.2077,64.03292 14.42398,90.02602 10.6864,9.34875 24.38455,15.36689 37.54553,20.26898 11.98278,-2.88587 1.78202,-14.51469 -0.62121,-21.00732 -7.98446,-17.84757 -13.64548,-37.40846 -10.37942,-57.11521 0.40054,-23.65379 12.98337,-45.31434 13.26181,-68.80447 -0.8158,-7.57181 -8.45214,-11.47411 -15.48394,-10.78409 z"
       style="fill:#fcf8f5;fill-opacity:1;stroke-width:1.81746" />
    <path
       id="path48"
       d="m 611.96225,336.55725 c -9.88206,-1.77806 -18.05597,7.50416 -14.53971,16.97128 5.10455,11.49062 15.18417,20.49582 18.00425,33.25745 9.75462,32.54567 3.73334,67.89314 -7.61418,99.16534 -0.0646,11.12098 13.10016,6.56621 18.21368,2.0411 14.71805,-9.45772 31.40372,-17.1284 43.73982,-29.60833 5.87703,-20.77293 1.97293,-43.59045 -4.37608,-63.88962 -8.29773,-23.25714 -21.17731,-51.71304 -47.79435,-57.56804 -1.86123,-0.29814 -3.74918,-0.42317 -5.63343,-0.36918 z"
       style="fill:#fcf8f5;fill-opacity:1;stroke-width:1.81746" />
    <path
       id="path50"
       d="m 582.26873,225.5074 c -13.70007,-0.20646 -34.4636,2.50345 -37.36449,18.76744 2.31473,11.54414 17.78949,11.8182 27.14481,13.60613 14.17611,0.54671 34.48184,4.6238 42.13533,-11.22071 2.45234,-12.96698 -11.99523,-22.45716 -23.85775,-20.99667 -2.68352,-0.14225 -5.37104,-0.17987 -8.0579,-0.15619 z"
       style="fill:#fcf8f5;fill-opacity:1;stroke-width:1.81746" />
    <path
       id="path52"
       d="m 390.78193,238.35034 c -9.28281,-1.08941 -10.6781,13.76638 -0.73834,13.00977 9.91765,1.59895 12.81614,-12.74823 0.73834,-13.00977 z"
       style="fill:#fcf8f5;fill-opacity:1;stroke-width:1.81746" />
    <path
       id="path54"
       d="m 281.96486,31.205663 c -8.90019,-0.891012 -19.53804,1.194742 -18.43376,12.530557 -7.79278,39.150543 -3.68213,79.54593 1.79971,118.69598 0.69028,9.01048 12.55116,7.88895 14.56101,0.17393 7.03092,-14.17916 20.71623,-26.69122 17.54788,-43.81747 0.6904,-9.90109 -0.99554,-21.98338 4.0416,-30.325803 11.76253,-2.485904 23.96691,7.268933 34.80681,2.232903 C 348.79348,80.138059 364.01545,72.87115 376.23867,62.265828 378.60979,50.520272 361.92546,52.130676 354.69889,48.574507 338.00363,42.998657 322.29158,34.31398 304.35187,32.984015 296.9477,31.880001 289.46156,31.050428 281.96486,31.205663 Z"
       style="fill:#fcf8f5;fill-opacity:1;stroke-width:1.81746" />
    <path
       id="path56"
       d="m 699.29278,22.125445 c -29.82307,2.767297 -56.89335,17.082275 -82.17277,32.167682 -6.49868,2.209606 -20.5618,7.599766 -12.60155,16.325223 10.83037,7.171508 21.66432,14.746872 32.25465,21.92571 10.53688,0.10698 21.44818,-9.816019 32.61672,-6.91744 6.2506,16.88846 0.77895,36.13264 6.23901,52.93726 8.79903,13.27836 16.26949,27.59056 26.14166,40.0906 11.06362,4.82162 10.59862,-11.04569 12.18268,-17.72737 7.15136,-41.18901 8.77305,-83.944175 1.69322,-125.234585 -1.31215,-8.526627 -7.14958,-14.951965 -16.35362,-13.56708 z"
       style="fill:#fcf8f5;fill-opacity:1;stroke-width:1.81746" />
    <path
       id="path58"
       d="m 480.60237,311.0459 c -8.21494,-0.0522 -16.56617,0.85125 -24.06376,4.39132 -12.9698,2.93411 -23.46469,11.83308 -33.71737,19.81049 -8.46914,6.90253 -16.54689,15.09839 -19.60459,25.90447 -5.27663,16.40472 -6.55565,34.82478 -0.55229,51.2115 5.63724,13.94723 18.50138,24.13314 32.93926,27.80874 11.93534,3.97946 24.23774,6.65853 36.59011,8.90688 8.3765,3.51746 17.64104,2.61409 26.49097,2.26782 16.97249,-1.30194 34.74111,-7.76791 44.89458,-22.15362 7.8171,-10.35545 14.98568,-21.53065 19.4676,-33.71257 -0.0158,-13.30791 1.56202,-27.29619 -3.79907,-39.91785 -5.70063,-12.18939 -14.99235,-22.6758 -25.82917,-30.59022 -14.4357,-9.64134 -31.82851,-13.88076 -49.06125,-13.89433 -1.25148,-0.0272 -2.50325,-0.0392 -3.75502,-0.0326 z m -5.11797,44.10894 c 7.02597,0.43008 16.87304,1.67386 19.05623,9.67621 1.26741,3.53967 -1.25377,6.58869 -4.42938,7.78098 -3.24692,2.07292 -6.73822,3.89319 -9.50386,6.61786 -4.4377,-4.28457 -11.65453,-4.50772 -15.69164,-9.56682 -2.00396,-1.34252 -3.01465,-3.50349 -1.09928,-5.52228 2.32426,-4.12893 6.49032,-9.0622 11.66793,-8.98595 z m 4.43524,32.88781 c 2.11464,3.67044 5.26099,6.93304 8.6132,9.28338 -2.88876,0.98935 -4.78262,4.74405 -7.95682,4.66867 -2.77157,-1.58819 -6.53143,-3.28866 -8.80523,-4.80672 3.08973,-2.65083 5.49432,-6.41141 8.14885,-9.14533 z"
       style="fill:#fcf8f5;fill-opacity:1;stroke-width:0.64257" />
  </g>
  <g
     inkscape:label="Image 3"
     id="layer3"
     inkscape:groupmode="layer">
    <path
       id="path61"
       d="m 393.35462,217.18922 c -10.9982,0.0941 -23.94511,4.03632 -28.68348,14.90964 -3.21082,7.05626 1.65248,15.9145 9.36119,16.9252 5.0921,1.41843 12.67242,1.93733 14.8996,-4.12902 1.25876,-1.46843 4.67171,-0.7074 4.90462,1.5374 4.19113,5.75959 12.14596,2.92187 18.01557,2.45416 7.57033,-0.83783 15.90689,-6.14738 15.42821,-14.6517 -0.88359,-8.38819 -9.91934,-12.13257 -16.89132,-14.63102 -5.47194,-1.86559 -11.27189,-2.53495 -17.03439,-2.41466 z"
       style="fill:#ffffff;fill-opacity:1;stroke-width:0.64257" />
    <path
       id="path63"
       d="m 586.75072,224.9854 c -12.76707,0.51965 -27.59977,-0.7424 -37.76607,8.58058 -5.58758,4.69478 -6.61025,14.59242 -0.0791,18.95582 4.35633,2.76615 9.70135,3.3277 14.58033,4.75565 12.58941,1.8665 25.57656,3.21914 38.21084,1.11785 6.34336,-2.04142 12.74196,-7.17985 13.84413,-14.04494 -0.68288,-9.3738 -8.27388,-18.60955 -18.10493,-19.00979 -3.54541,-0.39891 -7.12286,-0.37834 -10.68524,-0.35517 z"
       style="fill:#ffffff;fill-opacity:1;stroke-width:0.64257" />
  </g>
  <g
     inkscape:label="Image 4"
     id="layer4"
     inkscape:groupmode="layer">
    <path
       id="path66"
       d="m 476.98669,384.29211 c -3.73159,3.33921 -7.30415,7.32571 -9.13169,12.05046 -0.31383,5.09879 4.96572,7.51177 8.59656,9.92505 4.77318,2.92008 11.03458,0.37615 13.43042,-4.41498 2.94557,-3.73654 1.11626,-8.77206 -1.97099,-11.75582 -2.52146,-3.03975 -5.51178,-7.9075 -10.13315,-6.0257 l -0.43761,0.12224 z"
       style="fill:#b6646b;fill-opacity:1;stroke-width:0.454366" />
    <path
       d="m 564.62806,357.00518 c 0.90361,2.50364 1.25195,5.14031 1.48221,7.77665 0.23357,2.62379 0.0689,5.26441 0.27478,7.8869 0.0975,0.33697 0.0832,0.72935 0.29243,1.0109 0.41493,0.5584 1.36369,0.93775 2.03766,0.57066 8.67621,-4.72556 7.61563,-3.26278 11.03909,-8.26098 1.6753,-3.05818 3.56503,-6.00326 5.1466,-9.11187 0.45203,-1.28649 1.06829,-2.49857 1.67703,-3.71407 0.16469,-0.32885 0.27289,-0.69045 0.48436,-0.99136 0.15715,-0.22361 0.40191,-0.37048 0.60287,-0.55572 -2.5024,1.56112 -5.00479,3.12224 -7.50719,4.68336 0.20835,0.0916 0.45283,0.12591 0.62504,0.27468 1.241,1.07214 2.4984,4.69024 3.15774,6.23422 1.41429,2.75112 2.03049,5.92204 3.85033,8.44685 0.7165,0.61395 1.67273,0.97589 2.56838,0.4329 6.63185,-4.0206 8.02315,-2.87274 9.4777,-7.55396 0,0 -8.58356,3.99864 -8.58356,3.99864 v 0 c -0.13451,0.30984 -0.2414,0.63318 -0.40352,0.92951 -0.15149,0.2769 -0.81762,0.91926 -0.53312,0.78256 2.55766,-1.22886 4.94397,-2.78807 7.45556,-4.10855 0.57317,-0.30134 -2.50011,1.92636 -1.84415,0.6808 -1.9102,-2.34286 -2.41682,-5.54647 -3.81871,-8.18635 -0.83547,-2.04984 -1.84972,-5.14719 -3.33911,-6.79453 -0.24652,-0.27267 -0.58005,-0.45169 -0.87008,-0.67753 -2.99358,1.5258 -6.0532,2.92842 -8.98074,4.57738 -0.22549,0.12701 -0.88851,1.6133 -0.94174,1.7257 -0.57672,1.21774 -1.10128,2.4567 -1.6549,3.68504 -1.58672,3.05768 -3.36062,6.02937 -5.1534,8.96751 -0.3482,0.47171 -0.6746,0.96031 -1.04459,1.41513 -0.32684,0.40176 -1.51697,1.3608 -1.04328,1.15139 2.46914,-1.09153 4.73255,-2.60023 7.12966,-3.842 0.21279,-0.11023 -1.05601,0.83728 -1.2038,0.70141 -0.20977,-0.19286 -0.15262,-0.5491 -0.22893,-0.82366 -0.16524,-2.62001 -0.09,-5.25216 -0.3383,-7.86904 -0.22819,-2.73843 -0.67302,-5.43884 -1.47828,-8.07279 0,0 -8.33404,4.63022 -8.33404,4.63022 z"
       id="path68"
       style="fill:#b6646b;fill-opacity:1" />
    <path
       d="m 377.43063,344.6994 c 0.38648,2.69574 0.45369,5.42296 0.54944,8.1405 0.095,3.38158 0.0711,6.76526 0.0438,10.14767 0.05,0.19358 -0.30615,3.92604 0.52363,3.54267 8.78948,-4.06078 7.4901,-2.00364 9.51813,-6.00227 1.44233,-3.24253 2.91049,-6.47458 4.32693,-9.72858 0.5827,-1.52232 1.24579,-3.01984 2.05635,-4.43617 0.20737,-0.36235 1.03585,-1.2541 0.66576,-1.06088 -8.4504,4.41194 -10.10737,3.89015 -6.87565,4.67163 0.22011,0.28159 0.47301,0.54038 0.66033,0.84476 1.50994,2.45351 2.65456,5.95376 3.5612,8.70208 1.02088,2.7778 0.49662,1.40022 1.57204,4.13301 0,0 8.11451,-4.526 8.11451,-4.526 v 0 c -1.06495,-2.69726 -0.55878,-1.33035 -1.51655,-4.10146 -0.6136,-1.8813 -1.30652,-3.7032 -2.06116,-5.53277 -0.3173,-0.76927 -1.11588,-2.72145 -1.54277,-3.48396 -0.22417,-0.40039 -0.52216,-0.75472 -0.78323,-1.13209 -0.3503,-0.32098 -0.61544,-1.153 -1.05089,-0.96294 -3.10081,1.35336 -5.9046,3.32106 -8.70429,5.22063 -0.3434,0.23299 -0.40808,0.72291 -0.59881,1.09145 -0.75244,1.4539 -1.40214,2.9571 -2.00446,4.47856 -1.39728,3.24802 -2.79986,6.51071 -4.47363,9.62588 -0.23689,0.29151 -1.05605,1.02215 -0.71065,0.87453 9.17456,-3.92132 7.75919,-1.28448 7.7223,-6.4989 -0.0357,-3.38002 -0.0792,-6.75995 -0.10938,-10.14002 -0.0456,-2.77241 -0.18696,-5.54174 -0.43739,-8.30367 0,0 -8.44551,4.43634 -8.44551,4.43634 z"
       id="path72"
       style="fill:#b6646b;fill-opacity:1" />
    <path
       id="path74"
       d="m 397.07023,286.48823 c -6.19662,-0.46006 -11.04106,6.96928 -7.27033,12.20759 2.79066,5.31741 9.32018,8.23066 14.93098,5.57354 6.31408,-1.46332 7.36774,-10.19188 2.52886,-13.96586 -2.72954,-2.51472 -6.48136,-3.90952 -10.18951,-3.81527 z"
       style="fill:#ffffff;fill-opacity:1;stroke-width:0.64257" />
    <path
       id="path76"
       d="m 570.50273,290.68 c -6.10038,-0.67341 -12.60937,5.37919 -9.81426,11.56627 3.79717,9.15211 19.78326,9.6565 22.74724,-0.32631 1.75389,-7.50789 -6.63951,-11.61655 -12.93298,-11.23996 z"
       style="fill:#ffffff;fill-opacity:1;stroke-width:0.64257" />
  </g>
  <g
     style="display:inline"
     id="g18"
     inkscape:label="Image"
     inkscape:groupmode="layer">
    <path
       id="path22"
       d="m 841.10315,1054.6465 c -3.3,-0.6525 -12.6,-1.8519 -20.6667,-2.6655 -20.8233,-2.1 -45.7663,-10.2622 -62.4323,-20.4298 -30.7355,-18.7512 -39.8624,-26.5574 -55.5677,-47.52661 -10.3591,-13.8312 -14.6862,-18.6912 -16.6415,-18.6912 -0.9343,0 -2.4456,-0.9 -3.3585,-2 -0.9129,-1.1 -2.653,-2 -3.8669,-2 -1.2139,0 -3.3468,-1.3311 -4.7397,-2.9579 -1.393,-1.6268 -2.6737,-2.3768 -2.8462,-1.6666 -0.1724,0.7101 -1.9105,8.1911 -3.8623,16.6245 -1.9518,8.4333 -4.7432,17.01153 -6.2031,19.06273 -4.0018,5.6224 -10.4796,19.89408 -10.4808,23.09078 -5e-4,1.5511 1.2429,4.4016 2.7632,6.3343 4.7088,5.9863 3.1056,8.0841 -6.7595,8.8455 l -8.638,0.6667 3.65,2.8585 c 4.7893,3.7509 4.7289,7.7044 -0.1487,9.7247 -2.0994,0.8696 -9.4058,1.5131 -16.3333,1.4385 -6.8941,-0.074 -18.8347,-0.1984 -26.5347,-0.2759 -7.7,-0.078 -17.0668,0.3163 -20.8151,0.8751 -5.3558,0.7986 -7.5367,0.5434 -10.185,-1.1918 -2.6228,-1.7186 -6.2379,-2.1596 -16.308,-1.9894 -14.9592,0.2529 -17.9819,-1.1496 -15.2762,-7.0882 1.2373,-2.7155 1.1255,-4.7364 -0.5467,-9.8825 -1.1561,-3.558 -2.4091,-12.4161 -2.7843,-19.6848 -0.6216,-12.03958 -1.1639,-14.20148 -6.0927,-24.29031 -3.2947,-6.7437 -5.7849,-14.0663 -6.3679,-18.7253 l -0.9574,-7.651 -13.3279,-2.581 c -14.5531,-2.8183 -12.0397,-3.1101 -36.6721,4.2583 -23.0324,6.8897 -37.0186,16.1897 -41.3058,27.466 -0.7204,1.8948 -1.6857,9.28623 -2.1452,16.42541 -0.757,11.7638 -1.2565,13.6304 -5.33,19.9164 -3.9928,6.1615 -6.0162,7.7007 -18.1206,13.784 -10.6161,5.3354 -16.7031,7.4314 -27.5565,9.4888 -12.5335,2.3759 -14.1361,2.4351 -15.9804,0.5908 -1.8444,-1.8444 -1.8249,-2.2987 0.1942,-4.5298 6.1913,-6.8413 -1.6262,-8.2492 -20.4224,-3.6781 -25.7491,6.2621 -51.0195,2.961 -42.5058,-5.5526 1.1033,-1.1034 -0.1451,-1.74 -4.7727,-2.434 -3.4964,-0.5243 -6.5913,-1.7851 -7.0008,-2.8521 -0.8936,-2.3288 4.411,-8.0726 14.4544,-15.651 6.3086,-4.7602 7.2937,-6.0495 6.1641,-8.0678 -3.3943,-6.06538 -11.0409,-43.63941 -12.353,-60.70091 -0.4794,-6.2334 -1.7993,-13.3012 -2.933,-15.7064 -1.8816,-3.9916 -1.8678,-4.5868 0.1581,-6.8255 2.071,-2.2884 2.0637,-3.5274 -0.1093,-18.5164 -2.0759,-14.3194 -2.1379,-17.8498 -0.5709,-32.50786 0.9668,-9.04412 2.2735,-38.34387 2.9038,-65.11054 1.4028,-59.57587 3.0091,-85.47344 5.7763,-93.12923 1.1522,-3.18773 3.0194,-12.78773 4.1493,-21.33333 1.1299,-8.54559 3.0037,-20.63744 4.1641,-26.87078 2.1818,-11.7207 2.3896,-19.17276 0.9925,-35.58982 -0.7758,-9.11624 -1.092,-9.84847 -6.4035,-14.8268 -3.0731,-2.88034 -9.4431,-9.96491 -14.1556,-15.74351 -4.7124,-5.77859 -13.3405,-15.00654 -19.1734,-20.50654 -22.5537,-21.26648 -35.50693,-35.48817 -41.28982,-45.33333 -3.2306,-5.5 -8.94511,-13.9 -12.69888,-18.66667 -11.23563,-14.26733 -20.9336,-29.71833 -23.48707,-37.42 -1.32142,-3.98567 -7.09057,-16.39869 -12.8203,-27.58451 -10.44316,-20.38753 -15.09162,-34.36841 -16.06867,-48.32882 -0.37497,-5.35778 -0.0988,-6.0456 2.58008,-6.42607 2.728,-0.38744 3,-1.14679 3,-8.37519 0,-5.98741 0.51568,-8.14698 2.08963,-8.75097 1.14929,-0.44103 2.76929,-0.12213 3.6,0.70852 2.17702,2.17703 3.23796,1.87263 4.03004,-1.15629 0.89989,-3.44123 5.74092,-3.49423 7.86929,-0.0861 1.536,2.45955 1.72312,2.39704 3.99169,-1.33333 2.79548,-4.5968 4.44587,-4.9027 6.72878,-1.24718 1.69716,2.71759 6.92896,3.53263 10.03164,1.56279 1.1514,-0.73101 -0.098,-2.04708 -4,-4.21348 -8.91287,-4.94843 -9.266,-6.77724 -1.90567,-9.86899 l 4.23127,-1.77736 -6.66667,-1.9895 c -4.04299,-1.20654 -6.83663,-2.85506 -7.09855,-4.18884 -0.49054,-2.49812 0.15226,-2.78775 10.86127,-4.89368 10.5292,-2.07058 18.56791,-9.58962 20.63133,-19.2976 0.77935,-3.66667 2.61982,-12.36667 4.08991,-19.33334 1.47011,-6.96666 4.76167,-22.26666 7.3146,-34 2.55292,-11.73333 4.97587,-25.87569 5.38434,-31.42745 0.87756,-11.92812 8.40726,-31.50594 19.52836,-50.77554 l 6.9518,-12.0453 -2.1629,-10.20919 c -1.1896,-5.61508 -3.6388,-17.10922 -5.4426,-25.54255 -2.9688,-13.87997 -3.285,-18.45337 -3.3353,-48.2506 -0.042,-24.757318 0.4421,-35.063158 1.952,-41.573838 2.6935,-11.61408 6.1339,-19.29963 10.9374,-24.43343 3.7913,-4.05201 4.3644,-4.22712 11.8528,-3.62181 4.3279,0.34984 12.0689,1.48614 17.2023,2.52512 5.1333,1.03898 13.5333,2.57254 18.6666,3.40791 18.7005,3.04322 38.8595,8.19935 47.0253,12.0278 4.5972,2.15537 9.0447,3.91885 9.8832,3.91885 0.8386,0 4.4965,1.90701 8.1288,4.2378 l 6.604,4.2378 8.1794,-2.17565 c 22.7241,-6.04444 59.511,-12.10768 80.1793,-13.2152 13.4253,-0.7194 48.1402,1.83184 58,4.26249 5.5,1.35586 12.7,3.0672 16,3.80299 9.2659,2.06597 23.3002,6.39501 28.2225,8.70556 2.4443,1.14738 6.8442,2.59144 9.7775,3.20902 4.5438,0.95664 6.1229,0.62889 10.6667,-2.21388 2.9333,-1.83521 10.4333,-5.91392 16.6667,-9.0638 6.2333,-3.14989 13.4333,-6.9048 16,-8.34425 2.5666,-1.43945 7.9666,-3.91439 12,-5.49988 4.0333,-1.58548 10.9333,-4.56544 15.3333,-6.62214 4.4,-2.05669 10.4,-4.36397 13.3333,-5.12729 15.5936,-4.05775 24.0383,-5.52255 31.6074,-5.48255 9.9134,0.0524 13.1531,2.13739 16.8298,10.83121 4.9723,11.75758 5.9037,21.14706 6.0257,60.74459 0.124,40.270718 0.1639,39.825618 -7.8733,87.930218 l -2.2639,13.55038 5.2644,11.11629 c 2.8953,6.11396 6.3647,13.66975 7.7097,16.79063 1.345,3.12089 3.2042,6.30405 4.1316,7.07369 0.9274,0.76965 2.3271,5.4162 3.1105,10.32567 0.7834,4.90946 2.3807,14.9263 3.5495,22.25964 1.2566,7.88432 2.5778,28.59059 3.2328,50.66667 1.1358,38.27869 2.8536,50.74098 8.499,61.65812 2.7047,5.23019 13.5527,15.00855 16.6504,15.00855 1.3933,0 3.3219,0.95029 4.2859,2.11176 2.6395,3.18048 0.046,6.19672 -7.5495,8.78134 -3.5988,1.22454 -5.8362,2.27454 -4.9719,2.33334 0.8643,0.0588 2.5428,1.0782 3.7299,2.26536 1.9891,1.98908 1.9857,2.34938 -0.043,4.59109 -1.2108,1.33795 -3.7893,2.78159 -5.7299,3.20809 -1.9407,0.4265 -6.1629,2.86051 -9.3827,5.40891 -3.2199,2.54839 -6.7103,4.63344 -7.7564,4.63344 -1.7994,0 -6.4861,3.41288 -17.5401,12.77263 -6.8693,5.8164 -15.2014,11.22358 -27.5159,17.85677 -5.8667,3.16005 -15.7667,8.86103 -22,12.66884 -6.2333,3.8078 -18.8323,11.37344 -27.9976,16.81252 -15.5401,9.22208 -16.37,9.91759 -12.3015,10.30943 4.7135,0.45397 20.1994,-3.20213 32.8338,-7.75185 4.3275,-1.55835 11.19,-3.44742 15.2499,-4.19794 9.3881,-1.73549 29.7171,-9.75531 50.2154,-19.81004 24.2381,-11.88917 61.4521,-38.86331 74.6474,-54.10725 9.7868,-11.3064 9.1586,-10.86204 15.1175,-10.69254 3.945,0.11227 4.9814,0.69846 5.31,3.00351 0.2246,1.57525 1.5746,3.16908 3,3.54184 1.4255,0.37277 2.5918,1.71779 2.5918,2.98893 0,1.27115 0.9795,3.0274 2.1766,3.90279 1.8467,1.35033 1.9422,2.30212 0.6301,6.27792 -0.8506,2.57747 -1.4543,6.42737 -1.3416,8.55536 0.4847,9.14631 -14.306,43.19404 -23.5442,54.19791 -1.691,2.01418 -6.2244,9.68545 -10.0743,17.04725 -6.3932,12.22532 -25.1781,37.29059 -27.9469,37.29059 -0.6185,0 -9.5289,8.05744 -19.8011,17.90544 -10.2721,9.84799 -21.2465,19.67128 -24.3876,21.82956 -15.5276,10.66924 -70.1878,42.20172 -77.2159,44.54442 -0.802,0.26733 0.038,6.73492 2.1312,16.41421 8.9688,41.46872 8.39,37.88665 12.7067,78.63971 2.8568,26.97029 6.6922,80.20485 7.4614,103.5631 l 0.8199,24.89642 3.8882,1.61058 c 4.3384,1.79701 17.6838,14.58505 21.1747,20.29038 2.5742,4.2071 18.2039,15.36008 29.557,21.09108 9.282,4.6855 30.6749,10.4136 40.1436,10.7488 3.8086,0.1348 7.6813,1.0016 8.606,1.9263 1.9909,1.9909 14.8299,3.808 19.967,2.826 1.9833,-0.3791 7.4106,-0.097 12.0607,0.6269 9.613,1.4966 50.2216,-1.6784 62.9885,-4.9248 4.0333,-1.0256 16.0333,-3.0858 26.6667,-4.5782 10.6333,-1.4924 23.2677,-3.3946 28.0764,-4.2271 4.8087,-0.8325 14.7087,-1.231 22,-0.8855 17.9939,0.8526 31.3407,6.1116 42.0271,16.5598 7.319,7.156 7.4964,7.5121 11.20395,22.4873 3.361,13.5759 3.6781,16.6949 2.9421,28.9358 -1.3906,23.1267 -4.10685,34.7496 -11.89215,50.88731 -5.2282,10.8374 -8.5151,15.8508 -13.0099,19.8436 -5.2067,4.6253 -20.8904,12.9148 -44.5714,23.558 -14.2503,6.4047 -77.6119,13.7423 -92.7761,10.744 z m -25.7599,-14.1052 c 5.896,-4.8314 11.6269,-14.3177 17.2425,-28.5413 1.5924,-4.0333 4.1271,-10.4027 5.6328,-14.15418 3.9012,-9.72013 6.0512,-27.40603 6.1405,-50.51243 0.066,-17.1496 -0.6605,-24.9496 -3.977,-42.6766 -0.4796,-2.5635 -1.5924,-2.6837 -26.3417,-2.8465 -14.2125,-0.093 -28.2515,-0.5772 -31.1978,-1.075 l -5.3569,-0.905 0.66,19.4415 c 0.8191,24.1252 -0.8894,34.931 -8.6235,54.5421 -8.6302,21.88363 -15.1141,31.36181 -26.1109,38.16911 l -3.6919,2.2853 7.6919,4.1333 c 4.2305,2.2733 10.9153,6.2266 14.855,8.7851 3.9397,2.5586 10.8397,6.1386 15.3333,7.9557 7.9742,3.2245 28.3152,9.916 30.6996,10.0991 0.6578,0.051 3.8276,-2.0646 7.0441,-4.7002 z m 99.0932,2.7339 c 4.0333,-0.5048 13.9333,-3.5723 22,-6.8166 16.1364,-6.4899 13.9882,-4.2987 23.9782,-24.4586 9.1123,-18.38878 11.2559,-30.39891 11.3039,-63.33331 0.049,-33.5913 -3.0858,-53.0572 -9.4756,-58.8432 -2.3793,-2.1545 -4.9331,-2.4793 -18.9449,-2.4098 -8.9072,0.044 -20.0949,0.6514 -24.8616,1.3495 -9.8551,1.4434 -9.0658,-0.794 -6.7865,19.2368 0.7093,6.2334 1.7049,30.5334 2.2123,54 0.8032,37.14083 0.6411,43.75991 -1.2516,51.10771 -1.1958,4.6426 -2.1747,9.4426 -2.1753,10.6667 -5e-4,1.2241 -1.8005,6.0295 -4,10.6787 -4.6246,9.7756 -4.8697,11.3063 -1.6656,10.3999 1.2834,-0.363 5.6334,-1.0731 9.6667,-1.5778 z m -211.0904,-84.27521 c 5.6543,-8.6845 7.7208,-13.5616 10.5931,-25 3.32,-13.2213 2.541,-49.4801 -1.1423,-53.1633 -1.1673,-1.1673 -2.3259,-2.5831 -2.5747,-3.1462 -0.2488,-0.5631 -3.7763,-3.28668 -7.8388,-6.05242 -4.0751,-2.77432 -10.0066,-8.62664 -13.2311,-13.05462 -4.8374,-6.64269 -15.7439,-16.73769 -16.8177,-15.56628 -0.1594,0.1739 0.8259,8.11619 2.1897,17.64952 3.0122,21.0567 3.1327,30.2511 0.6464,49.3333 -1.0511,8.0667 -2.3211,20.4171 -2.8224,27.4453 l -0.9113,12.7787 5.4573,2.8445 c 8.2166,4.2827 15.3659,8.9759 17.3917,11.4169 0.9957,1.1997 2.3184,2.1813 2.9395,2.1813 0.621,0 3.3752,-3.45 6.1206,-7.6667 z M 533.76975,509.37964 c 8.0667,-1.51184 17.3667,-3.10089 20.6667,-3.53124 5.6672,-0.73904 17.6141,-4.07456 28,-7.81745 2.5667,-0.92497 7.5472,-2.10168 11.0679,-2.61491 5.1069,-0.74445 6.6505,-1.58856 7.6337,-4.17457 0.6778,-1.7828 1.7636,-3.24145 2.413,-3.24145 2.1971,0 9.3301,-15.27141 12.1442,-26.00001 4.3043,-16.41045 6.1854,-41.09976 4.243,-55.68921 -2.4646,-18.51145 -7.6891,-30.31289 -20.7872,-46.95586 -3.1769,-4.03668 -3.9614,-6.3492 -4,-11.79016 -0.046,-6.51869 0.1489,-6.88082 5.2854,-9.81137 11.0376,-6.29733 25.9126,-2.29328 39.3428,10.59025 14.4548,13.86634 23.4636,32.86257 31.1884,65.76425 3.6122,15.3855 4.1534,23.74873 2.1931,33.8921 -1.3486,6.97795 -0.944,7.87098 2.2675,5.00578 1.2878,-1.14895 5.1532,-3.49527 8.5897,-5.21404 14.9152,-7.45994 25.2491,-14.0875 37.2998,-23.9219 7.0848,-5.78174 14.3243,-11.06086 16.0878,-11.73136 1.7636,-0.6705 5.9615,-2.96626 9.3287,-5.10172 5.6502,-3.58325 5.9262,-4.00509 3.5789,-5.47098 -5.1415,-3.21092 -2.1127,-6.79566 8.5621,-10.13372 2.0388,-0.63755 1.5071,-1.47362 -3.2415,-5.09735 -7.1265,-5.43844 -12.8274,-14.95715 -16.1714,-27.00138 -2.1297,-7.67102 -2.7978,-16.3388 -3.7508,-48.66666 -0.726,-24.6286 -1.9281,-43.5703 -3.2155,-50.66667 -1.1308,-6.23334 -2.0607,-13.73334 -2.0666,-16.66667 -0.01,-3.07479 -1.1324,-7.02724 -2.6597,-9.33333 -1.457,-2.2 -2.653,-4.96123 -2.6578,-6.13604 -0.011,-2.74378 -14.5026,-32.38668 -16.1203,-32.97507 -0.672,-0.24445 -1.2219,-1.52099 -1.2219,-2.83675 0,-1.31576 -0.9,-3.13922 -2,-4.05214 -1.1,-0.91292 -2,-2.23834 -2,-2.94536 0,-0.70703 -2.9103,-5.58356 -6.4675,-10.83674 -3.5571,-5.25318 -9.3787,-14.6114 -12.9369,-20.79604 -7.0176,-12.19764 -34.1267,-45.55738 -46.75,-57.5293 -4.3151,-4.09243 -13.1093,-10.906618 -19.5428,-15.142658 -9.9718,-6.56577 -12.3319,-7.58563 -16,-6.91375 -2.4482,0.44843 -5.5439,0.0789 -7.1823,-0.85735 -16.2287,-9.27383 -23.0126,-12.4806 -34.4538,-16.28645 -7.3333,-2.43939 -16.0333,-4.83095 -19.3333,-5.31459 -3.3,-0.48363 -8.7,-1.70615 -12,-2.71671 -6.4822,-1.98504 -35.2897,-4.69499 -49.3334,-4.64085 -4.7666,0.0184 -12.5666,0.61007 -17.3333,1.31488 -4.7667,0.70481 -13.6036,1.908 -19.6376,2.67375 -13.3363,1.69244 -37.9095,7.07936 -49.6957,10.89422 -14.0593,4.55058 -33.5294,14.94382 -36.3996,19.43028 -0.5865,0.91666 -2.2011,1.66666 -3.588,1.66666 -1.387,0 -2.9076,0.62431 -3.3792,1.38736 -0.4716,0.76305 -3.357,2.9506 -6.412,4.86123 -3.055,1.91063 -8.5222,5.936318 -12.1492,8.945968 -9.8985,8.21363 -33.0458,36.82039 -41.5337,51.32979 -4.1213,7.04495 -9.2284,15.37654 -11.3491,18.51464 -2.1208,3.13811 -3.8559,6.56723 -3.8559,7.62027 0,1.05304 -1.6876,3.88551 -3.7502,6.29435 -11.9036,13.9019 -26.9165,49.09249 -26.9165,63.09278 0,3.15708 -1.4875,11.93818 -3.3055,19.51355 -4.58056,19.08627 -9.73329,43.23047 -12.67549,59.39375 -2.90116,15.93792 -5.82169,20.70089 -16.13517,26.31419 -6.61099,3.59816 -6.71043,3.73982 -3.68425,5.24854 4.43348,2.21032 4.69602,5.79936 0.56202,7.68294 -1.88554,0.85912 -3.42826,1.98598 -3.42826,2.50416 0,0.51817 2.4,2.53037 5.33333,4.47156 5.04953,3.34162 7.41577,8.82493 3.80827,8.82493 -0.83879,0 1.41121,2.20922 5,4.90938 11.08477,8.34002 26.80355,22.7652 51.83155,47.56614 24.5687,24.34582 30.1946,28.81748 46.9494,37.31756 l 9.5893,4.86482 -4.004,-9.66228 c -6.1603,-14.86602 -9.1745,-31.84888 -9.1745,-51.69176 0,-46.14299 15.2345,-72.67574 42.2978,-73.66669 7.3947,-0.27077 8.6805,0.0781 11.8128,3.2059 4.7472,4.74016 5.4533,12.63129 2.1319,23.8236 -1.4145,4.76666 -4.8231,16.16667 -7.5746,25.33333 -4.758,15.8516 -5.0108,17.64475 -5.1686,36.66667 -0.1568,18.89207 0.047,20.59089 3.6715,30.66667 4.7979,13.33626 7.5598,18.88032 15.3293,30.77013 5.8493,8.95132 6.6487,9.6234 15.539,13.06418 10.1655,3.93434 38.0337,10.06472 46.6276,10.25701 2.9333,0.0656 9.5333,0.95717 14.6666,1.9812 13.9618,2.78515 60.6356,1.603 80,-2.02623 z m -66.3415,-59.24495 c -1.0259,-1.02593 -9.4726,-3.71566 -18.7703,-5.9772 -30.0552,-7.31045 -40.5056,-15.23218 -47.5053,-36.01048 -3.8207,-11.34142 -3.6055,-25.46924 0.6287,-41.27373 4.0728,-15.20247 7.9489,-20.90192 22.3253,-32.82748 22.2445,-18.45226 39.1845,-24.41262 64.9965,-22.86906 21.7806,1.3025 41.6174,8.97734 53.2268,20.59342 15.9937,16.00281 22.1608,31.77989 21.2332,54.31947 -0.4885,11.86766 -0.5213,11.96485 -9.1418,27.09426 -13.0374,22.88123 -22.4259,30.93842 -42.7688,36.70436 -9.9506,2.8204 -41.4747,2.99607 -44.2243,0.24644 z m 43.861,-6.2707 c 18.8872,-5.18162 26.03,-11.67298 40.4721,-36.78083 5.4633,-9.49796 6.0349,-11.34171 6.4818,-20.909 0.518,-11.08864 -1.5482,-24.17716 -4.8686,-30.84082 -3.2363,-6.49493 -13.1768,-18.77729 -18.5836,-22.96161 -6.9119,-5.34921 -16.7291,-10.12252 -27.0212,-13.13821 -11.9876,-3.51251 -40.4696,-3.6464 -45.7068,-0.21488 -1.943,1.27309 -4.9391,2.3147 -6.658,2.3147 -6.4446,0 -32.5174,18.66291 -40.9538,29.3147 -6.3049,7.96068 -11.0625,26.64995 -10.447,41.03948 0.8155,19.06777 7.587,30.84939 22.6589,39.42404 5.8721,3.34077 35.6725,11.55512 41.9202,11.55512 1.5842,0 4.8992,0.87652 7.3668,1.94781 6.7129,2.91448 23.2613,2.56303 35.3392,-0.7505 z m -37.4656,-39.41907 c -4.3769,-2.97419 -6.4837,-3.50399 -12.8939,-3.24237 -8.2416,0.33636 -11.7476,-0.92259 -17.4933,-6.28158 -2.9229,-2.72617 -3.6667,-4.60616 -3.6667,-9.26818 0,-4.84938 0.3986,-5.77278 2.3334,-5.40612 1.6381,0.31045 2.4578,1.94976 2.7514,5.50222 0.5362,6.49119 6.0757,10.23888 15.1448,10.24614 5.7757,0.004 6.6196,-0.45132 11.5829,-6.25786 2.9443,-3.44457 5.0658,-6.72802 4.7145,-7.29658 -0.3514,-0.56856 -3.0426,-1.75388 -5.9803,-2.63406 -5.4338,-1.628 -13.2133,-8.97247 -13.2133,-12.47435 0,-4.25538 4.7852,-11.49749 9.7819,-14.80414 4.7065,-3.11462 6.1426,-3.41402 12.6863,-2.64492 10.6554,1.25233 17.7852,5.5741 19.9173,12.07309 2.4588,7.49467 0.2733,11.99383 -7.8175,16.09376 -3.5086,1.77798 -6.7942,3.90398 -7.3013,4.72447 -1.2477,2.01881 3.3941,8.00181 8.551,11.0218 6.4148,3.7566 19.4142,1.97465 24.3808,-3.34208 1.9958,-2.13652 3.8176,-5.21272 4.0484,-6.83603 0.6031,-4.2409 4.3311,-3.72001 4.8378,0.67596 0.3118,2.70518 -0.8746,4.99703 -4.6666,9.01448 -4.2468,4.49923 -6.39,5.62327 -13.004,6.82019 -4.3556,0.78821 -9.7556,1.15908 -12,0.82415 -3.1245,-0.46627 -5.1071,0.28808 -8.4605,3.21906 -5.4184,4.73583 -7.6037,4.77774 -14.2331,0.27295 z m 10.5578,-4.38419 c 2.2655,-2.50333 2.2343,-2.76293 -0.7933,-6.59289 -1.7334,-2.19283 -3.4889,-4.02015 -3.901,-4.06072 -0.4121,-0.0405 -2.0531,1.68976 -3.6466,3.84519 l -2.8974,3.91896 3.4931,2.7477 c 4.3024,3.38428 4.8025,3.39344 7.7452,0.14176 z m 75.5066,-62.16583 c -6.2793,-5.28364 -9.2433,-10.19964 -11.529,-19.12161 -1.8876,-7.36828 -1.8925,-8.86103 -0.05,-15.20037 3.1706,-10.90632 9.0459,-15.19876 22.5265,-16.4576 13.0118,-1.21506 21.4937,3.91146 25.5654,15.45185 6.0892,17.25861 -1.9188,33.86701 -17.9916,37.314 -10.2767,2.20399 -14.0188,1.80269 -18.5217,-1.98627 z m 17.0129,-35.07508 c 0.9888,-0.62664 1.5837,-2.26745 1.3219,-3.64625 -0.6685,-3.52023 -11.3937,-4.415 -12.6819,-1.05801 -1.6181,4.21661 6.6964,7.6597 11.36,4.70426 z m -187.3959,32.42894 c -10.4023,-4.55406 -17.755,-17.2433 -17.7419,-30.61874 0.01,-8.04708 2.1745,-11.52684 10.4407,-16.76912 5.0984,-3.2333 7.4895,-3.86089 14.7102,-3.86089 11.3107,0 19.839,5.04359 24.1939,14.30809 8.4925,18.06714 3.2194,30.22543 -16.0048,36.90248 -7.1879,2.49652 -9.9672,2.50332 -15.5981,0.0381 z m 13.489,-36.05807 c 4.7688,-1.82997 0.5011,-7.19068 -5.7246,-7.19068 -3.8557,0 -4.7934,2.43043 -2.0903,5.41735 2.4469,2.70378 4.2965,3.12349 7.8149,1.77333 z m 166.1871,-40.7048 c -20.5332,-1.87274 -25.4114,-5.12964 -25.4114,-16.96583 0,-10.20465 10.7854,-15.85547 33.3334,-17.4644 14.3132,-1.02133 26.0117,0.63441 30.4382,4.30808 4.6986,3.89949 8.3718,11.82993 7.9675,17.20168 -0.3483,4.62583 -1.2261,5.98196 -6.1978,9.57435 -5.1904,3.75038 -6.8526,4.20756 -16,4.40053 -5.6144,0.1184 -16.4728,-0.35604 -24.1299,-1.05441 z m 35.5848,-7.36662 c 5.7817,-4.31661 6.5018,-6.41162 4.0044,-11.64884 -3.9318,-8.24513 -7.4069,-9.49993 -25.6251,-9.25286 -18.2752,0.24785 -27.3241,2.73585 -31.8015,8.74392 -2.2689,3.04454 -2.4567,4.1705 -1.1675,7 1.0012,2.1974 2.6145,3.37185 4.6316,3.37185 1.7024,0 3.732,0.63671 4.5102,1.41491 1.6029,1.60289 25.7964,3.85945 35.551,3.31589 3.8076,-0.21216 7.8464,-1.41395 9.8969,-2.94487 z m -226.4428,-1.16397 c -13.4159,-2.86817 -14.5534,-3.71537 -14.5534,-10.83979 0,-11.16204 7.8352,-18.96532 21.8937,-21.8046 7.7056,-1.55622 17.9102,-1.01526 23.8267,1.26311 10.6334,4.09479 15.147,6.29223 16.5706,8.06729 2.4587,3.06587 2.0836,12.60991 -0.6243,15.8871 -5.4877,6.64118 -31.5622,10.75156 -47.1133,7.42689 z m 33.3965,-5.94091 c 15.8126,-4.535 13.9142,-14.28384 -3.8267,-19.6514 -18.3455,-5.5505 -38.7898,1.20678 -38.7898,12.82087 0,4.48005 2.7058,6.59228 10.6666,8.32649 5.5806,1.21571 25.795,0.26922 31.9499,-1.49596 z m -36.7346,248.98563 c -0.5181,-0.91667 -2.2669,-3.46667 -3.8863,-5.66667 -7.276,-9.88504 -15.5293,-30.95855 -18.0876,-46.1839 -2.5551,-15.2062 -0.1539,-37.13545 6.4767,-59.14944 9.7729,-32.44695 9.8492,-32.98127 5.4949,-38.51681 -2.5774,-3.27671 -3.3043,-3.47695 -9.6667,-2.66312 -13.4177,1.71629 -20.4543,7.3725 -28.0077,22.51326 -6.6158,13.26134 -8.1848,22.10347 -8.0443,45.33334 0.1558,25.76197 2.6686,37.44128 12.6025,58.57467 2.662,5.66309 3.9485,6.72749 13.9001,11.49969 6.0316,2.89244 11.5688,5.25898 12.3049,5.25898 0.7361,0 4.8693,2.39857 9.1849,5.33016 8.649,5.87517 9.0948,6.08688 7.7286,3.66984 z m 241.8584,-5.10863 c 4.1175,-2.25975 9.0104,-5.1742 10.8731,-6.47656 1.8626,-1.30236 3.993,-2.60347 4.7341,-2.89138 0.7412,-0.28789 8.3284,-4.68476 16.8606,-9.77082 l 15.513,-9.2474 2.3039,-10.66303 c 3.298,-15.26424 0.5091,-34.52256 -8.7841,-60.65665 -8.23,-23.14427 -23.6698,-42.01862 -37.8163,-46.22869 -8.2407,-2.45246 -10.3388,-2.44633 -16.3079,0.0477 -4.5367,1.89557 -4.7545,2.26932 -4.0072,6.8748 0.4347,2.67864 2.182,6.42658 3.8829,8.32878 9.857,11.02344 17.2752,26.45371 19.8636,41.31759 2.4786,14.23299 0.7064,48.74902 -3.3004,64.28051 -3.2863,12.73887 -7.3362,22.40743 -11.251,26.86044 -2.94,3.34426 -1.0865,2.90172 7.4357,-1.77529 z m -284.0725,-8.57592 c -8.616,-4.02351 -16.3172,-7.31546 -17.1139,-7.31546 -0.7967,0 -6.8967,-3.6691 -13.5555,-8.15357 -8.3568,-5.62793 -18.9565,-15.05257 -34.2194,-30.42575 -25.2839,-25.46664 -49.13131,-46.75641 -60.72748,-54.21456 -4.50273,-2.89594 -4.50924,-2.91229 4.03427,10.12722 5.43209,8.29074 17.49185,19.87988 32.60571,31.33333 3.8708,2.93333 10.0987,7.74008 13.8398,10.68167 3.7411,2.94158 8.5685,6.48174 10.7275,7.86702 2.1591,1.3853 8.8573,7.37854 14.8848,13.31834 16.0733,15.83914 30.7496,26.04424 41.1897,28.64103 2.9333,0.72961 8.3333,2.21013 12,3.29004 13.0463,3.84238 11.7799,2.06337 -3.6655,-5.14931 z m 380.3925,-344.46231 c 4.9511,-37.35809 2.1399,-97.931928 -4.9062,-105.717778 -3.3767,-3.7313 -12.3025,-3.12569 -31.5073,2.13777 -15.7007,4.3031 -33.4179,11.8048 -38.5404,16.31858 -3.8938,3.43106 -15.2304,9.43116 -29.7731,15.7579 -5.3279,2.31788 -5.3299,2.32168 -2,3.72267 5.4017,2.27265 24.3988,15.05749 27.8306,18.72967 l 3.1639,3.385578 6.5515,-3.425668 c 3.7046,-1.93707 10.8874,-4.05033 16.5296,-4.86317 9.2038,-1.32594 10.1778,-1.23551 12.5507,1.16523 3.7297,3.7736 5.4872,17.351618 4.4977,34.749318 -0.8424,14.81233 -0.8422,14.81361 3.1028,20.66666 2.1699,3.21938 5.6386,8.85342 7.7082,12.52008 2.0695,3.66667 6.8298,11.29511 10.5784,16.9521 l 6.8155,10.28544 2.2536,-10.28544 c 1.2395,-5.65699 3.5545,-20.10151 5.1445,-32.09894 z m -429.537,12.22763 9.4158,-16.25255 -0.8085,-12.41412 c -0.8815,-13.53324 2.0736,-31.540588 5.6651,-34.521268 2.2659,-1.88054 14.8077,-0.73402 26.0647,2.38272 l 7.5272,2.08405 9.8062,-7.28078 c 14.5552,-10.8068 17.7656,-12.91165 26.1227,-17.12708 l 7.6115,-3.83933 -5.2212,-2.18157 c -2.8717,-1.19987 -9.3074,-3.03356 -14.3016,-4.07487 -10.4003,-2.16853 -22.221,-7.06121 -24.9018,-10.30707 -1.0065,-1.21857 -3.1488,-2.21559 -4.7608,-2.21559 -1.6119,0 -8.5461,-1.2 -15.4093,-2.66666 -7.8849,-1.685 -17.527,-2.66667 -26.1924,-2.66667 -12.5526,0 -13.8403,0.23631 -15.2074,2.79086 -0.8215,1.53497 -1.1404,4.19819 -0.7087,5.91828 0.4317,1.72009 0.2578,3.45323 -0.3865,3.85142 -6.0598,3.74517 -4.7656,76.393048 2.029,113.888418 1.0644,5.87437 1.8831,4.95313 13.656,-15.36819 z"
       style="fill:#000000;stroke-width:1.33333" />
    <path
       id="path27"
       d="m 597.48289,63.256202 c -7.31953,3.006557 6.07709,1.342349 0,0 z m 69.51797,24.106238 c -7.85064,0.81571 -15.54809,2.94948 -22.81769,6.0026 9.50486,9.27537 18.34224,19.22135 26.64785,29.57992 -0.25792,-11.86631 0.75537,-24.1542 -2.83268,-35.628666 z m -362.69043,2.7049 c -5.53038,0.38296 -2.09668,9.62682 -3.9529,12.93542 0.20063,4.28429 -2.45816,17.91175 0.28248,16.08364 6.97917,-8.95299 14.21449,-17.77166 22.54435,-25.51548 -6.20217,-1.52226 -12.42861,-3.53112 -18.87393,-3.50358 z m -96.29361,270.78074 c 4.8728,-2.6006 2.17521,-11.68925 0.19038,-0.54958 z m -15.57268,16.86123 c -2.68092,5.59822 -9.24136,3.18585 -12.94587,3.02793 -4.72959,0.94023 -6.64594,1.91346 -6.07005,7.29115 -0.82018,5.72043 -7.91226,8.11532 -4.42296,14.80239 7.04763,31.22502 23.8055,59.60987 38.90507,87.50446 18.00473,29.24464 40.23061,55.98592 64.87768,80.13565 13.95172,15.67893 30.61175,29.91461 41.12445,48.02392 1.51809,34.86499 -5.25143,69.67221 -10.78813,103.59898 -4.18167,63.39917 -7.67028,127.52817 -6.3339,191.36264 1.5039,30.9265 8.25211,61.46914 14.93779,91.38477 -1.71038,7.9672 -12.50049,11.8107 -16.01879,17.8652 7.51967,0.5719 4.64208,11.8379 12.38092,9.2775 17.09582,1.6493 33.5166,-5.3382 50.39256,-4.7658 5.88911,0.2776 10.02753,6.6422 9.69432,11.0717 16.7704,-4.5116 37.36023,-8.0825 47.26469,-23.8755 6.14485,-15.46908 1.21381,-36.33144 16.95354,-47.08722 18.62594,-13.2542 41.70291,-21.07778 64.50573,-22.28168 9.97144,1.47169 26.07915,-0.16903 29.50185,11.90936 3.93372,20.02176 14.47312,38.66246 14.64656,59.59424 1.37287,9.4527 -1.03719,22.9399 12.74672,19.7174 26.53358,2.7841 53.41752,2.1399 80.06424,0.8591 -7.49322,-9.1645 6.49834,-13.3624 11.81351,-14.1386 -6.33391,-14.7202 8.43047,-28.13348 11.3698,-41.9188 3.31727,-8.69416 5.21107,-18.5049 8.25666,-26.92474 0.66016,-34.90567 7.50544,-68.84923 0.94069,-103.14813 -2.03211,-6.90138 2.54493,-12.78078 -0.40112,-19.39929 -4.87484,-68.64501 -6.92099,-136.63677 -22.1136,-203.57275 -2.11028,-7.4058 -3.94735,-17.22088 4.7696,-21.11116 33.52809,-20.03241 69.28167,-37.4551 97.44681,-65.20054 22.73552,-19.33871 41.83624,-42.59979 55.49648,-69.18305 11.64999,-19.50525 24.94465,-40.89928 24.13515,-64.30207 -2.71202,-4.08629 -6.72345,-11.83697 -11.01857,-4.76373 -41.57806,40.7412 -93.27151,71.68797 -150.12866,85.31073 -12.74143,2.16182 -26.77336,10.09475 -39.47303,4.93766 -5.53963,-3.3171 -13.58661,9.40997 -20.6701,3.63139 -17.92891,9.90105 -39.02535,12.60358 -58.81702,17.09382 -11.22269,2.03505 -21.69697,3.15444 -34.38668,3.67139 -43.33314,1.37465 -88.73645,1.42496 -129.19064,-16.147 -3.68292,-4.31388 -10.32935,1.18071 -14.68523,-3.94377 -4.97714,-3.02615 -11.73245,-8.33207 -16.35008,-7.99044 -8.63183,7.66855 -20.87537,-1.25282 -30.42831,-3.00663 -30.11388,-11.4841 -49.22356,-39.42111 -75.5472,-56.84751 -18.32646,-14.08936 -37.2849,-29.78254 -47.87347,-50.41122 -1.6055,-0.35728 -3.28685,-1.61974 -4.56141,-2.05175 z m 338.92497,137.27882 c -2.17588,-4.9062 -3.3408,-4.66532 0,0 z m 191.10698,386.47366 c 1.12203,24.55013 -2.07656,52.35632 -21.06056,69.97234 10.55537,12.74774 21.69406,28.12649 35.7529,36.27117 17.30827,-11.38608 24.39927,-32.43976 30.55256,-51.23686 4.13978,-18.64615 3.55478,-39.28628 2.28602,-57.31399 -16.35937,-3.51705 -32.97271,-6.95611 -48.20892,-14.10664 0.226,5.47132 0.452,10.94265 0.678,16.41398 z m 180.56072,-8.91339 c -18.55888,3.15676 -38.58842,7.14629 -56.33072,9.37839 6.26684,32.48726 6.62906,66.98394 -2.1403,99.03281 -6.05006,15.4612 -12.4249,31.6016 -23.71239,44.0498 25.07158,4.9366 50.45446,3.1261 75.42473,-0.4934 2.96047,-15.3973 11.67362,-29.8745 10.35575,-46.22668 1.65318,-35.38413 -1.62434,-70.52618 -2.47535,-105.9113 z m -130.54143,2.36767 c 5.38323,-1.9945 5.1239,-2.35794 0,0 z m 200.75516,1.11817 c 7.22331,31.42982 6.79653,64.63127 1.70031,96.36818 -2.32241,9.98378 -6.50099,19.44268 -11.19939,28.51498 19.86829,-9.6107 26.07037,-33.3294 30.50994,-53.14306 2.88022,-20.11848 3.85237,-43.16679 -7.81295,-60.97731 -3.7917,-4.01849 -8.88505,-8.80541 -13.19791,-10.76279 z"
       style="fill:#644c42;fill-opacity:1;stroke-width:1.81746" />
  </g>
</svg>
