<?xml version="1.0" encoding="UTF-8" standalone="no"?>
<svg
   xmlns:dc="http://purl.org/dc/elements/1.1/"
   xmlns:cc="http://creativecommons.org/ns#"
   xmlns:rdf="http://www.w3.org/1999/02/22-rdf-syntax-ns#"
   xmlns:svg="http://www.w3.org/2000/svg"
   xmlns="http://www.w3.org/2000/svg"
   xmlns:sodipodi="http://sodipodi.sourceforge.net/DTD/sodipodi-0.dtd"
   xmlns:inkscape="http://www.inkscape.org/namespaces/inkscape"
   width="200mm"
   height="200mm"
   viewBox="0 0 200 200"
   version="1.1"
   id="svg1964"
   inkscape:version="1.0.1 (3bc2e813f5, 2020-09-07)"
   sodipodi:docname="hebi.svg">
  <defs
     id="defs1958" />
  <sodipodi:namedview
     id="base"
     pagecolor="#ffffff"
     bordercolor="#666666"
     borderopacity="1.0"
     inkscape:pageopacity="0.0"
     inkscape:pageshadow="2"
     inkscape:zoom="0.24748738"
     inkscape:cx="290.38715"
     inkscape:cy="436.85951"
     inkscape:document-units="mm"
     inkscape:current-layer="layer1"
     inkscape:document-rotation="0"
     showgrid="false"
     inkscape:window-width="1366"
     inkscape:window-height="738"
     inkscape:window-x="0"
     inkscape:window-y="332"
     inkscape:window-maximized="0" />
  <metadata
     id="metadata1961">
    <rdf:RDF>
      <cc:Work
         rdf:about="">
        <dc:format>image/svg+xml</dc:format>
        <dc:type
           rdf:resource="http://purl.org/dc/dcmitype/StillImage" />
        <dc:title />
      </cc:Work>
    </rdf:RDF>
  </metadata>
  <g
     inkscape:groupmode="layer"
     id="layer7"
     inkscape:label="いろ"
     style="display:inline;mix-blend-mode:multiply">
    <path
       style="fill:#9ecb60;fill-opacity:1;stroke-width:2.85714"
       d="M 206.90848,67.427455 C 162.013,69.008573 115.41157,83.898149 86.065849,119.69308 48.525547,157.82629 22.210422,212.77519 35.842634,266.95313 c 5.161571,34.8548 30.59076,63.50343 63.152903,75.87053 10.043603,7.83407 22.448473,-0.15647 22.427453,-12.13169 4.43298,-30.31856 11.66134,-61.01223 11.36161,-91.60715 -5.68413,-7.38004 -22.46302,-3.57635 -21.90848,-17.59487 2.27221,-14.4106 16.40643,-0.43264 24.64285,-0.88727 21.96666,2.24369 45.04733,0.27004 64.80469,12.38839 9.05737,6.65358 16.94639,-3.0761 25.66406,-1.81362 4.54418,13.83469 -11.20984,20.58766 -22.44419,17.0759 -15.928,-7.46438 -23.25541,3.76264 -24.48624,18.00614 -6.28481,32.27812 -9.4176,65.71177 -11.49591,97.66908 10.61861,8.46769 27.40869,2.56392 40.05581,1.98103 28.37626,-4.26674 51.99382,-22.96217 78.34821,-31.68527 0.1206,20.61733 -25.91849,26.46218 -40.45759,34.0625 -19.33354,1.93917 -25.62857,17.25746 -28.90206,34.1598 -12.05186,44.10203 -33.63095,86.41574 -37.23161,132.4126 -2.86737,28.48803 3.88967,56.61997 18.37541,81.22351 21.50753,41.40915 57.61054,85.35232 108.46328,85.6584 44.93206,5.02857 84.30234,-19.6036 121.77566,-40.47211 17.5998,-9.92374 39.5632,-19.33572 58.31174,-6.55152 22.55651,11.47718 45.9836,24.00149 72.27674,20.2738 35.14812,2.40729 64.9226,-20.78637 93.10829,-38.52925 46.85308,-43.50217 86.19068,-107.04826 75.67523,-173.42077 -6.44143,-24.65623 -14.80552,-49.05312 -24.36138,-72.65986 -23.81825,-43.06544 -64.09017,-79.49816 -111.98348,-92.85911 -37.8508,-8.11117 -84.7578,0.86891 -103.8058,38.27009 -19.25017,34.04142 -29.34894,84.06122 0.23437,115.26785 11.64251,7.57234 16.47143,-12.81529 21.4788,-19.24663 14.4932,-29.74174 47.72909,-53.25206 81.702,-44.04577 31.04503,10.21031 36.33209,47.92331 33.72209,75.9654 0.5296,26.6976 -13.25826,54.04365 -35.01675,69.22991 -21.50714,7.97209 -48.05425,7.18086 -64.41931,-10.93568 -17.41909,-10.9576 -32.49734,-38.7026 -56.46794,-31.21275 -33.68346,13.20972 -46.82338,51.499 -74.9442,71.39509 -24.70606,3.36817 -59.38018,0.25423 -68.94532,-27.58372 -9.19221,-25.33314 -4.677,-52.69091 7.72103,-76.18525 32.43946,-78.38172 61.20963,-168.37654 31.68886,-252.20057 C 345.85663,162.20266 324.17411,113.57807 279.05692,91.372768 256.73923,79.413844 233.08303,66.312327 206.90848,67.427455 Z m -75.3404,89.542415 c 12.44506,-2.64355 12.89251,33.61738 -3.78906,26.08258 -16.46357,2.40625 -19.42829,-24.63292 -3.09152,-25.79799 2.26468,-0.42172 4.58804,-0.47316 6.88058,-0.28459 z m 88.14732,8.10268 c 14.29889,2.33871 21.94059,30.0898 2.4721,30.83147 -9.04612,3.05846 -20.47868,-1.63946 -17.1596,-12.7288 -0.57901,-8.70928 4.50795,-19.19603 14.6875,-18.10267 z"
       id="path1985"
       transform="scale(0.26458333)" />
    <path
       style="fill:#e66a68;fill-opacity:1;stroke-width:0.714286"
       d="m 161.53337,231.38515 c -7.64434,-0.45925 -12.78559,6.35862 -14.35268,13.10686 -5.61906,21.01765 -7.11797,42.86203 -10.52441,64.29515 -3.2136,20.79734 -5.314,42.2632 -13.47252,61.87673 -5.194,11.79574 -18.06304,16.97581 -28.999004,22.07256 -9.110967,4.28383 -19.307452,6.03604 -28.219188,10.61717 -3.341039,3.93066 1.897186,7.3529 5.252511,8.49051 6.460717,2.46809 5.447676,10.61495 8.394252,15.48689 5.120953,2.33729 8.233754,-4.301 12.084264,-6.64062 14.134725,-12.23167 32.394525,-17.9681 47.569755,-28.56864 12.51161,-9.48518 15.21761,-25.90504 17.29771,-40.44643 4.58226,-32.14704 4.94493,-64.9626 12.56836,-96.63365 1.40706,-6.67367 5.36889,-14.37012 1.69504,-20.91239 -2.14566,-2.77683 -6.12495,-2.73022 -9.29409,-2.74414 z"
       id="path1987"
       transform="scale(0.26458333)" />
    <path
       style="fill:#9ecb60;fill-opacity:1;stroke-width:0.178571"
       d="m 34.55938,252.29938 c -2.121541,0.73528 -3.105083,3.14778 -2.555106,5.2424 0.918995,7.83441 2.422217,15.61454 4.939721,23.10184 4.341516,13.74785 10.381019,27.37532 20.422231,37.94969 9.928147,10.55631 22.832361,17.6769 35.916997,23.56935 6.329544,2.68855 12.793257,5.42661 19.672807,6.27304 2.50339,0.0862 4.40264,-1.89455 6.23621,-3.328 1.89153,-1.93093 4.0163,-4.14669 3.98586,-7.03466 2.70843,-23.18552 6.00969,-46.33047 9.29347,-69.41883 0.54706,-4.17597 1.33123,-8.33553 1.74894,-12.5186 0.15385,-2.45458 -2.31204,-4.35568 -4.66183,-4.05038 -31.293965,0.0195 -62.594352,-0.0389 -93.88431,0.0292 -0.371663,0.0616 -0.743327,0.12329 -1.11499,0.18493 z"
       id="path1991"
       transform="scale(0.26458333)" />
  </g>
  <g
     inkscape:label="レイヤー 1"
     inkscape:groupmode="layer"
     id="layer1"
     style="display:inline">
    <path
       style="fill:#000000;stroke-width:0.665296"
       d="m 76.67532,189.005 c -9.061923,-1.44537 -16.398913,-6.43611 -22.866542,-15.55418 -6.966722,-9.82169 -10.461051,-19.52873 -10.463929,-29.06813 -0.0025,-7.51632 0.490735,-9.56231 6.963049,-28.89762 l 4.899439,-14.6365 -5.851728,-0.12033 c -5.26124,-0.10822 -5.892986,0.01 -6.260586,1.16786 -0.892432,2.81182 -4.044184,5.4691 -9.447809,7.96558 -5.590491,2.58281 -9.478611,5.7918 -9.518532,7.85597 -0.03472,1.79509 -1.676286,3.42244 -3.452324,3.42244 -1.514534,0 -1.748758,-0.39953 -2.614579,-4.45993 l -0.951017,-4.4599 -3.632388,-0.69614 c -2.910835,-0.55784 -3.6720591,-0.97396 -3.8321125,-2.09479 -0.2633033,-1.84398 3.4353415,-5.08363 7.4421385,-6.51856 1.681832,-0.60232 4.408043,-1.57803 6.058253,-2.16826 3.062798,-1.095472 6.325554,-3.598112 6.325554,-4.851882 0,-0.38339 -0.689454,-0.69707 -1.53211,-0.69707 -2.433059,0 -11.864228,-4.9085 -14.611194,-7.60446 C 10.44401,84.757788 8.1506091,80.531698 6.4284961,74.873628 4.5752417,68.784668 4.7136948,55.17576 6.6932551,48.850866 8.7077007,42.414534 13.787596,35.018252 21.480163,27.321299 31.2363,17.559589 38.891129,14.599122 54.753437,14.453013 c 7.118602,-0.06557 8.011185,0.07484 12.829542,2.018146 7.491832,3.021562 14.068485,7.14193 18.365689,11.506379 4.710649,4.784345 12.854848,19.645032 14.483132,26.427279 0.59818,2.491571 1.39049,5.197885 1.7607,6.014024 1.14463,2.523342 0.8994,24.340187 -0.34713,30.882137 -1.55749,8.17399 -6.706066,24.025202 -10.624092,32.708972 -3.034388,6.72531 -3.315929,7.7602 -3.062882,11.25853 0.176116,2.43472 0.766812,4.52247 1.605102,5.67309 1.840103,2.52565 6.600801,4.81445 10.014049,4.81445 2.798473,0 2.880773,-0.069 7.742273,-6.48662 8.06429,-10.64573 11.95015,-13.47225 18.52147,-13.47225 4.85133,0 8.49692,1.97381 12.89229,6.98022 7.46507,8.50284 14.22292,8.38143 19.4581,-0.34956 2.64066,-4.404 3.56939,-7.62641 3.56939,-12.38482 0,-4.74804 -1.64386,-9.50305 -4.18321,-12.10036 -2.70121,-2.76286 -6.71319,-2.8907 -11.76197,-0.37478 -3.57821,1.7831 -5.84758,4.44044 -8.74984,10.24576 -2.27364,4.54789 -3.8662,5.98805 -6.61857,5.98517 -5.56296,-0.005 -9.096,-4.91677 -10.23927,-14.23263 -0.81628,-6.65156 0.38854,-13.432772 3.57161,-20.102292 5.00833,-10.49403 13.23369,-15.55575 25.24558,-15.5356 6.57656,0.0111 9.88814,0.82284 16.29974,3.99575 7.19848,3.56233 13.39616,8.3561 17.79951,13.76759 4.46709,5.4898 6.54685,9.523402 10.03843,19.469052 2.64971,7.54763 2.68652,7.78112 2.72581,17.29769 0.0365,8.86096 -0.11009,10.08324 -1.8008,15.00473 -3.28184,9.55307 -11.02796,21.27792 -18.06223,27.33975 -3.69087,3.18065 -10.5657,7.13928 -16.58268,9.5486 -4.48018,1.79395 -5.71355,1.99422 -12.19184,1.97959 -9.19802,-0.0207 -12.19453,-0.73658 -17.48987,-4.1781 -5.78098,-3.75712 -8.73895,-3.77418 -14.56762,-0.0839 -14.26739,9.03287 -18.924921,10.8632 -28.66116,11.26334 -3.500954,0.14388 -8.02677,-0.003 -10.05737,-0.32728 z m 13.326535,-4.0409 c 5.879741,-0.95394 11.702735,-3.52402 19.855105,-8.76341 9.9869,-6.4184 15.1184,-6.83713 22.48847,-1.83507 4.67082,3.17009 9.06849,4.20344 16.54775,3.88834 5.14364,-0.21669 5.97846,-0.47527 13.38738,-4.14676 6.89742,-3.418 8.58083,-4.60174 13.24561,-9.31413 5.82275,-5.88219 10.7473,-13.20652 13.61137,-20.24438 2.47219,-6.07484 3.33208,-10.45548 3.33208,-16.97492 0,-4.76327 -0.30313,-6.19487 -2.32854,-10.9973 -1.28069,-3.03665 -2.32853,-6.21126 -2.32853,-7.05469 0,-2.64046 -5.11584,-11.817082 -8.9983,-16.140892 -4.2204,-4.70014 -12.81321,-10.69648 -19.05354,-13.29616 -3.37395,-1.40556 -5.34338,-1.76594 -9.87001,-1.80607 -6.5442,-0.058 -9.83801,0.78918 -14.13571,3.63586 -8.24005,5.45799 -13.39375,20.534402 -10.51999,30.774752 0.87516,3.11853 3.84714,7.12022 5.28804,7.12022 0.39746,0 1.78998,-2.11942 3.09449,-4.70983 4.15579,-8.25231 8.45172,-11.896 15.63052,-13.25744 10.55744,-2.002182 16.81398,4.80269 16.82529,18.29992 0.005,7.07223 -1.47538,11.88392 -5.23542,17.00613 -3.12899,4.26251 -6.37965,5.95108 -11.41968,5.93196 -5.39893,-0.0205 -8.59224,-1.70017 -14.34189,-7.54387 -2.70597,-2.75024 -5.7209,-5.20146 -6.69984,-5.44716 -5.12864,-1.28719 -10.28987,2.45362 -18.13812,13.14634 -4.77548,6.5063 -5.31296,6.79127 -12.084022,6.40704 -5.59509,-0.31749 -9.141328,-2.0701 -11.799391,-5.83143 -1.786831,-2.52847 -2.019959,-3.438 -2.225697,-8.68323 l -0.229808,-5.85892 3.66565,-8.22256 C 96.180905,101.72004 100.3031,82.418328 98.698776,68.914388 97.930408,62.446782 96.971225,56.994792 96.101615,54.152047 95.170458,51.108101 86.935383,36.153909 84.490043,33.066409 80.159659,27.598852 69.353204,21.1713 60.812476,18.983266 56.97573,18.000337 55.899535,17.994559 48.701408,18.918238 39.484219,20.101005 34.498379,22.048269 28.631576,26.756689 20.894269,32.966287 12.897247,43.724793 10.715052,50.860044 8.827841,57.03076 8.7002885,67.091318 10.435544,72.906158 c 2.611609,8.75153 5.784007,12.49717 13.793953,16.28649 4.473514,2.11631 7.23625,2.56551 7.242097,1.17752 0.0067,-1.62548 3.293602,-25.30487 3.682408,-26.529903 0.333283,-1.050084 0.04208,-1.246187 -1.850678,-1.246187 -3.281028,0 -4.645823,-1.252281 -4.382461,-4.021139 0.170962,-1.797368 0.546049,-2.345653 1.718583,-2.512153 0.899669,-0.127757 1.660299,0.205038 1.900738,0.831612 0.328021,0.854806 1.633888,1.044608 7.187101,1.044608 6.432846,0 7.02678,0.121295 11.405166,2.32903 3.994718,2.014278 4.718747,2.194094 5.357572,1.330592 0.406248,-0.549142 1.528931,-0.998438 2.494857,-0.998438 1.459788,0 1.75622,0.299961 1.75622,1.777177 0,3.725981 -4.204798,5.361281 -9.049307,3.519401 -1.369346,-0.52062 -1.955843,-0.4796 -2.377853,0.16633 -1.34972,2.06586 -2.552522,8.13901 -3.200357,16.15919 -0.384246,4.75687 -0.870171,9.8768 -1.079833,11.37762 l -0.381219,2.72877 3.553542,0.41278 c 5.081226,0.59025 11.3342,-0.92945 18.375929,-4.46601 3.317878,-1.66635 6.222799,-3.33762 6.455374,-3.71393 0.232577,-0.37632 1.172618,-0.6842 2.088993,-0.6842 1.476604,0 1.642412,0.24402 1.457647,2.14528 -0.18531,1.90691 -0.762939,2.45628 -5.198187,4.94387 -2.744349,1.53923 -6.398162,3.28781 -8.119589,3.88578 l -3.129875,1.0872 -6.130934,18.418552 c -5.389437,16.19092 -6.167066,19.11689 -6.429717,24.19272 -0.241276,4.66286 -0.0154,6.70707 1.173488,10.62128 4.2206,13.89542 14.653232,27.3026 23.542719,30.25521 6.208602,2.06216 11.598098,2.53047 17.709934,1.53889 z M 54.2212,51.816285 c -0.439093,-0.439096 -0.798359,-2.068725 -0.798359,-3.621401 0,-3.114609 1.637343,-4.894382 4.502701,-4.894382 3.746021,0 6.277979,5.784824 3.594785,8.213081 -1.421407,1.286356 -6.120595,1.481236 -7.299127,0.302702 z M 30.50787,47.809538 c -2.33431,-3.332696 -0.447149,-7.170219 3.526067,-7.170219 3.1921,0 4.087109,0.946978 4.087109,4.324421 0,3.377444 -0.895009,4.324422 -4.087109,4.324422 -1.819314,0 -2.769479,-0.398442 -3.526067,-1.478624 z m 1.004876,58.041952 c 8.179821,-3.94392 8.52597,-4.75848 10.266329,-24.158532 0.605847,-6.75342 1.508109,-12.67053 2.281288,-14.96076 1.393975,-4.129098 1.056727,-4.959864 -1.884877,-4.643118 -2.231026,0.240235 -2.945092,2.710698 -4.673472,16.168978 -1.652067,12.86405 -2.843423,18.25052 -4.701529,21.257 -1.511716,2.446012 -5.986408,5.016592 -11.644477,6.689412 -3.838796,1.13494 -3.92268,1.20608 -2.18893,1.85662 1.197238,0.44922 1.946148,1.32887 2.229428,2.61866 l 0.426586,1.94221 2.094991,-2.01118 c 1.152247,-1.10614 4.659843,-3.24782 7.794663,-4.75929 z"
       id="path1980" />
  </g>
  <g
     inkscape:groupmode="layer"
     id="layer8"
     inkscape:label="せん"
     style="display:inline;opacity:0.79054054">
    <path
       style="fill:#202518;fill-opacity:1;stroke-width:1.01015"
       d="m 203.18174,54.933932 c -32.22494,-0.152557 -66.11059,4.535144 -92.91184,23.82507 -27.367718,19.43376 -50.06496,45.019508 -68.857256,72.679348 -14.523133,21.65576 -22.196087,47.64396 -21.480142,73.73116 -0.09059,21.79119 -1.495048,44.35269 6.777283,65.02508 6.542451,19.87154 17.752249,39.21083 36.262109,50.07661 14.839734,9.02324 30.514634,17.52668 47.664476,20.98755 1.85956,3.81176 -3.7989,7.1114 -6.01159,9.5708 -19.554842,15.42687 -48.334398,15.00465 -64.927489,34.84982 -4.289006,3.56756 -4.367386,11.45911 1.731796,13.16596 7.363573,3.0444 15.419834,3.70017 23.164456,5.26976 2.745033,10.32468 3.340148,21.53262 7.9076,31.25357 5.405902,6.46747 15.172118,0.0468 17.541535,-6.25821 1.880297,-6.93963 4.981653,-13.67833 11.093922,-17.95586 18.18038,-15.39568 44.67402,-19.99702 58.8552,-40.23445 2.46013,-3.83787 3.97327,-10.69158 9.97267,-9.48769 12.62724,-0.25606 25.32367,-0.32647 37.905,0.35489 -13.0851,43.47658 -29.61682,85.93747 -40.94247,129.94 -9.24653,43.02344 1.8183,88.58562 24.5768,125.67353 19.62187,33.17662 48.09286,64.32391 86.53285,74.56686 20.57556,5.86022 42.26621,3.01921 63.32057,2.53899 29.61912,-1.79225 55.78596,-17.87502 80.6471,-32.65121 13.39663,-7.2517 26.13769,-19.46078 42.47743,-18.04489 12.68946,-0.98013 22.91008,8.16119 33.60732,13.49763 17.46809,11.70202 39.12561,11.64849 59.3208,11.63184 15.56114,0.44073 31.67429,0.0379 45.87879,-7.16184 33.862,-13.98453 66.451,-33.99284 88.43575,-63.94263 20.94149,-27.49749 38.73201,-58.23463 47.6392,-91.82534 1.98258,-22.5161 0.83777,-45.22674 0.81285,-67.81241 -0.43658,-20.39215 -10.13934,-38.9441 -16.67541,-57.85096 -11.07546,-29.60543 -29.02573,-56.79322 -53.65356,-76.83923 -23.53924,-19.08195 -50.39473,-35.53395 -80.22322,-42.30352 -24.64357,-3.09175 -50.91735,-3.09398 -73.79117,7.83954 -28.97437,12.82611 -46.81246,41.77217 -55.79048,71.05495 -9.09609,28.98838 -8.37912,61.92356 5.38221,89.32352 6.1432,12.0864 20.67532,21.87079 34.43594,17.57903 14.61067,-6.42434 18.41984,-23.84689 27.10521,-35.75467 9.7514,-16.29756 26.17349,-29.2141 45.48767,-30.93908 13.10159,-2.26229 25.74948,6.29392 31.02668,18.11173 7.05447,13.24162 9.05562,28.32078 7.87209,43.10312 -0.49435,19.25935 -10.21567,37.49086 -22.56468,51.85319 -8.75252,10.41242 -23.9102,15.37533 -36.60028,9.28669 -23.99352,-10.31884 -35.78246,-38.70096 -61.91327,-45.52789 -17.16483,-3.94006 -36.51972,-1.00819 -49.79729,11.24033 -20.19316,16.89098 -33.81188,39.84187 -51.57309,58.96133 -8.22711,6.42889 -19.60097,2.60833 -28.46646,-0.37915 -11.4856,-4.3911 -23.74454,-12.44153 -25.46424,-25.70331 -3.07619,-12.33948 -2.14146,-25.20266 3.32748,-36.73472 18.9153,-44.89315 36.49767,-90.73842 46.28181,-138.5924 5.12251,-29.96435 4.4836,-60.5734 4.34508,-90.8678 -0.0801,-24.35946 -8.07124,-47.77718 -16.69499,-70.25676 -12.12181,-26.94136 -26.21375,-53.41775 -44.97955,-76.35742 -24.39571,-25.336422 -56.84896,-41.236143 -89.54253,-53.054706 -11.50934,-0.148587 -23.01779,-0.48496 -34.52867,-0.455752 z m 7.1342,14.611698 c 24.20619,0.25316 46.66779,11.61737 67.49636,22.913931 20.57428,12.039579 40.77005,26.955209 51.82139,48.701439 11.49985,20.3828 24.01254,40.50198 32.67233,62.31748 8.89965,31.21254 12.39025,64.102 10.9875,96.55402 -3.85511,66.18247 -29.15852,128.63461 -56.22497,188.33974 1.42141,15.51207 -0.99654,31.87884 4.44111,46.76888 6.97163,15.28935 21.38975,26.90357 38.22401,29.11291 11.6699,1.31104 24.37576,4.1678 35.63156,-0.47351 13.36883,-8.04063 20.57173,-22.84622 30.65118,-34.25525 12.36451,-14.60154 25.04146,-31.71526 44.18495,-37.35115 9.5253,-3.24886 19.35598,0.9501 26.30736,7.55247 16.98896,13.31658 30.43299,33.01087 52.08402,39.15525 18.35238,4.61319 40.33159,1.85485 53.2132,-13.28506 17.02369,-18.0359 26.10989,-42.79853 25.78974,-67.52801 0.57573,-22.85182 -2.77496,-49.23784 -21.37688,-64.84422 -18.1222,-14.57281 -44.18549,-10.55965 -63.71657,-1.12458 -22.68985,11.32845 -33.28479,35.69323 -45.39373,56.42451 -1.44373,3.57909 -5.85475,5.14189 -8.41859,1.64939 -17.92692,-15.89259 -20.16365,-42.34059 -16.84113,-64.60044 4.88661,-32.41068 20.8041,-66.22002 51.35796,-81.48498 19.31508,-9.35023 41.61647,-8.81776 62.42625,-6.42591 22.69332,4.21646 42.42679,17.44184 61.04122,30.35982 21.58234,14.95428 38.94366,35.20353 51.63217,58.08516 9.45976,14.63116 11.81096,32.16632 17.99339,48.19196 5.86314,15.12859 11.88398,30.75675 10.97094,47.24829 0.53509,32.75657 -9.90991,64.74686 -26.69735,92.6756 -15.53701,25.74639 -35.24851,49.47675 -59.27149,67.6526 -17.21839,11.46166 -36.07411,20.63379 -55.35183,28.1327 -16.33138,4.88017 -33.74607,3.4088 -50.51423,2.3682 -16.85303,-1.09325 -30.88384,-10.90465 -45.05495,-19.1322 -12.97691,-7.80353 -29.1568,-9.49448 -43.27885,-3.81821 -25.92355,9.65645 -47.20324,28.3708 -72.81385,38.74093 -15.81914,7.05446 -32.73447,12.13706 -50.17782,11.63058 -27.27427,1.74943 -56.34894,-4.02656 -77.26653,-22.6884 -30.82347,-27.20428 -52.83682,-64.08406 -63.82873,-103.55724 -7.67696,-29.38006 -0.56664,-60.035 9.14494,-88.14035 11.29654,-35.89141 23.01009,-71.64054 35.04441,-107.29434 19.69538,-7.35741 39.2656,-15.93565 56.60405,-27.92125 5.04365,-3.81317 7.45858,-11.90339 4.35036,-17.43302 -8.28071,-3.62922 -15.25853,5.19242 -22.2353,8.20071 -28.18496,15.59985 -60.54889,29.62519 -93.251,23.20843 -5.17981,0.66511 -2.755,-4.82759 -2.66455,-8.07283 4.39175,-33.15262 4.34143,-67.21314 13.44026,-99.4667 1.20375,-4.03393 3.54298,-10.23964 8.98878,-8.21933 10.72949,3.8367 25.11056,6.57302 33.70003,-2.98902 3.38201,-4.26025 6.13853,-13.12808 0.17757,-16.33408 -5.92353,-1.83652 -10.71487,2.70339 -15.53702,5.05273 -10.2819,-1.13894 -19.04018,-8.09454 -28.7948,-11.46278 -11.27598,-5.1102 -24.17968,-2.95322 -36.18852,-4.00275 -8.50769,-0.86074 -19.09131,1.63739 -25.29511,-5.87789 -5.69329,-4.25045 -12.50815,3.42182 -11.28531,9.28867 -0.86545,6.81084 3.71929,13.64855 10.86111,14.06717 4.06053,1.35307 10.29357,-0.42328 13.12016,3.16461 -6.44595,34.1553 -9.67595,68.89288 -14.9984,103.21905 -2.76839,3.82931 -8.75296,0.45068 -12.49867,-0.17757 C 85.639878,335.89732 66.314748,324.82912 53.878428,307.38131 35.700413,281.43822 33.968623,248.29004 36.164999,217.67644 37.193986,192.79271 48.934414,169.86262 63.379292,150.03355 79.744259,127.55159 99.009828,106.59748 122.32613,91.222478 147.32062,75.364304 177.7936,71.78509 206.68931,69.592346 c 1.2084,-0.0488 2.41761,-0.03722 3.62663,-0.04672 z m -48.6353,165.44997 c 2.90413,-0.13438 7.70109,0.0811 7.04542,4.23001 -1.21093,13.10556 -6.23598,25.60449 -7.28362,38.80029 -4.80949,31.16103 -5.09725,63.06557 -12.37489,93.73488 -4.17609,16.89225 -21.68185,23.9531 -35.57753,31.2268 -11.5336,5.51337 -22.032621,13.0088 -31.315483,21.62667 -2.221266,-4.59826 -2.562889,-12.75791 -8.830943,-15.35353 -1.511297,-0.95448 -7.205737,-3.12242 -2.951539,-4.18661 18.446744,-7.3573 40.182725,-11.9126 53.060625,-28.38094 9.84215,-16.92458 11.39871,-37.10543 14.94046,-55.99093 4.44035,-25.84882 5.73643,-52.46122 12.85057,-77.66883 1.38622,-4.80846 4.98461,-8.763 10.43693,-8.03781 z"
       id="path2002"
       transform="scale(0.26458333)" />
    <path
       style="fill:#202518;fill-opacity:1;stroke-width:1.01015"
       d="m 218.19789,163.95741 c -8.43793,-0.70133 -15.79812,6.221 -15.84479,14.64524 -0.0137,6.19012 -1.49272,15.41111 4.99552,18.94628 8.03891,1.63976 17.67626,2.00744 24.7369,-2.79963 9.06315,-7.74947 3.76518,-22.35154 -4.78047,-28.35529 -2.54154,-2.13163 -5.88441,-2.67537 -9.10716,-2.4366 z"
       id="path2004"
       transform="scale(0.26458333)" />
    <path
       style="fill:#202518;fill-opacity:1;stroke-width:1.01015"
       d="m 128.61591,153.80656 c -9.85823,-0.74003 -19.22452,8.40095 -16.88652,18.40569 1.38496,7.61853 7.68669,15.29166 16.15455,14.06322 6.40298,0.68325 15.07164,-1.73707 15.53504,-9.38929 0.38114,-7.35578 2.4315,-18.4686 -6.08064,-22.01817 -2.78033,-1.0099 -5.79582,-1.10442 -8.72243,-1.06145 z"
       id="path2006"
       transform="scale(0.26458333)" />
  </g>
</svg>
