<?xml version="1.0" encoding="UTF-8" standalone="no"?>
<svg
   xmlns:dc="http://purl.org/dc/elements/1.1/"
   xmlns:cc="http://creativecommons.org/ns#"
   xmlns:rdf="http://www.w3.org/1999/02/22-rdf-syntax-ns#"
   xmlns:svg="http://www.w3.org/2000/svg"
   xmlns="http://www.w3.org/2000/svg"
   xmlns:sodipodi="http://sodipodi.sourceforge.net/DTD/sodipodi-0.dtd"
   xmlns:inkscape="http://www.inkscape.org/namespaces/inkscape"
   width="200mm"
   height="200mm"
   viewBox="0 0 200 200"
   version="1.1"
   id="svg60"
   inkscape:version="1.0.1 (3bc2e813f5, 2020-09-07)"
   sodipodi:docname="hiyoko.svg">
  <defs
     id="defs54" />
  <sodipodi:namedview
     id="base"
     pagecolor="#ffffff"
     bordercolor="#666666"
     borderopacity="1.0"
     inkscape:pageopacity="0.0"
     inkscape:pageshadow="2"
     inkscape:zoom="0.175"
     inkscape:cx="-606.18567"
     inkscape:cy="-78.468438"
     inkscape:document-units="mm"
     inkscape:current-layer="layer5"
     inkscape:document-rotation="0"
     showgrid="false"
     inkscape:window-width="1366"
     inkscape:window-height="705"
     inkscape:window-x="-8"
     inkscape:window-y="324"
     inkscape:window-maximized="1" />
  <metadata
     id="metadata57">
    <rdf:RDF>
      <cc:Work
         rdf:about="">
        <dc:format>image/svg+xml</dc:format>
        <dc:type
           rdf:resource="http://purl.org/dc/dcmitype/StillImage" />
        <dc:title />
      </cc:Work>
    </rdf:RDF>
  </metadata>
  <g
     inkscape:label="レイヤー 1"
     inkscape:groupmode="layer"
     id="layer1"
     style="display:inline">
    <path
       style="fill:#000000;stroke-width:0.681867"
       d="m 65.72851,184.93468 c -0.250018,-0.25001 -0.454587,-1.32395 -0.454587,-2.38653 0,-1.06257 -0.324476,-1.93195 -0.721069,-1.93195 -0.424796,0 -0.634924,-1.16411 -0.511407,-2.83322 0.194162,-2.62353 0.409096,-2.90195 2.904284,-3.7622 3.215515,-1.1086 3.758937,-1.83596 3.772689,-5.04969 0.01059,-2.37453 -0.08194,-2.46122 -3.440549,-3.23647 -8.821154,-2.03617 -18.371688,-7.2608 -25.727933,-14.07451 -4.939569,-4.57527 -8.460186,-11.15168 -11.145926,-20.82022 -1.460473,-5.25764 -1.607419,-7.11344 -1.582381,-19.98382 L 28.849263,96.668122 26.254697,93.94067 C 18.648042,85.94441 13.539803,67.446262 15.368127,54.517779 16.752524,44.728386 20.63737,35.667323 26.153698,29.361321 31.531732,23.213429 42.046916,16.663981 49.768321,14.65281 c 2.572493,-0.670051 4.394782,-1.735383 6.402224,-3.742832 2.469821,-2.4698234 3.180398,-2.8061785 5.928241,-2.8061785 2.333643,0 3.473156,0.376855 4.512348,1.4923073 0.764665,0.8207702 1.390304,1.7412902 1.390304,2.0456022 0,0.304312 0.861874,0.553293 1.915273,0.553293 1.053411,0 2.510899,0.450502 3.23887,1.001116 0.727982,0.550613 1.838646,1.010873 2.46816,1.022801 0.629513,0.01192 1.550027,0.415809 2.045596,0.897516 0.49558,0.481705 2.503647,1.535188 4.462379,2.341072 10.600651,4.361434 22.460674,16.894795 25.520864,26.969789 2.67407,8.803782 2.02457,21.957224 -1.49132,30.202021 l -1.18164,2.770942 5.54673,1.048636 c 3.0507,0.576738 7.84804,2.042897 10.66073,3.258117 34.13742,14.74895 48.81479,24.399988 58.59017,38.525708 4.54951,6.57416 6.9034,16.94883 4.75591,20.96146 -0.68354,1.27718 -1.15626,1.36025 -5.37507,0.94455 -7.9174,-0.78016 -11.44697,0.37539 -36.62258,11.98991 -12.05158,5.55988 -19.88104,8.01484 -30.42165,9.53886 l -5.61534,0.81189 0.36425,3.80674 c 0.21402,2.23674 1.01074,4.8525 1.93178,6.34239 1.08395,1.75345 1.50185,3.33108 1.35463,5.11401 -0.1947,2.35797 -0.40222,2.59659 -2.42806,2.79194 -1.3362,0.12884 -2.49561,0.7376 -2.92193,1.5342 -0.51663,0.96533 -1.43406,1.3206 -3.41024,1.3206 -2.408503,0 -2.703473,-0.18082 -2.703473,-1.65725 0,-1.19949 -0.42378,-1.71743 -1.5342,-1.87513 -1.21119,-0.17202 -1.57683,-0.72367 -1.73661,-2.62008 -0.17822,-2.11525 0.12528,-2.64464 2.54089,-4.43213 2.606143,-1.92848 2.744093,-2.21332 2.759393,-5.69786 l 0.0161,-3.66792 -4.943533,0.52692 c -2.71895,0.28981 -8.011944,0.71299 -11.762221,0.94044 l -6.818667,0.41352 -0.472162,3.75028 c -0.267677,2.12614 -0.165345,4.79677 0.236309,6.16677 0.389658,1.32907 0.602125,3.17011 0.472151,4.0912 -0.195253,1.38377 -0.671491,1.71093 -2.741405,1.88323 -1.377812,0.1147 -2.872873,0.65166 -3.322358,1.19327 -0.82592,0.99517 -4.811669,1.36912 -5.650633,0.53015 z m 34.42883,-25.83628 c 17.92898,-2.36529 23.34186,-3.90653 38.81712,-11.05265 22.07987,-10.19596 25.06629,-11.24098 33.18216,-11.61102 3.84403,-0.17526 6.98914,-0.57908 6.98914,-0.89735 0,-1.64097 -2.65638,-6.96306 -5.68692,-11.39379 -8.43072,-12.32596 -24.43116,-22.88334 -53.68404,-35.421695 -8.45689,-3.624791 -10.06747,-4.134166 -15.43626,-4.882093 -2.68115,-0.373504 -3.63723,-0.27296 -3.89933,0.41008 -0.21787,0.567751 -1.498483,0.904909 -3.437053,0.904909 h -3.0898 v -2.655356 c 0,-1.95149 0.49705,-3.191896 1.87513,-4.679461 2.48413,-2.681473 5.306113,-8.414536 6.613043,-13.434924 3.0445,-11.694917 -0.64211,-21.290709 -12.518083,-32.582998 -6.269433,-5.96131 -13.005258,-9.914759 -18.044121,-10.590612 -1.820743,-0.244213 -2.757783,-0.752218 -2.984151,-1.617816 -0.24897,-0.952079 -0.974062,-1.261816 -2.953915,-1.261816 -1.944619,0 -2.816995,-0.360707 -3.369606,-1.393253 -0.728437,-1.361104 -0.788051,-1.347848 -2.583831,0.574536 -1.136189,1.216302 -2.878695,2.154709 -4.562816,2.457249 -4.030383,0.724035 -14.489351,6.036603 -18.508321,9.401189 -7.12397,5.964014 -10.681546,11.332974 -13.920299,21.00804 -1.962141,5.86147 -2.133679,7.029133 -1.803106,12.273603 0.60382,9.579648 4.913536,20.059048 10.816051,26.300087 l 3.376626,3.570291 -0.710482,10.67375 c -0.804175,12.08144 -0.331664,17.18737 2.43191,26.27886 3.102713,10.20715 5.52772,13.89006 13.124593,19.93261 5.295466,4.212 10.005799,6.8178 16.787613,9.28701 8.789458,3.20019 11.704847,3.23557 33.178748,0.40262 z m -2.117173,-13.31476 c -2.04252,-0.35852 -5.05075,-1.43543 -6.68496,-2.39314 -2.835951,-1.66198 -2.96186,-1.87101 -2.764077,-4.58895 0.193622,-2.66092 0.351874,-2.86162 2.413137,-3.06057 1.52816,-0.14749 2.88992,0.30457 4.43214,1.47134 1.22442,0.92635 3.607,2.05414 5.294623,2.50622 4.18548,1.12119 14.0468,1.06896 17.38761,-0.0921 2.31812,-0.80563 2.77864,-1.2922 3.0684,-3.242 0.30476,-2.05065 0.72768,-2.43801 3.98536,-3.65016 2.63992,-0.9823 3.43866,-1.56183 2.89793,-2.10256 -0.41057,-0.41057 -0.74648,-1.88317 -0.74648,-3.27248 0,-2.3344 0.27155,-2.68029 3.5798,-4.55986 1.9689,-1.11862 4.27977,-2.78879 5.13527,-3.71147 l 1.55546,-1.67762 -3.01197,-4.09146 c -3.86764,-5.25381 -6.16563,-6.61748 -14.58819,-8.6569 -10.26113,-2.48461 -13.966,-2.82184 -16.59459,-1.51053 -1.20794,0.6026 -3.22305,1.09563 -4.478033,1.09563 -2.23724,0 -2.28177,-0.0577 -2.28177,-2.95894 0,-2.509098 0.26404,-3.079262 1.73674,-3.750271 2.888803,-1.316217 15.215623,-0.964597 22.651913,0.646146 10.25206,2.220655 13.27828,3.582305 16.8904,7.599855 4.19441,4.66519 5.77034,7.91775 5.76723,11.90292 -0.003,3.96647 -1.65846,6.92784 -5.0412,9.0185 -2.20904,1.36525 -2.45678,1.81608 -2.45678,4.47055 0,2.43752 -0.3536,3.24971 -2.02829,4.65886 -1.11554,0.93868 -3.11001,2.06369 -4.43213,2.50003 -2.03499,0.67161 -2.40386,1.105 -2.40386,2.82441 0,1.76292 -0.42761,2.22439 -3.23887,3.49544 -2.7433,1.24033 -4.69952,1.4886 -12.78501,1.62266 -5.25037,0.087 -11.21729,-0.13507 -13.259803,-0.49358 z M 55.193095,59.733802 c -2.081889,-2.10807 -3.556517,-4.212932 -3.556517,-5.07651 0,-1.95491 5.976221,-7.65041 8.049354,-7.671255 2.026128,-0.02033 9.679195,5.160907 9.679195,6.553011 0,1.77665 -7.483382,9.79599 -9.1413,9.79599 -0.876038,0 -2.917337,-1.461257 -5.030732,-3.601236 z m 6.671499,-2.194628 1.601448,-1.704669 h -3.306117 -3.306117 l 1.601448,1.704669 c 0.880802,0.93757 1.647903,1.70467 1.704669,1.70467 0.05675,0 0.823867,-0.7671 1.704669,-1.70467 z m 0,-5.795873 c -1.333516,-0.861789 -3.217664,-0.861789 -3.750276,0 -0.253131,0.409583 0.61574,0.677694 2.175825,0.671427 1.927999,-0.0074 2.333696,-0.18076 1.574451,-0.671427 z M 46.318022,45.47012 c -0.450035,-0.450036 -0.818245,-1.684989 -0.818245,-2.744349 0,-1.440136 0.441301,-2.093883 1.74906,-2.591093 0.961982,-0.365743 2.014006,-0.664991 2.337825,-0.664991 1.159448,0 2.731792,2.172777 2.731792,3.774987 0,2.566416 -4.128343,4.097535 -6.000432,2.225446 z m 21.456085,-0.318198 c -0.82592,-0.82592 -0.472331,-4.136781 0.530697,-4.969212 1.27657,-1.059466 3.801136,-0.672676 4.670896,0.715648 0.374806,0.598251 0.477,1.902315 0.227119,2.897932 -0.377367,1.50352 -0.837206,1.810209 -2.714239,1.810209 -1.242936,0 -2.464454,-0.204569 -2.714473,-0.454577 z"
       id="path80" />
  </g>
  <g
     inkscape:groupmode="layer"
     id="layer5"
     inkscape:label="いろ"
     style="display:inline;mix-blend-mode:normal">
    <path
       style="fill:#ffed84;fill-opacity:1;stroke-width:2.02031"
       d="M 232.19656,55.935063 C 222.3129,59.549397 215.04055,69.05283 203.93624,70.644235 151.09287,87.188578 102.16102,125.3097 84.434126,179.30389 c -12.341865,26.90217 -14.513288,57.54049 -6.289778,85.93399 8.185838,32.74672 25.254512,63.09934 49.304122,86.82577 -3.22938,43.73906 -9.1488,89.04468 4.86478,131.62926 7.77456,30.13123 21.05019,60.03074 46.43203,79.44526 37.2028,30.76866 84.20533,55.47726 133.85704,51.23763 51.92952,-4.22262 104.44117,-9.50772 154.49417,-24.66587 54.36817,-17.29987 103.68757,-49.3072 158.33745,-63.99474 16.87593,-4.34311 35.76308,-2.99601 53.44339,-7.41042 9.98358,-8.87904 -2.21128,-21.74264 -5.42941,-31.2768 -33.40776,-62.96657 -98.31632,-99.73818 -159.8489,-130.5883 -38.38832,-17.43154 -76.40735,-38.08918 -118.16813,-46.06849 -11.88986,-3.32644 -21.32488,6.96916 -33.17325,4.83374 -2.24253,-16.7587 14.72209,-26.6854 19.79267,-41.31761 18.97176,-36.85849 20.85395,-84.4735 -4.63591,-118.87483 C 354.50392,123.92816 325.84777,94.812993 289.96466,79.156733 279.54104,75.084537 267.38057,74.56348 259.64035,65.563079 252.93048,60.881287 243.02391,65.302446 238.16277,57.402941 236.4054,56.2825 234.27822,55.73286 232.19656,55.935063 Z M 266.4352,156.27557 c 7.34517,0.4043 4.61829,13.32179 -2.93181,9.41493 -4.42709,0.99106 -2.80891,-11.49289 2.93181,-9.41493 z m -79.02865,0.31962 c 7.52487,3.92379 3.57109,12.11934 -3.63024,11.25373 -8.07077,2.20934 -7.05834,-13.36093 1.02594,-10.98147 0.86222,-0.12293 1.72907,-0.29336 2.6043,-0.27226 z m 38.10169,28.00016 c 11.12737,3.36551 21.05705,10.18287 29.45621,18.12356 -6.8295,11.51551 -16.63037,22.88166 -28.11854,29.17999 -10.00916,-6.05278 -20.69616,-15.46137 -24.4015,-26.34288 5.32065,-8.7501 13.96846,-16.3128 23.06383,-20.96067 z m 179.2863,187.87653 c 33.22172,0.21452 67.40364,5.39898 97.5389,19.70981 20.80322,14.4708 41.18545,40.11019 31.3897,66.82002 -6.72984,13.63453 -25.88134,19.38238 -25.26565,36.82321 -0.47158,21.81952 -34.73533,17.95306 -34.30967,40.50871 -18.67285,13.42335 -43.42062,6.47015 -64.81925,8.6575 -22.14137,-0.47217 -47.86476,3.05971 -66.06258,-12.15357 -1.49662,-7.60977 -0.78643,-16.4719 8.82306,-11.52207 28.87686,16.55578 64.81348,21.3932 96.67868,11.27347 9.50807,-2.77334 13.41077,-12.10414 17.59086,-19.79663 8.78411,-6.89835 27.95715,-8.46892 22.1521,-23.76087 -4.37887,-9.53727 2.65323,-17.07624 10.8966,-20.53804 9.46579,-7.38272 24.29625,-14.278 25.85944,-26.74031 -14.03328,-25.29291 -38.10241,-46.11538 -67.23794,-51.69037 -23.651,-4.13785 -48.73539,-14.67027 -72.36007,-5.00735 -6.20143,1.69974 -15.80432,5.65386 -13.01511,-4.85512 -1.7294,-9.4046 12.90399,-5.67041 18.46046,-7.4206 4.55683,-0.22235 9.11854,-0.29927 13.68047,-0.30779 z"
       id="path95"
       transform="scale(0.26458333)" />
    <path
       style="fill:#e8974c;fill-opacity:1;stroke-width:0.252538"
       d="m 225.36338,185.95768 c -5.20788,-0.21233 -10.81704,2.58809 -12.66143,7.67035 -1.57628,4.31631 1.38438,9.13207 5.6239,10.44038 4.56513,1.67166 9.53951,1.05562 14.30047,1.07526 4.18279,0.0748 8.86272,-2.31302 9.60779,-6.76575 0.84961,-4.15341 -2.20448,-7.88998 -5.7699,-9.58906 -3.38899,-1.87452 -7.20655,-2.9686 -11.10083,-2.83118 z"
       id="path97"
       transform="scale(0.26458333)" />
    <path
       style="fill:#e8974c;fill-opacity:1;stroke-width:0.252538"
       d="m 213.31751,204.12464 c -3.90274,1.08588 -6.34487,5.56192 -4.99953,9.41097 1.29834,3.3302 4.42038,5.4603 6.66037,8.14215 2.9141,2.85646 5.45264,6.20848 8.89298,8.45929 3.34612,1.81922 7.54047,0.5638 9.90867,-2.25903 3.92535,-4.0742 7.98092,-8.06092 11.64824,-12.35946 2.75323,-3.47776 1.23719,-9.14971 -2.79811,-10.92867 -3.30486,-1.36793 -7.00054,-0.49622 -10.48324,-0.74245 -5.93857,0.0887 -11.90172,-0.1799 -17.82451,0.13831 -0.33496,0.0463 -0.66991,0.0926 -1.00487,0.13889 z"
       id="path99"
       transform="scale(0.26458333)" />
  </g>
  <g
     inkscape:groupmode="layer"
     id="layer4"
     inkscape:label="線が"
     style="display:inline" />
  <g
     inkscape:groupmode="layer"
     id="layer6"
     inkscape:label="線色">
    <path
       style="fill:#3f3521;fill-opacity:1;stroke-width:1.42857"
       d="M 233.36756,30.162893 C 215.78822,31.252466 207.33349,50.601352 190.6304,54.32305 152.90157,66.374062 116.88225,87.793407 92.291748,119.29184 62.265859,160.8654 49.604069,215.02861 60.235596,265.43566 c 6.566856,36.80311 21.044363,73.69767 48.768124,99.75234 0.90196,38.47743 -2.11861,77.23467 2.59208,115.52456 7.78696,36.68058 22.6068,74.11381 52.4695,98.42072 27.88644,23.66088 61.27966,40.72579 96.76599,49.44758 9.35249,1.85227 6.48812,13.77551 4.4308,20.15347 -4.0597,10.40528 -22.113,7.02654 -23.09431,19.78235 -1.02087,5.91896 -0.27502,12.10063 3.40681,16.82758 0.90423,5.52038 0.26313,16.01732 8.65234,15.03627 8.25498,0.82385 15.3561,-2.94637 22.43305,-6.31139 5.20888,-2.18674 16.46153,-0.7852 15.67521,-9.21317 -1.35027,-16.81561 -3.45233,-34.29423 0.13673,-50.92354 5.76541,-4.26469 14.34354,-0.97035 21.11876,-2.61026 22.3943,-1.41654 44.75371,-3.35851 67.08994,-5.5008 -1.0434,8.89427 0.73017,19.09557 -2.00503,27.20614 -6.72486,7.77077 -21.06166,13.8809 -18.03961,26.41273 -0.20573,6.35933 5.88717,8.04437 10.38225,9.9693 2.30982,3.65817 1.72308,11.2469 8.27009,10.50782 6.66049,1.1829 14.17983,0.82185 18.10547,-5.50223 5.8496,-5.32966 17.57282,-2.82549 19.02902,-12.76786 1.35935,-15.79076 -10.85253,-28.62576 -11.93639,-44.1769 0.42079,-4.97253 -4.75557,-14.74897 1.03322,-15.86864 38.09731,-4.78965 75.79875,-13.60875 110.8948,-29.48013 40.97732,-16.6804 80.23751,-38.15199 122.44977,-51.40626 17.60263,-5.55836 36.53547,-1.36204 54.43918,-3.57421 9.47987,-6.32585 7.18262,-20.1936 6.4174,-29.9442 -6.56527,-47.61493 -42.12713,-84.45372 -78.90345,-112.22656 -48.14583,-35.88567 -103.80376,-59.71226 -158.2953,-84.1052 -20.65518,-9.62074 -43.05323,-14.2285 -65.27613,-18.57616 16.57503,-36.83347 20.05615,-79.38765 11.19698,-118.67745 C 396.99115,134.92209 368.28326,103.266 335.92266,80.304797 320.56308,70.127529 303.57831,62.668673 287.42728,53.949166 c -9.50002,-2.649886 -17.94557,-8.570546 -27.9855,-9.135044 -6.45746,-5.626896 -11.79716,-14.753897 -21.7327,-14.508929 -1.44137,-0.149543 -2.89339,-0.202315 -4.34152,-0.1423 z m 2.85436,33.808594 c 6.32917,8.621918 20.37014,2.159255 25.62779,12.03125 8.7727,6.460099 21.01115,5.240565 30.27901,11.171875 36.01171,17.589818 65.90051,47.028318 86.1942,81.498328 19.8102,33.92603 12.97769,76.70882 -5.72266,109.40849 -5.3743,11.92434 -18.858,20.57803 -17.72173,34.9748 -4.26571,10.79193 6.06245,9.1787 13.25466,8.78355 5.9841,1.06765 10.27487,-3.07091 15.14509,-5.27342 35.11978,0.70678 66.93747,18.56165 98.62904,31.98457 57.24967,26.8041 116.14719,55.37985 159.32854,102.9094 15.02473,17.24027 27.78718,37.02637 34.90793,58.79464 -1.65944,5.36161 -10.52004,2.76237 -14.79911,4.29687 -24.91216,0.8614 -49.59622,5.87639 -72.2885,16.37697 -54.71574,22.19177 -106.85572,53.51279 -165.79464,63.14592 -43.23718,6.65957 -86.66823,14.51805 -130.53572,14.04297 -25.86124,-0.43742 -49.82751,-12.38859 -72.61719,-23.46542 -27.57127,-15.8237 -54.68928,-36.25078 -68.97321,-65.42688 -13.94504,-34.59562 -23.43618,-71.48169 -20.86775,-109.05134 0.49831,-20.11898 2.81369,-40.29282 3.33427,-60.30692 -31.31118,-30.33667 -51.931624,-72.0832 -53.049668,-115.93193 -1.653434,-16.84235 1.809104,-33.26334 8.371354,-48.7509 8.464217,-24.45566 21.352914,-47.69203 41.061024,-64.77702 20.85119,-21.564101 49.22988,-33.442618 76.70601,-44.083683 10.3692,-2.130791 19.04507,-8.420168 26.28627,-15.904017 1.08166,1.183966 2.16332,2.367932 3.24499,3.551897 z"
       id="path134"
       transform="scale(0.26458333)" />
    <path
       style="fill:#3f3521;fill-opacity:1;stroke-width:2.02031"
       d="m 397.36144,365.92 c -10.15413,1.1192 -25.60669,-1.108 -31.33841,9.22948 -0.95925,7.12024 -0.5173,21.88158 10.5119,18.56945 29.37147,-11.9456 61.59888,-2.27527 90.6715,5.78067 20.26694,4.09542 34.98906,18.70322 46.30677,34.98845 2.88254,3.96439 8.94196,9.51635 2.21365,13.30561 -9.05364,11.29604 -24.41798,15.33149 -32.98779,26.74142 -5.50555,8.5478 7.71385,21.85738 -5.72946,25.49846 -9.24677,4.01638 -18.51547,9.61118 -20.93699,20.04916 -10.132,12.4006 -28.82124,9.90192 -43.15246,11.17876 -21.59842,0.93397 -42.11763,-6.59717 -61.1813,-16.00461 -6.03202,-2.91059 -17.35623,-2.1855 -15.36932,7.14604 -3.74831,12.84634 5.32544,18.31259 16.2089,22.08254 24.94981,11.78812 53.77759,7.17751 80.48953,7.6775 16.06858,-1.13627 38.6457,0.0569 47.46533,-16.46627 -0.24384,-14.95371 18.76854,-13.52005 26.19295,-22.93362 10.63383,-6.33595 5.74275,-19.95609 10.7447,-28.84854 12.93509,-8.46567 25.88688,-20.84889 24.85527,-37.71894 0.33159,-26.22497 -19.53015,-48.84507 -41.17949,-61.29574 C 468.97627,370.22161 432.35003,366.53454 397.36144,365.92 Z"
       id="path136"
       transform="scale(0.26458333)" />
    <path
       style="fill:#3f3521;fill-opacity:1;stroke-width:0.505076"
       d="m 265.21685,148.95811 c -5.01679,-0.40481 -9.72538,3.21231 -10.53952,8.19664 -0.70957,4.41585 -1.75748,9.65161 0.79905,13.6489 2.79988,2.42897 7.02883,1.75382 10.48033,2.2097 4.29538,0.38989 9.70655,-0.87467 10.83842,-5.69789 2.11307,-5.68945 1.61737,-14.15018 -4.81499,-16.77307 -2.10797,-0.9867 -4.42922,-1.58015 -6.76329,-1.58428 z"
       id="path138"
       transform="scale(0.26458333)" />
    <path
       style="fill:#3f3521;fill-opacity:1;stroke-width:0.505076"
       d="m 186.96159,148.66513 c -4.97495,0.90655 -10.64837,2.15303 -14.01093,6.25229 -2.66378,4.78836 -1.90903,11.11026 0.64318,15.80336 4.49177,7.01106 15.31714,5.99479 20.72885,0.65798 3.55087,-2.78836 4.9038,-7.59876 3.37079,-11.8466 -1.5156,-4.46294 -4.599,-9.09717 -9.19298,-10.7526 -0.50511,-0.10666 -1.02381,-0.13768 -1.53891,-0.11443 z"
       id="path140"
       transform="scale(0.26458333)" />
    <path
       style="fill:#3f3521;fill-opacity:1;stroke-width:0.126269"
       d="m 225.46758,177.17629 c -2.65359,0.18282 -5.00068,1.649 -7.2294,2.97892 -6.21679,4.03769 -11.70377,9.12963 -16.61592,14.66056 -2.51565,2.97666 -5.09431,6.05922 -6.48367,9.74932 -0.75873,1.83937 -0.19476,3.86187 0.70508,5.53537 2.68434,5.20409 6.57785,9.66436 10.52382,13.9435 4.82368,5.03628 9.95839,9.87476 15.8704,13.61904 1.76346,0.97687 3.63636,2.28119 5.75164,2.04259 2.44906,-0.45501 4.40917,-2.15989 6.36786,-3.58511 6.65346,-5.32362 12.54346,-11.53633 18.10316,-17.97456 3.35372,-4.02967 6.75272,-8.10699 9.19766,-12.77143 0.76992,-1.42695 1.31925,-3.26264 0.34626,-4.7378 -1.89604,-2.94798 -4.69739,-5.16451 -7.35627,-7.39023 -6.48995,-5.12844 -13.45526,-9.69258 -20.86629,-13.37827 -2.57592,-1.16585 -5.20955,-2.51654 -8.08029,-2.69288 -0.078,-3.3e-4 -0.15604,-0.001 -0.23404,9.8e-4 z m 0.15931,16.43151 c 2.94158,-0.0619 5.95074,0.95573 8.40059,2.6292 0.21074,0.20912 0.712,0.48165 0.64812,0.78031 -1.52662,0.59689 -3.20426,0.45084 -4.78101,0.58622 -2.80655,0.15972 -5.66368,0.0559 -8.42471,-0.53863 -0.54248,-0.20005 -1.47407,-0.37865 -1.51128,-1.06761 0.76262,-1.52636 2.60586,-2.17081 4.21346,-2.33314 0.49441,-0.0426 0.95746,-0.0554 1.45483,-0.0564 z m 1.81537,17.87965 c 3.79477,-0.002 7.58949,0.0193 11.38419,0.0404 -3.77195,3.99196 -7.48116,8.05337 -11.47766,11.82416 -3.97615,-3.77382 -7.64664,-7.85523 -11.42489,-11.82416 3.83943,-0.0209 7.67885,-0.0422 11.51836,-0.0404 z"
       id="path146"
       transform="scale(0.26458333)" />
  </g>
  <g
     inkscape:groupmode="layer"
     id="layer7"
     inkscape:label="ひかり" />
</svg>
