<?xml version="1.0" encoding="UTF-8" standalone="no"?>
<svg
   xmlns:dc="http://purl.org/dc/elements/1.1/"
   xmlns:cc="http://creativecommons.org/ns#"
   xmlns:rdf="http://www.w3.org/1999/02/22-rdf-syntax-ns#"
   xmlns:svg="http://www.w3.org/2000/svg"
   xmlns="http://www.w3.org/2000/svg"
   xmlns:sodipodi="http://sodipodi.sourceforge.net/DTD/sodipodi-0.dtd"
   xmlns:inkscape="http://www.inkscape.org/namespaces/inkscape"
   width="200mm"
   height="200mm"
   viewBox="0 0 200 200"
   version="1.1"
   id="svg2014"
   inkscape:version="1.0.1 (3bc2e813f5, 2020-09-07)"
   sodipodi:docname="kaeru.svg">
  <defs
     id="defs2008" />
  <sodipodi:namedview
     id="base"
     pagecolor="#ffffff"
     bordercolor="#666666"
     borderopacity="1.0"
     inkscape:pageopacity="0.0"
     inkscape:pageshadow="2"
     inkscape:zoom="0.35"
     inkscape:cx="234.62772"
     inkscape:cy="530.59734"
     inkscape:document-units="mm"
     inkscape:current-layer="layer1"
     inkscape:document-rotation="0"
     showgrid="false"
     inkscape:window-width="1366"
     inkscape:window-height="738"
     inkscape:window-x="0"
     inkscape:window-y="332"
     inkscape:window-maximized="0" />
  <metadata
     id="metadata2011">
    <rdf:RDF>
      <cc:Work
         rdf:about="">
        <dc:format>image/svg+xml</dc:format>
        <dc:type
           rdf:resource="http://purl.org/dc/dcmitype/StillImage" />
        <dc:title />
      </cc:Work>
    </rdf:RDF>
  </metadata>
  <g
     inkscape:groupmode="layer"
     id="layer9"
     inkscape:label="いろ"
     style="mix-blend-mode:multiply">
    <path
       style="fill:#c8f689;fill-opacity:1;stroke-width:1.42857"
       d="m 516.5771,26.310024 c -25.65544,1.315249 -46.27889,23.55023 -53.4403,47.03683 -4.02034,10.616446 1.77913,21.037266 1.57924,31.688056 -33.46111,0.29247 -66.9686,-8.907419 -100.6562,-6.383687 -15.97314,2.027107 -31.20048,7.495847 -45.79748,13.875317 -6.83943,1.70795 -2.99683,-9.887 -4.73402,-14.30102 -0.0965,-14.539953 -3.00448,-29.154653 -11.71408,-41.114714 -14.57439,-24.837758 -46.60665,-32.387508 -73.40681,-28.685827 -24.42224,4.128109 -44.92284,22.642379 -55.58036,44.430804 -5.02543,13.945773 -5.53894,29.613457 -3.05245,44.084817 3.14242,6.87726 9.79083,12.02049 12.92411,18.66072 -20.823,20.88921 -41.21437,42.40444 -57.94085,66.83036 -23.5309,31.49407 -36.330016,70.74828 -37.087056,109.94977 2.572082,38.16234 16.787626,77.36378 46.637836,102.64788 26.43391,22.66312 55.49889,42.60825 86.5921,58.31397 32.90098,16.0107 70.49395,12.97578 105.70979,16.70835 6.09807,0.94943 3.19507,10.2327 0.86217,13.54633 -15.22664,25.429 -27.4331,53.69235 -33.84765,82.87667 -1.03523,17.86838 -2.16458,36.13075 0.5413,53.86997 1.4639,8.23594 9.62084,16.00233 18.14731,11.39788 9.4473,-6.13808 19.41257,6.9498 28.75,1.99498 2.04387,-2.75316 1.34851,-7.62425 6.55691,-6.7299 8.66715,-1.96335 15.97155,9.88025 23.57702,4.55914 4.93087,-6.57702 9.44003,-17.3595 19.81584,-14.70144 6.10174,-1.29773 13.07947,8.0891 17.1903,0.0753 1.79127,-5.89288 -6.76597,-10.23165 -2.1317,-16.1635 10.3061,-20.00782 23.42204,-38.85875 28.75,-61.09932 4.73796,-15.12569 7.9779,-30.65926 10.59152,-46.27792 3.10417,0.61433 9.45457,-0.5591 7.76785,4.79633 -0.82838,36.18367 -17.22405,69.60861 -31.18861,102.38281 -0.34914,8.0972 9.4845,6.2302 12.49163,1.19419 14.85581,-16.26047 22.6358,-37.38057 34.29687,-55.65847 6.63611,-3.9483 7.35988,1.59208 5.33483,6.89731 -7.46086,25.67357 -22.91526,48.63846 -41.65737,67.80413 -4.14452,4.74086 -15.0489,8.61874 -10.55246,16.46206 6.69357,5.70626 17.8374,1.88137 24.67356,5.32366 2.07234,7.64968 -6.14528,9.67798 -11.9029,8.91461 -10.00275,-3.02604 -14.27068,5.49443 -13.28422,14.20431 -0.44373,13.02952 -5.12946,25.33232 -7.34358,37.9525 2.47087,7.9167 13.22628,7.30805 19.774,9.88003 19.10787,3.93633 39.03737,3.77512 58.3817,2.00613 13.54467,-5.09921 22.02304,-18.24841 31.76897,-28.33147 22.10285,-26.43553 31.07865,-62.58854 26.14285,-96.49224 -3.57767,-48.78006 -16.61938,-96.03729 -26.54464,-143.71982 -1.91488,-5.5005 7.16569,-4.75817 10.17956,-7.01164 27.16371,-7.94406 53.88308,-20.02533 73.39746,-41.158 21.34397,-22.56346 41.4419,-47.42349 53.61761,-76.22691 11.33789,-32.0461 16.30889,-68.8048 2.09946,-100.81829 -12.29167,-29.88763 -26.86807,-60.13829 -50.07255,-83.14453 -8.94578,-9.06612 -22.19088,-12.38572 -31.01004,-21.25837 0.32052,-11.01675 10.50667,-19.23926 12.6032,-30.05923 7.76513,-25.350972 -8.73281,-50.952364 -29.41568,-64.533306 -14.162,-9.631596 -31.02256,-16.699387 -48.39399,-16.49563 z m 10.79799,23.858817 c 21.10241,0.195683 37.58795,20.952132 34.5452,41.498326 0.14357,10.452603 -5.90533,22.727423 -17.99108,21.902903 -10.25927,1.18743 -20.573,1.7777 -30.87332,2.47489 -10.82302,-8.71296 -20.18055,-21.823893 -16.8471,-36.453686 -0.38349,-16.26006 15.18195,-30.37822 31.1663,-29.422433 z M 241.70544,61.148193 c 13.31336,-0.462283 28.24353,9.003777 27.57683,23.612603 0.13389,8.343978 2.60449,18.003354 0.42263,25.561914 -8.3231,7.23269 -16.54591,17.46755 -28.9816,15.37905 -14.54548,1.68281 -28.6963,-8.67872 -32.65904,-22.4135 -2.7819,-15.668962 2.62733,-35.208076 19.55357,-40.184152 4.5115,-1.565152 9.32896,-2.106384 14.08761,-1.955915 z M 449.52353,211.12029 c 10.43828,3.64699 10.74771,21.66019 -1.34487,23.6663 -17.07586,6.22017 -35.02526,2.08236 -51.89453,-1.9057 -21.57503,-3.19316 -43.47309,-0.17606 -64.28014,5.76451 -10.45365,1.32956 -22.4563,3.79619 -32.05915,-1.39508 -6.87533,-8.76524 1.68606,-25.18334 13.10826,-19.52567 -0.57189,5.3869 -1.62323,16.24615 7.05357,14.55078 16.67844,-4.9027 32.8355,-12.38894 50.73376,-10.3005 17.86773,-1.03851 34.95548,2.65413 52.49447,5.73297 7.73447,0.97298 21.18563,2.39482 22.25169,-8.38727 -0.0969,-3.3669 0.19921,-6.86677 3.93694,-8.20034 z"
       id="path2051"
       transform="scale(0.26458333)" />
    <path
       style="fill:#c8f689;fill-opacity:1;stroke-width:0.252538"
       d="m 275.09888,604.62718 c -2.86718,0.85261 -3.53684,3.94411 -4.14865,6.48776 -2.03871,7.81053 -4.70322,15.61412 -4.95209,23.74875 -0.13194,3.82971 1.73708,8.60009 5.9729,9.23316 3.73708,0.5782 6.50444,-2.83454 7.43628,-6.08136 2.83743,-9.01456 2.10157,-18.6316 1.87524,-27.94008 0.34996,-3.13158 -2.50191,-6.23841 -5.70787,-5.49755 l -0.2512,0.026 z"
       id="path2053"
       transform="scale(0.26458333)" />
    <path
       style="fill:#c8f689;fill-opacity:1;stroke-width:0.252538"
       d="m 257.14303,650.32524 c -3.32283,0.97 -3.83613,4.72219 -4.9901,7.47503 -0.3786,1.52015 -1.48383,2.97796 -3.20605,2.90271 -5.22445,0.59245 -10.88554,0.72518 -15.23564,4.10276 -4.86622,3.4732 -7.32643,9.56487 -7.01977,15.44675 -0.0631,8.41022 3.01931,16.43946 6.28093,24.05595 3.52718,7.49963 7.5866,15.40468 14.81439,19.96461 5.41476,3.4815 12.98759,2.80157 17.81366,-1.42407 6.97818,-5.70719 11.16592,-13.99371 14.72839,-22.09702 4.28851,-10.30661 6.77635,-21.44006 6.5045,-32.63658 -0.0747,-3.61957 0.17867,-8.0747 -3.17578,-10.40981 -2.47133,-1.79426 -5.70186,-0.55327 -7.65753,1.40721 -3.18309,2.93708 -9.03903,1.93754 -10.79699,-2.12635 -1.57391,-2.64451 -2.75084,-6.42471 -6.32579,-6.81015 -0.57807,0.0497 -1.15615,0.0993 -1.73422,0.14896 z"
       id="path2055"
       transform="scale(0.26458333)" />
    <path
       style="fill:#c8f689;fill-opacity:1;stroke-width:0.252538"
       d="m 330.31793,656.43943 c -3.88837,0.0369 -7.38978,2.03 -10.33286,4.4056 -5.45254,3.35244 -12.04446,2.01758 -18.02195,3.23959 -4.14922,0.95915 -6.39301,5.2573 -6.40026,9.26154 -0.18009,11.4574 -4.16675,22.38329 -5.98474,33.61033 -0.4478,3.53197 -1.61231,7.88299 1.19145,10.75648 3.15683,2.71349 7.64122,2.56749 11.55066,3.07436 11.25937,0.92339 22.57552,0.57368 33.84948,0.15488 4.36354,-0.52109 9.3001,-0.22365 12.93863,-3.09458 3.16689,-2.65072 2.76701,-7.1377 2.34535,-10.82363 -1.55908,-8.71377 -4.55177,-17.2244 -6.31641,-25.7875 -1.11642,-4.5298 -1.64819,-9.16205 -2.14657,-13.787 -0.86577,-6.13935 -6.35144,-11.24752 -12.67278,-11.01007 z"
       id="path2057"
       transform="scale(0.26458333)" />
    <path
       style="fill:#c8f689;fill-opacity:1;stroke-width:0.252538"
       d="m 384.83016,656.08528 c -4.41732,0.24483 -6.77321,4.60774 -8.58134,8.08264 -1.55758,3.50892 -5.06066,6.70166 -9.16243,5.97071 -3.68435,-0.70327 -6.97753,-3.52347 -10.92595,-2.73132 -3.06975,0.2345 -4.75908,3.6271 -4.07343,6.43209 1.25132,7.2136 3.94643,14.09101 6.54924,20.90575 1.54719,3.37532 2.62339,7.16936 5.24903,9.89503 1.44321,0.66538 0.84661,2.5122 1.45357,3.75946 1.77552,5.90674 6.22398,10.8657 11.53438,13.8748 4.56952,2.69566 10.15527,1.75454 14.77826,-0.2505 8.33629,-3.19454 14.25288,-10.73309 17.1114,-18.99876 2.44885,-6.7847 3.65134,-13.99258 3.54149,-21.20514 -0.0156,-5.38952 0.37187,-10.80467 -0.0733,-16.17925 -0.40553,-3.07359 -3.77168,-4.96285 -6.6676,-4.09733 -4.21213,0.53845 -8.45992,1.69477 -12.70434,1.47084 -1.54544,-3.29722 -3.83578,-7.14284 -8.02894,-6.92902 z"
       id="path2059"
       transform="scale(0.26458333)" />
  </g>
  <g
     inkscape:groupmode="layer"
     id="layer10"
     inkscape:label="しろ"
     style="opacity:0.92567568">
    <path
       style="fill:#ffffff;fill-opacity:1;stroke-width:0.264583"
       id="path2064"
       d="m 84.052054,135.89003 c 0.07141,-0.0455 0.142939,-0.0908 0.214234,-0.13643 0.226837,-0.14527 0.918543,-0.56265 0.683246,-0.43152 -2.11945,1.18118 -0.535723,0.32605 -0.08012,0.10536 0.832789,-0.36896 1.734741,-0.49013 2.634562,-0.5541 0.848405,-0.0934 1.698019,-0.15553 2.550906,-0.18653 1.419011,-0.0818 2.83391,0.046 4.233344,0.27417 1.649368,0.28956 3.230467,0.83295 4.780931,1.4512 1.265833,0.59847 2.542243,1.22404 3.660643,2.07753 0.21519,0.16421 0.41819,0.34381 0.62729,0.51571 1.35972,1.24926 2.31405,2.82493 3.18494,4.43285 0.79575,1.57082 1.45155,3.20364 2.03036,4.86489 0.4933,1.46039 0.83722,2.95768 1.11634,4.47113 0.25276,1.37288 0.30448,2.76925 0.33738,4.16126 0.008,0.87599 0.006,0.45314 0.005,1.26855 0,0 1.43677,-0.73383 1.43677,-0.73383 v 0 c -0.0167,-0.80892 -0.008,-0.38898 -0.0275,-1.25983 -0.0352,-1.40035 -0.0696,-2.80781 -0.34377,-4.18651 -0.28366,-1.51952 -0.65781,-3.01621 -1.1415,-4.4855 -0.59208,-1.66392 -1.26446,-3.29881 -2.05669,-4.87847 -0.87876,-1.62526 -1.85594,-3.20559 -3.20298,-4.49157 -0.20932,-0.17709 -0.41067,-0.36407 -0.62797,-0.53127 -1.12582,-0.8663 -2.42925,-1.47775 -3.69997,-2.09347 -1.544337,-0.64839 -3.13338,-1.18358 -4.784044,-1.49117 -1.392356,-0.24389 -2.80481,-0.38473 -4.219868,-0.32283 -0.849088,0.0208 -1.696469,0.0572 -2.53918,0.17071 -0.91236,0.0561 -1.828321,0.16782 -2.682663,0.51344 -1.274117,0.59133 -2.464425,1.34465 -3.658518,2.08136 0,0 1.568524,-0.60513 1.568524,-0.60513 z" />
    <path
       style="fill:#ffffff;fill-opacity:1;stroke-width:0.714286"
       d="m 341.84887,504.64034 c -5.48175,0.60891 -11.78646,-0.78385 -16.55965,2.20837 -13.25085,19.32136 -20.95115,41.83468 -28.0288,64.00257 -4.39946,13.44008 -6.49651,27.52809 -5.92497,41.66991 0.46811,12.41241 -0.32448,25.99399 6.25839,37.05079 3.7957,5.76053 11.78668,4.9799 16.95871,1.6755 8.59635,-3.28259 16.51754,6.66103 25.01395,3.18081 3.05842,-1.12463 3.08601,-5.07858 5.28739,-6.83036 7.95836,-2.70724 14.41125,4.0817 21.41881,6.37417 5.8885,-0.0255 8.03849,-6.94379 11.49972,-10.63756 2.37352,-3.77201 5.9844,-7.27759 10.85372,-6.43028 3.75001,-0.0244 8.29061,-0.28886 10.60275,3.28157 4.56755,4.06482 11.67946,-1.43429 9.49079,-6.9336 -0.64015,-3.74837 -5.74706,-6.5289 -3.06361,-10.5971 3.5937,-9.37886 10.23103,-17.26926 14.52961,-26.18656 0.5755,-12.51717 -1.83474,-25.26614 -5.70707,-37.21885 -6.02426,-16.90502 -14.10097,-35.28456 -30.89565,-43.95368 -12.7009,-7.12895 -27.15438,-10.89905 -41.73409,-10.6557 z"
       id="path2066"
       transform="scale(0.26458333)" />
  </g>
  <g
     inkscape:label="レイヤー 1"
     inkscape:groupmode="layer"
     id="layer1">
    <path
       style="fill:#000000;stroke-width:0.678041"
       d="m 112.99346,197.49131 c -1.86461,-0.47634 -4.24913,-1.21319 -5.29895,-1.63743 -1.04982,-0.42426 -3.57778,-0.77139 -5.61769,-0.77139 -2.219155,0 -4.357706,-0.42509 -5.324099,-1.05829 -1.349021,-0.88391 -2.096765,-0.92861 -4.537885,-0.27129 -1.656719,0.4461 -6.013026,0.69078 -10.05717,0.56483 -5.061027,-0.1576 -7.606093,0.0418 -8.757292,0.68621 -2.241409,1.25464 -8.44166,0.66396 -10.779526,-1.02693 -1.010071,-0.73054 -2.751841,-3.14533 -3.870606,-5.3662 -1.874609,-3.7213 -2.034122,-4.59624 -2.034122,-11.15738 v -7.11942 l 1.814989,-0.20975 c 0.998248,-0.11537 2.179803,-0.64932 2.625677,-1.18658 0.445874,-0.53724 1.330368,-0.97681 1.965549,-0.97681 2.10849,0 3.910199,-2.97937 5.740396,-9.49256 2.156547,-7.67457 4.628798,-13.17478 8.86584,-19.72459 1.72158,-2.66129 3.037631,-4.90162 2.92455,-4.97851 -1.005365,-0.68375 -6.402467,-1.74046 -8.88926,-1.74046 -1.706096,0 -3.293655,-0.3101 -3.527891,-0.68911 -0.234245,-0.379 -0.714316,-0.51083 -1.066841,-0.29297 -1.145638,0.70804 -8.317843,-1.16107 -12.487132,-3.25423 -7.025861,-3.52727 -16.92723,-10.44514 -22.634958,-15.81457 -4.234988,-3.98397 -6.040098,-6.28188 -7.870321,-10.01893 -2.723154,-5.5603 -5.066218,-14.24919 -5.081425,-18.8437 -0.02392,-7.22008 3.552338,-20.42369 7.320337,-27.026998 2.168474,-3.800198 11.493953,-15.947795 14.2355,-18.543522 2.009599,-1.902705 2.024676,-1.968313 1.010192,-4.396325 -1.527878,-3.656714 -0.927766,-13.078288 1.080235,-16.95958 2.167264,-4.189112 6.983028,-8.7426315 11.370474,-10.7512685 3.489049,-1.597342 4.318052,-1.701333 11.32089,-1.420109 8.319209,0.334089 11.342798,1.379504 15.228654,5.26537 2.435645,2.4356395 5.203677,8.0982335 5.768591,11.8008585 0.220411,1.444663 0.492601,2.718506 0.604844,2.83076 0.112261,0.112254 2.032292,-0.225903 4.266757,-0.751459 4.747449,-1.116629 10.132113,-1.228927 16.476513,-0.343622 2.49543,0.348216 5.98644,0.800057 7.75782,1.00409 l 3.2207,0.370968 v -3.444267 c 0,-4.510256 1.5119,-7.550823 6.08394,-12.2353205 4.46106,-4.570792 7.5424,-5.660445 14.40524,-5.0941 8.30164,0.68508 16.74604,5.910567 19.87006,12.2958205 2.51793,5.146476 2.99167,11.959426 1.12502,16.179302 l -1.40773,3.182404 2.55283,1.302353 c 6.16212,3.14368 13.72702,14.791382 18.34578,28.247046 2.42579,7.066949 2.55014,10.086189 0.82114,19.938279 -1.36692,7.78894 -3.95764,13.21878 -10.19058,21.35827 -6.76335,8.83214 -16.17942,16.58803 -20.16015,16.60564 -0.79168,0.003 -2.87444,0.64114 -4.62838,1.41699 -2.44821,1.08294 -3.08696,1.67359 -2.74979,2.54265 1.07657,2.77485 3.2068,13.04423 4.75558,22.92552 2.51749,16.06159 2.12824,27.13576 -1.19546,34.0111 -1.78874,3.7002 -10.11024,13.09502 -12.55328,14.17247 -2.45848,1.08424 -16.46068,1.01485 -20.83756,-0.10331 z m 17.97821,-4.14782 c 0.56497,-0.15694 3.06542,-2.53577 5.55656,-5.28631 4.6494,-5.1335 6.31571,-8.58465 8.05051,-16.67377 1.17375,-5.47303 -1.76206,-26.71522 -5.59582,-40.48876 -1.15911,-4.16432 -1.93886,-8.01087 -1.73278,-8.54787 0.20606,-0.53702 2.38185,-1.48058 4.83509,-2.09681 6.75718,-1.69735 11.71997,-4.34845 16.48572,-8.80656 5.43024,-5.07973 11.69274,-13.35059 14.39338,-19.00924 2.53936,-5.32073 4.36098,-14.98618 3.71998,-19.73794 -0.99533,-7.37833 -6.15254,-18.647518 -12.23952,-26.744991 -2.38639,-3.174599 -4.00546,-4.529906 -7.41926,-6.210505 -5.11954,-2.520341 -5.39225,-3.463338 -2.3326,-8.065936 3.54606,-5.334321 2.51363,-12.001287 -2.62501,-16.951006 -6.14235,-5.9165355 -14.22778,-8.2536615 -19.82386,-5.7301735 -5.38469,2.4281545 -10.56242,11.1568575 -8.8489,14.9176205 0.43228,0.948752 0.78596,2.473443 0.78596,3.388201 0,1.472857 -0.29394,1.663197 -2.56843,1.663197 -1.41263,0 -6.21823,-0.45524 -10.67912,-1.011642 -4.46089,-0.556404 -9.87478,-1.014082 -12.030839,-1.017061 -3.716317,-0.0052 -11.59548,2.079216 -12.996979,3.438218 -0.864269,0.838059 -3.741436,0.798106 -3.847877,-0.05344 -0.04655,-0.372921 -0.124506,-2.737586 -0.173097,-5.254811 -0.07262,-3.764125 -0.461357,-5.238924 -2.189242,-8.305991 -2.789577,-4.951648 -6.1471,-7.2261915 -12.012261,-8.1376635 -7.661662,-1.190655 -12.636206,0.535167 -17.700645,6.1409015 -3.4314,3.798147 -4.454172,6.524574 -4.454172,11.873552 0,4.121297 0.16953,4.654393 2.034113,6.396176 2.706764,2.52849 2.566394,3.696759 -0.704195,5.861132 -3.275175,2.16741 -14.260577,15.983284 -16.959266,21.328956 -2.795847,5.538116 -4.50577,11.061256 -5.357691,17.305626 -0.662736,4.85773 -0.585345,6.25438 0.65518,11.8236 2.051334,9.20928 5.128627,14.6182 11.457503,20.13868 6.070253,5.29487 16.872299,12.44476 23.095633,15.28701 4.851567,2.21575 11.733094,3.28978 22.005001,3.43441 5.950074,0.0838 6.061721,0.11602 6.535367,1.88673 0.484622,1.81171 0.116242,2.79303 -2.36815,6.30854 -2.126142,3.00857 -6.400464,14.30959 -7.243715,19.15188 -0.976799,5.6092 -0.411609,14.24236 1.026564,15.68053 0.885056,0.88505 1.293081,0.9072 2.713051,0.14727 1.411965,-0.75567 2.088094,-0.72773 4.356979,0.18011 2.566144,1.02676 2.701048,1.01574 3.031484,-0.24787 0.43387,-1.65913 3.575644,-1.78732 5.790092,-0.23625 0.85294,0.59741 1.629872,0.97881 1.726528,0.84755 0.09665,-0.13127 0.860488,-1.23031 1.697418,-2.4423 1.271176,-1.84083 1.951316,-2.20363 4.131186,-2.20363 1.47413,0 2.74119,0.36875 2.91219,0.84755 0.16648,0.46615 0.55296,0.61362 0.85884,0.32771 0.30589,-0.2859 0.19511,-0.88089 -0.24619,-1.32217 -1.35438,-1.35439 -0.92222,-2.83702 2.24704,-7.70908 3.30578,-5.0819 5.98534,-12.50289 7.22503,-20.00951 l 0.78456,-4.75067 2.09846,0.20463 c 2.07712,0.20254 2.09659,0.24035 1.9132,3.7175 -0.28769,5.4547 -2.59168,13.57421 -5.57412,19.64372 -1.49386,3.04015 -2.70342,5.93877 -2.68788,6.44138 0.0595,1.92767 4.97106,-4.77912 7.64788,-10.44334 2.53175,-5.35721 2.98614,-5.93285 4.68325,-5.93285 1.61003,0 1.87948,0.27437 1.87948,1.91382 0,4.85157 -9.72708,20.26179 -13.55664,21.47725 -0.76685,0.24338 -1.13985,0.80378 -0.91866,1.38018 0.26234,0.68364 1.30408,0.92386 3.52511,0.81284 2.83099,-0.1415 3.17534,0.002 3.37428,1.40532 0.32367,2.28317 -1.06098,3.52241 -3.93575,3.52241 h -2.53109 l -0.40977,4.38814 c -0.22537,2.41348 -0.87598,5.28968 -1.44577,6.39155 -1.02793,1.98781 -1.0189,2.009 1.15927,2.71988 5.4442,1.77678 14.3771,2.26782 18.81741,1.03438 z M 79.620261,64.207103 c -3.076637,-1.237989 -2.48592,-7.012866 0.801767,-7.838023 2.786728,-0.699425 3.980587,0.111422 3.524161,2.393564 l -0.395893,1.979476 3.478367,-1.032974 c 1.913106,-0.568124 4.209755,-1.311032 5.103653,-1.650888 2.496585,-0.949203 11.611644,-0.718586 15.775844,0.399128 2.05107,0.550528 4.85408,1.004584 6.2289,1.009016 2.32512,0.0077 2.51453,-0.145468 2.71217,-2.190037 0.41221,-4.264518 5.29776,-2.525119 5.29776,1.886168 0,1.616136 -0.46681,2.495945 -1.7813,3.357233 -2.63624,1.727326 -8.9322,2.105517 -12.84679,0.771673 -4.4202,-1.506103 -11.417266,-1.404328 -16.670857,0.242502 -4.545924,1.425001 -8.735117,1.676169 -11.227782,0.673162 z M 58.168006,33.100116 c -4.074671,-2.686376 -5.285991,-6.3772 -3.822282,-11.64627 1.804773,-6.49682 10.524857,-8.743063 15.765019,-4.060976 1.958907,1.75028 2.170899,2.341373 2.419842,6.747135 l 0.272854,4.828793 -2.709078,2.709082 c -2.489072,2.489073 -3.004643,2.708717 -6.348565,2.704611 -2.421499,-0.003 -4.288147,-0.432128 -5.57779,-1.282375 z m 3.201963,-12.423514 c -0.214306,-0.346759 -1.110855,0.04707 -1.992328,0.875161 -0.881462,0.828097 -1.427326,1.789344 -1.213011,2.136104 0.214306,0.346761 1.110854,-0.04707 1.992326,-0.875159 0.881464,-0.828098 1.427328,-1.789346 1.213013,-2.136106 z m 71.657371,8.998009 c -7.49019,-8.018266 -0.33977,-20.4376975 9.73968,-16.916676 4.09213,1.429493 7.17963,5.824434 7.17963,10.219944 0,3.547867 -1.48841,6.973185 -3.35431,7.719404 -0.57913,0.231602 -3.40768,0.589207 -6.28566,0.794676 -5.21747,0.372496 -5.23865,0.367208 -7.27934,-1.817348 z m 5.39262,-12.356849 c 0,-1.028279 -1.80965,-0.575639 -3.01251,0.753507 -1.81554,2.006141 -0.58492,3.185954 1.38894,1.331605 0.89296,-0.838895 1.62357,-1.777196 1.62357,-2.085112 z M 71.394013,188.10783 c 2.118647,-3.3718 3.28115,-7.24852 3.286384,-10.9595 0.0025,-2.08309 -0.177027,-2.49745 -0.809858,-1.8646 -1.319065,1.31904 -3.809727,0.95415 -4.687951,-0.68683 l -0.803027,-1.50047 -0.555061,1.50047 c -0.387257,1.04686 -1.125355,1.50699 -2.441517,1.52203 -4.474086,0.0512 -5.399331,3.46499 -2.633889,9.71817 2.656911,6.00773 5.781146,6.82837 8.644919,2.27073 z m 33.044697,1.12271 c 2.19494,-1.53739 3.46945,-4.9683 3.46945,-9.33955 v -3.70837 l -2.36113,0.38316 c -1.79683,0.29159 -2.46236,0.11935 -2.7847,-0.72067 -0.59383,-1.54748 -1.29323,-1.37526 -2.16245,0.53247 -0.910106,1.99747 -3.014443,2.76113 -4.87084,1.76761 -0.759927,-0.4067 -1.381688,-0.5267 -1.381688,-0.26667 0,1.30595 2.355707,7.71141 2.835984,7.71141 0.304823,0 0.554214,0.38979 0.554214,0.86619 0,1.62078 2.105996,3.88009 3.6168,3.88009 0.82818,0 2.21614,-0.49756 3.08436,-1.10567 z m -12.98223,-0.12561 c 0.650698,-0.4133 0.536875,-1.58667 -0.508533,-5.24227 -0.740783,-2.59039 -1.346879,-5.52927 -1.346879,-6.53088 0,-2.29121 -2.256425,-3.2131 -4.000708,-1.63454 -0.655257,0.59299 -2.311536,1.07817 -3.680634,1.07817 -2.27216,0 -2.489264,0.16498 -2.489264,1.89167 0,1.04041 -0.460286,3.65883 -1.02286,5.8187 -0.562573,2.15987 -0.849684,4.20724 -0.638021,4.54971 0.467644,0.75667 12.508731,0.81775 13.686899,0.0695 z m -18.199386,-24.87326 -0.05026,-3.3902 -0.946039,3.3902 c -0.520321,1.8646 -0.781741,3.83932 -0.580941,4.38825 0.685257,1.87326 1.63102,-0.75812 1.577221,-4.38825 z"
       id="path2046" />
  </g>
  <g
     inkscape:groupmode="layer"
     id="layer11"
     inkscape:label="せんか"
     style="display:inline">
    <path
       style="fill:#252c1a;fill-opacity:1;stroke-width:1.01015"
       d="m 511.54322,11.994747 c -15.15112,-0.787841 -28.82591,7.58706 -38.83283,18.327738 -11.96474,12.071301 -24.60027,26.529426 -24.40306,44.595884 -0.29842,5.161478 -0.40468,10.331935 -0.61681,15.49736 -35.47984,-4.491087 -71.98922,-11.759267 -107.42008,-2.88689 -3.45814,-0.419655 -10.26806,4.600209 -11.11697,-0.3527 -4.50794,-25.993646 -16.87747,-53.590358 -41.73588,-65.750671 -16.48955,-7.635925 -35.31242,-6.671737 -53.05468,-7.422223 -11.61306,-0.433097 -23.50785,1.14038 -33.50079,7.461682 -18.34958,10.933639 -35.68581,26.54182 -42.98586,47.12745 -5.83392,20.510351 -6.85447,43.142953 0.78832,63.322463 0.52405,4.40598 -4.7183,7.38597 -6.91273,10.83242 -20.91798,23.40515 -40.45445,48.3731 -55.918197,75.7504 -13.865508,29.29015 -22.645362,61.32374 -24.393382,93.73336 -0.006,22.00983 7.37371,43.30741 15.0201,63.68697 5.825282,16.42181 16.475959,30.43991 28.897859,42.45402 25.1801,25.10581 54.97896,45.21958 85.86848,62.60994 15.46598,7.45248 31.90295,14.70032 49.28085,15.47959 6.62111,-1.40426 12.00014,4.3715 18.6977,3.28497 11.46287,0.75759 23.31745,2.17873 34.02753,6.61137 -12.88667,23.10557 -28.45082,45.23825 -36.83502,70.69467 -6.73443,17.13107 -9.44301,36.17814 -19.70787,51.74687 -4.22184,5.91283 -12.56355,4.95942 -17.61848,9.97328 -4.47143,3.22571 -10.1532,3.26516 -15.22529,3.97156 -0.3018,17.73796 -1.14564,35.85565 1.01213,53.58938 3.75176,13.85793 10.91947,27.23484 21.28423,37.25726 11.11734,7.04925 25.49846,7.63418 38.15298,5.27371 14.29014,-5.24937 29.8766,-2.72747 44.80011,-3.94056 12.2829,-0.41982 24.69218,-0.44671 36.75393,-2.80497 8.55006,0.0576 15.77642,5.96524 24.46463,5.64659 11.9463,0.80434 24.13637,1.42198 35.23302,6.48905 25.46651,7.38344 52.45025,6.7867 78.68289,5.4691 10.65593,0.30954 19.29346,-6.44507 26.13622,-13.87388 13.34885,-14.33943 26.97752,-29.16149 35.62366,-46.90502 11.79402,-31.15657 9.46109,-65.42935 6.25722,-97.9423 -4.75582,-38.21362 -11.71936,-76.18548 -21.12936,-113.51695 -0.65882,-5.30624 6.75812,-6.16549 10.12866,-8.34557 6.94398,-3.61057 14.65745,-4.40271 22.05615,-6.34899 21.10871,-8.33993 37.51603,-25.00361 53.12467,-40.92933 21.36975,-23.58407 41.52776,-49.67976 51.56029,-80.26925 5.89628,-21.87708 10.64499,-44.65307 9.19634,-67.41736 -3.29503,-26.99035 -14.93337,-52.1251 -26.8898,-76.25317 -12.58302,-23.08705 -27.15663,-46.88021 -49.96507,-61.10831 -2.7503,-1.74687 -6.40392,-2.82479 -8.45608,-5.26186 3.21948,-9.51999 9.86527,-18.29405 8.07885,-28.80315 0.48075,-14.728475 -0.28389,-30.067556 -7.74344,-43.199818 -13.19495,-24.888257 -39.61844,-41.244956 -66.94629,-46.129642 -7.83902,-1.200857 -15.7989,-1.473756 -23.71885,-1.424473 z m 7.23679,19.317194 c 23.77012,0.367486 45.82429,13.790839 61.05701,31.375891 13.20333,15.624281 15.2136,39.682438 3.86503,56.805298 -3.2997,6.39725 -10.89627,14.60636 -5.12969,21.86231 9.13725,9.198 22.94299,11.89333 31.95595,21.42233 16.18386,16.71278 27.74005,37.24443 38.16876,57.93186 11.65718,24.87798 22.22003,52.51841 16.95754,80.37618 -3.1438,23.00488 -9.35594,45.87585 -22.72843,65.22389 -16.43623,24.95662 -35.45086,49.00265 -59.75071,66.73398 -17.06571,12.59345 -37.7988,17.85327 -57.6302,24.39085 -3.99048,1.70129 -10.48863,3.17279 -7.65569,8.91611 6.4076,30.87836 15.27965,61.2032 20.23986,92.39015 4.70891,29.11913 9.54881,58.61214 7.33281,88.19402 -4.03598,21.48368 -11.55931,42.82542 -26.70368,59.19629 -8.02151,8.74075 -15.91409,18.32775 -26.15768,24.44316 -24.05548,1.60226 -49.22104,2.73183 -72.05032,-6.15562 -4.8944,-2.32894 1.03351,-7.6348 1.13839,-11.17283 3.70236,-11.92587 4.60654,-24.40724 5.96819,-36.7443 7.61073,-0.38459 18.75673,1.51413 23.26507,-6.36673 1.56896,-4.61955 2.18384,-13.78112 -4.92054,-13.48317 -6.42143,-1.35789 -14.72571,1.57633 -19.99787,-3.0936 -1.0284,-3.61606 4.99716,-3.80416 6.46537,-6.37067 20.41003,-18.48322 35.22088,-42.70815 45.23984,-68.19515 1.46779,-5.66653 5.34825,-14.099 -0.17361,-18.71742 -6.36533,-3.0033 -13.38247,1.561 -15.66929,7.68281 -10.74171,18.32449 -18.83969,38.67654 -34.02351,53.94833 -1.94836,1.16007 0.27659,-3.36385 0.49718,-4.3918 13.59842,-30.07126 27.84008,-61.1955 29.57261,-94.70377 0.0206,-4.8464 1.30939,-13.442 -5.85769,-13.60154 -3.45141,-0.0154 -9.62625,-2.99191 -11.29123,1.19364 -4.82605,33.40953 -13.77526,66.7925 -32.17053,95.39817 -3.0789,6.7906 -9.4418,13.23361 -8.92413,21.05741 0.74801,2.94502 4.51873,6.42799 3.356,9.265 -2.14313,-0.97468 -3.33868,-3.78962 -6.26019,-3.7861 -8.15431,-2.68015 -18.24188,-0.77917 -22.76986,7.14012 -2.69322,2.4135 -4.01787,8.56852 -7.38872,8.79741 -7.72033,-3.5959 -17.26611,-10.41383 -25.55567,-4.28526 -2.80305,1.55546 -2.65359,8.14831 -6.84812,5.60714 -7.86681,-2.78059 -17.13969,-6.92664 -24.97761,-1.79342 -6.33207,2.97009 -9.77116,-4.87138 -10.4172,-9.87069 -5.54494,-28.15433 -0.84235,-56.8448 9.48992,-83.29555 6.17616,-17.83261 14.29569,-34.84151 24.61655,-50.62661 3.52455,-5.62824 3.32775,-15.00362 -2.63784,-18.75096 -21.7089,-2.9062 -43.78059,-1.43251 -65.47969,-4.65147 -23.2251,-2.18582 -44.98379,-11.56876 -64.48472,-24.01752 C 173.75171,440.01844 147.07361,422.42048 125.50342,399.5013 105.02221,376.65057 96.3143,345.86726 92.531151,316.04079 91.745339,293.71542 97.2101,271.29032 104.36888,250.20134 c 11.94782,-33.53586 35.44814,-61.01362 58.37453,-87.55972 6.76968,-8.37107 15.66019,-14.57197 23.06902,-22.2332 5.04587,-5.86895 -1.84476,-12.10326 -5.67224,-16.21572 -9.34001,-7.98798 -6.83679,-21.29176 -6.4496,-32.024986 0.23359,-14.477741 7.62117,-27.925234 18.10186,-37.722884 12.52911,-14.086553 30.75686,-23.304015 49.90588,-22.13852 19.31271,0.44304 40.09219,5.858086 52.29907,22.02606 8.86089,10.854515 14.51145,24.367595 14.18247,38.526859 0.93083,7.732951 -0.44541,16.403801 2.4002,23.708001 7.0972,4.04168 15.15754,-2.09267 21.77945,-4.56738 18.42497,-7.25764 38.53213,-10.89558 58.23039,-8.19196 24.41198,1.6156 48.68329,6.26356 73.18414,6.49916 5.09417,0.43286 7.36568,-4.80381 6.18127,-9.12688 -1.13617,-8.252049 -5.81486,-16.431546 -2.63588,-24.876982 5.42105,-16.867759 16.48597,-32.902419 32.44523,-40.984177 5.95092,-2.695704 12.49635,-3.970051 19.01534,-4.00707 z M 275.99616,615.05779 c -0.82477,7.5423 0.67555,16.15342 -3.07978,22.96913 -1.6351,-0.67973 -0.28079,-4.76588 -0.44194,-6.50483 0.69422,-6.14397 1.82076,-12.28851 3.52764,-18.16894 l -0.004,1.01016 z m -17.22389,41.6096 c 2.49423,8.49961 13.46293,12.40726 20.5641,6.88759 3.42096,-1.63609 1.04213,5.42456 1.6494,7.12236 -0.78787,17.4428 -6.2511,35.5394 -19.01929,47.86387 -4.88294,4.18 -11.65983,2.16272 -15.17004,-2.67138 -9.46947,-11.53488 -16.20268,-27.2881 -13.09252,-42.29619 3.80761,-10.49855 19.66751,-3.11334 23.63006,-13.49303 0.57695,-0.76363 0.84503,-3.70755 1.43829,-3.41322 z m 126.2888,4.86925 c 3.28074,2.82344 4.34232,9.25494 10.08431,6.81295 5.36825,-0.0207 14.01263,-3.59284 11.30645,5.14316 -0.0124,14.37033 0.0469,32.73093 -13.50092,41.51095 -8.04286,6.07168 -20.36088,1.39196 -22.25492,-8.53697 -2.18761,-6.5805 -7.27069,-11.76246 -8.74808,-18.70953 -1.60774,-4.84259 -3.35106,-9.70892 -4.02679,-14.78926 6.80066,3.09767 16.89186,4.3816 21.10271,-3.39348 2.24262,-2.59786 3.39986,-5.89447 6.03724,-8.03782 z m -53.35263,0.88192 c 6.97398,0.66923 5.70538,10.02402 7.06712,15.07534 1.67684,11.92541 7.22567,23.46604 6.81656,35.57631 -4.8511,2.97161 -11.57402,1.378 -17.05027,2.21365 -11.1396,-0.0838 -22.81016,1.34304 -33.59743,-1.65728 0.9066,-13.70205 5.50904,-27.3826 6.75539,-41.28012 0.36626,-5.10343 7.49673,-1.95404 10.74273,-3.48226 7.13001,-0.29334 12.30686,-6.34919 19.2659,-6.44564 z"
       id="path2071"
       transform="scale(0.26458333)" />
    <path
       style="fill:#252c1a;fill-opacity:1;stroke-width:0.714286"
       d="m 449.19114,206.31106 c -6.66238,0.22781 -8.73133,7.80531 -9.14621,13.29799 0.0275,4.94233 -6.02932,3.65387 -9.22642,3.65426 -15.73259,-0.33797 -30.75176,-6.6605 -46.59172,-6.60597 -10.71616,-0.40526 -21.55276,-0.42583 -32.20107,0.3953 -11.4387,3.70845 -23.20696,7.84334 -34.65099,10.6549 0.76887,-5.09241 3.26901,-12.7368 -2.60881,-15.6808 -8.36908,-2.72878 -18.64629,1.55364 -21.31278,10.30552 -3.32564,8.29527 0.15376,19.88437 9.57589,22.11357 17.67811,4.62843 35.41648,-2.56229 52.53624,-5.9742 18.2115,-3.43645 37.17621,-2.60684 54.88846,2.95931 11.41699,2.62825 23.50818,2.14112 34.94695,-0.14778 8.44058,-1.65219 17.6913,-7.69664 17.34375,-17.28795 0.0404,-7.69923 -4.83192,-17.54606 -13.55329,-17.68415 z"
       id="path2073"
       transform="scale(0.26458333)" />
    <path
       style="fill:#252c1a;fill-opacity:1;stroke-width:0.714286"
       d="m 526.15961,44.876908 c -17.82886,-0.0921 -33.12479,14.97129 -35.52701,32.248557 -2.7827,14.596621 4.01119,29.356975 14.72232,39.107035 5.63127,6.42966 15.03509,4.1236 22.52205,4.11316 9.22695,-1.02744 18.89851,-0.84394 27.68694,-4.06669 8.69005,-5.90833 11.833,-17.281961 11.97943,-27.31987 1.52057,-22.70686 -18.46699,-44.473206 -41.38373,-44.082192 z m -5.43387,19.61077 c 2.85529,0.660565 -0.74779,3.713704 -1.58064,4.987444 -2.41073,2.272913 -5.77462,7.397263 -9.49777,5.502232 0.24203,-4.768139 5.28663,-8.132094 9.20899,-10.107421 0.59752,-0.218678 1.22715,-0.399218 1.86942,-0.382255 z"
       id="path2075"
       transform="scale(0.26458333)" />
    <path
       style="fill:#252c1a;fill-opacity:1;stroke-width:0.714286"
       d="m 238.73216,55.303805 c -15.67464,0.396899 -31.25387,11.158145 -34.68493,26.910495 -1.77887,8.83734 -2.95322,18.61774 0.52895,27.18828 5.77894,12.52187 18.71066,21.67844 32.72461,21.48856 8.28526,0.40061 17.86675,0.34182 23.81426,-6.42696 5.15502,-5.1054 11.0955,-9.81995 15.32916,-15.58337 -1.38265,-11.491674 -0.53515,-23.377398 -3.68862,-34.59542 -4.64878,-10.189174 -15.68645,-16.22961 -26.28786,-18.410789 -2.54739,-0.469226 -5.14649,-0.67126 -7.73557,-0.570796 z m -8.12919,23.706753 c -1.15953,4.469928 -5.32922,8.891868 -9.8005,9.623325 1.54057,-4.17522 5.74331,-8.589298 9.8005,-9.623325 z"
       id="path2077"
       transform="scale(0.26458333)" />
  </g>
</svg>
