<?xml version="1.0" encoding="UTF-8" standalone="no"?>
<svg
   xmlns:dc="http://purl.org/dc/elements/1.1/"
   xmlns:cc="http://creativecommons.org/ns#"
   xmlns:rdf="http://www.w3.org/1999/02/22-rdf-syntax-ns#"
   xmlns:svg="http://www.w3.org/2000/svg"
   xmlns="http://www.w3.org/2000/svg"
   xmlns:sodipodi="http://sodipodi.sourceforge.net/DTD/sodipodi-0.dtd"
   xmlns:inkscape="http://www.inkscape.org/namespaces/inkscape"
   inkscape:version="1.0 (4035a4fb49, 2020-05-01)"
   sodipodi:docname="亀差分.svg"
   viewBox="0 0 320 320"
   height="320"
   width="320"
   id="svg27"
   version="1.1">
  <metadata
     id="metadata33">
    <rdf:RDF>
      <cc:Work
         rdf:about="">
        <dc:format>image/svg+xml</dc:format>
        <dc:type
           rdf:resource="http://purl.org/dc/dcmitype/StillImage" />
        <dc:title></dc:title>
      </cc:Work>
    </rdf:RDF>
  </metadata>
  <defs
     id="defs31" />
  <sodipodi:namedview
     inkscape:current-layer="g35"
     inkscape:window-maximized="1"
     inkscape:window-y="-9"
     inkscape:window-x="-9"
     inkscape:cy="45.406179"
     inkscape:cx="303.83334"
     inkscape:zoom="1.296875"
     showgrid="false"
     id="namedview29"
     inkscape:window-height="1001"
     inkscape:window-width="1920"
     inkscape:pageshadow="2"
     inkscape:pageopacity="0"
     guidetolerance="10"
     gridtolerance="10"
     objecttolerance="10"
     borderopacity="1"
     bordercolor="#666666"
     pagecolor="#ffffff" />
  <g
     inkscape:label="dsfsfd"
     id="layer2"
     inkscape:groupmode="layer">
    <path
       id="path57"
       d="m 118.15747,110.61171 c -6.11593,5.78276 -12.40216,11.50446 -18.217509,17.52783 -0.36606,10.53837 -0.049,21.21629 -0.15385,31.80802 -0.52719,2.89939 3.035769,3.70038 4.637519,5.43197 5.01274,3.64735 9.74483,7.77235 15.04032,10.98519 3.08702,-0.75977 5.58941,-3.22171 8.37382,-4.73955 4.61801,-3.23272 9.69271,-5.95284 13.75193,-9.90277 0.6693,-5.13344 0.10194,-10.51154 0.28991,-15.74021 -0.10312,-5.92828 0.20609,-11.94158 -0.15249,-17.8172 -3.11522,-2.48662 -6.55588,-4.9402 -9.72436,-7.55614 -4.3339,-3.32942 -8.46672,-7.03971 -12.91205,-10.14535 -0.3407,-0.28698 -0.62716,0.0372 -0.93324,0.14821 z"
       style="fill:#264520;fill-opacity:1;stroke-width:0.385542" />
    <path
       id="path59"
       d="m 160.17418,109.55828 c -1.11287,0.26264 -1.77039,1.3796 -2.65828,2.02895 -5.43639,5.03007 -10.76183,10.17832 -16.14368,15.26641 -0.63243,0.97832 -0.14211,2.23314 -0.2621,3.33327 0.19021,9.9931 0.10227,20.0194 0.35794,30.02082 0.27417,1.44675 1.83356,2.09373 2.80821,3.02238 5.45436,4.1914 10.82445,8.50752 16.50438,12.3934 1.11854,0.49052 2.02202,-0.71429 2.97385,-1.13535 5.86807,-3.73884 11.73894,-7.48179 17.47554,-11.41926 0.93148,-0.53494 1.149,-1.63003 1.05295,-2.62128 0.14665,-11.10174 0.1344,-22.20483 0.19167,-33.30725 -0.24059,-1.13356 -1.54648,-1.53738 -2.28184,-2.32246 -6.18011,-4.9325 -12.24837,-10.01557 -18.61124,-14.71244 -0.41949,-0.27907 -0.87707,-0.59499 -1.4074,-0.54719 z"
       style="fill:#264520;fill-opacity:1;stroke-width:0.13631" />
    <path
       id="path61"
       d="m 141.32217,161.01786 c -1.1435,0.28989 -0.85859,1.73335 -1.3032,2.50922 -5.99836,3.44676 -11.71012,7.3678 -17.53755,11.09195 -1.0743,0.80894 -2.42031,1.32541 -3.28057,2.36811 -0.18849,1.56496 0.22915,3.15702 0.31878,4.72632 0.28202,2.07162 0.38732,4.19492 0.80049,6.23193 0.4157,1.0302 1.75808,0.56199 2.6178,0.68053 7.37041,-0.0436 14.74613,-0.0264 22.1112,-0.32623 5.19887,-0.31772 10.40708,-0.62756 15.59948,-0.96792 1.33156,-0.4392 0.99673,-2.12002 0.99514,-3.20189 -0.1959,-2.56843 -0.0826,-5.18365 -0.60139,-7.7154 -0.53484,-1.6613 -2.25915,-2.47671 -3.45906,-3.6034 -5.01851,-3.94386 -10.03455,-7.90686 -15.28326,-11.54136 -0.29013,-0.19361 -0.6246,-0.31724 -0.97786,-0.25186 z"
       style="fill:#264520;fill-opacity:1;stroke-width:0.13631" />
    <path
       id="path63"
       d="m 77.654602,111.95195 c -1.353988,0.69542 -2.330833,1.97285 -3.49969,2.93568 -5.156033,4.84546 -10.311273,9.71522 -15.353448,14.66565 -0.517188,0.95892 -0.101621,2.14699 -0.221188,3.20073 0.102706,10.13954 0.09903,20.28118 0.355698,30.41845 0.272599,1.12124 1.57476,1.50082 2.324301,2.2696 5.361095,4.13137 10.678023,8.33067 16.207168,12.23568 0.663857,0.54877 1.618636,0.81576 2.33547,0.18967 6.158458,-3.75082 12.17834,-7.72901 18.163608,-11.74912 0.83314,-0.57196 1.91275,-1.2672 1.71368,-2.44634 0.16656,-11.34766 0.12471,-22.69723 0.17665,-34.04579 -0.2429,-1.13359 -1.54931,-1.53353 -2.29078,-2.31359 -6.343167,-5.03614 -12.562031,-10.23286 -18.999099,-15.14843 -0.264295,-0.20636 -0.585625,-0.25654 -0.91237,-0.21219 z"
       style="fill:#264520;fill-opacity:1;stroke-width:0.13631" />
    <path
       id="path65"
       d="m 100.51337,162.53538 c -1.266439,0.13944 -1.083319,1.70277 -1.399039,2.59441 -4.26778,2.32979 -8.268194,5.12124 -12.393357,7.69164 -2.761749,1.81409 -5.611376,3.51154 -8.307084,5.41672 -0.767763,1.01592 -0.375978,2.4053 -0.417182,3.58772 0.184951,1.08272 -0.04867,2.56297 1.01833,3.23655 1.79249,0.6837 3.773076,0.66545 5.657577,0.9231 11.198286,1.00601 22.405495,1.95118 33.629975,2.60951 0.94972,0.17055 1.96512,-0.49192 1.93416,-1.51618 0.0906,-3.31884 -0.0943,-6.65985 -0.57186,-9.94582 -0.54595,-1.36779 -2.08203,-1.9908 -3.1089,-2.94809 -4.88206,-3.70613 -9.62521,-7.60393 -14.64284,-11.12669 -0.42318,-0.25971 -0.88134,-0.55841 -1.39978,-0.52287 z"
       style="fill:#264520;fill-opacity:1;stroke-width:0.13631" />
    <path
       id="path67"
       d="m 58.901364,163.65966 c -1.095054,0.28377 -1.615479,1.47442 -2.384128,2.21284 -3.193786,3.88622 -6.768294,7.40204 -10.134567,11.12836 -0.728582,0.58591 -0.687733,1.94011 0.356525,2.12957 8.487182,2.41332 17.128193,4.28907 25.831808,5.73063 1.685036,0.1943 3.381446,0.58676 5.077211,0.53841 1.309892,-0.34179 1.050657,-1.96275 1.011408,-2.98817 -0.210452,-1.43126 -0.03017,-3.03509 -0.820255,-4.3052 -2.345387,-2.34513 -5.053846,-4.30114 -7.606746,-6.41353 -3.399561,-2.63518 -6.697979,-5.42789 -10.303875,-7.77945 -0.312457,-0.1706 -0.665855,-0.29815 -1.027381,-0.25346 z"
       style="fill:#264520;fill-opacity:1;stroke-width:0.13631" />
    <path
       id="path69"
       d="m 55.798454,126.19419 c -2.952735,2.80238 -5.573998,5.97335 -7.953354,9.27998 -3.402191,5.26269 -6.074228,10.95724 -8.720562,16.6257 -2.608061,5.8233 -5.380469,11.88584 -5.328393,18.4019 -0.08354,1.61985 0.476195,3.3675 1.951465,4.21922 2.747454,1.72233 5.806433,2.91825 8.889951,3.88882 1.197961,0.27691 1.871583,-1.05169 2.679605,-1.6855 3.5718,-3.6973 7.195503,-7.37444 10.36167,-11.43192 1.642868,-1.99487 1.440894,-4.70199 1.486039,-7.11726 0.125314,-9.51083 0.118747,-19.02273 0.165652,-28.53412 -0.409139,-1.19412 -1.278405,-2.20698 -2.085114,-3.17027 -0.380328,-0.4147 -0.883554,-0.68651 -1.446959,-0.47655 z"
       style="fill:#264520;fill-opacity:1;stroke-width:0.13631" />
    <path
       id="path71"
       d="m 116.74089,97.227038 c -8.25924,1.01245 -16.34742,3.223632 -24.13854,6.119292 -5.195596,1.95035 -10.276274,4.24261 -15.189483,6.80184 -0.899841,0.60345 -0.216975,1.73137 0.548557,2.09643 6.870892,5.51534 13.690703,11.09434 20.558687,16.61295 1.15862,0.61319 1.880309,-0.80781 2.663449,-1.40526 5.61842,-5.45334 11.2081,-10.92091 16.85333,-16.34242 0.61177,-1.04013 0.30018,-2.35044 0.4995,-3.50908 0.12217,-2.91021 0.37129,-5.83792 0.1754,-8.746288 -0.17695,-0.918738 -1.00817,-1.679407 -1.9709,-1.627464 z"
       style="fill:#264520;fill-opacity:1;stroke-width:0.13631" />
    <path
       id="path73"
       d="m 75.598774,111.39739 c -1.839108,0.79549 -3.444731,2.07243 -5.154467,3.11318 -4.859039,3.20121 -9.534321,6.72972 -13.780416,10.70472 -0.533119,1.04417 0.44845,2.08089 0.914843,2.96471 0.445936,0.71947 1.276743,1.72523 2.167111,1.03244 5.642598,-5.12701 11.133018,-10.42435 16.507967,-15.83061 0.885158,-0.66593 0.559096,-2.09327 -0.655038,-1.98444 z"
       style="fill:#264520;fill-opacity:1;stroke-width:0.13631" />
    <path
       id="path75"
       d="m 182.51939,160.6952 c -0.79201,0.52392 -0.3926,1.89461 -1.40623,2.14075 -6.0657,3.52859 -11.85492,7.50977 -17.74848,11.3145 -0.82696,0.67934 -2.04958,1.0257 -2.55536,1.99845 -0.0624,2.85856 -0.0645,5.74425 0.11163,8.60576 0.002,1.23581 1.02239,2.69261 2.39687,2.31407 11.85211,-1.51827 23.69572,-3.12302 35.50095,-4.9734 1.07457,-0.27537 2.33186,-0.18808 3.26187,-0.83543 0.67957,-0.86725 0.22206,-2.09731 0.27625,-3.11384 -0.21259,-1.13138 0.15636,-2.48959 -0.56964,-3.44611 -6.07495,-4.68283 -12.08103,-9.48418 -18.27336,-13.99653 -0.33456,-0.21526 -0.64485,-0.11888 -0.9945,-0.008 z"
       style="fill:#264520;fill-opacity:1;stroke-width:0.13631" />
    <path
       id="path77"
       d="m 200.95102,108.79766 c -3.97619,3.36385 -7.65424,7.06874 -11.46508,10.61761 -2.38057,2.29839 -4.84165,4.53495 -7.16745,6.87622 -0.52079,0.95841 -0.10321,2.14866 -0.2234,3.20307 0.075,10.14241 0.16498,20.28475 0.30955,30.42644 0.25966,1.13083 1.57587,1.50933 2.32652,2.28063 5.38991,4.12486 10.67355,8.40298 16.25793,12.26431 0.66514,0.48859 1.60914,0.87974 2.32207,0.24464 6.24456,-3.89658 12.42858,-7.89632 18.51522,-12.03543 0.77078,-0.46721 1.51773,-1.1656 1.38333,-2.15567 0.36928,-11.33919 0.22338,-22.68785 0.25931,-34.03137 -0.24469,-1.13229 -1.55072,-1.53246 -2.28827,-2.31526 -6.37084,-5.09635 -12.698,-10.24749 -19.10863,-15.29399 -0.39083,-0.21979 -0.70172,-0.23945 -1.1211,-0.0812 z"
       style="fill:#264520;fill-opacity:1;stroke-width:0.13631" />
    <path
       id="path79"
       d="m 223.4802,162.14295 c -2.37268,0.26554 -4.3029,1.86567 -6.31415,3.01289 -4.88616,3.13545 -9.77209,6.27887 -14.55003,9.57633 -1.35631,0.81924 -1.18399,2.57302 -1.02945,3.92092 0.0594,1.07797 0.45253,2.65573 1.81723,2.60757 6.13305,-1.05629 12.18933,-2.54982 18.20213,-4.15127 5.23567,-1.44768 10.49708,-2.9795 15.40617,-5.32069 0.89767,-0.50288 0.40291,-1.75646 -0.46817,-1.97473 -3.78948,-2.0631 -7.32768,-4.53817 -10.88304,-6.96977 -0.65774,-0.39994 -1.39346,-0.73385 -2.18069,-0.70125 z"
       style="fill:#264520;fill-opacity:1;stroke-width:0.13631" />
    <path
       id="path81"
       d="m 223.43255,125.16468 c -1.03007,0.62414 -0.55075,2.03848 -0.70068,3.02884 -0.0473,11.1748 0.10312,22.34943 0.16129,33.524 0.16922,1.14892 1.57487,1.11326 2.32278,1.76198 3.9686,2.48762 7.78988,5.23453 11.92771,7.43919 0.73073,0.37431 1.33822,-0.22233 1.76264,-0.7352 1.9585,-1.55146 4.08482,-3.20018 5.0635,-5.57472 0.31285,-1.29147 -0.50827,-2.52989 -0.78587,-3.76221 -1.91818,-5.57559 -3.79671,-11.18087 -6.16597,-16.5846 -1.7666,-3.64235 -3.57052,-7.31063 -5.95818,-10.59283 -2.12679,-2.83165 -4.2129,-5.71034 -6.56896,-8.3559 -0.35019,-0.24754 -0.65422,-0.23767 -1.05826,-0.14855 z"
       style="fill:#264520;fill-opacity:1;stroke-width:0.13631" />
    <path
       id="path83"
       d="m 160.56261,95.214606 c -1.01368,-0.01051 -1.21169,1.135918 -1.06331,1.924798 0.17022,3.858046 0.15108,7.740026 0.64852,11.573596 0.529,1.30279 1.90133,2.0071 2.87707,2.94679 6.1238,5.00498 12.2604,9.99454 18.41733,14.95877 1.13676,0.67014 1.96613,-0.71582 2.74868,-1.32756 4.93003,-4.7433 9.94497,-9.40724 14.6779,-14.34913 0.84245,-1.00797 2.23739,-2.24892 1.66797,-3.70459 -0.67221,-1.21271 -2.2242,-1.42264 -3.35918,-2.03027 -8.57052,-3.44406 -17.23256,-6.845844 -26.30183,-8.735423 -3.39616,-0.693719 -6.85627,-1.053077 -10.31315,-1.256981 z"
       style="fill:#264520;fill-opacity:1;stroke-width:0.13631" />
    <path
       id="path85"
       d="m 149.32184,94.774528 c -6.20229,0.153797 -12.38111,0.795622 -18.56863,1.219516 -3.91079,0.345161 -7.84497,0.540058 -11.73686,1.035984 -1.05945,0.521746 -0.62418,1.868084 -0.80454,2.808194 -0.14729,3.235338 -0.32379,6.486828 -0.30206,9.717638 0.28841,1.0575 1.54594,1.44845 2.26006,2.20369 6.58947,5.22358 13.11341,10.53329 19.64789,15.8225 1.12585,0.74074 2.14882,-0.5401 2.94666,-1.18527 5.70907,-5.39345 11.3411,-10.87115 16.91815,-16.40099 0.70039,-0.5658 1.21352,-1.35998 0.98143,-2.29226 -0.13029,-3.88796 -0.23657,-7.792757 -0.70594,-11.655092 -0.39075,-1.373802 -2.10527,-1.041418 -3.18549,-1.145476 -2.48276,-0.07164 -4.9667,-0.134944 -7.45067,-0.128434 z"
       style="fill:#264520;fill-opacity:1;stroke-width:0.13631" />
    <path
       id="path87"
       d="m 243.66208,165.09518 c -1.10553,0.34476 -1.67797,1.51879 -2.32339,2.40059 -0.70234,0.79678 0.1993,2.14744 1.19484,1.67512 1.07819,-0.59814 2.74186,-1.31192 2.57498,-2.80819 -0.12652,-0.66524 -0.70944,-1.36013 -1.44643,-1.26752 z"
       style="fill:#264520;fill-opacity:1;stroke-width:0.13631" />
    <path
       id="path89"
       d="m 204.28534,109.14535 c -0.93779,0.32979 -0.81548,1.58664 -0.0404,2.01971 5.58323,4.67821 11.26676,9.24126 17.03029,13.69468 0.64626,0.71474 2.01297,0.28758 1.89828,-0.74827 -0.38897,-1.20905 -1.53152,-2.00036 -2.30635,-2.96713 -3.10795,-3.42858 -6.69204,-6.40389 -10.63657,-8.82402 -1.76273,-1.08157 -3.45798,-2.31181 -5.33722,-3.18162 -0.19862,-0.0746 -0.40523,0.003 -0.60807,0.007 z"
       style="fill:#264520;fill-opacity:1;stroke-width:0.13631" />
    <path
       id="path91"
       d="m 244.397,168.27083 c -4.52948,1.3633 -8.68313,3.85202 -13.2265,5.25623 -21.1272,7.38862 -43.51841,9.90036 -65.59881,12.621 -23.84832,2.56253 -47.91532,2.4334 -71.784029,0.12365 -12.387908,-1.01114 -24.845523,-1.85277 -36.886048,-5.06672 -7.19384,-1.81773 -14.517609,-3.49549 -21.237292,-6.71353 -2.214944,0.13617 -1.294492,3.13328 -1.338103,4.61898 0.415612,3.70527 1.626074,7.92222 5.376506,9.53765 8.070684,3.42889 16.802936,4.95707 25.211872,7.34512 11.384847,3.27288 23.267168,4.59439 35.095254,4.27203 23.76912,-0.69976 47.46135,-2.81567 71.21019,-3.65857 13.55179,-1.0867 27.13468,-0.92019 40.71235,-1.43373 7.66979,-0.3735 14.57704,-4.16 21.6491,-6.76355 3.96501,-1.9422 9.25911,-3.12955 10.89909,-7.79519 1.48343,-3.70579 2.16487,-8.02978 1.09488,-11.89759 -0.27482,-0.35387 -0.7468,-0.48656 -1.17846,-0.44578 z"
       style="fill:#95b170;fill-opacity:1;stroke-width:0.385542" />
    <path
       id="path93"
       d="m 47.678628,191.54643 c -1.852755,0.90758 -1.963649,3.59535 -2.997063,5.25572 -1.654099,4.66369 -3.490187,9.65575 -2.82372,14.66898 1.437475,3.06459 5.391712,3.68402 8.338102,4.49097 4.60724,0.44685 9.360059,0.97267 13.949548,0.30948 1.674558,-1.52596 -1.19582,-3.11789 -1.985693,-4.36144 -1.138068,-1.1689 -2.559728,-2.51418 -1.353991,-4.22972 1.105421,-3.35748 1.550688,-6.989 3.156702,-10.09935 1.702911,-1.36771 -0.79237,-2.57931 -2.04744,-2.69051 -4.703988,-1.24386 -9.432468,-2.57306 -14.236445,-3.34413 z"
       style="fill:#fff58a;fill-opacity:1;stroke-width:0.385542" />
    <path
       id="path95"
       d="m 65.552122,195.94026 c -2.267959,0.34309 -2.021034,3.31226 -2.506777,5.01581 0.129306,4.70475 0.720002,9.54032 2.393072,13.96386 0.710221,2.34644 3.379848,2.21439 5.265813,1.5753 4.563366,-1.33439 9.123899,-3.10646 13.115964,-5.69729 1.448732,-1.52923 -0.914319,-2.72312 -2.290663,-2.39684 -1.45354,0.0187 -3.528583,0.301 -3.863705,-1.61747 -1.323201,-2.77126 -1.649285,-6.18848 -3.506024,-8.56852 -2.872646,-0.67577 -5.663384,-1.98381 -8.60768,-2.27485 z"
       style="fill:#fff58a;fill-opacity:1;stroke-width:0.385542" />
    <path
       id="path97"
       d="m 194.83375,195.04719 c -0.72993,3.19863 0.0936,6.69548 -0.0664,10.00348 0.27853,4.00833 -0.093,8.16364 0.70722,12.08537 1.62349,2.08065 4.57015,0.16257 6.6648,0.15112 4.55879,-1.07511 9.37105,-1.47715 13.74785,-3.13832 1.651,-1.36274 -0.61,-2.98674 -2.01807,-3.09714 -1.36635,-0.19418 -2.57117,-0.88012 -2.30949,-2.439 -0.56805,-4.20368 -0.59596,-8.47561 -0.83623,-12.68392 -1.3613,-1.37464 -3.97968,-0.31 -5.81553,-0.69072 -3.32843,0.12202 -6.83703,-0.73444 -10.07414,-0.19087 z"
       style="fill:#fff58a;fill-opacity:1;stroke-width:0.385542" />
    <path
       id="path99"
       d="m 214.78781,194.90336 c -1.92219,-0.4026 -3.86966,0.96461 -3.58358,3.04518 0.16053,3.77504 -0.10332,7.72184 0.79593,11.38554 1.77877,1.76716 4.6708,2.06453 6.03991,4.35015 1.35939,1.59924 4.7832,-0.63972 2.71913,-2.18599 -1.23847,-0.7524 -3.00958,-1.34555 -2.65286,-3.18298 -0.5906,-4.24962 -0.55766,-8.53582 -0.82976,-12.77458 -0.28613,-1.01029 -1.73109,-0.51997 -2.48877,-0.63732 z"
       style="fill:#fff58a;fill-opacity:1;stroke-width:0.385542" />
    <path
       id="path101"
       d="m 262.90152,106.13454 c -5.26914,0.0879 -10.00308,2.96869 -13.4492,6.8012 -6.19501,6.158 -12.44703,12.27276 -18.71646,18.34488 -1.59635,2.03604 1.3323,4.00424 1.92695,5.7869 5.57005,9.26236 8.03917,20.05276 12.95407,29.55497 2.73614,0.69734 5.57961,-0.86667 8.25396,-1.3912 5.80219,-1.50552 11.22927,-4.21305 15.77896,-8.13662 4.40896,-3.697 9.0694,-7.35706 12.40081,-12.09417 3.26818,-7.09782 5.2293,-15.61092 1.71009,-23.00979 -3.11712,-7.54091 -9.80419,-14.05182 -17.93825,-15.7003 -0.96619,-0.14198 -1.94519,-0.19104 -2.92093,-0.15587 z m 1.32605,16.76807 c 1.20571,0.38594 -0.10885,2.58759 -0.46536,1.13027 -0.0181,-0.36987 0.0265,-1.00061 0.46536,-1.13027 z m 12.01431,1.54593 c 0.49742,0.69636 -0.40273,1.95081 -0.87877,0.72666 0.20898,-0.30106 0.48724,-0.67567 0.87877,-0.72666 z m -3.87274,5.32531 c 0.0961,0.76038 -2.36663,2.00255 -1.5241,1.41566 0.57628,-0.38287 1.06637,-0.95833 1.5241,-1.41566 z"
       style="fill:#fff58a;fill-opacity:1;stroke-width:0.385542" />
    <path
       d="m 252.88072,125.77333 c 0.0426,0.0721 0.0909,0.14109 0.12788,0.21619 0.11003,0.22333 0.17583,0.4388 0.25932,0.67358 0.129,0.36274 0.26072,0.72312 0.3793,1.08943 0.15132,0.55647 0.3393,1.10185 0.50301,1.65458 0.0548,0.24523 0.11176,0.4889 0.17752,0.73143 0,0 1.23303,-0.66869 1.23303,-0.66869 v 0 c -0.0624,-0.24559 -0.11399,-0.49291 -0.17514,-0.73877 -0.17089,-0.55019 -0.36666,-1.09241 -0.52342,-1.64708 -0.12213,-0.36533 -0.25719,-0.72544 -0.38297,-1.08948 -0.0961,-0.27826 -0.13745,-0.43721 -0.25356,-0.70316 -0.038,-0.0869 -0.0845,-0.16983 -0.12676,-0.25475 0,0 -1.21821,0.73672 -1.21821,0.73672 z"
       id="path105"
       style="fill:#f47e62;fill-opacity:1" />
    <path
       d="m 255.35903,125.95045 c 0.29948,0.3728 0.51685,0.80608 0.68665,1.25114 0.14538,0.43282 0.30236,0.86052 0.40289,1.30647 0.0316,0.14342 0.0475,0.28919 0.0616,0.43507 0,0 1.26213,-0.66124 1.26213,-0.66124 v 0 c -0.0196,-0.1497 -0.0412,-0.29918 -0.078,-0.44587 -0.11346,-0.44815 -0.27319,-0.88063 -0.41955,-1.31874 -0.17784,-0.45674 -0.41029,-0.89127 -0.68817,-1.29531 0,0 -1.22752,0.72848 -1.22752,0.72848 z"
       id="path107"
       style="fill:#f47e62;fill-opacity:1" />
    <path
       d="m 258.25401,125.91106 c 0.0144,0.51764 0.0161,1.03563 0.0165,1.55345 0,0 1.24213,-0.63289 1.24213,-0.63289 v 0 c 3.6e-4,-0.52343 0.002,-1.04701 0.0165,-1.57026 0,0 -1.27511,0.6497 -1.27511,0.6497 z"
       id="path109"
       style="fill:#f47e62;fill-opacity:1" />
    <path
       d="m 277.90186,126.60626 c 0.28993,0.58883 0.45909,1.22707 0.65911,1.84976 0.20987,0.54422 0.40804,1.09306 0.62441,1.63474 0,0 1.22664,-0.68576 1.22664,-0.68576 v 0 c -0.22067,-0.5357 -0.41752,-1.08109 -0.63592,-1.61774 -0.21654,-0.63883 -0.38543,-1.29501 -0.64701,-1.91782 0,0 -1.22723,0.73682 -1.22723,0.73682 z"
       id="path111"
       style="fill:#f47e62;fill-opacity:1" />
    <path
       d="m 280.04489,126.46084 c 0.32549,0.55147 0.57674,1.14509 0.82959,1.73275 0.0975,0.22588 0.16868,0.46071 0.23477,0.6971 0,0 1.2392,-0.67731 1.2392,-0.67731 v 0 c -0.0754,-0.23849 -0.15572,-0.47534 -0.25743,-0.70428 -0.26369,-0.59209 -0.52781,-1.18495 -0.81787,-1.76448 0,0 -1.22826,0.71622 -1.22826,0.71622 z"
       id="path113"
       style="fill:#f47e62;fill-opacity:1" />
    <path
       d="m 282.01106,125.76824 c 0.1302,0.44867 0.169,0.91519 0.23547,1.37546 0.0597,0.339 0.0972,0.68916 0.21868,1.01299 0.0623,0.16191 0.0294,0.08 0.0988,0.24571 0,0 1.24273,-0.69559 1.24273,-0.69559 v 0 c -0.0661,-0.16363 -0.0341,-0.0828 -0.0963,-0.24256 -0.11981,-0.31228 -0.15451,-0.65265 -0.21589,-0.97959 -0.0699,-0.4668 -0.12704,-0.93581 -0.23167,-1.39685 0,0 -1.25187,0.68043 -1.25187,0.68043 z"
       id="path115"
       style="fill:#f47e62;fill-opacity:1" />
  </g>
  <g
     id="g35"
     inkscape:label="Image"
     inkscape:groupmode="layer">
    <path
       id="path39"
       d="m 194.88355,218.39215 c -1.03972,-1.03972 -1.17238,-2.46423 -1.26612,-13.59527 l -0.0733,-8.70672 0.8,-0.14867 c 1.22289,-0.22726 -8.99301,0.14066 -12.8,0.46099 -4.44991,0.37442 -14.10171,0.86264 -25.12,1.27064 -4.928,0.18248 -10.76,0.53737 -12.96,0.78864 -2.2,0.25126 -8.608,0.61174 -14.24,0.80105 -5.632,0.18931 -12.472,0.56527 -15.2,0.83545 -8.12064,0.80428 -17.392749,0.91479 -25.920004,0.30892 -4.136,-0.29387 -8.503174,-0.68421 -9.704835,-0.86743 -1.201658,-0.18323 -2.238147,-0.27983 -2.303306,-0.21467 -0.06516,0.0652 0.486013,1.91399 1.224832,4.1085 l 1.343309,3.99003 3.252602,0.17808 c 1.972435,0.10799 3.452307,0.34382 3.76,0.59918 0.647398,0.53729 0.64848,1.59891 0.0026,2.52108 -0.517485,0.73881 -5.12832,3.1947 -8.797559,4.68589 -3.951481,1.60588 -9.369481,2.83723 -9.94623,2.26048 -0.08541,-0.0854 -3.817405,-0.20448 -8.293331,-0.26461 -6.575261,-0.0883 -8.537472,-0.21912 -10.218042,-0.6811 -2.975878,-0.81805 -5.898668,-2.27112 -6.855449,-3.40818 -0.741395,-0.8811 -0.824551,-1.24827 -0.824551,-3.6408 0,-4.6624 1.736781,-11.42012 4.151552,-16.15347 0.838986,-1.64454 0.70073,-2.12844 -0.689929,-2.41482 -1.8256,-0.37595 -6.268906,-2.67819 -7.5848,-3.92997 -0.894368,-0.8508 -1.320762,-1.56736 -1.472551,-2.47466 -0.11751,-0.70241 -0.493523,-1.95872 -0.835587,-2.79182 -0.541161,-1.318 -0.631126,-2.41928 -0.692758,-8.48 -0.09818,-9.6548 0.112313,-10.42383 6.738163,-24.61787 4.57735,-9.8057 7.671222,-14.68566 12.88238,-20.31936 10.320106,-11.15689 25.662484,-20.75038 41.903535,-26.20201 11.425579,-3.835217 17.275809,-4.941351 32.799999,-6.201658 16.87086,-1.369639 20.46086,-1.551543 26.52242,-1.343888 15.30107,0.524172 21.00937,1.809296 38.62781,8.696366 6.75786,2.64166 9.52175,3.97754 14.52977,7.02275 7.54008,4.58486 10.65212,7.24092 16.32922,13.93657 2.28293,2.69253 4.51078,5.30019 4.95078,5.79481 l 0.8,0.89931 4.48,-4.09698 c 2.464,-2.25334 6.784,-6.51112 9.6,-9.46172 8.03339,-8.41739 11.7982,-10.85793 18.56621,-12.03557 2.78084,-0.48386 5.09296,0.01 8.99051,1.91966 6.49463,3.18244 10.99065,8.26309 13.57241,15.33729 1.84375,5.05201 1.86115,12.15314 0.043,17.5429 -1.79499,5.32101 -3.38542,7.75764 -6.52913,10.00301 -1.01036,0.72165 -1.98206,1.58309 -2.15933,1.91431 -0.37754,0.70545 -4.73052,4.42981 -8.73463,7.47325 -4.59365,3.49154 -7.13378,4.56181 -16.7312,7.04959 l -4.13781,1.07257 0.10343,2.86627 c 0.0765,2.11883 -0.08,3.65367 -0.60014,5.8857 -1.95727,8.39963 -2.21712,8.59113 -21.70271,15.99437 l -6.19941,2.35536 0.1795,6.25485 c 0.23317,8.12489 0.25096,8.19102 2.56756,9.54467 1.01649,0.59395 2.00951,1.43404 2.20671,1.86686 0.57239,1.25626 -0.24932,1.75367 -3.9798,2.40911 -4.49048,0.78896 -9.18466,1.73467 -14.33514,2.88802 -2.376,0.53206 -5.42287,1.04529 -6.77082,1.1405 -2.30116,0.16256 -2.49961,0.12434 -3.24973,-0.62578 z m 8.74055,-2.18533 c 2.2,-0.50152 5.37637,-1.13071 7.0586,-1.3982 3.09921,-0.49282 5.4214,-1.24363 5.4214,-1.75285 0,-0.38748 -1.8347,-1.21374 -3.2957,-1.48422 -0.66864,-0.12378 -1.40071,-0.41007 -1.62684,-0.63619 -0.43279,-0.43279 -1.16335,-8.30956 -1.15953,-12.50185 l 0.002,-2.2701 -7.24078,-0.22246 c -3.98242,-0.12235 -7.25842,-0.18081 -7.28,-0.1299 -0.0216,0.0509 0.0328,4.81404 0.12078,10.58473 0.13403,8.78959 0.23673,10.53952 0.63283,10.7839 0.62253,0.38408 2.50531,0.13545 7.36717,-0.97286 z M 72.468566,215.23436 c 3.526784,-1.0286 11.97528,-4.99628 11.861927,-5.57075 -0.03536,-0.1792 -1.428787,-0.36063 -3.166845,-0.41234 -1.707037,-0.0508 -3.279158,-0.23795 -3.493603,-0.41592 -0.214445,-0.17798 -1.083712,-2.44042 -1.931703,-5.02767 -0.84799,-2.58724 -1.670384,-4.79556 -1.827539,-4.90738 -0.310864,-0.22118 -11.879328,-3.28881 -20.438013,-5.41958 -2.943216,-0.73274 -5.544332,-1.25819 -5.780255,-1.16765 -0.608112,0.23335 -3.262995,6.62349 -4.017779,9.67054 -1.475632,5.95711 -1.620874,9.44551 -0.43658,10.48586 1.043063,0.91629 3.27817,1.84917 6.064077,2.53098 2.323161,0.56857 3.822217,0.69063 8.774361,0.71444 3.284884,0.0158 6.092813,-0.0912 6.239844,-0.23779 0.14703,-0.14658 -0.928928,-1.41094 -2.391015,-2.80967 -2.246179,-2.14886 -2.622224,-2.65329 -2.425414,-3.25349 0.128105,-0.39068 0.913936,-3.28064 1.746285,-6.42212 0.832348,-3.14149 1.635856,-5.83041 1.785571,-5.97538 0.149715,-0.14498 0.664656,-0.18657 1.144313,-0.0924 0.772208,0.15157 0.831063,0.24786 0.513828,0.84062 -0.57617,1.07658 -1.215898,3.81689 -0.978916,4.19323 0.119744,0.19016 0.246132,0.84974 0.280864,1.46574 0.316724,5.61742 1.460615,10.76886 2.753447,12.4 0.504953,0.63708 2.071321,0.47581 5.723145,-0.58925 z M 220.9041,213.04788 c 0.74083,-0.21478 0.6541,-0.30641 -1.17254,-1.23885 -1.54081,-0.78653 -2.01331,-1.20155 -2.1588,-1.89617 -0.54423,-2.59846 -0.81665,-5.82764 -0.82232,-9.74769 -0.006,-3.94636 -0.0637,-4.39663 -0.58747,-4.56288 -0.53037,-0.16833 -3.65347,0.27203 -4.16362,0.58707 -0.26771,0.16532 0.16533,10.5476 0.50891,12.20126 0.23093,1.11149 0.38131,1.24835 1.83852,1.67325 1.99959,0.58305 3.29967,1.49865 3.55125,2.50098 0.15769,0.62831 0.38967,0.77259 1.20076,0.74686 0.55292,-0.0175 1.36531,-0.13627 1.80531,-0.26383 z M 62.971107,208.94361 c -0.312333,-3.01272 -0.596883,-3.32646 -1.10311,-1.21626 -0.412599,1.71991 -0.401079,1.81286 0.319821,2.58022 0.411312,0.43782 0.806198,0.79604 0.877529,0.79604 0.07133,0 0.02893,-0.972 -0.09424,-2.16 z m 47.852993,-9.85177 c 2.552,-0.24873 8.888,-0.60564 14.08,-0.79313 5.192,-0.18749 13.688,-0.68951 18.88,-1.1156 5.192,-0.42609 13.112,-0.86099 17.6,-0.96643 8.28713,-0.19471 13.4752,-0.48253 20.96,-1.16279 2.361,-0.21458 10.17972,-0.38986 18.08,-0.40532 12.43116,-0.0243 14.10824,-0.0882 15.68,-0.59725 0.968,-0.31352 2.912,-0.93846 4.32,-1.38876 4.56218,-1.45906 17.81791,-6.82779 19.7377,-7.994 2.66214,-1.61717 3.30267,-2.62598 4.46591,-7.0337 0.95814,-3.63056 0.98877,-3.93112 0.64609,-6.3396 -0.19785,-1.39059 -0.41303,-2.58165 -0.47818,-2.6468 -0.0651,-0.0651 -0.96739,0.30129 -2.00498,0.81429 -3.96791,1.9618 -9.37841,4.31021 -12.62984,5.48193 -5.19621,1.87257 -19.04766,5.26902 -28.6167,7.01696 -10.16449,1.85671 -36.56164,5.34272 -44.8,5.91628 -26.14096,1.81999 -36.81312,1.56939 -74.240004,-1.74323 -12.01399,-1.06335 -13.265229,-1.25473 -23.2,-3.54857 -12.72215,-2.93741 -19.28776,-4.93042 -22.616982,-6.86543 -0.735341,-0.4274 -1.419341,-0.77708 -1.52,-0.77708 -0.100659,0 -0.183018,1.26213 -0.183018,2.80474 0,2.19337 0.139504,3.06502 0.64,3.99884 0.352,0.65675 0.64,1.62621 0.64,2.15433 0,1.47391 1.786938,3.20856 4.726135,4.58784 1.812691,0.85064 6.173622,2.11786 15.614502,4.53733 7.204649,1.84638 14.107363,3.6286 15.339363,3.96051 3.387318,0.91254 7.810083,1.57772 12.96,1.94915 2.552,0.18407 5.216,0.38079 5.92,0.43717 3.620865,0.28996 15.910934,0.11687 20.000004,-0.28168 z m 8.58809,-13.34823 c 0.0282,-1.1 -0.11518,-3.512 -0.31866,-5.36 l -0.36997,-3.36 -9.14973,-7.08362 c -8.57741,-6.64054 -9.15522,-7.03086 -9.23748,-6.24 -0.17466,1.67931 -0.413729,2.28362 -0.903409,2.28362 -0.27444,0 -4.83269,2.82211 -10.129456,6.27135 -5.296765,3.44925 -9.835783,6.35015 -10.086711,6.44644 -0.355184,0.13629 -0.431091,0.7286 -0.342729,2.67436 0.06242,1.37461 0.286387,2.67218 0.497696,2.88349 0.228528,0.22853 2.975113,0.61754 6.778697,0.96008 7.793603,0.70189 26.554712,2.15584 29.633662,2.29655 1.232,0.0563 2.54078,0.13058 2.90839,0.16505 0.60845,0.0571 0.67299,-0.11668 0.7197,-1.93732 z m 27.41191,1.52831 c 4.224,-0.25778 9.09824,-0.56467 10.83165,-0.68197 l 3.15166,-0.21328 -0.22241,-4.99653 c -0.20141,-4.52479 -0.28748,-5.06163 -0.91165,-5.68603 -0.37909,-0.37922 -4.64925,-3.74782 -9.48925,-7.48578 -7.92129,-6.11766 -8.80895,-6.71983 -8.88958,-6.03051 -0.1921,1.64206 -0.42193,2.20579 -0.8993,2.20579 -0.27319,0 -4.96835,2.90986 -10.43369,6.46636 l -9.937,6.46636 0.19869,2.25364 c 0.10928,1.2395 0.36807,3.58564 0.5751,5.21364 l 0.3764,2.96 8.98469,-0.002 c 4.94158,-9.6e-4 12.44069,-0.21241 16.66469,-0.4702 z m 32.22369,-3.21719 c 14.00752,-1.93311 22.31966,-3.19698 22.49001,-3.41965 0.0385,-0.0503 -0.0163,-1.24347 -0.12186,-2.65147 l -0.19184,-2.56 -9.12,-7.08971 c -5.016,-3.89934 -9.14341,-6.99534 -9.17201,-6.88 -0.0286,0.11534 -0.13935,0.60571 -0.2461,1.08971 -0.11849,0.53726 -0.40981,0.88552 -0.74799,0.89418 -0.30464,0.008 -5.00005,2.9238 -10.43424,6.48 l -9.88034,6.46582 0.056,4.16 c 0.0706,5.24842 0.15366,5.6 1.3231,5.6 0.49995,0 7.72034,-0.94 16.04531,-2.08888 z M 77.71703,182.06361 c -0.122243,-1.364 -0.297235,-2.79788 -0.388873,-3.1864 -0.176147,-0.74681 -17.792455,-14.63368 -18.316093,-14.4385 -0.154787,0.0577 -1.265315,1.3289 -2.467843,2.8249 -1.202528,1.496 -3.961955,4.54332 -6.132058,6.77183 l -3.945641,4.05183 1.698787,0.48803 c 9.069337,2.60543 23.760861,5.59189 29.176384,5.9309 0.553024,0.0346 0.581017,-0.14756 0.375337,-2.44259 z M 207.539,179.55672 c 11.13707,-2.3462 22.18857,-5.47504 26.92388,-7.62254 l 2.19879,-0.99716 -1.97991,-1.11671 c -2.17781,-1.22832 -5.0688,-3.08888 -7.53766,-4.851 -4.07651,-2.90958 -3.18582,-3.16303 -14.33209,4.07822 -5.31735,3.45445 -9.86605,6.46953 -10.10822,6.70018 -0.60632,0.57749 -0.20303,4.6359 0.46069,4.6359 0.24718,0 2.21572,-0.3721 4.37452,-0.82689 z M 49.927046,172.91467 c 5.309738,-5.66986 6.953924,-7.61624 7.790759,-9.22267 0.576189,-1.10607 0.611702,-2.08667 0.63496,-17.53291 l 0.02464,-16.36132 -0.896653,-1.41442 c -0.493158,-0.77793 -1.040653,-1.37279 -1.216653,-1.32191 -0.591414,0.17095 -5.947837,6.35233 -7.507785,8.66408 -2.467958,3.65736 -4.808384,8.10871 -8.637859,16.42871 -3.980727,8.64862 -5.07233,12.1206 -5.354071,17.02938 -0.211292,3.6814 0.03905,4.12157 3.326154,5.84817 1.853069,0.97335 6.633888,2.81952 7.133558,2.75471 0.088,-0.0114 2.204327,-2.20373 4.70295,-4.87182 z m 38.800628,-1.77583 c 5.182967,-3.37832 9.610977,-6.29792 9.840007,-6.488 0.33251,-0.27596 0.41642,-3.83746 0.41642,-17.67538 V 129.64568 L 88.58921,121.25635 c -5.717188,-4.61413 -10.515684,-8.42609 -10.663319,-8.47103 -0.147638,-0.0449 -4.361939,3.8365 -9.365113,8.62543 l -9.096682,8.70713 0.16,16.51084 0.16,16.51082 9.28,7.18804 c 5.104,3.95342 9.496,7.13531 9.76,7.07086 0.264,-0.0645 4.720611,-2.88127 9.903578,-6.2596 z m 40.976426,-1.59822 c 5.192,-3.37734 9.83212,-6.60331 10.31139,-7.16882 l 0.87139,-1.02819 0.009,-16.56791 0.009,-16.56792 -0.72306,-0.27491 c -0.39768,-0.1512 -5.38286,-4.03606 -11.07819,-8.63303 l -10.35512,-8.35812 -6.39511,6.16095 c -3.51731,3.38852 -7.64012,7.32726 -9.16181,8.75277 l -2.76671,2.59181 0.16,16.54615 0.16,16.54614 9.28,7.18804 c 5.104,3.95342 9.496,7.13531 9.76,7.07086 0.264,-0.0645 4.728,-2.88047 9.92,-6.25782 z m 41.58358,-0.96178 c 5.18297,-3.37832 9.61097,-6.29792 9.84,-6.488 0.33251,-0.27596 0.41642,-3.83746 0.41642,-17.67538 v -17.32978 l -10.42105,-8.41044 c -5.73158,-4.62575 -10.60916,-8.36571 -10.83907,-8.31104 -0.22991,0.0547 -4.43244,3.94489 -9.33895,8.64491 l -8.92093,8.5455 0.16,16.51247 0.16,16.51247 9.28,7.18803 c 5.104,3.95342 9.496,7.13531 9.76,7.07086 0.264,-0.0645 4.72061,-2.88127 9.90358,-6.2596 z m 40.96,-0.64 c 5.18297,-3.37832 9.61097,-6.29792 9.84,-6.488 0.33251,-0.27596 0.41642,-3.83746 0.41642,-17.67538 v -17.32978 l -10.39489,-8.38933 c -5.71718,-4.61413 -10.51568,-8.42609 -10.66332,-8.47103 -0.14763,-0.0449 -4.36194,3.8365 -9.36511,8.62543 l -9.09668,8.70713 0.16,16.51084 0.16,16.51083 9.28,7.18803 c 5.104,3.95342 9.496,7.13531 9.76,7.07086 0.264,-0.0645 4.72061,-2.88127 9.90358,-6.2596 z m 25.62345,1.96477 c 0.004,-0.132 0.65803,-0.672 1.4537,-1.2 0.79566,-0.528 2.03502,-1.73436 2.75413,-2.6808 1.19663,-1.57491 1.27903,-1.80551 0.97198,-2.72 -2.71527,-8.08672 -4.93081,-14.20723 -6.29093,-17.37895 -1.88014,-4.38433 -5.31689,-10.58604 -6.67302,-12.04164 -0.49341,-0.5296 -1.06941,-1.28957 -1.28,-1.68882 -0.35727,-0.67734 -5.10919,-6.61392 -5.15983,-6.44618 -0.0127,0.042 0.0153,8.1599 0.0622,18.03974 l 0.0852,17.96334 1.00323,0.41554 c 0.55177,0.22856 2.03602,1.15655 3.29832,2.06222 1.26231,0.90566 3.1485,2.15711 4.19155,2.781 1.04304,0.62389 2.61644,1.57437 3.49644,2.11218 1.68337,1.02879 2.0755,1.17579 2.08703,0.78237 z m 5.35095,-2.16777 c 1.06876,-0.65099 1.21949,-0.9772 0.77506,-1.67737 -0.18086,-0.28493 -0.57443,0.0366 -1.32642,1.08377 -1.12732,1.56976 -1.09984,1.59934 0.55136,0.5936 z m 6.58403,-2.25112 c 9.50767,-2.38974 12.25795,-3.52215 16.69799,-6.87529 7.34291,-5.54542 13.09379,-10.83033 14.6133,-13.42925 1.13183,-1.93583 3.07967,-7.83571 3.46379,-10.4916 0.68792,-4.75633 0.20819,-8.67366 -1.57552,-12.86532 -2.80886,-6.60073 -8.45356,-11.95881 -15.05317,-14.28883 -4.11898,-1.45422 -9.7042,-0.62672 -13.37474,1.98158 -0.83252,0.59158 -2.01766,1.42702 -2.63366,1.85653 -0.616,0.4295 -3.352,3.18058 -6.08,6.11352 -4.00759,4.30865 -8.52896,8.66291 -14.98836,14.43439 -0.35169,0.31424 -0.22831,0.66199 0.68936,1.94295 3.27366,4.56967 6.48951,11.51405 10.3224,22.2904 1.13359,3.18715 2.1682,5.87468 2.29913,5.9723 0.39382,0.29364 1.67747,3.0887 1.67747,3.65256 0,0.67981 0.0966,0.67261 3.94201,-0.29394 z m 17.76751,-33.62004 c -1.70265,-0.70691 -2.49976,-3.00106 -1.04271,-3.00106 0.25796,0 0.59843,0.34036 0.7566,0.75636 0.33222,0.8738 0.9283,1.16364 2.39316,1.16364 0.99351,0 2.10343,-0.78159 2.10343,-1.4812 0,-0.52432 0.69309,-1.03834 1.15899,-0.85956 0.98618,0.37843 0.002,2.69512 -1.46852,3.45534 -1.16982,0.60494 -2.38838,0.59447 -3.90095,-0.0335 z m 7.27286,-5.94622 c -0.41566,-0.59344 -0.42689,-0.80611 -0.0708,-1.34236 0.68697,-1.03464 1.36514,-1.33318 1.94163,-0.85474 0.71846,0.59627 0.65012,2.16305 -0.11214,2.571 -0.89834,0.48077 -1.20581,0.4154 -1.75866,-0.3739 z m -11.63838,-0.95884 c -0.2112,-0.2112 -0.384,-0.7584 -0.384,-1.216 0,-1.67832 1.94698,-2.27322 2.61822,-0.8 0.747,1.63947 -1.01808,3.23214 -2.23422,2.016 z m -195.281764,-4.656 c 4.715408,-4.53201 8.536285,-8.28416 8.490838,-8.33812 -0.122512,-0.14546 -4.029136,2.27965 -7.673078,4.7632 -3.223027,2.19667 -6.984499,5.13434 -9.895133,7.72799 l -1.575133,1.4036 0.754058,1.34166 c 0.414733,0.73792 0.882515,1.34167 1.03952,1.34167 0.157002,0 4.14352,-3.708 8.858928,-8.24 z m 44.497764,-5.04931 4.96,-4.76297 0.20824,-2.57387 c 0.11453,-1.41562 0.22253,-4.19386 0.24,-6.17386 0.0374,-4.243906 0.56342,-3.950156 -5.29644,-2.957977 -9.79469,1.658417 -21.41637,5.524247 -30.92765,10.287757 l -3.775847,1.89104 6.815847,5.49712 c 3.748716,3.02342 8.541901,6.89797 10.651531,8.61012 l 3.83568,3.11298 4.164319,-4.08368 c 2.29038,-2.24602 6.39632,-6.22702 9.12432,-8.84666 z m 41.76,-1.10139 c 2.816,-2.69518 5.24812,-5.11902 5.40471,-5.3863 0.26476,-0.45191 0.13458,-4.54317 -0.32943,-10.35395 l -0.19572,-2.450947 -3.71087,-0.231863 c -2.04098,-0.127526 -5.51489,-0.13551 -7.71979,-0.01776 -4.1025,0.219124 -22.92657,1.63793 -26.44151,1.992948 l -1.95261,0.197219 -0.20609,4.040663 c -0.11335,2.22237 -0.1984,4.83267 -0.189,5.80067 l 0.0171,1.76 10.56564,8.48 c 5.81109,4.664 10.71987,8.66413 10.90839,8.88917 0.26423,0.31542 1.30339,-0.53341 4.53597,-3.70519 2.30627,-2.26288 6.49722,-6.31949 9.31322,-9.01466 z m 36.73467,3.44125 c 10.13745,-9.76961 10.1628,-9.80956 7.03761,-11.08867 C 181.40133,99.729732 172.00823,96.97004 163.374,96.345201 l -2.9701,-0.214937 0.20905,6.206676 c 0.14265,4.23528 0.33494,6.3413 0.6054,6.63054 0.4024,0.43034 20.72659,16.95711 20.90042,16.99533 0.0521,0.0115 4.01206,-3.75444 8.8,-8.36864 z m 29.67476,4.55991 c -3.45809,-3.83599 -6.63005,-6.45292 -11.52943,-9.512 -4.45766,-2.78328 -5.66202,-3.46282 -5.12,-2.8889 0.87763,0.92927 18.38697,14.95044 18.6698,14.95044 0.1529,0 -0.75627,-1.14729 -2.02037,-2.54954 z"
       style="fill:#000000;stroke-width:0.32" />
  </g>
</svg>
