<?xml version="1.0" encoding="UTF-8" standalone="no"?>
<svg
   xmlns:dc="http://purl.org/dc/elements/1.1/"
   xmlns:cc="http://creativecommons.org/ns#"
   xmlns:rdf="http://www.w3.org/1999/02/22-rdf-syntax-ns#"
   xmlns:svg="http://www.w3.org/2000/svg"
   xmlns="http://www.w3.org/2000/svg"
   xmlns:sodipodi="http://sodipodi.sourceforge.net/DTD/sodipodi-0.dtd"
   xmlns:inkscape="http://www.inkscape.org/namespaces/inkscape"
   version="1.1"
   id="svg284"
   width="320"
   height="320"
   viewBox="0 0 320 320"
   sodipodi:docname="亀1 (1).svg"
   inkscape:version="1.0 (4035a4fb49, 2020-05-01)">
  <metadata
     id="metadata290">
    <rdf:RDF>
      <cc:Work
         rdf:about="">
        <dc:format>image/svg+xml</dc:format>
        <dc:type
           rdf:resource="http://purl.org/dc/dcmitype/StillImage" />
        <dc:title />
      </cc:Work>
    </rdf:RDF>
  </metadata>
  <defs
     id="defs288" />
  <sodipodi:namedview
     inkscape:document-rotation="0"
     pagecolor="#ffffff"
     bordercolor="#666666"
     borderopacity="1"
     objecttolerance="10"
     gridtolerance="10"
     guidetolerance="10"
     inkscape:pageopacity="0"
     inkscape:pageshadow="2"
     inkscape:window-width="1920"
     inkscape:window-height="1001"
     id="namedview286"
     showgrid="false"
     inkscape:zoom="2.9521708"
     inkscape:cx="128.13064"
     inkscape:cy="123.8338"
     inkscape:window-x="-9"
     inkscape:window-y="-9"
     inkscape:window-maximized="1"
     inkscape:current-layer="layer4" />
  <g
     style="display:inline"
     inkscape:groupmode="layer"
     id="layer4"
     inkscape:label="iro">
    <path
       style="fill:#fff58a;fill-opacity:1;stroke-width:0.479042"
       d="m 271.5614,115.89348 c -5.82658,0.23996 -10.73657,3.82301 -14.51191,8.00018 -6.10066,6.01493 -12.45074,11.93695 -18.16183,18.24297 0.904,3.14103 3.54211,5.94244 4.80642,9.13919 3.73387,7.69031 6.26059,16.01484 9.79284,23.70729 0.23756,2.94525 4.0115,1.17334 5.71538,0.87148 6.71591,-1.8219 13.53895,-4.04578 18.79521,-8.8177 5.54746,-4.78939 12.40276,-9.29631 14.3399,-16.83443 2.87977,-7.21057 2.27318,-15.649 -2.02414,-22.16546 -4.03893,-6.47712 -10.94672,-11.69474 -18.75187,-12.14352 z m 1.47081,16.8516 c 1.44634,1.48978 -1.95955,2.68091 -0.58851,0.17871 0.0861,-0.14144 0.4604,-0.25982 0.58851,-0.17871 z m 11.60366,1.3707 c 1.24892,0.82055 -0.23068,2.02226 -0.75879,1.01142 0.10307,-0.40858 0.36212,-0.83458 0.75879,-1.01142 z m -3.43095,5.26291 c -0.15098,1.00852 -2.09954,1.76101 -2.32503,1.74495 0.9781,-0.22389 1.82246,-1.23929 2.32503,-1.74495 z m -5.81493,0.46501 c 0.58849,0.86648 2.01776,1.49266 2.76853,1.40344 -1.06991,0.1265 -2.67873,-0.26513 -2.76853,-1.40344 z"
       id="path301" />
    <path
       style="fill:#fff58a;fill-opacity:1;stroke-width:0.479042"
       d="m 203.28763,205.25819 c -0.33508,6.5708 0.0988,13.34384 0.55015,19.96912 -0.26567,2.88458 3.15205,2.96183 5.05535,2.13697 5.20434,-1.33644 10.86648,-1.46904 15.78391,-3.67888 1.51134,-1.90804 -1.71909,-2.74201 -3.0726,-2.96782 -2.65185,-0.49063 -1.2529,-3.9476 -1.82571,-5.79278 -0.36883,-3.23299 0.1919,-6.68775 -0.7164,-9.77795 -4.92979,-0.52966 -10.03063,-0.0713 -15.02526,-0.22642 l -0.43673,0.19683 z"
       id="path303" />
    <path
       style="fill:#fff58a;fill-opacity:1;stroke-width:0.479042"
       d="m 239.40758,199.24397 c -4.12889,1.7313 -8.60313,2.83715 -12.47099,5.10759 -0.78242,2.2996 2.31549,3.91438 3.37013,5.68208 3.77098,3.95706 7.6186,8.29052 12.85647,10.26759 3.12882,-0.93505 5.6954,-3.51337 8.46183,-5.27414 3.06301,-2.5645 7.01212,-4.92913 8.22886,-8.90625 -2.25268,-1.58143 -5.59591,-0.30336 -8.24289,0.0449 -3.16232,1.78099 -5.25539,-1.68439 -7.49625,-3.3263 -1.59028,-1.08162 -2.74591,-3.40808 -4.70716,-3.59548 z"
       id="path305" />
    <path
       style="fill:#fff58a;fill-opacity:1;stroke-width:0.479042"
       d="m 56.401405,201.78701 c -2.309633,0.71626 -2.366351,3.98639 -3.429366,5.84619 -1.400696,4.46607 -3.470673,9.44152 -2.111428,14.13696 2.261335,3.26868 6.865596,3.73141 10.532242,4.09164 3.978857,0.0721 8.145346,0.60007 12.010797,-0.11241 0.338566,-2.55975 -3.298195,-3.93781 -4.589702,-5.98419 0.855519,-4.648 2.499336,-9.53203 4.031131,-14.04294 -3.227177,-1.78913 -7.357751,-1.96821 -10.962633,-3.04643 -1.810395,-0.36107 -3.627448,-0.83961 -5.481041,-0.88882 z"
       id="path307" />
    <path
       style="fill:#fff58a;fill-opacity:1;stroke-width:0.479042"
       d="m 74.124084,205.89722 c -2.280361,1.34086 -2.180792,4.73661 -3.149326,6.97792 -0.448438,2.97474 -3.036051,6.64102 0.252572,8.82161 2.176763,1.97894 3.727748,6.01403 7.302354,4.64998 1.469134,-0.3353 5.010253,0.16254 4.300425,-2.24779 -1.06728,-1.79442 -3.442421,-2.90515 -2.177729,-5.3149 0.303748,-3.56955 1.53297,-7.04823 2.136562,-10.4757 -2.613707,-1.2286 -5.774284,-1.91255 -8.664858,-2.41112 z"
       id="path309" />
    <path
       style="fill:#95b170;fill-opacity:1;stroke-width:0.479042"
       d="m 252.38007,178.36635 c -5.27041,2.0371 -10.32544,4.80539 -15.8267,6.32786 -21.82641,6.68418 -44.54852,9.51958 -67.16796,11.87456 -21.05025,2.146 -42.21806,1.92284 -63.27966,0.0511 -15.094056,-1.20109 -30.303427,-2.24272 -44.94948,-6.46923 -5.768183,-1.59206 -11.73687,-2.97128 -17.00131,-5.81119 -2.438508,0.34189 -1.200835,3.69245 -1.079716,5.32841 0.80658,3.02278 1.250301,6.70305 4.52283,8.10815 7.486816,3.905 16.05052,5.00164 24.081341,7.37796 10.482849,2.74104 21.215134,5.18473 32.128335,4.46338 18.51638,-0.31954 37.05148,-0.81657 55.49734,-2.46741 21.83374,-1.19018 43.72549,-1.76917 65.57966,-2.53448 8.61983,-3.34867 17.83925,-5.71651 25.62313,-10.85516 3.36198,-2.94009 3.68034,-7.95126 3.98485,-12.12762 0.008,-1.32332 -0.31492,-3.45553 -2.11266,-3.26628 z"
       id="path311" />
    <path
       style="fill:#2d5016;fill-opacity:1;stroke-width:0.479042"
       d="m 85.673485,122.24639 c -6.178042,5.90661 -12.640498,11.66715 -18.405667,17.90685 -0.05829,10.92646 0.436826,21.95547 0.591296,32.92119 3.864849,4.01677 8.971163,7.00122 13.348496,10.58149 2.200933,1.11294 3.945757,3.93037 6.488705,4.00215 6.603294,-3.74941 13.089235,-7.84883 19.142965,-12.43637 2.42366,-2.6555 0.99051,-6.74059 1.49754,-9.96525 -0.0226,-8.69051 0.30464,-17.50492 -0.16874,-26.1154 -6.80887,-5.86336 -14.091271,-11.39587 -21.213719,-16.9667 -0.460972,-0.0225 -0.884632,-0.41701 -1.280876,0.072 z"
       id="path313" />
    <path
       style="fill:#2d5016;fill-opacity:1;stroke-width:0.479042"
       d="m 127.08067,120.60156 c -6.52801,5.23962 -12.27066,11.46828 -18.43469,17.1482 -0.70691,7.00635 -0.0928,14.28161 -0.283,21.39315 0.27952,4.24888 -0.5337,8.7564 0.41399,12.84713 6.44817,4.67784 12.65193,9.85967 19.2226,14.25912 5.54836,-2.37812 10.55129,-6.48059 15.74744,-9.74611 2.48998,-2.1478 7.28579,-3.49782 6.352,-7.63521 -0.21205,-10.24565 0.43682,-20.54775 -0.39671,-30.7616 -1.08864,-2.31818 -4.0475,-3.05402 -5.77376,-4.94012 -5.449,-4.13888 -10.58746,-8.73691 -16.24813,-12.56924 l -0.47903,0.004 z"
       id="path315" />
    <path
       style="fill:#2d5016;fill-opacity:1;stroke-width:0.479042"
       d="m 168.02659,119.73517 c -5.95788,5.86888 -12.2567,11.52586 -17.89595,17.632 -0.25356,10.90898 -0.003,21.91902 -0.0625,32.86669 3.40887,3.78926 8.20413,6.41986 12.16245,9.74149 2.7484,1.57667 5.06221,4.83774 8.41484,4.95817 6.7883,-3.80752 13.12958,-8.46337 19.72118,-12.63098 1.0315,-4.52694 0.16564,-9.53325 0.45097,-14.2487 -0.13823,-7.13658 0.27697,-14.3996 -0.20801,-21.45697 -6.84133,-5.85537 -14.07613,-11.48387 -21.30396,-16.95059 -0.45977,-0.0145 -0.89087,-0.4057 -1.27901,0.0889 z"
       id="path317" />
    <path
       style="fill:#2d5016;fill-opacity:1;stroke-width:0.479042"
       d="m 209.28876,118.97637 c -6.21092,5.91983 -12.73637,11.66409 -18.52591,17.92723 -0.0736,10.88773 0.40585,21.87882 0.54406,32.80631 3.41283,3.80871 8.16507,6.48524 12.13697,9.80445 2.54099,1.55519 4.75254,4.12351 7.66374,4.86808 6.95302,-3.52195 13.21346,-8.32483 19.82316,-12.45135 1.34304,-5.63269 0.78817,-11.75909 1.05633,-17.60199 -0.0837,-6.05316 0.29407,-12.22924 -0.17951,-18.20212 -6.80265,-5.94607 -14.1864,-11.43013 -21.21084,-17.2002 -0.48833,-0.0766 -0.8719,-0.41779 -1.308,0.0496 z"
       id="path319" />
    <path
       style="fill:#2d5016;fill-opacity:1;stroke-width:0.479042"
       d="m 232.60837,136.46889 c -1.73141,1.6086 -0.6351,4.61996 -1.06386,6.76611 -0.0393,9.45065 -0.31701,19.0119 0.11219,28.39161 4.34831,3.08692 9.13263,5.92879 13.72393,8.82151 2.38511,0.11598 3.94974,-2.55516 5.58664,-3.9942 3.25786,-2.51164 0.0184,-6.15183 -0.61069,-9.17515 -3.90202,-10.99295 -8.27095,-22.48685 -16.86124,-30.71164 -0.27579,-0.16638 -0.57572,-0.15287 -0.88697,-0.0982 z"
       id="path321" />
    <path
       style="fill:#2d5016;fill-opacity:1;stroke-width:0.479042"
       d="m 231.76817,172.35025 c -4.98137,1.36638 -8.94618,5.15808 -13.39539,7.66187 -2.5702,2.01025 -5.99486,3.23336 -7.99869,5.76534 0.11731,1.63026 -0.67295,5.41378 2.09955,4.99345 10.40795,-1.92212 20.76029,-4.56206 30.67365,-8.29528 1.74132,-0.20069 2.77383,-2.56335 0.73524,-3.24136 -3.96698,-2.20855 -7.64048,-5.7155 -12.11436,-6.88402 z"
       id="path323" />
    <path
       style="fill:#2d5016;fill-opacity:1;stroke-width:0.239521"
       d="m 149.81941,170.97503 c -1.48107,0.3189 -0.30993,2.23853 -1.7108,2.66186 -6.64295,4.18652 -13.33923,8.32455 -19.78714,12.798 -1.00168,1.65577 -0.0927,3.74046 -0.12093,5.54925 0.34664,2.06644 0.20801,4.30289 1.01352,6.23499 2.58995,0.5511 5.36193,0.0982 8.02488,0.24434 10.73653,-0.0377 21.48202,-0.51753 32.17254,-1.47375 1.47791,-0.79479 0.54165,-2.81764 0.71222,-4.15806 -0.27206,-2.35233 -0.011,-4.86102 -0.80906,-7.10691 -2.36904,-2.8272 -5.64689,-4.7347 -8.44433,-7.10708 -3.41498,-2.51149 -6.62824,-5.35306 -10.25515,-7.54861 -0.2501,-0.10705 -0.52637,-0.15234 -0.79575,-0.094 z"
       id="path325" />
    <path
       style="fill:#2d5016;fill-opacity:1;stroke-width:0.239521"
       d="m 191.00345,170.84825 c -0.32731,1.02252 -0.91011,1.91732 -1.97699,2.27779 -6.54294,3.9652 -12.90511,8.22054 -19.3371,12.36152 -0.9774,1.39397 -0.12195,3.32426 -0.31142,4.94322 0.23825,1.87745 -0.1722,4.00672 0.75069,5.70985 1.47051,1.34732 3.64999,0.20242 5.37698,0.23897 11.28246,-1.52893 22.59353,-2.92226 33.8137,-4.85863 1.31485,-0.003 1.83259,-1.28863 1.6163,-2.42188 -0.24551,-1.81316 0.46795,-4.27877 -1.53601,-5.25522 -5.74636,-4.40728 -11.43223,-8.96208 -17.30292,-13.16394 -0.40771,-0.25315 -0.72142,-0.009 -1.09323,0.16832 z"
       id="path327" />
    <path
       style="fill:#2d5016;fill-opacity:1;stroke-width:0.239521"
       d="m 202.22678,125.40288 c -1.00948,0.3348 -1.99074,1.95723 -0.65721,2.54119 1.41953,0.57732 3.04444,-2.22569 1.09743,-2.6165 l -0.2361,0.0404 z"
       id="path329" />
    <path
       style="fill:#2d5016;fill-opacity:1;stroke-width:0.239521"
       d="m 160.17635,104.65672 c -10.71659,0.21286 -21.40109,1.23388 -32.0654,2.24691 -1.72158,0.22757 -1.08115,2.40204 -1.29865,3.59095 -0.0127,3.05679 -0.38437,6.18346 -0.0733,9.19525 2.77465,2.64695 6.04592,4.91978 9.01259,7.42241 4.40986,3.42638 8.60001,7.16151 13.11251,10.44025 1.58033,0.15248 2.39926,-1.66619 3.5711,-2.45355 5.52614,-5.30162 11.14202,-10.56943 16.49126,-16.01698 0.48156,-2.4971 0.0495,-5.17285 0.004,-7.73654 -0.26224,-2.0093 0.0267,-4.16419 -0.66145,-6.06697 -2.54846,-0.87419 -5.42081,-0.54707 -8.09225,-0.62173 z"
       id="path331" />
    <path
       style="fill:#2d5016;fill-opacity:1;stroke-width:0.239521"
       d="m 125.06595,107.20491 c -9.81067,1.16722 -19.34305,4.14206 -28.473781,7.84805 -3.46361,1.56908 -7.015559,3.0202 -10.277158,4.98082 -1.134493,1.28801 0.861719,2.26762 1.648284,3.03271 6.377994,5.23125 12.784685,10.4927 19.256525,15.5684 1.52429,0.31334 2.36314,-1.6868 3.52222,-2.4439 5.37893,-5.21202 10.87629,-10.36101 16.08272,-15.71343 0.4995,-2.48155 0.18056,-5.15253 0.36211,-7.70764 -0.10651,-1.66605 0.38017,-3.42714 -0.13926,-5.02703 -0.55782,-0.42851 -1.28882,-0.57129 -1.98166,-0.53798 z"
       id="path333" />
    <path
       style="fill:#2d5016;fill-opacity:1;stroke-width:0.239521"
       d="m 169.7193,105.20921 c -1.41921,-0.20295 -1.89962,1.34193 -1.60274,2.46632 0.22315,3.62273 0.17748,7.30274 0.71108,10.88557 2.09627,2.61731 5.00005,4.48727 7.49347,6.7115 4.62725,3.68998 9.09117,7.60995 13.90389,11.05375 1.51689,0.32974 2.39332,-1.48212 3.50814,-2.21557 4.88727,-4.80864 10.12158,-9.30432 14.60189,-14.50458 1.07398,-1.05123 0.99701,-3.07926 -0.56932,-3.60685 -9.51287,-4.06081 -19.26784,-7.78405 -29.43863,-9.82364 -2.83967,-0.53324 -5.71759,-0.89554 -8.60778,-0.9665 z"
       id="path335" />
    <path
       style="fill:#2d5016;fill-opacity:1;stroke-width:0.239521"
       d="m 109.19254,172.52396 c -1.31903,0.16274 -1.0298,1.74193 -1.57373,2.51263 -6.91238,4.11116 -13.611211,8.57408 -20.390626,12.90045 -0.928996,1.33901 -0.307614,3.19356 -0.415419,4.76516 -0.111139,1.21126 0.593885,2.4148 1.905876,2.44292 6.606148,1.06246 13.321679,1.29537 19.978069,1.94106 6.25842,0.44172 12.52353,1.09408 18.78643,1.30137 1.83637,-0.4016 1.33902,-2.71645 1.3707,-4.09619 -0.29329,-2.49802 0.0125,-5.16605 -1.01469,-7.51076 -1.88868,-2.60635 -4.89329,-4.1183 -7.28273,-6.21373 -3.61115,-2.65615 -6.99489,-5.6847 -10.83759,-7.99379 -0.16837,-0.0609 -0.35028,-0.0639 -0.52629,-0.0491 z"
       id="path337" />
    <path
       style="fill:#2d5016;fill-opacity:1;stroke-width:0.239521"
       d="m 67.405486,173.52181 c -2.126582,1.65369 -3.62133,4.04214 -5.527695,5.95247 -2.270317,2.72159 -5.093133,4.9979 -7.100954,7.92337 -0.443158,1.66055 1.789897,1.79588 2.854603,2.19686 8.865479,2.26982 17.821874,4.32635 26.908214,5.4781 1.106754,0.16428 2.944754,0.15436 2.671123,-1.44507 -0.118601,-2.37771 0.141993,-5.34443 -2.115813,-6.8534 -5.484989,-4.56044 -11.038585,-9.0731 -16.871271,-13.17889 -0.250801,-0.16571 -0.54138,-0.0573 -0.818207,-0.0734 z"
       id="path339" />
    <path
       style="fill:#2d5016;fill-opacity:1;stroke-width:0.239521"
       d="m 64.679969,136.12332 c -1.913211,0.96408 -3.051673,3.01207 -4.509598,4.52883 -3.385361,3.87433 -6.11981,8.24868 -8.318907,12.89176 -3.034756,6.2943 -6.291623,12.55177 -8.341499,19.25279 -0.73447,3.31299 -1.650413,6.93185 -0.535647,10.25495 1.294994,1.90271 3.744684,2.58133 5.684412,3.64896 1.660168,0.59553 3.334903,1.70553 5.13286,1.59758 2.987914,-2.12924 5.316858,-5.08267 7.875672,-7.69722 1.80219,-2.16376 3.98658,-4.11226 5.318564,-6.61416 1.048777,-3.75642 0.521488,-7.74611 0.707442,-11.59943 -0.01871,-7.6442 0.156259,-15.31501 0.02614,-22.94233 -0.685307,-1.15822 -1.331267,-2.6662 -2.599692,-3.30957 -0.144713,0.027 -0.295258,-0.0429 -0.439746,-0.0122 z"
       id="path341" />
    <path
       style="fill:#2d5016;fill-opacity:1;stroke-width:0.239521"
       d="m 82.786257,122.28584 c -2.950288,1.19962 -5.434936,3.36688 -8.058493,5.14886 -3.161028,2.4716 -6.605133,4.70013 -9.328296,7.6613 -0.554071,1.46208 0.786211,2.92116 1.784712,3.83982 1.502253,0.43277 2.357413,-1.4366 3.463697,-2.13277 4.373025,-4.1969 8.969554,-8.19433 13.044068,-12.68385 0.636936,-0.7264 0.09915,-1.95024 -0.905688,-1.83336 z"
       id="path343" />
    <path
       style="fill:#2d5016;fill-opacity:1"
       id="path345"
       d="m 87.172761,123.24059 c -0.0071,-0.63639 0.400176,-1.3367 0.170692,-1.96336 -0.03269,-0.0893 -0.09307,-0.16578 -0.139607,-0.24867 -0.261894,-0.33214 -0.599163,-0.31407 -0.971488,-0.22219 0,0 -2.784333,2.15513 -2.784333,2.15513 v 0 c 0.2232,-0.087 0.45813,-0.28625 0.697554,-0.16128 0.338761,0.51199 -0.06952,1.41433 -0.157569,1.966 0,0 3.184751,-1.52563 3.184751,-1.52563 z" />
    <path
       style="fill:#2d5016;fill-opacity:1"
       id="path347"
       d="m 82.685053,122.72736 c -0.527571,0.55625 -1.082737,1.0848 -1.622585,1.62921 0,0 3.097062,-1.28106 3.097062,-1.28106 v 0 c 0.581426,-0.56558 1.164236,-1.12958 1.769702,-1.66966 0,0 -3.244179,1.32151 -3.244179,1.32151 z" />
    <path
       style="fill:#2d5016;fill-opacity:1;stroke-width:0.0846834"
       d="m 212.72465,118.72187 c -0.89927,0.12968 -1.13704,1.41086 -0.41035,1.91282 4.23886,3.63252 8.6353,7.07766 12.99513,10.56315 1.70528,1.31095 3.34414,2.7168 5.12034,3.93095 0.7928,0.48027 1.81379,-0.44698 1.42986,-1.28398 -0.72472,-1.22349 -1.79353,-2.20719 -2.72647,-3.27216 -3.16985,-3.46535 -6.91234,-6.35637 -10.89245,-8.83059 -1.63557,-1.0026 -3.23757,-2.07617 -4.93668,-2.96594 -0.18469,-0.069 -0.38506,-0.086 -0.57938,-0.0543 z"
       id="path351" />
    <path
       style="fill:#2d5016;fill-opacity:1;stroke-width:0.0846834"
       d="m 232.80273,135.47083 c -0.91061,0.12093 -1.73936,1.01313 -1.55195,1.96393 0.0551,11.38549 0.0544,22.77156 0.2028,34.15638 0.0573,0.94791 1.11475,1.02626 1.76744,1.42325 0.90509,0.44361 1.69433,1.08574 2.57719,1.53167 0.92578,0.19063 1.91082,0.0292 2.85942,0.0831 4.38511,-0.012 8.77666,0.0295 13.15776,-0.016 0.79685,-0.0488 1.10555,-0.99305 0.76357,-1.63642 -1.74144,-5.20227 -3.54123,-10.38813 -5.51307,-15.50815 -1.59868,-4.02299 -3.57499,-7.89349 -5.78362,-11.61413 -0.87198,-1.52029 -2.00684,-2.85691 -3.04806,-4.25773 -1.38844,-1.99285 -2.90145,-3.90459 -4.51138,-5.72275 -0.23449,-0.25656 -0.56749,-0.42311 -0.9201,-0.40308 z"
       id="path353" />
    <path
       style="fill:#2d5016;fill-opacity:1"
       id="path355"
       d="m 232.02612,135.87052 c 0.12242,0.21 0.22088,0.43235 0.32133,0.65326 0,0 1.03946,-0.5843 1.03946,-0.5843 v 0 c -0.093,-0.22589 -0.1886,-0.45099 -0.27076,-0.68115 0,0 -1.09003,0.61219 -1.09003,0.61219 z" />
    <path
       style="fill:#2d5016;fill-opacity:1"
       id="path357"
       d="m 231.66089,135.6286 c 0.049,0.31625 0.0594,0.63634 0.0735,0.95544 0,0 1.03717,-0.5326 1.03717,-0.5326 v 0 c -0.006,-0.33289 -0.009,-0.66557 -0.008,-0.99851 0,0 -1.10251,0.57567 -1.10251,0.57567 z" />
    <path
       style="fill:#2d5016;fill-opacity:1"
       id="path359"
       d="m 244.43036,179.28166 c 0.0113,0.24971 0.008,0.49979 0.009,0.74969 0.0117,0.17669 -0.0169,0.35711 -7.4e-4,0.53348 0.007,0.076 0.0336,0.16568 0.053,0.2396 0.045,0.20196 0.11902,0.39487 0.15896,0.59796 0.0135,0.035 0.0269,0.0699 0.0404,0.10487 0,0 1.08708,-0.60401 1.08708,-0.60401 v 0 c -0.0105,-0.0289 -0.0211,-0.0579 -0.0316,-0.0868 -0.0417,-0.20515 -0.11751,-0.39978 -0.16342,-0.60398 -0.0639,-0.24345 -0.0413,-0.49153 -0.0442,-0.7414 6.6e-4,-0.25298 -0.002,-0.50613 0.009,-0.75893 0,0 -1.11771,0.5695 -1.11771,0.5695 z" />
    <path
       style="fill:#2d5016;fill-opacity:1"
       id="path361"
       d="m 251.71314,175.979 c 0.02,0.34122 0.0168,0.68331 0.0138,1.02495 -0.0215,0.20342 0.0288,0.41918 -0.0167,0.62064 -0.0154,0.0681 -0.0659,0.1526 -0.0981,0.21273 -0.0271,0.0282 -0.0499,0.0613 -0.0813,0.0846 -0.0345,0.0257 -0.15074,0.0827 -0.11388,0.0606 0.3107,-0.18642 0.62816,-0.36165 0.93551,-0.55353 0.0436,-0.0272 -0.094,0.0416 -0.14252,0.0585 -0.1595,0.0553 -0.21497,0.0579 -0.39055,0.0906 -0.46981,0.0618 -0.94453,0.0679 -1.41768,0.0692 -0.16249,5.6e-4 -0.32497,-0.001 -0.48745,-0.002 0,0 -0.99576,0.72324 -0.99576,0.72324 v 0 c 0.16586,-3.5e-4 0.33172,-0.002 0.49757,-0.004 0.47815,-0.009 0.95679,-0.0184 1.43343,-0.0602 0.74444,-0.0812 0.8845,-0.27972 1.71655,-0.77636 0.04,-0.0239 0.0727,-0.0591 0.10266,-0.0947 0.0279,-0.0332 0.0463,-0.0734 0.0695,-0.11005 0.11418,-0.28673 0.0801,-0.57198 0.0787,-0.87503 -0.003,-0.34635 -0.006,-0.69311 0.0138,-1.03906 0,0 -1.1177,0.5695 -1.1177,0.5695 z" />
    <path
       style="fill:#2d5016;fill-opacity:1"
       id="path363"
       d="m 251.48895,176.19908 c -0.12733,0.16708 -0.2243,0.35538 -0.34285,0.52793 -0.13911,0.17798 -0.0731,0.0877 -0.1983,0.27064 -0.12019,0.19762 -0.32275,0.33554 -0.42302,0.54776 -0.0208,0.044 -0.0336,0.0914 -0.0504,0.13707 -0.0755,0.22729 -0.0919,0.46671 -0.10549,0.704 0,0 1.10404,-0.55418 1.10404,-0.55418 v 0 c 0.0143,-0.22562 0.0354,-0.45311 0.12292,-0.66425 0.12633,-0.24485 0.32676,-0.43164 0.47771,-0.66064 0.18852,-0.26924 0.36365,-0.54729 0.56167,-0.80988 0,0 -1.14631,0.50155 -1.14631,0.50155 z" />
    <path
       style="fill:#2d5016;fill-opacity:1"
       id="path365"
       d="m 250.78044,176.05415 c 0.0159,0.28695 0.0132,0.57462 0.0132,0.86191 -0.001,0.28551 -0.004,0.57102 -0.004,0.85653 -0.01,0.23809 0.0833,0.46487 0.15359,0.6887 0.01,0.038 0.0195,0.0759 0.0292,0.11389 0,0 1.08922,-0.59003 1.08922,-0.59003 v 0 c -0.0104,-0.0401 -0.0207,-0.0802 -0.0311,-0.12037 -0.0671,-0.21207 -0.14871,-0.42761 -0.14011,-0.65308 1.6e-4,-0.28431 -0.002,-0.56862 -0.004,-0.85293 -7e-5,-0.29177 -0.002,-0.58388 0.0131,-0.87531 0,0 -1.12006,0.57069 -1.12006,0.57069 z" />
    <path
       style="fill:#2d5016;fill-opacity:1"
       id="path367"
       d="m 84.899793,121.50125 c 0.06884,0.46504 0.06526,0.93656 0.05676,1.40532 -0.0062,0.27379 -0.01814,0.54739 -0.03074,0.82094 0,0 0.746882,-0.3781 0.746882,-0.3781 v 0 c 0.0016,-0.27043 0.0042,-0.54084 0.01006,-0.81122 0.0085,-0.48244 0.02009,-0.96536 -0.0011,-1.44764 0,0 -0.781865,0.4107 -0.781865,0.4107 z" />
    <path
       style="fill:#f77f63;fill-opacity:1"
       id="path369"
       d="m 84.382276,122.09569 c 0.323905,0.48873 0.542239,1.03518 0.751655,1.57986 0,0 0.705292,-0.39358 0.705292,-0.39358 v 0 c -0.223393,-0.54653 -0.449109,-1.09192 -0.689242,-1.63124 0,0 -0.767705,0.44496 -0.767705,0.44496 z" />
    <path
       d="m 84.382276,122.09569 c 0.323905,0.48873 0.542239,1.03518 0.751655,1.57986 0,0 0.705292,-0.39358 0.705292,-0.39358 v 0 c -0.223393,-0.54653 -0.449109,-1.09192 -0.689242,-1.63124 0,0 -0.767705,0.44496 -0.767705,0.44496 z"
       id="path371"
       style="fill:#f77f63;fill-opacity:1" />
    <path
       style="fill:#f77f63;fill-opacity:1"
       id="path375"
       d="m 261.57235,136.29088 c -0.12933,0.27826 -0.29735,0.53759 -0.43015,0.81507 -0.1755,0.36271 -0.28025,0.74542 -0.32849,1.14372 -0.005,0.0563 -0.0103,0.11271 -0.0155,0.16907 0,0 1.09811,-0.54702 1.09811,-0.54702 v 0 c 0.005,-0.0545 0.01,-0.1089 0.0148,-0.16334 0.0543,-0.38472 0.15915,-0.75719 0.33976,-1.10343 0.14734,-0.27594 0.30205,-0.55216 0.47587,-0.81156 0,0 -1.15443,0.49749 -1.15443,0.49749 z" />
    <path
       style="fill:#f77f63;fill-opacity:1"
       id="path377"
       d="m 263.72353,136.84593 c -0.0412,0.38122 -0.15091,0.74951 -0.2193,1.12612 -0.0496,0.31092 -0.0249,0.15599 -0.0743,0.4648 0,0 1.08639,-0.53207 1.08639,-0.53207 v 0 c 0.0489,-0.30758 0.0222,-0.15284 0.0805,-0.46417 0.0743,-0.38415 0.17114,-0.76318 0.25347,-1.14555 0,0 -1.12676,0.55087 -1.12676,0.55087 z" />
    <path
       style="fill:#f77f63;fill-opacity:1"
       id="path379"
       d="m 266.02464,137.19398 c -0.0146,0.34775 -0.043,0.69359 -0.0798,1.03953 -0.007,0.0671 -0.0134,0.13424 -0.02,0.20136 0,0 1.09045,-0.542 1.09045,-0.542 v 0 c 0.007,-0.0667 0.0134,-0.1335 0.0201,-0.20024 0.0393,-0.35578 0.062,-0.71299 0.10705,-1.06815 0,0 -1.11771,0.5695 -1.11771,0.5695 z" />
    <path
       style="fill:#f77f63;fill-opacity:1"
       id="path381"
       d="m 286.6335,139.06833 c 0.0863,0.28927 0.1327,0.59169 0.17631,0.89037 0,0 1.08084,-0.56987 1.08084,-0.56987 v 0 c -0.0423,-0.31256 -0.0959,-0.62435 -0.1605,-0.93289 0,0 -1.09665,0.61239 -1.09665,0.61239 z" />
    <path
       style="fill:#f77f63;fill-opacity:1"
       id="path383"
       d="m 288.13054,138.74687 c 0.0417,0.45282 0.10342,0.90402 0.14,1.3579 0,0 1.07614,-0.56134 1.07614,-0.56134 v 0 c -0.0503,-0.4521 -0.12616,-0.90668 -0.10548,-1.36247 0,0 -1.11066,0.56591 -1.11066,0.56591 z" />
    <path
       style="fill:#f77f63;fill-opacity:1"
       id="path385"
       d="m 289.6105,138.1715 c 0.02,0.0506 0.0385,0.10186 0.0599,0.15192 0.0786,0.18403 0.0905,0.18424 0.16421,0.37249 0.0905,0.23087 0.15385,0.47262 0.22756,0.7091 0.0292,0.0927 0.0585,0.18546 0.0877,0.27819 0,0 1.04745,-0.57398 1.04745,-0.57398 v 0 c -0.0282,-0.0928 -0.0565,-0.18565 -0.0847,-0.27847 -0.0497,-0.17364 -0.0916,-0.3495 -0.14419,-0.52229 -0.0603,-0.19839 -0.1563,-0.38151 -0.22293,-0.57715 -0.0179,-0.0525 -0.0295,-0.10702 -0.0442,-0.16054 0,0 -1.09076,0.60073 -1.09076,0.60073 z" />
    <path
       id="path488"
       d="m 64.814921,136.1245 c -1.546505,0.52694 -2.452653,2.08897 -3.582137,3.18545 -4.23094,4.56834 -7.471806,9.93526 -10.151614,15.53075 -2.820334,5.9857 -5.872025,11.92535 -7.724572,18.30171 -0.749709,2.96765 -1.20967,6.10442 -0.772075,9.15342 0.628346,2.17642 3.06162,2.95769 4.863675,3.91496 2.038198,0.85299 4.066895,1.92313 6.254005,2.28844 1.383067,-0.51934 2.231627,-1.91359 3.318775,-2.86179 3.374376,-3.6167 6.891175,-7.14625 9.797897,-11.16027 1.145889,-2.06854 0.746373,-4.56972 0.917196,-6.83817 0.09054,-9.32478 0.08902,-18.65027 0.142009,-27.97533 -0.506359,-1.25805 -1.323314,-2.50355 -2.362866,-3.40123 -0.213301,-0.11975 -0.457225,-0.17088 -0.700293,-0.13794 z"
       style="fill:#264520;fill-opacity:1;stroke-width:0.169367" />
    <path
       id="path490"
       d="m 86.303015,121.8345 c -1.19635,0.4725 -1.995384,1.62153 -3.011735,2.38539 -5.326467,4.92827 -10.529115,9.98818 -15.776744,14.99985 -0.647874,1.29524 -0.153274,2.86572 -0.30797,4.2785 0.0092,9.81207 0.135068,19.62356 0.22461,29.43511 0.391767,1.27968 1.905775,1.73903 2.79793,2.64742 5.285038,4.01885 10.430982,8.24244 15.93642,11.95832 0.74761,0.57254 1.78897,0.73713 2.512672,0.0215 6.274925,-3.98497 12.549742,-7.98407 18.688172,-12.17303 1.39193,-0.97581 0.7852,-2.84717 0.95375,-4.2694 0.1296,-10.53788 0.12966,-21.07679 0.18517,-31.61521 -0.39247,-1.30859 -1.93944,-1.7898 -2.83755,-2.73468 -6.190777,-4.89668 -12.231603,-9.98925 -18.5298,-14.74649 -0.24782,-0.18246 -0.538104,-0.20182 -0.834925,-0.18723 z"
       style="fill:#264520;fill-opacity:1;stroke-width:0.169367" />
    <path
       id="path492"
       d="m 67.72823,173.45303 c -1.423948,0.26524 -2.083804,1.83647 -3.05891,2.75171 -3.174614,3.89088 -6.801534,7.35355 -10.126237,11.1152 -0.637643,1.01861 0.569688,1.78371 1.480381,1.85291 9.521601,2.5779 19.176025,4.76361 28.963782,6.04003 1.038165,0.28708 2.463218,-0.22322 2.317745,-1.50761 -0.122308,-1.81001 -0.09449,-3.71787 -0.734032,-5.42966 -2.071695,-2.40602 -4.741879,-4.22029 -7.153767,-6.26724 -3.667433,-2.8645 -7.292799,-5.80356 -11.126611,-8.44056 -0.175159,-0.0812 -0.36918,-0.122 -0.562351,-0.11478 z"
       style="fill:#264520;fill-opacity:1;stroke-width:0.169367" />
    <path
       id="path494"
       d="m 108.78945,172.36703 c -0.97324,0.44327 -0.66753,1.71819 -1.09361,2.476 -6.93843,4.26597 -13.759616,8.74006 -20.632328,13.10344 -0.84777,0.95004 -0.423483,2.39664 -0.486824,3.58153 0.203644,1.16027 -0.06056,2.86815 1.200017,3.4763 4.371681,0.91621 8.868445,1.08459 13.308275,1.51185 8.82361,0.69026 17.64784,1.44359 26.48137,1.95951 1.4552,-0.1432 1.27947,-1.85348 1.26746,-2.90867 -0.0708,-3.0221 -0.14988,-6.10476 -0.75127,-9.05455 -1.12338,-1.30422 -2.74337,-2.20239 -4.06338,-3.34513 -4.70857,-3.57652 -9.27675,-7.35748 -14.17051,-10.67921 -0.32602,-0.21864 -0.68876,-0.21618 -1.0592,-0.12107 z"
       style="fill:#264520;fill-opacity:1;stroke-width:0.169367" />
    <path
       id="path496"
       d="m 127.21471,119.99726 c -1.415,0.64289 -2.32535,2.06167 -3.52669,3.02713 -5.12014,4.90724 -10.28308,9.80301 -15.3914,14.70252 -0.53696,1.21898 -0.0534,2.6771 -0.17614,3.99172 0.14495,9.86641 0.19703,19.75443 0.28458,29.62922 0.38984,1.28131 1.9065,1.7398 2.79905,2.64839 5.42644,4.11708 10.69402,8.46792 16.36588,12.24663 1.24476,0.70847 2.37661,-0.67799 3.44833,-1.14381 5.90579,-3.73101 11.82573,-7.46898 17.43693,-11.63438 1.13253,-0.82295 2.20762,-2.0154 1.87804,-3.5323 0,-10.60638 0,-21.21276 0,-31.81914 -0.22052,-1.11211 -1.5967,-1.23037 -2.302,-1.98841 -6.7607,-5.1748 -13.28804,-10.6428 -19.99885,-15.87252 -0.24008,-0.17161 -0.51877,-0.27256 -0.81773,-0.25505 z"
       style="fill:#264520;fill-opacity:1;stroke-width:0.169367" />
    <path
       id="path498"
       d="m 150.12985,170.95123 c -1.17544,0.0935 -1.2262,1.45195 -1.42307,2.31358 -6.66586,4.09545 -13.31983,8.29468 -19.85695,12.6218 -0.88545,0.3785 -1.27066,1.29067 -1.0817,2.21004 0.2916,3.23295 0.59704,6.4766 1.13132,9.67839 0.61864,1.34474 2.36766,0.5739 3.52712,0.75617 9.69935,-0.0954 19.40738,-0.13109 29.08351,-0.88912 2.65075,-0.18632 5.30852,-0.30934 7.95274,-0.56833 1.35965,-0.55391 0.61393,-2.24625 0.7405,-3.35509 -0.19539,-2.50941 -0.0616,-5.07934 -0.59164,-7.54427 -0.95358,-1.95936 -3.03508,-3.02228 -4.60771,-4.42364 -4.61313,-3.54479 -9.13139,-7.23149 -13.92176,-10.53424 -0.29266,-0.15514 -0.61311,-0.29216 -0.95236,-0.26529 z"
       style="fill:#264520;fill-opacity:1;stroke-width:0.169367" />
    <path
       id="path500"
       d="m 168.78932,119.42036 c -1.31672,0.30148 -2.09765,1.62662 -3.13786,2.40555 -5.27055,4.92379 -10.46308,9.9302 -15.68634,14.90394 -0.66166,1.23961 -0.12646,2.76161 -0.27635,4.12055 0.0941,9.86152 0.19285,19.72315 0.3779,29.58346 0.43756,1.31418 2.00032,1.79855 2.93218,2.74342 5.32397,4.0346 10.47359,8.32395 16.04353,12.01896 1.33066,0.89318 2.57241,-0.55639 3.69795,-1.11379 5.9267,-3.79845 11.88522,-7.56507 17.62078,-11.64695 0.79408,-1.02529 0.3022,-2.47938 0.47727,-3.68992 0.1368,-10.60328 0.1133,-21.20775 0.15785,-31.81163 -0.41079,-1.32341 -1.96556,-1.8374 -2.87919,-2.80025 -6.04705,-4.78437 -11.91751,-9.80499 -18.16861,-14.324 -0.34578,-0.22008 -0.73777,-0.41502 -1.15911,-0.38934 z"
       style="fill:#264520;fill-opacity:1;stroke-width:0.169367" />
    <path
       id="path502"
       d="m 191.01013,170.63168 c -0.65374,0.62858 -0.39996,1.89065 -1.43334,2.09955 -6.75162,3.99017 -13.21957,8.44309 -19.82088,12.67506 -0.90235,1.00065 -0.23461,2.50807 -0.40358,3.73391 0.12194,2.20873 -0.0968,4.48535 0.39464,6.64974 0.64547,1.4946 2.51142,1.05088 3.77371,0.89348 12.03121,-1.59457 24.0763,-3.13016 36.04802,-5.1303 1.15328,-0.003 1.50705,-1.19961 1.39265,-2.15149 -0.10099,-1.57124 0.0654,-3.23773 -0.46146,-4.72771 -6.05984,-4.72667 -12.10068,-9.48682 -18.2817,-14.05713 -0.43713,-0.21573 -0.77508,-0.20773 -1.20806,0.0149 z"
       style="fill:#264520;fill-opacity:1;stroke-width:0.169367" />
    <path
       id="path504"
       d="m 209.92265,118.65357 c -1.66252,0.64991 -2.77877,2.2131 -4.14254,3.31523 -4.9834,4.7293 -10.02529,9.43063 -14.90647,14.24601 -0.50834,1.33299 -0.0785,2.88543 -0.2021,4.30749 0.10636,9.77504 0.0705,19.5536 0.38391,29.32506 0.45444,1.30191 2.00038,1.78743 2.93262,2.72786 5.40248,4.11582 10.69682,8.38854 16.30904,12.21877 1.26683,0.45699 2.28024,-0.8711 3.36882,-1.34997 5.82579,-3.72693 11.6755,-7.42872 17.35514,-11.37471 1.23415,-0.85943 0.60636,-2.57729 0.7989,-3.83682 0.13523,-10.64905 0.11319,-21.29925 0.15842,-31.94888 -0.37808,-1.26867 -1.84407,-1.76342 -2.73012,-2.66715 -6.17695,-4.92485 -12.2793,-9.94539 -18.51351,-14.79716 -0.24684,-0.14561 -0.52678,-0.21378 -0.81211,-0.16573 z"
       style="fill:#264520;fill-opacity:1;stroke-width:0.169367" />
    <path
       id="path506"
       d="m 232.07664,171.98926 c -2.64206,0.2697 -4.74716,2.13984 -6.97438,3.41185 -4.81977,3.13852 -9.70557,6.19443 -14.38041,9.5434 -0.97806,1.20562 -0.5249,2.9353 -0.40555,4.35094 0.0638,0.98265 0.68191,2.13211 1.83638,1.74195 6.4726,-1.06861 12.84351,-2.71065 19.17476,-4.41729 4.76085,-1.40712 9.63035,-2.68673 14.05178,-4.99215 0.86929,-0.58005 0.34031,-1.78992 -0.50645,-2.08136 -3.6412,-2.06866 -7.13485,-4.46403 -10.62182,-6.83985 -0.64429,-0.43221 -1.38418,-0.7473 -2.17431,-0.71749 z"
       style="fill:#264520;fill-opacity:1;stroke-width:0.169367" />
    <path
       id="path508"
       d="m 232.01676,134.88633 c -1.11934,0.82548 -0.41689,2.43714 -0.62495,3.62414 -0.10167,11.01915 -0.0344,22.03898 0.14034,33.05703 0.30188,1.27397 1.9482,1.27152 2.80216,2.08897 3.82935,2.45033 7.56259,5.08845 11.59733,7.1918 1.13578,0.27616 1.49549,-1.10251 2.38735,-1.49816 1.7091,-1.41522 3.5768,-2.97516 4.27751,-5.15412 0.0291,-1.63687 -0.85863,-3.15817 -1.25885,-4.72293 -2.5008,-7.14034 -4.83502,-14.40566 -8.62695,-20.99517 -2.35917,-4.51468 -5.67839,-8.41341 -8.80601,-12.40147 -0.48513,-0.59409 -0.9796,-1.48439 -1.88793,-1.19009 z"
       style="fill:#264520;fill-opacity:1;stroke-width:0.169367" />
    <path
       id="path510"
       d="m 168.71092,105.20743 c -0.922,0.84726 -0.37936,2.26287 -0.52728,3.35889 0.14471,3.45235 -0.0144,6.97047 0.70426,10.36413 1.15379,1.50093 2.852,2.52355 4.2447,3.80273 5.62428,4.61561 11.26237,9.21516 16.9513,13.75089 1.32299,0.6668 2.1071,-1.04437 3.04301,-1.70361 4.80458,-4.65128 9.73483,-9.18451 14.35514,-14.01939 0.78335,-1.05957 2.28801,-2.34555 1.58385,-3.79984 -1.07543,-1.33797 -2.94412,-1.63152 -4.41942,-2.36651 -10.97188,-4.35519 -22.22658,-8.73308 -34.1341,-9.44718 -0.60874,-0.0399 -1.21532,-0.18413 -1.80146,0.0599 z"
       style="fill:#264520;fill-opacity:1;stroke-width:0.169367" />
    <path
       id="path512"
       d="m 159.39508,104.5475 c -10.57768,0.42073 -21.12844,1.36461 -31.67326,2.26925 -1.36354,0.52644 -0.72766,2.25848 -0.96416,3.38036 -0.0795,3.06559 -0.3681,6.15438 -0.21862,9.20843 0.50592,1.19303 1.93576,1.72185 2.82406,2.63671 6.41633,5.14334 12.78936,10.34591 19.21037,15.48019 1.19733,0.59499 2.08099,-0.81789 2.92484,-1.44375 5.69807,-5.45253 11.43361,-10.874 16.955,-16.50532 1.21772,-1.0597 0.54132,-2.80758 0.68333,-4.21675 -0.14626,-3.23058 -0.23791,-6.47526 -0.60997,-9.6874 -0.53219,-1.20703 -2.10424,-0.71819 -3.14498,-0.93018 -1.99375,-0.10119 -3.98967,-0.20635 -5.98661,-0.19154 z"
       style="fill:#264520;fill-opacity:1;stroke-width:0.169367" />
    <path
       id="path514"
       d="m 125.17669,107.08171 c -11.19955,1.48223 -22.11354,4.88406 -32.371446,9.5869 -2.223431,1.11826 -4.606558,2.01361 -6.639179,3.45899 -0.844455,0.81148 0.02556,1.88181 0.819048,2.30431 6.691944,5.42813 13.424467,10.83457 20.084197,16.26915 1.35937,0.56755 2.09914,-1.15939 3.05248,-1.80527 5.52076,-5.31241 11.03256,-10.63414 16.51105,-15.99016 0.62877,-1.33588 0.32448,-2.9288 0.52752,-4.37821 0.0431,-2.73159 0.37009,-5.50964 -0.0601,-8.21879 -0.218,-0.87513 -1.07326,-1.29664 -1.92357,-1.22692 z"
       style="fill:#264520;fill-opacity:1;stroke-width:0.169367" />
    <path
       id="path516"
       d="m 84.31804,121.2156 c -0.964972,0.13842 -1.716656,0.86793 -2.55849,1.30696 -5.873987,3.67394 -11.49943,7.78889 -16.562768,12.52622 -0.569319,0.68622 0.02738,1.49771 0.387753,2.11951 0.498312,0.75001 0.883743,1.7376 1.782095,2.07893 0.922212,0.17369 1.5294,-0.73487 2.173032,-1.23309 5.090243,-4.72753 10.128951,-9.51417 15.02608,-14.44199 0.447252,-0.44251 1.092859,-1.05882 0.724182,-1.73789 -0.143554,-0.4011 -0.559499,-0.62527 -0.971884,-0.61865 z"
       style="fill:#264520;fill-opacity:1;stroke-width:0.0846834" />
    <path
       id="path518"
       d="m 252.24188,174.85672 c -0.90177,0.20284 -1.3643,1.13636 -1.92997,1.7805 -0.41702,0.58696 -1.10592,1.41198 -0.52915,2.11506 0.40997,0.64144 1.27404,0.42751 1.80018,0.0604 0.91958,-0.52611 2.11995,-1.16876 2.15843,-2.36783 -0.0154,-0.79035 -0.6253,-1.68416 -1.49949,-1.58815 z"
       style="fill:#264520;fill-opacity:1;stroke-width:0.0846834" />
    <path
       id="path520"
       d="m 212.56471,118.55877 c -0.85893,0.0551 -1.22995,1.2124 -0.60106,1.77753 2.35297,2.13708 4.89203,4.06181 7.35076,6.07517 3.6994,2.93528 7.34186,5.94691 11.12777,8.7704 0.72848,0.50916 1.80071,-0.24938 1.54547,-1.10634 -0.43549,-0.99921 -1.31139,-1.73117 -1.98734,-2.56884 -3.36982,-3.86888 -7.41727,-7.09772 -11.77875,-9.78063 -1.73821,-1.05727 -3.42751,-2.21802 -5.25328,-3.11783 -0.12982,-0.0486 -0.26791,-0.0386 -0.40357,-0.0495 z"
       style="fill:#264520;fill-opacity:1;stroke-width:0.0846834" />
  </g>
  <g
     inkscape:groupmode="layer"
     inkscape:label="Image"
     id="g292">
    <path
       style="fill:#000000;stroke-width:0.32"
       d="m 203.46201,228.23177 c -1.04158,-1.04158 -1.17397,-2.46152 -1.26775,-13.59689 l -0.0733,-8.70674 0.8,-0.14867 c 1.2229,-0.22726 -8.993,0.14066 -12.8,0.46099 -4.44991,0.37442 -14.10171,0.86264 -25.12,1.27064 -4.928,0.18249 -10.76,0.53738 -12.96,0.78865 -2.2,0.25127 -8.608,0.61174 -14.24,0.80106 -5.632,0.18931 -12.472,0.56569 -15.2,0.8364 -10.58175,1.05008 -26.034171,0.80795 -35.616085,-0.55809 -2.30282,-0.3283 -2.529972,-0.30951 -2.933735,0.24267 -0.685897,0.93803 -1.797334,5.11992 -2.192237,8.24854 l -0.359622,2.84909 1.626122,1.47109 c 2.974646,2.69105 2.849072,3.68689 -0.590269,4.68095 -1.77567,0.51322 -3.15095,0.57401 -11.614176,0.5134 -5.28,-0.0378 -10.464,-0.21325 -11.52,-0.38986 -4.292682,-0.71792 -8.099117,-2.34142 -9.416595,-4.01633 -1.812848,-2.30466 0.07679,-12.9337 3.488147,-19.62052 0.838986,-1.64454 0.70073,-2.12845 -0.68993,-2.41483 -1.8256,-0.37595 -6.268905,-2.67819 -7.5848,-3.92997 -0.894368,-0.85079 -1.320761,-1.56735 -1.47255,-2.47466 -0.11751,-0.7024 -0.493523,-1.95872 -0.835587,-2.79181 -0.541162,-1.31801 -0.631127,-2.41928 -0.692759,-8.48 -0.09818,-9.65481 0.112314,-10.42383 6.738164,-24.61788 4.57735,-9.80571 7.671222,-14.68567 12.88238,-20.31936 10.320106,-11.1569 25.662483,-20.75038 41.903532,-26.20201 11.42558,-3.83522 17.27581,-4.94135 32.8,-6.20166 16.87086,-1.36964 20.46086,-1.55154 26.52242,-1.34389 15.30107,0.52417 21.00938,1.8093 38.62781,8.69637 6.75786,2.64165 9.52175,3.97754 14.52977,7.02275 7.54008,4.58486 10.65212,7.24091 16.32922,13.93656 2.28293,2.69253 4.51078,5.30019 4.95078,5.79481 l 0.8,0.89931 4.48,-4.09698 c 2.464,-2.25334 6.784,-6.51111 9.6,-9.46172 8.03339,-8.41738 11.7982,-10.85792 18.56621,-12.03556 2.78084,-0.48386 5.09296,0.01 8.99051,1.91966 6.49463,3.18243 10.99065,8.26309 13.57241,15.33729 1.84375,5.05201 1.86115,12.15314 0.043,17.54289 -1.79499,5.32101 -3.38542,7.75765 -6.52913,10.00302 -1.01036,0.72164 -1.98206,1.58308 -2.15933,1.91431 -0.37754,0.70544 -4.73052,4.4298 -8.73463,7.47324 -4.59365,3.49156 -7.13378,4.56182 -16.7312,7.0496 l -4.13781,1.07257 0.10343,2.86628 c 0.10844,3.00492 -0.63474,7.10036 -1.91539,10.55525 -1.02104,2.75448 -3.81949,4.8264 -9.64314,7.1396 l -1.85511,0.73685 0.73511,0.78928 c 0.4043,0.4341 1.9969,1.94385 3.53911,3.35499 l 2.80401,2.56571 2.63599,-0.64893 c 6.35162,-1.56367 9.19599,-1.09291 9.19599,1.52196 0,1.14307 -1.47553,3.6545 -2.93136,4.98932 -2.14087,1.96293 -6.53738,5.31878 -10.00908,7.63992 -4.54744,3.04037 -5.59712,2.94205 -10.91885,-1.02279 -2.68217,-1.99829 -5.69337,-5.02753 -9.87129,-9.9304 l -2.53058,-2.96969 -1.46942,0.21564 c -2.97293,0.43627 -2.78088,-0.032 -2.51309,6.12826 0.12998,2.99017 0.3495,5.98139 0.48783,6.64717 0.23093,1.11148 0.38131,1.24835 1.83852,1.67325 3.04999,0.88933 4.29104,2.45542 3.22958,4.07541 -0.80167,1.22351 -2.09782,1.72148 -6.34821,2.43896 -2.15823,0.36431 -5.36405,1.01426 -7.12405,1.44434 -1.76,0.43008 -4.37413,0.86966 -5.80919,0.97685 -2.48324,0.18548 -2.64783,0.15624 -3.40973,-0.60566 z m 7.93892,-2.02722 c 1.936,-0.44619 5.40481,-1.14741 7.70846,-1.55826 4.07116,-0.72609 5.57154,-1.1999 5.57154,-1.75948 0,-0.41376 -1.95168,-1.25154 -3.48776,-1.49717 -0.96518,-0.15434 -1.44821,-0.41704 -1.64258,-0.89333 -0.36515,-0.89476 -0.94966,-8.10885 -0.94966,-11.72075 v -2.87397 l -4.24,-0.002 c -2.332,-9.6e-4 -5.608,-0.0924 -7.28,-0.20324 l -3.04,-0.20159 0.081,9.72325 c 0.0446,5.34779 0.1591,10.19125 0.2545,10.76325 0.16986,1.01838 0.20808,1.03994 1.83896,1.0371 0.91602,-0.002 3.2495,-0.36796 5.1855,-0.81415 z M 72.995664,225.2054 c 0.0909,-0.0954 -1.028826,-1.29642 -2.488269,-2.66899 l -2.653533,-2.4956 1.311808,-4.9096 c 2.282298,-8.54181 2.24376,-8.44611 3.352871,-8.32534 1.222512,0.13313 1.206723,0.10477 0.670179,1.20379 -0.25024,0.51257 -1.060941,3.28299 -1.801555,6.15648 l -1.346573,5.22454 2.235398,2.13546 c 1.229466,1.17451 2.346951,2.49546 2.483296,2.93546 0.136346,0.44 0.408493,0.9058 0.604772,1.0351 0.768403,0.50621 5.169449,0.15508 7.21415,-0.57557 0.322861,-0.11537 -0.04906,-0.6761 -1.265229,-1.90758 l -1.722509,-1.74417 0.373479,-3.28389 c 0.316105,-2.77945 1.331997,-7.03107 2.128288,-8.90713 0.165164,-0.38912 -0.09762,-0.5813 -1.158855,-0.84751 -0.754851,-0.18936 -6.532412,-1.66573 -12.83903,-3.28081 -6.306618,-1.61509 -11.636,-2.87151 -11.843072,-2.79205 -0.463366,0.17781 -2.96663,6.03302 -3.749168,8.7694 -0.953261,3.33339 -1.635478,7.99365 -1.400035,9.5637 0.177078,1.18084 0.424809,1.58252 1.377382,2.2333 1.640435,1.12073 5.742807,2.34883 8.972509,2.68605 2.711501,0.28311 11.222518,0.13194 11.543696,-0.20504 z m 174.443976,-7.98608 c 4.89049,-3.26119 9.93843,-7.48243 10.79132,-9.024 1.1308,-2.0439 0.81502,-2.427 -1.80019,-2.18394 -1.18553,0.11019 -3.23423,0.48717 -4.55268,0.83774 -1.31844,0.35058 -2.69112,0.6408 -3.05042,0.64494 -0.61998,0.007 -3.80937,-2.6951 -7.29519,-6.18092 l -1.54845,-1.54845 -6.29155,2.39012 c -3.46035,1.31456 -6.46548,2.44337 -6.67806,2.50845 -0.36626,0.11213 3.64495,4.99728 6.89564,8.39803 1.83189,1.91644 6.16172,5.20699 7.89087,5.99684 0.704,0.32158 1.568,0.50133 1.92,0.39945 0.352,-0.10188 2.02542,-1.10909 3.71871,-2.23826 z m -125.79871,-8.58868 c 2.552,-0.26174 9.248,-0.62207 14.88,-0.80074 5.632,-0.17868 10.816,-0.40132 11.52,-0.49477 4.89195,-0.64938 13.06416,-1.17354 22.4,-1.43671 5.984,-0.16869 13.4,-0.55027 16.48,-0.84796 4.21113,-0.40703 9.25073,-0.55423 20.32,-0.59356 10.46831,-0.0372 15.13593,-0.16548 16.16,-0.44418 0.792,-0.21554 2.0501,-0.52201 2.79577,-0.68105 1.30974,-0.27935 13.84853,-5.02451 19.1107,-7.23222 2.67723,-1.12321 5.29772,-2.90279 6.29929,-4.27786 0.32049,-0.44 1.01435,-2.51946 1.54191,-4.62103 0.8872,-3.53424 0.93309,-3.99059 0.61147,-6.08 -0.19125,-1.24243 -0.41328,-2.36777 -0.49342,-2.50075 -0.0801,-0.13297 -0.7487,0.10855 -1.4857,0.53672 -2.3883,1.3875 -9.56482,4.53992 -13.3839,5.87912 -7.02745,2.46426 -23.06861,6.15843 -34.19612,7.87514 -25.18131,3.88488 -40.34064,5.41298 -58.72,5.91914 -14.46309,0.39831 -23.41232,-0.023 -50.400001,-2.37274 -17.063252,-1.48564 -16.136452,-1.3503 -28.160001,-4.11222 -11.820774,-2.71535 -18.083347,-4.644 -21.720202,-6.68905 l -1.720204,-0.9673 0.131859,3.01482 c 0.09454,2.1616 0.287043,3.23637 0.680201,3.79768 0.301591,0.43058 0.548346,1.23354 0.548346,1.78435 0,1.80282 1.182307,3.04074 4.486173,4.69717 2.671472,1.33936 4.696403,1.9459 16.953827,5.07825 7.656,1.95648 15.063021,3.81904 16.460045,4.13904 8.797369,2.01512 26.760427,2.67579 38.899957,1.43071 z m 6.34809,-13.04905 c 0.0282,-1.1 -0.11517,-3.512 -0.31866,-5.36 l -0.36997,-3.36 -9.14973,-7.08362 c -8.57741,-6.64053 -9.15522,-7.03085 -9.23748,-6.24 -0.17466,1.67932 -0.41373,2.28362 -0.90341,2.28362 -0.27443,0 -4.83269,2.82211 -10.129451,6.27136 -5.29677,3.44925 -9.835785,6.35014 -10.086713,6.44643 -0.355184,0.1363 -0.431091,0.72861 -0.342729,2.67437 0.06243,1.37461 0.286387,2.67218 0.497696,2.88349 0.228528,0.22852 2.975113,0.61753 6.778696,0.96008 7.793611,0.70188 26.554711,2.15583 29.633661,2.29655 1.232,0.0563 2.54078,0.13058 2.90839,0.16505 0.60846,0.0571 0.67299,-0.11668 0.7197,-1.93733 z m 27.41191,1.52832 c 4.224,-0.25779 9.09824,-0.56468 10.83165,-0.68198 l 3.15166,-0.21327 -0.22241,-4.99653 c -0.20141,-4.5248 -0.28748,-5.06164 -0.91165,-5.68603 -0.37909,-0.37922 -4.64925,-3.74783 -9.48925,-7.48579 -7.92129,-6.11766 -8.80894,-6.71982 -8.88958,-6.0305 -0.1921,1.64205 -0.42193,2.20578 -0.8993,2.20578 -0.27318,0 -4.96835,2.90986 -10.43369,6.46636 l -9.937,6.46636 0.19869,2.25364 c 0.10928,1.2395 0.36807,3.58564 0.5751,5.21364 l 0.3764,2.96 8.98469,-0.002 c 4.94158,-9.6e-4 12.44069,-0.2124 16.66469,-0.47019 z m 32.22369,-3.2172 c 14.00753,-1.9331 22.31966,-3.19698 22.49001,-3.41965 0.0385,-0.0503 -0.0164,-1.24347 -0.12186,-2.65147 l -0.19184,-2.56 -9.12,-7.08971 c -5.016,-3.89934 -9.1434,-6.99534 -9.17201,-6.88 -0.0286,0.11534 -0.13935,0.60571 -0.2461,1.08971 -0.11849,0.53727 -0.40981,0.88553 -0.74799,0.89419 -0.30464,0.008 -5.00005,2.9238 -10.43424,6.48 l -9.88033,6.46581 0.0559,4.16 c 0.0706,5.24842 0.15366,5.6 1.3231,5.6 0.49995,0 7.72034,-0.93999 16.04531,-2.08888 z M 86.293862,191.90159 c -0.122243,-1.364 -0.297235,-2.79787 -0.388873,-3.18639 -0.176148,-0.74682 -17.792455,-14.63369 -18.316093,-14.43851 -0.154787,0.0577 -1.265315,1.3289 -2.467843,2.8249 -1.202528,1.496 -3.961955,4.54333 -6.132058,6.77183 l -3.945641,4.05184 1.698787,0.48802 c 9.069337,2.60543 23.760861,5.59189 29.176384,5.9309 0.553024,0.0346 0.581017,-0.14756 0.375337,-2.44259 z m 129.821978,-2.50688 c 11.13706,-2.3462 22.18856,-5.47504 26.92387,-7.62255 l 2.19879,-0.99716 -1.97991,-1.1167 c -2.17781,-1.22833 -5.0688,-3.08888 -7.53766,-4.85101 -4.07651,-2.90958 -3.18581,-3.16303 -14.33209,4.07822 -5.31735,3.45445 -9.86605,6.46954 -10.10822,6.70019 -0.60632,0.57749 -0.20303,4.63589 0.46069,4.63589 0.24718,0 2.21573,-0.3721 4.37453,-0.82688 z M 58.503878,182.75265 c 5.309738,-5.66985 6.953924,-7.61623 7.790759,-9.22266 0.576189,-1.10608 0.611702,-2.08667 0.63496,-17.53293 l 0.02464,-16.36132 -0.896653,-1.41441 c -0.493158,-0.77793 -1.040653,-1.37279 -1.216653,-1.32192 -0.591414,0.17096 -5.947837,6.35234 -7.507785,8.66408 -2.467959,3.65736 -4.808384,8.10872 -8.63786,16.42872 -3.980726,8.64861 -5.072329,12.12061 -5.35407,17.02938 -0.211293,3.68141 0.03905,4.12157 3.326154,5.84817 1.853068,0.97336 6.633888,2.81953 7.133558,2.75471 0.088,-0.0114 2.204326,-2.20373 4.70295,-4.87182 z m 38.800631,-1.77582 c 5.182971,-3.37832 9.610971,-6.29792 9.840001,-6.488 0.33251,-0.27597 0.41642,-3.83747 0.41642,-17.67539 v -17.32979 l -10.394891,-8.38933 c -5.717185,-4.61412 -10.515681,-8.42608 -10.663316,-8.47102 -0.147638,-0.0449 -4.361939,3.8365 -9.365113,8.62542 l -9.096682,8.70714 0.16,16.51083 0.16,16.51083 9.28,7.18804 c 5.104,3.95343 9.496,7.13531 9.76,7.07086 0.264,-0.0644 4.720611,-2.88127 9.903581,-6.25959 z m 40.976421,-1.59822 c 5.192,-3.37735 9.83213,-6.60332 10.31139,-7.16882 l 0.87139,-1.0282 0.009,-16.56792 0.009,-16.56792 -0.72305,-0.2749 c -0.39769,-0.1512 -5.38287,-4.03607 -11.07819,-8.63303 l -10.35513,-8.35813 -6.3951,6.16095 c -3.51731,3.38853 -7.64013,7.32727 -9.16182,8.75277 l -2.76671,2.59181 0.16,16.54615 0.16,16.54615 9.28,7.18804 c 5.104,3.95343 9.496,7.13531 9.76,7.07086 0.264,-0.0644 4.728,-2.88047 9.92,-6.25781 z m 41.58358,-0.96178 c 5.18297,-3.37832 9.61097,-6.29792 9.84,-6.488 0.33251,-0.27597 0.41642,-3.83747 0.41642,-17.67539 v -17.32979 l -10.42105,-8.41044 c -5.73158,-4.62574 -10.60916,-8.3657 -10.83907,-8.31103 -0.22991,0.0547 -4.43244,3.94488 -9.33895,8.64491 l -8.92093,8.54549 0.16,16.51247 0.16,16.51247 9.28,7.18804 c 5.104,3.95343 9.496,7.13531 9.76,7.07086 0.264,-0.0644 4.72061,-2.88127 9.90358,-6.25959 z m 40.96,-0.64 c 5.18297,-3.37832 9.61097,-6.29792 9.84,-6.488 0.33251,-0.27597 0.41642,-3.83747 0.41642,-17.67539 v -17.32979 l -10.39489,-8.38933 c -5.71718,-4.61412 -10.51568,-8.42608 -10.66331,-8.47102 -0.14764,-0.0449 -4.36194,3.8365 -9.36512,8.62542 l -9.09668,8.70714 0.16,16.51083 0.16,16.51083 9.28,7.18804 c 5.104,3.95343 9.496,7.13531 9.76,7.07086 0.264,-0.0645 4.72061,-2.88127 9.90358,-6.25959 z m 25.62345,1.96476 c 0.004,-0.132 0.65804,-0.672 1.4537,-1.2 0.79566,-0.528 2.03502,-1.73436 2.75413,-2.68079 1.19663,-1.57492 1.27903,-1.80551 0.97198,-2.72 -2.71527,-8.08674 -4.9308,-14.20725 -6.29093,-17.37896 -1.88014,-4.38433 -5.31689,-10.58604 -6.67302,-12.04165 -0.49341,-0.5296 -1.06941,-1.28957 -1.28,-1.68882 -0.35727,-0.67734 -5.10919,-6.61391 -5.15983,-6.44617 -0.0127,0.042 0.0153,8.1599 0.0622,18.03974 l 0.0852,17.96334 1.00323,0.41555 c 0.55177,0.22855 2.03602,1.15655 3.29832,2.06221 1.26231,0.90566 3.14851,2.15712 4.19155,2.781 1.04304,0.62389 2.61644,1.57437 3.49644,2.11218 1.68337,1.02879 2.0755,1.17579 2.08703,0.78237 z m 5.35095,-2.16777 c 1.06876,-0.65098 1.2195,-0.97719 0.77506,-1.67737 -0.18086,-0.28493 -0.57443,0.0366 -1.32642,1.08378 -1.12731,1.56975 -1.09984,1.59933 0.55136,0.59359 z m 9.31591,-3.01962 c 6.98018,-1.9082 8.86443,-2.64138 11.75773,-4.57505 4.17368,-2.78938 13.02303,-10.21011 15.06839,-12.63579 3.46543,-4.10979 5.89462,-12.37653 5.42648,-18.46679 -0.60649,-7.89029 -6.14495,-16.20656 -13.16649,-19.77015 -5.17443,-2.62614 -8.37324,-3.08818 -12.52629,-1.80931 -2.82756,0.87071 -3.78206,1.36068 -5.61112,2.88036 -0.82358,0.68427 -1.62298,1.24412 -1.77645,1.24412 -0.15347,0 -2.64764,2.53799 -5.54259,5.63997 -2.89495,3.10199 -7.53155,7.71944 -10.30355,10.261 -2.772,2.54156 -5.04,4.75112 -5.04,4.91013 0,0.15901 0.70675,1.37174 1.57055,2.69496 3.38363,5.18319 5.64101,10.16214 9.35805,20.64043 1.21482,3.42456 2.32064,6.30456 2.45738,6.4 0.4469,0.31192 1.65402,2.89789 1.65402,3.54336 0,0.34659 0.19512,0.63015 0.43361,0.63015 0.23848,0 3.04661,-0.71433 6.24028,-1.58739 z m 15.56611,-32.55052 c -1.1306,-0.23098 -2.09717,-1.20133 -2.17003,-2.17849 -0.0921,-1.23489 0.91258,-1.52677 1.34455,-0.39063 0.30358,0.79849 1.13954,1.17494 2.6263,1.18266 0.85297,0.004 1.41811,-0.47011 2.03614,-1.70976 0.44449,-0.89157 1.25524,-0.88124 1.38313,0.0176 0.30141,2.11842 -2.3284,3.66937 -5.22009,3.07859 z m 6.72742,-6.17389 c -0.53926,-0.59587 -0.54102,-0.67873 -0.0309,-1.4572 0.78062,-1.19139 1.45969,-1.34556 2.15337,-0.48891 0.74501,0.92005 0.73912,1.14895 -0.0498,1.93791 -0.8067,0.8067 -1.34802,0.80884 -2.07258,0.008 z m -11.62342,-1.0322 c -0.2112,-0.2112 -0.384,-0.7584 -0.384,-1.216 0,-1.67832 1.94698,-2.27322 2.61822,-0.8 0.747,1.63947 -1.01808,3.23215 -2.23422,2.016 z m -195.281762,-4.656 c 4.715408,-4.532 8.536285,-8.28415 8.490838,-8.33811 -0.122512,-0.14546 -4.029136,2.27964 -7.673078,4.76319 -3.223027,2.19668 -6.984499,5.13435 -9.895133,7.728 l -1.575133,1.40359 0.754058,1.34167 c 0.414733,0.73791 0.882515,1.34166 1.03952,1.34166 0.157002,0 4.14352,-3.708 8.858928,-8.24 z m 44.497762,-5.0493 4.96,-4.76298 0.20824,-2.57386 c 0.11453,-1.41562 0.22253,-4.19386 0.24,-6.17386 0.0374,-4.24391 0.56342,-3.95016 -5.29644,-2.95798 -9.79469,1.65842 -21.416371,5.52425 -30.927649,10.28775 l -3.775846,1.89105 6.815844,5.49712 c 3.74872,3.02342 8.541911,6.89797 10.651531,8.61011 l 3.83569,3.11299 4.16431,-4.08368 c 2.29038,-2.24603 6.39632,-6.22703 9.12432,-8.84666 z m 41.76,-1.1014 c 2.816,-2.69517 5.24812,-5.11901 5.40471,-5.38629 0.26476,-0.45191 0.13459,-4.54317 -0.32943,-10.35395 l -0.19571,-2.45095 -3.71088,-0.23186 c -2.04098,-0.12753 -5.51488,-0.13551 -7.71978,-0.0178 -4.10251,0.21912 -22.92658,1.63793 -26.44152,1.99295 l -1.95261,0.19721 -0.20609,4.04067 c -0.11335,2.22237 -0.1984,4.83267 -0.18899,5.80067 l 0.0171,1.76 10.56563,8.48 c 5.8111,4.664 10.71987,8.66412 10.90839,8.88916 0.26424,0.31543 1.3034,-0.53341 4.53597,-3.70519 2.30628,-2.26288 6.49722,-6.31948 9.31322,-9.01466 z m 36.73467,3.44125 c 10.13745,-9.7696 10.16281,-9.80956 7.03761,-11.08866 -16.55505,-6.77577 -25.94815,-9.53546 -34.58238,-10.1603 l -2.9701,-0.21494 0.20905,6.20668 c 0.14265,4.23527 0.33495,6.3413 0.6054,6.63054 0.4024,0.43034 20.7266,16.9571 20.90042,16.99532 0.0521,0.0115 4.01207,-3.75444 8.8,-8.36864 z m 29.67476,4.55992 c -3.45809,-3.836 -6.63005,-6.45292 -11.52943,-9.512 -4.45766,-2.78328 -5.66202,-3.46283 -5.12,-2.88891 0.87763,0.92928 18.38697,14.95044 18.6698,14.95044 0.1529,0 -0.75626,-1.14729 -2.02037,-2.54953 z"
       id="path296" />
  </g>
</svg>
