<?xml version="1.0" encoding="UTF-8" standalone="no"?>
<svg
   xmlns:dc="http://purl.org/dc/elements/1.1/"
   xmlns:cc="http://creativecommons.org/ns#"
   xmlns:rdf="http://www.w3.org/1999/02/22-rdf-syntax-ns#"
   xmlns:svg="http://www.w3.org/2000/svg"
   xmlns="http://www.w3.org/2000/svg"
   xmlns:sodipodi="http://sodipodi.sourceforge.net/DTD/sodipodi-0.dtd"
   xmlns:inkscape="http://www.inkscape.org/namespaces/inkscape"
   version="1.1"
   id="svg2973"
   width="896"
   height="900"
   viewBox="0 0 896 900"
   sodipodi:docname="koumori_move_2.svg"
   inkscape:version="1.0.1 (3bc2e813f5, 2020-09-07)">
  <metadata
     id="metadata2979">
    <rdf:RDF>
      <cc:Work
         rdf:about="">
        <dc:format>image/svg+xml</dc:format>
        <dc:type
           rdf:resource="http://purl.org/dc/dcmitype/StillImage" />
        <dc:title></dc:title>
      </cc:Work>
    </rdf:RDF>
  </metadata>
  <defs
     id="defs2977" />
  <sodipodi:namedview
     pagecolor="#ffffff"
     bordercolor="#666666"
     borderopacity="1"
     objecttolerance="10"
     gridtolerance="10"
     guidetolerance="10"
     inkscape:pageopacity="0"
     inkscape:pageshadow="2"
     inkscape:window-width="1280"
     inkscape:window-height="971"
     id="namedview2975"
     showgrid="false"
     inkscape:zoom="0.6125"
     inkscape:cx="517.14964"
     inkscape:cy="265.06864"
     inkscape:window-x="-8"
     inkscape:window-y="-8"
     inkscape:window-maximized="1"
     inkscape:current-layer="layer24" />
  <g
     inkscape:groupmode="layer"
     id="layer19"
     inkscape:label="Image 1"
     style="display:inline">
    <path
       style="fill:#4d4d4d;fill-opacity:1;stroke:#ababab;stroke-width:0.982677;stroke-opacity:0;paint-order:stroke fill markers"
       id="path3714"
       d="m 425.83057,426.72549 c -0.20259,1.26055 -0.60826,2.47267 -0.92614,3.70619 -0.33711,1.14102 -0.84706,2.22681 -1.28652,3.33291 -0.48128,1.04858 -1.07612,2.03484 -1.49509,3.11215 -0.43358,0.95232 -0.69928,1.96391 -1.04645,2.9479 -0.42198,1.4071 0.10361,-0.16013 -0.24024,0.54022 -0.0684,0.13922 -0.0963,0.29587 -0.16383,0.43547 -0.17979,0.37153 -0.44792,0.72574 -0.64518,1.09134 -0.31195,0.47024 -0.54546,0.98068 -0.77843,1.49241 0,0 3.55563,0.84044 3.55563,0.84044 v 0 c 0.246,-0.45965 0.51048,-0.90721 0.76517,-1.36203 0.45688,-0.80456 0.90645,-1.61948 1.15358,-2.51765 0.30696,-0.93701 0.57213,-1.88729 0.99973,-2.78033 0.47771,-1.05346 1.05776,-2.05865 1.47808,-3.13842 0.4987,-1.20333 1.02823,-2.4041 1.33159,-3.6753 0.31214,-1.21473 0.66727,-2.41861 0.98775,-3.63091 0,0 -3.68965,-0.39439 -3.68965,-0.39439 z" />
    <path
       style="fill:#4d4d4d;fill-opacity:1;stroke:#ababab;stroke-width:0.982677;stroke-opacity:0;paint-order:stroke fill markers"
       id="path3718"
       d="m 404.77987,483.43903 c -1.03356,1.44348 -1.76586,3.0661 -2.5851,4.63243 -0.55131,0.99384 -0.93059,2.04759 -1.085,3.17164 -0.072,0.99857 -0.0261,2.00102 -0.0201,3.0011 -0.004,1.07941 0.012,2.15865 0.008,3.23806 -0.0476,1.66752 -0.47844,0.99129 3.68108,0.78172 0.16163,-0.008 0.12615,-0.29815 0.19426,-0.44496 0.30115,-0.64906 0.20589,-0.45617 0.60842,-1.05538 0.83423,-1.24295 1.37302,-2.63962 2.03239,-3.9717 0.43449,-0.93766 0.5331,-1.96386 0.59831,-2.98154 0.0374,-0.68214 0.0107,-1.36553 0.036,-2.04796 -2.09784,-2.2261 -1.114,-2.28109 -3.80749,0.149 -0.16898,0.15245 -0.46942,1.70032 -0.52814,1.9582 -0.42561,1.72299 -0.75892,3.46996 -1.05634,5.21948 -0.1093,0.63498 -0.18422,1.27464 -0.25257,1.915 0,0 3.66533,-0.0755 3.66533,-0.0755 v 0 c 0.0534,-0.58288 0.11217,-1.16536 0.2049,-1.74364 0.27748,-1.69089 0.5929,-3.38025 1.08198,-5.02452 0.11888,-0.4502 0.24232,-0.88319 0.40798,-1.31806 0.0475,-0.12466 0.26512,-0.43178 0.14545,-0.37283 -2.95417,1.4553 -1.31822,2.19022 -3.56738,-0.3426 0.0378,0.61148 0.0138,1.22537 -0.0135,1.83677 -0.0552,0.71565 -0.16651,1.41031 -0.49832,2.05775 -0.53256,1.26939 -1.13913,2.50067 -1.91237,3.64457 -0.24064,0.40393 -0.46528,0.81728 -0.70697,1.22059 -0.0626,0.10447 -0.32241,0.27572 -0.20378,0.30329 4.03907,0.93878 3.59113,1.57894 3.54035,-0.0459 -0.008,-1.08163 0.001,-2.16327 -0.0172,-3.24483 -0.003,-0.86333 -0.0193,-1.73249 0.0764,-2.59154 0.15383,-0.83935 0.52158,-1.61163 0.89583,-2.37317 0.73804,-1.51007 1.51635,-3.00253 2.59309,-4.30563 0,0 -3.51516,-1.18981 -3.51516,-1.18981 z" />
    <path
       style="fill:#4d4d4d;fill-opacity:1;stroke:#ababab;stroke-width:0.982677;stroke-opacity:0;paint-order:stroke fill markers"
       id="path3720"
       d="m 395.83605,526.23705 c -0.0146,0.0912 -0.0168,0.18528 -0.0438,0.27361 -0.0332,0.10851 -0.19452,0.37336 -0.25116,0.49164 -0.13919,0.29065 -0.14657,0.38332 -0.2406,0.71929 -0.17197,0.52063 -0.15432,1.0759 -0.24414,1.60892 -0.0217,0.12867 -0.0825,0.24772 -0.11699,0.37355 -0.19407,0.61241 -0.34174,1.24075 -0.47836,1.87386 -0.15808,1.00784 -0.29243,2.02042 -0.40991,3.03395 -0.23163,1.26061 -0.43033,2.5244 -0.59086,3.79613 -0.20358,1.47824 -0.32541,2.96498 -0.48698,4.44787 -0.11098,1.30594 -0.30206,2.60287 -0.39864,3.91018 -0.18199,1.36209 -0.43099,2.71477 -0.65384,4.071 -0.16207,1.26275 -0.29227,2.52588 -0.46978,3.78691 -0.0197,0.15534 -0.0394,0.31069 -0.0591,0.46604 0,0 3.67703,-0.0235 3.67703,-0.0235 v 0 c 0.0164,-0.14612 0.0329,-0.29224 0.0493,-0.43835 0.1484,-1.23172 0.25375,-2.46836 0.43793,-3.69533 0.24143,-1.42318 0.4953,-2.84696 0.65715,-4.28141 0.12249,-1.2829 0.29057,-2.56073 0.39927,-3.84504 0.16044,-1.45559 0.24508,-2.91892 0.46601,-4.36767 0.2007,-1.28326 0.43579,-2.55966 0.6361,-3.84283 0.11967,-0.9186 0.23267,-1.84121 0.41967,-2.74854 0.16311,-0.62882 0.35298,-1.24815 0.50351,-1.87982 0.11792,-0.58193 0.13053,-1.18458 0.32665,-1.74936 0.2364,-0.54396 0.46573,-1.08902 0.58738,-1.6726 0,0 -3.71581,-0.30848 -3.71581,-0.30848 z" />
    <path
       style="fill:#4d4d4d;fill-opacity:1;stroke:#ababab;stroke-width:0.200546;stroke-opacity:0;paint-order:stroke fill markers"
       d="m 228.52643,436.27869 c -2.6774,0.59147 -4.88704,2.43168 -7.25248,3.73725 -22.47381,14.17041 -43.18228,31.01401 -65.70158,45.06162 -14.67898,9.39366 -29.64764,18.37999 -44.09143,28.15535 -1.26883,0.72283 -2.45236,1.87239 -2.09673,3.46909 0.0753,3.49487 -0.14897,7.03108 0.11056,10.50053 0.52393,2.02927 3.0664,1.3227 4.63473,1.5658 11.24914,0.75458 22.57182,1.51525 33.58658,3.84167 7.91864,1.63098 15.44255,4.92141 22.10844,9.48356 1.81916,1.01785 3.93124,3.01694 6.13653,1.91393 2.17265,-1.52692 2.05357,-4.53218 2.16328,-6.90968 0.097,-10.4602 3.47772,-20.41693 7.53299,-29.92268 8.04561,-18.23341 19.1736,-34.83968 31.11641,-50.72378 4.1851,-5.57858 8.63858,-10.98728 13.12307,-16.34892 1.12295,-1.10344 1.06272,-3.3877 -0.70751,-3.76873 -0.217,-0.0499 -0.44089,-0.0629 -0.66286,-0.055 z"
       id="path3734" />
    <path
       style="fill:#4d4d4d;fill-opacity:1;stroke:#ababab;stroke-width:0.200546;stroke-opacity:0;paint-order:stroke fill markers"
       d="m 239.19965,439.39931 c -1.97852,0.26256 -2.87237,2.39386 -4.12799,3.69391 -9.33462,11.99433 -17.8849,24.57766 -26.3278,37.20843 -6.8593,10.555 -13.89774,21.11413 -18.92374,32.70034 -3.38631,7.60988 -4.24127,15.99461 -5.01177,24.19628 0.0199,1.84491 -0.62511,3.97253 0.45636,5.6202 1.13676,1.34841 3.12079,0.45413 3.79225,-0.90521 3.70073,-5.95459 8.01445,-11.53027 13.00056,-16.46815 3.40988,-3.64798 7.5288,-6.57583 12.06686,-8.65084 9.06267,-4.5632 18.93573,-7.8055 29.1298,-8.25593 6.40043,-0.34981 13.01468,-0.22489 19.46135,-0.77173 1.66503,-0.25586 1.85903,-2.41471 0.75279,-3.44285 -6.3146,-9.45288 -13.47106,-18.29861 -18.27658,-28.63196 -2.40595,-5.37109 -3.76676,-11.23128 -3.66332,-17.1315 -0.17935,-5.86036 0.0713,-11.81777 -0.40514,-17.69137 -0.23024,-0.8438 -1.03039,-1.50273 -1.92363,-1.46962 z"
       id="path3736" />
    <path
       style="fill:#4d4d4d;fill-opacity:1;stroke:#ababab;stroke-width:0.401093;stroke-opacity:0;paint-order:stroke fill markers"
       d="m 108.35449,516.06991 c -4.13516,2.80091 -7.35573,6.8541 -11.005168,10.26558 -1.48506,2.0165 -4.46676,3.47271 -4.58156,6.17813 0.48743,2.74487 3.77339,1.68794 5.01116,0.12915 3.641088,-2.42242 8.028038,-3.34955 12.169598,-4.37781 2.12762,-1.47446 0.73112,-4.73332 1.11324,-6.98141 -0.14994,-1.88283 0.33979,-5.68053 -2.70727,-5.21364 z"
       id="path3738" />
    <path
       style="fill:#4d4d4d;fill-opacity:1;stroke:#ababab;stroke-width:0.401093;stroke-opacity:0;paint-order:stroke fill markers"
       d="m 262.6721,425.40903 c -3.54102,-0.27904 -7.83241,1.55205 -8.10667,5.55724 -0.67335,7.19183 -0.48897,14.47156 -0.11081,21.67889 2.23329,17.5843 11.2539,33.55497 22.74394,46.77216 4.42193,5.09119 8.38574,10.66308 13.25176,15.32924 2.91642,1.15382 4.75286,-2.48663 6.80403,-3.88495 8.61498,-8.94829 21.72195,-11.71785 33.7269,-10.91495 10.32037,1.15356 20.61377,3.54544 30.18654,7.1588 8.91844,4.55162 14.96211,12.99903 19.65641,21.57685 4.07719,6.85106 7.49106,14.2001 9.25622,21.92682 0.83391,2.1688 4.04596,0.99941 3.75319,-1.16231 1.04904,-7.36814 1.36777,-14.92195 3.46859,-22.09104 2.28394,-3.99333 2.91973,-8.77382 4.34151,-13.13138 1.12823,-5.0377 3.06053,-10.02148 3.25575,-15.20568 0.1587,-1.82879 -2.61896,-1.62771 -1.99299,-3.36176 -0.26489,-3.26605 0.19622,-6.54342 2.09024,-9.29767 0.45142,-1.74364 2.96147,-1.07642 3.33227,-3.00782 1.8244,-5.61939 1.16017,-12.02881 4.80812,-17.00812 3.63754,-7.08286 6.66473,-14.47331 10.45097,-21.46684 0.58273,-1.32143 -0.67648,-2.62768 -1.87181,-2.74634 1.64374,-4.27696 4.25872,-8.32433 5.04544,-12.86352 -0.54295,-3.06284 -4.09229,-1.28965 -5.96826,-0.76807 -18.84444,5.43883 -37.5481,11.75556 -56.49753,16.60371 -7.45869,1.89547 -15.45078,1.82592 -23.1316,1.56688 -10.76451,-3.61128 -21.89958,-5.8193 -32.94651,-8.34097 -13.28791,-3.32039 -26.05094,-7.69448 -38.90747,-12.1993 -2.17303,-0.5018 -4.40912,-0.7303 -6.63823,-0.71987 z"
       id="path3740" />
    <path
       style="fill:#4d4d4d;fill-opacity:1;stroke:#ababab;stroke-width:0.401093;stroke-opacity:0;paint-order:stroke fill markers"
       d="m 420.94335,410.72472 c -19.19999,2.4922 -38.77383,1.52392 -58.14094,3.24219 -16.09424,1.79742 -32.13347,3.70276 -48.291,4.15435 -7.90531,0.5259 -15.92431,0.11691 -23.77932,1.28092 -2.5407,0.59989 -1.94062,3.93721 0.16502,4.6867 11.76982,6.93665 25.0685,10.69113 38.09325,14.50569 7.80024,2.22079 15.86221,4.01291 24.02436,3.18524 15.74578,-1.16624 30.75182,-6.65412 45.56895,-11.74234 9.0544,-3.31156 18.24835,-6.43849 27.15272,-10.03615 1.63764,-1.51786 0.74024,-4.2557 0.73231,-6.30785 -0.49806,-2.43771 -3.42785,-3.02431 -5.52535,-2.96875 z"
       id="path3742" />
    <path
       style="fill:#4d4d4d;fill-opacity:1;stroke:#ababab;stroke-width:0.017726;stroke-opacity:0;paint-order:stroke fill markers"
       d="m 392.42815,553.27639 c -0.71023,0.0739 -1.34827,0.60109 -1.54172,1.29024 -0.18858,0.59839 -0.0208,1.27415 0.38711,1.74398 0.36891,0.44074 0.85193,0.81612 1.42832,0.92484 0.76552,0.15943 1.59256,-0.15635 2.07997,-0.76296 0.39449,-0.45069 0.65345,-1.05901 0.54824,-1.66446 -0.10247,-0.73935 -0.70893,-1.37104 -1.44277,-1.50626 -0.40878,-0.0696 -0.82657,-0.0227 -1.23931,-0.0364 -0.0733,0.001 -0.14657,0.008 -0.21984,0.0111 z"
       id="path3744" />
    <path
       style="fill:#4d4d4d;fill-opacity:1;stroke:#ababab;stroke-width:0.017726;stroke-opacity:0;paint-order:stroke fill markers"
       d="m 391.38023,549.95731 c -0.71023,0.0739 -1.34827,0.6011 -1.54172,1.29024 -0.16377,0.50778 -0.0169,1.03879 0.0492,1.55018 0.10056,0.68721 0.61782,1.29512 1.28945,1.48317 0.70239,0.21933 1.52031,-0.0472 1.96038,-0.63681 0.28783,-0.35538 0.38049,-0.81644 0.42008,-1.26094 0.0537,-0.38234 0.1073,-0.77968 -0.0196,-1.15432 -0.20765,-0.69706 -0.86795,-1.22817 -1.59475,-1.27469 -0.187,-0.0155 -0.37597,-0.008 -0.56309,0.003 z"
       id="path3746" />
    <path
       style="fill:#4d4d4d;fill-opacity:1;stroke:#ababab;stroke-width:0.982677;stroke-opacity:0;paint-order:stroke fill markers"
       id="path3748"
       d="m 546.22138,428.64142 c 0.76744,1.36012 1.75278,2.58189 2.65709,3.85189 0.45007,0.65573 0.95238,1.29783 1.21677,2.05821 0.10768,0.30968 0.12514,0.47357 0.18408,0.79434 0.1121,0.84604 0.0912,1.70149 0.0871,2.5527 -0.009,0.67024 -0.0262,1.34025 -0.0273,2.01057 -0.0117,0.56284 -0.0248,1.11866 0.0709,1.67469 -0.01,0.17881 -0.0559,-0.0974 -0.0484,-0.14917 0.0284,-0.1981 -0.0138,-0.4674 0.15091,-0.58111 0.39551,-0.2731 0.89789,-0.35105 1.36471,-0.46544 0.0523,-0.0128 0.0948,0.0567 0.12683,0.0999 0.0106,0.0144 -0.0358,-6.5e-4 -0.0537,-9.8e-4 -0.37984,-0.2218 -0.65198,-0.49619 -0.78363,-0.91415 -0.0971,-0.57581 -0.0905,-1.16393 -0.0923,-1.74614 -0.005,-0.88955 0.0209,-1.77908 -0.0293,-2.66748 -0.0679,-0.96402 -0.19454,-1.92468 -0.37472,-2.87406 -0.0892,-0.71066 -0.34349,-1.37561 -0.57879,-2.04621 -0.10587,-0.34521 -0.0471,-0.16555 -0.17814,-0.53832 0,0 -2.46218,0.85963 -2.46218,0.85963 v 0 c 0.12045,0.32633 0.0583,0.14906 0.18343,0.53285 0.21199,0.58434 0.43044,1.16377 0.51238,1.78489 0.17978,0.8569 0.297,1.727 0.34512,2.60159 0.0318,0.86414 -0.002,1.72881 0.004,2.59339 0.007,0.78394 -0.004,1.57735 0.20192,2.34087 0.28301,0.78213 0.71671,1.44066 1.41079,1.92164 0.1597,0.12132 0.68104,0.56022 0.90136,0.53602 1.46758,-0.16118 2.13767,-0.45572 1.96112,-1.84267 -0.0786,-0.44401 -0.0241,-0.89798 -0.0394,-1.34673 0.006,-0.67019 0.005,-1.34038 0.006,-2.0106 0.004,-0.97468 10e-4,-1.9544 -0.1559,-2.91914 -0.1023,-0.47485 -0.13,-0.68401 -0.3032,-1.14727 -0.32972,-0.8819 -0.8894,-1.63973 -1.44256,-2.39121 -0.85826,-1.17242 -1.79926,-2.32297 -2.41775,-3.64408 0,0 -2.39758,1.07154 -2.39758,1.07154 z" />
    <path
       style="fill:#4d4d4d;fill-opacity:1;stroke:#ababab;stroke-width:0.982677;stroke-opacity:0;paint-order:stroke fill markers"
       id="path3750"
       d="m 560.96415,461.3645 c 0.53064,0.85298 0.97985,1.74469 1.39175,2.65924 0.27111,0.65139 0.55485,1.29738 0.72633,1.98333 0.10229,0.64154 0.12855,1.29202 0.19337,1.93862 0.14297,0.95534 0.32813,1.90164 0.43293,2.8624 0.0664,1.04528 0.16788,2.08781 0.24008,3.13277 0,0 2.55211,-0.38229 2.55211,-0.38229 v 0 c -0.0989,-1.06137 -0.19545,-2.12258 -0.26243,-3.18652 -0.10974,-0.94823 -0.27391,-1.88695 -0.40982,-2.83146 -0.065,-0.7487 -0.0721,-1.50716 -0.24435,-2.2419 -0.2179,-0.78201 -0.52195,-1.53346 -0.85478,-2.27328 -0.45084,-0.95334 -0.94245,-1.88275 -1.41656,-2.82366 0,0 -2.34863,1.16275 -2.34863,1.16275 z" />
    <path
       style="fill:#4d4d4d;fill-opacity:1;stroke:#ababab;stroke-width:0.982677;stroke-opacity:0;paint-order:stroke fill markers"
       id="path3752"
       d="m 563.18476,492.96758 c 0.0439,1.13392 0.0372,2.2692 0.0379,3.40378 -5.8e-4,1.12897 -0.0116,2.2579 -0.0125,3.38687 0.0161,1.0603 -0.0953,2.11647 -0.20711,3.16916 -0.19321,1.13658 -0.26238,2.28748 -0.37915,3.43283 -0.0783,0.99378 -0.30672,1.966 -0.45836,2.94907 -0.0877,0.79936 -0.24718,1.58765 -0.39713,2.37665 -0.0748,0.48668 -0.0295,0.25798 -0.12999,0.68724 0,0 2.59155,0.14149 2.59155,0.14149 v 0 c 0.0927,-0.49455 0.0497,-0.25532 0.12991,-0.71757 0.15474,-0.80631 0.27047,-1.61907 0.38067,-2.43258 0.16871,-1.01604 0.36544,-2.02901 0.44309,-3.05775 0.11043,-1.14196 0.19546,-2.28622 0.38106,-3.41981 0.11918,-1.1167 0.21078,-2.23863 0.20489,-3.36256 -9.5e-4,-1.1282 -0.0119,-2.25637 -0.0125,-3.38458 6.9e-4,-1.13689 -0.006,-2.27446 0.0379,-3.41069 0,0 -2.61008,0.23845 -2.61008,0.23845 z" />
    <path
       style="fill:#4d4d4d;fill-opacity:1;stroke:#ababab;stroke-width:0.567231;stroke-opacity:0;paint-order:stroke fill markers"
       d="m 563.23491,458.76078 c -2.5874,2.27671 1.08103,5.43942 0.88163,8.21538 0.73491,2.95928 0.49225,5.87338 -0.34612,8.72384 -0.34438,5.86606 -1.22389,11.92817 -0.14092,17.72953 0.56632,6.07484 0.47579,12.58792 -1.24127,18.53675 -3.25019,5.66272 -5.09232,12.09053 -7.95721,17.98094 -2.63108,6.25194 -4.5266,12.82728 -8.09362,18.63596 -1.00999,2.6149 2.50818,3.53544 4.21423,2.13643 10.18994,-4.62303 21.68698,-4.63976 32.66075,-4.79486 22.07376,0.48564 44.40842,7.18586 61.64082,21.37669 2.89473,2.40375 5.18658,5.60344 5.47467,9.40592 1.34364,2.80976 4.70699,0.92512 5.63475,-1.23451 7.10554,-9.78469 13.88061,-20.04944 17.38382,-31.74355 6.58511,-18.82882 13.4326,-37.61995 18.70208,-56.86464 1.08011,-2.56057 -1.35928,-4.6375 -3.86246,-3.945 -31.41576,0.0397 -62.91961,1.91109 -94.27792,0.32153 -5.77164,-0.0716 -11.01921,-3.15398 -14.34144,-7.79706 -4.95587,-5.53291 -8.94516,-12.169 -14.79402,-16.77918 -0.52266,-0.25556 -1.02724,-0.0201 -1.53777,0.0958 z m 1.1725,35.43651 c -0.15861,0.0171 -0.53627,-0.49457 0,0 z"
       id="path3754" />
    <path
       style="fill:#4d4d4d;fill-opacity:1;stroke:#ababab;stroke-width:0.567231;stroke-opacity:0;paint-order:stroke fill markers"
       d="m 549.46143,428.90942 c -1.57513,2.71872 2.46385,4.87777 1.76777,7.8749 -0.15655,2.84497 -0.4921,6.73957 3.41758,6.8834 3.48358,1.72525 7.4929,1.65754 11.00866,3.00392 6.40512,3.83045 9.19343,11.00842 13.38001,16.77913 6.10755,6.67703 13.50686,14.31009 23.28823,14.03365 18.56259,0.30673 37.19256,-0.16513 55.66376,-2.08995 2.61459,0.42365 5.36032,-2.92656 2.35853,-4.51186 -13.3141,-5.45981 -27.44403,-8.89682 -40.35556,-14.97617 -16.2708,-7.25601 -32.26664,-15.25387 -47.19739,-25.00378 -6.76004,-3.54738 -14.74475,-1.75625 -22.03846,-2.4893 -0.43104,0.16535 -0.86208,0.3307 -1.29313,0.49606 z"
       id="path3756" />
    <path
       style="fill:#4d4d4d;fill-opacity:1;stroke:#ababab;stroke-width:0.567231;stroke-opacity:0;paint-order:stroke fill markers"
       d="m 704.90091,484.59295 c -3.09572,2.39014 -3.83032,6.87377 -5.77331,10.16353 -10.67601,22.16991 -11.5359,47.8743 -24.25281,69.21201 -2.27345,4.73467 -5.75231,8.99123 -7.35403,13.99592 1.02876,3.61671 5.33571,0.69421 7.72359,0.37411 6.10614,-2.18341 12.85897,-3.65441 19.14015,-1.21966 15.32765,3.90134 29.07507,13.17023 39.11072,25.40714 8.73431,9.97366 15.87436,21.22821 21.42064,33.26063 3.81363,3.16712 3.80266,-3.51831 3.6075,-5.95576 0.25609,-22.46594 -6.0167,-44.4055 -12.90579,-65.58904 -9.29639,-27.90677 -22.58791,-54.39125 -38.6569,-78.98935 -0.48951,-0.68597 -1.28852,-0.73071 -2.05976,-0.65953 z"
       id="path3758" />
    <path
       style="fill:#4d4d4d;fill-opacity:1;stroke:#ababab;stroke-width:0.567231;stroke-opacity:0;paint-order:stroke fill markers"
       d="m 724.58648,486.97402 c -3.62679,1.31087 -0.29406,5.16803 0.87021,7.18339 11.39977,19.79268 19.83418,41.07045 26.83144,62.78138 5.63294,19.18727 10.99267,38.677 14.41299,58.31883 0.83998,9.30796 0.99183,18.92519 0.0536,28.31936 1.33381,3.39759 4.70891,0.008 6.32811,-1.28073 6.84191,-5.28136 13.98599,-11.21213 22.67432,-12.88621 4.78697,0.0414 10.11376,-1.31944 13.9617,2.2796 2.49768,1.12344 4.90405,3.87018 7.80506,3.24467 2.44996,-2.39594 -0.63877,-5.89892 -1.0252,-8.63086 -11.09886,-30.34331 -20.85738,-61.50132 -37.05002,-89.63797 -9.19687,-15.66124 -20.20362,-31.30243 -36.51147,-40.20662 -5.89131,-3.30048 -11.52698,-7.45917 -17.99672,-9.4995 z"
       id="path3760" />
    <path
       style="fill:#4d4d4d;fill-opacity:1;stroke:#ababab;stroke-width:0.0501366;stroke-opacity:0;paint-order:stroke fill markers"
       d="m 562.04191,456.90404 c -1.12448,0.002 -2.10697,0.94907 -2.20942,2.05875 -0.0982,0.92419 0.15264,1.86959 0.56188,2.69351 0.48202,0.89705 1.70906,1.22049 2.58663,0.71848 0.71281,-0.32133 1.13014,-1.08099 1.15912,-1.84152 0.2322,-0.48472 0.65509,-0.9116 0.62536,-1.48816 0.0647,-0.87636 -0.60815,-1.63876 -1.41946,-1.88267 -0.41266,-0.16821 -0.85626,-0.27447 -1.30411,-0.25839 z"
       id="path3762" />
  </g>
  <g
     inkscape:groupmode="layer"
     id="layer20"
     inkscape:label="Image 2"
     style="display:inline">
    <path
       style="fill:#808080;fill-opacity:1;stroke:#ababab;stroke-width:0.802185;stroke-opacity:0;paint-order:stroke fill markers"
       d="m 450.37115,287.90915 c -6.94421,1.2551 -9.40892,9.26404 -12.36767,14.7465 -3.35837,8.3379 -6.61237,17.0048 -13.50903,23.1674 -10.03242,9.94842 -16.4716,23.90957 -15.08606,38.2132 -0.36072,14.58753 5.14597,28.44775 11.51282,41.26767 1.94078,4.06613 5.57894,7.70782 6.60395,11.92921 -11.09164,6.45332 -23.85797,9.40098 -35.77627,13.9518 -15.45891,5.23449 -31.48045,9.98907 -47.89381,9.75223 -22.85692,-3.60873 -44.17609,-13.39704 -65.54388,-21.98049 -5.27449,-2.03318 -11.97119,-2.05951 -14.93303,-7.76786 -4.81384,-6.18445 -13.82057,-9.92036 -21.45728,-7.66263 -3.43603,3.17167 2.48064,6.28894 3.19037,9.40849 0.53761,1.77239 3.14368,4.78763 1.82877,6.30739 -9.7065,0.9015 -17.24042,8.26918 -25.33513,13.00254 -32.71219,22.23858 -63.93081,47.01529 -99.48085,64.7382 -24.810888,12.71119 -45.289658,34.09898 -55.344486,60.26239 -1.010196,3.82295 -4.329334,8.29571 -2.306053,12.18979 4.066307,2.1668 5.657793,-4.44017 7.720937,-6.67381 12.763234,-21.77979 28.442172,-42.52626 50.605482,-55.529 28.69041,-17.35216 56.56594,-35.99455 83.7764,-55.57317 8.2091,-5.69643 16.54366,-11.14858 25.24572,-16.09041 -20.05486,24.34626 -40.03151,50.01794 -50.73502,80.08132 -3.64925,12.77563 -5.88085,26.89527 -1.65976,39.78476 2.61905,3.35167 5.13879,-1.56581 4.83508,-4.13942 1.60525,-15.25821 2.12994,-31.05136 10.16182,-44.64529 13.6245,-24.10911 29.80789,-46.94926 46.67435,-68.97214 2.51391,-3.47291 -0.19296,3.84934 -0.0386,5.79256 -1.19081,14.18673 0.17056,29.34768 8.67029,41.28348 8.2904,12.35861 16.77984,24.90336 27.68335,35.11639 4.55404,2.67806 9.33279,6.71179 14.80389,6.59598 3.97913,-2.23883 -0.0674,-7.23408 -1.59917,-9.84853 -12.13557,-17.45498 -28.22727,-32.95427 -33.97641,-54.0625 -3.09616,-10.05508 -2.44812,-20.66594 -1.60554,-30.99969 1.71756,-6.30671 10.13158,-5.5936 14.99086,-3.98445 19.20535,5.85359 38.40724,12.32438 58.04964,16.2756 10.26177,2.72305 21.03986,6.27704 31.69962,3.1234 22.87947,-4.56221 44.57539,-13.64864 67.01849,-19.5153 3.2313,-1.13251 -0.53607,3.06636 -0.49905,4.76084 -1.67354,6.95407 -3.55338,13.85693 -7.05091,20.19142 -8.00553,15.77534 -12.70006,32.92975 -15.32009,50.36803 -3.48376,15.99782 -9.21643,32.13021 -9.32702,48.7454 1.74844,3.41187 -2.47167,7.07566 -3.26356,10.6086 -6.36946,14.64995 -14.65204,28.73485 -18.53013,44.31167 -0.6188,3.89566 4.40445,3.40367 5.72705,0.69515 1.917,-3.11368 3.55643,-0.98716 3.24298,1.74746 -0.49337,3.22931 3.55203,5.3071 5.1977,2.06632 9.62491,-11.45472 15.85461,-25.36357 25.54688,-36.62947 2.88317,-2.98878 7.18387,1.11653 10.60108,1.05231 17.52343,2.72578 35.31027,5.68631 53.09631,4.55516 8.29132,-0.47258 17.91636,-3.125 24.92665,-4.74012 -11.57202,17.38634 -25.76634,32.93014 -37.1588,50.4002 -0.39814,3.52827 3.93727,2.4268 5.50224,4.33513 1.66759,0.79741 4.93844,-2.62081 4.02902,0.74299 -1.47428,2.88572 1.76485,5.92761 4.22352,3.44068 21.86634,-15.86037 40.3047,-36.24226 53.76914,-59.67155 12.6285,-21.84709 24.86084,-44.28864 32.4139,-68.45982 2.13684,-7.45465 -1.54398,-14.87709 -0.20641,-22.31314 -0.0531,-6.09184 1.55675,-12.47876 0.0836,-18.441 -2.27118,-2.80266 -4.44057,-6.85982 -5.04783,-10.00638 6.56027,1.03363 9.73627,8.2397 13.43347,13.0448 5.8855,9.90687 17.19444,17.10079 28.95324,15.45775 29.27515,0.20277 58.61919,-1.01655 87.79824,0.42124 3.64434,-0.46417 3.73585,1.8145 2.29751,4.47225 -7.22972,22.90658 -14.83297,45.74887 -22.85613,68.34936 -7.0461,11.51514 -15.15177,22.41455 -22.1614,33.9067 -0.86496,3.5129 3.77298,3.00536 5.13392,0.92634 15.21998,-11.65103 25.40116,-28.84061 32.19547,-46.49553 6.5371,-20.13976 10.37103,-41.38667 20.94548,-59.95217 1.33722,-1.41137 2.74121,2.32261 3.78029,3.14413 20.30944,31.19794 35.3071,65.74236 43.82959,101.89418 5.40329,18.66216 5.64196,38.12648 7.97207,57.25442 -0.37456,3.42963 4.64057,5.63118 5.59152,1.62946 4.94606,-19.76911 1.74532,-40.4199 -3.46492,-59.78707 -9.01364,-36.87855 -21.70097,-73.35426 -42.65115,-105.27192 17.00923,10.03729 36.28434,17.96986 47.86033,34.85969 21.45075,29.26714 32.26562,64.60056 44.84624,98.30435 5.04012,12.70329 8.04961,26.42435 15.04853,38.24221 2.32099,3.26113 6.19674,-0.33031 5.4257,-3.48055 -1.45439,-14.85308 -7.31804,-28.90458 -11.8176,-43.0373 -11.09979,-32.30949 -26.14418,-63.17404 -43.28604,-92.67539 -10.19069,-15.79816 -25.19201,-28.31129 -42.75081,-35.11079 -3.75893,-1.71729 -7.42641,-3.78449 -11.47591,-4.7489 3.33931,-3.19055 8.72907,-4.60568 10.92475,-8.77551 -0.75844,-4.88154 -7.56221,-3.57075 -11.04273,-2.77743 -5.46176,1.28059 -10.46333,4.09866 -14.52169,7.95759 -20.43052,0.49493 -40.99208,0.63615 -61.24539,3.15817 -16.49661,0.94565 -33.14168,2.2314 -49.62355,1.04623 -10.12548,-3.34593 -17.73764,-12.05988 -22.94802,-21.05229 -4.49081,-9.60656 -16.98568,-9.85954 -24.26499,-15.96461 -0.97706,-3.99063 -1.78429,-8.51296 -2.34853,-12.27519 11.00619,-0.10639 18.25059,-10.18679 24.14538,-18.22061 9.32891,-12.53296 13.48981,-28.78056 10.04095,-44.15003 -0.85622,-5.22493 4.0652,-9.49601 5.75377,-14.30492 2.54005,-6.30443 7.90793,-12.5179 6.96679,-19.65416 -2.92906,-6.25892 -11.43416,-4.75966 -17.06792,-5.17841 -5.42523,0.66611 -12.24939,-1.29017 -16.71237,2.60188 -0.73674,3.54382 -3.63816,-0.92734 -5.48697,-1.60325 -12.90486,-9.14809 -25.7684,-19.51046 -41.19831,-23.96595 -12.16406,-3.00176 -24.87911,-0.64059 -36.96428,0.42092 -9.2698,-4.68469 -16.78581,-14.30462 -27.43463,-15.91518 z m 0.53571,7.82685 c 5.79843,0.22355 10.71237,5.50442 12.32781,10.68559 -4.12742,4.85509 -10.58314,7.112 -16.17666,9.92825 -1.55255,0.646 -5.49909,2.13671 -4.4324,-1.15593 1.16257,-6.78433 2.94482,-14.16557 7.5861,-19.44675 0.23015,-0.0332 0.46397,-0.0229 0.69515,-0.0112 z m 37.35332,33.91741 c 8.44911,0.26982 17.01434,6.75244 16.71716,15.80039 0.21725,7.5008 -2.58063,17.06959 -10.33005,19.75605 -7.43392,2.04325 -15.9818,0.34229 -20.78762,-6.0507 -5.9244,-6.23189 -3.41371,-16.14682 0.23597,-22.9544 2.9265,-4.26363 9.08992,-6.52173 14.16454,-6.55134 z m 94.0609,2.90657 c 3.00413,-0.76624 6.66626,1.4562 4.68113,4.73533 -2.44587,5.07946 -5.1369,11.07581 -10.00478,14.03859 -3.70608,-4.83354 -7.18707,-11.03433 -6.80645,-17.22736 3.74338,-1.48856 8.15714,-1.24965 12.1301,-1.54656 z m -35.43685,12.04879 c 11.34823,0.12105 19.46413,13.25676 14.82621,23.55389 -3.20427,8.26964 -13.63852,16.39577 -22.32941,10.6537 -8.98367,-5.49771 -10.90045,-18.31228 -5.16103,-26.83355 2.03569,-4.60427 6.47557,-7.97642 11.67251,-7.40274 l 0.81599,0.0236 z m -37.76308,23.65115 c 7.07769,-0.007 17.06925,6.27575 13.99872,14.32557 -7.72184,4.27716 -19.57385,-1.19158 -21.04911,-9.87085 0.12998,-3.40833 4.27472,-4.48731 7.05039,-4.45472 z m -26.15912,12.78061 c -1.15621,3.75972 4.03819,4.12143 5.24553,6.99777 -1.38744,-2.08385 -4.29923,-3.38386 -6.14158,-4.10077 0.18632,-0.86917 0.69183,-2.39936 0.89605,-2.897 z m 16.87819,13.96843 c -0.29239,-0.0365 -2.24916,-0.53846 0,0 z"
       id="path3765" />
  </g>
  <g
     inkscape:groupmode="layer"
     id="layer21"
     inkscape:label="Image 3">
    <path
       style="fill:#6f6460;fill-opacity:1;stroke:#ababab;stroke-width:0.567231;stroke-opacity:0;paint-order:stroke fill markers"
       d="m 507.93944,367.96998 c -4.91747,-0.52597 -7.97032,6.06766 -4.56936,9.57728 3.87211,4.97346 10.78821,7.36019 16.92682,6.65731 3.75069,-0.48289 5.38488,-5.00988 3.16913,-7.94706 -3.11903,-5.47805 -9.15826,-8.99274 -15.52659,-8.28753 z"
       id="path3768" />
  </g>
  <g
     inkscape:groupmode="layer"
     id="layer22"
     inkscape:label="Image 4">
    <path
       style="fill:#000000;fill-opacity:1;stroke:#ababab;stroke-width:0.567231;stroke-opacity:0;paint-order:stroke fill markers"
       d="m 486.85589,329.6056 c -7.74083,0.10715 -16.03322,5.77607 -16.21487,14.08411 -0.89864,5.94409 -1.23352,13.1335 3.97579,17.31856 7.01279,6.39981 20.03502,7.98358 26.30455,-0.23338 1.68638,-2.90373 5.18505,-6.71124 3.16913,-10.17593 -2.50496,-1.69975 -5.33074,1.30764 -8.14774,0.59527 -3.99996,0.38313 -6.49611,-3.58749 -5.7768,-7.23454 0.0726,-3.78979 1.88544,-7.67324 5.56824,-9.04177 2.62331,-2.23682 -0.62822,-5.10943 -3.17026,-4.96621 -1.88633,-0.28458 -3.80201,-0.37146 -5.70804,-0.34611 z"
       id="path3771" />
    <path
       style="fill:#000000;fill-opacity:1;stroke:#ababab;stroke-width:0.567231;stroke-opacity:0;paint-order:stroke fill markers"
       d="m 546.10089,343.44672 c -9.50505,0.29943 -15.52157,10.4132 -15.68217,19.10834 -0.1113,7.39714 5.43452,13.35561 10.72047,17.81409 7.11795,2.42801 15.35774,-1.92205 18.92345,-8.27626 1.16305,-2.512 4.53075,-6.0375 2.03383,-8.64154 -3.42902,-1.02234 -7.35795,1.78421 -10.56939,-0.88276 -3.58158,-1.87201 -4.35969,-6.79184 -1.47916,-9.62238 0.91029,-2.52796 5.54035,-2.39257 4.53216,-5.62235 -1.73616,-2.74672 -5.36349,-3.93226 -8.47919,-3.87714 z"
       id="path3773" />
  </g>
  <g
     inkscape:groupmode="layer"
     id="layer24"
     inkscape:label="Image 6">
    <path
       style="fill:#ffffff;fill-opacity:1;stroke:#ababab;stroke-width:0.283615;stroke-opacity:0;paint-order:stroke fill markers"
       d="m 496.87158,334.25257 c -4.27015,0.32014 -6.37202,4.88897 -7.11882,8.57571 -0.71687,2.52989 -0.89979,5.82466 1.60075,7.45934 1.89856,1.21504 4.22874,2.64163 6.56148,2.10429 3.67328,-1.36565 7.76139,-4.62496 7.10771,-9.00118 -0.696,-3.59717 -3.05672,-6.99885 -6.25539,-8.80219 -0.59552,-0.25428 -1.25048,-0.35624 -1.89573,-0.33597 z"
       id="path3817" />
    <path
       style="fill:#ffffff;fill-opacity:1;stroke:#ababab;stroke-width:0.283615;stroke-opacity:0;paint-order:stroke fill markers"
       d="m 554.81274,349.27634 c -5.3451,0.10844 -8.75522,6.75042 -6.06825,11.25824 2.54076,4.42876 9.56426,5.27927 12.80079,1.15226 2.61355,-2.49958 1.29607,-6.5069 -0.51435,-9.0531 -1.39945,-2.00417 -3.70219,-3.50337 -6.21819,-3.3574 z"
       id="path3819" />
  </g>
  <g
     inkscape:groupmode="layer"
     inkscape:label="Image"
     id="g2981">
    <path
       style="fill:#000000"
       d="m 827.59738,656.77228 c -1.08868,-1.16856 -3.19379,-5.10606 -4.67802,-8.75 -3.12521,-7.67275 -7.54357,-12.27878 -15.19376,-15.83913 -6.41709,-2.98647 -10.04931,-2.59637 -19.9344,2.14093 -7.55621,3.62122 -19.28398,12.82501 -20.04365,15.72997 -0.58891,2.25199 -4.75871,3.49439 -6.5998,1.96642 -0.72884,-0.60488 -1.88426,-3.01763 -2.5676,-5.36166 -1.99497,-6.84327 -9.07306,-21.76125 -13.40933,-28.26188 -9.46463,-14.18872 -22.10138,-27.15113 -32.2898,-33.12194 -6.16123,-3.61072 -20.27996,-8.3357 -24.97558,-8.35833 -8.46509,-0.0408 -24.25093,7.23105 -32.49092,14.96715 -3.91483,3.67544 -5.7258,4.66991 -8.83855,4.85357 -2.15319,0.12705 -4.19477,-0.22186 -4.53685,-0.77536 -0.75595,-1.22315 1.85522,-6.50395 5.19244,-10.50113 2.19598,-2.63024 2.38008,-3.51553 1.76756,-8.5 -0.78149,-6.35948 -1.87493,-7.86134 -9.50023,-13.04869 -11.8125,-8.03583 -19.86119,-11.15014 -38.65708,-14.9577 -12.32205,-2.49614 -22.32841,-2.6067 -36.71587,-0.4057 -12.94852,1.98087 -18.62317,5.09314 -22.51451,12.34813 -1.32751,2.475 -7.92412,12.825 -14.65912,23 -8.73797,13.20101 -14.78152,21.10611 -21.09944,27.59851 -10.11714,10.39656 -30.11819,26.54915 -32.35398,26.12867 -0.90957,-0.17107 -1.48448,-1.35375 -1.46058,-3.00464 0.0469,-3.23721 -0.17366,-3.28007 -3.97704,-0.77289 -3.65392,2.40866 -4.87468,1.74872 -4.01399,-2.16996 0.37979,-1.7292 0.27711,-2.78988 -0.2392,-2.47078 -0.49758,0.30752 -1.49216,0.19604 -2.21018,-0.24772 -1.83015,-1.13109 -0.55395,-3.24683 9.29744,-15.41359 7.3174,-9.03722 23.89148,-31.00589 25.9991,-34.46138 0.87744,-1.43857 0.032,-1.35105 -14.87251,1.53974 -5.8914,1.14265 -10.82825,1.37398 -18.88268,0.88479 -17.40656,-1.0572 -40.62674,-4.24967 -45.58023,-6.26668 -3.30811,-1.34703 -3.52899,-1.29427 -5.76688,1.37763 -1.27986,1.52806 -4.52439,6.42836 -7.21006,10.88955 -2.68567,4.46119 -6.84058,10.81902 -9.23312,14.12851 -2.39254,3.30949 -5.13319,7.45076 -6.09034,9.20283 -1.48488,2.71809 -2.21864,3.13949 -5,2.87149 -2.83683,-0.27333 -3.29912,-0.71878 -3.56335,-3.43353 l -0.30362,-3.11946 -2.86946,2.86946 c -5.24744,5.24743 -6.96698,3.00708 -5.27471,-6.87231 0.75936,-4.43312 3.4398,-11.14895 8.73607,-21.88818 4.20232,-8.52104 7.97607,-17.37768 8.38611,-19.68143 1.1299,-6.34814 -1.45417,-15.1377 -8.58127,-29.18863 -7.99107,-15.75424 -11.66309,-20.08795 -20.78949,-24.53567 -14.81919,-7.22207 -38.03935,-9.52775 -50.00001,-4.96482 -3.89861,1.4873 -7.64534,3.92132 -10.69787,6.94974 l -4.69787,4.66078 0.59791,5.79324 c 0.45208,4.38019 0.25643,6.00945 -0.80213,6.67967 -4.53823,2.87338 -13.33862,-1.31241 -23.40004,-11.12991 -4.55798,-4.44748 -7.08152,-6.10084 -10.5,-6.87934 -13.17329,-2.99999 -33.52936,0.46534 -48.31981,8.22577 -10.8235,5.679 -23.6176,22.20328 -25.29031,32.66382 -1.25935,7.87558 -6.89178,10.58853 -8.93152,4.30201 -1.65568,-5.10287 -5.03066,-8.93153 -11.68432,-13.25499 -11.27333,-7.32527 -22.77153,-10.25818 -45.36713,-11.57208 -14.50315,-0.84333 -19.02417,0.29606 -27.459208,6.92032 -6.061526,4.76028 -15.459121,17.20134 -22.011411,29.13995 -4.84693,8.83136 -7.24025,9.68455 -7.74293,2.76027 -0.59323,-8.1715 11.42963,-32.39777 22.3886,-45.11342 5.877941,-6.82016 23.585869,-20.3639 32.145239,-24.58599 12.53941,-6.18532 31.1533,-16.37479 37.18405,-20.355 12.69169,-8.37634 35.08005,-23.91331 42.08875,-29.20857 15.93293,-12.03775 35.19002,-24.96315 42.57411,-28.57585 2.98424,-1.46005 5.42589,-3.08142 5.42589,-3.60303 0,-1.95112 -2.30135,-5.40167 -5.31031,-7.96209 -3.71533,-3.16148 -2.90455,-4.87466 3.16805,-6.69405 7.35804,-2.20452 18.03039,2.06143 22.23892,8.88934 2.65194,4.30251 5.08514,5.40064 14.40334,6.5004 14.47855,1.70881 56.40502,-0.19426 79.50001,-3.60856 3.575,-0.52852 17.32054,-1.37502 30.54566,-1.88111 26.50306,-1.01421 29.45433,-1.4186 29.45433,-4.0359 0,-1.80954 -2.5846,-8.7399 -6.53574,-17.52494 -3.89955,-8.67035 -5.80819,-19.7214 -5.16665,-29.91496 0.95823,-15.22558 6.30632,-27.08746 16.66939,-36.97215 5.36253,-5.11499 6.4791,-6.9046 10.12339,-16.22548 4.29395,-10.98253 8.72441,-17.86484 13.07091,-20.30447 2.28771,-1.28406 3.09033,-1.25856 6.96526,0.22129 2.40878,0.91992 8.61259,4.85131 13.78625,8.73641 l 9.40665,7.06383 6.78182,-1.05223 c 14.57178,-2.26089 31.7551,-0.91578 39.13188,3.06324 12.82796,6.91939 20.76363,11.87572 26.95491,16.83506 6.17925,4.94969 7.61275,5.69124 9.2785,4.79976 2.41324,-1.29153 23.91573,-2.27636 28.97566,-1.32712 10.07123,1.88938 9.86766,10.92385 -0.652,28.936 l -4.06884,6.9668 -0.12385,14.58701 c -0.10847,12.77428 -0.41366,15.3093 -2.45585,20.39929 -3.68951,9.19578 -13.74943,23.12623 -20.53638,28.43772 l -2.87503,2.25 h 4.68452 c 4.85385,0 8.25762,1.35517 15.0852,6.00597 9.65697,6.57813 35.75108,19.86324 51,25.96525 4.4,1.76071 14.24837,5.18082 21.88527,7.60025 11.57304,3.66644 16.14408,4.58709 27.44983,5.52867 18.88119,1.57248 29.11594,0.94883 32.01564,-1.95087 4.29586,-4.29586 15.59626,-6.9138 22.18519,-5.13959 5.25068,1.41387 4.96478,3.48083 -0.96084,6.94641 -2.43245,1.42262 -4.5946,3.10246 -4.80478,3.73299 -0.21017,0.63052 3.13052,2.78991 7.42378,4.79862 20.6953,9.68288 26.49354,13.50161 34.70961,22.85984 16.55004,18.85076 38.95754,65.30791 56.74687,117.65247 7.33279,21.57652 9.55798,33.89144 6.64942,36.8 -1.66705,1.66705 -2.42603,1.51778 -4.7015,-0.92465 z m 3.43363,-8.74823 c -0.88536,-8.69831 -11.31254,-40.01421 -22.09347,-66.35317 -6.01672,-14.69952 -22.88574,-49.06097 -29.15,-59.37729 -7.09612,-11.68627 -16.4653,-22.71238 -23.5937,-27.76624 -7.13607,-5.0593 -17.31225,-10.63042 -19.41745,-10.63042 -0.79254,0 -4.1042,-1.56087 -7.35925,-3.46861 -3.52429,-2.06553 -6.58023,-3.21459 -7.55472,-2.84065 -1.1035,0.42345 -1.48929,0.18655 -1.18463,-0.72745 0.2485,-0.74548 3.2349,-2.88259 6.63645,-4.74915 7.66521,-4.20618 8.08863,-6.21414 1.31038,-6.21414 -6.20337,0 -12.81048,2.32379 -16.4087,5.77111 l -2.81132,2.69341 -24.22953,0.5707 c -13.32623,0.31388 -24.82336,0.93771 -25.54916,1.38627 -1.61456,0.99786 -37.86223,3.1032 -51.62702,2.99862 -7.95975,-0.0605 -10.98677,-0.51547 -14.83648,-2.23007 -6.38498,-2.84376 -16.09107,-12.8386 -19.12102,-19.68986 -2.6196,-5.9234 -3.48138,-6.52991 -16.2925,-11.46652 -4.5375,-1.74847 -8.25,-3.59633 -8.25,-4.10636 0,-1.44964 2.42705,-1.10183 7.50743,1.07588 2.57029,1.10175 5.1209,1.72652 5.66803,1.38837 2.87694,-1.77805 12.09779,7.2315 15.33808,14.9866 1.96873,4.71186 12.8676,14.36011 17.85713,15.80809 4.91894,1.4275 16.69748,1.59654 37.12933,0.53287 20.24816,-1.0541 27.3885,-1.72969 27.95412,-2.64488 0.26135,-0.42286 -5.02142,-2.47303 -11.73947,-4.55592 -6.71806,-2.0829 -16.71465,-5.5542 -22.21465,-7.71401 -12.73927,-5.00262 -41.52466,-19.4 -48.02256,-24.0191 -8.94764,-6.36053 -10.69519,-6.9182 -21.02629,-6.70982 -6.30906,0.12726 -9.9228,-0.22194 -10.92771,-1.05594 -2.12162,-1.76079 -0.9368,-3.04442 2.26533,-2.45425 4.85162,0.89416 12.50003,-4.5779 19.37248,-13.86004 11.52037,-15.55977 15.26923,-27.70957 13.09537,-42.44119 l -1.14568,-7.76397 4.8211,-8.5 c 4.37389,-7.71154 9.06796,-18.6017 9.06796,-21.03751 0,-0.52937 -0.9,-1.86249 -2,-2.96249 -1.78404,-1.78404 -3.32276,-1.99853 -14.25,-1.98635 -14.58638,0.0163 -17.04306,0.48762 -16.21066,3.11031 1.06074,3.34208 -1.52866,2.05021 -10.89295,-5.43461 -5.03051,-4.02086 -12.29639,-9.03929 -16.14639,-11.15206 -3.85,-2.11276 -8.21069,-4.68452 -9.69043,-5.71502 -1.47973,-1.03049 -6.20473,-2.78436 -10.5,-3.89749 -8.14774,-2.11151 -19.36111,-2.0664 -32.17076,0.12942 l -5.3612,0.91901 -9.33142,-7.01366 c -10.22254,-7.68343 -15.60405,-10.40811 -18.83822,-9.53786 -3.13339,0.84313 -8.24067,9.12166 -12.48133,20.23134 -3.3988,8.90419 -4.39117,10.45339 -10.36496,16.18087 -7.01138,6.72229 -12.70839,16.48397 -14.68717,25.1661 -2.53947,11.14221 -0.23882,32.00929 4.33517,39.32025 0.75005,1.19886 2.11742,4.51679 3.0386,7.37317 0.92118,2.85638 2.54716,6.30236 3.61329,7.65773 1.06614,1.35537 1.93843,2.76225 1.93843,3.1264 0,0.36416 1.37162,2.65568 3.04804,5.09227 1.67642,2.4366 2.51353,4.43018 1.86024,4.43018 -0.65329,0 -1.6874,0.64907 -2.29804,1.44237 -0.61063,0.79331 -5.16024,2.87422 -10.11024,4.62425 -40.73356,14.40103 -40.3056,14.27396 -59.39683,17.63553 -7.93364,1.39695 -10.49482,1.46631 -16.44813,0.44543 -13.61669,-2.33501 -37.70143,-10.15629 -49.65282,-16.12426 -6.32622,-3.15902 -13.30222,-6.0605 -15.50222,-6.44772 -8.47116,-1.49102 -11.10782,-2.69826 -12.19736,-5.58477 -2.21871,-5.87804 -14.19267,-11.43006 -20.40123,-9.45954 -2.06507,0.65543 -2.06543,0.66542 -0.0998,2.81324 2.88453,3.15185 6.42305,10.62754 5.79953,12.25242 -0.30957,0.80674 -1.92288,1.40305 -3.79589,1.40305 -4.90075,0 -16.85406,7.58955 -52.91668,33.59853 -25.2345,18.19956 -42.09125,29.10242 -58.18291,37.63241 -22.32486,11.83415 -22.76967,12.1103 -33.76004,20.95919 -11.317394,9.1122 -19.575579,19.12884 -26.496099,32.13806 -5.95231,11.18919 -9.83665,21.68472 -8.51466,23.0067 1.29941,1.29941 0.68911,2.09336 8.36048,-10.87638 14.089155,-23.82007 29.397699,-40.16163 48.281789,-51.53981 31.90928,-19.22622 44.03861,-26.91133 54.92284,-34.79896 6.6,-4.78291 15.375,-11.14397 19.5,-14.13568 11.52614,-8.3595 27.56295,-18.81897 31.7411,-20.70208 2.06739,-0.93179 4.99171,-2.80611 6.49847,-4.16517 5.31672,-4.79552 3.72412,-1.32018 -2.51496,5.48812 -24.45623,26.68747 -47.494,64.70616 -51.74592,85.39508 -2.19721,10.69111 -2.53092,21.92124 -0.84981,28.59755 1.90454,7.56361 3.31732,4.7025 4.03825,-8.17814 1.13983,-20.36484 3.5763,-27.87148 15.49136,-47.7281 12.25962,-20.4308 43.11085,-63.69132 45.42148,-63.69132 0.45724,0 0.095,1.9125 -0.805,4.25 -1.20044,3.11784 -1.62409,7.44668 -1.59033,16.25 0.0537,14.00504 1.71208,20.25102 8.22187,30.96635 5.40615,8.8987 19.88209,28.04699 24.76401,32.75701 4.69642,4.53104 15.32323,10.18293 16.65055,8.85561 2.23622,-2.23622 -0.22959,-6.0864 -17.43558,-27.22433 -11.1525,-13.70108 -17.02728,-25.11552 -20.41564,-39.66668 -1.99257,-8.55698 -1.94894,-24.36077 0.0781,-28.28058 3.22592,-6.23825 10.95031,-6.49646 25.93744,-0.86703 11.96835,4.49552 32.08028,10.16037 44.30643,12.47963 4.40527,0.83567 10.59973,2.41053 13.76546,3.49971 12.29378,4.22968 21.88304,2.38325 70.94277,-13.66014 6.05,-1.97846 12.90521,-4.26967 15.2338,-5.09158 4.80602,-1.69635 9.26991,-0.97741 5.84972,0.94214 -1.05407,0.59158 -3.30407,1.41649 -5,1.83313 -1.69594,0.41663 -13.65852,4.00699 -26.58352,7.97858 -31.86696,9.79207 -36.15715,10.87313 -46.09077,11.61419 -7.59425,0.56653 -9.58789,0.33011 -17.18649,-2.03808 -4.72764,-1.47342 -11.8868,-3.28106 -15.90923,-4.01697 -14.56183,-2.66411 -32.1718,-7.85474 -49.12861,-14.48091 -1.54832,-0.60503 -4.80045,-1.10005 -7.22697,-1.10005 -6.5806,0 -7.64538,2.19892 -7.53807,15.5672 0.15599,19.43295 6.47422,35.72278 20.51835,52.90101 9.70111,11.86602 14.94606,18.04966 15.5159,18.29277 0.33643,0.14354 2.6958,-1.9472 5.24304,-4.64607 7.31485,-7.75029 21.13816,-11.93165 35.30284,-10.67863 8.74013,0.77316 25.25659,4.88874 30.63903,7.63466 5.98976,3.05575 12.44103,9.43192 15.99157,15.80541 1.72305,3.09301 4.21548,7.24727 5.53872,9.23168 2.93554,4.40233 7.32503,16.22682 7.34598,19.78878 0.008,1.43176 0.40923,3.22516 0.89068,3.98533 0.68764,1.08573 1.02048,0.92489 1.55207,-0.75 0.54876,-1.72897 3.54194,-3.19113 3.54194,-1.73023 0,0.55177 -7.0063,15.44391 -14.63071,31.0981 -5.74118,11.78762 -10.29461,25.5 -8.46769,25.5 0.39832,0 2.03708,-1.37033 3.64169,-3.04518 2.69317,-2.81107 3.01508,-2.9117 4.18709,-1.30887 0.69829,0.95497 1.26962,3.0003 1.26962,4.54518 0,3.71362 1.6844,3.56369 3.79651,-0.33793 0.93692,-1.73074 3.75438,-5.89324 6.26102,-9.25 2.50664,-3.35676 6.07528,-8.8032 7.93032,-12.1032 5.05049,-8.98453 11.25443,-16.66432 13.01215,-16.10761 0.825,0.26129 3.3527,1.15708 5.61712,1.99064 2.26441,0.83356 8.78941,2.02712 14.5,2.65235 5.71058,0.62523 13.75788,1.52378 17.88288,1.99678 10.35838,1.18776 23.86982,1.16582 30.20078,-0.049 13.57073,-2.60413 16.48482,-3.31173 19.04922,-4.62556 1.5125,-0.77491 2.75,-0.9897 2.75,-0.47731 0,1.20618 -18.68169,26.31035 -30.67186,41.21638 -5.13048,6.37814 -9.32814,11.89064 -9.32814,12.25 0,0.35935 1.17314,0.65337 2.60699,0.65337 1.99638,0 2.46083,0.38088 1.98297,1.62617 -0.56848,1.48144 -0.39749,1.47774 1.92125,-0.0416 3.44416,-2.2567 4.69773,-1.21526 3.86705,3.21265 l -0.68311,3.64129 3.90242,-3.24704 c 2.14634,-1.78587 5.47743,-4.45375 7.40243,-5.92862 16.38229,-12.55156 26.96928,-24.48272 41.12754,-46.3493 12.24092,-18.90535 32.02876,-58.79886 34.30629,-69.16359 0.33235,-1.5125 1.22287,-2.75 1.97892,-2.75 2.19997,0 0.24244,6.63639 -5.94855,20.16672 -3.01721,6.59408 -5.26394,12.34829 -4.99272,12.78713 0.27122,0.43884 -0.82184,2.75582 -2.42901,5.14885 -1.60718,2.39303 -2.78093,4.49217 -2.60834,4.66477 0.17259,0.17259 2.01891,-0.69223 4.10292,-1.92183 2.08401,-1.2296 5.17932,-2.34512 6.87847,-2.47893 1.69915,-0.13382 6.01327,-0.71767 9.58692,-1.29745 17.72133,-2.87507 43.6223,1.24056 60.24867,9.57345 14.83389,7.43452 23.74889,14.87957 23.74889,19.83307 0,4.75376 1.781,3.28289 8.19274,-6.76612 8.63276,-13.52996 9.0142,-14.32947 14.23668,-29.84044 2.47575,-7.35307 7.44174,-22.07503 11.03552,-32.71545 3.59378,-10.64043 6.25955,-19.79054 5.92394,-20.33357 -0.39593,-0.64063 -6.80414,-0.69462 -18.24954,-0.15376 -9.70164,0.45846 -32.03934,0.83187 -49.63934,0.82981 -30.60073,-0.004 -32.20315,-0.0975 -36.6459,-2.14772 -3.08757,-1.42484 -6.00878,-3.93923 -8.7091,-7.49625 -6.10486,-8.04167 -9.33083,-11.91487 -12.61075,-15.14082 -3.05145,-3.00125 -4.4854,-2.35721 -2.5991,1.16736 1.35439,2.53071 1.35818,4.12118 0.01,4.12118 -0.82385,0 -5.94515,-9.83077 -5.94515,-11.41188 0,-0.19517 0.86934,-0.58219 1.93186,-0.86005 3.92098,-1.02537 10.30181,5.19966 15.08691,14.71848 3.62648,7.21402 11.12677,12.11999 20.84733,13.63631 3.09865,0.48336 24.0839,0.63101 46.6339,0.3281 22.55,-0.3029 42.575,-0.51836 44.5,-0.4788 3.17299,0.0652 9,1.79108 9,2.66566 0,0.85819 -23.88008,71.40642 -24.57015,72.58691 -4.01921,6.8755 -17.46756,27.22165 -20.21976,30.59067 -7.42024,9.08325 0.20604,4.91271 10.71257,-5.85832 7.03793,-7.21511 17.11205,-23.85054 21.13932,-34.90745 1.70085,-4.66971 4.20412,-13.21971 5.56283,-19 3.66362,-15.58599 14.2203,-43.5598 17.11319,-45.34771 2.01465,-1.24512 7.27516,6.83115 22.48766,34.52445 10.3234,18.79304 19.59515,44.08798 27.23936,74.31363 3.74489,14.8075 5.13797,24.44866 5.9811,41.39366 0.58185,11.6939 1.36348,16.87063 2.66912,17.67756 2.67841,1.65535 5.18018,-19.14649 3.86805,-32.16228 -1.8189,-18.04271 -14.35471,-64.0022 -23.35,-85.60704 -7.18746,-17.26283 -15.74002,-34.09878 -21.5575,-42.4366 -3.31433,-4.75021 -5.74786,-9.08689 -5.40783,-9.63706 0.35705,-0.57773 1.29705,-0.15662 2.22513,0.99685 0.8838,1.09844 7.02247,4.70696 13.64149,8.01894 21.73563,10.87592 31.06836,19.06365 42.80642,37.55463 13.94742,21.97141 23.95799,46.05736 46.67418,112.30041 3.06232,8.93006 5.69806,14.53674 7.3266,15.58495 2.20957,1.42218 2.84501,-0.62509 2.19034,-7.0569 z M 396.49889,528.07843 c 0,-1.00017 0.65077,-4.03767 1.44615,-6.75 3.30329,-11.2645 5.55385,-20.54948 5.55385,-22.91312 0,-1.57189 0.56375,-2.51838 1.5,-2.51838 0.825,0 1.4959,0.7875 1.49088,1.75 -0.009,1.77918 -3.84854,17.45568 -6.61246,27 -1.48604,5.13157 -3.37842,7.05368 -3.37842,3.4315 z m 165.75533,-44.9315 c 0.27609,-7.5625 0.66909,-13.9375 0.87333,-14.16667 0.20424,-0.22916 0.70884,-0.0792 1.12134,0.33334 0.97673,0.97673 0.95099,21.26223 -0.0315,24.83333 -1.69416,6.15778 -2.43749,1.99273 -1.96316,-11 z m -156.96345,8.20855 c -0.2978,-0.2978 0.3022,-3.75487 1.33333,-7.68237 1.03114,-3.92751 1.87479,-8.52939 1.87479,-10.22642 0,-1.69702 1.125,-4.74108 2.5,-6.76457 1.375,-2.0235 2.5,-3.92198 2.5,-4.21886 0,-1.74331 11.04809,-23.56634 11.93066,-23.56634 1.81072,0 1.30747,1.36302 -6.40668,17.35224 -4.11181,8.52259 -7.75455,17.44236 -8.09498,19.8217 -0.88149,6.16091 -3.56502,15.82607 -4.39411,15.82607 -0.38586,0 -0.94521,-0.24365 -1.24301,-0.54145 z m 88.99803,-96.50617 c -2.04056,-1.07757 -4.96556,-3.53267 -6.5,-5.45578 -1.66167,-2.08254 -3.67595,-3.49656 -4.98089,-3.49658 -3.1532,-4e-5 -3.74652,-1.68878 -1.68433,-4.79401 0.98839,-1.48831 1.89252,-3.30366 2.00917,-4.03411 0.44338,-2.77639 1.38757,-4.2767 2.32632,-3.69652 1.10039,0.68008 0.26578,6.37808 -1.20958,8.25804 -0.69208,0.88187 -0.24883,1.50685 1.55514,2.19271 1.38772,0.52761 2.81649,1.8836 3.17504,3.01331 0.35856,1.1297 2.72869,3.27108 5.26696,4.7586 3.57969,2.09784 5.80823,2.67666 9.93365,2.58007 5.43784,-0.12731 7.10589,1.00964 3.06861,2.09159 -4.14999,1.11216 -9.2201,0.55769 -12.96009,-1.41732 z m 18.20362,-9.8372 c -8.38844,-2.71742 -12.97115,-8.08391 -11.59283,-13.57557 1.93899,-7.72555 17.27407,-5.7897 22.96734,2.89933 2.02636,3.09261 2.11302,7.91691 0.17118,9.5285 -1.87471,1.55587 -8.31082,2.19568 -11.54569,1.14774 z m 9.90552,-3.49355 c 2.80529,-3.38017 -3.93917,-10.94578 -10.78948,-12.10313 -10.53498,-1.77987 -11.04674,8.27377 -0.60957,11.97516 5.14357,1.8241 9.94664,1.87801 11.39905,0.12797 z m 18.60095,-0.0992 c -8.54663,-3.97736 -13.37413,-13.67493 -11.33513,-22.77026 1.231,-5.49113 6.13052,-13.11012 9.38394,-14.59248 7.1346,-3.25074 17.33441,-0.0645 22.46459,7.01749 6.37041,8.79409 2.77756,22.57986 -7.49634,28.76352 -4.32607,2.60378 -9.47613,3.22957 -13.01706,1.58173 z m 13.07607,-4.68551 c 1.89948,-1.28532 4.34693,-4.16652 5.43877,-6.40266 2.79663,-5.72767 2.63242,-6.55588 -1.04564,-5.2737 -5.58171,1.9458 -11.9692,-2.45 -11.9692,-8.23706 0,-2.63128 3.9756,-7.92352 5.95225,-7.92352 1.9469,0 1.06437,-1.6714 -1.4993,-2.83948 -5.98652,-2.72764 -12.07789,-0.38369 -15.83957,6.09505 -5.21002,8.9732 -4.44098,15.20818 2.85614,23.15626 4.23753,4.61554 4.66903,4.83293 8.55775,4.31134 2.25236,-0.30211 5.64932,-1.60091 7.5488,-2.88623 z m 5.59519,-15.49193 c 2.27656,-2.06026 2.30203,-3.73522 0.11313,-7.44072 -3.02072,-5.11368 -10.28439,-2.85783 -10.28439,3.19399 0,4.9675 6.41514,7.64597 10.17126,4.24673 z m -74.67126,6.22282 c -0.55,-0.21609 -2.24885,-0.66867 -3.77521,-1.00574 -3.92197,-0.86609 -10.39854,-7.04351 -11.78314,-11.23889 -1.41708,-4.29379 -0.53663,-12.17854 2.00132,-17.92252 1.42932,-3.2349 2.93291,-4.65826 7.13049,-6.75 2.92558,-1.45787 6.69337,-2.64817 8.37288,-2.6451 7.95391,0.0145 15.61667,4.50763 18.18963,10.66561 2.03382,4.86761 1.71793,13.59773 -0.67633,18.69128 -3.26185,6.93928 -6.78787,9.68353 -13.0753,10.17628 -2.96139,0.23209 -5.83434,0.24518 -6.38434,0.0291 z m 12.30382,-5.05621 c 2.83078,-2.38194 6.19618,-8.05665 6.19618,-10.44793 0,-0.81133 -0.55044,-0.83947 -1.93426,-0.0989 -3.22422,1.72555 -8.8674,1.23352 -11.06574,-0.96482 -3.80008,-3.80008 -1.77348,-14.98496 2.98903,-16.49652 4.59728,-1.45912 0.8364,-3.46497 -6.54325,-3.48983 -2.76779,-0.009 -5.4973,0.90152 -8.60212,2.87055 -3.77731,2.39549 -4.74241,3.65661 -5.69579,7.44282 -1.47208,5.84616 -1.41172,12.57605 0.13757,15.33899 4.28328,7.63865 18.39034,11.00202 24.51838,5.84561 z m 3.56132,-13.5842 c 3.03768,-2.38944 3.35744,-5.42653 0.94282,-8.95491 -2.90081,-4.23886 -4.69788,-4.87031 -7.6718,-2.69573 -1.92374,1.40667 -3.80377,8.12287 -2.91911,10.42824 0.54356,1.41649 3.62002,3.1021 5.89809,3.23159 0.61333,0.0349 2.30083,-0.86927 3.75,-2.00919 z m 72.23866,-0.17742 c -4.41462,-7.56383 -6.03373,-14.74822 -3.65504,-16.21833 0.52182,-0.32251 4.48006,-0.85868 8.79608,-1.19151 6.59454,-0.50854 8.11934,-0.33312 9.55124,1.09878 2.62735,2.62735 2.10477,4.6904 -3.27589,12.93275 -5.93021,9.08418 -7.76865,9.6282 -11.41639,3.37831 z m 9.19934,-4.70114 c 2.30827,-3.27313 4.19686,-6.87313 4.19686,-8 0,-1.85233 -0.61565,-2.04886 -6.41821,-2.04886 -8.49174,0 -9.72618,0.53175 -8.94745,3.85426 0.74412,3.17483 5.41781,12.14574 6.32773,12.14574 0.35432,0 2.5328,-2.67801 4.84107,-5.95114 z m -77.75541,-15.15498 c -1.70837,-1.70837 -3.79903,-4.44605 -4.64591,-6.08374 -1.94582,-3.7628 -2.35116,-10.93653 -0.65182,-11.53591 0.83492,-0.29449 1.25,0.64415 1.25,2.82671 0,4.12415 3.43111,11.30641 6.58732,13.78909 2.41892,1.90272 3.21891,4.10997 1.4896,4.10997 -0.50769,0 -2.32083,-1.39775 -4.02919,-3.10612 z m -63.63858,-11.27003 c -0.80711,-2.10328 2.43798,-13.53274 5.38612,-18.97037 2.45116,-4.52097 2.84313,-4.81156 5.83542,-4.32597 1.76427,0.2863 4.3227,1.25108 5.68541,2.14396 3.40524,2.2312 8.04331,9.14956 7.34821,10.96094 -0.31368,0.81746 -2.8695,2.74208 -5.67959,4.27694 -2.81009,1.53487 -6.97659,3.80316 -9.25888,5.04066 -4.69993,2.54839 -8.53604,2.90819 -9.31669,0.87384 z m 13.72874,-6.26644 c 4.32416,-2.55343 7.86211,-5.00948 7.86211,-5.45789 0,-1.83501 -7.82683,-8.89951 -9.85986,-8.89951 -3.35301,0 -5.93621,4.82875 -8.69314,16.25 -0.97076,4.02158 1.38021,3.60539 10.69089,-1.8926 z m 332.62139,319.44035 c 5.36097,-2.6392 7.91833,-3.29774 12.80639,-3.29774 5.39004,0 6.77321,0.44185 11.77103,3.76021 3.11481,2.06812 5.66329,3.41321 5.66329,2.98909 0,-0.95634 -13.33186,-38.00845 -18.80002,-52.2493 -9.53347,-24.82824 -16.85976,-39.68752 -27.23867,-55.24584 -7.9692,-11.9461 -14.24053,-18.7299 -23.09803,-24.98552 -6.62233,-4.67702 -23.78426,-14.18099 -24.43409,-13.53115 -0.20507,0.20507 1.18421,2.68495 3.08728,5.51084 1.90307,2.8259 6.42814,11.57607 10.05571,19.44483 11.13936,24.16298 17.81515,43.86211 25.37047,74.86406 6.39776,26.25206 7.3364,32.89926 6.48014,45.89039 l -0.68862,10.44762 6.16323,-5.14988 c 3.38978,-2.83243 9.17763,-6.63385 12.86189,-8.44761 z m -30.18886,-7.88768 c -1.76308,-32.43306 -19.05224,-83.09748 -40.64859,-119.11721 -1.882,-3.13893 -4.96034,-8.42643 -6.84074,-11.75 -1.8804,-3.32357 -3.73028,-6.04285 -4.11084,-6.04285 -0.85668,0 -7.56956,14.5558 -10.146,22 -1.04695,3.025 -3.21316,10.9 -4.8138,17.5 -4.88604,20.14686 -8.62897,30.16316 -15.63834,41.84902 -3.57907,5.96696 -6.3414,11.01502 -6.13851,11.21791 0.2029,0.2029 3.65144,-0.74166 7.66344,-2.09901 8.4513,-2.85928 10.13119,-2.96299 17.30417,-1.06825 17.90258,4.72895 29.64392,12.37559 42.10243,27.41952 8.4707,10.22856 13.84156,18.3395 17.52882,26.47158 1.67316,3.69007 3.35878,6.70923 3.74582,6.70923 0.38705,0 0.38351,-5.89047 -0.008,-13.08994 z M 176.4286,535.99671 c 0.31063,-19.44642 14.14016,-47.95359 39.34351,-81.09978 4.39114,-5.77501 9.36431,-11.96251 11.0515,-13.75001 1.68719,-1.7875 2.59801,-3.25 2.02404,-3.25 -1.77717,0 -17.08932,10.01712 -34.34876,22.47078 -24.22201,17.47752 -29.1965,20.81487 -54.5,36.56365 -12.65,7.8733 -25.25,15.99217 -28,18.04193 -6.0154,4.48369 -19.396848,17.92365 -17.845618,17.92365 0.6054,0 1.59809,-0.59928 2.20597,-1.33173 0.60788,-0.73245 3.58196,-2.17359 6.609068,-3.20254 5.10111,-1.73392 6.62065,-1.78301 20.7672,-0.67096 24.5231,1.92775 35.30387,4.91798 47.2666,13.11017 4.63257,3.17242 5.30863,2.57377 5.42649,-4.80516 z m 13.55756,1.33173 c 1.47252,-2.51267 5.64247,-7.71171 9.26655,-11.55342 5.24374,-5.55864 8.30137,-7.80211 14.974,-10.98682 12.82482,-6.12104 21.62031,-8.14195 36.02197,-8.27668 6.73739,-0.063 12.24989,-0.26955 12.25,-0.45895 1.2e-4,-0.1894 -2.62272,-4.0144 -5.82853,-8.5 -14.64514,-20.49164 -17.50604,-28.08742 -17.00736,-45.15505 0.18485,-6.32677 0.0788,-11.50263 -0.23563,-11.50191 -1.6007,0.004 -25.45523,33.71299 -36.26559,51.24764 -8.39081,13.61008 -11.50067,19.73142 -13.84584,27.25368 -1.79798,5.76713 -3.70211,22.5 -2.56039,22.5 0.30443,0 1.7583,-2.05582 3.23082,-4.56849 z m 179.51273,-99.95125 c 11.58073,-2.81451 19.07984,-5.24376 38.5,-12.4716 7.15,-2.66111 14.35,-5.29116 16,-5.84457 1.65,-0.55341 2.40718,-1.04173 1.68261,-1.08515 -0.81848,-0.0491 -1.09396,-0.78289 -0.72742,-1.93777 1.07729,-3.39423 -1.61482,-4.38157 -8.52857,-3.12787 -3.42568,0.62119 -15.72308,1.26187 -27.32757,1.42373 -12.45361,0.17371 -26.0161,0.97358 -33.09904,1.95209 -15.85569,2.19045 -33.08002,3.4863 -48.82911,3.67358 -7.056,0.0839 -14.031,0.48255 -15.5,0.88586 -2.4794,0.68073 -2.09129,1.02632 5.41309,4.82006 4.44619,2.24771 11.98242,5.21695 16.74717,6.5983 4.76475,1.38135 9.11332,2.78974 9.66348,3.12976 0.55016,0.34001 5.61394,1.71466 11.25283,3.05477 12.27046,2.91614 19.2286,2.70166 34.75253,-1.07119 z"
       id="path3709" />
  </g>
  <g
     inkscape:groupmode="layer"
     id="layer23"
     inkscape:label="Image 5">
    <path
       style="fill:#808080;fill-opacity:1;stroke:#ababab;stroke-width:0.982677;stroke-opacity:0;paint-order:stroke fill markers"
       id="path3776"
       d="m 447.53648,295.70319 c 0.091,2.0215 0.0549,4.04274 0.17882,6.06282 0.27154,3.90223 1.23188,7.71507 2.25922,11.47598 0.88967,2.91659 1.91957,5.78731 2.89592,8.67534 0,0 3.22665,-1.1055 3.22665,-1.1055 v 0 c -1.01814,-2.8137 -2.02298,-5.6338 -2.85492,-8.50962 -0.97682,-3.59173 -1.84635,-7.245 -2.03824,-10.97564 -0.0675,-1.98655 -0.0501,-3.97629 0.0407,-5.96215 0,0 -3.70817,0.33877 -3.70817,0.33877 z" />
    <path
       style="fill:#808080;fill-opacity:1;stroke:#ababab;stroke-width:0.982677;stroke-opacity:0;paint-order:stroke fill markers"
       id="path3778"
       d="m 447.12967,296.37615 c 1.62595,4.08888 3.35324,8.1348 5.05551,12.19214 1.43235,3.67405 0.76262,1.89451 2.01784,5.33534 0,0 4.78456,-1.76595 4.78456,-1.76595 v 0 c -1.40554,-3.42586 -0.68028,-1.64797 -2.17411,-5.33435 -1.56798,-4.01516 -3.19203,-8.03717 -4.30859,-12.20578 0,0 -5.37521,1.7786 -5.37521,1.7786 z" />
    <path
       style="fill:#808080;fill-opacity:1;stroke:#ababab;stroke-width:0.982677;stroke-opacity:0;paint-order:stroke fill markers"
       id="path3780"
       d="m 447.39962,294.3172 c 0.21088,2.67694 0.49263,5.34697 0.7575,8.01924 0.5394,4.84763 1.06269,9.69435 1.74681,14.52426 0.4243,3.42622 0.82268,6.85335 1.32315,10.26951 0,0 5.40002,-1.23859 5.40002,-1.23859 v 0 c -0.79198,-3.28772 -1.21463,-6.6453 -1.69522,-9.98883 -0.63813,-4.77331 -1.17224,-9.55702 -1.56603,-14.35705 -0.17743,-2.57398 -0.44183,-5.17157 -0.25265,-7.75053 0,0 -5.71358,0.52199 -5.71358,0.52199 z" />
    <path
       style="fill:#808080;fill-opacity:1;stroke:#ababab;stroke-width:0.982677;stroke-opacity:0;paint-order:stroke fill markers"
       id="path3782"
       d="m 449.13566,303.58701 c 0.53451,2.72697 1.26453,5.4123 1.95962,8.10174 0.88627,3.5929 1.87034,7.1597 2.78536,10.74518 0.11218,0.37017 0.22435,0.74034 0.33653,1.1105 0,0 5.21129,-1.78712 5.21129,-1.78712 v 0 c -0.11708,-0.28419 -0.23416,-0.56838 -0.35123,-0.85257 -1.0833,-3.49319 -2.04299,-7.02786 -2.8971,-10.58379 -0.55866,-2.38229 -1.18872,-4.8083 -1.33959,-7.25514 0,0 -5.70488,0.5212 -5.70488,0.5212 z" />
    <path
       style="fill:#808080;fill-opacity:1;stroke:#ababab;stroke-width:0.982677;stroke-opacity:0;paint-order:stroke fill markers"
       id="path3784"
       d="m 447.43441,293.43575 c 0.33143,3.11678 1.08266,6.16029 1.85666,9.19104 1.1096,4.00829 2.50499,7.93863 4.10863,11.77486 0.82662,1.96782 1.65621,3.9756 2.87141,5.74152 0,0 4.72464,-3.08905 4.72464,-3.08905 v 0 c -0.45004,-0.31726 -0.7,-0.90422 -0.96767,-1.36512 -0.61724,-1.06286 -1.22482,-2.1333 -1.67624,-3.28064 -1.63591,-3.59809 -2.99818,-7.3228 -3.98778,-11.15212 -0.65778,-2.73205 -1.30506,-5.50868 -1.28565,-8.33612 0,0 -5.644,0.51563 -5.644,0.51563 z" />
    <path
       style="fill:#808080;fill-opacity:1;stroke:#ababab;stroke-width:0.982677;stroke-opacity:0;paint-order:stroke fill markers"
       id="path3786"
       d="m 444.40007,296.9612 c 0.73844,3.27063 1.31984,6.57383 1.93163,9.86986 0.73273,3.50548 1.3277,7.03647 1.96108,10.56043 0.43727,2.27916 0.83371,4.56582 1.05161,6.87718 0.21648,2.7062 -0.12624,2.10503 5.72435,0.0182 0.0943,-0.0336 -0.76418,-2.74676 -0.81864,-2.92021 -0.8198,-2.25903 -1.50065,-4.56207 -2.16566,-6.87017 -0.493,-1.74946 -0.68204,-3.5529 -0.76326,-5.36177 -0.11347,-1.64298 -0.21155,-3.28284 -0.47016,-4.91045 -0.1838,-1.4582 -0.41936,-2.90752 -0.79389,-4.32963 -0.28846,-0.44247 -0.34222,-1.2547 -0.86538,-1.32742 -1.57724,-0.21922 -3.24645,0.0109 -4.74571,0.54752 -0.50538,0.18088 -0.54157,0.92971 -0.7563,1.42165 -0.70402,1.61299 -0.99722,3.41719 -1.36964,5.12402 -0.64956,2.93873 -0.95809,5.93636 -1.12011,8.93713 -0.10717,2.05755 0.0189,4.1157 0.10038,6.17166 0.0247,1.17662 0.24299,3.40856 2.20882,3.21083 1.52252,-0.15315 2.64064,-1.58997 3.76096,-2.63227 0.26931,-0.25055 0.16413,-0.71743 0.22871,-1.07955 0.0775,-0.43447 0.13154,-0.8728 0.19732,-1.30919 0.47394,-3.39713 0.64824,-6.82889 0.82873,-10.25182 0.0401,-0.91954 0.0662,-1.63385 0.12284,-2.5376 0.0163,-0.25956 0.0927,-0.52029 0.058,-0.77804 -0.0576,-0.42885 0.10146,-1.26139 -0.33119,-1.25514 -5.72207,0.0826 -5.27457,-0.2199 -5.69573,2.61489 -0.53209,3.7819 -0.74604,7.60197 -1.02103,11.40947 -0.0309,0.47428 -0.0618,0.94857 -0.0928,1.42285 -0.0223,0.39748 -0.0416,0.79515 -0.067,1.19245 -0.0183,0.2872 -0.0244,0.57592 -0.0638,0.86099 -0.0116,0.0838 -0.17255,0.24437 -0.0881,0.23817 5.90215,-0.43322 5.89032,1.22451 5.62703,-1.21488 -0.2103,-3.22982 -0.0962,-6.46745 -0.15091,-9.70085 -0.028,-0.85424 0.21589,-5.16074 -1.38017,-5.23113 -4.48178,-0.19768 -4.30746,0.45086 -5.18572,2.82206 -0.61516,1.82162 -1.1773,3.6683 -1.52776,5.56168 -0.14134,0.76358 -0.33914,2.26166 -0.44607,3.03694 -0.32336,2.06526 -0.42597,4.15451 -0.63566,6.23165 0.18505,1.60059 -0.0758,0.56193 1.72749,2.70875 0,0 2.59128,-5.11305 2.59128,-5.11305 v 0 c 1.36012,1.95436 1.41757,1.13731 1.30559,2.08166 -0.016,-1.95837 0.16913,-3.91362 0.41125,-5.85507 0.38102,-2.55504 0.8359,-5.12449 1.99179,-7.46317 1.29001,-1.30518 -0.8452,0.94772 -3.7773,0.46085 -0.54381,-0.0903 -0.46581,-0.99981 -0.72371,-1.48702 -0.0631,-0.11915 0.11388,0.24756 0.13784,0.38023 0.12967,0.71786 0.1493,1.73798 0.18294,2.42999 0.0769,3.21867 0.0862,6.44293 -0.0979,9.65834 -0.19107,2.64014 -0.343,1.13933 5.64373,0.3675 0.10405,-0.0134 -0.0547,-0.20392 -0.0619,-0.30858 -0.0302,-0.43978 -0.0109,-1.62873 -0.005,-1.9846 0.007,-0.45994 0.019,-0.91979 0.0285,-1.37968 0.12431,-3.60746 0.2936,-7.24702 1.17593,-10.76319 0.89203,-2.51501 0.19639,0.16887 -4.89303,-0.35687 -0.31417,-0.0325 0.0272,-0.66917 -0.14002,-0.93712 -0.13354,-0.21401 0.0224,0.50407 0.0272,0.75628 0.007,0.36461 0.0103,0.72934 0.008,1.09401 -0.003,0.45617 -0.0158,0.91223 -0.0237,1.36834 -0.0974,3.2359 -0.2436,6.48942 -0.93168,9.66353 -0.0839,0.3235 -0.14897,0.65248 -0.25168,0.97051 -0.0607,0.188 -0.42164,0.61386 -0.23717,0.54314 1.18196,-0.4531 2.10946,-1.82529 3.37275,-1.74515 1.98135,0.12569 1.92899,3.38297 1.72399,1.54833 -0.16149,-1.91134 -0.26701,-3.82512 -0.15616,-5.74364 0.10028,-2.76086 0.32473,-5.52218 0.94961,-8.22093 0.30459,-1.17929 0.43428,-1.89084 0.91227,-2.99125 0.1189,-0.27372 0.25367,-0.5464 0.43914,-0.7802 0.0297,-0.0374 0.17459,0.0647 0.12685,0.0667 -4.38665,0.18649 -3.59541,1.35031 -4.44222,-0.85355 0.39813,1.23783 0.51444,2.53764 0.71085,3.81741 0.20828,1.51192 0.37484,3.02682 0.44765,4.55231 0.14517,2.09805 0.40993,4.17811 1.00797,6.20255 0.66542,2.30399 1.41937,4.57941 2.15252,6.86211 0.0829,0.32781 0.17449,0.65354 0.24869,0.98343 0.0534,0.23746 0.10004,0.47677 0.13394,0.7178 0.007,0.0477 -0.0606,0.14932 -0.0128,0.14383 6.79499,-0.78076 5.89192,1.01367 5.45212,-1.50513 -0.37627,-2.36087 -0.71547,-4.7292 -1.23184,-7.06527 -0.67037,-3.51465 -1.45359,-7.00496 -2.17529,-10.50907 -0.62117,-3.39194 -1.19667,-6.78983 -1.49372,-10.22781 0,0 -5.50124,1.49319 -5.50124,1.49319 z" />
    <path
       style="fill:#808080;fill-opacity:1;stroke:#ababab;stroke-width:0.982677;stroke-opacity:0;paint-order:stroke fill markers"
       id="path3788"
       d="m 449.4115,296.02585 c 1.22751,2.74793 2.22871,5.59471 3.31581,8.40091 1.38095,3.53242 2.56635,7.13654 3.63415,10.77459 0.49879,1.32808 0.59747,2.80124 1.17741,4.10232 0.10937,0.24537 0.11768,0.73182 0.38525,0.70789 1.80807,-0.16174 3.53874,-0.81145 5.30811,-1.21717 0.17154,-2.22256 0.19506,-4.46962 -0.10235,-6.68406 -0.0739,-0.55025 -0.18653,-1.0946 -0.2798,-1.6419 -0.47163,-2.36274 -1.15575,-4.68411 -2.00406,-6.93859 -0.57164,-1.50274 -1.4819,-2.83795 -2.37877,-4.16043 -0.73907,-1.1415 -1.41353,-2.32358 -2.159,-3.46074 -0.0924,-0.14302 -0.18601,-0.2853 -0.27726,-0.42908 -0.10352,-0.16312 -0.20818,-0.3256 -0.30704,-0.49159 -0.56945,-0.95615 0.38064,0.31928 0.0685,0.57061 -1.29189,1.04011 -2.89092,1.62662 -4.33638,2.43993 -0.11828,-0.11402 -0.24706,-0.21806 -0.35484,-0.34205 -0.025,-0.0288 0.0736,0.0263 0.10229,0.0515 0.12732,0.11154 0.24251,0.23622 0.36246,0.35565 0.33689,0.33545 0.65081,0.68327 0.95306,1.05 0.93396,1.20889 1.93799,2.36321 2.93025,3.52498 0.96129,1.20796 2.02,2.33072 3.06885,3.46155 1.07298,1.05639 1.90555,2.29833 2.69855,3.56751 0.47213,0.69614 0.76366,1.41218 0.88553,2.23688 0.11488,1.12619 -0.11758,-1.03745 0.0443,-1.15642 1.13003,-0.8304 2.60217,-1.06344 3.95342,-1.43844 0.11995,-0.0333 0.36185,0.33889 0.25847,0.26955 -0.26734,-0.17934 -0.80814,-0.81753 -0.96395,-0.98985 -1.09434,-1.25797 -2.09741,-2.59942 -2.86813,-4.08013 -0.65888,-1.29935 -1.05668,-2.69938 -1.37155,-4.11508 -0.20588,-1.19441 -0.44441,-2.39178 -0.82793,-3.54325 0.79686,2.42954 0.28289,0.20679 -5.33595,2.04953 -0.10471,0.0343 0.0825,0.20447 0.12873,0.30449 0.36104,0.78085 0.81005,1.43448 1.3076,2.1391 1.28443,1.73249 2.58038,3.45422 3.94172,5.12677 1.13758,1.29897 2.29394,2.57944 3.63527,3.66996 1.4853,-1.04055 3.24936,-1.76774 4.45592,-3.12166 0.30727,-0.3448 -0.32998,-0.86423 -0.53508,-1.27803 -0.16767,-0.33827 -0.38429,-0.65001 -0.58045,-0.97259 -0.52882,-0.86961 -1.0747,-1.72934 -1.61228,-2.59358 -0.70035,-1.17605 -1.28115,-2.41236 -2.01352,-3.57001 -0.51418,-0.79226 -1.0385,-1.57601 -1.62481,-2.31696 -0.61567,-0.84182 -1.43885,-1.43545 -2.34223,-1.92902 -0.81043,-0.41041 -1.64493,-0.72423 -2.53389,-0.91088 -0.54078,-0.0857 -0.27458,-0.0493 -0.79843,-0.11052 0,0 -2.24085,5.22881 -2.24085,5.22881 v 0 c 0.36363,-0.01 0.1827,-0.005 0.54279,-0.0131 0.55207,-0.007 1.04454,-0.0357 1.53489,0.28497 0.39025,0.0903 0.77813,0.21868 1.06744,0.50191 0.14979,0.18633 0.32052,0.35537 0.46731,0.54407 0.36366,0.46751 0.64,1.00393 0.98765,1.48302 0.15873,0.22377 0.33653,0.4341 0.48739,0.66326 0.58318,0.88587 0.99686,1.87582 1.58972,2.75642 0.52934,0.82206 1.05694,1.64057 1.55147,2.48429 0.12482,0.21294 0.23574,0.43433 0.37039,0.6412 0.0179,0.0275 0.0529,0.0689 0.0821,0.0541 1.52456,-0.77321 3.02295,-1.59696 4.53443,-2.39544 0.055,0.12657 0.30157,0.36022 0.16495,0.37971 -0.183,0.0261 -0.29872,-0.21867 -0.43744,-0.34084 -0.77217,-0.68007 -1.39224,-1.51112 -2.13098,-2.22464 -1.33356,-1.52536 -2.61791,-3.09391 -3.75447,-4.77443 -0.48328,-0.7433 -0.31606,-0.43443 -0.6479,-1.1046 -0.0303,-0.0612 -0.0651,-0.12062 -0.0887,-0.18472 -0.0277,-0.0753 0.0145,-0.24542 -0.0646,-0.23187 -5.91121,1.01226 -6.15695,-0.60022 -5.41761,1.86253 0.16255,-0.004 0.0516,-0.0146 0.16233,0.34662 0.25007,0.8161 0.41012,1.65341 0.57114,2.49049 0.41349,1.72949 0.91051,3.43951 1.74052,5.02265 0.89977,1.75879 2.00649,3.39108 3.30779,4.88095 0.29371,0.35996 1.90784,2.46669 2.2516,2.44385 3.38504,-0.22488 5.15557,-0.47462 4.56623,-3.46215 -0.27085,-1.33053 -0.70845,-2.57636 -1.49167,-3.69972 -0.9613,-1.40519 -1.85734,-2.86245 -3.04603,-4.09655 -1.01144,-1.13238 -2.11855,-2.18149 -3.04001,-3.39301 -0.96189,-1.06487 -1.85314,-2.19996 -2.73804,-3.32737 -0.79004,-1.08511 -1.7,-2.10204 -2.71572,-2.97746 -1.51354,0.79239 -3.20199,1.31569 -4.54061,2.37719 -0.46245,0.36671 1.11643,2.72495 1.35272,3.11176 0.77818,1.11577 1.49782,2.27006 2.21419,3.42588 0.73375,1.09933 1.49544,2.18818 2.01035,3.41385 0.84207,1.95424 1.57233,3.96104 1.95274,6.06259 0.26121,1.68461 0.39196,3.2949 0.26517,4.99979 -0.0677,0.9096 0.0734,0.67358 -0.17656,1.02548 1.68613,-0.22258 3.36256,-0.53817 5.05837,-0.66775 0.0934,-0.007 0.13092,0.30291 0.0406,0.27812 -0.12199,-0.0335 -0.1494,-0.20644 -0.20072,-0.32205 -0.46854,-1.05559 -0.64129,-2.21483 -1.05447,-3.28998 -1.17695,-3.67904 -2.52567,-7.29786 -3.87053,-10.91824 -1.00049,-2.84573 -2.00663,-5.68971 -2.86493,-8.5826 0,0 -5.36034,1.93141 -5.36034,1.93141 z" />
    <path
       style="fill:#808080;fill-opacity:1;stroke:#ababab;stroke-width:0.982677;stroke-opacity:0;paint-order:stroke fill markers"
       id="path3790"
       d="m 567.55189,333.66724 c 0.60747,2.73085 1.7072,5.319 2.85401,7.85936 1.20902,2.6979 2.67684,5.26201 4.23675,7.7689 0.90889,1.42028 1.72165,2.89526 2.47643,4.40163 0.0463,0.11609 0.22571,0.25843 0.13884,0.34827 -0.0831,0.0859 -0.17246,-0.19576 -0.17076,-0.31526 0.009,-0.60459 -0.26554,-1.41803 0.20088,-1.8028 6.61401,-5.45616 4.23434,-0.77306 3.04907,-1.0966 -0.20022,-0.0547 -0.38531,-0.15443 -0.57796,-0.23165 -0.78591,-0.38174 -1.50359,-0.93447 -2.07558,-1.59794 -0.21066,-0.24434 -0.44262,-0.65219 -0.60281,-0.913 -0.7368,-1.57217 -1.18764,-3.27089 -1.63466,-4.94529 -0.48425,-1.78232 -1.11266,-3.52125 -1.60559,-5.30016 -0.25384,-1.22782 -0.58299,-2.41201 -1.18126,-3.51595 -0.41887,-0.61141 -0.87516,-1.18001 -1.20599,-1.84425 -0.0506,-0.12352 -0.16356,-0.37855 -0.18937,-0.51675 -0.003,-0.0179 0.0135,-0.0646 0.0236,-0.0494 0.0434,0.0654 0.0847,0.13983 0.0884,0.21823 0.0316,0.67211 -0.0192,0.92761 -0.096,1.50758 -4.20418,1.65522 -2.15316,0.73731 -1.16712,0.58558 0.36808,-0.0566 0.79973,-0.0295 1.15168,-0.16433 0.23789,-0.004 0.0471,-0.19296 -2.8e-4,-0.20676 0.17566,0.74456 0.30675,1.49733 0.49433,2.24006 0.23667,1.18467 0.73899,2.29193 1.18233,3.40972 0.53685,1.45026 1.18667,2.85286 1.81184,4.26598 0.409,0.95112 0.94196,1.83879 1.43891,2.74461 0.23618,0.49506 0.44252,1.00519 0.65655,1.51066 0.0304,-0.43868 0.24411,1.22765 0.16204,0.71352 -0.0372,-0.23279 -0.33769,-0.6196 -0.11529,-0.69777 1.76172,-0.61919 3.65006,-0.79071 5.47509,-1.18607 -0.84628,-2.1159 -1.80492,-4.18376 -2.73567,-6.26312 -0.70575,-1.68738 -1.49998,-3.33194 -2.32438,-4.96336 0,0 -5.08418,2.38519 -5.08418,2.38519 v 0 c 0.85204,1.52238 1.67831,3.05767 2.37114,4.66147 0.89643,1.96956 1.87384,3.92986 2.38824,6.04271 1.89048,-0.21076 3.82761,-0.16476 5.67146,-0.63229 0.16709,-0.0424 -0.46008,-2.03813 -0.508,-2.14208 -0.2729,-0.64994 -0.54043,-1.30443 -0.85865,-1.93354 -0.46713,-0.79792 -0.97753,-1.56713 -1.37761,-2.40235 -0.62889,-1.32075 -1.23141,-2.65073 -1.70689,-4.03597 -0.36032,-0.96603 -0.79893,-1.90957 -0.97973,-2.92913 -0.17624,-0.7775 -0.29073,-1.56624 -0.48114,-2.34046 -0.45951,-1.5198 -1.25133,-2.55089 -2.74981,-3.18224 -0.28143,-0.0836 -0.55587,-0.19595 -0.8443,-0.25067 -0.71651,-0.13592 -1.51915,-0.0214 -2.2391,0.0218 -0.27321,0.0164 -0.55677,-0.022 -0.8192,0.0557 -1.09713,0.32498 -2.15733,0.76365 -3.236,1.14547 -0.2583,0.29129 -0.60017,0.52598 -0.77491,0.87389 -0.65266,1.29949 -0.38308,2.52329 0.16505,3.75802 0.35132,0.75963 0.73165,1.55169 1.35237,2.1306 0.52896,0.75866 0.62139,1.73004 0.91699,2.58639 0.52807,1.74293 1.12141,3.46372 1.61675,5.21698 0.55009,2.01971 1.11498,4.05831 1.98415,5.9661 0.36944,0.63282 0.60021,1.0785 1.06737,1.65923 0.84116,1.04567 1.95594,1.88982 3.05218,2.64178 0.12896,0.0698 1.67091,0.913 1.73123,0.9076 1.43323,-0.12832 2.99749,-0.17314 4.21232,-0.94436 1.13314,-0.71935 0.46611,-2.68213 0.0301,-3.5553 -0.86664,-1.57657 -1.75333,-3.14152 -2.75121,-4.64046 -1.52312,-2.31226 -2.97137,-4.68234 -4.12457,-7.20448 -0.98786,-2.19458 -1.99431,-4.48304 -2.17628,-6.91206 0,0 -5.60578,1.08887 -5.60578,1.08887 z" />
    <path
       style="fill:#808080;fill-opacity:1;stroke:#ababab;stroke-width:0.982677;stroke-opacity:0;paint-order:stroke fill markers"
       id="path3792"
       d="m 574.98832,333.31139 c 0.86238,2.0314 1.37722,4.19604 1.88654,6.33792 0.44906,1.97553 0.80769,3.96455 0.97567,5.98376 0.1047,1.45855 0.0876,2.92155 0.078,4.38266 -0.0778,1.06541 -0.25887,2.12466 -0.68969,3.10657 -0.0625,0.1526 -0.12495,0.3052 -0.18742,0.4578 0,0 5.56294,0.9067 5.56294,0.9067 v 0 c 0.0624,-0.18323 0.12471,-0.36646 0.18706,-0.5497 0.42164,-1.44416 0.6962,-2.93188 0.71332,-4.44079 -0.0171,-1.58057 -0.0584,-3.1621 -0.18746,-4.73801 -0.23145,-2.19877 -0.68039,-4.35676 -1.20463,-6.50386 -0.58116,-2.35828 -1.18825,-4.71018 -1.83257,-7.05191 0,0 -5.30177,2.10886 -5.30177,2.10886 z" />
    <path
       style="fill:#808080;fill-opacity:1;stroke:#ababab;stroke-width:0.982677;stroke-opacity:0;paint-order:stroke fill markers"
       id="path3794"
       d="m 575.1943,332.20255 c 0.70169,1.0016 1.21778,2.14164 1.74132,3.24696 0.1039,0.21394 0.2078,0.42787 0.31171,0.6418 0,0 5.11119,-2.28984 5.11119,-2.28984 v 0 c -0.0989,-0.19035 -0.19775,-0.38069 -0.29663,-0.57104 -0.65066,-1.34171 -1.32623,-2.67134 -1.97779,-4.01235 0,0 -4.8898,2.98447 -4.8898,2.98447 z" />
    <path
       style="fill:#808080;fill-opacity:1;stroke:#ababab;stroke-width:0.982677;stroke-opacity:0;paint-order:stroke fill markers"
       id="path3796"
       d="m 579.01967,334.01931 c 0.8361,1.20312 1.27147,2.67973 1.76983,4.04785 0.63064,1.71381 0.93144,3.50401 1.09874,5.31406 0.2053,1.74217 0.29333,3.49389 0.33462,5.24658 0.002,0.19842 0.004,0.39685 0.006,0.59528 0,0 5.5811,-0.63467 5.5811,-0.63467 v 0 c -0.0108,-0.21047 -0.0217,-0.42093 -0.0325,-0.6314 -0.10445,-1.8213 -0.26312,-3.63888 -0.43563,-5.45488 -0.216,-2.13819 -0.6171,-4.25421 -1.35487,-6.27986 -0.66076,-1.78312 -1.24894,-3.61083 -2.15487,-5.28853 0,0 -4.8121,3.08557 -4.8121,3.08557 z" />
    <path
       style="fill:#808080;fill-opacity:1;stroke:#ababab;stroke-width:0.982677;stroke-opacity:0;paint-order:stroke fill markers"
       id="path3798"
       d="m 579.03416,331.75329 c 0.1226,1.64157 0.10418,3.28977 0.0837,4.93451 0,0 5.49397,-0.50192 5.49397,-0.50192 v 0 c -0.0206,-1.64986 -0.0383,-3.30308 0.0837,-4.94981 0,0 -5.66139,0.51722 -5.66139,0.51722 z" />
    <path
       style="fill:#808080;fill-opacity:1;stroke:#ababab;stroke-width:0.982677;stroke-opacity:0;paint-order:stroke fill markers"
       id="path3800"
       d="m 579.09419,331.35712 c 0.3455,1.57192 0.54687,3.1708 0.69956,4.77165 0.0584,0.66567 0.0833,1.3333 0.10483,2.0009 0,0 5.57257,-0.74289 5.57257,-0.74289 v 0 c -0.0594,-0.72162 -0.12262,-1.44292 -0.20258,-2.16262 -0.17819,-1.6293 -0.42667,-3.25078 -0.564,-4.88447 0,0 -5.61038,1.01743 -5.61038,1.01743 z" />
    <path
       style="fill:#808080;fill-opacity:1;stroke:#ababab;stroke-width:0.982677;stroke-opacity:0;paint-order:stroke fill markers"
       id="path3802"
       d="m 573.84344,331.21019 c 0.12176,1.21799 0.12511,2.44121 0.12885,3.6636 0,0 5.39499,-0.49288 5.39499,-0.49288 v 0 c 0.004,-1.23024 0.008,-2.46123 0.12885,-3.68715 0,0 -5.65269,0.51643 -5.65269,0.51643 z" />
    <path
       style="fill:#808080;fill-opacity:1;stroke:#ababab;stroke-width:0.982677;stroke-opacity:0;paint-order:stroke fill markers"
       id="path3804"
       d="m 578.71946,330.68269 c 0.0683,1.12855 0.16028,2.2555 0.22579,3.38445 0,0 5.52338,-0.75091 5.52338,-0.75091 v 0 c -0.0695,-1.05003 -0.14649,-2.10508 -0.0356,-3.15552 0,0 -5.71357,0.52198 -5.71357,0.52198 z" />
    <path
       style="fill:#808080;fill-opacity:1;stroke:#ababab;stroke-width:0.982677;stroke-opacity:0;paint-order:stroke fill markers"
       id="path3806"
       d="m 582.59476,332.32747 c 0.39102,1.0486 0.67516,2.13439 0.95427,3.21733 0.29707,1.1701 0.52725,2.3477 0.63487,3.55023 0.15623,1.34254 0.0975,2.64976 -0.25169,3.95517 -0.0508,0.10341 -0.1016,0.20683 -0.15239,0.31024 0,0 5.61654,0.59297 5.61654,0.59297 v 0 c 0.0388,-0.21234 0.0776,-0.42468 0.11638,-0.63702 0.25217,-1.70702 0.42483,-3.43005 0.21308,-5.15293 -0.16812,-1.39257 -0.42806,-2.76652 -0.78941,-4.12281 -0.2819,-1.06858 -0.54664,-2.14158 -0.80565,-3.2158 0,0 -5.536,1.50262 -5.536,1.50262 z" />
    <path
       style="fill:#808080;fill-opacity:1;stroke:#ababab;stroke-width:0.982677;stroke-opacity:0;paint-order:stroke fill markers"
       id="path3808"
       d="m 584.21184,333.05986 c 0.0874,1.7332 0.17603,3.46637 0.24056,5.20072 0.006,0.26931 0.0128,0.53863 0.0191,0.80795 0,0 5.52447,-0.72041 5.52447,-0.72041 v 0 c -0.0224,-0.25978 -0.0448,-0.51956 -0.0672,-0.77934 -0.10132,-1.67575 -0.16763,-3.35341 -0.0208,-5.02931 0,0 -5.69618,0.52039 -5.69618,0.52039 z" />
    <path
       style="fill:#808080;fill-opacity:1;stroke:#ababab;stroke-width:0.982677;stroke-opacity:0;paint-order:stroke fill markers"
       id="path3810"
       d="m 582.4845,332.51676 c 0.15466,1.8775 0.14964,3.76436 0.13659,5.64678 0,0 5.41429,-0.49465 5.41429,-0.49465 v 0 c -0.0131,-1.89076 -0.0172,-3.78582 0.1366,-5.67173 0,0 -5.68748,0.5196 -5.68748,0.5196 z" />
    <path
       style="fill:#808080;fill-opacity:1;stroke:#ababab;stroke-width:0.982677;stroke-opacity:0;paint-order:stroke fill markers"
       id="path3812"
       d="m 582.49319,331.14194 c 0.0735,0.92356 0.0884,1.8502 0.11021,2.77593 0,0 5.44967,-0.49787 5.44967,-0.49787 v 0 c 0.0219,-0.93245 0.037,-1.86577 0.11021,-2.79608 0,0 -5.67009,0.51802 -5.67009,0.51802 z" />
    <path
       style="fill:#808080;fill-opacity:1;stroke:#ababab;stroke-width:0.982677;stroke-opacity:0;paint-order:stroke fill markers"
       id="path3814"
       d="m 582.48884,335.14842 c 0.0131,1.14932 -0.27658,2.27005 -0.51277,3.38468 0,0 5.31696,0.36738 5.31696,0.36738 v 0 c 0.34513,-1.4095 0.73966,-2.82057 0.8746,-4.27087 0,0 -5.67879,0.51881 -5.67879,0.51881 z" />
  </g>
</svg>
