<?xml version="1.0" encoding="UTF-8" standalone="no"?>
<svg
   xmlns:dc="http://purl.org/dc/elements/1.1/"
   xmlns:cc="http://creativecommons.org/ns#"
   xmlns:rdf="http://www.w3.org/1999/02/22-rdf-syntax-ns#"
   xmlns:svg="http://www.w3.org/2000/svg"
   xmlns="http://www.w3.org/2000/svg"
   xmlns:sodipodi="http://sodipodi.sourceforge.net/DTD/sodipodi-0.dtd"
   xmlns:inkscape="http://www.inkscape.org/namespaces/inkscape"
   version="1.1"
   id="svg944"
   width="1936"
   height="2592"
   viewBox="0 0 1936 2592"
   sodipodi:docname="koumori.svg"
   inkscape:version="1.0.1 (3bc2e813f5, 2020-09-07)">
  <metadata
     id="metadata950">
    <rdf:RDF>
      <cc:Work
         rdf:about="">
        <dc:format>image/svg+xml</dc:format>
        <dc:type
           rdf:resource="http://purl.org/dc/dcmitype/StillImage" />
        <dc:title></dc:title>
      </cc:Work>
    </rdf:RDF>
  </metadata>
  <defs
     id="defs948" />
  <sodipodi:namedview
     pagecolor="#ffffff"
     bordercolor="#666666"
     borderopacity="1"
     objecttolerance="10"
     gridtolerance="10"
     guidetolerance="10"
     inkscape:pageopacity="0"
     inkscape:pageshadow="2"
     inkscape:window-width="1280"
     inkscape:window-height="971"
     id="namedview946"
     showgrid="false"
     inkscape:zoom="0.28510802"
     inkscape:cx="790.83349"
     inkscape:cy="1253.6189"
     inkscape:window-x="-8"
     inkscape:window-y="-8"
     inkscape:window-maximized="1"
     inkscape:current-layer="g952" />
  <g
     inkscape:groupmode="layer"
     inkscape:label="Image"
     id="g952">
    <path
       style="fill:#000000"
       d="m 1015.7232,1659.7603 c -0.702,-0.7021 -1.2,-4.0708 -1.2,-8.1187 v -6.9186 l -4.75,4.6181 c -2.6125,2.54 -5.5216,4.6184 -6.4648,4.6187 -2.5735,8e-4 -4.08836,-3.7017 -3.36516,-8.2245 1.21686,-7.6098 3.95256,-11.4484 24.18456,-33.9337 19.4669,-21.6351 25.2853,-29.0374 33.281,-42.3413 10.8505,-18.054 13.2921,-22.7223 12.3675,-23.6469 -1.42,-1.42 -16.5413,-3.8528 -23.9486,-3.8529 -8.0143,-2e-4 -25.4257,-1.2789 -47.30446,-3.4741 -7.975,-0.8002 -24.4,-1.9536 -36.5,-2.5631 -12.1,-0.6096 -25.15,-1.5117 -29,-2.0048 -3.85,-0.493 -11.5,-0.9087 -17,-0.9236 -8.4653,-0.023 -10.5371,0.2993 -13.5,2.0997 -3.8746,2.3545 -18.6605,14.4586 -19.1744,15.6966 -0.8617,2.076 -20.4911,18.6864 -29.6945,25.1275 -10.9315,7.6506 -16.2828,10.3603 -30.1311,15.2574 -12.5082,4.4233 -13.7628,4.5382 -14.9669,1.3713 -1.0309,-2.7117 0.196,-11.159 2.1674,-14.9227 1.6949,-3.2356 0.022,-2.998 -5.037,0.7156 -5.3982,3.9627 -18.4632,10.6913 -24.4666,12.6006 -4.9317,1.5685 -8.3128,0.686 -9.0797,-2.3699 -0.9745,-3.8824 1.1402,-12.4599 4.4338,-17.9849 9.6987,-16.2695 17.5907,-28.0895 26.6156,-39.863 14.9242,-19.4692 21.301,-32.3421 27.8708,-56.2628 6.2213,-22.6519 6.4626,-24.5512 6.4626,-50.866 0,-26.8825 0.9066,-33.4475 6.9526,-50.3497 l 3.2021,-8.9516 -3.0383,-6.4163 c -7.1258,-15.0483 -14.5308,-18.9511 -49.2772,-25.9713 -13.9365,-2.8158 -28.0392,-5.7734 -31.3392,-6.5725 -6.7593,-1.6367 -27.8615,-3.7291 -37.0977,-3.6785 -9.5752,0.052 -15.6502,2.0011 -34.1712,10.961 -16.4378,7.9521 -17.6654,8.7511 -25.5049,16.5996 -4.5297,4.5349 -12.0266,13.1953 -16.6596,19.2453 -4.6331,6.05 -9.9558,12.996 -11.8283,15.4355 -1.8725,2.4395 -5.3524,8.314 -7.7332,13.0543 -4.6565,9.2718 -6.4241,11.365 -9.1529,10.8395 -3.2004,-0.6163 -5.5685,-6.6983 -7.8438,-20.1449 -2.3822,-14.0785 -6.4444,-25.535 -11.5562,-32.5917 -3.4176,-4.7179 -11.84398,-11.6028 -16.66679,-13.6179 -5.81644,-2.4303 -51.27766,-11.6626 -61.28539,-12.4459 -12.54474,-0.9819 -22.14152,0.1935 -37.12055,4.5465 -13.62461,3.9594 -15.18559,4.6045 -35.37945,14.6217 -18.26362,9.0597 -33.28122,18.079 -40.46542,24.3029 -6.37869,5.526 -15.44904,15.9426 -18.94997,21.7626 -3.04557,5.063 -5.32135,6.2051 -7.91672,3.9729 -1.43204,-1.2317 -3.04884,-6.0105 -5.56929,-16.4612 -1.95331,-8.0992 -4.25361,-16.4062 -5.11179,-18.4601 -0.85817,-2.0539 -2.68705,-9.2991 -4.06417,-16.1005 -1.37712,-6.8013 -3.7733,-15.5943 -5.32485,-19.5399 -1.55155,-3.9456 -4.52549,-12.3488 -6.60876,-18.6738 -3.59112,-10.903 -9.01649,-22.3714 -15.8479,-33.5 -4.98743,-8.1247 -16.80358,-23.6767 -21.42002,-28.1923 -7.40944,-7.2476 -11.60681,-8.5976 -52.22111,-16.7965 -42.9855,-8.6776 -61.45163,-10.6585 -80.56587,-8.6424 -9.53071,1.0052 -39.26115,7.8167 -59.93413,13.7314 -11.27704,3.2265 -13.83808,3.4335 -14.29475,1.1556 -1.13019,-5.6376 17.94089,-19.9732 62.79475,-47.2023 37.79213,-22.9423 56.11092,-32.034 79.66678,-39.5393 5.40827,-1.7231 13.88322,-5.0851 18.83322,-7.4711 4.95,-2.3859 16.425,-7.9203 25.5,-12.2986 9.075,-4.3783 20.14924,-9.3995 24.60943,-11.1583 4.46019,-1.7587 13.87802,-6.3416 20.92851,-10.1841 7.05048,-3.8426 16.00124,-8.367 19.89056,-10.0543 3.88933,-1.6874 10.7534,-4.825 15.25351,-6.9725 4.5001,-2.1475 14.6251,-5.9539 22.5,-8.4586 7.87489,-2.5047 21.51799,-7.1894 30.31799,-10.4105 24.40145,-8.9315 42.14081,-14.8764 50.99006,-17.0881 4.40547,-1.1011 16.10994,-4.7309 26.00994,-8.0664 15.98065,-5.384 19.12186,-6.12 28,-6.5604 9.53127,-0.4728 11.89836,-0.1119 50.5,7.7 41.37918,8.3739 51.49368,11.0827 60.77448,16.2758 2.901,1.6233 9.426,4.8224 14.5,7.1091 9.2711,4.1782 19.5063,9.792 31.0219,17.0149 7.7059,4.8334 16.5256,9.3455 28.2266,14.4406 7.466,3.251 14.7129,5.081 42,10.6054 47.2178,9.5595 54.5227,11.2748 64.7975,15.2152 10.1229,3.8821 22.0592,9.6849 30.9928,15.0671 3.1973,1.9262 8.5973,4.3725 12,5.4361 7.4932,2.3422 45.9608,10.9038 46.5125,10.3521 0.4813,-0.4814 -3.1597,-5.7968 -7.1852,-10.4896 -3.4123,-3.9779 -20.4088,-38.4208 -23.5242,-47.6711 -6.8162,-20.2386 -6.7002,-44.7745 0.4061,-85.8469 2.9432,-17.01091 8.1701,-24.53061 32.3219,-46.50001 l 9.3444,-8.5 1.3928,-7.4452 c 2.0938,-11.1926 5.7131,-19.5883 13.6449,-31.6523 3.9426,-5.9964 8.6517,-13.315 10.4648,-16.2636 6.887,-11.2001 13.6145,-17.1389 19.415,-17.1389 8.0301,0 19.0667,2.9725 29.21986,7.8698 8.7072,4.1999 11.5853,6.2453 18.8506,13.3971 4.716,4.6423 10.2304,11.029 12.2543,14.1928 3.3246,5.1971 3.9397,5.6913 6.3743,5.1199 13.3733,-3.1382 38.0065,-0.5286 86.1946,9.1311 28.6349,5.7402 41.4329,9.5631 52.2318,15.6022 7.0395,3.9367 21.907,16.1547 28.8527,23.711 4.3683,4.7523 4.7298,4.9368 7.6651,3.9136 2.4964,-0.8703 6.8416,-0.3868 22.9155,2.5498 29.7277,5.4312 42.559,8.3537 45.3349,10.3259 1.375,0.9769 3.7902,4.3364 5.367,7.46561 3.7404,7.4226 3.783,15.7703 0.1646,32.2212 -2.5525,11.6047 -4.0365,15.3067 -7.4257,18.5248 -4.4809,4.2546 -17.0005,14.8174 -18.683,15.7628 -1.618,0.9092 -1.8985,2.1127 -1.7688,7.5909 0.085,3.5808 0.7045,8.178 1.3771,10.216 2.6529,8.0384 -1.3362,47.7015 -5.4147,53.8386 -0.7555,1.1368 -4.0388,4.9919 -7.2962,8.5669 -3.2574,3.575 -7.1461,8.6206 -8.6416,11.2125 -1.4955,2.5918 -4.3975,6.6854 -6.4489,9.0968 -2.0514,2.4113 -6.2048,7.4204 -9.2298,11.1311 -3.025,3.7108 -6.6985,7.3711 -8.1633,8.1341 -4.0716,2.1207 -6.191,9.5432 -5.1539,18.0507 l 0.8172,6.7043 25,-0.2354 c 32.7481,-0.3083 38.5491,-1.5397 67.3805,-14.3029 7.3593,-3.2579 18.7672,-7.9276 25.3509,-10.3773 6.5837,-2.4497 17.4375,-6.9853 24.1195,-10.0792 21.8173,-10.1018 33.8403,-13.5023 75.1491,-21.2551 30.391,-5.7037 42.9335,-8.1818 56,-11.0645 19.1737,-4.2299 33.4856,-5.4358 65,-5.4764 38.5414,-0.05 38.1451,-0.1434 66.8636,15.8137 7.2576,4.0327 17.4989,10.8743 23.5,15.6989 5.85,4.7033 15.3614,11.8766 21.1364,15.9407 5.775,4.0642 14.325,11.2544 19,15.9783 26.3368,26.6121 67.0796,68.2149 70.7089,72.2014 8.4214,9.2501 25.5275,31.2729 34.8713,44.8941 5.2623,7.6712 12.4993,17.6571 16.0821,22.1909 7.3789,9.3375 8.1105,10.6034 13.721,23.7433 l 4.0564,9.5 0.339,23.5 c 0.2119,14.6876 -0.06,24.8614 -0.7241,27.1305 -1.6659,5.6881 -3.722,6.1004 -28.2218,5.6601 -19.0855,-0.3431 -22.4389,-0.6652 -31.8328,-3.0578 -18.3337,-4.6695 -41.251,-7.5587 -66.0438,-8.3261 -16.6955,-0.5168 -23.5035,-0.3812 -26.243,0.5229 -2.649,0.8743 -5.4426,3.3286 -9.8407,8.6456 -3.3778,4.0837 -6.4646,7.4248 -6.8595,7.4248 -0.3949,0 -2.8921,2.8125 -5.5493,6.25 -2.6573,3.4375 -6.9424,8.5261 -9.5226,11.308 -2.5801,2.7819 -5.4198,6.4671 -6.3104,8.1893 -0.8906,1.7222 -2.622,3.8336 -3.8475,4.692 -3.004,2.1041 -12.0136,2.0168 -16.6321,-0.1611 -5.3148,-2.5062 -17.9976,-15.5627 -32.3537,-33.3069 -21.2649,-26.2834 -33.2218,-34.5378 -54.9741,-37.9516 -4.895,-0.7682 -20.6035,-1.0449 -47.3738,-0.8345 l -40.0506,0.3148 -13.9494,9.1131 c -7.6722,5.0123 -16.1209,10.3624 -18.7748,11.8892 -2.654,1.5268 -8.7254,5.8634 -13.492,9.6369 -10.2354,8.1028 -28.2026,17.8608 -32.8867,17.8608 -3.8181,0 -6.8069,-2.8046 -7.689,-7.215 -1.0584,-5.2918 -8.4021,-22.6277 -11.4609,-27.055 -6.341,-9.1778 -15.1156,-17.5896 -21.7606,-20.861 -6.3856,-3.1436 -6.7614,-3.2018 -21.1932,-3.2834 -22.3154,-0.1261 -27.0017,1.7261 -58.5184,23.1291 -14.967,10.1642 -20.3611,13.3296 -22.009,12.916 -1.6711,-0.4194 -2.6765,0.2046 -4.2874,2.6607 -6.1176,9.3276 -9.4435,15.972 -11.2403,22.4559 -1.0984,3.9638 -2.6831,8.4547 -3.5216,9.9798 -0.8385,1.5251 -2.9023,6.1479 -4.5863,10.2729 -1.684,4.125 -4.0038,9.2498 -5.1551,11.3884 -1.1512,2.1385 -2.4562,5.1541 -2.8999,6.7012 -0.961,3.3509 -13.3202,24.6288 -19.8487,34.172 -2.5441,3.7188 -5.6142,8.2188 -6.8225,10 -1.2084,1.7811 -3.4215,5.0382 -4.9182,7.2379 -1.4966,2.1997 -5.4892,9.3997 -8.8724,16 -3.3831,6.6003 -7.245,13.6099 -8.5818,15.5769 -1.3369,1.967 -4.5303,6.692 -7.0964,10.5 -2.5662,3.808 -6.6162,8.7886 -9,11.0679 -6.3497,6.0715 -31.3454,24.3709 -48.9762,35.8557 -8.4433,5.5 -18.2779,12.6524 -21.8548,15.8942 -6.7232,6.0935 -8.644,7.4436 -20.5634,14.4536 -7.3211,4.3057 -10.1936,4.9985 -12.2399,2.9522 z m 15.3,-12.5808 c 2.2,-1.1382 8.1069,-5.5907 13.1265,-9.8943 5.0195,-4.3037 16.7195,-12.7361 25.9999,-18.7388 9.2805,-6.0026 21.2165,-14.3276 26.5244,-18.5 5.308,-4.1723 12.2089,-9.5965 15.3353,-12.0536 3.1265,-2.4571 6.8722,-6.5071 8.3237,-9 1.4516,-2.4929 4.3366,-6.7825 6.4113,-9.5325 2.0746,-2.75 6.892,-11.075 10.7053,-18.5 7.0643,-13.755 12.2676,-22.1847 19.7819,-32.0476 2.3145,-3.038 6.0931,-8.8826 8.3967,-12.988 4.2761,-7.6206 9.2414,-16.2731 10.8827,-18.9644 2.3106,-3.7886 14.2425,-31.9051 17.594,-41.4589 2.5384,-7.2358 7.8165,-16.6455 14.1978,-25.3115 2.0463,-2.7789 5.4095,-7.7924 7.4739,-11.1411 4.4034,-7.1429 6.1185,-7.7854 5.5752,-2.0885 -0.2098,2.2 -0.2504,4 -0.09,4 0.1602,0 8.0296,-5.2439 17.4875,-11.6531 17.0469,-11.5519 26.6315,-16.6846 36.2741,-19.4256 7.3639,-2.0933 36.5196,-1.8636 42.2025,0.3325 8.1435,3.1469 14.852,8.4052 22.7828,17.8576 8.0554,9.601 11.9507,16.7094 16.998,31.0195 l 2.6914,7.6308 9.1627,-5.0237 c 5.0394,-2.763 12.8397,-7.9969 17.3339,-11.6308 4.4942,-3.634 13.0442,-9.6649 19,-13.402 5.9558,-3.7371 14.9154,-9.6284 19.9103,-13.0918 5.6849,-3.9418 10.5473,-6.5391 13,-6.9442 6.4055,-1.058 82.3497,-0.7464 89.2041,0.3659 24.7157,4.0109 38.3508,13.8929 66.5947,48.2648 19.8033,24.1 27.2277,29.2262 31.2009,21.5429 0.898,-1.7365 3.5133,-5.224 5.8118,-7.75 2.2985,-2.526 6.8014,-7.8553 10.0065,-11.8428 3.205,-3.9875 6.1238,-7.25 6.4861,-7.25 0.3624,0 3.517,-3.4249 7.0104,-7.611 9.8102,-11.7556 9.4623,-11.6654 42.9569,-11.1404 23.8215,0.3734 29.9301,0.8034 44.147,3.1076 9.075,1.4709 19.65,3.5289 23.5,4.5735 10.8802,2.952 20.0788,3.6656 41.3345,3.207 l 6.3344,-0.1367 -0.6784,-20.25 -0.6783,-20.25 -4.1073,-10.4855 c -2.9388,-7.5026 -5.8406,-12.7656 -10.2002,-18.5 -3.351,-4.408 -10.8146,-14.9895 -16.5857,-23.5145 -18.3342,-27.0831 -33.321,-45.5468 -54.7891,-67.5 -19.8785,-20.3277 -39.401,-41.2399 -43.9449,-47.073 -4.636,-5.9515 -10.7737,-11.2265 -25.185,-21.6452 -5.775,-4.175 -13.875,-10.5373 -18,-14.1384 -11.5181,-10.0553 -40.1467,-25.9056 -50.8253,-28.1397 l -3.3253,-0.6957 1.71,3.346 c 1.5491,3.0313 9.1692,13.5171 16.716,23.0026 2.8745,3.6129 8.7957,17.7504 13.1276,31.3434 3.095,9.7115 16.3524,31.3415 26.7006,43.563 8.8157,10.4116 17.7081,26.531 23.0595,41.8002 3.8551,10.9998 7.2473,16.9348 15.9231,27.8588 8.1478,10.2593 10.6828,15.2758 14.3795,28.4564 2.8948,10.3214 2.7358,13.4416 -0.7508,14.7314 -3.9101,1.4464 -20.9523,-4.6783 -30.8902,-11.1015 -8.3416,-5.3914 -25.6716,-22.4553 -33.8278,-33.3083 -7.455,-9.92 -19.1286,-25.019 -28.7136,-37.1391 -3.4191,-4.3235 -13.2303,-15.0609 -21.8026,-23.8609 -12.6964,-13.0337 -16.9912,-18.2247 -23.1656,-28 -13.3359,-21.1132 -19.202,-28.3293 -25.7866,-31.721 -6.5157,-3.3562 -9.4886,-3.8445 -16.2434,-2.6682 -5.8473,1.0183 -7.4994,2.0207 -5.434,3.2971 1.648,1.0186 10.1597,27.3812 17.1418,53.0921 5.6819,20.9235 7.5303,29.6122 9.4665,44.5 3.4579,26.5877 4.0063,36.3101 2.5392,45.0085 -1.5339,9.0937 -4.3402,12.4703 -11.2217,13.5022 -9.1248,1.3684 -11.4096,-2.0859 -19.5197,-29.5107 -19.5806,-66.2125 -22.2216,-74.2075 -28.0234,-84.8312 -9.7247,-17.8073 -24.6193,-32.606 -34.0964,-33.8772 -6.3176,-0.8474 -42.1305,9.5897 -54.2282,15.8039 -5.304,2.7244 -10.3517,5.736 -11.2171,6.6923 -1.441,1.5922 -1.1992,3.0854 2.8703,17.7254 8.026,28.873 9.548,35.6891 12.0453,53.9418 3.4562,25.2618 2.2527,43.4628 -3.4623,52.3613 -1.1267,1.7543 -8.3264,4.1784 -9.8625,3.3207 -1.4062,-0.7853 -9.5049,-17.0562 -15.4458,-31.0316 -12.6761,-29.8199 -29.6315,-57.4849 -39.954,-65.1904 -5.7677,-4.3054 -12.3487,-7.7516 -17.076,-8.942 -4.2512,-1.0705 -6.1897,-0.6981 -31.37,6.0252 -14.7613,3.9413 -28.5305,8.0291 -30.5981,9.0839 -2.0676,1.0549 -4.2273,1.9179 -4.7992,1.9179 -1.9175,0 -1.0652,-2.6019 1.7102,-5.2207 2.1037,-1.9851 9.4186,-4.6363 31.1264,-11.2817 32.269,-9.8784 32.5441,-9.9029 44.6286,-3.9629 8.971,4.4097 15.2241,9.6122 21.8139,18.1489 10.1194,13.1094 23.9785,38.4048 31.6771,57.8164 5.3632,13.5229 11.2329,25.5 12.4971,25.5 2.6498,0 4.507,-9.8396 4.5043,-23.8648 0,-19.5707 -3.3824,-39.5383 -10.8521,-64.1352 -7.9665,-26.2324 -9.1453,-30.4637 -9.1453,-32.826 0,-3.063 7.195,-8.595 18.9489,-14.5693 12.4117,-6.3086 41.843,-15.4998 52.3063,-16.335 6.1938,-0.4944 7.3156,-0.2633 13.5,2.7809 11.1585,5.4927 24.3895,20.4588 33.5498,37.9494 5.6232,10.7368 5.9205,11.6667 18.7032,58.5 13.0399,47.7754 14.3494,51.5 18.1068,51.5 3.3444,0 5.677,-3.4914 6.4589,-9.6678 0.852,-6.73 -0.7111,-27.0483 -3.5265,-45.8417 -2.9314,-19.5672 -20.3583,-76.5024 -27.7141,-90.5443 -5.333,-10.1803 -3.7588,-13.2814 8.311,-16.3726 11.9202,-3.0528 20.7802,-1.5057 30.781,5.375 5.8145,4.0005 14.0819,14.9941 23.0765,30.6861 7.5608,13.1907 6.9151,12.3741 28.4982,36.0436 16.422,18.0095 22.4944,25.4414 41.1083,50.3117 16.6218,22.2086 31.8111,36.4616 45.1378,42.3553 5.1569,2.2806 11.7541,4.2362 11.7538,3.4842 -10e-5,-0.1812 -1.0695,-3.795 -2.3764,-8.0307 -2.7914,-9.0468 -5.8749,-14.5999 -12.186,-21.9458 -6.7279,-7.8312 -12.1869,-17.5207 -16.4037,-29.116 -2.0476,-5.6303 -4.7428,-12.2295 -5.9893,-14.6647 -3.416,-6.6735 -13.4477,-21.5144 -17.5115,-25.9066 -7.9335,-8.5746 -24.2754,-33.9797 -27.1232,-42.1657 -7.951,-22.8554 -10.6197,-28.1732 -20.6635,-41.175 -4.5355,-5.8712 -9.3452,-12.5023 -10.6884,-14.7358 -2.7737,-4.6124 -7.2532,-6.6503 -12.4677,-5.6721 -2.489,0.4669 -3.9442,0.092 -6.038,-1.5547 -2.6647,-2.0961 -3.3422,-2.1487 -19.9054,-1.546 -20.2051,0.7352 -36.0799,2.6764 -54.6468,6.6824 -7.425,1.602 -21.375,4.2973 -31,5.9895 -51.9913,9.1407 -71.8127,14.2579 -91.8209,23.7051 -5.3235,2.5136 -16.1226,6.9959 -23.998,9.9607 -7.8755,2.9647 -20.2505,8.0118 -27.5,11.2157 -28.563,12.6231 -35.9781,14.1302 -69.524,14.1302 -32.0265,0 -30.1571,0.8118 -30.1571,-13.0965 0,-8.2912 0.3684,-10.6967 2.1737,-14.1933 1.3099,-2.5371 2.0776,-5.6548 1.9318,-7.8453 -0.212,-3.1866 0.7549,-4.9138 7.838,-14 4.4439,-5.7007 10.1662,-13.5149 12.7161,-17.3649 2.55,-3.85 7.1972,-9.7985 10.3273,-13.2188 5.1564,-5.6347 5.8546,-6.9497 7.4338,-14 2.3711,-10.586 3.7978,-33.528 2.4242,-38.9828 -0.5833,-2.3167 -0.8945,-7.8685 -0.6916,-12.3374 0.4199,-9.2457 -1.1577,-7.1662 17.5553,-23.1403 l 8.996,-7.6794 2.7798,-14.0626 c 2.8299,-14.3159 2.8633,-17.9174 0.2247,-24.2325 -1.3721,-3.284 -1.9412,-3.6299 -7.8443,-4.7695 -3.5006,-0.6758 -16.9171,-3.66961 -29.8143,-6.65271 -12.8975,-2.9832 -24.2715,-5.424 -25.2759,-5.424 -1.7161,0 -1.7305,0.1849 -0.2398,3.0677 1.9004,3.6749 1.6031,6.8281 -0.785,8.32511 -2.6355,1.6521 -4.5326,0.02 -10.9345,-9.40901 -6.6988,-9.866 -23.1419,-25.3416 -32.272,-30.3732 -3.3239,-1.8318 -9.1935,-4.5036 -13.0435,-5.9372 -6.8529,-2.552 -55.5122,-13.7737 -67.7899,-15.6336 -3.4155,-0.5174 -10.7101,-1.6647 -16.2101,-2.5495 -16.9865,-2.7328 -24.1438,-3.1748 -31.4125,-1.9402 -3.7411,0.6355 -7.3309,1.4823 -7.9773,1.8818 -0.6464,0.3995 -2.5331,1.1158 -4.1925,1.5917 -2.7106,0.7774 -2.9545,0.6678 -2.4,-1.0791 0.3394,-1.0695 0.1994,-1.9445 -0.3111,-1.9445 -0.5104,0 -2.7913,-2.8811 -5.0686,-6.4024 -9.7059,-15.0081 -26.1595,-26.2883 -43.93136,-30.1183 l -8.2935,-1.7874 -3.5504,3.4041 c -3.9701,3.8065 -20.9774,29.069 -25.9543,38.5525 -1.7747,3.3816 -3.9798,9.6816 -4.9001,14 -2.6316,12.3474 -3.4172,14.253 -6.5419,15.8689 -1.5768,0.8154 -3.2268,2.1191 -3.6667,2.8971 -0.4398,0.778 -4.3997,4.3899 -8.7997,8.0264 -10.2033,8.433 -19.218,18.6689 -22.0692,25.05911 -1.9657,4.4055 -4.2182,15.3541 -8.5378,41.5 -1.6652,10.0791 -1.2742,33.5062 0.726,43.5 0.8807,4.4 2.6353,10.7563 3.8993,14.125 3.4803,9.2762 18.5331,39.2834 21.4299,42.7198 1.4035,1.6649 4.5768,5.981 7.0518,9.5912 3.2219,4.6996 5.7102,7.1453 8.7608,8.6105 4.7546,2.2837 7.9585,5.0675 6.97,6.056 -0.3576,0.3576 -3.9308,-0.076 -7.9405,-0.9642 -4.0096,-0.8879 -17.1903,-3.4251 -29.2903,-5.6383 -27.3411,-5.0007 -36.6074,-7.6291 -45.2297,-12.8292 -8.1803,-4.9336 -18.9368,-9.961 -30.3166,-14.1695 -5.4938,-2.0317 -23.8595,-6.2212 -52.4537,-11.9654 -24.2,-4.8616 -46.25,-9.7391 -49,-10.8389 -10.7559,-4.302 -24.9979,-11.373 -31.3437,-15.5619 -3.6609,-2.4166 -8.6813,-5.4069 -11.1563,-6.6451 -2.475,-1.2381 -5.7527,-3.1339 -7.2839,-4.2128 -1.5311,-1.0789 -8.1089,-4.3518 -14.6172,-7.2731 -6.5083,-2.9212 -13.6131,-6.4349 -15.7884,-7.8081 -6.581,-4.1544 -18.0461,-7.1433 -58.31048,-15.2014 -48.53104,-9.7124 -49.21105,-9.7237 -74,-1.2307 -9.075,3.1092 -20.325,6.6055 -25,7.7696 -8.68561,2.1627 -30.27566,9.4109 -53.5,17.9611 -7.15,2.6324 -19.075,6.6791 -26.5,8.9927 -16.24434,5.0618 -39.801,15.5609 -63.5,28.3018 -5.5,2.9569 -14.05,6.9865 -19,8.9547 -4.95,1.9682 -19.65686,8.7712 -32.68191,15.1179 -13.02505,6.3467 -26.97505,12.5324 -31,13.746 -16.45939,4.9632 -41.29981,15.8337 -58.81809,25.7396 -30.53468,17.2663 -72.83707,43.649 -71.74252,44.7435 0.21892,0.2189 11.38804,-2.3381 24.82027,-5.6822 22.35769,-5.5663 25.60576,-6.1262 38.42225,-6.6232 19.23064,-0.7457 32.23625,0.7406 68.14593,7.7879 36.76807,7.2157 46.55164,9.5133 51.7807,12.16 7.31516,3.7027 18.09281,15.4215 29.36614,31.9305 7.48634,10.9633 15.45969,27.6583 21.34181,44.6866 3.35318,9.7073 6.47036,18.3621 6.92708,19.233 0.45671,0.8709 1.7907,6.4959 2.96442,12.5 1.17372,6.0041 3.42319,14.9666 4.99883,19.9166 1.57563,4.95 3.91643,12.9955 5.20177,17.8789 l 2.33698,8.8788 2.5811,-3.8788 c 10.12638,-15.218 28.11006,-28.4371 60.35524,-44.365 28.02005,-13.8408 49.01646,-19.9025 69.20292,-19.979 13.18083,-0.05 60.53123,8.6824 69.55801,12.828 5.68505,2.6108 15.09175,10.2608 18.63995,15.1589 5.452,7.5263 11.047,22.0867 12.8467,33.4323 0.9201,5.8002 1.9158,10.5411 2.2127,10.5353 0.2968,-0.01 2.4567,-3.2684 4.7996,-7.25 4.929,-8.3766 22.1606,-30.7459 32.3112,-41.945 7.6367,-8.4256 11.7153,-11.2761 31.9289,-22.3147 8.98,-4.904 16.6354,-8.2699 22.8645,-10.0533 l 9.3645,-2.6809 18.6355,1.0992 c 16.3755,0.9659 22.4563,1.8746 50.1405,7.4929 28.2739,5.738 32.3365,6.8118 39.6136,10.4706 8.9215,4.4857 15.91,10.7643 20.0693,18.0307 1.4674,2.5636 2.7744,4.8101 2.9044,4.9921 0.1301,0.1821 1.2051,-0.1874 2.3891,-0.8211 1.713,-0.9167 2.6497,-0.8264 4.5857,0.4421 3.3046,2.1653 3.0571,4.8314 -0.8628,9.2951 -4.5936,5.2307 -5.9415,7.6654 -8.9984,16.2529 -5.7352,16.1119 -6.6913,22.6972 -6.6989,46.1395 -0.01,23.7232 -1.0065,31.5543 -5.8597,45.9428 -1.5616,4.6297 -3.4158,10.8927 -4.1204,13.9177 -2.6355,11.3149 -14.914,35.7041 -23.1582,46 -13.4214,16.7616 -18.9243,24.1171 -20.7613,27.7509 -1.182,2.3381 -4.3576,7.6342 -7.057,11.7693 -5.0314,7.7073 -7.4498,13.319 -6.8753,15.9534 0.4975,2.2813 13.3638,-3.7373 24.9458,-11.6692 10.1495,-6.9508 14.9532,-8.8178 17.4201,-6.7704 2.1072,1.7488 1.8028,4.1115 -1.0233,7.9421 -2.8136,3.8136 -6.102,11.7729 -5.2259,12.649 0.7389,0.7389 12.3862,-3.0712 20.2082,-6.6108 9.2884,-4.2031 21.4569,-13.1465 34.2885,-25.2009 17.846,-16.7651 23.3281,-21.4273 29.7244,-25.279 5.7247,-3.4473 6.1298,-3.5349 16.4283,-3.553 16.1489,-0.028 73.3146,3.5659 96.05876,6.0398 4.675,0.5085 15.25,1.1888 23.5,1.5117 16.926,0.6627 33.5271,2.9518 38,5.2398 6.2203,3.182 6.9195,6.6667 2.6699,13.3059 -1.5566,2.4317 -4.7809,7.7964 -7.1651,11.9214 -11.3165,19.5793 -20.2169,30.8531 -47.3042,59.9187 -10.242,10.99 -15.7193,18.3297 -15.6735,21.0027 0.028,1.6273 4.3384,-2.6113 8.622,-8.478 1.7966,-2.4606 2.4527,-2.762 4,-1.8375 1.5497,0.926 1.8979,2.6083 2.1396,10.3392 l 0.2887,9.2332 3.2113,-2.4448 c 1.7662,-1.3447 5.0113,-3.3762 7.2113,-4.5143 z M 617.69754,1294.6458 c -2.6481,-2.8188 -2.6987,-4.9338 -0.2472,-10.3327 6.7207,-14.801 47.7102,-64.0296 68.1092,-81.7994 15.9218,-13.8698 28.2373,-26.5553 31.2116,-32.1497 2.6498,-4.9837 5.2946,-14.4917 5.9326,-21.3273 0.3162,-3.3881 0.2626,-3.4372 -5.1805,-4.7442 -6.0524,-1.4533 -20.156,-1.8579 -27.6823,-0.7941 -20.0004,2.8268 -38.0539,12.5043 -59.831,32.0721 -8.3305,7.4853 -26.889,20.9643 -50.98668,37.0314 -8.8,5.8674 -22.075,15.1936 -29.5,20.7249 -7.425,5.5313 -17.775,12.6097 -23,15.7298 -5.225,3.12 -14.9,8.891 -21.5,12.8244 -16.23955,9.6782 -65.52799,34.0793 -68.83781,34.0793 -2.01702,0 -2.66219,-0.4967 -2.66219,-2.0497 0,-2.5475 2.32019,-7.1412 4.53547,-8.9797 0.91703,-0.7611 4.84885,-5.9033 8.73736,-11.4272 5.13485,-7.2944 14.48181,-17.5304 34.14859,-37.3968 29.2158,-29.5123 40.4806,-39.8717 67.57858,-62.147 9.625,-7.912 20.67965,-17.1112 24.56589,-20.4426 3.88624,-3.3313 13.72504,-11.6668 21.86399,-18.5232 8.139,-6.8564 15.8285,-13.8314 17.0878,-15.5 2.519,-3.3375 5.4823,-12.3362 5.4823,-16.6479 0,-3.1989 1.0381,-2.7983 -17.5,-6.7522 -27.78707,-5.9264 -44.02367,-6.1114 -63.19582,-0.7198 -5.05771,1.4224 -9.76502,2.5861 -10.46068,2.5861 -2.93878,0 -67.05766,30.8941 -76.9357,37.0695 -4.17573,2.6106 -10.84092,6.3825 -14.81155,8.382 -3.97063,1.9996 -13.15412,7.2908 -20.40778,11.7582 -22.24551,13.7006 -38.6619,20.6841 -71.18845,30.2832 -9.9,2.9217 -20.09223,6.1237 -22.64939,7.1156 -3.89913,1.5124 -4.90768,1.589 -6.25,0.475 -2.61695,-2.1719 -1.88262,-7.1071 2.02113,-13.5835 12.99551,-21.5598 32.56595,-40.7595 47.73719,-46.833 3.64249,-1.4582 15.73934,-7.8807 26.88189,-14.2722 17.79425,-10.2071 24.83209,-14.7037 34.75918,-22.2085 1.375,-1.0395 5.95601,-3.9817 10.18003,-6.5381 6.73644,-4.0771 8.37462,-4.6482 13.33334,-4.6482 6.93472,0 7.03364,1.8471 0.19237,3.5923 -5.83283,1.488 -15.60647,7.6918 -29.98001,19.0298 -6.76257,5.3344 -45.33728,27.4302 -53.80662,30.8207 -10.01708,4.0101 -24.60499,16.731 -34.6413,30.2077 -8.13675,10.9261 -12.95525,18.3495 -11.91051,18.3495 0.31066,0 2.04261,-0.6728 3.84877,-1.4951 1.80616,-0.8222 10.63993,-3.5468 19.63061,-6.0545 29.24964,-8.1584 46.19452,-15.6228 69.50975,-30.6197 7.62103,-4.902 17.07103,-10.5304 21,-12.5074 3.92896,-1.9771 9.67734,-5.3139 12.77416,-7.4152 5.16699,-3.5059 35.66211,-18.9432 62.40786,-31.5922 18.3217,-8.665 40.88091,-14.2216 57.96155,-14.2767 12.1992,-0.039 47.31538,5.712 55.87298,9.1508 4.8125,1.9339 5.9561,6.301 4.0574,15.4934 -2.9897,14.4741 -6.1625,18.3454 -34.35526,41.919 -61.40609,51.3451 -70.86861,59.4977 -80.57512,69.4212 -4.4,4.4983 -11.15,10.9052 -15,14.2375 -16.1833,14.0072 -38.19335,35.7888 -43.62629,43.1737 -3.21064,4.3641 -5.62519,8.1471 -5.36566,8.4066 0.25952,0.2595 9.79096,-4.2111 21.18097,-9.9348 29.58701,-14.8679 53.64802,-30.1631 77.19785,-49.0735 7.48722,-6.0123 19.01313,-14.5927 25.61313,-19.0676 6.6,-4.4749 16.275,-11.3464 21.5,-15.27 5.22498,-3.9235 12.42498,-9.1079 15.99998,-11.5209 3.575,-2.413 10.2844,-7.7538 14.9096,-11.8685 24.7989,-22.0612 43.9455,-32.1107 67.1203,-35.2296 14.9751,-2.0153 35.8478,0.9103 40.6327,5.6952 3.0132,3.0132 3.1071,9.6593 0.3017,21.3618 -4.2432,17.7005 -11.4328,26.642 -44.3239,55.1239 -10.3589,8.9703 -61.9999,70.9426 -59.1159,70.9426 2.8089,0 20.1502,-13.5195 30.0613,-23.4361 4.4473,-4.4496 11.6473,-11.2245 16,-15.0553 4.3528,-3.8309 15.3392,-14.1789 24.4142,-22.9956 28.915,-28.0922 51.3039,-44.5563 72,-52.9464 8.1592,-3.3078 22.8905,-7.3539 30.609,-8.4072 l 5.891,-0.8039 -4.3772,-1.2506 c -2.4887,-0.711 -3.9987,-1.6252 -3.5,-2.1189 0.4825,-0.4776 10.7772,-1.0069 22.8772,-1.1762 24.1295,-0.3375 26.5511,0.1 34.5,6.2263 1.925,1.4838 5.525,3.7226 8,4.9751 2.475,1.2526 5.85,3.2752 7.5,4.4948 1.65,1.2195 12.45,6.4134 24,11.5419 20.6215,9.1565 27.4104,12.862 30.6043,16.7045 0.8823,1.0615 2.4573,2.564 3.5,3.3388 5.1491,3.8265 5.3276,7.9088 0.3457,7.9088 -2.0335,0 -4.4791,-1.508 -8.643,-5.3296 -6.4229,-5.8949 -7.9927,-6.8641 -20.307,-12.5372 -24.2461,-11.17 -37.2367,-18.159 -46.9921,-25.2817 -7.2613,-5.3018 -12.6222,-6.5442 -30.2852,-7.0188 -10.3803,-0.2789 -15.1425,-0.096 -13.9823,0.5367 2.344,1.2784 3.2258,2.6988 3.2443,5.2256 0.025,3.4156 -3.0927,5.2486 -11.0159,6.4764 -17.1968,2.6649 -36.1703,10.1329 -50.9852,20.0678 -12.3487,8.2811 -31.3684,24.3237 -48.9836,41.3164 -4.675,4.5098 -13.675,12.4021 -20,17.5385 -6.325,5.1364 -15.325,12.9916 -20,17.456 -9.0219,8.6156 -24.9157,20.2494 -32.147,23.5307 -5.8865,2.6711 -9.9815,2.5758 -12.6787,-0.2953 z m 472.32566,-170.14 c -0.55,-0.2201 -3.6221,-1.1305 -6.8269,-2.0231 -7.0543,-1.9649 -13.9894,-7.894 -16.9862,-14.5224 -1.6157,-3.5736 -2.0086,-6.3973 -1.9085,-13.7159 0.1399,-10.2252 1.675,-17.6312 3.5276,-17.0187 0.8067,0.2667 1.3598,4.5852 1.7051,13.3147 0.5714,14.4425 1.609,17.5029 7.4428,21.9525 7.4019,5.6457 20.3108,7.1167 29.3798,3.3478 5.8207,-2.419 8.4597,-1.9679 7.9864,1.3651 -0.4939,3.4782 -8.7893,7.1557 -16.8201,7.4566 -3.575,0.1339 -6.95,0.063 -7.5,-0.1566 z m 33,-34.2022 c -7.7496,-0.9225 -10.2551,-2.3308 -15.8902,-8.9318 -6.1398,-7.1923 -7.1559,-9.659 -6.2579,-15.1923 0.8662,-5.338 3.4713,-8.3332 10.1928,-11.7192 5.3467,-2.6934 6.8239,-2.9834 14.4553,-2.8371 10.6629,0.2043 16.5475,2.0273 22.4732,6.9622 6.2546,5.2087 8.6935,9.3657 8.6935,14.8177 0,7.0879 -1.8132,9.591 -9.9953,13.7983 -6.4741,3.329 -8.0744,3.7418 -13.9908,3.6091 -3.6743,-0.082 -8.0306,-0.3106 -9.6806,-0.5069 z m 21.6142,-8.4257 c 4.5199,-2.2617 5.7313,-3.3949 6.2151,-5.8142 0.9106,-4.5528 -1.0034,-8.5954 -6.0128,-12.7002 -5.364,-4.3955 -9.874,-6.0984 -18.4718,-6.9749 -11.156,-1.1373 -20.0948,3.0574 -21.4057,10.045 -0.9013,4.8046 -0.084,6.5228 6.3358,13.3204 l 5.7252,6.062 11,-0.5644 c 9.3813,-0.4814 11.8261,-0.9778 16.6142,-3.3737 z m -10.5688,-7.8441 c -0.7825,-1.2662 1.1357,-5.0735 2.5562,-5.0735 1.3954,0 0.6989,5.2472 -0.76,5.7257 -0.6371,0.2089 -1.4454,-0.085 -1.7962,-0.6522 z m -12.9991,-1.9986 c -0.6937,-1.1224 1.4375,-6.0749 2.6142,-6.0749 0.4617,0 0.8395,1.575 0.8395,3.5 0,3.3784 -2.0243,4.8877 -3.4537,2.5749 z m 47.1001,3.6638 c -8.6349,-5.41 -12.4981,-15.3604 -12.7226,-32.7693 -0.167,-12.9471 0.7257,-16.3784 7.0161,-26.9694 5.1208,-8.6217 10.2649,-13.7466 16.8023,-16.73951 4.621,-2.1156 6.5281,-2.4118 13.5908,-2.1107 7.9695,0.3397 8.4141,0.492 14.8521,5.08721 8.8553,6.3204 13.1056,11.5093 16.9158,20.6512 4.0194,9.6438 5.1128,22.2931 2.4722,28.5995 -4.7966,11.4555 -10.5421,17.009 -22.9422,22.1752 -7.2339,3.0139 -9.4548,3.4484 -20.1309,3.9389 -11.4422,0.5256 -12.1791,0.439 -15.8536,-1.8631 z m 7.7876,-2.632 c 0.3037,-0.4913 4.7019,-1.2217 9.7739,-1.6232 7.3782,-0.5839 10.7268,-1.4157 16.7497,-4.1604 4.1403,-1.8868 8.5887,-4.4189 9.8854,-5.6268 2.9658,-2.763 7.6724,-12.0405 8.5464,-16.8465 0.8932,-4.9118 -2.6584,-21.4196 -4.3795,-20.3559 -0.3805,0.2351 -1.4963,3.3996 -2.4796,7.0321 -3.6123,13.3451 -10.592,16.5183 -23.2066,10.5505 -8.0053,-3.7871 -9.7419,-6.4628 -9.713,-14.9652 0.026,-7.793 1.5672,-11.2325 7.3874,-16.4907 5.2996,-4.7878 5.0616,-7.1919 -0.6869,-6.941 -5.1897,0.2265 -11.154,3.2357 -14.9059,7.5207 -4.6413,5.3008 -9.3309,13.1572 -11.4464,19.1763 -3.6285,10.3236 -1.9213,29.6543 3.2617,36.9331 3.3342,4.6826 9.8276,8.0394 11.2134,5.797 z m 28.4869,-37.5114 c 1.5163,-1.827 5.0791,-14.307 5.0791,-17.7912 0,-3.0998 -5.3105,-7.8041 -8.8096,-7.8041 -2.5647,0 -8.7423,5.2329 -10.7415,9.0988 -0.7969,1.541 -1.4489,5.0436 -1.4489,7.7834 0,4.301 0.3757,5.2447 2.75,6.9071 1.5125,1.0591 3.425,2.1792 4.25,2.4892 2.8837,1.0835 7.7648,0.7098 8.9209,-0.6832 z m -168.6761,24.7397 c -4.3696,-4.6435 -11.9465,-21.8841 -13.3317,-30.335 -1.3251,-8.0842 -1.1086,-19.1969 0.4603,-23.6243 1.8073,-5.1003 8.6915,-15.37121 13.3077,-19.85451 7.7996,-7.5748 22.9081,-12.3382 35.7035,-11.2564 13.6271,1.1521 26.9499,9.5877 32.2494,20.4195 2.5756,5.26431 2.8558,6.93041 3.2111,19.08781 0.3478,11.9027 0.1495,13.9803 -1.8637,19.524 -1.2391,3.4122 -3.5452,8.0898 -5.1246,10.3949 -4.6027,6.7172 -12.3927,14.1645 -15.4963,14.8145 -1.5733,0.3295 -5.0669,1.2561 -7.7635,2.0591 -2.8509,0.849 -11.7472,1.73 -21.2552,2.105 l -16.3523,0.6449 z m 42.8193,-3.6749 c 7.0795,-3.3528 14.1466,-10.6519 17.583,-18.1601 2.1337,-4.6618 2.8411,-7.9516 3.1718,-14.75 0.4431,-9.1068 -0.3769,-10.8264 -2.8999,-6.0811 -0.7805,1.4679 -3.174,3.9429 -5.319,5.5 -3.4982,2.5394 -4.7131,2.8311 -11.7899,2.8311 -8.8101,0 -14.0581,-1.9572 -17.7156,-6.607 -1.6536,-2.1022 -2.0899,-4.0552 -2.0725,-9.2779 0.025,-7.4436 2.1637,-13.18701 6.3461,-17.03941 1.4475,-1.3334 2.6319,-3.1559 2.6319,-4.05 0,-2.8578 2.2568,-4.0236 7.95,-4.1066 l 5.55,-0.081 -4,-1.8929 c -8.4999,-4.0222 -26.9897,-1.4987 -35.2904,4.8164 -5.2727,4.0114 -5.6757,4.4571 -11.2203,12.40711 -5.6014,8.0318 -6.5761,12.493 -5.3507,24.4909 1.037,10.1525 5.3645,22.4826 11.1377,31.7335 l 2.4297,3.8934 16.7111,-0.5261 c 15.2779,-0.4808 17.1773,-0.7468 22.147,-3.1004 z m 6.3889,-37.2804 c 4.4453,-1.7059 10.5067,-15.4199 9.1697,-20.74701 -1.3377,-5.3298 -16.6843,-7.7319 -22.1135,-3.4613 -5.3496,4.208 -8.4177,15.93031 -5.2592,20.09431 2.9457,3.8834 12.9259,6.139 18.203,4.114 z"
       id="path960" />
  </g>
  <g
     inkscape:groupmode="layer"
     id="layer4"
     inkscape:label="Image 1"
     style="display:inline">
    <path
       style="fill:#000000;fill-opacity:1;stroke:#ababab;stroke-width:0.43843;stroke-opacity:0"
       d="m 1066.3112,977.92631 c -12.5889,0.073 -25.7799,4.76064 -33.5579,15.08088 -4.0378,5.97364 -9.1406,12.01081 -9.8228,19.46861 -1.1496,15.9102 3.4193,31.8208 11.6587,45.3698 1.4218,2.7461 3.241,6.3504 6.9763,5.4736 10.4153,-0.2955 20.8767,-0.4598 31.2348,-1.6099 11.6712,-2.2914 20.8865,-11.5696 26.0694,-21.9027 3.7552,-7.2612 3.5694,-15.7011 3.4244,-23.6538 0.1799,-3.5182 -4.5589,-5.2178 -6.6997,-2.4448 -3.2844,4.1053 -7.0276,9.2961 -12.9199,9.0649 -5.6748,-0.01 -12.2883,0.3319 -16.8249,-3.6795 -3.7252,-2.5952 -3.1259,-7.4476 -2.9722,-11.3958 0.057,-5.4427 2.775,-10.36915 6.5567,-14.13423 1.3651,-1.28925 1.7916,-3.38966 2.5741,-4.80047 3.2434,-1.52766 7.0552,-0.0823 10.238,-1.56276 2.771,-1.85995 1.2001,-5.89026 -1.6732,-6.63383 -4.4107,-2.13264 -9.4196,-2.66207 -14.2618,-2.64 z"
       id="path965" />
    <path
       style="fill:#000000;fill-opacity:1;stroke:#ababab;stroke-width:0.43843;stroke-opacity:0"
       d="m 1188.283,1000.5757 c -9.5411,0.2621 -17.6889,6.8926 -22.4111,14.8131 -4.9245,7.4325 -9.1389,15.7618 -9.2749,24.876 -0.4813,8.9463 0.5693,18.2268 4.2164,26.4676 3.0631,4.842 7.7974,9.7393 13.8329,10.1233 2.7912,-0.709 5.454,-1.9733 8.4389,-2.0012 10.1262,-0.5038 20.1504,-3.3878 28.6531,-8.9963 6.0728,-4.2711 9.4115,-11.4506 11.6415,-18.3272 1.8877,-5.9913 -0.1227,-12.2676 -1.2503,-18.2099 -1.1087,-3.0787 -1.6341,-7.804 -5.5104,-8.367 -4.0567,0.8819 -4.0198,5.9675 -5.3892,9.13 -1.5134,4.5489 -3.2579,10.9435 -8.9197,11.5353 -5.7981,0.053 -11.6074,-2.4934 -15.9436,-6.2741 -2.9919,-3.2741 -1.6625,-8.1909 -1.7238,-12.211 0.1538,-7.4723 8.7116,-10.5005 10.6302,-17.1861 0.6912,-4.1339 -3.6105,-5.6748 -6.99,-5.3725 z"
       id="path967" />
  </g>
  <g
     inkscape:groupmode="layer"
     id="layer5"
     inkscape:label="Image 2" />
</svg>
