<?xml version="1.0" encoding="UTF-8" standalone="no"?>
<svg
   xmlns:dc="http://purl.org/dc/elements/1.1/"
   xmlns:cc="http://creativecommons.org/ns#"
   xmlns:rdf="http://www.w3.org/1999/02/22-rdf-syntax-ns#"
   xmlns:svg="http://www.w3.org/2000/svg"
   xmlns="http://www.w3.org/2000/svg"
   xmlns:sodipodi="http://sodipodi.sourceforge.net/DTD/sodipodi-0.dtd"
   xmlns:inkscape="http://www.inkscape.org/namespaces/inkscape"
   width="200mm"
   height="200mm"
   viewBox="0 0 200 200"
   version="1.1"
   id="svg197"
   inkscape:version="1.0.1 (3bc2e813f5, 2020-09-07)"
   sodipodi:docname="kuma.svg">
  <defs
     id="defs191" />
  <sodipodi:namedview
     id="base"
     pagecolor="#ffffff"
     bordercolor="#666666"
     borderopacity="1.0"
     inkscape:pageopacity="0.0"
     inkscape:pageshadow="2"
     inkscape:zoom="0.35"
     inkscape:cx="68.008264"
     inkscape:cy="775.53245"
     inkscape:document-units="mm"
     inkscape:current-layer="layer1"
     inkscape:document-rotation="0"
     showgrid="false"
     inkscape:window-width="1366"
     inkscape:window-height="738"
     inkscape:window-x="0"
     inkscape:window-y="332"
     inkscape:window-maximized="0" />
  <metadata
     id="metadata194">
    <rdf:RDF>
      <cc:Work
         rdf:about="">
        <dc:format>image/svg+xml</dc:format>
        <dc:type
           rdf:resource="http://purl.org/dc/dcmitype/StillImage" />
        <dc:title />
      </cc:Work>
    </rdf:RDF>
  </metadata>
  <g
     inkscape:label="レイヤー 1"
     inkscape:groupmode="layer"
     id="layer1"
     style="mix-blend-mode:multiply">
    <path
       style="fill:#000000;stroke-width:0.576036"
       d="m 118.93037,181.64394 c -2.53456,-0.44058 -6.4228,-1.15717 -8.64053,-1.59241 -2.83947,-0.55727 -5.04457,-0.64322 -7.45443,-0.29056 -2.26113,0.33089 -3.882655,0.29099 -4.779401,-0.1176 -0.74647,-0.34011 -3.14345,-0.61839 -5.32662,-0.61839 -2.18317,0 -5.735198,-0.42107 -7.893391,-0.9357 -2.158193,-0.51464 -4.1832,-0.90867 -4.50002,-0.87563 -2.762045,0.28802 -19.234358,0.54029 -20.01724,0.30655 -0.554435,-0.16553 -1.008063,-0.64251 -1.008063,-1.05995 0,-1.4502 -3.00927,-2.83307 -5.83835,-2.68291 -2.340932,0.12425 -2.949007,-0.10224 -4.749922,-1.76921 -1.135922,-1.05144 -2.588064,-2.36533 -3.226984,-2.91977 -2.464019,-2.13819 -0.888229,-5.53104 3.699135,-7.96463 3.02936,-1.60707 2.838302,-0.94431 3.806617,-13.20468 1.084602,-13.73272 4.211601,-28.83348 7.555469,-36.4865 0.946954,-2.16727 1.637238,-4.01163 1.533965,-4.0986 -0.103273,-0.087 -1.613457,-0.61806 -3.355965,-1.18023 -17.371458,-5.60433 -21.627634,-9.163796 -24.813766,-20.751886 -2.300912,-8.3685 -1.08349,-19.763033 3.122933,-29.229249 l 1.477501,-3.324998 -1.398815,-2.06127 c -1.789846,-2.637484 -2.246656,-5.160966 -1.801436,-9.951363 0.525803,-5.657435 1.848713,-8.907026 5.053628,-12.413714 3.404762,-3.725352 6.405338,-4.925889 12.31158,-4.925889 5.269275,0 9.088143,1.311662 11.8448,4.068319 l 2.175942,2.175942 3.646289,-1.140527 c 3.15386,-0.986498 5.060544,-1.123382 14.118359,-1.01358 l 10.472074,0.126947 1.43302,-1.70305 c 0.78816,-0.936677 2.815346,-2.45778 4.504861,-3.380228 2.60504,-1.422313 3.87176,-1.712784 8.33585,-1.911486 3.26273,-0.145228 6.0836,0.03617 7.41975,0.477146 3.08542,1.01828 6.42429,4.277623 8.51721,8.314338 1.55352,2.996343 1.81202,4.106271 1.82516,7.83637 0.0112,3.168402 -0.2545,4.757359 -0.98065,5.865597 -0.96727,1.476241 -0.94619,1.62631 0.73231,5.213172 2.50401,5.350946 3.59697,11.180036 3.26434,17.409664 -0.36953,6.920663 -1.74656,11.970059 -5.07339,18.603389 -2.69185,5.36728 -2.93824,6.45416 -1.46308,6.45416 0.39409,0 2.77654,1.01249 5.29434,2.24997 8.38259,4.11998 22.57136,17.713256 27.85896,26.689726 l 2.54386,4.31858 1.95141,-1.15136 c 1.6079,-0.94869 2.64816,-1.10151 5.90956,-0.86816 7.04472,0.50405 11.52796,4.33581 13.84316,11.83154 2.69559,8.72731 0.52077,16.17828 -5.65425,19.3715 -1.37937,0.7133 -7.54527,1.98713 -9.98481,2.06278 -0.20235,0.006 -0.52795,0.86447 -0.72355,1.9071 -0.67061,3.5747 -4.20524,9.9457 -7.48064,13.48352 -7.68824,8.30422 -24.76659,13.17266 -38.08678,10.85722 z m 19.81648,-6.61972 c 11.46092,-3.77265 16.75748,-8.32561 20.04092,-17.22735 l 1.13717,-3.08299 -3.88854,-3.82944 c -5.74813,-5.66075 -6.2543,-8.91387 -3.02587,-19.44689 l 1.43223,-4.67276 -2.49125,-4.15978 c -3.1448,-5.25105 -8.65013,-11.23889 -16.67107,-18.13218 -6.13328,-5.271016 -9.39031,-7.286766 -14.04462,-8.692106 l -2.30285,-0.69533 -3.35957,3.04025 c -4.16709,3.770986 -9.31678,6.512196 -17.443531,9.285246 -6.1522,2.09929 -6.44537,2.14116 -15.20173,2.17118 -4.910704,0.0168 -10.376782,-0.1611 -12.146838,-0.39541 l -3.218285,-0.42603 -2.041029,4.7463 c -3.824125,8.89277 -6.663144,23.24645 -7.98139,40.35278 l -0.701945,9.10884 -2.792537,1.59489 -2.792539,1.59488 1.329506,1.24901 c 1.851801,1.73967 4.136537,1.58525 8.184533,-0.5532 4.241268,-2.24054 5.550324,-3.88484 6.106862,-7.67076 0.235422,-1.60149 1.117139,-5.76318 1.959371,-9.24819 0.842233,-3.48502 1.666923,-7.89169 1.832645,-9.79261 0.353928,-4.05974 0.882781,-4.8963 3.09534,-4.8963 2.808156,0 3.046883,1.39713 1.651477,9.66518 -1.095177,6.48918 -3.977515,17.75818 -5.660482,22.13066 -0.487436,1.2664 -1.555907,2.25055 -3.97531,3.66158 -0.08666,0.0505 -0.01899,0.45302 0.150382,0.89439 0.232916,0.60696 1.614659,0.8013 5.67093,0.7976 l 5.362985,-0.005 3.86831,-3.3962 c 3.009124,-2.64186 4.311425,-4.31746 5.86334,-7.54402 1.097264,-2.28131 1.995034,-4.68227 1.995034,-5.33547 0,-0.6532 0.23148,-1.27404 0.51439,-1.37965 0.28292,-0.1056 1.47673,-3.43221 2.65292,-7.39245 1.17619,-3.96025 2.40214,-7.52447 2.72433,-7.92049 0.81823,-1.00572 3.03579,-0.89847 3.939586,0.19054 0.73111,0.88093 0.43887,3.42919 -0.927266,8.08559 -0.30918,1.05382 0.15776,1.46097 3.433601,2.99392 2.08529,0.97583 3.79144,2.13072 3.79144,2.56644 0,0.43572 -1.18316,1.38311 -2.62924,2.10532 -1.44608,0.72221 -2.524905,1.41744 -2.397385,1.54496 0.568685,0.56868 6.618045,-1.07375 8.916915,-2.42098 1.67792,-0.98333 2.99659,-1.37167 3.89339,-1.14659 1.46866,0.36861 2.27759,2.03993 1.7666,3.64992 -0.53281,1.67872 -5.17482,4.04334 -9.64827,4.91478 -5.299175,1.03229 -13.372801,3.42642 -13.641971,4.04534 -0.11172,0.25688 -1.10166,1.6442 -2.19987,3.08294 -1.09822,1.43874 -1.871825,2.94147 -1.71913,3.33938 0.53118,1.38423 9.35343,2.49986 15.930851,2.01456 4.67066,-0.34461 6.63882,-0.25723 8.64053,0.38359 9.27981,2.97083 18.49619,3.05679 27.01693,0.25198 z m 31.4507,-24.74104 c 2.82665,-1.3087 5.11974,-3.68247 6.31012,-6.53214 1.99952,-4.78669 -1.91563,-13.59571 -7.01166,-15.77616 -3.32311,-1.42187 -4.67078,-1.04179 -7.99324,2.25428 -3.54112,3.51299 -4.78791,6.07907 -4.96833,10.22553 l -0.12817,2.94585 4.09127,3.98736 c 4.54819,4.43266 5.66161,4.765 9.70001,2.89528 z M 87.850349,104.67632 c 8.70098,-1.21019 18.920051,-5.632856 24.231111,-10.486856 6.8197,-6.23282 12.61139,-18.3492 13.27871,-27.779453 0.40531,-5.727534 -0.43493,-10.369254 -2.75939,-15.243644 -1.98835,-4.169592 -2.76789,-10.96598 -1.25778,-10.96598 1.53337,0 1.15796,-4.428543 -0.68344,-8.062371 -2.66783,-5.264714 -6.64648,-7.463047 -12.14338,-6.709613 -3.02042,0.413994 -7.0693,2.357953 -7.55672,3.628153 -0.19014,0.495478 -0.9479,1.55065 -1.683925,2.344827 l -1.338206,1.443959 -8.51266,-0.669385 c -9.357889,-0.735849 -13.303158,-0.408982 -20.130731,1.667835 -2.271286,0.690882 -5.362761,2.03819 -6.869945,2.994017 -2.018056,1.279813 -3.169057,1.652124 -4.366915,1.412553 -0.89462,-0.178924 -1.626581,-0.125965 -1.626581,0.117687 0,0.243652 -1.781071,2.310901 -3.957937,4.593885 -3.712406,3.893382 -4.111603,4.150881 -6.435044,4.150881 -3.478684,0 -4.585359,-1.170309 -4.57832,-4.841573 0.01047,-5.462573 4.525062,-12.067706 9.260471,-13.548665 l 1.966598,-0.615037 -1.918104,0.280863 c -3.172653,0.464563 -5.609448,1.94251 -7.41419,4.4968 -2.053963,2.907017 -2.420492,3.829912 -3.062121,7.710221 -0.627769,3.796481 0.115716,6.552197 2.332175,8.644179 0.940347,0.887537 1.709722,1.902683 1.709722,2.255881 0,0.353197 -1.004077,2.816591 -2.231282,5.474209 -4.295975,9.303299 -5.81205,17.709891 -4.354216,24.144011 1.816338,8.01638 4.555817,12.59646 9.094362,15.20469 5.836934,3.35439 20.290082,7.641886 28.101529,8.336286 7.827404,0.69581 8.056366,0.6962 12.906209,0.0217 z M 65.773045,88.464544 c -1.039582,-0.34661 -2.659682,-1.50665 -3.600223,-2.57787 -1.437366,-1.63707 -1.710075,-2.436 -1.710075,-5.00985 0,-3.86512 0.823232,-6.36306 3.059181,-9.282492 0.970591,-1.267278 1.24216,-1.850514 0.603488,-1.29608 -3.80719,3.305032 -7.552822,-2.642616 -3.939672,-6.255766 1.849375,-1.849375 4.065376,-1.650951 5.670014,0.507701 1.013554,1.363492 1.091504,1.848538 0.534307,3.324721 l -0.652372,1.72833 2.337552,-1.851375 c 2.186891,-1.732049 2.638775,-1.853261 7.011124,-1.880637 6.05387,-0.0379 9.479687,1.533403 12.43719,5.704522 1.78769,2.521276 2.02899,3.280166 2.02899,6.381236 0,4.48349 -1.72365,6.95616 -6.475614,9.28961 -2.931895,1.4397 -4.019203,1.64154 -9.365367,1.73848 -3.326606,0.0603 -6.898942,-0.17391 -7.938523,-0.52053 z m 15.935073,-3.39036 c 1.964749,-0.98179 4.015079,-2.46088 4.556282,-3.28686 1.518509,-2.31755 1.261009,-5.82629 -0.63819,-8.69618 -2.140209,-3.234074 -5.251626,-4.645592 -10.186535,-4.621198 -3.351652,0.01657 -4.073207,0.241728 -6.881836,2.147483 -3.769721,2.557885 -5.189872,4.807185 -5.60262,8.873675 -0.258538,2.54718 -0.104199,3.30698 0.939466,4.62492 1.593991,2.0129 3.778822,2.62662 9.580869,2.6913 4.116594,0.0459 5.077052,-0.15631 8.232564,-1.73314 z m -16.222405,-4.32863 c -0.877221,-0.87722 -0.355667,-1.95077 0.947725,-1.95077 2.048465,0 4.559972,-2.1984 4.178411,-3.65749 -0.370147,-1.41545 1.095086,-3.254944 2.592692,-3.254944 1.214209,0 2.37412,1.847734 1.913476,3.048144 -0.417229,1.08729 2.362598,1.65313 5.804026,1.18143 3.227649,-0.4424 3.504486,0.62815 0.488323,1.88838 -1.151594,0.48117 -2.808843,1.4035 -3.682775,2.04963 -1.290499,0.9541 -2.114466,1.10925 -4.386593,0.82595 -4.389988,-0.54737 -4.444487,-0.54846 -5.983169,-0.12076 -0.80159,0.22281 -1.644042,0.2185 -1.872116,-0.01 z m 10.212527,-1.89497 c 0.982677,-0.38451 0.884664,-0.52222 -0.786214,-1.10469 -1.893884,-0.66021 -2.928565,-0.49607 -2.928565,0.46461 0,0.27489 0.453628,0.61835 1.008062,0.76323 1.412088,0.36902 1.453701,0.36713 2.706717,-0.12315 z m 6.585275,-12.668298 c -1.155741,-0.935861 -1.267256,-1.326616 -0.78088,-2.73617 0.356923,-1.034378 1.373799,-2.038888 2.741164,-2.707826 2.019552,-0.987996 2.274736,-0.99727 3.59724,-0.130729 0.9436,0.618271 1.42052,1.462261 1.41467,2.503524 -0.0107,1.893038 -0.45383,2.627158 -2.113443,3.500709 -1.809057,0.952212 -3.317021,0.81891 -4.858751,-0.429508 z m 27.762495,-23.42645 c -2.90501,-1.260551 -7.51612,-4.919215 -8.4481,-6.703102 -1.777855,-3.402927 -0.61223,-6.809609 2.91401,-8.516632 4.68353,-2.267257 11.15166,-0.905629 14.47832,3.04788 2.52086,2.995867 1.59828,10.838457 -1.46805,12.479507 -1.57477,0.842791 -5.16545,0.695031 -7.47618,-0.307653 z m 5.71616,-6.447648 c 0,-2.731611 -4.95105,-5.822563 -7.67042,-4.788661 -0.78883,0.299913 -1.62856,0.859717 -1.86607,1.244009 -0.51142,0.827502 2.41165,3.413261 5.79226,5.123853 2.15194,1.088881 2.35171,1.101384 3.02419,0.189261 0.39602,-0.53715 0.72004,-1.332959 0.72004,-1.768462 z M 53.011274,34.296021 c 1.006582,-1.750752 -0.498437,-1.159298 -2.931568,1.152071 -1.250661,1.188074 -2.67358,3.196998 -3.162042,4.464277 l -0.888113,2.304143 3.201073,-3.456215 c 1.76059,-1.900917 3.461883,-3.909842 3.78065,-4.464276 z m 7.715132,-2.696756 c 0.32238,-0.521623 -1.783854,-2.343557 -2.709253,-2.343557 -0.253629,0 -0.03653,0.64804 0.482439,1.44009 0.993848,1.516803 1.676561,1.793795 2.226814,0.903467 z"
       id="path227" />
  </g>
  <g
     inkscape:groupmode="layer"
     id="layer5"
     inkscape:label="しろ">
    <path
       style="fill:#ffffff;fill-opacity:1;stroke-width:0.267269"
       d="m 75.010362,68.514842 c -4.283324,0.08086 -8.170966,2.89924 -10.498135,6.346756 -1.381611,2.421146 -1.901261,5.489995 -1.188643,8.18498 1.917663,3.383905 6.279171,3.683966 9.744898,3.574206 3.032874,0.07273 6.184865,-0.114226 8.820719,-1.791168 2.444551,-1.29032 5.322252,-3.214227 5.183785,-6.348023 0.135326,-4.970635 -4.128807,-9.342438 -9.01356,-9.743332 -1.009142,-0.146026 -2.028487,-0.242353 -3.049064,-0.223419 z m -1.593699,3.288146 c 1.367128,0.379992 1.858626,1.880965 1.837478,3.159207 0.754888,1.583492 2.989755,0.979072 4.392703,1.182251 1.127659,0.253902 3.281849,-0.506169 3.665577,0.4767 -1.131568,1.493692 -3.213293,2.005578 -4.747168,3.058461 -1.698879,1.103284 -3.686759,1.6631 -5.682085,1.192274 -2.37939,-0.354161 -4.779135,-0.08343 -7.14424,0.03654 -1.153215,-0.277408 -0.719296,-2.056704 0.380545,-2.119363 1.975326,-0.379032 4.23033,-1.538613 4.363487,-3.80337 0.06862,-1.679408 1.209408,-3.089727 2.933703,-3.1827 z"
       id="path276" />
    <path
       style="fill:#ffffff;fill-opacity:1;stroke-width:0.267269"
       d="m 75.010362,68.514842 c -4.283324,0.08086 -8.170966,2.89924 -10.498135,6.346756 -1.381611,2.421146 -1.901261,5.489995 -1.188643,8.18498 1.917663,3.383905 6.279171,3.683966 9.744898,3.574206 3.032874,0.07273 6.184865,-0.114226 8.820719,-1.791168 2.444551,-1.29032 5.322252,-3.214227 5.183785,-6.348023 0.135326,-4.970635 -4.128807,-9.342438 -9.01356,-9.743332 -1.009142,-0.146026 -2.028487,-0.242353 -3.049064,-0.223419 z m -1.593699,3.288146 c 1.367128,0.379992 1.858626,1.880965 1.837478,3.159207 0.754888,1.583492 2.989755,0.979072 4.392703,1.182251 1.127659,0.253902 3.281849,-0.506169 3.665577,0.4767 -1.131568,1.493692 -3.213293,2.005578 -4.747168,3.058461 -1.698879,1.103284 -3.686759,1.6631 -5.682085,1.192274 -2.37939,-0.354161 -4.779135,-0.08343 -7.14424,0.03654 -1.153215,-0.277408 -0.719296,-2.056704 0.380545,-2.119363 1.975326,-0.379032 4.23033,-1.538613 4.363487,-3.80337 0.06862,-1.679408 1.209408,-3.089727 2.933703,-3.1827 z"
       id="path278" />
    <path
       style="fill:#ffffff;fill-opacity:1;stroke-width:0.267269"
       d="m 75.010362,68.514842 c -4.283324,0.08086 -8.170966,2.89924 -10.498135,6.346756 -1.381611,2.421146 -1.901261,5.489995 -1.188643,8.18498 1.917663,3.383905 6.279171,3.683966 9.744898,3.574206 3.032874,0.07273 6.184865,-0.114226 8.820719,-1.791168 2.444551,-1.29032 5.322252,-3.214227 5.183785,-6.348023 0.135326,-4.970635 -4.128807,-9.342438 -9.01356,-9.743332 -1.009142,-0.146026 -2.028487,-0.242353 -3.049064,-0.223419 z m -1.593699,3.288146 c 1.367128,0.379992 1.858626,1.880965 1.837478,3.159207 0.754888,1.583492 2.989755,0.979072 4.392703,1.182251 1.127659,0.253902 3.281849,-0.506169 3.665577,0.4767 -1.131568,1.493692 -3.213293,2.005578 -4.747168,3.058461 -1.698879,1.103284 -3.686759,1.6631 -5.682085,1.192274 -2.37939,-0.354161 -4.779135,-0.08343 -7.14424,0.03654 -1.153215,-0.277408 -0.719296,-2.056704 0.380545,-2.119363 1.975326,-0.379032 4.23033,-1.538613 4.363487,-3.80337 0.06862,-1.679408 1.209408,-3.089727 2.933703,-3.1827 z"
       id="path280" />
  </g>
  <g
     inkscape:groupmode="layer"
     id="layer3"
     inkscape:label="いろ"
     style="mix-blend-mode:multiply">
    <path
       style="fill:#937657;fill-opacity:1;stroke-width:0.755952"
       d="m 99.369348,30.081589 c -6.914859,2.166265 -14.589538,-0.459563 -21.912283,0.686559 -7.747077,0.33233 -14.39594,4.70126 -21.46196,7.190404 -4.22782,2.420998 -6.812,9.62995 -12.703543,7.026519 -1.973678,-2.776649 -5.486683,0.655682 -3.143403,2.926363 1.404374,2.142386 3.830695,3.846134 1.498616,6.437407 -4.237721,9.997729 -8.328036,21.541491 -3.635068,32.154553 2.209379,6.855693 7.866684,12.03652 14.828564,13.842126 15.618746,6.07174 33.818158,8.93288 49.455439,1.31678 14.9068,-6.521938 24.48452,-22.978187 24.49463,-39.002412 -0.46569,-7.104925 -4.13323,-13.553731 -4.88269,-20.570174 -2.47631,-3.740997 -6.6379,1.822056 -9.93221,-0.420793 -5.17892,-1.284272 -9.5929,-5.286187 -10.54937,-10.575952 -0.44036,-0.671385 -1.24688,-1.099523 -2.056722,-1.01138 z m -13.091856,31.56101 c 2.842686,0.792242 0.842714,4.01446 -1.191508,4.454509 -3.508505,2.430656 1.165114,5.036238 1.926791,7.450265 1.489741,3.942696 1.309719,8.918075 -2.737374,11.18721 -5.594414,3.707985 -13.142381,3.820956 -19.298933,1.587204 -5.093798,-2.809425 -2.910287,-9.738122 -0.724945,-13.818277 0.882107,-2.813148 -2.435566,-2.334602 -3.568626,-3.539096 -1.867003,-2.951157 2.761538,-7.155339 4.323101,-2.945559 -0.348779,3.212179 3.375935,3.817326 5.390589,1.903169 3.850465,-2.140053 9.236202,1.686523 12.343286,-1.845585 0.204893,-2.074926 0.924298,-4.50691 3.537619,-4.43384 z"
       id="path232" />
    <path
       style="fill:#937657;fill-opacity:1;stroke-width:0.267269"
       d="m 119.34858,93.734774 c -2.71171,0.310989 -4.19965,2.996644 -6.37741,4.358267 -5.87884,4.501149 -12.96118,7.183239 -20.02957,9.180629 -5.781257,0.95146 -11.572724,0.24902 -17.431347,0.32216 -2.992636,0.10699 -5.964569,-0.44603 -8.863142,0.0672 -1.769195,2.36723 -2.612509,5.36333 -3.744082,8.10059 -5.306004,14.83387 -6.346928,30.70073 -7.7362,46.26425 -1.695079,1.25619 -4.185123,1.82435 -5.168429,3.82999 -0.316492,2.12899 2.148533,3.15556 3.665038,4.04036 3.568538,0.93863 7.060033,-1.16786 10.039834,-2.90133 3.258587,-1.785 4.519009,-5.49173 5.071856,-8.94152 1.392145,-6.71204 3.050773,-13.37006 3.926842,-20.1787 -0.149053,-1.05688 1.183341,-0.91424 1.721313,-0.73253 0.158412,5.31758 -1.347512,10.52514 -2.387404,15.70109 -1.22483,4.78853 -2.185651,9.83137 -4.292245,14.36829 -1.269892,1.37425 -4.23889,2.23821 -3.397245,4.64433 0.934125,2.50585 3.975764,1.94505 6.084991,2.16006 2.390846,-0.0448 4.859419,0.55174 7.188176,-0.0433 4.373628,-3.80488 9.184542,-7.64278 11.199905,-13.30131 1.101529,-2.18684 1.401064,-4.62995 2.529472,-6.793 1.745647,-4.3654 2.706502,-9.0566 4.624001,-13.32743 0.730488,-0.19914 1.563627,0.10194 1.169305,1.03201 -0.05937,2.57638 -1.351304,5.00099 -1.223071,7.55663 1.532104,2.12115 4.248452,2.79813 6.378972,4.15729 -1.40599,1.28653 -4.237675,1.6723 -4.175043,3.97198 0.783738,2.27464 3.475103,1.18712 5.204973,0.8869 3.05242,-0.63788 5.7818,-2.28766 8.71653,-3.18479 1.09442,0.29689 0.93845,1.64747 0.0621,2.12093 -4.75332,3.33819 -10.83344,3.45146 -16.183631,5.33149 -2.372167,0.99945 -5.60116,0.9753 -6.860555,3.59498 -1.209982,2.08479 -3.455051,3.93127 -3.491709,6.48799 0.625035,2.39777 3.656332,2.46817 5.627798,3.04019 6.33535,0.75859 12.766897,0.17767 19.112987,0.51427 5.51267,1.64107 11.2305,2.98977 17.02414,2.51533 8.2962,-0.15479 16.4791,-2.92239 23.40395,-7.43641 4.60329,-3.00906 7.72261,-7.74007 9.58829,-12.83677 0.61888,-1.58509 1.87463,-3.69721 0.22383,-5.10341 -2.4936,-3.19765 -6.33764,-5.58411 -7.52415,-9.63504 -0.98771,-4.46129 0.8389,-8.65867 1.9518,-12.90759 0.51903,-1.92261 1.86263,-4.18199 0.14404,-5.90798 -5.60987,-10.05619 -14.2252,-17.98015 -23.1719,-25.035245 -3.66778,-2.732392 -7.77922,-5.203367 -12.33733,-5.983994 l -0.14721,-5.29e-4 z"
       id="path234" />
    <path
       style="fill:#937657;fill-opacity:1;stroke-width:0.267269"
       d="m 166.37235,125.50696 c -3.74105,0.62994 -6.28402,3.88134 -8.59073,6.61805 -2.66863,3.36912 -3.36824,7.99455 -2.65547,12.11341 1.85488,2.29008 4.23112,4.27286 6.45036,6.26893 2.01874,1.96461 5.09209,3.25838 7.79756,1.89188 4.75216,-1.8758 9.26804,-6.2401 9.26449,-11.65477 -0.174,-5.44781 -3.02034,-11.01586 -7.76178,-13.85417 -1.37716,-0.75046 -2.9203,-1.35337 -4.50443,-1.38333 z"
       id="path236" />
    <path
       style="fill:#937657;fill-opacity:1;stroke-width:0.0668173"
       d="m 110.30176,23.527852 c -3.11133,0.07348 -6.18466,1.052721 -8.83321,2.670868 -0.99122,0.611981 -1.836182,1.466321 -2.330517,2.529012 -0.623241,0.755459 -0.783537,1.967741 -0.05018,2.707661 0.335622,0.366358 0.826029,0.517102 1.215987,0.812641 0.90262,0.558107 2.15042,0.0685 2.56173,-0.880332 0.7741,-1.487321 2.32399,-2.365946 3.89408,-2.792656 1.3499,-0.436218 2.78432,-0.314502 4.17922,-0.282932 2.62617,0.35193 5.26471,1.540518 6.88402,3.702754 0.88281,1.424831 0.8777,3.185437 0.79909,4.805849 -0.0792,1.231728 -0.47598,2.412386 -0.86924,3.568856 -0.27867,1.103069 0.72568,2.228551 1.84679,2.158336 0.48728,0.05261 0.97398,0.296717 1.47367,0.124875 0.54175,-0.09321 0.92412,-0.530233 1.25399,-0.907798 1.24078,-0.587986 1.75102,-2.044647 1.69811,-3.342283 0.0274,-2.787571 -0.93032,-5.50209 -2.26037,-7.92003 -1.61428,-2.877264 -4.12441,-5.405979 -7.34521,-6.377191 -1.32813,-0.42006 -2.7268,-0.600546 -4.11796,-0.57763 z m -9.99168,8.500687 c -0.14938,-0.01614 -0.2901,-0.05263 0,0 z"
       id="path238" />
    <path
       style="fill:#937657;fill-opacity:1;stroke-width:0.0668173"
       d="m 82.211529,66.07604 c -0.291227,0.25232 -0.864203,0.582168 -0.556485,1.036296 0.577408,0.447717 1.298673,0.698717 1.946468,1.038566 0.565468,0.147474 0.660223,-0.520988 0.775447,-0.90869 0.0443,-0.580806 -0.688986,-0.563481 -1.04625,-0.829244 -0.35704,-0.156546 -0.714105,-0.597323 -1.11918,-0.336928 z"
       id="path244" />
    <path
       style="fill:#937657;fill-opacity:1;stroke-width:0.0167043"
       d="m 66.093147,68.19839 c -0.209658,0.01537 -0.360815,0.189835 -0.411284,0.384021 -0.107543,0.294116 -0.232571,0.583385 -0.326255,0.881631 -0.06509,0.269418 0.191651,0.550752 0.466603,0.504698 0.24021,-0.03078 0.397862,-0.243448 0.588481,-0.371469 0.19939,-0.169818 0.425059,-0.311195 0.603607,-0.503537 0.143066,-0.208634 0.05666,-0.526904 -0.180596,-0.622443 -0.209357,-0.07035 -0.398995,-0.189952 -0.607738,-0.261352 -0.04427,-0.0034 -0.08854,-0.0097 -0.132818,-0.01154 z"
       id="path246" />
    <path
       style="fill:#937657;fill-opacity:1;stroke-width:0.0167043"
       d="m 64.400036,69.679789 c -0.299744,0.03764 -0.500962,0.292896 -0.73238,0.460674 -0.229441,0.152003 -0.246139,0.503624 -0.05253,0.691502 0.144011,0.160578 0.300763,0.368739 0.54323,0.342786 0.209484,-0.01257 0.337325,-0.192641 0.428461,-0.360828 0.133294,-0.243232 0.341423,-0.498957 0.281233,-0.794303 -0.04667,-0.209185 -0.254759,-0.359715 -0.468016,-0.339831 z"
       id="path248" />
    <path
       style="fill:#937657;fill-opacity:1;stroke-width:0.0472469"
       d="m 52.140255,27.795107 c -1.691163,0.196451 -3.403023,0.49253 -4.938545,1.265005 -1.742403,0.815933 -3.178541,2.172563 -4.26805,3.742767 -1.119484,1.538885 -2.108639,3.219931 -2.523125,5.096817 -0.288372,1.308925 -0.552455,2.629958 -0.678817,3.965265 -0.02204,0.870598 -0.09364,1.753418 0.04716,2.617113 0.08709,0.396753 0.581555,0.423756 0.838071,0.169431 0.306353,-0.222578 0.681535,-0.278286 1.042744,-0.318693 0.436221,-0.1616 0.230415,-0.691743 0.234968,-1.045017 -0.08109,-1.457222 0.04573,-2.952448 0.492771,-4.381979 0.845957,-2.747822 2.386489,-5.277302 4.443526,-7.269027 1.226603,-1.173531 2.652162,-2.147779 4.297172,-2.61778 0.446016,-0.18216 0.961491,-0.230428 1.362781,-0.503386 0.25698,-0.283461 0.02891,-0.749657 -0.35066,-0.720516 z"
       id="path250" />
    <path
       style="fill:#937657;fill-opacity:1;stroke-width:0.0472469"
       d="m 58.047795,28.878743 c -0.450554,-0.01585 -0.618106,0.51912 -0.463243,0.874347 0.328808,0.855694 0.857425,1.642121 1.507014,2.287514 0.363754,0.331454 0.935601,0.653634 1.402921,0.325191 0.441418,-0.243403 0.835549,-0.793655 0.556631,-1.297908 -0.443958,-0.765252 -1.165286,-1.337773 -1.902339,-1.807292 -0.335663,-0.191365 -0.703058,-0.391917 -1.100984,-0.381852 z"
       id="path252" />
    <path
       style="fill:#48372f;fill-opacity:1;stroke-width:0.133635"
       d="m 53.040661,32.963502 c -1.344541,0.421899 -2.360165,1.541865 -3.377612,2.472563 -1.644891,1.684221 -3.024579,3.728762 -3.643694,6.012463 0.02358,0.709327 0.922139,0.529952 1.144247,0.01931 2.144963,-2.365127 4.459655,-4.614241 6.282139,-7.246295 0.358892,-0.44844 0.353203,-1.294781 -0.40508,-1.258046 z"
       id="path254" />
    <path
       style="fill:#48372f;fill-opacity:1;stroke-width:0.133635"
       d="m 109.28811,30.975426 c -1.18907,0.09348 -2.47451,0.577222 -3.23647,1.52636 -0.50786,1.036912 0.59873,1.972722 1.26869,2.615766 1.95448,1.592159 4.09175,3.076501 6.49361,3.891618 1.30351,0.227926 1.86635,-1.280244 2.18122,-2.274662 0.40043,-1.638689 -0.98063,-3.024646 -2.15042,-3.965194 -1.30882,-0.984547 -2.88733,-1.777707 -4.55663,-1.793888 z"
       id="path256" />
    <path
       style="fill:#48372f;fill-opacity:1;stroke-width:0.264583"
       id="path258"
       d="m 46.417283,40.148527 c -0.228306,0.780692 -0.381492,1.57758 -0.493522,2.382324 -0.05533,0.468019 -0.02328,0.24602 -0.09304,0.666448 0,0 1.039114,-0.510323 1.039114,-0.510323 v 0 c 0.05467,-0.41833 0.02839,-0.198363 0.07731,-0.660085 0.109622,-0.80845 0.26403,-1.610262 0.534683,-2.382258 0,0 -1.064551,0.503894 -1.064551,0.503894 z" />
    <path
       style="fill:#a6534f;fill-opacity:1;stroke-width:0.0472469"
       d="m 73.004593,76.959675 c -0.592074,-0.0254 -1.242499,0.297929 -1.372471,0.920671 -0.206258,0.558964 0.275262,1.046932 0.737683,1.274283 0.619635,0.233913 1.269701,0.446233 1.935006,0.482992 0.719749,-0.04938 1.398085,-0.35369 2.042049,-0.658876 0.400719,-0.162396 0.510881,-0.760281 0.112302,-0.99145 -0.766048,-0.44469 -1.632357,-0.699397 -2.487459,-0.914254 -0.317627,-0.06807 -0.641514,-0.117001 -0.96711,-0.113366 z"
       id="path260" />
  </g>
  <g
     inkscape:groupmode="layer"
     id="layer4"
     inkscape:label="せんいろ"
     style="display:inline;opacity:0.763513">
    <path
       style="fill:#48372f;fill-opacity:1;stroke-width:0.377976"
       d="m 111.0045,20.595589 c -5.41442,-0.154202 -11.146088,1.346705 -14.774862,5.616027 -1.521492,2.44824 -4.668702,0.966242 -7.037755,1.365459 -5.952752,0.23768 -12.049392,-0.527555 -17.911013,0.727138 -1.902005,0.138769 -4.274442,2.267763 -5.643719,0.240795 -4.810575,-5.258821 -12.705374,-6.027645 -19.259931,-4.272272 -6.398506,2.337289 -10.38788,9.020842 -11.001742,15.611615 -0.859367,4.36218 -0.04398,8.995905 2.735016,12.538604 0.3414,1.759847 -1.38517,3.650319 -1.820392,5.496486 -4.545374,11.503983 -5.337526,25.32371 1.218457,36.234031 5.032354,6.916458 13.740117,9.467438 21.458634,12.133898 1.22423,0.32624 3.318343,1.01258 2.46411,2.70371 -5.938891,14.27747 -7.742084,29.77528 -9.090623,45.05077 -0.372444,2.02471 -0.202774,4.55019 -1.555462,6.20708 -2.393974,1.17446 -5.036621,2.7782 -6.222579,5.28724 -0.9589,2.91758 2.460379,4.76958 4.17767,6.49055 1.852798,1.99772 4.583028,1.99814 7.073027,2.18297 1.985341,0.13821 3.161321,1.67354 4.14814,3.16776 3.453305,0.74093 7.192261,0.14517 10.742358,0.25034 5.426499,-0.15859 10.900498,-0.424 16.19952,0.88728 6.98097,1.15295 14.083776,1.14173 21.111296,1.39453 6.96304,0.67296 13.83263,3.15875 20.91834,2.1624 10.35626,-0.69804 21.17748,-4.07075 28.49762,-11.75059 3.50506,-4.24163 6.25069,-9.23548 7.57207,-14.5986 5.02524,-1.17524 11.35484,-1.24164 14.49672,-6.06902 3.66915,-5.22687 2.76821,-12.3774 0.55215,-18.00113 -2.12469,-5.44607 -7.4541,-9.66597 -13.44394,-9.49664 -2.65651,-0.47268 -5.17741,0.42772 -7.43993,1.757 -6.47916,-11.21965 -15.66406,-20.83821 -26.25016,-28.278085 -3.09734,-2.058575 -6.51256,-3.715338 -9.90341,-5.110798 -0.24603,-2.678268 1.81963,-5.069348 2.65986,-7.549189 4.44402,-9.022474 5.52272,-19.599995 3.04226,-29.336711 -0.61328,-3.239956 -2.92879,-6.020472 -3.14635,-9.312831 1.06439,-1.780606 1.3834,-3.844623 1.2442,-5.926545 0.24831,-3.429383 -0.13479,-6.960222 -2.17143,-9.842889 -2.42929,-4.341082 -6.75138,-8.068952 -11.98007,-7.93233 -0.55227,-0.02532 -1.10526,-0.03511 -1.65808,-0.02805 z m -0.70501,4.893019 c 5.2961,-0.407427 9.45978,3.908464 11.03218,8.604863 0.55439,2.00311 1.72955,4.690494 -0.24067,6.278687 -1.68171,2.605987 0.086,5.860711 0.64859,8.557966 2.51534,5.990942 4.28652,12.509839 3.28961,19.052799 -1.54039,10.285347 -6.4378,20.386755 -14.39508,27.254597 -6.78338,5.00545 -14.9076,8.22567 -23.25336,9.31264 C 74.977011,106.0508 62.597335,102.57315 51.11183,98.184788 46.302714,96.520344 41.981721,93.132593 40.173834,88.253327 37.078495,81.371448 36.51643,73.403215 38.851849,66.20564 c 1.265322,-5.107064 3.994295,-9.765077 5.358651,-14.813851 -1.305851,-2.52332 -4.059262,-4.505357 -3.974656,-7.575764 -0.325689,-5.935991 2.576357,-12.598294 8.41071,-14.806038 0.771787,-0.195802 2.187686,-0.556731 2.657644,-0.56401 -5.706692,1.93131 -9.432067,7.986755 -9.943285,13.826397 -0.232367,2.286998 1.115547,5.25226 3.861708,4.777119 1.888239,0.147055 3.822512,0.230721 4.853009,-1.695146 2.51765,-2.225326 4.446883,-5.314786 7.433431,-6.931866 4.636672,-0.565129 8.456139,-3.727588 12.979641,-4.765305 8.301474,-2.657816 17.194474,-1.432113 25.713457,-0.892527 2.597073,0.867103 3.563056,-2.515854 5.109321,-3.874254 2.22412,-2.428674 5.863,-3.249451 8.98801,-3.401787 z m -51.964344,3.807814 c 0.827138,0.393867 2.931379,1.949881 1.838944,2.77281 -0.852554,-0.384803 -2.257145,-1.874817 -1.838944,-2.77281 z m -5.352201,4.157739 c 0.431546,0.504508 -0.771115,1.496539 -1.032293,2.026156 -1.713082,2.062493 -3.718726,4.445777 -5.537996,6.095902 1.134695,-3.324106 3.423325,-6.551713 6.570289,-8.122058 z m 68.962195,62.699754 c 8.00141,2.699774 13.96784,9.089915 20.06448,14.600805 4.849,4.71189 9.07157,10.03771 12.31081,15.99016 -1.79097,6.0593 -4.52066,12.6712 -2.33356,18.99995 1.77309,3.57983 5.11536,6.01343 7.75958,8.90459 -1.8042,6.60482 -5.62348,12.91085 -11.82947,16.19761 -10.60972,6.32853 -23.79265,7.63017 -35.53862,4.01156 -7.8648,-1.14253 -15.970493,0.0168 -23.741628,-1.72673 -1.088734,-0.17169 -1.64187,-1.22135 -0.846021,-2.09289 1.526857,-3.23526 4.158069,-6.2176 7.883427,-6.73599 5.860572,-2.07453 12.671692,-2.15847 17.728892,-6.10339 2.2556,-1.4247 0.77306,-5.68971 -1.90243,-4.90114 -3.71648,1.27974 -7.24648,3.48917 -11.28613,3.44756 1.50974,-1.16333 3.81021,-1.91516 4.57853,-3.61219 -1.99731,-2.02115 -4.963385,-2.7957 -7.084103,-4.51209 0.02305,-2.85568 1.882021,-5.72025 1.054198,-8.53694 -0.925843,-1.89663 -4.432477,-1.93341 -4.673026,0.51824 -2.697911,7.35464 -4.789707,14.9529 -8.091053,22.05476 -2.128787,3.98067 -5.830067,6.69337 -9.094314,9.71369 -3.594558,-0.35812 -7.447436,0.40719 -10.880841,-0.83716 -0.804302,-1.12743 1.611066,-1.61672 2.110613,-2.34463 2.510567,-2.02539 2.5552,-5.6789 3.668725,-8.49244 1.925818,-7.57896 4.128739,-15.22409 4.511654,-23.06857 0.264636,-3.0362 -4.798025,-3.13998 -5.207508,-0.36986 -1.59635,8.2492 -2.902894,16.62968 -5.116705,24.72275 -1.904027,3.56323 -5.988696,5.43618 -9.743221,6.34586 -1.800738,0.35135 -3.757906,-0.74246 -4.720275,-2.07591 1.675636,-1.31925 3.776581,-2.08521 5.40757,-3.39072 1.474968,-18.1542 2.776154,-36.85095 10.50508,-53.62241 8.460743,-0.0991 17.059545,1.37592 25.437354,-0.27405 9.458082,-2.40333 18.754322,-6.5257 25.788902,-13.451005 0.76279,-0.773562 2.31729,0.593399 3.27909,0.64058 z m 44.61005,31.198535 c 5.31057,0.42584 8.5656,5.67887 9.93369,10.32421 2.0633,6.23009 -3.52481,12.74927 -9.63101,13.44917 -4.24458,-0.54605 -6.73999,-4.64615 -9.72011,-7.26033 -1.53598,-1.36066 -0.14584,-3.74219 -0.14271,-5.58348 0.73314,-4.60226 4.36151,-8.16906 8.11541,-10.60105 0.45164,-0.20925 0.946,-0.32774 1.44473,-0.32852 z"
       id="path265" />
    <path
       style="fill:#48372f;fill-opacity:1;stroke-width:0.188988"
       d="m 109.08528,26.313994 c -3.36214,0.05173 -7.32187,1.652013 -8.28151,5.180933 -0.6456,2.491851 0.50485,5.153028 2.47899,6.720149 3.10566,2.782742 6.78695,5.72725 11.20086,5.555957 1.55333,0.0482 3.29103,-0.190167 4.23341,-1.589051 2.08541,-2.613821 2.04246,-6.259787 1.51006,-9.399574 -0.8178,-3.151312 -3.98247,-5.024501 -6.90014,-5.930971 -1.37407,-0.399648 -2.81146,-0.579507 -4.24167,-0.537443 z m 0.2558,5.280594 c 2.54034,0.117527 5.24102,1.678355 6.10446,4.158477 0.22612,1.007536 -0.35576,2.229548 -1.21365,2.76838 -1.709,-0.439322 -3.27183,-1.471091 -4.76637,-2.411277 -1.12137,-0.899123 -2.53152,-1.731637 -3.05265,-3.122901 0.48616,-0.955471 1.91529,-1.356667 2.92821,-1.392679 z"
       id="path267" />
    <path
       style="fill:#48372f;fill-opacity:1;stroke-width:0.0944941"
       d="m 86.336153,59.768228 c -1.189839,0.126624 -2.245437,0.798396 -3.251554,1.400984 -1.169154,0.878837 -2.264156,2.289932 -2.032731,3.833654 0.299009,0.980903 1.293032,1.532821 2.123165,2.025716 1.774968,0.911048 4.00635,0.172707 5.378778,-1.135959 0.993627,-0.911755 1.032852,-2.408439 0.822024,-3.645588 -0.38897,-1.173494 -1.462141,-2.072302 -2.619442,-2.438572 -0.137895,-0.02976 -0.279188,-0.04348 -0.42024,-0.04024 z"
       id="path269" />
    <path
       style="fill:#48372f;fill-opacity:1;stroke-width:0.0944941"
       d="m 62.679975,62.542146 c -1.857113,0.194479 -3.379981,1.747332 -3.960813,3.461951 -0.632515,1.966092 0.162788,4.537532 2.189049,5.327655 0.920909,0.390448 2.076204,0.0036 2.793481,-0.412303 -1.609947,2.160021 -3.065851,4.584946 -3.315044,7.326794 -0.143713,1.832171 -0.365752,3.745344 0.179946,5.53344 0.763127,1.947114 2.431857,3.412043 4.200377,4.446352 1.548339,0.928553 3.42266,0.779727 5.151268,0.957686 2.753056,0.08911 5.516631,0.03643 8.263411,-0.171701 2.610165,-0.218977 4.993513,-1.463323 7.196275,-2.797638 1.235324,-0.864532 2.444895,-1.873869 3.219995,-3.1853 0.857065,-1.4414 1.190598,-3.1203 1.152676,-4.7839 0.02572,-1.657829 0.08003,-3.426227 -0.813734,-4.898588 -1.208011,-2.095611 -2.775826,-4.034057 -4.724794,-5.482513 -2.422779,-1.623338 -5.394556,-2.218357 -8.275947,-2.1789 -1.700483,0.0195 -3.435522,-0.126603 -5.110279,0.224422 -1.756651,0.525513 -3.113694,1.912819 -4.543097,2.934669 0.402831,-1.090422 1.005403,-2.377252 0.364318,-3.511045 -0.792205,-1.473422 -2.191763,-2.813759 -3.967088,-2.791081 z m 12.649652,6.217226 c 2.233991,-0.05215 4.554595,0.181478 6.559769,1.243558 3.669753,1.853673 5.929178,6.377924 4.769366,10.392685 -0.501502,1.770245 -2.207122,2.753476 -3.64499,3.671985 -1.69637,0.975593 -3.473587,1.923751 -5.408535,2.307532 -2.503996,0.140504 -5.072436,0.142901 -7.601236,0.03673 -2.097482,-0.185052 -4.470982,-0.588055 -5.842344,-2.363359 -0.812887,-0.895408 -1.20179,-2.112021 -1.060889,-3.313665 0.128675,-2.574232 0.661757,-5.297983 2.466996,-7.26054 1.521783,-1.661975 3.416816,-2.972668 5.410269,-4.040831 1.318207,-0.700764 2.886143,-0.683561 4.351594,-0.674092 z"
       id="path271" />
    <path
       style="fill:#48372f;fill-opacity:1;stroke-width:0.0944941"
       d="m 73.150175,71.675401 c -1.64415,0.119528 -3.003923,1.793729 -2.797541,3.430762 0.188593,0.996328 -0.560329,1.800989 -1.278696,2.373024 -0.905103,0.765521 -2.076194,1.042876 -3.224168,1.176038 -0.721979,0.154795 -1.253159,0.951492 -0.905261,1.661951 0.15939,0.70534 0.917707,0.933212 1.550847,0.806892 1.065715,-0.164361 2.120628,-0.474117 3.213166,-0.369117 2.198008,0.0313 4.405469,0.758489 6.59502,0.301567 1.313167,-0.456708 2.347225,-1.4663 3.596505,-2.022748 1.216837,-0.704432 2.624363,-1.138341 3.676031,-2.093648 0.44677,-0.489802 -0.175077,-1.087548 -0.695047,-1.113073 -1.624981,-0.152249 -3.235452,0.303996 -4.857586,0.185666 -0.848953,-0.04958 -1.87565,-0.09426 -2.617227,-0.65832 0.115877,-1.022877 0.01564,-2.152351 -0.760748,-2.913999 -0.366374,-0.454859 -0.889595,-0.803934 -1.495295,-0.764995 z m -0.01016,5.939652 c 0.972568,0.07149 2.001813,0.427053 2.82135,0.834758 -0.85906,0.441047 -1.898182,0.71682 -2.819504,0.289388 -0.412848,-0.07543 -1.248523,-0.514826 -0.73602,-0.975207 0.211701,-0.146738 0.486201,-0.152513 0.734174,-0.148939 z"
       id="path273" />
  </g>
</svg>
