<?xml version="1.0" encoding="UTF-8" standalone="no"?>
<svg
   xmlns:dc="http://purl.org/dc/elements/1.1/"
   xmlns:cc="http://creativecommons.org/ns#"
   xmlns:rdf="http://www.w3.org/1999/02/22-rdf-syntax-ns#"
   xmlns:svg="http://www.w3.org/2000/svg"
   xmlns="http://www.w3.org/2000/svg"
   xmlns:sodipodi="http://sodipodi.sourceforge.net/DTD/sodipodi-0.dtd"
   xmlns:inkscape="http://www.inkscape.org/namespaces/inkscape"
   version="1.1"
   id="svg957"
   width="320"
   height="320"
   viewBox="0 0 320 320"
   sodipodi:docname="rakko_other.svg"
   inkscape:version="1.0.1 (3bc2e813f5, 2020-09-07)">
  <metadata
     id="metadata963">
    <rdf:RDF>
      <cc:Work
         rdf:about="">
        <dc:format>image/svg+xml</dc:format>
        <dc:type
           rdf:resource="http://purl.org/dc/dcmitype/StillImage" />
        <dc:title></dc:title>
      </cc:Work>
    </rdf:RDF>
  </metadata>
  <defs
     id="defs961" />
  <sodipodi:namedview
     pagecolor="#ffffff"
     bordercolor="#666666"
     borderopacity="1"
     objecttolerance="10"
     gridtolerance="10"
     guidetolerance="10"
     inkscape:pageopacity="0"
     inkscape:pageshadow="2"
     inkscape:window-width="1280"
     inkscape:window-height="971"
     id="namedview959"
     showgrid="false"
     inkscape:zoom="3.1422058"
     inkscape:cx="211.56659"
     inkscape:cy="108.12821"
     inkscape:window-x="-8"
     inkscape:window-y="-8"
     inkscape:window-maximized="1"
     inkscape:current-layer="layer14" />
  <g
     inkscape:groupmode="layer"
     id="layer5"
     inkscape:label="Image 1"
     style="display:none">
    <path
       style="fill:#e8d7cf;fill-opacity:1;stroke:#ababab;stroke-width:0.982677;stroke-miterlimit:4;stroke-dasharray:none;stroke-opacity:0;paint-order:stroke fill markers"
       id="path998"
       d="m 263.41286,153.45465 c 0.0106,0.57198 -0.24479,1.11043 -0.3894,1.65648 -0.10723,0.56251 -0.32378,1.09384 -0.48769,1.64062 0,0 1.53584,0.18311 1.53584,0.18311 v 0 c 0.17146,-0.55422 0.36971,-1.10087 0.48642,-1.67061 0.18332,-0.63995 0.43613,-1.27439 0.41167,-1.95183 0,0 -1.55684,0.14223 -1.55684,0.14223 z" />
    <path
       style="fill:#e8d7cf;fill-opacity:1;stroke:#ababab;stroke-width:0.982677;stroke-miterlimit:4;stroke-dasharray:none;stroke-opacity:0;paint-order:stroke fill markers"
       id="path1002"
       d="m 81.589721,192.98309 c 0.472828,-0.20222 0.435225,-0.15117 1.025883,-0.27668 0.513064,-0.0969 1.016486,-0.23706 1.530768,-0.32745 0.05545,-0.008 0.11089,-0.0159 0.166335,-0.0239 0,0 0.213413,-0.74168 0.213413,-0.74168 v 0 c -0.0631,0.006 -0.126189,0.0123 -0.189283,0.0185 -0.527246,0.0799 -1.037343,0.22822 -1.558761,0.33667 -0.595207,0.12475 -1.199449,0.22695 -1.75782,0.47972 0,0 0.569465,0.53478 0.569465,0.53478 z" />
    <path
       style="fill:#e8d7cf;fill-opacity:1;stroke:#ababab;stroke-width:0.982677;stroke-miterlimit:4;stroke-dasharray:none;stroke-opacity:0;paint-order:stroke fill markers"
       id="path1006"
       d="m 100.92716,152.90175 c -0.022,0.20946 -0.0455,0.41738 -0.1071,0.61947 -0.0686,0.17648 -0.11938,0.35969 -0.18385,0.53754 -0.062,0.14471 -0.1385,0.2826 -0.19506,0.42943 -0.0764,0.157 -0.17892,0.29912 -0.28772,0.43508 -0.14878,0.16033 -0.285085,0.33027 -0.42394,0.49906 -0.163544,0.13374 -0.292172,0.29985 -0.417881,0.46795 -0.123792,0.10037 -0.227554,0.22842 -0.357339,0.32195 -0.108826,0.10894 -0.217766,0.21771 -0.311642,0.33986 0,0 0.505618,0.21371 0.505618,0.21371 v 0 c 0.08885,-0.097 0.180154,-0.19261 0.281054,-0.27729 0.135783,-0.12787 0.278557,-0.25075 0.392451,-0.39922 0.126993,-0.16259 0.275519,-0.30322 0.413219,-0.45622 0.13987,-0.17262 0.28873,-0.3372 0.42783,-0.51038 0.12283,-0.16651 0.24047,-0.33925 0.31928,-0.53166 0.0689,-0.15083 0.13948,-0.30097 0.19807,-0.45626 0.059,-0.18775 0.12904,-0.37145 0.184,-0.56038 0.0586,-0.23755 0.0921,-0.47944 0.11428,-0.72301 0,0 -0.55127,0.0504 -0.55127,0.0504 z" />
    <path
       style="fill:#e8d7cf;fill-opacity:1;stroke:#ababab;stroke-width:0.221137;stroke-miterlimit:4;stroke-dasharray:none;stroke-opacity:0;paint-order:stroke fill markers"
       d="m 209.93888,22.7602 c -3.69489,3.593911 -5.84925,8.554752 -6.57964,13.611111 -2.5664,0.945997 -5.00574,2.210541 -7.53736,3.237957 -2.14762,1.426799 -4.02344,3.23993 -6.1375,4.727695 -5.28325,4.358867 -10.85752,8.584802 -14.74824,14.317609 -2.19099,3.155785 -3.56472,6.793814 -5.4613,10.126857 -1.99793,3.793645 -3.94314,7.713397 -4.55134,12.004878 -0.96812,1.679289 -2.82918,2.624856 -3.6766,4.401812 -0.0369,1.008216 1.07549,1.847838 1.03332,2.759318 -1.10377,0.593058 -2.28709,1.904356 -1.31285,3.143899 0.4023,0.799244 1.07389,1.525313 1.50404,2.236726 -0.42042,1.161818 0.0177,2.612161 -1.18847,3.413765 -0.9886,1.982258 2.20905,3.187218 1.56382,5.271183 -0.26205,1.31738 0.71225,2.28951 1.31989,3.29466 0.30562,3.49459 1.74417,6.81961 3.35574,9.90111 1.66718,2.52294 3.80646,4.75602 5.74851,7.0196 -3.92287,0.11117 -7.59518,1.92008 -11.00113,3.73587 -4.51786,2.29043 -8.62179,5.27977 -12.3697,8.6744 -3.26036,2.78932 -6.56215,5.69819 -8.5547,9.57607 -2.52072,4.42771 -5.45967,8.75771 -6.57568,13.80849 -0.2719,1.70327 -1.36915,3.52283 -0.73395,5.23481 0.24532,0.63375 1.14928,0.55967 1.4987,0.70603 0.17224,1.20346 -0.3115,3.27228 1.34325,3.40759 0.89795,0.34182 1.67507,-1.77004 2.07886,-1.0812 -0.28601,0.75286 1.27247,1.98693 0.69357,2.12509 -1.96264,0.95671 -2.94918,3.13298 -4.44367,4.64005 -3.21483,3.90447 -6.08343,8.11796 -9.89046,11.49787 -2.62161,2.56109 -5.94769,4.49285 -9.37148,5.64697 -1.09155,-3.49309 -2.41705,-6.95883 -4.72515,-9.84962 -2.00424,-2.73648 -4.09109,-5.49281 -6.67341,-7.69696 1.52246,-1.9916 2.35614,-4.57252 4.6308,-5.89575 4.69813,-3.64312 9.21301,-8.03207 11.19626,-13.78355 0.54672,-1.81328 1.73617,-3.70214 1.32264,-5.64243 -0.93964,-1.53563 -2.84715,-0.25427 -4.16139,-0.0317 -0.99238,0.18405 -2.08097,0.85391 -2.99358,0.72257 -0.57264,-1.25352 -1.73009,-2.58722 -3.27048,-2.12508 -1.55555,0.4121 -2.92316,1.466 -4.60531,1.33966 -2.4967,0.74156 -4.12083,3.05883 -5.72389,4.97011 -0.947344,1.64029 -2.066351,3.14525 -3.198778,4.66421 -3.991246,6.29242 -8.647428,12.16032 -12.271075,18.68539 -0.882541,1.48225 -0.885329,3.26664 -0.119111,4.79474 0.282781,0.79902 0.764179,1.78988 1.470641,2.09168 -2.345238,2.29258 -4.245946,5.24785 -4.889828,8.49358 0.245687,1.15724 -1.050903,0.43682 -1.561915,1.11745 -3.196631,2.64924 -3.710611,7.11007 -3.796356,10.99768 0.04196,5.22018 -0.264772,10.55352 0.94386,15.67118 0.743624,1.99367 0.716708,4.2061 1.620901,6.17087 1.988992,5.14909 4.313371,10.30409 7.81783,14.61324 0.970955,0.77533 -1.098093,1.09356 -1.591068,1.67062 -3.5781,1.97409 -6.830952,5.37287 -11.209564,5.21273 -4.488045,0.0512 -7.791337,-3.50774 -10.86322,-6.30259 -6.60392,-6.29399 -12.826392,-13.34852 -16.182132,-21.95645 -2.923282,-8.25533 -3.462639,-17.08906 -5.976801,-25.46195 -0.521744,-2.101 -2.247276,-3.83652 -4.465981,-3.99438 -3.602903,-0.38034 -6.263964,2.67183 -8.546061,4.99605 -1.300416,1.59339 -3.249421,3.16646 -2.779236,5.46062 -0.0014,16.09968 -0.0028,32.19936 -0.0043,48.29905 0.661322,1.70923 2.438339,2.73102 3.69506,4.02513 8.125637,7.18949 18.07508,12.15861 28.592106,14.73143 4.150479,1.27665 8.497103,1.56773 12.814803,1.44255 3.019954,0.10948 6.118382,-0.0679 8.8537,-1.49329 6.056376,-2.67279 11.333815,-6.73555 16.536155,-10.75794 2.535249,-1.72028 5.69055,-3.07148 8.7922,-2.48198 3.11293,1.21591 5.3582,3.89988 7.51143,6.34669 1.17205,0.79554 -0.18834,1.11613 -0.76321,1.69953 -8.21754,7.1759 -18.170059,12.00767 -28.343689,15.66245 -1.186237,0.19238 -2.541991,1.57884 -1.361832,2.64709 2.050646,0.97323 4.475573,0.87104 6.67594,1.39566 0.424131,0.20285 2.10732,0.14718 1.767906,0.56696 -1.441726,1.24174 -3.3068,2.02111 -4.470375,3.53816 -0.208433,2.02655 2.297156,1.55186 3.598805,1.71765 4.949828,0.31266 9.567027,2.63655 14.368415,3.90559 2.28186,1.01953 4.33398,-0.94598 6.18869,-1.9997 5.31176,-3.80049 10.88451,-7.15963 16.75397,-10.03414 3.51812,-1.7422 7.185,-3.56953 10.73613,-4.99324 1.07727,1.41462 2.93393,0.0976 4.2734,-0.13869 14.80707,-4.87192 28.80364,-11.82508 42.86444,-18.47813 9.97604,-4.96605 20.34766,-9.57656 28.93516,-16.81862 7.37793,-6.89133 14.21937,-14.36089 20.60899,-22.17373 4.82612,-6.22185 9.77068,-12.37158 14.25244,-18.84697 5.28747,-9.5872 9.48781,-19.75191 12.72308,-30.20756 0.95563,-3.24306 2.24387,-6.3165 3.18409,-9.52037 -0.15107,-0.75623 -0.0938,-1.39673 0.15734,-2.14135 0.18975,-0.15633 1.10718,0.36369 1.6381,0.1991 3.38428,-0.29423 6.7612,-0.97895 10.02066,-1.91412 0.9807,-0.32459 0.87649,-1.39006 0.99112,-2.16508 2.52012,-1.79496 5.189,-3.41623 7.93778,-4.85584 0.90388,-0.36272 1.03932,-1.48798 0.79815,-2.18267 0.93509,-0.93675 3.05558,-1.78552 2.20377,-3.42563 -0.44712,-0.68921 1.14361,-0.64011 1.57788,-1.06012 1.01793,-0.33704 1.84972,-1.6587 1.02364,-2.58835 0.53554,-3.86245 0.21156,-7.81288 0.34228,-11.70842 0.0516,-20.79841 0.018,-41.596934 0.0278,-62.395392 -0.16893,-1.28676 -1.76677,-1.275194 -2.30264,-2.373419 -6.76818,-8.975285 -15.57296,-16.352436 -25.22372,-22.080256 -6.67639,-3.810238 -14.00698,-6.385042 -21.42318,-8.322346 -4.40671,-0.796685 -8.94571,-1.451041 -13.4208,-0.945411 -0.77194,0.142471 -1.36155,0.919316 -2.2064,0.412271 -3.46022,-1.078823 -6.41431,-3.264751 -8.89272,-5.862051 -1.28409,-1.914522 -3.67797,-1.093516 -5.59656,-1.25952 -0.6387,-0.02285 -1.25481,-0.03399 -1.84028,0.262834 z m 7.2297,47.711848 c 2.54116,0.0073 4.88993,2.152214 4.7565,4.752551 0.0471,3.381748 -4.11355,5.995606 -7.05828,4.120077 -3.0319,-1.479343 -3.31463,-6.149684 -0.64785,-8.110497 0.84917,-0.602898 1.92069,-0.830956 2.94963,-0.762131 z m 37.86172,19.856718 c 2.54395,-0.159822 5.10744,1.796201 4.94287,4.492791 0.10026,1.824482 -1.73599,3.162478 -3.32631,3.607595 -2.52744,0.75826 -5.48473,-1.386516 -5.02812,-4.120077 0.17182,-1.686085 1.27363,-4.406895 3.41156,-3.980309 z m -28.01072,0.324366 c 1.94668,0.629815 4.10866,1.311156 5.57709,2.753165 -1.16871,2.068879 -3.06197,3.73988 -5.02109,5.060215 -0.44053,0.219394 -1.35309,0.481711 -1.55855,0.440401 -0.62549,-1.064873 -1.33122,-2.195706 -1.03419,-3.517934 0.33683,-1.634003 0.60876,-3.631969 1.97213,-4.728374 0.0213,-0.0041 0.0428,-0.0084 0.0646,-0.0075 z m -64.68794,62.841508 c 2.3496,0.63695 4.88356,0.70996 7.18183,1.65599 3.14805,1.18669 6.32137,2.42743 9.22816,4.16152 2.25934,1.86235 4.51872,4.13582 5.34458,7.01609 0.20644,1.7485 0.0433,3.56994 -0.65357,5.19954 -2.96497,0.0926 -5.89006,-0.44666 -8.83307,-0.62983 -1.59397,0.22284 -1.35834,2.24574 -0.30414,2.98215 0.65358,0.68094 1.38689,1.2794 2.13124,1.85742 -1.16497,0.73344 -0.29625,2.13656 0.55248,2.71669 -1.26253,-0.0861 -2.52091,1.44252 -1.40252,2.46219 0.43219,0.42871 -1.40595,0.59298 -1.74534,0.96959 -5.66286,2.78439 -11.71289,4.5955 -17.87535,5.85092 -1.83301,0.40972 -2.27982,2.45106 -2.14399,4.06425 -0.46072,2.2309 -0.89766,4.47773 -1.05134,6.766 -0.1404,0.5981 0.0656,1.8761 -0.86102,1.33615 -3.44412,-1.48206 -6.31678,-4.02297 -9.74797,-5.55665 -0.72942,-0.40445 -1.58621,-0.80909 -2.1679,-1.32758 2.7024,-2.80916 5.78297,-5.25693 8.54971,-7.9717 0.91884,-1.48957 -1.21398,-2.41807 -1.66461,-3.70903 -1.60461,-2.76388 -2.45697,-5.87987 -3.51069,-8.87212 -0.48412,-1.59009 -0.35036,-3.31221 -0.80453,-4.88008 -0.55895,-0.66872 1.22444,-1.49894 1.72254,-2.22457 3.34239,-2.99416 6.53471,-6.18945 10.20388,-8.80655 2.39081,-1.43556 5.01545,-2.40835 7.56329,-3.51925 0.0961,0.15295 0.19222,0.30591 0.28833,0.45886 z"
       id="path1010" />
    <path
       style="fill:#e8d7cf;fill-opacity:1;stroke:#ababab;stroke-width:0.62547;stroke-miterlimit:4;stroke-dasharray:none;stroke-opacity:0;paint-order:stroke fill markers"
       d="m 24.44684,199.22164 c -7.646396,14.29842 -8.666116,32.92838 -0.02859,47.00495 3.223858,1.18544 1.983634,-3.56519 2.268971,-5.36665 -0.01167,-13.83919 0.360717,-27.82718 -0.253917,-41.5688 -0.293963,-0.90875 -1.499891,-0.61653 -1.986461,-0.0695 z"
       id="path1012" />
    <path
       style="fill:#e8d7cf;fill-opacity:1;stroke:#ababab;stroke-width:0.62547;stroke-miterlimit:4;stroke-dasharray:none;stroke-opacity:0;paint-order:stroke fill markers"
       d="m 289.84311,63.731381 c -0.12294,23.518943 -0.008,47.055639 -0.0385,70.581389 2.69664,3.38564 3.74687,-3.77316 5.02981,-5.7123 3.3821,-9.12624 8.19467,-18.31429 7.06982,-28.35886 0.22234,-5.803838 -0.97443,-12.118613 -2.12206,-17.361906 4.49912,-2.043044 7.33655,-7.557751 6.91194,-12.388043 -2.06131,-3.599882 -7.19597,-3.218991 -10.44748,-5.270979 -2.01736,-0.451078 -4.78403,-3.563936 -6.40349,-1.489301 z"
       id="path1014" />
  </g>
  <g
     inkscape:groupmode="layer"
     id="layer14"
     inkscape:label="Image 10">
    <path
       style="fill:#ffffff;fill-opacity:1;stroke:#ababab;stroke-width:0.156367;stroke-miterlimit:4;stroke-dasharray:none;stroke-opacity:0;paint-order:stroke fill markers"
       d="m 220.01646,70.632186 c -1.48249,0.105712 -2.93319,1.875962 -2.24451,3.326062 0.57178,0.82084 1.35422,1.752034 2.38344,1.918811 1.5279,-0.182487 2.82073,-1.812307 2.1634,-3.332589 -0.33873,-0.965199 -1.20546,-1.934813 -2.30233,-1.912284 z"
       id="path1171" />
    <path
       style="fill:#ffffff;fill-opacity:1;stroke:#ababab;stroke-width:0.156367;stroke-miterlimit:4;stroke-dasharray:none;stroke-opacity:0;paint-order:stroke fill markers"
       d="m 257.25767,89.574766 c -1.80205,0.434812 -2.13499,3.168686 -0.80153,4.320587 1.01321,1.085025 3.04585,1.295569 3.85472,-0.148247 0.88144,-1.426976 -0.52185,-2.863558 -1.64625,-3.619757 -0.42511,-0.258964 -0.88683,-0.572398 -1.40694,-0.552583 z"
       id="path1173" />
  </g>
  <g
     inkscape:groupmode="layer"
     id="layer7"
     inkscape:label="Image 3"
     style="display:inline">
    <path
       style="fill:#e8d7cf;fill-opacity:1;stroke:#ababab;stroke-width:0.982677;stroke-miterlimit:4;stroke-dasharray:none;stroke-opacity:0;paint-order:stroke fill markers"
       id="path1020"
       d="m 99.783689,153.04985 c 0.0081,0.56739 0.0098,1.18969 -0.222152,1.71911 -0.378868,0.30934 -0.519014,0.87956 -0.732074,1.3145 -0.417199,0.53805 -0.669324,1.17876 -0.991655,1.77367 -0.200359,0.43885 -0.09601,0.22993 -0.31039,0.62811 0,0 2.129707,0.53769 2.129707,0.53769 v 0 c 0.214693,-0.43156 0.11178,-0.22514 0.30865,-0.61932 0.313235,-0.61698 0.648185,-1.21977 1.002405,-1.81391 0.25751,-0.52523 0.54641,-1.03009 0.77984,-1.5645 0.16905,-0.71462 0.26142,-1.44047 0.23738,-2.1765 0,0 -2.201711,0.20115 -2.201711,0.20115 z" />
    <path
       style="fill:#e8d7cf;fill-opacity:1;stroke:#ababab;stroke-width:0.982677;stroke-miterlimit:4;stroke-dasharray:none;stroke-opacity:0;paint-order:stroke fill markers"
       id="path1022"
       d="m 81.748075,192.93542 c 0.748498,-0.1452 0.345754,-0.0644 1.207706,-0.24506 0,0 0.455658,-2.11951 0.455658,-2.11951 v 0 c -0.792419,0.18069 -0.417393,0.10885 -1.123342,0.22442 0,0 -0.540022,2.14015 -0.540022,2.14015 z" />
    <path
       style="fill:#e8d7cf;fill-opacity:1;stroke:#ababab;stroke-width:0.982677;stroke-miterlimit:4;stroke-dasharray:none;stroke-opacity:0;paint-order:stroke fill markers"
       id="path1026"
       d="m 81.386902,193.06968 c 0.330491,-0.1607 0.668446,-0.29899 1.016886,-0.41518 0.313944,-0.0776 0.626465,-0.16286 0.937529,-0.25176 0.292868,-0.0719 0.587077,-0.13793 0.878968,-0.21389 0,0 0.06702,-0.37252 0.06702,-0.37252 v 0 c -0.291594,0.081 -0.587094,0.14636 -0.882932,0.20986 -0.42088,0.12137 -0.842182,0.2412 -1.263134,0.36254 -0.355733,0.12317 -0.698762,0.27379 -1.044139,0.42305 0,0 0.289803,0.2579 0.289803,0.2579 z" />
    <path
       style="fill:#e8d7cf;fill-opacity:1;stroke:#ababab;stroke-width:0.982677;stroke-miterlimit:4;stroke-dasharray:none;stroke-opacity:0;paint-order:stroke fill markers"
       id="path1028"
       d="m 81.050944,192.76526 c 0.09856,-0.1321 0.220401,-0.24398 0.327246,-0.36911 0.183033,-0.12258 0.392586,-0.1906 0.600859,-0.25607 0.218703,-0.0704 0.443972,-0.11577 0.669016,-0.16092 0.372049,-0.0748 0.739595,-0.17026 1.1108,-0.24864 -0.0087,-0.007 -0.205504,-0.18723 -0.262823,-0.17933 -0.08689,0.012 -0.160148,0.0716 -0.241023,0.10556 -0.27444,0.11518 -0.554234,0.21279 -0.835049,0.31091 -0.255067,0.0885 -0.508918,0.18045 -0.763869,0.26923 -0.274747,0.0957 -0.136061,0.0534 -0.270072,0.0816 0.05605,0.0851 0.07922,0.20562 0.168156,0.25543 0.05355,0.03 0.114637,-0.0439 0.172402,-0.0647 0.372971,-0.13392 0.75279,-0.24473 1.129518,-0.36733 -0.05002,-0.10385 -0.05154,-0.25171 -0.150047,-0.31157 -0.07486,-0.0455 -0.170172,0.0418 -0.254437,0.0658 -0.103046,0.0293 -0.20491,0.0626 -0.307364,0.0939 0,0 -0.05755,0.36116 -0.05755,0.36116 v 0 c 0.100192,-0.0293 0.200423,-0.0585 0.300577,-0.088 0.06923,-0.0204 0.174765,0.003 0.207584,-0.0615 0.04946,-0.0969 -0.0064,-0.21743 -0.0096,-0.32614 0.11602,0.0429 0.02035,0.004 -0.289742,0.10269 -0.105388,0.0336 -0.682877,0.21471 -0.845659,0.27771 -0.07332,0.0284 -0.186126,0.0248 -0.214473,0.0982 -0.04095,0.10593 0.03069,0.22505 0.04604,0.33758 0.205397,-0.0185 0.0799,7e-5 0.422633,-0.11681 0.327346,-0.11163 0.650544,-0.23558 0.977861,-0.34734 0.285033,-0.10338 0.57048,-0.20575 0.84926,-0.32537 0.129555,-0.0556 0.443601,-0.15962 0.464656,-0.35351 0.0088,-0.0812 -0.103444,-0.1264 -0.155165,-0.1896 -0.371186,0.0784 -0.736592,0.18358 -1.111126,0.24706 -0.321784,0.0734 0.07043,-0.0129 -0.25393,0.0483 -0.259041,0.0488 -0.509435,0.13777 -0.760991,0.21349 -0.247555,0.0837 -0.503671,0.17791 -0.68888,0.37035 -0.121625,0.13341 -0.248781,0.26311 -0.348511,0.41454 0,0 0.373747,0.11258 0.373747,0.11258 z" />
    <path
       style="fill:#e8d7cf;fill-opacity:1;stroke:#ababab;stroke-width:0.982677;stroke-miterlimit:4;stroke-dasharray:none;stroke-opacity:0;paint-order:stroke fill markers"
       id="path1030"
       d="m 263.78824,154.35206 c -0.0369,0.3527 -0.0652,0.70612 -0.0831,1.06027 -0.007,0.13911 -0.009,0.27835 -0.0119,0.41758 0,0 0.77389,-0.0611 0.77389,-0.0611 v 0 c 0.002,-0.13333 0.005,-0.26667 0.0105,-0.3999 0.0162,-0.33742 0.0387,-0.67515 0.0897,-1.00936 0,0 -0.77916,-0.008 -0.77916,-0.008 z" />
    <path
       style="fill:#e8d7cf;fill-opacity:1;stroke:#ababab;stroke-width:0.156367;stroke-miterlimit:4;stroke-dasharray:none;stroke-opacity:0;paint-order:stroke fill markers"
       d="m 213.39559,21.246659 c -2.11478,0.238531 -3.55057,2.106094 -4.85576,3.606704 -2.52622,3.185367 -4.11334,7.093859 -4.72772,11.09827 0.0354,0.438284 0.0143,0.882541 -0.53767,0.852805 -2.55262,0.97719 -4.99255,2.246756 -7.57081,3.147359 -1.35825,1.164336 -2.71349,2.365025 -4.1711,3.423961 -4.22653,3.416493 -8.53142,6.764407 -12.46139,10.524242 -1.70326,1.780405 -2.98574,3.907387 -4.42514,5.896477 -1.61661,2.712798 -2.88006,5.626075 -4.41983,8.378021 -2.00955,3.945588 -4.34268,7.908029 -4.82414,12.396157 -0.6874,1.942225 -2.82621,2.906835 -3.77951,4.655618 0.0745,1.029726 1.18455,1.857614 1.06166,2.901524 -0.66242,0.631336 -2.05954,1.181164 -1.59621,2.340862 0.39411,1.006207 1.15967,1.8643 1.7746,2.687391 -0.33029,1.003651 -0.1691,2.168651 -0.6567,3.099186 -0.72916,0.544315 -0.97824,1.562278 -0.32849,2.272375 0.64542,1.102649 1.7441,2.205049 1.38577,3.583899 -0.34327,1.04917 0.28872,1.87614 1.00978,2.55367 0.58142,0.76813 0.19595,1.86967 0.56288,2.74303 0.98188,3.98706 2.68251,7.88971 5.50793,10.9245 1.14218,1.43605 2.77137,3.10569 3.69946,4.31844 -3.26103,-0.24853 -6.40147,1.09722 -9.30013,2.44621 -4.63758,2.29706 -9.14084,4.94813 -12.99692,8.4316 -3.66419,3.17979 -7.63587,6.26053 -9.96557,10.62467 -0.62507,1.25018 -1.60572,2.3655 -1.97015,3.71307 0.47206,1.21348 2.04641,0.52382 3.03951,0.70455 9.18959,-0.022 18.38837,0.0439 27.57224,-0.0329 0.81455,-0.0715 1.75229,-1.30845 2.15121,-0.2015 1.22923,0.35912 2.62457,0.0644 3.91353,0.17266 34.42442,0.10197 68.84907,0.0473 103.27359,0.0617 1.57345,-0.7203 3.07013,-1.67221 4.64225,-2.4344 0.79724,-0.27532 1.6171,-1.38049 0.73937,-2.0481 0.77485,-0.85139 1.91391,-1.34941 2.57458,-2.28585 0.23552,-0.60277 -0.28155,-1.16297 -0.56409,-1.59218 1.06546,-0.62601 2.52549,-0.67114 3.32638,-1.67701 0.30074,-0.52102 -0.18154,-1.07085 -0.43573,-1.40446 0.93579,-0.55354 1.96435,-1.19439 2.14973,-2.3766 0.91454,-3.93189 3.39635,-7.20252 4.46603,-11.09019 2.181,-6.44186 5.2967,-12.82605 5.26681,-19.78403 -0.03,-4.713239 -0.0178,-9.470997 -0.8393,-14.126761 -0.46791,-2.395712 -1.20023,-4.727678 -1.85324,-7.076663 0.90156,-0.09304 1.59849,-0.727939 2.42012,-1.044871 3.23467,-2.17994 4.55912,-6.174112 4.9347,-9.887126 0.17324,-1.318288 -0.25704,-3.043135 -1.79451,-3.276958 -4.60756,-1.405084 -9.2509,-2.933409 -13.4222,-5.382614 -0.64787,-0.531704 -1.36196,-1.017078 -2.1682,-1.211082 -2.05235,-2.144716 -3.61817,-4.700555 -5.69782,-6.840726 -6.42984,-6.966261 -14.10243,-12.747358 -22.36171,-17.371797 -5.4499,-2.889981 -11.34438,-4.839178 -17.23478,-6.61364 -4.36046,-1.374758 -8.97167,-1.479146 -13.49916,-1.704089 -1.06037,-0.07119 -2.16807,0.02828 -3.02336,0.714177 -1.7006,0.192438 -3.21928,-0.920021 -4.71268,-1.585707 -3.28416,-1.611125 -5.54124,-4.761316 -8.4051,-6.988025 -0.26184,-0.157768 -0.56606,-0.248214 -0.87301,-0.235889 z m 3.39195,48.929974 c 1.64477,-0.09256 3.27634,0.532764 4.34607,1.801021 0.98691,0.875094 1.14384,2.21251 1.03941,3.455656 0.25413,1.977413 -1.33414,3.53153 -2.92776,4.400154 -1.50832,0.77385 -3.38956,0.74979 -4.76595,-0.299209 -2.84062,-1.54588 -3.24692,-5.740722 -1.13282,-8.054795 0.81427,-1.084678 2.15548,-1.349003 3.44105,-1.302827 z m 38.09401,19.757468 c 2.29273,-0.079 4.91573,1.184856 5.28341,3.664202 0.39402,1.488968 0.10455,3.260709 -1.29568,4.124478 -1.65577,1.348227 -4.20389,1.788096 -5.9659,0.383202 -2.16415,-1.582391 -2.16232,-4.93989 -0.50099,-6.896714 0.57006,-0.85742 1.39184,-1.474292 2.47916,-1.275168 z m -27.78887,0.422673 c 1.93186,0.317255 3.69398,1.337148 5.34805,2.343037 0.63016,0.274966 0.70394,0.988026 0.23123,1.447655 -1.39836,1.740502 -3.00729,3.361499 -4.82438,4.663387 -0.59198,0.421641 -1.47522,0.04716 -1.9704,0.663845 -0.46315,-0.423419 -0.43511,-1.206219 -0.95722,-1.718041 -0.74582,-1.441104 -0.17645,-3.176592 0.19921,-4.654374 0.4017,-0.957375 0.60157,-2.369447 1.71089,-2.732144 0.0869,-0.01331 0.1749,-0.01561 0.26262,-0.01336 z"
       id="path1034" />
    <path
       style="fill:#e8d7cf;fill-opacity:1;stroke:#ababab;stroke-width:0.62547;stroke-miterlimit:4;stroke-dasharray:none;stroke-opacity:0;paint-order:stroke fill markers"
       d="m 111.52031,146.53786 c -2.91583,0.95134 -6.24341,1.32489 -8.31173,4.03901 -3.00572,2.0106 -1.86121,6.79586 -5.377893,8.12775 -4.504008,5.85284 -9.166108,11.82632 -12.396743,18.46956 -0.387327,1.80151 0.87639,4.39813 2.732449,4.30132 -2.397341,3.67663 -6.55368,7.33069 -5.583008,12.24881 0.297759,2.60086 -2.26748,-4.44135 -3.393814,0.75086 -3.892535,9.12651 -2.178726,19.63128 0.263549,28.94315 1.908166,5.56961 4.053165,11.64426 8.421135,15.72218 2.492026,0.1972 -1.577809,1.7542 -2.238116,2.56089 -4.554593,2.94271 -10.586966,7.3113 -16.087238,3.91844 -7.452506,-5.14381 -13.789578,-11.88928 -18.897205,-19.35841 -6.758553,-10.56871 -6.62623,-23.65841 -11.04295,-35.0632 -2.957543,-3.915 -8.355424,-0.42166 -10.667515,2.49501 -10.151459,11.6719 -11.970375,28.75613 -8.295577,43.31651 3.719691,12.97939 16.258816,20.59925 27.916362,25.64253 9.046802,3.48003 19.232361,5.70267 28.829952,3.51443 8.691016,-3.00262 14.984258,-10.36643 23.464552,-13.67471 5.67644,-1.69981 9.05092,4.43855 13.06184,6.91941 -8.22739,7.78229 -18.527029,13.11492 -28.997846,17.24256 -1.89703,0.18103 -2.359794,2.76674 -0.191445,2.80332 1.841013,0.68858 4.884925,0.24843 6.16854,1.41719 -0.844134,1.75588 -5.687871,3.34959 -3.470893,5.10565 6.268042,-0.4806 11.891582,3.58351 18.064294,3.69092 8.09013,-3.89919 15.31192,-9.46757 23.5827,-13.0914 6.00105,-2.83348 12.00527,-5.94717 18.47076,-7.69167 0.57007,2.5827 3.94599,-0.24062 5.40275,-0.45002 18.24364,-7.88711 36.47014,-16.08468 53.54179,-26.30468 13.96827,-9.3798 23.93369,-23.30039 34.29416,-36.28168 7.18723,-8.72689 12.3341,-18.83224 16.11335,-29.44409 2.50404,-6.95235 5.41559,-13.91454 7.11669,-21.06686 -0.39447,-0.99954 -1.43316,-1.32787 0.38662,-1.01193 3.92478,-0.035 8.61212,0.0381 11.78015,-2.53355 0.42041,-1.2655 3.19955,-3.1092 0.51093,-3.69465 -22.95671,-1.02135 -45.97893,-0.29067 -68.96032,-0.52541 -12.21624,0.0634 -24.46371,-0.12848 -36.66065,0.0928 -2.38039,1.83529 -6.32291,2.28399 -7.93506,4.8856 0.82581,1.90773 3.61165,0.57466 5.21255,1.67453 6.47991,2.24028 15.00545,5.04766 16.27788,12.85423 0.0185,2.27895 0.55972,6.30137 -2.8973,4.98604 -2.24394,0.0111 -10.5782,-1.15359 -5.82753,2.56667 2.50517,1.18555 0.73982,1.6104 1.17266,3.20182 1.57125,0.88072 1.03867,0.74227 -0.29214,1.18722 -1.9756,1.53664 3.99289,3.80786 0.634,2.33961 -7.21796,2.66767 -14.52117,5.54311 -22.08714,7.25382 -1.81384,3.46903 -1.13065,8.31863 -2.82942,11.85224 -4.59122,-1.87609 -9.28234,-4.54731 -13.14512,-7.3197 2.46195,-3.36577 6.23048,-5.66851 8.61009,-8.98304 -2.96174,-4.42959 -4.67024,-9.62494 -5.84158,-14.73885 -2.09967,-2.08003 -4.2163,1.75359 -5.58426,3.01465 -5.9084,6.99043 -11.78997,15.66306 -20.73956,18.55285 -2.30751,-6.77682 -6.43485,-13.18897 -11.6521,-18.03818 -3.58353,3.32168 -0.62681,0.25587 0.71731,-1.60616 5.40908,-7.34997 14.91917,-12.90507 15.98324,-22.66894 -1.60583,-3.50929 -6.30766,2.44536 -7.82069,-1.60118 -0.41079,-0.36211 -0.94954,-0.59994 -1.50546,-0.54326 z"
       id="path1036" />
    <path
       style="fill:#e8d7cf;fill-opacity:1;stroke:#ababab;stroke-width:0.62547;stroke-miterlimit:4;stroke-dasharray:none;stroke-opacity:0;paint-order:stroke fill markers"
       d="m 139.92517,147.91901 c -2.4872,4.32989 -5.35226,9.3156 -4.84955,14.44919 1.52398,0.84835 0.14871,4.45032 2.80083,3.50073 1.42498,-1.25353 1.89664,0.22941 2.39307,1.27796 3.60291,-1.02886 5.94054,-4.93966 8.99921,-7.10215 4.97812,-5.09448 12.0494,-6.86948 18.02824,-10.28214 1.21473,-2.62559 -3.29654,-2.05879 -4.7301,-2.18115 -7.5034,0.16366 -15.32721,-0.57178 -22.6417,0.33756 z"
       id="path1038" />
  </g>
  <g
     inkscape:groupmode="layer"
     id="layer8"
     inkscape:label="Image 4"
     style="display:none">
    <path
       style="fill:#cfb9ab;fill-opacity:1;stroke:#ababab;stroke-width:0.982677;stroke-miterlimit:4;stroke-dasharray:none;stroke-opacity:0;paint-order:stroke fill markers"
       id="path1043"
       d="m 184.22198,133.37319 c 0.9223,0.61615 1.81288,1.27929 2.69986,1.94503 0.67314,0.49554 1.28669,1.0649 1.93678,1.58929 0.94146,0.66086 1.86369,1.34955 2.80486,2.01065 1.06571,0.69914 2.23183,1.21705 3.39906,1.71869 1.86134,0.68549 3.73756,1.32789 5.59585,2.02268 1.69483,0.69538 3.45845,1.19688 5.20945,1.72651 2.12722,0.62589 4.26926,1.20166 6.41331,1.76706 3.1326,0.76896 6.25694,1.56992 9.39634,2.31094 2.15906,0.49305 4.30684,1.03207 6.4681,1.51573 2.06477,0.46728 4.08997,1.08776 6.13787,1.62297 1.91797,0.59332 3.88722,0.94089 5.87378,1.19735 2.55878,0.31175 5.12631,0.54759 7.68914,0.82416 1.81963,0.22142 3.64368,0.39649 5.47084,0.54083 1.10446,0.1176 2.2118,0.23268 3.30667,0.4228 0.1271,0.0218 0.25421,0.0436 0.38131,0.0655 0,0 0.91006,-1.76115 0.91006,-1.76115 v 0 c -0.12119,-0.0179 -0.24239,-0.0357 -0.36359,-0.0536 -1.14108,-0.20189 -2.29355,-0.30804 -3.44507,-0.43723 -1.82145,-0.14617 -3.6442,-0.2787 -5.46154,-0.47231 -2.55016,-0.27198 -5.10431,-0.51406 -7.64807,-0.84112 -1.93286,-0.25185 -3.86289,-0.53838 -5.73475,-1.10263 -0.62756,-0.16075 -1.67761,-0.42631 -2.29987,-0.59944 -1.28676,-0.35802 -2.54533,-0.8208 -3.85647,-1.08701 -2.16827,-0.47448 -4.3431,-0.91826 -6.50499,-1.42213 -3.12374,-0.71777 -6.22564,-1.52216 -9.32606,-2.33423 -2.12028,-0.59325 -4.2594,-1.11867 -6.36783,-1.75387 -1.72117,-0.54075 -3.45979,-1.03636 -5.14281,-1.68972 -1.83689,-0.67511 -3.67779,-1.33818 -5.51831,-2.00312 -1.08353,-0.47384 -2.17397,-0.93946 -3.18419,-1.55995 -0.93014,-0.6205 -1.81488,-1.30947 -2.73596,-1.94376 -0.67314,-0.52107 -1.27235,-1.13506 -1.97417,-1.62119 -0.90327,-0.65214 -1.79717,-1.31653 -2.68897,-1.98349 0,0 -1.44063,1.38578 -1.44063,1.38578 z" />
    <path
       style="fill:#cfb9ab;fill-opacity:1;stroke:#ababab;stroke-width:0.982677;stroke-miterlimit:4;stroke-dasharray:none;stroke-opacity:0;paint-order:stroke fill markers"
       id="path1047"
       d="m 175.57846,146.9725 c 1.06135,-0.0467 2.12403,-0.0203 3.18523,0.0138 0.82679,0.0265 1.31449,0.0251 2.12314,0.15809 0.35434,0.0583 0.7026,0.14888 1.0539,0.22332 2.49007,0.67315 4.88969,1.63271 7.29323,2.55923 1.98486,0.81547 4.0731,1.30717 6.15399,1.80312 3.23496,0.75372 6.48356,1.44929 9.70866,2.24455 1.88947,0.44301 3.76434,0.94352 5.6374,1.45041 2.29341,0.65603 4.55121,1.42691 6.83015,2.13074 1.66719,0.50715 3.28951,1.13872 4.90417,1.78962 1.53285,0.60011 3.03061,1.28252 4.52743,1.96593 1.2328,0.54604 2.43687,1.15643 3.62322,1.79658 0.88914,0.46733 1.77655,0.93801 2.66854,1.39981 0,0 1.25579,-1.53869 1.25579,-1.53869 v 0 c -0.89872,-0.40087 -1.75367,-0.90194 -2.6398,-1.32973 -1.20827,-0.66432 -2.44556,-1.28336 -3.69689,-1.86128 -1.51678,-0.69207 -3.05806,-1.32826 -4.59453,-1.97475 -0.54941,-0.22451 -1.08745,-0.47637 -1.63818,-0.69761 -1.10297,-0.44309 -2.2571,-0.7601 -3.38265,-1.13716 -2.29142,-0.68803 -4.55322,-1.46319 -6.8411,-2.16214 -1.88264,-0.55777 -3.78597,-1.03198 -5.70778,-1.4364 -3.22927,-0.76285 -6.48219,-1.42336 -9.69594,-2.25222 -2.01996,-0.51656 -4.0559,-0.98977 -6.01046,-1.72791 -2.46807,-0.92241 -4.92121,-1.89398 -7.44354,-2.66155 -0.95494,-0.23805 -1.32242,-0.3702 -2.29757,-0.45688 -0.37202,-0.0331 -0.74667,-0.0217 -1.11996,-0.0338 -1.06387,-0.0345 -2.12686,-0.0887 -3.19098,-0.11439 0,0 -0.70547,1.84936 -0.70547,1.84936 z" />
    <path
       style="fill:#cfb9ab;fill-opacity:1;stroke:#ababab;stroke-width:0.982677;stroke-miterlimit:4;stroke-dasharray:none;stroke-opacity:0;paint-order:stroke fill markers"
       id="path1053"
       d="m 179.88285,129.50934 c 0.65831,0.53125 1.23333,1.16685 1.76027,1.82697 0.37996,0.47174 0.77307,0.93251 1.15089,1.406 0.37241,0.5429 0.88946,0.96388 1.37812,1.39706 0.57145,0.52515 1.20095,0.97237 1.85981,1.37932 0,0 1.33464,-1.46407 1.33464,-1.46407 v 0 c -0.59919,-0.32506 -1.16074,-0.70446 -1.66376,-1.16709 -0.42358,-0.3882 -0.90005,-0.74851 -1.22525,-1.22201 -0.3775,-0.47376 -0.77675,-0.92805 -1.16874,-1.39006 -0.5822,-0.7384 -1.22383,-1.43508 -1.91227,-2.0754 0,0 -1.51371,1.30928 -1.51371,1.30928 z" />
    <path
       style="fill:#cfb9ab;fill-opacity:1;stroke:#ababab;stroke-width:0.221137;stroke-miterlimit:4;stroke-dasharray:none;stroke-opacity:0;paint-order:stroke fill markers"
       d="m 173.09747,122.54448 c -5.50676,0.64441 -10.41787,3.55118 -15.10958,6.31732 -4.9521,3.24934 -9.38913,7.25436 -13.53279,11.47062 -2.68103,3.43071 -4.66585,7.36002 -6.8077,11.14006 -1.62136,3.3781 -2.86882,7.0046 -3.41465,10.71642 -0.1321,0.9604 0.91757,1.33153 1.68425,1.15946 0.41005,1.19132 -0.48418,3.0373 0.89487,3.62386 0.96202,-0.0493 1.55678,-1.53017 2.35012,-1.48822 0.18711,0.95494 0.62356,2.78251 1.97477,2.08509 2.92332,-2.28934 5.44043,-5.10392 8.31141,-7.42806 2.51258,-2.24936 5.14742,-4.42536 8.31922,-5.68024 3.33656,-1.57688 7.01678,-2.70292 10.11691,-4.77848 0.62312,-0.59061 1.75175,-0.51217 2.4833,-1.09397 1.95525,-1.02541 4.07574,-1.68578 6.15419,-2.34485 1.07909,-0.58553 2.50831,-0.0498 3.71187,-0.15527 3.56914,0.41168 6.83186,2.14427 10.24732,3.1621 8.73518,2.85684 17.90285,4.01224 26.57323,7.09464 5.47418,1.73449 10.72139,4.03949 15.81998,6.69837 1.02701,-0.0725 -0.0289,0.66837 -0.4694,0.41096 -2.51212,1.00057 -4.71373,2.76924 -7.22223,3.74384 -5.15184,2.27031 -10.69311,3.63646 -16.25659,4.41632 -9.56296,0.71872 -19.23897,0.69087 -28.76323,0.14111 -1.8799,-0.0335 -3.84731,-0.61193 -5.68649,-0.15342 -1.27448,0.92375 0.25733,2.21234 1.02277,2.85821 0.47796,0.4729 1.63881,1.21876 1.641,1.45044 -1.91127,-0.0793 -0.78461,1.98956 0.27233,2.45403 0.94423,0.68709 -0.81564,0.25113 -1.27691,0.57514 -1.22615,0.3375 -0.61847,2.04586 0.51029,1.9128 0.64214,0.40868 -0.57469,0.45796 -0.94453,0.66631 -6.00879,2.85939 -12.28794,5.21373 -18.87219,6.38845 -1.42711,0.13497 -2.77616,1.23292 -2.56197,2.77822 -0.0519,2.46324 -0.99393,4.80763 -1.06298,7.28368 -0.17121,0.81799 -0.0548,1.93931 -0.49733,2.56908 -3.65858,-0.98021 -6.41873,-3.87039 -9.83737,-5.40348 -1.17853,-0.62347 -2.5527,-1.16755 -3.46871,-2.09564 2.71949,-2.85962 5.81777,-5.33482 8.67704,-8.08193 0.48223,-1.37551 -1.15637,-2.36203 -1.63194,-3.56628 -1.59197,-2.543 -2.20361,-5.61202 -3.37773,-8.39179 -0.61801,-1.53387 -0.15231,-3.49407 -1.28428,-4.79386 -0.64601,-0.57346 -1.20742,0.1853 -1.63194,0.46325 -1.89059,0.47597 -2.67147,2.60696 -3.99411,3.84825 -3.51053,4.18186 -6.61316,8.81427 -10.67473,12.43216 -2.71443,2.72249 -6.20361,4.46285 -9.74968,5.82886 -1.27699,-3.91023 -2.77032,-7.82579 -5.4249,-11.03483 -1.87645,-2.33365 -3.60587,-4.92489 -6.01805,-6.7324 -0.94082,-0.18126 0.85334,-1.51787 1.01741,-2.20633 0.94853,-1.74241 2.06849,-3.40661 3.78452,-4.49032 4.83212,-3.62572 9.21815,-8.24033 11.1826,-14.07076 0.39746,-1.4718 1.42752,-3.10939 0.80257,-4.62948 -1.16461,-1.18148 -2.88715,0.0554 -4.20968,0.30381 -0.80364,0.11144 -1.77234,0.82833 -2.54182,0.5115 -0.60758,-0.96437 -1.19215,-2.46238 -2.63317,-2.19145 -1.77633,0.36924 -3.36883,1.42284 -5.22943,1.47372 -2.29652,0.90162 -3.80773,3.10188 -5.36876,4.87078 -0.93001,-0.94933 -2.472394,0.0819 -2.202003,1.31285 -0.171182,1.12387 -1.47599,2.13212 -0.942776,3.27795 -3.183102,5.26374 -6.990297,10.11718 -10.206983,15.36328 -1.369454,2.13803 -3.397878,4.76266 -2.097343,7.41228 0.370263,0.87079 0.905487,2.21006 2.085004,1.98666 -2.06729,2.42681 -4.431421,4.89751 -5.207893,8.0872 -0.09911,0.84058 0.04643,1.47107 -0.995956,1.11331 -0.995175,1.1356 -1.958399,2.40263 -2.892493,3.62518 -1.739654,3.25669 -1.550913,7.13348 -1.733847,10.71988 0.04332,4.47096 -0.03357,9.05047 1.119835,13.40063 0.62215,2.20926 0.808833,4.56583 1.758469,6.69847 2.023377,5.04109 4.326557,10.13224 7.972982,14.22672 0.685226,0.44462 -1.405679,0.98935 -1.79862,1.48597 -3.098735,1.74946 -5.85907,4.25812 -9.309853,5.29454 -3.529758,0.66837 -7.194454,-0.48092 -9.875615,-2.83228 -1.718375,-1.21545 -3.033659,-3.00651 -4.842651,-4.0291 -1.494816,0.52031 -0.553498,2.54372 -0.816632,3.74561 0.05558,7.56002 -0.110745,15.16235 0.08281,22.69606 0.672289,1.10386 2.376167,0.69295 3.522693,0.95839 5.329835,0.45925 11.081616,0.72569 15.898461,-2.02506 5.429602,-2.66613 10.254272,-6.34641 15.005089,-10.04579 2.404091,-1.78884 5.436462,-2.82731 8.427832,-2.74658 3.38345,0.90705 5.70949,3.76663 8.05028,6.18144 0.22318,0.68271 1.72211,1.21044 0.88168,1.73479 -4.46016,3.59135 -8.95403,7.06217 -14.054192,9.75851 -4.938356,2.81121 -10.203711,4.89663 -15.464971,6.95299 -1.389584,0.3825 -1.16633,2.45054 0.241297,2.55318 2.471464,0.48934 5.019376,0.6609 7.43671,1.39285 -1.47036,1.50551 -3.645196,2.2701 -4.917561,3.93766 -0.162203,1.48966 1.785355,1.1277 2.727625,1.30438 5.0576,0.1022 9.641757,2.53278 14.471492,3.74178 1.85685,0.93287 3.71111,-0.26034 5.25743,-1.23221 4.91429,-3.38509 9.91369,-6.68249 15.25902,-9.39265 7.42222,-3.8216 15.05763,-7.37774 22.92325,-10.12189 0.0142,1.44732 1.72894,1.38712 2.65351,0.85829 11.91864,-4.60662 23.42058,-10.21658 34.95153,-15.70407 8.87624,-4.42372 17.98019,-8.60455 26.00871,-14.49405 7.55637,-6.27366 14.12975,-13.63586 20.52985,-21.05832 5.69598,-6.89756 11.14478,-14.00661 16.36229,-21.27159 4.28862,-7.37231 7.75497,-15.22097 10.65046,-23.2378 2.22477,-6.05805 3.71711,-12.39769 6.48518,-18.20207 0.87809,-0.64381 0.36126,-1.85827 -0.62588,-2.00158 -2.15382,-0.57725 -4.46911,-1.06215 -6.69304,-0.74543 -0.77362,0.87266 -1.93553,0.14982 -2.96501,0.19514 -7.63489,-0.92616 -15.31734,-1.10069 -22.69262,-3.44801 -12.6416,-3.24652 -25.59576,-5.65439 -37.62604,-10.84128 -2.51113,-1.21977 -4.59138,-3.11884 -6.85434,-4.69717 -0.67588,-0.21069 -1.36713,0.14538 -1.86357,-0.55907 -1.61077,-1.43971 -3.04502,-3.1874 -4.3561,-4.83254 -1.08497,-2.01202 -3.11322,-3.35567 -4.72506,-4.93819 -0.92662,-0.64008 -1.73226,-1.77289 -2.99954,-1.59706 z"
       id="path1055" />
    <path
       style="fill:#cfb9ab;fill-opacity:1;stroke:#ababab;stroke-width:1.25094;stroke-miterlimit:4;stroke-dasharray:none;stroke-opacity:0;paint-order:stroke fill markers"
       d="m 35.888428,189.72925 c -10.747229,3.86339 -14.104642,17.11553 -16.011841,27.21765 -2.495114,13.21129 1.118412,28.00212 12.625486,36.00178 7.756079,5.95552 16.971253,11.22114 26.742758,12.3868 4.904051,-3.44208 1.298629,-11.45684 2.508687,-16.42954 1.747439,-6.94805 -1.955823,-11.91495 -6.750333,-16.4022 -10.717802,-11.21185 -10.445484,-27.5517 -16.143616,-41.09871 -0.646397,-0.99569 -1.734683,-1.78578 -2.971141,-1.67578 z"
       id="path1057" />
    <path
       style="fill:#cfb9ab;fill-opacity:1;stroke:#ababab;stroke-width:0.982677;stroke-miterlimit:4;stroke-dasharray:none;stroke-opacity:0;paint-order:stroke fill markers"
       id="path1061"
       d="m 205.54907,37.543104 c 0.69243,-0.490068 1.41341,-0.929228 2.16323,-1.325369 0.67155,-0.381159 1.36966,-0.705774 2.12735,-0.87608 0.10672,-0.02399 -0.20676,0.07146 -0.31014,0.107189 1.2728,-0.362683 2.55449,-0.693439 3.83565,-1.025133 1.25224,-0.31719 2.50654,-0.625099 3.76359,-0.922621 0.89239,-0.18472 1.78168,-0.383664 2.67168,-0.579453 0.83942,-0.14478 1.68903,-0.206523 2.53154,-0.330169 0.68205,-0.07148 1.34383,-0.240185 2.00222,-0.423504 0.6813,-0.18064 1.37902,-0.282293 2.06791,-0.428729 0,0 0.43539,-1.940592 0.43539,-1.940592 v 0 c -0.70497,0.139798 -1.40125,0.307697 -2.11307,0.412435 -0.62847,0.131373 -1.21952,0.38126 -1.85717,0.473571 -0.86702,0.09677 -1.72562,0.253208 -2.59671,0.322892 -0.92809,0.128048 -1.82488,0.39914 -2.74335,0.579988 -1.26967,0.278908 -2.52637,0.613033 -3.79056,0.91647 -1.29953,0.311478 -2.57962,0.698773 -3.87925,1.011134 -1.28687,0.38314 -2.54665,0.758968 -3.69137,1.482032 -0.8056,0.456439 -1.58451,0.959189 -2.33197,1.50599 0,0 1.71503,1.039949 1.71503,1.039949 z" />
    <path
       style="fill:#cfb9ab;fill-opacity:1;stroke:#ababab;stroke-width:0.982677;stroke-miterlimit:4;stroke-dasharray:none;stroke-opacity:0;paint-order:stroke fill markers"
       id="path1067"
       d="m 289.25838,62.928197 c 0.52472,0.714111 1.13283,1.368333 1.58442,2.133389 0.23682,0.479114 0.42208,0.980071 0.61759,1.476606 0.27801,0.810746 0.65289,1.584574 0.9979,2.368184 0.313,0.656996 0.59204,1.329725 0.86704,2.003405 0.39641,0.908231 0.80148,1.815193 1.23238,2.708177 0.31044,0.647371 0.49938,1.341853 0.73489,2.017902 0.26764,0.722964 0.5482,1.439217 0.84173,2.152386 0.26613,0.693386 0.58991,1.360704 0.86221,2.051248 0.26799,0.641403 0.55556,1.275415 0.73528,1.948406 0.0845,0.257259 0.15948,0.516935 0.22664,0.779134 0,0 1.92146,-0.540332 1.92146,-0.540332 v 0 c -0.0721,-0.267385 -0.14828,-0.533378 -0.23729,-0.795765 -0.20476,-0.714496 -0.49355,-1.397545 -0.78881,-2.078866 -0.26996,-0.703042 -0.59903,-1.377797 -0.87315,-2.07954 -0.28614,-0.687216 -0.55363,-1.378846 -0.80541,-2.07872 -0.25295,-0.729174 -0.47724,-1.470976 -0.81332,-2.167861 -0.4238,-0.856704 -0.80885,-1.734698 -1.18432,-2.612832 -0.26978,-0.695997 -0.56001,-1.384857 -0.89303,-2.053223 -0.34207,-0.762847 -0.70062,-1.521986 -0.95753,-2.319022 -0.22343,-0.567065 -0.43209,-1.140687 -0.71728,-1.681331 -0.45708,-0.764381 -1.04569,-1.428431 -1.56601,-2.149079 0,0 -1.78539,0.917734 -1.78539,0.917734 z" />
    <path
       style="fill:#cfb9ab;fill-opacity:1;stroke:#ababab;stroke-width:0.982677;stroke-miterlimit:4;stroke-dasharray:none;stroke-opacity:0;paint-order:stroke fill markers"
       id="path1069"
       d="m 205.54907,37.318069 c 0.0725,-0.05126 0.14506,-0.102528 0.2176,-0.153791 0,0 -1.67099,-1.083461 -1.67099,-1.083461 v 0 c -0.0872,0.06577 -0.17443,0.131535 -0.26164,0.197303 0,0 1.71503,1.039949 1.71503,1.039949 z" />
    <path
       style="fill:#cfb9ab;fill-opacity:1;stroke:#ababab;stroke-width:0.221137;stroke-miterlimit:4;stroke-dasharray:none;stroke-opacity:0;paint-order:stroke fill markers"
       d="m 213.14179,21.30866 c -2.16083,0.37085 -3.44827,2.482538 -4.89188,3.93372 -2.23826,2.974073 -3.62382,6.570941 -4.36929,10.197785 -0.26198,1.137535 1.18071,1.510601 1.86957,0.781093 3.47739,-2.191163 7.69379,-2.599474 11.5683,-3.696161 2.50946,-0.73395 5.23674,-0.759599 7.70423,-1.593001 0.94272,-1.313153 -1.28377,-1.765878 -2.11529,-2.331418 -3.55104,-1.547578 -5.64111,-5.043862 -8.82067,-7.089399 -0.29471,-0.136363 -0.61888,-0.216681 -0.94497,-0.202619 z"
       id="path1071" />
    <path
       style="fill:#cfb9ab;fill-opacity:1;stroke:#ababab;stroke-width:0.221137;stroke-miterlimit:4;stroke-dasharray:none;stroke-opacity:0;paint-order:stroke fill markers"
       d="m 293.11542,64.316747 c -1.49382,0.41745 -0.39878,2.105844 -0.0804,3.012482 2.19657,4.773476 4.03954,9.696268 6.0131,14.578938 1.07464,0.90764 2.50505,-0.307385 3.45069,-0.984528 2.92737,-2.539004 4.02942,-6.632325 3.95921,-10.38634 0.0156,-1.345202 -1.22299,-2.158086 -2.44462,-2.243759 -3.63323,-1.103244 -7.13828,-2.509664 -10.63027,-3.965805 -0.0883,-0.01465 -0.17825,-0.01978 -0.26767,-0.01099 z"
       id="path1073" />
  </g>
  <g
     inkscape:groupmode="layer"
     id="layer9"
     inkscape:label="Image 5"
     style="display:none">
    <path
       style="fill:#dcc9be;fill-opacity:1;stroke:#ababab;stroke-width:0.312735;stroke-miterlimit:4;stroke-dasharray:none;stroke-opacity:0;paint-order:stroke fill markers"
       d="m 174.40178,146.10663 c -3.8752,1.99504 -7.96735,3.71025 -11.71102,5.8752 -0.82893,1.688 1.94141,1.43592 2.96287,1.73337 5.04032,0.98678 9.84773,3.16124 14.16186,5.90363 2.75878,2.38135 5.60926,5.77436 4.69563,9.68943 -0.10487,1.11584 -1.4759,3.15398 0.49726,3.46094 8.0842,0.21765 16.21331,0.051 24.27137,-0.70984 7.77927,-0.89439 15.478,-3.3754 22.06663,-7.63919 1.33998,-0.96393 -0.18121,-2.23839 -1.25553,-2.50126 -12.08234,-6.38127 -25.70766,-8.61255 -38.70694,-12.27364 -5.0113,-1.48878 -9.98823,-3.98414 -15.41614,-3.59911 -0.52043,0.0234 -1.06041,-0.10279 -1.56599,0.0605 z"
       id="path1076" />
  </g>
  <g
     inkscape:groupmode="layer"
     id="layer10"
     inkscape:label="Image 6"
     style="display:none">
    <path
       style="fill:#deafac;fill-opacity:1;stroke:#ababab;stroke-width:0.982677;stroke-miterlimit:4;stroke-dasharray:none;stroke-opacity:0;paint-order:stroke fill markers"
       id="path1079"
       d="m 198.32515,77.34533 c -0.45702,-0.0086 -0.35885,0.129196 -0.13419,0.364681 -0.10712,-0.592773 -0.2259,-1.185002 -0.31902,-1.781219 -0.0577,-0.173629 -0.16614,-1.841164 0.0308,-0.684573 0.0183,0.107204 0.0307,0.215318 0.046,0.322977 0.69273,0.383845 0.21804,0.05115 -1.31411,0.721326 -0.19014,0.08317 0.3887,-0.148024 0.58969,-0.199714 0.79411,-0.204226 1.61596,-0.252122 2.42953,-0.31454 1.02019,-0.102768 1.6544,-0.033 2.33786,0.762257 0.14864,0.213196 0.49621,1.04448 0.23752,1.219935 -0.26807,-0.354852 -0.0697,-0.511698 -0.58517,-0.511663 -0.13379,9e-6 -0.52444,0.06479 -0.40116,0.01283 0.62001,-0.261318 2.43773,-0.725301 0.96978,-0.342002 -1.32947,0.129321 -2.79068,0.25966 -4.05395,-0.274046 -0.0197,-0.01194 -0.069,-0.05658 -0.0591,-0.03581 0.0125,0.02618 0.0453,0.03627 0.0679,0.0544 0.0624,0.109921 0.14928,0.209172 0.18709,0.329764 0.0655,0.208756 0.0851,0.429321 0.11871,0.645509 0.0275,0.177119 0.20042,0.417126 0.0644,0.533853 -0.38543,0.330752 -0.93102,0.406204 -1.39654,0.609306 1.46388,-0.293627 3.49282,-0.737094 4.95585,-0.243102 0.51826,0.354894 -0.0316,0.06897 -0.21918,-0.727702 -0.0597,-0.253434 0.0422,-0.53285 -0.0393,-0.780103 -0.0352,-0.106511 -0.37568,-0.128854 -0.27975,-0.186976 0.41828,-0.253441 0.92363,-0.321986 1.38544,-0.482978 -0.17609,0.04037 -0.90074,0.22342 -1.14114,0.224492 -0.85114,0.0038 -1.60359,-0.581907 -2.19989,-1.122881 0.48738,0.415059 0.97343,0.75497 0.44405,1.785434 -0.27219,0.529851 -1.16937,0.43813 -1.54234,0.902597 -0.21524,0.268048 0.66476,-0.181511 1.00465,-0.232991 0.96626,-0.146345 1.41256,-0.10925 2.36074,-0.103176 0,0 1.73665,-4.192317 1.73665,-4.192317 v 0 c -1.72503,-0.114609 -1.07095,-0.112514 -2.83231,-0.05891 -1.7748,0.05401 -3.30737,-0.02188 -4.84923,1.471677 -0.56337,0.545718 -0.50504,1.517537 -0.48873,2.301708 0.008,0.390365 0.37201,0.686594 0.55802,1.029891 1.39814,1.299693 3.15574,2.589496 5.1486,2.627003 0.29457,0.0055 0.58557,-0.06577 0.87836,-0.09865 0.59851,-0.173119 3.10837,-0.569019 3.8612,-1.503132 1.0145,-1.258799 0.94392,-2.64914 -0.10243,-3.829809 -0.21296,-0.240296 -0.49709,-0.406543 -0.74563,-0.609814 -0.87089,-0.470399 -1.05415,-0.65785 -2.05585,-0.834218 -1.59079,-0.280087 -3.35886,0.113822 -4.95613,0.149304 -1.05844,0.349243 -2.18725,0.531993 -3.17532,1.047727 -0.41899,0.218697 -0.70628,0.660166 -0.91197,1.085686 -0.68452,1.416035 0.0961,2.823119 1.13863,3.744203 0.24233,0.145531 0.47289,0.312764 0.72699,0.436592 1.60305,0.781171 3.40652,0.704437 5.14037,0.794101 0.29999,-0.01099 0.60685,0.03181 0.89996,-0.03296 1.75915,-0.388722 3.8961,-0.813963 4.7912,-2.603849 0.15461,-0.309154 0.19126,-0.664333 0.28688,-0.996499 0.0444,-1.489661 -0.17934,-2.498682 -1.02507,-3.759033 -1.2491,-1.545777 -2.7297,-2.616462 -4.8013,-2.591076 -2.49957,0.14388 -5.2299,0.10283 -7.23942,1.864536 -0.17071,0.270204 -0.39146,0.514654 -0.51212,0.810613 -0.37413,0.91764 -0.20026,1.879674 -0.0682,2.81904 0.15481,0.936 0.286,1.889309 0.63522,2.776222 0.12006,0.225333 0.2182,0.463791 0.36017,0.675999 0.52448,0.783931 1.40272,1.412104 2.36518,1.443314 0,0 1.69111,-4.433229 1.69111,-4.433229 z" />
    <path
       style="fill:#deafac;fill-opacity:1;stroke:#ababab;stroke-width:0.982677;stroke-miterlimit:4;stroke-dasharray:none;stroke-opacity:0;paint-order:stroke fill markers"
       id="path1085"
       d="m 263.88987,107.42901 c 0.83153,0.34207 1.74442,0.50535 2.54586,0.9193 0.24969,0.20225 0.0309,0.21429 -0.0544,-0.37869 -0.12038,-0.83734 0.12986,-0.23272 -0.0756,-0.67304 0.37467,-0.13593 0.75825,-0.24946 1.12403,-0.40778 0.14513,-0.0628 -0.30492,0.0845 -0.45905,0.11994 -0.17938,0.0413 -0.35969,0.079 -0.5411,0.1101 -0.51025,0.0875 -1.0131,0.1341 -1.52981,0.13114 -0.0516,-0.0216 -0.78089,-0.0991 -0.8199,-0.2185 -0.0224,-0.0684 0.0379,-0.0755 0.0841,-0.0605 0.17186,1.14545 0.34829,0.62464 -1.07474,1.29785 -0.10497,0.0496 0.21583,-0.0873 0.32807,-0.11709 0.25305,-0.0671 0.55369,-0.0938 0.81176,-0.12484 1.19943,-0.0981 2.4076,-0.12437 3.60792,-0.0311 0.29117,0.046 0.34044,0.0427 0.60229,0.12004 0.0488,0.0144 0.17605,0.0823 0.14718,0.0404 -0.0115,-0.0168 -0.0282,-0.0293 -0.0423,-0.044 -0.0362,-0.0625 -0.0725,-0.12496 -0.10871,-0.18744 -0.169,-0.17194 0.0129,-0.45917 -0.14104,-0.62588 -0.0713,-0.0773 -0.38045,-0.0875 -0.28586,-0.13349 0.32466,-0.15771 0.68629,-0.22389 1.02943,-0.33583 -0.85958,0.23674 -1.75545,0.2775 -2.64126,0.31992 -0.80511,-0.005 -1.62138,0.0762 -2.41975,-0.0536 -0.1722,-0.0624 -0.53541,-0.0956 -0.58918,-0.31911 -0.048,-0.15643 -0.0275,-0.57294 0.11707,-0.15961 0.5972,0.39419 -0.12131,0.32563 -0.81847,0.61249 -0.11933,0.0491 0.24452,-0.083 0.36897,-0.11704 0.32464,-0.0889 0.49079,-0.10724 0.82938,-0.16394 1.19989,-0.16124 2.40563,-0.12685 3.59758,0.068 0.91854,0.25582 1.72325,0.80901 2.55658,1.26008 0.44502,0.22878 0.89079,0.46404 1.27585,0.78752 -0.0278,0.2412 -0.15415,-0.40226 -0.15505,-0.40681 -0.39157,-0.45041 -1.05805,0.37322 1.03141,-0.59714 0.13723,-0.0637 -0.29241,0.0804 -0.4419,0.10385 -0.67494,0.10568 -1.01323,0.0995 -1.70953,0.13001 -1.82254,0.0953 -3.64817,0.087 -5.47241,0.0722 0,0 -1.11241,2.9193 -1.11241,2.9193 v 0 c 1.83444,-0.0166 3.66914,-0.0221 5.50336,0.0187 1.7842,-0.0212 4.04672,0.26077 5.26693,-1.34956 0.0911,-0.198 0.21164,-0.38494 0.27324,-0.59399 0.22451,-0.76199 -0.0149,-1.52931 -0.42822,-2.17062 -0.51673,-0.62253 -1.18749,-1.07382 -1.91473,-1.42553 -0.44305,-0.21215 -0.89257,-0.4312 -1.31705,-0.67877 -0.56419,-0.32905 -1.0963,-0.71408 -1.733,-0.90364 -0.22344,-0.0588 -0.44349,-0.13231 -0.6703,-0.17623 -1.18059,-0.22866 -2.4025,-0.21041 -3.59811,-0.19407 -1.44551,0.0659 -3.1223,0.2477 -4.18762,1.32776 -0.127,0.12875 -0.20729,0.2964 -0.31094,0.44461 -0.0677,0.18325 -0.15141,0.36136 -0.20317,0.54974 -0.16947,0.61675 -0.0315,1.27325 0.15485,1.86639 0.41655,0.93548 1.00308,1.52202 1.96326,1.90927 0.4143,0.13585 0.55823,0.2007 0.99112,0.27159 0.67161,0.10997 1.35338,0.0206 2.02944,0.0484 1.04172,0.004 2.08284,-0.0363 3.11611,-0.17956 1.31325,-0.37354 3.06604,-0.55284 3.30381,-2.2177 0.0296,-0.20735 -0.002,-0.41891 -0.002,-0.62836 -0.0617,-0.2037 -0.0985,-0.41668 -0.18513,-0.6111 -0.40707,-0.91364 -1.33844,-1.33574 -2.25382,-1.54336 -1.3301,-0.19749 -2.67413,-0.13404 -4.01565,-0.15124 -1.38349,0.0523 -3.4935,0.11469 -4.1635,1.52582 -0.13506,0.28446 -0.14077,0.61386 -0.21116,0.92079 0.0249,0.19058 0.0295,0.38492 0.0746,0.57174 0.17377,0.71922 0.60951,1.34914 1.22135,1.76964 0.28588,0.19647 0.98669,0.3899 1.2966,0.488 0.26047,0.0521 0.5172,0.12896 0.78141,0.15645 0.38358,0.0399 0.97058,-0.0248 1.35374,-0.061 1.13559,-0.10717 2.07792,-0.27508 3.18282,-0.76682 0.18362,-0.15301 0.41152,-0.26484 0.55087,-0.45903 0.81148,-1.13087 0.31834,-2.19924 -0.55746,-3.03432 -0.16192,-0.11689 -0.31385,-0.24905 -0.48577,-0.35068 -0.76377,-0.45152 -1.68771,-0.50651 -2.45674,-0.94346 0,0 -1.93365,2.71339 -1.93365,2.71339 z" />
    <path
       style="fill:#000000;fill-opacity:0;stroke:#ababab;stroke-width:0.221137;stroke-miterlimit:4;stroke-dasharray:none;stroke-opacity:0;paint-order:stroke fill markers"
       d="m 219.97528,70.622416 c -1.33531,0.201695 -2.62173,1.70653 -2.34616,3.058632 0.711,1.142092 2.19916,2.846117 3.62561,1.716333 1.22288,-0.669238 1.72081,-2.279319 0.77708,-3.40102 -0.44871,-0.705598 -1.17766,-1.361818 -2.05653,-1.373945 z"
       id="path1087" />
    <path
       style="fill:#000000;fill-opacity:0;stroke:#ababab;stroke-width:0.221137;stroke-miterlimit:4;stroke-dasharray:none;stroke-opacity:0;paint-order:stroke fill markers"
       d="m 257.37639,89.684476 c -2.37569,0.363938 -2.09244,4.089641 -0.0237,4.750352 1.54825,0.927562 3.98302,-0.704336 3.00633,-2.478903 -0.69191,-0.982696 -1.67417,-2.237907 -2.9826,-2.271449 z"
       id="path1089" />
  </g>
  <g
     inkscape:groupmode="layer"
     id="layer6"
     inkscape:label="Image 2"
     style="display:inline">
    <path
       style="fill:#ffe7ce;fill-opacity:1;stroke:#ababab;stroke-width:0.62547;stroke-miterlimit:4;stroke-dasharray:none;stroke-opacity:0;paint-order:stroke fill markers"
       d="m 162.75473,152.7873 c -2.08239,-0.18981 -4.04695,1.20448 -5.02732,2.75111 -2.11822,-2.49674 -5.17335,1.42845 -7.02757,2.61546 -3.04909,3.21001 -7.59603,5.67461 -9.12102,9.9864 0.48327,5.77302 2.72297,11.44728 5.9945,16.22318 -2.84917,3.0012 -6.60944,5.3654 -8.87364,8.77543 2.41648,2.70211 6.46866,3.62991 9.41814,5.94602 1.6515,1.32416 5.0654,2.86287 5.50469,-0.37046 1.18206,-3.04733 0.45902,-7.25705 2.21779,-9.67051 6.70342,-2.1908 14.57489,-2.88044 19.95886,-7.81696 0.65026,-1.75103 2.19388,-3.34425 0.87518,-5.38038 -0.35277,-1.29246 -1.74423,-2.5856 -2.0798,-3.58153 3.29951,-0.44011 6.77644,0.70012 9.94649,-0.20263 2.17907,-5.59935 -1.35061,-11.93523 -6.49176,-14.39201 -1.62484,0.20769 -2.44095,-1.91864 -4.43682,-2.12828 -1.32535,-0.82451 -3.53173,-1.06981 -4.53503,-1.15241 -1.41197,-1.76826 -4.3128,-1.49271 -6.32269,-1.60243 z"
       id="path1017" />
  </g>
  <g
     inkscape:groupmode="layer"
     inkscape:label="Image"
     id="g965"
     style="display:inline">
    <path
       style="fill:#000000;stroke-width:0.32"
       d="m 103.07971,290.04095 c -0.968,-0.23564 -3.559995,-1.10956 -5.759995,-1.94204 -3.59646,-1.36092 -4.36436,-1.5357 -7.611647,-1.73256 -5.58336,-0.33848 -5.59877,-0.93443 -0.11158,-4.31704 0.76823,-0.47358 1.27223,-0.98119 1.12,-1.12802 -0.15222,-0.14684 -1.93277,-0.50508 -3.95677,-0.7961 -4.6952,-0.6751 -6.3146,-1.07838 -6.52426,-1.62474 -0.22815,-0.59454 0.0394,-0.72925 4.44426,-2.23755 6.61311,-2.26446 14.225997,-6.00927 20.159992,-9.9168 2.25341,-1.48387 7.84,-6.05981 7.84,-6.42169 0,-0.53475 -1.84701,-2.84145 -3.50228,-4.37394 -2.84648,-2.63533 -4.1548,-3.23369 -6.56361,-3.00185 -3.701505,0.35626 -5.186495,1.08622 -9.729425,4.78261 -6.016717,4.89554 -12.174057,8.41148 -17.068187,9.74622 -3.2442,0.88476 -9.61882,0.72278 -14.81649,-0.37648 -12.95085,-2.739 -22.16123,-7.22398 -32.0992,-15.63065 -6.27213,-5.30568 -10.0591,-14.45161 -10.53742,-25.44898 -0.55348,-12.72523 4.2617,-26.78972 11.45054,-33.44549 2.26537,-2.09738 4.5136,-3.41458 5.82259,-3.41135 1.35782,0.003 3.04337,0.64536 3.87334,1.47533 1.29585,1.29585 1.99258,3.64335 3.56764,12.02047 2.54514,13.53662 3.34411,16.18196 6.61126,21.88951 2.54001,4.43728 5.71847,8.42849 10.80012,13.56177 7.13781,7.21036 9.87642,8.97381 13.92921,8.96934 2.56809,-0.003 3.77106,-0.49838 7.99775,-3.29466 2.18109,-1.44295 4.23078,-2.7961 4.55489,-3.00699 0.39035,-0.25399 0.47392,-0.47004 0.24756,-0.64 -1.28864,-0.96749 -6.56444,-10.88048 -8.16219,-15.33638 -1.85489,-5.17302 -2.99541,-16.93887 -2.2308,-23.01343 0.6267,-4.97893 1.34336,-6.90485 3.14173,-8.44304 1.80623,-1.54491 2.27835,-1.06785 0.55359,0.55937 -0.66128,0.62387 -1.39728,1.60093 -1.63558,2.17125 -0.78963,1.88985 -1.40503,6.55435 -1.40503,10.64955 0,4.51936 0.80261,12.29875 1.2858,12.46279 0.17281,0.0587 0.3142,0.63512 0.3142,1.28102 0,3.48162 5.00169,14.44087 8.32948,18.25079 l 0.942,1.07849 1.15748,-0.54926 c 0.73937,-0.35086 1.26843,-0.43832 1.46463,-0.24212 0.31955,0.31955 -0.88296,1.20382 -3.46054,2.54475 -0.75099,0.39068 -2.72755,1.65342 -4.39234,2.80609 -1.66479,1.15266 -3.66239,2.37686 -4.4391,2.72044 -3.03124,1.34086 -6.86446,1.13062 -9.77887,-0.53633 -4.30566,-2.46271 -13.81142,-12.15189 -17.83636,-18.18054 -2.98959,-4.47789 -5.2942,-9.36277 -6.34077,-13.44 -0.45176,-1.76 -1.48281,-6.728 -2.29121,-11.04 -2.07176,-11.05071 -2.56067,-12.50102 -4.48538,-13.30521 -2.43842,-1.01884 -4.29955,-0.37978 -7.43448,2.5528 -8.4886,7.94066 -13.16551,24.88611 -10.6956,38.75241 1.54674,8.68357 4.5359,14.52757 9.70164,18.96738 9.47899,8.14692 18.93747,12.74003 31.88002,15.48116 4.59996,0.97424 12.052,1.04927 14.9594,0.15063 4.59102,-1.41904 11.06571,-5.30845 16.799997,-10.09193 3.03505,-2.5318 4.52932,-3.3399 7.448755,-4.02827 2.79349,-0.65867 3.70426,-0.59922 5.64632,0.36855 1.67283,0.8336 5.32781,4.15868 6.62086,6.02325 l 0.65934,0.95077 1.09236,-1.23843 c 3.06137,-3.47072 5.57751,-6.91499 6.87311,-9.40841 3.39428,-6.53237 4.94385,-7.91225 10.46402,-9.31813 2.30634,-0.58739 3.43523,-0.59949 3.43523,-0.0368 0,0.1272 -1.116,0.47285 -2.48,0.76812 -2.58217,0.55898 -5.56911,1.78845 -6.59355,2.714 -0.32759,0.29598 -0.94249,1.22214 -1.36643,2.05814 -0.42394,0.836 -0.87638,1.52045 -1.00541,1.52101 -0.12904,6.4e-4 -1.00948,1.43292 -1.95654,3.18302 -1.00313,1.85372 -2.91359,4.61344 -4.57662,6.61109 -1.57008,1.88599 -2.99628,3.69363 -3.16933,4.01698 -0.17305,0.32334 -0.49227,0.5879 -0.70937,0.5879 -0.21711,0 -1.47204,0.95593 -2.78874,2.12429 -5.71247,5.06887 -15.834275,10.66239 -25.415012,14.04485 -4.27741,1.51013 -4.29936,1.45794 0.94101,2.23709 4.9601,0.73748 5.98166,1.03235 5.86005,1.6915 -0.055,0.29825 -1.25159,1.2969 -2.65903,2.21922 -1.40744,0.92232 -2.60744,1.82232 -2.66667,2 -0.0668,0.20029 0.91279,0.32305 2.57784,0.32305 2.47093,0 3.16929,0.1662 8.740077,2.08 3.330005,1.144 6.417525,2.07865 6.861145,2.077 1.05579,-0.004 3.2239,-1.27548 7.43912,-4.36287 5.73171,-4.19814 19.67932,-11.28423 30.05544,-15.26968 5.01073,-1.92462 5.8167,-2.14665 5.96919,-1.64445 0.0534,0.176 -2.03456,1.12498 -4.64,2.10885 -8.99381,3.39624 -9.54784,4.05488 -1.05717,1.25677 10.51536,-3.46536 22.89754,-8.96825 49.92,-22.18545 6.17131,-3.01851 13.003,-7.0208 17.03559,-9.98017 5.50082,-4.03684 18.48269,-17.85529 25.85392,-27.52 2.81893,-3.696 6.39415,-8.376 7.94494,-10.4 1.5508,-2.024 3.17792,-4.256 3.61584,-4.96 1.42903,-2.29731 4.98046,-9.51791 6.53173,-13.28 0.83458,-2.024 2.07358,-5.03046 2.75334,-6.68102 0.67976,-1.65056 2.03689,-5.68256 3.01585,-8.96 1.71816,-5.75219 4.07686,-12.03023 4.65381,-12.3868 0.74302,-0.45921 0.52678,0.99341 -0.46339,3.11297 -1.39033,2.97611 -1.81888,4.19018 -3.42919,9.71485 -1.55557,5.33684 -2.40796,7.68932 -4.6379,12.8 -0.92153,2.112 -2.07207,4.776 -2.55676,5.92 -2.69465,6.36013 -4.93752,10.07758 -10.62856,17.61633 -8.05758,10.67362 -11.61356,15.16444 -14.0911,17.79556 -1.18697,1.26055 -4.50464,4.82114 -7.3726,7.91244 -3.1018,3.34335 -6.60235,6.73468 -8.64,8.37045 -3.98889,3.20216 -10.64014,7.37286 -16.54552,10.37495 -4.5411,2.30854 -25.25749,12.22238 -32.37804,15.49453 -10.17219,4.6745 -21.72501,8.85586 -27.94196,10.11316 -3.02028,0.61082 -4.00708,1.01344 -9.76,3.98222 -8.10647,4.18333 -9.82891,5.19974 -13.72885,8.10139 -3.16195,2.35256 -5.88312,3.94278 -6.66051,3.89231 -0.22585,-0.0147 -1.20264,-0.21946 -2.17064,-0.4551 z M 149.365,199.96613 c -1.2015,-0.70212 -2.75083,-1.72508 -3.44294,-2.27324 -0.69211,-0.54816 -2.22359,-1.40387 -3.40329,-1.90158 -2.58246,-1.08952 -4.35429,-2.41317 -4.00478,-2.99178 0.13515,-0.22373 1.39772,-1.43246 2.80572,-2.68607 1.408,-1.25362 3.424,-3.06457 4.48,-4.02435 l 1.92,-1.74506 -0.68966,-0.75067 c -1.05735,-1.15088 -2.89482,-4.76107 -3.14186,-6.173 -0.12148,-0.69428 -0.59165,-1.99028 -1.04484,-2.88 -0.61225,-1.20203 -0.87274,-2.31655 -1.0138,-4.33767 -0.18784,-2.6913 -0.19458,-2.70877 -0.63882,-1.65548 -0.32598,0.7729 -0.60686,1.02322 -1.02533,0.91379 -0.36721,-0.096 -0.76103,0.13111 -1.08525,0.62593 -0.27988,0.42715 -1.81346,2.29636 -3.40794,4.15378 -1.59448,1.85742 -3.0645,3.68872 -3.2667,4.06955 -1.07309,2.02108 -6.21942,7.3669 -9.2287,9.58645 -1.52122,1.122 -6.27908,3.42598 -7.07486,3.42598 -0.4926,0 -0.57255,0.15567 -0.41084,0.8 0.11044,0.44 0.13402,0.8 0.0524,0.8 -0.0816,0 -0.73456,-1.83692 -1.451,-4.08203 -1.15821,-3.62946 -1.57181,-4.46502 -3.73053,-7.53638 -1.33535,-1.89988 -3.40608,-4.5093 -4.60162,-5.7987 -2.03039,-2.18978 -2.19451,-2.29947 -2.48896,-1.66362 -0.50813,1.09725 -3.603185,4.83129 -4.098145,4.94419 -0.73515,0.1677 -0.54681,-0.22755 1.252135,-2.62771 3.58011,-4.77658 4.72769,-6.45735 4.913,-7.19569 0.21577,-0.85972 2.00934,-2.58334 4.03057,-3.87337 0.7429,-0.47416 2.67289,-2.24879 4.28886,-3.94363 2.38395,-2.5003 3.23314,-3.67206 4.5021,-6.2123 1.4013,-2.80513 2.66377,-6.89343 2.25494,-7.30225 -0.0856,-0.0856 -1.4611,0.29833 -3.05665,0.85319 -1.59557,0.55486 -3.12541,0.92273 -3.39966,0.81749 -0.27425,-0.10524 -0.71184,-0.70161 -0.97242,-1.32527 -0.58289,-1.39506 -1.35426,-1.46468 -3.38268,-0.30531 -1.02144,0.58381 -1.70432,0.76728 -2.36446,0.63525 -0.77357,-0.15471 -1.20997,0.0551 -2.61938,1.25916 -0.93013,0.79465 -2.23113,2.19905 -2.89109,3.12089 -1.6801,2.3468 -1.80805,2.45901 -1.54622,1.35609 0.31446,-1.32465 2.02621,-3.60433 3.87241,-5.15721 2.11108,-1.77566 2.91515,-2.17911 3.45313,-1.73263 0.32212,0.26734 0.85758,0.14351 2.17642,-0.50331 2.23202,-1.09468 3.18904,-0.90432 4.06264,0.80808 l 0.63499,1.24468 2.3289,-0.91879 c 2.60506,-1.02774 4.32958,-1.19986 4.61332,-0.46045 0.53803,1.40208 -2.25219,8.638 -4.43043,11.48949 -1.54411,2.02136 -4.68176,5.18826 -6.91071,6.97513 -1.66352,1.33358 -5.82328,6.18039 -5.82328,6.78508 0,0.0923 0.972,1.14671 2.16,2.34309 1.188,1.19637 3.3058,3.81744 4.70624,5.82459 2.26575,3.24737 2.62366,3.9632 3.24915,6.49829 0.77662,3.14768 0.88557,3.36097 1.47688,2.89128 0.22425,-0.17813 0.97578,-0.42643 1.67006,-0.55179 3.55444,-0.64176 10.03139,-5.81684 12.83549,-10.25553 0.33356,-0.528 1.80238,-2.35992 3.26406,-4.07093 5.70344,-6.67636 5.91251,-6.98495 5.68927,-8.39706 -0.11025,-0.69739 -0.25994,-1.32747 -0.33265,-1.40018 -0.0727,-0.0727 -0.51092,0.31789 -0.9738,0.86799 -1.4713,1.74854 -2.3509,1.17528 -2.39334,-1.55982 l -0.0174,-1.12 -0.94036,1.09997 c -0.5172,0.60498 -1.04015,1.00018 -1.1621,0.87823 -0.36118,-0.36118 1.78239,-9.46488 2.81388,-11.95052 0.5232,-1.26078 1.5199,-3.20478 2.2149,-4.32 0.69499,-1.11523 1.80274,-3.01451 2.46165,-4.22064 2.12699,-3.89339 3.73863,-5.76954 8.42524,-9.808 5.32563,-4.58911 7.19852,-5.94597 11.8128,-8.55809 4.67252,-2.64509 7.65416,-3.75263 11.62406,-4.3178 0.60233,-0.0857 0.65046,-0.0144 -3.83137,-5.68315 -0.62616,-0.792 -1.57942,-2.304 -2.11833,-3.36 -1.28905,-2.52587 -2.82702,-7.28106 -2.47224,-7.64384 0.15828,-0.16187 -0.14309,-0.8073 -0.70129,-1.5019 -0.83876,-1.04373 -0.94754,-1.38494 -0.7601,-2.38408 0.19001,-1.01288 0.0592,-1.39773 -0.99629,-2.93019 l -1.21502,-1.76417 0.67292,-0.5449 c 1.09203,-0.88427 1.1248,-2.74499 0.0871,-4.94402 -0.97641,-2.06908 -0.94613,-2.51075 0.20819,-3.0367 0.88979,-0.40541 0.95479,-0.82895 0.3024,-1.9702 -0.78871,-1.379699 -0.56349,-1.980279 1.44,-3.839999 1.63073,-1.51371 1.92057,-1.94929 1.9238,-2.89111 0.007,-1.90483 0.77325,-4.13058 3.35051,-9.72618 2.30557,-5.00575 5.61384,-11.00681 7.18349,-13.03054 0.36168,-0.46631 0.73898,-1.05992 0.83845,-1.31913 0.24112,-0.62835 10.99049,-9.82851 15.02375,-12.8585 1.76,-1.32221 5.072,-3.36489 7.36,-4.5393 2.288,-1.1744 4.26579,-2.29277 4.3951,-2.48526 0.1293,-0.19249 0.2373,-0.66655 0.24,-1.05346 0.009,-1.35595 1.59792,-5.72884 2.79568,-7.69617 0.66507,-1.09238 1.78522,-2.59102 2.48922,-3.3303 1.33235,-1.39912 3.84131,-3.15005 4.5138,-3.15005 0.21368,0 1.01349,0.684 1.77736,1.52 3.03532,3.32197 4.84976,4.8198 7.58662,6.26283 l 2.84968,1.50251 1.99546,-0.51121 c 1.4129,-0.36197 2.66132,-0.45281 4.27627,-0.31117 9.67504,0.84858 8.7632,0.6574 18.68081,3.91648 5.148,1.69171 9.3624,3.2344 9.36532,3.4282 0.003,0.1938 0.8579,0.81159 1.89992,1.37288 7.89982,4.25521 19.50252,13.90533 24.16103,20.09504 2.05204,2.72652 2.47829,3.10528 3.97893,3.53557 0.75753,0.21722 1.1558,0.5236 1.1577,0.8906 0.005,1.02285 5.63827,3.65974 11.3278,5.30275 1.83189,0.529 3.44969,1.14941 3.5951,1.37868 0.41282,0.65084 0.31272,4.08362 -0.17218,5.90478 -0.9055,3.40084 -3.19786,6.44518 -5.68069,7.54419 -0.71725,0.31748 -0.86895,0.55941 -0.75273,1.20038 0.0801,0.44151 0.29277,0.85181 0.47269,0.91178 0.17991,0.06 0.33224,0.56504 0.33851,1.122379 0.006,0.55733 0.22721,1.87733 0.49099,2.93333 0.29664,1.18757 0.60771,4.99718 0.81543,9.98658 l 0.33585,8.06657 -1.02796,4.08362 c -0.56538,2.24599 -1.15199,4.30403 -1.30358,4.57342 -0.71544,1.27142 -2.21566,5.593 -2.07176,5.96799 0.0891,0.23211 -0.0492,0.82248 -0.3072,1.31192 -0.25802,0.48945 -0.5582,1.4299 -0.66705,2.0899 -0.10886,0.66 -0.32708,1.2 -0.48494,1.2 -0.15786,0 -0.4124,0.324 -0.56564,0.72 -0.15324,0.396 -0.79767,1.63383 -1.43207,2.75073 -1.03471,1.82168 -1.67128,3.57713 -2.25164,6.20927 -0.10671,0.484 -0.40728,0.88 -0.66793,0.88 -0.26064,0 -0.48921,0.252 -0.50792,0.56 -0.0187,0.308 -0.0547,0.84673 -0.08,1.19717 -0.0321,0.44463 -0.43277,0.76113 -1.32598,1.0474 -2.25948,0.72413 -2.22215,0.70128 -1.81351,1.10992 0.67393,0.67393 0.39278,1.4614 -0.78069,2.18665 -1.04396,0.6452 -1.13733,0.81734 -0.97752,1.80216 0.17641,1.08706 0.17283,1.09058 -2.22226,2.18206 -1.31942,0.60128 -2.78754,1.39652 -3.26249,1.7672 -0.47494,0.37068 -1.56265,1.10191 -2.41712,1.62495 -1.20616,0.73833 -1.51667,1.0922 -1.38849,1.58237 0.25744,0.98446 -0.44897,1.41293 -3.33971,2.02567 -1.47301,0.31223 -3.28198,0.69971 -4.01991,0.86107 -2.06781,0.45215 -5.94929,0.35844 -7.00914,-0.16922 -0.51732,-0.25756 -2.09973,-0.50453 -3.5701,-0.55719 -1.59708,-0.0572 -2.5971,-0.22218 -2.53005,-0.4174 0.17436,-0.50756 6.9779,-0.19192 7.59619,0.35242 0.87909,0.77395 2.51381,0.6238 9.4148,-0.86476 2.72352,-0.58747 2.76393,-0.60795 2.54693,-1.29163 -0.25578,-0.8059 0.28238,-1.4414 1.91166,-2.25744 0.71578,-0.35849 1.66192,-0.98891 2.10254,-1.40091 0.44062,-0.41201 1.77262,-1.1896 2.96,-1.72798 1.91066,-0.86634 2.76158,-1.61251 1.83887,-1.61251 -0.77728,0 -0.2009,-1.00576 1.12,-1.95436 0.792,-0.56877 1.44,-1.10638 1.44,-1.19469 0,-0.0883 -0.23011,-0.41482 -0.51135,-0.72559 -0.70805,-0.78239 -0.38357,-1.1323 1.64225,-1.77088 1.85331,-0.58421 2.09001,-0.8519 1.19576,-1.35234 -0.51981,-0.2909 -0.5168,-0.35004 0.0496,-0.9759 0.33161,-0.36644 0.79155,-0.66624 1.02208,-0.66624 0.53577,0 0.93716,-0.78477 1.22752,-2.4 0.12656,-0.704 1.00951,-2.77429 1.96212,-4.60066 0.95261,-1.82636 1.73202,-3.54132 1.73202,-3.81103 0,-0.26971 0.71375,-2.37541 1.5861,-4.67934 3.79296,-10.01736 4.29866,-12.24795 4.21443,-18.58897 -0.10925,-8.22371 -0.49592,-11.67105 -1.78272,-15.89399 -0.62579,-2.053689 -1.13781,-3.834479 -1.13781,-3.957319 0,-0.12283 0.2827,-0.1494 0.62823,-0.0591 0.34553,0.0904 0.79517,-0.0368 0.99919,-0.28267 0.20402,-0.24584 0.5643,-0.44697 0.80063,-0.44697 0.76421,0 2.71176,-1.98038 3.52416,-3.58356 1.03654,-2.04551 1.85529,-5.71649 1.59016,-7.12972 -0.1835,-0.97815 -0.36695,-1.14961 -1.55521,-1.45353 -5.04521,-1.29042 -12.90293,-4.59186 -13.94634,-5.85959 -0.24155,-0.29348 -0.74555,-0.53762 -1.12,-0.54252 -0.48933,-0.006 -1.26586,-0.8349 -2.76082,-2.94551 -5.42866,-7.66428 -17.69748,-17.62162 -27.68,-22.46503 -5.14887,-2.49817 -15.92209,-6.11348 -19.52,-6.55058 -1.408,-0.17106 -4.36632,-0.41117 -6.57405,-0.53358 -3.48277,-0.19311 -4.08328,-0.15334 -4.53714,0.30053 -0.82873,0.82872 -1.89275,0.62782 -5.09628,-0.96224 -2.55304,-1.26719 -3.45705,-1.95173 -6.15548,-4.66103 -3.16129,-3.17405 -3.16346,-3.17549 -4.14807,-2.76765 -1.74939,0.72462 -4.50223,3.86946 -5.90101,6.74129 -1.28171,2.6315 -2.30797,6.06121 -2.30797,7.71316 0,0.6488 -0.15835,0.85956 -0.64581,0.85956 -0.3552,0 -2.07662,0.71801 -3.82537,1.59557 -1.74875,0.87757 -3.38913,1.51515 -3.64527,1.41686 -0.27488,-0.10548 -0.5481,0.0602 -0.66674,0.40443 -0.11055,0.32073 -1.22218,1.30314 -2.47029,2.18314 -2.10376,1.48329 -3.88761,2.93388 -10.68995,8.69283 -2.44829,2.07275 -4.61657,4.28237 -4.61657,4.70458 0,0.10611 -0.792,1.21798 -1.76,2.47083 -0.968,1.25284 -1.76,2.45211 -1.76,2.66503 0,0.21293 -1.50927,3.18604 -3.35393,6.60693 -3.48157,6.45651 -4.45219,8.83696 -4.81947,11.8198 -0.19977,1.62237 -0.36274,1.89763 -2.08405,3.52 l -1.86732,1.76 0.60897,1.119999 c 0.83611,1.53774 0.78377,2.13268 -0.2442,2.77577 -0.484,0.30279 -0.92604,0.58016 -0.98232,0.61637 -0.24532,0.15785 1.24232,2.62706 1.68511,2.79698 0.38632,0.14824 0.42308,0.36421 0.17363,1.02029 -0.17403,0.45774 -0.31642,1.30932 -0.31642,1.89239 0,0.70601 -0.21619,1.20679 -0.64719,1.49917 -0.63536,0.43101 -0.62642,0.46807 0.48922,2.02832 0.99323,1.38907 1.112,1.75205 0.94267,2.88119 -0.16706,1.11408 -0.0787,1.39993 0.64171,2.07675 0.62351,0.58576 0.79022,0.99132 0.65719,1.59881 -0.20232,0.92394 1.17513,5.26714 2.58122,8.13876 0.50154,1.02428 1.49314,2.47204 2.20354,3.21725 0.7104,0.74521 1.96084,2.20611 2.77876,3.24644 0.81792,1.04033 3.15792,3.58354 5.2,5.65157 2.04208,2.06803 3.71288,3.83203 3.71288,3.92 0,0.6149 -1.14221,-0.2454 -3.82386,-2.88006 -1.70181,-1.672 -3.25364,-3.04 -3.4485,-3.04 -0.19487,0 -0.40894,-0.1639 -0.47571,-0.36421 -0.18139,-0.54418 -4.07954,0.21202 -6.89221,1.33702 -2.31112,0.92439 -7.93959,4.02427 -10.59637,5.83597 -2.10314,1.43416 -9.98105,8.26907 -11.42004,9.90807 -0.69482,0.7914 -1.95126,2.64586 -2.79208,4.12103 -0.84082,1.47516 -2.24745,3.9048 -3.12584,5.39918 -1.81048,3.08013 -2.66431,5.18491 -3.50612,8.64294 -1.00104,4.11212 -1.08486,4.6957 -0.60898,4.24 0.22974,-0.22 0.67691,-0.4 0.99371,-0.4 0.49269,0 0.576,0.28677 0.576,1.98277 v 1.98278 l 1.09891,-1.06511 c 1.33001,-1.28909 1.98542,-1.13918 2.28546,0.52274 0.32585,1.80488 0.41553,1.83127 1.52096,0.44758 0.55807,-0.69855 1.87867,-1.97789 2.93467,-2.84299 1.056,-0.86509 3.14897,-2.71797 4.65105,-4.11752 4.17057,-3.88588 5.37134,-4.59655 12.62052,-7.46933 1.40336,-0.55614 4.13999,-1.857 6.08139,-2.89079 4.25343,-2.26496 7.73205,-3.63507 8.02514,-3.16084 0.25569,0.41371 0.30972,0.37763 -1.6181,1.08051 -0.88,0.32085 -3.904,1.7504 -6.72,3.17678 l -5.12,2.59342 1.92,0.0532 c 2.2052,0.0611 6.4126,1.31397 9.44,2.81109 1.144,0.56574 2.9053,1.35635 3.914,1.75691 2.15419,0.85544 5.28405,3.95479 6.76003,6.69411 1.04711,1.94337 1.19539,4.4139 0.40018,6.66774 l -0.46231,1.31035 5.49405,0.22039 c 7.22064,0.28965 18.45389,-0.45789 23.77644,-1.58226 7.443,-1.5723 12.06132,-3.39767 17.39425,-6.87502 3.44123,-2.24386 6.95312,-3.74258 7.50203,-3.20154 0.37,0.36471 0.39737,0.34802 -1.73867,1.06013 -0.968,0.32271 -3.27961,1.57153 -5.1369,2.77516 -4.06046,2.6314 -7.37597,4.18456 -11.6631,5.46362 -8.58268,2.56064 -12.25501,2.97426 -26.4,2.97347 -8.72875,-6.4e-4 -12.24805,-0.12169 -15.19402,-0.52329 -2.10871,-0.28747 -3.89906,-0.45761 -3.97857,-0.37811 -0.31895,0.31895 1.25158,1.96317 2.96983,3.10919 1.99192,1.32854 2.0891,1.95159 0.25781,1.65282 l -1.17505,-0.19171 1.36495,1.22189 c 0.75073,0.67204 1.36273,1.32989 1.36,1.46189 -0.003,0.132 -0.73695,0.24 -1.63162,0.24 -1.16279,0 -1.58667,0.11407 -1.48643,0.4 0.0771,0.22 0.52113,0.35855 0.98666,0.30789 0.85935,-0.0935 1.14385,0.35053 0.48535,0.75751 -0.47151,0.2914 -0.0221,0.53553 2.95574,1.60565 2.6126,0.93887 6.44873,2.81565 10.36535,5.07112 3.31093,1.90668 6.6467,2.95002 12,3.75328 3.71502,0.55744 5.3283,0.62425 11.52,0.47704 3.96,-0.0942 8.58153,-0.38958 10.27006,-0.65652 3.69454,-0.58405 9.51607,-2.16433 11.9684,-3.24886 2.4779,-1.09585 7.47235,-4.16313 8.71675,-5.35328 1.11833,-1.06959 1.64172,-1.0292 1.04764,0.0808 -0.43841,0.81918 -4.95027,3.79026 -8.32285,5.48063 -4.41059,2.21064 -11.44594,3.86435 -18.86396,4.43412 -5.99124,0.46018 -10.17928,0.41326 -14.78668,-0.16565 -7.24784,-0.91067 -10.34375,-1.89813 -15.50039,-4.94392 -3.14523,-1.85775 -5.17176,-2.81022 -8.88517,-4.17607 -1.3839,-0.50902 -2.71272,-1.0886 -2.95292,-1.28795 -0.33827,-0.28074 -1.15547,0.007 -3.62478,1.27514 -3.82094,1.96268 -10.48233,4.19289 -14.96662,5.01077 -3.65605,0.66682 -3.60741,0.61869 -3.61511,3.57826 -0.003,0.924 -0.13376,1.68 -0.29189,1.68 -0.15814,0 -0.37903,1.044 -0.49088,2.32 -0.4797,5.47295 -0.44648,5.36 -1.57671,5.36 -0.60537,0 -1.89674,-0.51524 -3.1996,-1.27658 z m 3.77873,-2.63646 c 0.12521,-1.63183 0.43203,-3.94837 0.68182,-5.14788 0.24979,-1.19951 0.45416,-2.57385 0.45416,-3.05409 0,-0.86013 0.0562,-0.88402 3.76,-1.59968 5.22781,-1.01012 10.54621,-2.71938 14.32,-4.60223 1.76,-0.87812 3.24139,-1.63344 3.29198,-1.67848 0.0506,-0.045 -0.0786,-0.45624 -0.28705,-0.91377 -0.47803,-1.04918 0.0517,-1.80623 1.27425,-1.82097 l 0.84082,-0.0101 -0.88,-0.65656 c -0.93108,-0.69465 -1.12509,-1.51007 -0.50649,-2.12868 0.28468,-0.28468 0.24277,-0.42368 -0.17624,-0.58446 -0.69622,-0.26716 -2.75727,-2.94406 -2.75727,-3.58114 0,-0.50228 0.16145,-0.4997 7.87386,0.12586 l 2.59386,0.21039 0.35857,-1.02861 c 0.19722,-0.56574 0.45279,-1.73884 0.56794,-2.60689 0.18104,-1.36473 0.0752,-1.84831 -0.78238,-3.57396 -1.84655,-3.71579 -7.09185,-8.11755 -7.09185,-5.95135 0,1.07536 -6.66566,12.74107 -7.83428,13.71093 -0.95945,0.79628 -0.69384,-0.3151 0.50121,-2.09714 3.21009,-4.78687 7.19413,-12.38812 6.65995,-12.70668 -1.23306,-0.73535 -5.25926,-2.47143 -5.73159,-2.47143 -0.79917,0 -1.86187,1.68397 -4.34416,6.8839 -1.04013,2.17884 -2.07113,3.96931 -2.29113,3.97882 -0.22,0.01 -0.4,-0.0749 -0.4,-0.1876 0,-0.36913 3.49769,-7.48937 4.61812,-9.40109 l 1.09472,-1.86786 -1.01642,-0.36972 c -1.65081,-0.60046 -5.9602,-0.75529 -7.40472,-0.26602 -1.60295,0.54291 -2.13942,1.34465 -4.66894,6.9776 -1.86495,4.15299 -2.54276,5.22349 -2.54276,4.01585 0,-0.26186 0.94572,-2.52986 2.10159,-5.04 1.15588,-2.51013 2.18311,-4.75385 2.28274,-4.98603 0.13793,-0.32144 -0.11532,-0.299 -1.06159,0.0941 -2.01007,0.83501 -3.51224,1.955 -7.46085,5.56269 -2.04993,1.87295 -4.27322,3.87929 -4.94063,4.45852 -0.66741,0.57923 -1.35155,1.51523 -1.5203,2.08 -0.49611,1.66029 9.6e-4,5.2092 1.03636,7.39756 0.5072,1.07211 0.92229,2.25394 0.92243,2.62629 3.2e-4,1.00985 2.15917,5.13277 3.05759,5.83947 0.43046,0.3386 0.78075,0.88292 0.77842,1.20958 -0.003,0.48141 -6.06533,6.37315 -8.57414,8.33349 -0.49701,0.38835 -0.46628,0.48567 0.37319,1.18161 0.50315,0.41712 1.4733,0.92573 2.15589,1.13024 0.68259,0.20451 2.62163,1.31444 4.30897,2.46652 3.05776,2.08776 5.52117,3.39642 5.92435,3.14725 0.11679,-0.0722 0.31479,-1.46637 0.44,-3.0982 z m -70.970682,-0.78029 c -0.34024,-0.34024 -0.24681,-4.71906 0.13908,-6.5184 0.23258,-1.08446 1.01203,-2.62939 2.29222,-4.54328 1.86285,-2.78498 1.92369,-2.93942 1.53356,-3.89252 -1.09299,-2.67024 -1.32978,-3.60377 -1.15304,-4.54584 0.10458,-0.55748 1.85969,-3.51403 3.90024,-6.57012 2.04055,-3.05608 3.965677,-6.1136 4.278077,-6.7945 0.4874,-1.06235 1.86054,-2.76564 6.22525,-7.72201 0.46497,-0.528 0.0719,0.264 -0.87352,1.76 -2.81846,4.45993 -3.57436,5.58332 -3.98334,5.92 -0.2138,0.176 -2.265927,3.18063 -4.560287,6.67695 -4.53785,6.91512 -4.6611,7.25363 -3.54019,9.72305 0.68924,1.51842 0.82728,1.5871 1.66538,0.82863 0.6884,-0.62299 1.08986,-0.3831 0.7323,0.43757 -0.1375,0.31559 -0.22638,0.73027 -0.19751,0.92152 0.0289,0.19124 -0.29907,0.50789 -0.72876,0.70367 -0.87614,0.3992 -3.93604,4.74621 -4.55331,6.46861 -0.22077,0.616 -0.40771,2.524 -0.41544,4.24 -0.0129,2.86023 -0.17762,3.48975 -0.76071,2.90667 z M 186.08021,133.4138 c -1.41131,-1.0833 -2.57203,-2.51913 -1.77673,-2.19783 0.59404,0.23999 4.19827,3.00447 4.2069,3.22674 0.021,0.54126 -0.88352,0.15828 -2.43017,-1.02891 z m 88.07229,-2.82769 c -1.37246,-2.65404 -8.53483,-7.42347 -11.31628,-7.53552 -0.85402,-0.0344 -1.21897,-0.20556 -1.29609,-0.60788 -0.33463,-1.74567 5.2524,0.59006 9.93469,4.15334 1.93657,1.47375 3.226,2.97059 3.58931,4.16666 0.31371,1.03276 -0.35304,0.9036 -0.91163,-0.1766 z m 0.28721,-10.33563 c -1.68353,-0.51596 -6.63888,-1.23461 -9.12,-1.32263 -1.88216,-0.0668 -2.4,-0.18871 -2.4,-0.56514 0,-0.38497 0.38012,-0.45926 1.92,-0.37526 4.8402,0.26405 11.08737,1.4626 11.0878,2.12726 2.8e-4,0.43991 -0.38168,0.47477 -1.4878,0.13577 z m 0.8,-4.94392 c -3.51852,-1.22824 -8.34605,-1.88717 -10.82117,-1.47703 -2.22668,0.36898 -2.66575,0.29251 -2.02215,-0.35215 0.70236,-0.70354 6.23414,-0.68406 9.48332,0.0334 3.46655,0.76544 5.97852,1.66749 6.16004,2.21207 0.17542,0.52624 -0.30433,0.45492 -2.80004,-0.41628 z m -49.43812,-13.89819 -0.52955,-1.59433 -1.17617,0.50339 c -0.64689,0.27687 -1.34159,0.57214 -1.54379,0.65615 -0.53405,0.22191 -0.81583,-0.40242 -0.34885,-0.77291 0.21806,-0.173 0.9378,-0.48892 1.59942,-0.70204 l 1.20294,-0.38749 -0.64294,-0.81737 c -0.81985,-1.04228 -0.82362,-2.64091 -0.0124,-5.25735 1.23067,-3.96922 2.0817,-4.26757 6.32286,-2.21659 4.12727,1.9959 4.14053,2.67065 0.12788,6.50432 -2.10396,2.0101 -2.78344,2.47856 -3.59511,2.47856 -0.8919,0 -0.9761,0.0784 -0.77359,0.72 0.45953,1.45604 0.55427,2.48 0.22944,2.48 -0.18184,0 -0.5689,-0.71745 -0.86016,-1.59434 z m 27.19812,-2.33224 c -2.62627,-1.46918 -3.34378,-4.70705 -1.69368,-7.64301 1.01849,-1.81216 2.46249,-2.62342 4.17626,-2.34628 3.41104,0.55163 5.12277,2.05259 5.54397,4.86135 0.27053,1.80404 -0.0254,2.85529 -1.07949,3.8347 -2.21753,2.06043 -4.73718,2.52948 -6.94706,1.29324 z m 6.496,-5.41742 c 0.67162,-0.67162 0.42105,-1.76793 -0.60055,-2.62756 -0.5415,-0.45564 -1.18444,-0.82844 -1.42874,-0.82844 -0.53321,0 -1.10671,0.98405 -1.10671,1.89896 0,1.43852 2.17475,2.51829 3.136,1.55704 z m -80.256,-1.24761 c 0,-1.4989 6.9993,-4.55057 10.5211,-4.58717 1.58835,-0.0165 2.1182,0.0996 2.38868,0.52343 0.50511,0.79149 -2.4e-4,1.09367 -0.72783,0.43522 -0.4919,-0.44517 -0.91057,-0.51511 -2.00196,-0.33446 -2.37486,0.3931 -8.04506,2.65842 -8.80464,3.51757 -0.73893,0.83579 -1.37535,1.0419 -1.37535,0.44541 z m 13.0349,-8.447539 c -1.25518,-1.10461 -2.97608,-1.47536 -6.81129,-1.46743 -2.73084,0.006 -3.34361,-0.0793 -3.34361,-0.46325 0,-0.63672 5.99476,-0.65782 8.08597,-0.0284 1.74064,0.52386 3.43403,1.65807 3.43403,2.30008 0,0.64391 -0.3435,0.55811 -1.3651,-0.34094 z m 4.61064,-2.71206 c -1.38965,-1.72923 -3.14019,-2.68624 -7.35478,-4.02081 -1.96392,-0.62188 -3.57076,-1.26958 -3.57076,-1.43933 0,-0.48063 0.50251,-0.38723 4.29696,0.79869 3.92028,1.22524 6.06995,2.42267 7.34108,4.08921 1.56188,2.04772 0.90025,2.57909 -0.7125,0.57224 z m 18.75895,-0.32742 c -3.62131,-1.09039 -5.36505,-4.76299 -3.91229,-8.23994 0.97448,-2.33224 2.56991,-3.3726 5.13665,-3.34954 3.54248,0.0318 6.21115,2.46477 6.21115,5.6625 0,1.93831 -0.61085,3.31276 -2.02359,4.55315 -1.65793,1.45569 -3.54724,1.93529 -5.41192,1.37383 z m 5.44431,-6.25951 c 0.40496,-0.28365 0.7112,-0.83482 0.7112,-1.28 0,-0.8694 -1.01789,-2.06186 -1.76,-2.06186 -0.67962,0 -1.76,1.16434 -1.76,1.89677 0,0.54826 1.35817,1.94323 1.89195,1.94323 0.11311,0 0.52569,-0.22417 0.91685,-0.49814 z"
       id="path995" />
  </g>
  <g
     inkscape:groupmode="layer"
     id="layer12"
     inkscape:label="Image 8"
     style="display:none">
    <path
       style="fill:#deafac;fill-opacity:1;stroke:#ababab;stroke-width:0.982677;stroke-miterlimit:4;stroke-dasharray:none;stroke-opacity:0;paint-order:stroke fill markers"
       id="path1113"
       d="m 195.78752,70.233752 c -0.84537,0.57587 -1.60873,1.230035 -2.26387,2.015534 -0.61949,0.743719 -1.12259,1.575375 -1.63306,2.395572 -0.0648,0.118665 -0.12955,0.23733 -0.19432,0.355995 0,0 2.33279,0.659736 2.33279,0.659736 v 0 c 0.0561,-0.09425 0.11229,-0.188497 0.16844,-0.282746 0.46721,-0.734101 0.90659,-1.49189 1.50798,-2.128463 0.60831,-0.608369 1.28544,-1.146871 2.04935,-1.549472 0,0 -1.96731,-1.466156 -1.96731,-1.466156 z" />
    <path
       style="fill:#deafac;fill-opacity:1;stroke:#ababab;stroke-width:0.982677;stroke-miterlimit:4;stroke-dasharray:none;stroke-opacity:0;paint-order:stroke fill markers"
       id="path1115"
       d="m 197.752,73.114128 c -0.79395,0.622477 -1.55235,1.304179 -2.30323,1.981379 -0.14943,0.16448 -0.29885,0.32896 -0.44827,0.49344 0,0 2.15104,1.044964 2.15104,1.044964 v 0 c 0.12926,-0.125664 0.25851,-0.251328 0.38777,-0.376992 0.78943,-0.695815 1.60724,-1.358747 2.40935,-2.036542 0,0 -2.19666,-1.106249 -2.19666,-1.106249 z" />
    <path
       style="fill:#deafac;fill-opacity:1;stroke:#ababab;stroke-width:0.982677;stroke-miterlimit:4;stroke-dasharray:none;stroke-opacity:0;paint-order:stroke fill markers"
       id="path1117"
       d="m 200.42786,74.942518 c -0.54829,0.504797 -1.17733,0.899112 -1.74897,1.375064 -0.41169,0.337885 -0.74533,0.758213 -1.06254,1.18263 0,0 2.24133,0.923771 2.24133,0.923771 v 0 c 0.27606,-0.309363 0.56073,-0.608254 0.89718,-0.854015 0.63451,-0.491711 1.28855,-0.961689 1.86494,-1.523583 0,0 -2.19194,-1.103867 -2.19194,-1.103867 z" />
    <path
       style="fill:#deafac;fill-opacity:1;stroke:#ababab;stroke-width:0.982677;stroke-miterlimit:4;stroke-dasharray:none;stroke-opacity:0;paint-order:stroke fill markers"
       id="path1119"
       d="m 258.2479,106.31815 c 0.0414,1.14179 0.0317,2.28476 0.0236,3.42706 -0.006,0.56726 -0.009,1.13454 -0.0137,1.7018 0,0 2.41538,-0.22066 2.41538,-0.22066 v 0 c -0.005,-0.56643 -0.008,-1.13288 -0.0137,-1.6993 -0.008,-1.14375 -0.0176,-2.28815 0.0236,-3.43139 0,0 -2.43528,0.22249 -2.43528,0.22249 z" />
    <path
       style="fill:#deafac;fill-opacity:1;stroke:#ababab;stroke-width:0.982677;stroke-miterlimit:4;stroke-dasharray:none;stroke-opacity:0;paint-order:stroke fill markers"
       id="path1121"
       d="m 262.07163,107.41658 c 0.039,1.05374 0.0308,2.10857 0.0223,3.16279 -10e-4,0.14884 -0.003,0.29769 -0.004,0.44653 0,0 2.4033,-0.21956 2.4033,-0.21956 v 0 c -10e-4,-0.14858 -0.003,-0.29715 -0.004,-0.44573 -0.009,-1.05558 -0.0167,-2.11175 0.0223,-3.16686 0,0 -2.43902,0.22283 -2.43902,0.22283 z" />
    <path
       style="fill:#deafac;fill-opacity:1;stroke:#ababab;stroke-width:0.982677;stroke-miterlimit:4;stroke-dasharray:none;stroke-opacity:0;paint-order:stroke fill markers"
       id="path1123"
       d="m 266.79924,107.89339 c 0.0541,0.83114 -0.0193,1.66066 -0.084,2.48872 0,0 2.39942,-0.0974 2.39942,-0.0974 v 0 c 0.0563,-0.87062 0.11303,-1.7411 0.11984,-2.61383 0,0 -2.43528,0.22248 -2.43528,0.22248 z" />
  </g>
  <g
     inkscape:groupmode="layer"
     id="layer13"
     inkscape:label="Image 9"
     style="display:inline">
    <path
       style="fill:#deafac;fill-opacity:1;stroke:#ababab;stroke-width:0.982677;stroke-miterlimit:4;stroke-dasharray:none;stroke-opacity:0;paint-order:stroke fill markers"
       id="path1128"
       d="m 248.56927,103.84931 c -0.0285,1.31515 -0.1131,2.62842 -0.1664,3.94276 -0.006,0.17435 -0.0129,0.3487 -0.0193,0.52306 0,0 1.96145,-0.13741 1.96145,-0.13741 v 0 c 0.004,-0.17139 0.008,-0.34279 0.0116,-0.51418 0.0413,-1.33316 0.0991,-2.66597 0.2021,-3.99598 0,0 -1.98945,0.18175 -1.98945,0.18175 z" />
    <path
       style="fill:#deafac;fill-opacity:1;stroke:#ababab;stroke-width:0.982677;stroke-miterlimit:4;stroke-dasharray:none;stroke-opacity:0;paint-order:stroke fill markers"
       id="path1130"
       d="m 252.6138,104.41731 c 0.038,1.15467 0.034,2.31035 0.0284,3.46549 0,0 1.94476,-0.17768 1.94476,-0.17768 v 0 c -0.006,-1.15687 -0.01,-2.31428 0.0285,-3.47068 0,0 -2.00166,0.18287 -2.00166,0.18287 z" />
    <path
       style="fill:#deafac;fill-opacity:1;stroke:#ababab;stroke-width:0.982677;stroke-miterlimit:4;stroke-dasharray:none;stroke-opacity:0;paint-order:stroke fill markers"
       id="path1132"
       d="m 256.4394,104.86738 c -0.0787,1.19639 -0.22033,2.38745 -0.38665,3.57463 -0.10155,0.72882 -0.0541,0.37643 -0.14306,1.05709 0,0 1.96957,-0.008 1.96957,-0.008 v 0 c 0.077,-0.66711 0.0354,-0.32001 0.12563,-1.04121 0.16239,-1.25304 0.30066,-2.50942 0.43616,-3.76537 0,0 -2.00165,0.18287 -2.00165,0.18287 z" />
    <path
       style="fill:#deafac;fill-opacity:1;stroke:#ababab;stroke-width:0.982677;stroke-miterlimit:4;stroke-dasharray:none;stroke-opacity:0;paint-order:stroke fill markers"
       id="path1134"
       d="m 202.60196,81.61287 c -0.42612,0.962195 -0.99303,1.851869 -1.43588,2.804931 -0.22939,0.450544 -0.36748,0.933153 -0.49891,1.418302 0,0 1.96293,0.209872 1.96293,0.209872 v 0 c 0.12411,-0.407353 0.25961,-0.809682 0.45492,-1.190026 0.45957,-0.938031 0.98221,-1.844144 1.46515,-2.770275 0,0 -1.94821,-0.472804 -1.94821,-0.472804 z" />
    <path
       style="fill:#deafac;fill-opacity:1;stroke:#ababab;stroke-width:0.982677;stroke-miterlimit:4;stroke-dasharray:none;stroke-opacity:0;paint-order:stroke fill markers"
       id="path1136"
       d="m 206.23812,82.336112 c -0.49341,0.864811 -1.06882,1.678188 -1.53437,2.55906 -0.2271,0.464585 -0.46043,0.924922 -0.67884,1.393662 0,0 1.91961,0.436702 1.91961,0.436702 v 0 c 0.21407,-0.441843 0.42848,-0.883569 0.6552,-1.319123 0.45868,-0.811264 0.97189,-1.594914 1.51542,-2.351371 0,0 -1.87702,-0.71893 -1.87702,-0.71893 z" />
    <path
       style="fill:#deafac;fill-opacity:1;stroke:#ababab;stroke-width:0.982677;stroke-miterlimit:4;stroke-dasharray:none;stroke-opacity:0;paint-order:stroke fill markers"
       id="path1138"
       d="m 209.82196,83.918363 c -0.59616,0.847699 -1.23278,1.660537 -1.73691,2.568153 -0.31667,0.57911 -0.16837,0.291552 -0.44647,0.861855 0,0 1.92089,0.461724 1.92089,0.461724 v 0 c 0.25534,-0.504643 0.11809,-0.244527 0.41396,-0.779164 0.50191,-0.830213 1.092,-1.602901 1.70516,-2.353812 0,0 -1.85663,-0.758756 -1.85663,-0.758756 z" />
  </g>
  <g
     inkscape:groupmode="layer"
     id="layer11"
     inkscape:label="Image 7">
    <path
       style="fill:#dedbe3;fill-opacity:0;stroke:#ababab;stroke-width:0.0781837;stroke-miterlimit:4;stroke-dasharray:none;stroke-opacity:0;paint-order:stroke fill markers"
       d="m 220.02423,70.576567 c -1.17336,0.07085 -2.08384,1.113761 -2.44855,2.16278 -0.2766,1.07493 0.60292,1.980542 1.35302,2.621504 0.50752,0.414884 1.23138,0.817675 1.86007,0.393458 1.0744,-0.457808 2.00933,-1.584014 1.72504,-2.810152 -0.26733,-1.128681 -1.22587,-2.385927 -2.48958,-2.36759 z"
       id="path1092" />
    <path
       style="fill:#dedbe3;fill-opacity:0;stroke:#ababab;stroke-width:0.0781837;stroke-miterlimit:4;stroke-dasharray:none;stroke-opacity:0;paint-order:stroke fill markers"
       d="m 257.11704,89.560482 c -0.93029,0.101458 -1.27286,1.166335 -1.46926,1.943208 -0.55964,2.110159 2.16747,4.077866 4.02083,2.978134 0.99481,-0.532363 1.29975,-1.943968 0.58988,-2.826003 -0.72131,-0.98989 -1.77366,-1.827547 -2.98652,-2.091454 -0.0515,-0.0047 -0.1033,-0.0059 -0.15493,-0.0039 z"
       id="path1094" />
    <path
       style="fill:#dedbe3;fill-opacity:0;stroke:#ababab;stroke-width:0.0781837;stroke-miterlimit:4;stroke-dasharray:none;stroke-opacity:0;paint-order:stroke fill markers"
       d="m 257.11704,89.560482 c -0.93029,0.101458 -1.27286,1.166335 -1.46926,1.943208 -0.55964,2.110159 2.16747,4.077866 4.02083,2.978134 0.99481,-0.532363 1.29975,-1.943968 0.58988,-2.826003 -0.72131,-0.98989 -1.77366,-1.827547 -2.98652,-2.091454 -0.0515,-0.0047 -0.1033,-0.0059 -0.15493,-0.0039 z"
       id="path1096" />
    <path
       style="fill:#dedbe3;fill-opacity:0;stroke:#ababab;stroke-width:0.982677;stroke-miterlimit:4;stroke-dasharray:none;stroke-opacity:0;paint-order:stroke fill markers"
       id="path1098"
       d="m 217.04084,71.707546 c 0.86697,0.75673 1.5758,1.672023 2.24035,2.605686 0.19776,0.259425 0.33975,0.558536 0.53665,0.81875 0.44598,0.589379 0.70753,0.58832 1.70706,-0.22907 0.11044,-0.09032 -0.16237,-0.981006 -0.20098,-1.120985 -0.0869,-0.292254 -0.39998,-1.966477 -1.04225,-1.726274 -1.19182,0.44573 -1.06778,0.90132 -1.07877,1.690584 0.003,0.203094 0.006,0.406187 0.009,0.609281 0,0 1.57051,-0.140769 1.57051,-0.140769 v 0 c 0.004,-0.186779 0.008,-0.373558 0.0115,-0.560338 0.0915,-0.989426 0.11554,0.06959 -0.90821,0.0226 -0.22745,-0.01044 -0.29346,-0.349272 -0.45721,-0.507478 -0.0469,-0.04533 0.0794,0.10544 0.10374,0.165963 0.0854,0.212189 0.1901,0.654166 0.24449,0.86667 0.0283,0.129332 0.0566,0.258663 0.085,0.387994 0.0108,-0.0083 0.019,-0.02201 0.0323,-0.02493 0.45753,-0.100632 0.91586,-0.198083 1.37621,-0.284868 0.0246,-0.0046 -0.0463,0.05443 -0.0649,0.03765 -0.0999,-0.09047 -0.16802,-0.210829 -0.24689,-0.320075 -0.11379,-0.157609 -0.22061,-0.32014 -0.33091,-0.480209 -0.70776,-0.974552 -1.45064,-1.923012 -2.26164,-2.814621 0,0 -1.32475,1.004443 -1.32475,1.004443 z" />
    <path
       style="fill:#dedbe3;fill-opacity:0;stroke:#ababab;stroke-width:0.982677;stroke-miterlimit:4;stroke-dasharray:none;stroke-opacity:0;paint-order:stroke fill markers"
       id="path1100"
       d="m 257.64715,90.749566 c 0.14768,1.196793 0.30092,2.399069 0.32798,3.606044 0.53952,-0.147832 1.13145,-0.168442 1.61857,-0.443497 0.12858,-0.0726 -0.0395,-0.292722 -0.0546,-0.439606 -0.0179,-0.173401 -0.0314,-0.347235 -0.0444,-0.521072 -0.0105,-0.140121 6e-4,-0.282745 -0.0259,-0.420737 -0.0252,-0.131463 0.002,-0.411985 -0.12792,-0.380668 -0.55923,0.134564 -1.02561,0.521084 -1.53841,0.781626 -2.1e-4,0.672618 0.002,0.331231 -0.009,1.024157 0,0 1.58487,-0.115618 1.58487,-0.115618 v 0 c 0.0238,-0.662108 0.004,-0.342248 0.0554,-0.959758 -0.49651,0.0673 -0.98965,0.236191 -1.48953,0.201895 -0.10506,-0.0072 -0.041,-0.410705 -0.0672,-0.308698 -0.0333,0.12963 0.0337,0.265628 0.044,0.399055 0.0134,0.173558 0.0215,0.347534 0.0271,0.521519 0.004,0.140701 -0.13503,0.394743 0.003,0.422307 0.53524,0.106875 1.08976,-0.06354 1.63464,-0.09531 -0.12239,-0.336616 -0.0895,-0.207316 -0.14679,-0.769701 -0.093,-0.913023 -0.12765,-1.832924 -0.154,-2.749787 0,0 -1.63838,0.247845 -1.63838,0.247845 z" />
  </g>
</svg>
