<?xml version="1.0" encoding="UTF-8" standalone="no"?>
<svg
   xmlns:dc="http://purl.org/dc/elements/1.1/"
   xmlns:cc="http://creativecommons.org/ns#"
   xmlns:rdf="http://www.w3.org/1999/02/22-rdf-syntax-ns#"
   xmlns:svg="http://www.w3.org/2000/svg"
   xmlns="http://www.w3.org/2000/svg"
   xmlns:sodipodi="http://sodipodi.sourceforge.net/DTD/sodipodi-0.dtd"
   xmlns:inkscape="http://www.inkscape.org/namespaces/inkscape"
   version="1.1"
   id="svg5766"
   width="416"
   height="384"
   viewBox="0 0 416 384"
   sodipodi:docname="rank_2.svg"
   inkscape:version="1.0.1 (3bc2e813f5, 2020-09-07)">
  <metadata
     id="metadata5772">
    <rdf:RDF>
      <cc:Work
         rdf:about="">
        <dc:format>image/svg+xml</dc:format>
        <dc:type
           rdf:resource="http://purl.org/dc/dcmitype/StillImage" />
        <dc:title></dc:title>
      </cc:Work>
    </rdf:RDF>
  </metadata>
  <defs
     id="defs5770" />
  <sodipodi:namedview
     pagecolor="#ffffff"
     bordercolor="#666666"
     borderopacity="1"
     objecttolerance="10"
     gridtolerance="10"
     guidetolerance="10"
     inkscape:pageopacity="0"
     inkscape:pageshadow="2"
     inkscape:window-width="1280"
     inkscape:window-height="971"
     id="namedview5768"
     showgrid="false"
     inkscape:zoom="0.53797908"
     inkscape:cx="-131.87391"
     inkscape:cy="125.82731"
     inkscape:window-x="-8"
     inkscape:window-y="-8"
     inkscape:window-maximized="1"
     inkscape:current-layer="g5774" />
  <g
     inkscape:groupmode="layer"
     inkscape:label="Image"
     id="g5774"
     style="mix-blend-mode:multiply">
    <path
       style="fill:#000000;stroke-width:1"
       d="m 312.70119,317.94226 c -3.98989,-0.61964 -29.27385,-0.95596 -78.08,-1.03859 -47.50124,-0.0804 -64.04109,-0.32311 -70.5952,-1.03587 -0.89936,-0.0978 -3.94172,0.0507 -6.76079,0.33004 -6.38329,0.63248 -12.80087,0.6417 -16.56401,0.0238 -4.12589,-0.67748 -16.70651,-1.19899 -19.69775,-0.81654 -1.32976,0.17001 -2.81513,0.4602 -3.30083,0.64486 -1.45612,0.55362 -6.65629,0.3953 -9.887,-0.30101 -5.44325,-1.17319 -6.69146,-1.23375 -14.863263,-0.72111 -10.24596,0.64275 -9.97205,0.81807 -10.62728,-6.80213 -0.43785,-5.09208 -1.29894,-11.62613 -2.42485,-18.4 -1.15174,-6.92924 -1.8543,-14.129 -3.20066,-32.8 -0.26652,-3.696 -0.90936,-10.176 -1.42855,-14.4 -0.92406,-7.51801 -1.88,-21.62403 -2.61316,-38.56 -0.20578,-4.75363 -0.35607,-19.2098 -0.34202,-32.89752 l 0.0251,-24.41752 0.7932,-1.35349 c 2.29892,-3.92281 7.91642,-6.99601 11.25594,-6.15784 0.46582,0.11691 2.11088,1.4104 3.65569,2.87442 3.81271,3.61329 7.78852,6.75082 14.255453,11.24974 9.70169,6.74929 11.62496,8.12846 13.99114,10.03301 2.7578,2.21976 9.89549,8.4799 15.92886,13.97046 2.376,2.16224 6.048,5.27848 8.16,6.925 2.112,1.64651 4.776,3.72815 5.92,4.62586 l 2.08,1.63221 1.37553,-2.46541 c 0.75654,-1.35598 1.99929,-3.17847 2.76166,-4.04998 2.6008,-2.97309 10.1253,-15.41026 16.82445,-27.80894 5.36253,-9.9249 8.8049,-15.94411 12.61839,-22.06409 1.9795,-3.17677 4.42572,-7.21593 5.43604,-8.97593 1.01032,-1.76 2.09929,-3.488 2.41994,-3.84 0.32065,-0.352 2.07821,-3.664 3.90569,-7.36 5.18845,-10.4934 9.12664,-16.504004 15.23005,-23.244594 3.49742,-3.86255 4.30954,-4.38674 6.84369,-4.41735 2.14733,-0.0259 2.93208,0.78729 6.00087,6.21856 3.71718,6.57882 7.07907,13.919014 11.11539,24.268834 0.94924,2.434 2.23972,5.4458 2.86775,6.6929 0.62803,1.2471 1.63903,3.57564 2.24667,5.17455 0.60764,1.59891 2.45023,5.4271 4.09463,8.5071 6.09103,11.40862 11.29355,22.1883 14.20844,29.44 0.53059,1.32 2.75196,6 4.9364,10.4 2.18443,4.4 4.37357,8.96533 4.86475,10.14517 l 0.89306,2.14517 5.87839,-5.64918 c 6.12968,-5.89068 8.80326,-7.99783 14.51164,-11.4372 4.33344,-2.61095 7.25988,-4.8596 12.56747,-9.65675 6.99184,-6.31941 9.98828,-8.90875 12.61908,-10.90465 4.39462,-3.33405 20.79457,-14.16256 21.44942,-14.16256 0.57088,0 1.97783,-1.161 1.66195,-1.37145 -0.0722,-0.0481 -0.63536,-0.31807 -1.25136,-0.59985 -3.09273,-1.4147 -5.32825,-4.61227 -6.08025,-8.69687 -0.87536,-4.75471 0.35757,-8.90254 3.52768,-11.86781 2.50326,-2.34149 4.69107,-3.22402 7.99257,-3.22402 2.31434,0 2.98516,0.13022 4.49776,0.87309 2.21962,1.09008 5.19242,4.04356 6.25949,6.21877 1.57408,3.2088 1.55075,7.90268 -0.0556,11.20497 -1.08528,2.23092 -4.08982,4.97823 -6.38252,5.83604 -0.98071,0.36693 -2.001,0.66713 -2.26736,0.66713 -0.3673,0 -0.28935,0.25559 0.32275,1.0581 1.57334,2.06275 2.62067,8.38242 2.31411,13.96372 -0.11171,2.034 -0.49546,6.43418 -0.8528,9.77818 -0.35731,3.344 -1.0072,10.616 -1.44416,16.16 -1.45437,18.45204 -2.04477,23.62789 -5.60301,49.12 -2.85149,20.42857 -4.44598,30.64221 -6.54435,41.92 -0.78592,4.224 -1.79257,10.56 -2.23702,14.08 -0.89232,7.06725 -1.23047,8.64436 -3.81882,17.81069 -0.97696,3.45987 -2.16752,8.49987 -2.6457,11.2 -0.76195,4.30265 -0.97712,5.01806 -1.74144,5.78931 -0.79369,0.80092 -1.06838,0.87596 -3.05666,0.83495 -1.20154,-0.0248 -2.97662,-0.16806 -3.94462,-0.31839 z m 5.29772,-7.28375 c 0.40718,-2.28603 0.8779,-4.41661 1.04609,-4.73462 0.31588,-0.5972 3.03808,-10.1409 4.18103,-14.65819 0.35625,-1.408 1.01581,-5.44 1.46566,-8.96 0.44986,-3.52 1.38899,-9.496 2.08694,-13.28 2.13728,-11.58735 4.02282,-23.65688 6.69876,-42.88 3.7312,-26.80357 4.04755,-29.57415 5.6271,-49.28 0.44438,-5.544 1.16544,-13.56668 1.60234,-17.82818 0.9351,-9.1209 0.95859,-10.33715 0.28221,-14.61363 -0.70641,-4.46607 -1.09319,-5.31819 -2.41402,-5.31819 -0.68614,0 -1.33747,0.28614 -1.91853,0.84284 -0.48387,0.46356 -1.13974,0.85956 -1.45754,0.88 -0.99331,0.0639 -21.21033,13.79639 -23.95605,16.27226 -15.88409,14.32304 -16.36855,14.71771 -22.90949,18.66356 -6.18856,3.73328 -8.39599,5.51283 -16.22997,13.084 -3.40876,3.29442 -6.30086,5.87003 -6.42689,5.72359 -0.12603,-0.14643 -0.91564,-2.01851 -1.75469,-4.16016 -0.83906,-2.14166 -2.00473,-4.80566 -2.59039,-5.92 -3.66211,-6.96795 -8.33026,-16.77258 -9.8893,-20.77073 -1.6076,-4.12268 -4.13492,-9.19052 -13.39273,-26.85536 -1.33745,-2.552 -2.86278,-5.81297 -3.38962,-7.2466 -0.52685,-1.43363 -1.52551,-3.73763 -2.21925,-5.12 -0.69374,-1.38237 -2.49881,-5.62048 -4.01127,-9.41802 -3.33642,-8.37723 -7.56085,-17.539174 -9.83577,-21.331764 -0.92494,-1.54199 -1.87641,-3.12762 -2.11439,-3.52362 -0.23799,-0.396 -0.69135,-0.72 -1.00748,-0.72 -0.33186,0 -2.35168,1.94822 -4.77926,4.60985 -5.27193,5.78021 -9.63515,12.494664 -14.21727,21.878564 -1.74254,3.56863 -3.56852,6.95263 -4.05772,7.52 -0.48921,0.56738 -1.72947,2.47159 -2.75613,4.23159 -1.02666,1.76 -3.27959,5.46223 -5.0065,8.22717 -3.56258,5.70401 -7.03086,11.75196 -11.79778,20.57283 -4.79726,8.87704 -7.30793,13.31107 -10.26067,18.12116 -4.54558,7.40488 -5.80113,9.32575 -7.86839,12.03789 -1.10635,1.45148 -2.68028,4.01371 -3.49762,5.69385 -0.81734,1.68013 -1.60868,3.01256 -1.75854,2.96095 -0.14986,-0.0516 -2.39294,-1.74985 -4.98464,-3.77385 -2.59169,-2.024 -5.75492,-4.4 -7.02939,-5.28 -1.27447,-0.88 -4.88207,-3.91321 -8.01689,-6.74047 -13.86326,-12.50314 -15.42858,-13.77671 -25.53967,-20.77939 -9.803413,-6.7896 -12.656553,-8.99865 -18.533403,-14.34951 l -2.40459,-2.18937 -1.531,0.51732 c -1.76589,0.59668 -4.31238,2.36923 -5.07433,3.53211 -0.46526,0.71008 -0.54205,2.93293 -0.68828,19.92428 -0.24853,28.87735 0.89345,57.80587 2.9593,74.96503 0.60389,5.016 1.3186,12.216 1.58824,16 1.33737,18.76824 1.94508,24.43093 3.9818,37.103 0.35209,2.19064 0.95164,7.01464 1.33235,10.72 0.3807,3.70535 0.7312,6.78253 0.77887,6.83817 0.0477,0.0556 2.54361,-0.0524 5.5465,-0.24 8.240423,-0.51492 11.050613,-0.43755 15.642453,0.43065 6.21059,1.17426 7.18393,1.24111 9.26433,0.63632 1.00763,-0.29292 3.06184,-0.63582 4.56491,-0.76198 3.66831,-0.3079 15.6805,0.19496 19.85286,0.83109 3.11443,0.47484 11.27602,0.64932 12.94183,0.27667 1.97901,-0.44271 9.56275,-0.71667 12.01816,-0.43416 1.496,0.17213 4.88,0.30192 7.52001,0.28844 2.63999,-0.0135 6.23999,0.1359 8,0.33198 2.16015,0.24066 10.94679,0.3215 27.03999,0.2488 31.03678,-0.14021 37.09924,-0.13654 41.92,0.0254 2.2,0.0739 10.84,0.11224 19.2,0.0852 18.44193,-0.0596 40.39423,0.43609 44.32,1.00075 1.584,0.22784 2.93343,0.37705 2.99872,0.33158 0.0653,-0.0455 0.45184,-1.95305 0.859,-4.23909 z M 198.14119,297.82192 c -2.552,-0.14367 -11.679,-0.3019 -20.28223,-0.35162 -14.09744,-0.0815 -15.70791,-0.14359 -16.30714,-0.62882 -0.5753,-0.46584 -0.68244,-0.97514 -0.79507,-3.77934 -0.14245,-3.5467 -0.0245,-3.87745 1.66957,-4.68134 0.54833,-0.26019 1.78849,-1.12478 2.75592,-1.92129 0.96743,-0.79651 2.33496,-1.8371 3.03896,-2.31241 2.97354,-2.00764 6.24466,-4.52164 8.64,-6.64021 1.408,-1.24531 3.136,-2.68944 3.84,-3.20917 0.704,-0.51973 2.0134,-1.59455 2.90978,-2.38849 0.89639,-0.79394 2.68039,-2.23553 3.96445,-3.20353 1.28407,-0.968 3.65457,-2.912 5.2678,-4.32 3.09194,-2.6986 6.32765,-5.3062 7.98593,-6.4357 0.54562,-0.37163 3.22403,-3.02088 5.95204,-5.88722 2.728,-2.86634 6.12472,-6.37828 7.54826,-7.8043 4.34691,-4.35448 7.48914,-9.13526 8.85515,-13.47278 2.73464,-8.68335 3.08638,-11.69164 1.85207,-15.84 -0.63371,-2.12982 -0.93798,-2.62011 -2.70293,-4.35536 -1.45016,-1.42575 -2.80732,-2.35428 -5.0107,-3.42816 -3.40931,-1.66163 -6.0844,-2.13394 -12.09567,-2.13557 -3.89468,-9.6e-4 -6.26122,0.53645 -9.57427,2.17463 -1.84072,0.91017 -2.60328,1.51219 -3.51306,2.77348 -1.8509,2.56605 -2.07066,3.55194 -2.01765,9.05141 0.0533,5.53141 0.39689,4.85727 -3.0212,5.92807 -2.19807,0.6886 -9.93234,1.02939 -12.8,0.56399 -3.25252,-0.52785 -3.35614,-0.68977 -3.60945,-5.64038 -0.25922,-5.06643 -0.1626,-9.2706 0.27149,-11.81211 0.4129,-2.41746 1.7262,-6.45588 2.45954,-7.56312 2.61322,-3.94556 6.48137,-7.83686 10.30595,-10.36762 1.45395,-0.96209 2.78853,-1.74926 2.96574,-1.74926 0.17721,0 1.63721,-0.59228 3.24446,-1.31618 2.55179,-1.14933 3.36614,-1.35437 6.42349,-1.61735 3.19456,-0.27478 11.31606,0.0992 12.05368,0.55511 0.13441,0.0831 1.59119,0.27846 3.23727,0.43419 2.9418,0.27833 5.02046,0.82668 9.91095,2.61453 3.608,1.31901 8.94985,5.08338 13.52314,9.52968 6.0709,5.90233 7.22464,7.72637 10.14563,16.04002 1.01307,2.88337 1.06492,3.2461 1.00632,7.04 -0.0939,6.07823 -1.15128,10.10112 -4.59157,17.46861 -1.33875,2.86697 -4.23117,7.60497 -6.13612,10.05139 -3.93564,5.05436 -21.02423,20.74697 -26.65052,24.47343 -1.408,0.93255 -4.072,3.029 -5.92,4.65877 -1.848,1.62976 -4.008,3.53438 -4.8,4.23248 l -1.44,1.26927 2.24,-0.20394 c 6.01487,-0.54762 27.08803,-1.31075 36.16,-1.30946 2.112,3e-4 5.64,0.18264 7.84,0.40521 2.2,0.22258 5.13472,0.48837 6.52161,0.59066 l 2.52161,0.18599 -0.14579,6.84631 c -0.0802,3.76547 -0.25525,6.95543 -0.38903,7.0888 -0.13378,0.13336 -7.8989,0.24822 -17.25582,0.25524 -9.35692,0.007 -20.25258,0.10094 -24.21258,0.20872 -3.96,0.10778 -9.288,0.0784 -11.84001,-0.0653 z M 343.45556,132.64531 c 1.84554,-0.77503 3.57293,-2.52383 4.44509,-4.50024 0.90304,-2.04631 0.92643,-5.42076 0.0513,-7.39906 -0.80109,-1.811 -3.01082,-4.22487 -4.61827,-5.04495 -3.9465,-2.01334 -8.8024,-0.25442 -11.04442,4.00053 -0.75901,1.44047 -0.86138,1.98103 -0.82643,4.36411 0.0614,4.18546 1.20755,6.65862 3.78621,8.16981 2.54003,1.48856 5.30848,1.6268 8.20649,0.4098 z m -272.672643,6.26453 c -3.18801,-1.15505 -5.93262,-3.8023 -7.06952,-6.81874 -0.55218,-1.46508 -0.65075,-2.30986 -0.54938,-4.70867 0.10977,-2.59734 0.25671,-3.19272 1.31797,-5.34004 2.89634,-5.86034 8.85267,-8.71017 14.5732,-6.97262 1.83754,0.55814 2.62772,1.02607 4.21641,2.49693 3.30581,3.06059 4.28945,5.96288 3.53868,10.441 -0.74173,4.42421 -1.24141,5.63456 -3.15393,7.63965 -2.58657,2.71174 -4.55357,3.57799 -8.38449,3.69245 -2.20722,0.0659 -3.44832,-0.0529 -4.48894,-0.42996 z m 7.83827,-3.44808 c 2.6923,-1.27494 4.64,-3.89485 4.64,-6.24137 0,-0.52022 0.16602,-1.66507 0.36892,-2.54409 0.49882,-2.16101 -0.0578,-4.08709 -1.73037,-5.98719 -1.79333,-2.03733 -3.43567,-2.81214 -5.99855,-2.82998 -5.11289,-0.0356 -9.16956,4.04794 -9.52998,9.59306 -0.16392,2.52194 0.39051,4.24386 1.96688,6.10863 2.20791,2.61186 6.93613,3.48592 10.2831,1.90094 z M 210.94119,84.269726 c -3.80418,-0.8264 -7.38817,-3.52844 -8.97184,-6.76403 -0.68064,-1.39063 -0.7826,-2.03967 -0.77916,-4.96 0.003,-2.93276 0.10847,-3.58379 0.82585,-5.12 1.29134,-2.76527 3.7792,-5.2488 6.64284,-6.63126 2.16066,-1.04309 2.78917,-1.19464 5.44998,-1.31415 4.8336,-0.21711 8.8562,1.05652 11.95671,3.7857 4.00279,3.5234 4.50843,9.78994 1.10695,13.71867 -0.74323,0.85844 -1.96901,2.29617 -2.72395,3.19496 -1.65878,1.97485 -4.94965,3.68221 -8.06738,4.18549 -2.52376,0.40739 -3.17842,0.39592 -5.44,-0.0954 z m 4.98123,-3.11185 c 2.46665,-0.45185 5.41871,-2.03456 6.4772,-3.47268 0.46129,-0.62672 1.37479,-1.73844 2.03,-2.47049 2.18685,-2.44332 2.36957,-5.53274 0.49328,-8.34023 -0.81852,-1.22475 -1.523,-1.78333 -3.54247,-2.80878 -2.49311,-1.26595 -2.55981,-1.27998 -6.08,-1.27856 -3.96416,0.002 -5.32526,0.44669 -7.77299,2.54186 -2.79497,2.39239 -4.08148,7.01444 -2.84998,10.2391 1.0031,2.62659 3.97811,5.00377 7.01374,5.60435 1.88945,0.37382 2.11527,0.37304 4.23122,-0.0146 z"
       id="path5778" />
  </g>
  <g
     inkscape:groupmode="layer"
     id="layer9"
     inkscape:label="Image 1"
     style="display:inline">
    <path
       style="opacity:1;fill:#a29e99;fill-opacity:1;stroke:#000000;stroke-width:0;stroke-linecap:round;stroke-linejoin:round"
       d="m 214.67643,88.948507 c -13.70145,12.401553 -19.85985,30.380483 -29.97945,45.419273 -11.90785,19.80332 -22.29858,40.50643 -35.5173,59.48821 -16.94929,-11.4947 -30.8528,-26.85872 -48.02606,-38.07326 -6.254328,-4.15123 -11.615769,-9.47562 -17.890405,-13.54167 -3.538633,-1.38427 -6.474948,2.60219 -8.318819,4.89554 -0.118933,34.43288 -0.297746,68.95863 3.71465,103.21512 1.563343,20.53871 4.05545,41.03284 6.900477,61.43358 2.46313,2.26116 6.923716,0.0433 10.184913,0.49555 8.172554,-1.08476 16.109014,2.81676 24.205784,0.76363 13.32053,-0.44574 26.67423,0.596 40.0127,0.45249 52.37191,0.50557 104.74832,0.7666 157.11289,1.83483 2.33761,-1.81081 1.46206,-5.9858 2.77796,-8.70861 5.91864,-19.64808 7.99554,-40.16324 11.51733,-60.33682 5.00862,-32.43526 8.93992,-65.08656 10.67272,-97.86492 -0.37283,-3.27974 0.0316,-7.27774 -2.2103,-9.92841 -3.59474,-0.32366 -6.56656,3.05014 -9.68142,4.48798 -12.00346,7.30662 -22.82147,16.35465 -33.29887,25.60423 -9.24103,6.779 -18.95946,13.21553 -27.18417,21.31521 -1.47783,0.90288 -3.8045,4.82667 -4.38146,1.45385 -8.8894,-19.01563 -17.72334,-38.03966 -27.1642,-56.77231 -7.26499,-14.41301 -12.23979,-29.96865 -20.49091,-43.8673 -0.7394,-0.844393 -1.54322,-2.78619 -2.95606,-1.766193 z m -17.73638,97.591133 c 10.79405,0.13471 22.6158,0.47627 31.43079,7.58847 8.76185,6.22256 16.95544,15.60848 16.7108,26.97423 0.28785,13.85194 -7.96293,26.27277 -18.02355,35.4091 -8.86184,9.05669 -19.03696,16.44988 -28.57904,24.67867 -4.48432,4.46174 3.57363,3.19594 6.19101,2.91466 14.93616,-0.59416 30.03896,-1.10657 44.98463,0.0793 3.16223,0.55128 0.65127,5.93662 1.19917,8.61726 0.6391,3.26522 -1.19501,4.21269 -4.15848,3.68928 -28.19783,0.4216 -56.49744,0.58948 -84.63764,-0.45468 -0.70338,-2.69568 -1.58427,-6.18016 1.6956,-7.53456 19.32957,-14.25928 38.03014,-29.63162 54.31556,-47.33807 5.81566,-7.00588 8.94548,-16.5651 7.95557,-25.64573 -2.2917,-7.92816 -11.56453,-11.49981 -19.19066,-11.24793 -6.61096,-0.21949 -15.72848,1.79219 -17.15748,9.42397 -0.5927,3.14671 -0.31153,6.36823 -0.38123,9.54848 -5.33952,1.85785 -11.29216,1.87299 -16.79037,0.69826 -2.01185,-6.88847 -1.4341,-14.74086 1.08718,-21.50109 4.45394,-8.03449 12.62976,-14.506 21.76678,-15.8662 0.5268,-0.0267 1.05407,-0.0298 1.58136,-0.0334 z"
       id="path5783" />
    <path
       style="opacity:1;fill:#a29e99;fill-opacity:1;stroke:#000000;stroke-width:0;stroke-linecap:round;stroke-linejoin:round"
       d="m 214.6238,62.057709 c -7.66168,-0.731861 -14.0369,8.569397 -9.79364,15.22186 3.86251,6.611904 13.39259,5.727553 18.2498,0.838172 3.99145,-3.31403 5.48161,-10.409976 0.50958,-13.580174 -2.53544,-1.971824 -5.82322,-2.576107 -8.96574,-2.479858 z"
       id="path5785" />
    <path
       style="opacity:1;fill:#a29e99;fill-opacity:1;stroke:#000000;stroke-width:0;stroke-linecap:round;stroke-linejoin:round"
       d="m 339.84122,114.0975 c -5.90059,-0.0179 -10.27171,5.95883 -8.98114,11.61374 0.0633,6.37072 7.55943,10.62202 13.09883,7.50504 6.22764,-2.9901 7.27072,-12.55794 1.59805,-16.66716 -1.52625,-1.4752 -3.54899,-2.53089 -5.71574,-2.45162 z"
       id="path5787" />
    <path
       style="opacity:1;fill:#a29e99;fill-opacity:1;stroke:#000000;stroke-width:0;stroke-linecap:round;stroke-linejoin:round"
       d="m 75.537406,117.22171 c -8.932552,-0.23567 -13.472471,13.13074 -6.216331,18.25494 5.464772,4.05119 14.511226,0.30482 14.737954,-6.73105 0.874852,-3.50134 0.526624,-7.48015 -2.811019,-9.57671 -1.482426,-1.56297 -3.608626,-2.12668 -5.710604,-1.94718 z"
       id="path5789" />
  </g>
  <g
     inkscape:groupmode="layer"
     id="layer10"
     inkscape:label="Image 2">
    <path
       style="opacity:1;fill:#3a2e2b;fill-opacity:1;stroke:#000000;stroke-width:0;stroke-linecap:round;stroke-linejoin:round"
       d="m 215.47205,85.884957 c -4.67415,0.450121 -7.04218,5.314244 -9.99564,8.351451 -8.54667,10.510652 -13.46727,23.317552 -20.7849,34.631242 -10.71304,17.08818 -19.53734,35.30683 -30.56013,52.17051 -2.01788,2.84553 -4.15059,5.86752 -5.86777,8.78214 -15.23789,-11.31066 -28.32222,-25.30599 -44.19465,-35.8021 -6.616564,-4.39621 -12.56063,-9.69196 -18.812421,-14.54638 -3.902467,-1.8123 -8.191679,1.12175 -10.904162,3.81746 -2.439481,1.72541 -2.677861,4.37248 -2.352823,7.12656 0.483825,31.89159 -0.643332,63.9331 3.195126,95.66124 1.672982,17.19396 2.523887,34.49957 5.417916,51.54945 0.999005,5.47402 0.813237,11.21295 2.39758,16.56057 1.727366,2.36819 5.32454,0.9687 7.779222,1.3814 6.605145,-0.31604 13.244202,-0.40466 19.727352,0.93328 6.40467,0.24566 12.7587,-0.78313 19.18952,-0.40023 8.96828,-0.0416 17.93473,1.79121 26.89747,0.58696 14.20185,-0.48672 28.46878,0.53595 42.69811,0.41576 36.40005,0.48331 72.81395,0.20571 109.20601,1.08551 3.64813,-0.12538 7.60111,1.05295 11.10103,-0.24694 2.24657,-2.7272 2.02912,-6.75084 3.0968,-10.02208 2.81671,-10.62891 5.33715,-21.37056 6.75584,-32.30319 6.03413,-35.60696 11.4063,-71.36895 14.11693,-107.40218 0.48176,-8.6818 2.27261,-17.4986 0.78852,-26.15957 -0.28331,-1.78625 -1.53426,-3.57695 -1.74989,-5.168 5.79494,-1.74347 10.51542,-7.63658 9.51277,-13.88115 -0.7382,-6.61295 -7.0854,-12.76126 -14.0101,-11.48647 -7.42585,0.77749 -11.90309,9.36284 -9.96108,16.22516 0.7297,3.80432 3.50863,6.69436 6.70278,8.64963 -12.05279,7.57271 -24.05449,15.37889 -34.46034,25.17116 -6.49514,6.29104 -14.4613,10.64396 -21.49355,16.23871 -4.19022,3.2595 -7.65809,7.35105 -11.86538,10.57776 -5.38492,-11.78709 -10.94021,-23.50239 -16.41669,-35.24787 -6.89415,-13.65453 -13.83329,-27.27099 -19.35135,-41.53158 -3.73872,-8.24378 -7.03972,-16.871941 -12.36312,-24.251497 -0.86811,-0.957993 -2.14261,-1.518734 -3.43898,-1.466716 z m 0.0145,3.219333 c 4.7589,5.948062 7.44887,13.28198 10.79407,20.06758 11.9146,28.08075 26.41757,55.04086 38.63862,82.98828 0.62638,2.06318 2.90255,-0.0561 3.79113,-0.83501 10.17607,-9.80351 22.15102,-17.33198 33.01109,-26.33373 11.45594,-9.65301 23.18179,-19.42368 36.70693,-25.94435 1.82501,-1.02914 1.83847,2.1379 2.39158,3.22296 1.51717,7.38797 0.0164,14.95975 -0.24956,22.40898 -3.44596,41.91129 -9.31738,83.62356 -17.04953,124.95306 -1.63985,8.11614 -3.83321,16.14918 -5.92331,24.1448 -1.31939,2.17316 -4.63238,0.65959 -6.68601,1.07889 -65.32477,-1.25211 -130.66235,-1.58458 -195.99398,-2.24065 -7.76427,0.0199 -15.465351,-1.36693 -23.249429,-0.6081 -1.660618,-0.21745 -4.003928,0.62212 -5.327005,-0.51463 C 84.09823,301.05531 83.396764,290.31406 81.983468,279.74622 79.841869,259.30511 77.664347,238.83687 76.490732,218.32959 75.359513,194.835 75.39096,171.27633 75.04943,147.75024 c 1.871923,-2.2597 4.584033,-6.3397 8.044247,-4.94926 7.579749,5.15549 14.421163,11.35749 22.145903,16.33204 15.01174,10.93983 28.16393,24.27579 43.43246,34.85235 2.1111,-0.24537 2.78714,-3.20112 4.13512,-4.58167 13.43231,-21.17826 25.31512,-43.28306 38.23678,-64.76091 7.25844,-12.36135 13.48603,-25.929874 24.44264,-35.5385 z m 124.32871,25.48056 c 5.69852,0.27212 10.26177,6.45291 8.62966,12.0169 -1.05928,6.29988 -9.75101,9.48808 -14.33497,4.82673 -3.37108,-2.69041 -2.82438,-7.36541 -2.36163,-11.15829 1.36304,-3.13184 4.51481,-5.63312 8.06694,-5.68534 z"
       id="path5792" />
    <path
       style="opacity:1;fill:#3a2e2b;fill-opacity:1;stroke:#000000;stroke-width:0;stroke-linecap:round;stroke-linejoin:round"
       d="m 213.9527,59.187278 c -7.30902,-0.192373 -13.90535,6.807912 -13.15961,14.131663 -0.17768,8.000231 9.07153,13.144486 16.25729,11.228329 5.68291,-1.018598 10.0434,-5.77069 12.33642,-10.826253 1.9461,-5.338459 -1.73761,-10.92048 -6.66376,-12.967185 -2.68649,-1.618988 -5.72308,-1.696558 -8.77034,-1.566554 z m 1.12363,3.37272 c 4.82935,-0.207648 11.27325,2.581298 11.15557,8.153162 -0.51093,8.855031 -13.31867,14.484373 -19.70536,7.866354 -3.75294,-3.710888 -3.05024,-10.23007 0.99021,-13.462747 2.07025,-1.818316 4.83276,-2.634637 7.55958,-2.556769 z"
       id="path5794" />
    <path
       style="opacity:1;fill:#3a2e2b;fill-opacity:1;stroke:#000000;stroke-width:0;stroke-linecap:round;stroke-linejoin:round"
       d="m 75.161942,114.32799 c -10.165095,-0.16482 -16.119057,13.82251 -9.678873,21.39717 3.493366,4.28056 10.042427,4.90577 14.904049,2.91165 4.371856,-2.22648 6.923807,-6.95067 6.817507,-11.80625 0.726452,-4.02709 -1.30597,-7.88698 -4.548454,-10.19449 -2.079353,-1.82953 -4.768939,-2.49102 -7.494229,-2.30808 z m 1.542956,3.537 c 4.033574,0.0775 7.732332,4.05682 7.164762,8.17585 0.285764,4.70713 -2.621254,9.85649 -7.645801,10.3959 -4.914481,1.0256 -10.465944,-3.05218 -9.738917,-8.32078 -0.287293,-4.0435 2.350456,-8.37558 6.101171,-9.91515 1.348877,-0.29499 2.746026,-0.27693 4.118785,-0.33582 z"
       id="path5796" />
  </g>
  <g
     inkscape:groupmode="layer"
     id="layer11"
     inkscape:label="Image 3">
    <path
       style="opacity:0.40527578;fill:#3a2e2b;fill-opacity:1;stroke:#000000;stroke-width:0;stroke-linecap:round;stroke-linejoin:round"
       d="m 197.53815,187.48384 c -14.02789,-0.64506 -26.74927,13.32875 -25.87603,27.20772 -4.76307,11.27334 5.66075,9.76055 13.2964,9.23509 8.29842,-0.58226 1.79634,-12.62487 8.81845,-15.78172 9.39436,-6.62998 28.24933,-4.98139 31.73044,7.5151 2.07319,13.60962 -5.77054,25.30756 -15.911,33.64541 -14.07189,15.82114 -32.82764,26.62176 -47.00894,42.13371 -1.65846,6.20052 8.86815,4.15951 12.26015,4.87211 25.22162,0.0597 51.12506,0.97623 75.90255,-0.40298 5.34088,-16.84919 -12.60419,-10.9183 -22.94467,-11.79182 -9.96724,-0.3032 -21.52942,0.57144 -30.62314,-1.41952 17.75392,-16.99016 42.54691,-31.89612 47.5412,-57.80821 1.91152,-22.28206 -21.9219,-39.76521 -42.95589,-37.4303 -1.40984,0.008 -2.81968,0.0169 -4.22952,0.0254 z"
       id="path5801" />
  </g>
</svg>
