<?xml version="1.0" encoding="UTF-8" standalone="no"?>
<svg
   xmlns:dc="http://purl.org/dc/elements/1.1/"
   xmlns:cc="http://creativecommons.org/ns#"
   xmlns:rdf="http://www.w3.org/1999/02/22-rdf-syntax-ns#"
   xmlns:svg="http://www.w3.org/2000/svg"
   xmlns="http://www.w3.org/2000/svg"
   xmlns:sodipodi="http://sodipodi.sourceforge.net/DTD/sodipodi-0.dtd"
   xmlns:inkscape="http://www.inkscape.org/namespaces/inkscape"
   width="300mm"
   height="1500mm"
   viewBox="0 0 300 1500"
   version="1.1"
   id="svg1472"
   inkscape:version="1.0 (4035a4fb49, 2020-05-01)"
   sodipodi:docname="ranking_background_smartphone_white_img.svg">
  <defs
     id="defs1466" />
  <sodipodi:namedview
     id="base"
     pagecolor="#ffffff"
     bordercolor="#666666"
     borderopacity="1.0"
     inkscape:pageopacity="0.0"
     inkscape:pageshadow="2"
     inkscape:zoom="0.98994954"
     inkscape:cx="890.01213"
     inkscape:cy="774.63852"
     inkscape:document-units="mm"
     inkscape:current-layer="layer6"
     inkscape:document-rotation="0"
     showgrid="false"
     inkscape:window-width="1920"
     inkscape:window-height="1001"
     inkscape:window-x="-9"
     inkscape:window-y="-9"
     inkscape:window-maximized="1" />
  <metadata
     id="metadata1469">
    <rdf:RDF>
      <cc:Work
         rdf:about="">
        <dc:format>image/svg+xml</dc:format>
        <dc:type
           rdf:resource="http://purl.org/dc/dcmitype/StillImage" />
        <dc:title></dc:title>
      </cc:Work>
    </rdf:RDF>
  </metadata>
  <g
     inkscape:label="レイヤー 1"
     inkscape:groupmode="layer"
     id="layer1"
     style="display:inline" />
  <g
     inkscape:groupmode="layer"
     id="layer4"
     inkscape:label="レイヤー 3"
     style="display:inline" />
  <g
     inkscape:groupmode="layer"
     id="layer3"
     inkscape:label="レイヤー 2"
     style="display:inline" />
  <g
     inkscape:groupmode="layer"
     id="layer7"
     inkscape:label="レイヤー 5" />
  <g
     inkscape:groupmode="layer"
     id="layer5"
     inkscape:label="レイヤー 4"
     style="display:inline" />
  <g
     inkscape:groupmode="layer"
     id="layer8"
     inkscape:label="レイヤー 6" />
  <g
     inkscape:groupmode="layer"
     id="layer2"
     inkscape:label="レイヤー 7">
    <g
       transform="matrix(-0.22127725,0,0,0.22127725,288.053,160.86988)"
       id="g1847">
      <g
         inkscape:label="レイヤー 1"
         id="layer1-7" />
      <g
         inkscape:label="レイヤー 2"
         id="layer18" />
      <g
         inkscape:label="レイヤー 4"
         id="layer20">
        <path
           id="path3453"
           d="m 243.27736,79.93136 c -22.46015,-6.275125 -48.26319,8.362174 -55.10607,30.4681 -2.55796,8.46812 -3.86303,17.52586 -1.07138,26.12566 4.75122,19.85466 23.38625,35.69824 44.03267,35.88326 20.2117,-0.0869 40.68904,-13.32649 46.3229,-33.25288 7.21581,-22.56732 -5.82764,-49.637749 -28.20768,-57.581825 -1.97279,-0.607963 -3.96984,-1.134863 -5.97057,-1.641847 z"
           style="fill:#e0e8f5;fill-opacity:1;stroke-width:0.753209" />
        <path
           d="m 229.65213,75.022442 c -0.74948,3.032824 -1.55275,6.052107 -2.34351,9.074379 -0.98758,4.673194 -1.96173,9.348454 -3.04611,14.000464 -0.99951,5.168415 -2.04867,10.326115 -3.05523,15.493125 -1.21683,6.26175 -2.72262,12.4614 -4.28216,18.64503 -1.25431,4.92218 -2.56544,9.82962 -3.86253,14.74055 -1.07016,3.43856 -1.69653,6.97407 -2.34455,10.50782 -0.50936,2.22428 -0.87932,4.45418 -1.13383,6.71944 -0.14038,1.28291 -0.39535,2.54825 -0.6604,3.80993 0,0 11.21538,0.48746 11.21538,0.48746 v 0 c 0.26325,-1.28634 0.52254,-2.57574 0.66292,-3.88259 0.25166,-2.24729 0.60393,-4.46031 1.10059,-6.66915 0.61588,-3.51365 1.2203,-7.02859 2.26542,-10.44794 1.30023,-4.91093 2.59076,-9.82448 3.82182,-14.75332 1.53453,-6.20292 3.02787,-12.41781 4.27685,-18.68571 1.00795,-5.16103 2.1249,-10.29915 3.1131,-15.464005 1.06214,-4.65002 2.01223,-9.323612 3.06716,-13.975011 0.80444,-3.026263 1.6032,-6.054362 2.44869,-9.069475 0,0 -11.24516,-0.5314 -11.24516,-0.5314 z"
           id="path3455"
           style="fill:#c5d1eb;fill-opacity:1;stroke-width:0.263622" />
        <path
           d="m 226.27107,75.621604 c -1.10143,2.797648 -1.96088,5.684095 -2.80127,8.568583 -0.88707,3.087685 -1.73906,6.185245 -2.55802,9.291638 -0.82182,3.19021 -1.67963,6.37092 -2.51894,9.556455 -0.8557,3.25922 -1.70622,6.51979 -2.57669,9.7751 -0.81226,2.99659 -1.58085,6.00471 -2.37561,9.00598 -1.01767,3.84137 -2.01012,7.68933 -3.02024,11.53268 -1.19327,4.52952 -2.38941,9.05823 -3.59777,13.58377 -1.04346,3.93902 -2.08404,7.87874 -3.12655,11.81801 -0.68942,2.59461 -1.39987,5.18354 -2.09009,7.77792 -0.34637,1.29981 -0.173,0.6434 -0.52038,1.96943 0,0 11.20811,0.5296 11.20811,0.5296 v 0 c 0.35306,-1.32499 0.1797,-0.66846 0.52009,-1.96947 0.68136,-2.59176 1.33988,-5.18949 2.01956,-7.78172 1.03648,-3.93984 2.07681,-7.87865 3.11618,-11.81768 1.1865,-4.53002 2.38233,-9.05757 3.57815,-13.58508 1.02508,-3.84331 2.06025,-7.68385 3.07135,-11.5309 0.78897,-3.00306 1.60525,-5.9989 2.3816,-9.00534 0.85129,-3.26088 1.71741,-6.51787 2.58186,-9.77526 0.84121,-3.18489 1.6583,-6.376155 2.52072,-9.555385 0.82744,-3.094992 1.6334,-6.196081 2.53045,-9.271918 0.84942,-2.853842 1.68801,-5.727123 2.89167,-8.456087 0,0 -11.23774,-0.661262 -11.23774,-0.661262 z"
           id="path3457"
           style="fill:#c5d1eb;fill-opacity:1;stroke-width:0.263622" />
        <path
           d="m 245.03038,78.364253 c -0.87356,3.386107 -1.77123,6.765947 -2.66424,10.146962 -1.10533,4.19656 -2.21354,8.3924 -3.32175,12.588205 -1.08378,4.09166 -2.1647,8.18413 -3.23984,12.27806 -1.10336,4.18917 -2.21537,8.37598 -3.32352,12.56383 -0.73605,3.59446 -1.39752,7.20064 -2.20749,10.78 -1.11147,4.72783 -2.34703,9.42531 -3.58088,14.12231 -1.12509,3.89755 -2.04317,7.83334 -2.77864,11.82065 -0.41716,2.33092 -0.90085,4.64877 -1.44862,6.95229 -0.37468,1.61382 -0.87935,3.19388 -1.14854,4.82941 0,0 3.73899,0.15197 3.73899,0.15197 v 0 c 0.27146,-1.62917 0.77465,-3.20385 1.149,-4.81166 0.54228,-2.30836 1.01661,-4.6316 1.43124,-6.96643 0.7231,-3.98178 1.63993,-7.91029 2.75675,-11.80201 1.23171,-4.70122 2.47296,-9.40074 3.59232,-14.13035 0.81383,-3.57576 1.47839,-7.1781 2.2089,-10.77088 1.10317,-4.18844 2.20732,-8.37667 3.3134,-12.56439 1.08578,-4.09144 2.1658,-8.18439 3.24581,-12.27735 1.10828,-4.196145 2.21658,-8.392275 3.32776,-12.587655 0.89361,-3.383326 1.78434,-6.767416 2.6956,-10.145989 0,0 -3.74624,-0.177038 -3.74624,-0.177038 z"
           id="path3459"
           style="fill:#c5d1eb;fill-opacity:1;stroke-width:0.263622" />
      </g>
      <g
         inkscape:label="レイヤー 3"
         id="layer19">
        <path
           id="path3450"
           d="m 125.92492,227.58222 c -1.44483,-0.62525 -4.681,-3.48302 -5.56441,-4.91362 -1.17484,-1.90263 -1.49763,-4.07439 -0.93019,-6.2591 0.35573,-1.36629 0.66897,-1.91414 1.26679,-2.21028 0.43719,-0.21665 14.79452,-11.47713 31.90506,-25.02367 l 31.11003,-24.63001 -0.63584,-0.75245 c -2.94124,-3.48093 -6.80051,-10.3836 -8.98864,-16.07703 -1.62134,-4.21859 -3.48593,-12.91732 -3.7998,-17.72693 -1.20822,-18.5125 6.70401,-38.183855 20.26197,-50.375105 10.48345,-9.426661 23.33055,-14.900464 37.17018,-15.837157 13.39201,-0.906421 27.73246,2.873605 39.06562,10.297321 11.43543,7.490656 20.06831,18.811136 24.51835,32.151381 5.78928,17.35503 2.97101,38.25614 -7.25575,53.81029 -2.65016,4.03074 -8.55044,10.65054 -12.19645,13.68379 -4.03175,3.35417 -12.37016,8.21071 -17.29972,10.07588 -4.79726,1.81512 -12.99102,3.54775 -18.36918,3.8843 -6.8701,0.42984 -11.40261,-0.0957 -19.68143,-2.28235 -8.22266,-2.17179 -12.54108,-3.99398 -18.06857,-7.62442 -1.77938,-1.16871 -3.38626,-2.07896 -3.57079,-2.02281 -0.18453,0.0562 -3.16443,2.50063 -6.62191,5.43213 -3.45751,2.93154 -13.08191,11.06068 -21.38765,18.06482 -8.30568,7.0041 -19.41357,16.381 -24.68414,20.83756 -5.2706,4.45651 -9.7178,8.06716 -9.88271,8.02361 -0.16486,-0.0432 -0.35731,0.138 -0.42746,0.40356 -0.21399,0.81016 -2.87807,0.39282 -5.93364,-0.92969 z m 102.33733,-55.05383 c 12.22536,1.11961 25.58952,-3.25086 35.10505,-11.48043 7.60075,-6.57358 12.21321,-13.8534 14.76149,-23.29805 1.53045,-5.67794 1.88842,-8.71283 1.6324,-13.8965 -0.65715,-13.30658 -6.41293,-25.393925 -16.20362,-34.028617 -5.32689,-4.69792 -10.25086,-7.456393 -17.10135,-9.580513 -21.9815,-6.81563 -45.63109,3.337591 -56.44664,24.23367 -2.36858,4.57626 -4.57338,12.87308 -4.78607,18.00411 -0.4889,11.88375 3.19051,23.19579 10.56809,32.49088 5.39389,6.79587 12.69751,12.03066 21.41758,15.35079 2.08024,0.7921 7.55529,1.88397 11.05145,2.20422 z"
           style="fill:#000000;stroke-width:0.351497" />
        <g
           transform="matrix(-1.1317679,0,0,1.1317679,213.35267,42.983443)"
           id="g4215">
          <g
             style="mix-blend-mode:multiply"
             inkscape:label="いろ"
             id="layer9">
            <path
               transform="scale(0.26458333)"
               id="path2051"
               d="m 516.5771,26.310024 c -25.65544,1.315249 -46.27889,23.55023 -53.4403,47.03683 -4.02034,10.616446 1.77913,21.037266 1.57924,31.688056 -33.46111,0.29247 -66.9686,-8.907419 -100.6562,-6.383687 -15.97314,2.027107 -31.20048,7.495847 -45.79748,13.875317 -6.83943,1.70795 -2.99683,-9.887 -4.73402,-14.30102 -0.0965,-14.539953 -3.00448,-29.154653 -11.71408,-41.114714 -14.57439,-24.837758 -46.60665,-32.387508 -73.40681,-28.685827 -24.42224,4.128109 -44.92284,22.642379 -55.58036,44.430804 -5.02543,13.945773 -5.53894,29.613457 -3.05245,44.084817 3.14242,6.87726 9.79083,12.02049 12.92411,18.66072 -20.823,20.88921 -41.21437,42.40444 -57.94085,66.83036 -23.5309,31.49407 -36.330016,70.74828 -37.087056,109.94977 2.572082,38.16234 16.787626,77.36378 46.637836,102.64788 26.43391,22.66312 55.49889,42.60825 86.5921,58.31397 32.90098,16.0107 70.49395,12.97578 105.70979,16.70835 6.09807,0.94943 3.19507,10.2327 0.86217,13.54633 -15.22664,25.429 -27.4331,53.69235 -33.84765,82.87667 -1.03523,17.86838 -2.16458,36.13075 0.5413,53.86997 1.4639,8.23594 9.62084,16.00233 18.14731,11.39788 9.4473,-6.13808 19.41257,6.9498 28.75,1.99498 2.04387,-2.75316 1.34851,-7.62425 6.55691,-6.7299 8.66715,-1.96335 15.97155,9.88025 23.57702,4.55914 4.93087,-6.57702 9.44003,-17.3595 19.81584,-14.70144 6.10174,-1.29773 13.07947,8.0891 17.1903,0.0753 1.79127,-5.89288 -6.76597,-10.23165 -2.1317,-16.1635 10.3061,-20.00782 23.42204,-38.85875 28.75,-61.09932 4.73796,-15.12569 7.9779,-30.65926 10.59152,-46.27792 3.10417,0.61433 9.45457,-0.5591 7.76785,4.79633 -0.82838,36.18367 -17.22405,69.60861 -31.18861,102.38281 -0.34914,8.0972 9.4845,6.2302 12.49163,1.19419 14.85581,-16.26047 22.6358,-37.38057 34.29687,-55.65847 6.63611,-3.9483 7.35988,1.59208 5.33483,6.89731 -7.46086,25.67357 -22.91526,48.63846 -41.65737,67.80413 -4.14452,4.74086 -15.0489,8.61874 -10.55246,16.46206 6.69357,5.70626 17.8374,1.88137 24.67356,5.32366 2.07234,7.64968 -6.14528,9.67798 -11.9029,8.91461 -10.00275,-3.02604 -14.27068,5.49443 -13.28422,14.20431 -0.44373,13.02952 -5.12946,25.33232 -7.34358,37.9525 2.47087,7.9167 13.22628,7.30805 19.774,9.88003 19.10787,3.93633 39.03737,3.77512 58.3817,2.00613 13.54467,-5.09921 22.02304,-18.24841 31.76897,-28.33147 22.10285,-26.43553 31.07865,-62.58854 26.14285,-96.49224 -3.57767,-48.78006 -16.61938,-96.03729 -26.54464,-143.71982 -1.91488,-5.5005 7.16569,-4.75817 10.17956,-7.01164 27.16371,-7.94406 53.88308,-20.02533 73.39746,-41.158 21.34397,-22.56346 41.4419,-47.42349 53.61761,-76.22691 11.33789,-32.0461 16.30889,-68.8048 2.09946,-100.81829 -12.29167,-29.88763 -26.86807,-60.13829 -50.07255,-83.14453 -8.94578,-9.06612 -22.19088,-12.38572 -31.01004,-21.25837 0.32052,-11.01675 10.50667,-19.23926 12.6032,-30.05923 7.76513,-25.350972 -8.73281,-50.952364 -29.41568,-64.533306 -14.162,-9.631596 -31.02256,-16.699387 -48.39399,-16.49563 z m 10.79799,23.858817 c 21.10241,0.195683 37.58795,20.952132 34.5452,41.498326 0.14357,10.452603 -5.90533,22.727423 -17.99108,21.902903 -10.25927,1.18743 -20.573,1.7777 -30.87332,2.47489 -10.82302,-8.71296 -20.18055,-21.823893 -16.8471,-36.453686 -0.38349,-16.26006 15.18195,-30.37822 31.1663,-29.422433 z M 241.70544,61.148193 c 13.31336,-0.462283 28.24353,9.003777 27.57683,23.612603 0.13389,8.343978 2.60449,18.003354 0.42263,25.561914 -8.3231,7.23269 -16.54591,17.46755 -28.9816,15.37905 -14.54548,1.68281 -28.6963,-8.67872 -32.65904,-22.4135 -2.7819,-15.668962 2.62733,-35.208076 19.55357,-40.184152 4.5115,-1.565152 9.32896,-2.106384 14.08761,-1.955915 z M 449.52353,211.12029 c 10.43828,3.64699 10.74771,21.66019 -1.34487,23.6663 -17.07586,6.22017 -35.02526,2.08236 -51.89453,-1.9057 -21.57503,-3.19316 -43.47309,-0.17606 -64.28014,5.76451 -10.45365,1.32956 -22.4563,3.79619 -32.05915,-1.39508 -6.87533,-8.76524 1.68606,-25.18334 13.10826,-19.52567 -0.57189,5.3869 -1.62323,16.24615 7.05357,14.55078 16.67844,-4.9027 32.8355,-12.38894 50.73376,-10.3005 17.86773,-1.03851 34.95548,2.65413 52.49447,5.73297 7.73447,0.97298 21.18563,2.39482 22.25169,-8.38727 -0.0969,-3.3669 0.19921,-6.86677 3.93694,-8.20034 z"
               style="fill:#c8f689;fill-opacity:1;stroke-width:1.42857" />
            <path
               transform="scale(0.26458333)"
               id="path2053"
               d="m 275.09888,604.62718 c -2.86718,0.85261 -3.53684,3.94411 -4.14865,6.48776 -2.03871,7.81053 -4.70322,15.61412 -4.95209,23.74875 -0.13194,3.82971 1.73708,8.60009 5.9729,9.23316 3.73708,0.5782 6.50444,-2.83454 7.43628,-6.08136 2.83743,-9.01456 2.10157,-18.6316 1.87524,-27.94008 0.34996,-3.13158 -2.50191,-6.23841 -5.70787,-5.49755 l -0.2512,0.026 z"
               style="fill:#c8f689;fill-opacity:1;stroke-width:0.252538" />
            <path
               transform="scale(0.26458333)"
               id="path2055"
               d="m 257.14303,650.32524 c -3.32283,0.97 -3.83613,4.72219 -4.9901,7.47503 -0.3786,1.52015 -1.48383,2.97796 -3.20605,2.90271 -5.22445,0.59245 -10.88554,0.72518 -15.23564,4.10276 -4.86622,3.4732 -7.32643,9.56487 -7.01977,15.44675 -0.0631,8.41022 3.01931,16.43946 6.28093,24.05595 3.52718,7.49963 7.5866,15.40468 14.81439,19.96461 5.41476,3.4815 12.98759,2.80157 17.81366,-1.42407 6.97818,-5.70719 11.16592,-13.99371 14.72839,-22.09702 4.28851,-10.30661 6.77635,-21.44006 6.5045,-32.63658 -0.0747,-3.61957 0.17867,-8.0747 -3.17578,-10.40981 -2.47133,-1.79426 -5.70186,-0.55327 -7.65753,1.40721 -3.18309,2.93708 -9.03903,1.93754 -10.79699,-2.12635 -1.57391,-2.64451 -2.75084,-6.42471 -6.32579,-6.81015 -0.57807,0.0497 -1.15615,0.0993 -1.73422,0.14896 z"
               style="fill:#c8f689;fill-opacity:1;stroke-width:0.252538" />
            <path
               transform="scale(0.26458333)"
               id="path2057"
               d="m 330.31793,656.43943 c -3.88837,0.0369 -7.38978,2.03 -10.33286,4.4056 -5.45254,3.35244 -12.04446,2.01758 -18.02195,3.23959 -4.14922,0.95915 -6.39301,5.2573 -6.40026,9.26154 -0.18009,11.4574 -4.16675,22.38329 -5.98474,33.61033 -0.4478,3.53197 -1.61231,7.88299 1.19145,10.75648 3.15683,2.71349 7.64122,2.56749 11.55066,3.07436 11.25937,0.92339 22.57552,0.57368 33.84948,0.15488 4.36354,-0.52109 9.3001,-0.22365 12.93863,-3.09458 3.16689,-2.65072 2.76701,-7.1377 2.34535,-10.82363 -1.55908,-8.71377 -4.55177,-17.2244 -6.31641,-25.7875 -1.11642,-4.5298 -1.64819,-9.16205 -2.14657,-13.787 -0.86577,-6.13935 -6.35144,-11.24752 -12.67278,-11.01007 z"
               style="fill:#c8f689;fill-opacity:1;stroke-width:0.252538" />
            <path
               transform="scale(0.26458333)"
               id="path2059"
               d="m 384.83016,656.08528 c -4.41732,0.24483 -6.77321,4.60774 -8.58134,8.08264 -1.55758,3.50892 -5.06066,6.70166 -9.16243,5.97071 -3.68435,-0.70327 -6.97753,-3.52347 -10.92595,-2.73132 -3.06975,0.2345 -4.75908,3.6271 -4.07343,6.43209 1.25132,7.2136 3.94643,14.09101 6.54924,20.90575 1.54719,3.37532 2.62339,7.16936 5.24903,9.89503 1.44321,0.66538 0.84661,2.5122 1.45357,3.75946 1.77552,5.90674 6.22398,10.8657 11.53438,13.8748 4.56952,2.69566 10.15527,1.75454 14.77826,-0.2505 8.33629,-3.19454 14.25288,-10.73309 17.1114,-18.99876 2.44885,-6.7847 3.65134,-13.99258 3.54149,-21.20514 -0.0156,-5.38952 0.37187,-10.80467 -0.0733,-16.17925 -0.40553,-3.07359 -3.77168,-4.96285 -6.6676,-4.09733 -4.21213,0.53845 -8.45992,1.69477 -12.70434,1.47084 -1.54544,-3.29722 -3.83578,-7.14284 -8.02894,-6.92902 z"
               style="fill:#c8f689;fill-opacity:1;stroke-width:0.252538" />
          </g>
          <g
             style="opacity:0.925676"
             inkscape:label="しろ"
             id="layer10">
            <path
               d="m 84.052054,135.89003 c 0.07141,-0.0455 0.142939,-0.0908 0.214234,-0.13643 0.226837,-0.14527 0.918543,-0.56265 0.683246,-0.43152 -2.11945,1.18118 -0.535723,0.32605 -0.08012,0.10536 0.832789,-0.36896 1.734741,-0.49013 2.634562,-0.5541 0.848405,-0.0934 1.698019,-0.15553 2.550906,-0.18653 1.419011,-0.0818 2.83391,0.046 4.233344,0.27417 1.649368,0.28956 3.230467,0.83295 4.780931,1.4512 1.265833,0.59847 2.542243,1.22404 3.660643,2.07753 0.21519,0.16421 0.41819,0.34381 0.62729,0.51571 1.35972,1.24926 2.31405,2.82493 3.18494,4.43285 0.79575,1.57082 1.45155,3.20364 2.03036,4.86489 0.4933,1.46039 0.83722,2.95768 1.11634,4.47113 0.25276,1.37288 0.30448,2.76925 0.33738,4.16126 0.008,0.87599 0.006,0.45314 0.005,1.26855 0,0 1.43677,-0.73383 1.43677,-0.73383 v 0 c -0.0167,-0.80892 -0.008,-0.38898 -0.0275,-1.25983 -0.0352,-1.40035 -0.0696,-2.80781 -0.34377,-4.18651 -0.28366,-1.51952 -0.65781,-3.01621 -1.1415,-4.4855 -0.59208,-1.66392 -1.26446,-3.29881 -2.05669,-4.87847 -0.87876,-1.62526 -1.85594,-3.20559 -3.20298,-4.49157 -0.20932,-0.17709 -0.41067,-0.36407 -0.62797,-0.53127 -1.12582,-0.8663 -2.42925,-1.47775 -3.69997,-2.09347 -1.544337,-0.64839 -3.13338,-1.18358 -4.784044,-1.49117 -1.392356,-0.24389 -2.80481,-0.38473 -4.219868,-0.32283 -0.849088,0.0208 -1.696469,0.0572 -2.53918,0.17071 -0.91236,0.0561 -1.828321,0.16782 -2.682663,0.51344 -1.274117,0.59133 -2.464425,1.34465 -3.658518,2.08136 0,0 1.568524,-0.60513 1.568524,-0.60513 z"
               id="path2064"
               style="fill:#ffffff;fill-opacity:1;stroke-width:0.264583" />
            <path
               transform="scale(0.26458333)"
               id="path2066"
               d="m 341.84887,504.64034 c -5.48175,0.60891 -11.78646,-0.78385 -16.55965,2.20837 -13.25085,19.32136 -20.95115,41.83468 -28.0288,64.00257 -4.39946,13.44008 -6.49651,27.52809 -5.92497,41.66991 0.46811,12.41241 -0.32448,25.99399 6.25839,37.05079 3.7957,5.76053 11.78668,4.9799 16.95871,1.6755 8.59635,-3.28259 16.51754,6.66103 25.01395,3.18081 3.05842,-1.12463 3.08601,-5.07858 5.28739,-6.83036 7.95836,-2.70724 14.41125,4.0817 21.41881,6.37417 5.8885,-0.0255 8.03849,-6.94379 11.49972,-10.63756 2.37352,-3.77201 5.9844,-7.27759 10.85372,-6.43028 3.75001,-0.0244 8.29061,-0.28886 10.60275,3.28157 4.56755,4.06482 11.67946,-1.43429 9.49079,-6.9336 -0.64015,-3.74837 -5.74706,-6.5289 -3.06361,-10.5971 3.5937,-9.37886 10.23103,-17.26926 14.52961,-26.18656 0.5755,-12.51717 -1.83474,-25.26614 -5.70707,-37.21885 -6.02426,-16.90502 -14.10097,-35.28456 -30.89565,-43.95368 -12.7009,-7.12895 -27.15438,-10.89905 -41.73409,-10.6557 z"
               style="fill:#ffffff;fill-opacity:1;stroke-width:0.714286" />
          </g>
          <g
             id="layer1-9"
             inkscape:label="レイヤー 1">
            <path
               id="path2046"
               d="m 112.99346,197.49131 c -1.86461,-0.47634 -4.24913,-1.21319 -5.29895,-1.63743 -1.04982,-0.42426 -3.57778,-0.77139 -5.61769,-0.77139 -2.219155,0 -4.357706,-0.42509 -5.324099,-1.05829 -1.349021,-0.88391 -2.096765,-0.92861 -4.537885,-0.27129 -1.656719,0.4461 -6.013026,0.69078 -10.05717,0.56483 -5.061027,-0.1576 -7.606093,0.0418 -8.757292,0.68621 -2.241409,1.25464 -8.44166,0.66396 -10.779526,-1.02693 -1.010071,-0.73054 -2.751841,-3.14533 -3.870606,-5.3662 -1.874609,-3.7213 -2.034122,-4.59624 -2.034122,-11.15738 v -7.11942 l 1.814989,-0.20975 c 0.998248,-0.11537 2.179803,-0.64932 2.625677,-1.18658 0.445874,-0.53724 1.330368,-0.97681 1.965549,-0.97681 2.10849,0 3.910199,-2.97937 5.740396,-9.49256 2.156547,-7.67457 4.628798,-13.17478 8.86584,-19.72459 1.72158,-2.66129 3.037631,-4.90162 2.92455,-4.97851 -1.005365,-0.68375 -6.402467,-1.74046 -8.88926,-1.74046 -1.706096,0 -3.293655,-0.3101 -3.527891,-0.68911 -0.234245,-0.379 -0.714316,-0.51083 -1.066841,-0.29297 -1.145638,0.70804 -8.317843,-1.16107 -12.487132,-3.25423 -7.025861,-3.52727 -16.92723,-10.44514 -22.634958,-15.81457 -4.234988,-3.98397 -6.040098,-6.28188 -7.870321,-10.01893 -2.723154,-5.5603 -5.066218,-14.24919 -5.081425,-18.8437 -0.02392,-7.22008 3.552338,-20.42369 7.320337,-27.026998 2.168474,-3.800198 11.493953,-15.947795 14.2355,-18.543522 2.009599,-1.902705 2.024676,-1.968313 1.010192,-4.396325 -1.527878,-3.656714 -0.927766,-13.078288 1.080235,-16.95958 2.167264,-4.189112 6.983028,-8.7426315 11.370474,-10.7512685 3.489049,-1.597342 4.318052,-1.701333 11.32089,-1.420109 8.319209,0.334089 11.342798,1.379504 15.228654,5.26537 2.435645,2.4356395 5.203677,8.0982335 5.768591,11.8008585 0.220411,1.444663 0.492601,2.718506 0.604844,2.83076 0.112261,0.112254 2.032292,-0.225903 4.266757,-0.751459 4.747449,-1.116629 10.132113,-1.228927 16.476513,-0.343622 2.49543,0.348216 5.98644,0.800057 7.75782,1.00409 l 3.2207,0.370968 v -3.444267 c 0,-4.510256 1.5119,-7.550823 6.08394,-12.2353205 4.46106,-4.570792 7.5424,-5.660445 14.40524,-5.0941 8.30164,0.68508 16.74604,5.910567 19.87006,12.2958205 2.51793,5.146476 2.99167,11.959426 1.12502,16.179302 l -1.40773,3.182404 2.55283,1.302353 c 6.16212,3.14368 13.72702,14.791382 18.34578,28.247046 2.42579,7.066949 2.55014,10.086189 0.82114,19.938279 -1.36692,7.78894 -3.95764,13.21878 -10.19058,21.35827 -6.76335,8.83214 -16.17942,16.58803 -20.16015,16.60564 -0.79168,0.003 -2.87444,0.64114 -4.62838,1.41699 -2.44821,1.08294 -3.08696,1.67359 -2.74979,2.54265 1.07657,2.77485 3.2068,13.04423 4.75558,22.92552 2.51749,16.06159 2.12824,27.13576 -1.19546,34.0111 -1.78874,3.7002 -10.11024,13.09502 -12.55328,14.17247 -2.45848,1.08424 -16.46068,1.01485 -20.83756,-0.10331 z m 17.97821,-4.14782 c 0.56497,-0.15694 3.06542,-2.53577 5.55656,-5.28631 4.6494,-5.1335 6.31571,-8.58465 8.05051,-16.67377 1.17375,-5.47303 -1.76206,-26.71522 -5.59582,-40.48876 -1.15911,-4.16432 -1.93886,-8.01087 -1.73278,-8.54787 0.20606,-0.53702 2.38185,-1.48058 4.83509,-2.09681 6.75718,-1.69735 11.71997,-4.34845 16.48572,-8.80656 5.43024,-5.07973 11.69274,-13.35059 14.39338,-19.00924 2.53936,-5.32073 4.36098,-14.98618 3.71998,-19.73794 -0.99533,-7.37833 -6.15254,-18.647518 -12.23952,-26.744991 -2.38639,-3.174599 -4.00546,-4.529906 -7.41926,-6.210505 -5.11954,-2.520341 -5.39225,-3.463338 -2.3326,-8.065936 3.54606,-5.334321 2.51363,-12.001287 -2.62501,-16.951006 -6.14235,-5.9165355 -14.22778,-8.2536615 -19.82386,-5.7301735 -5.38469,2.4281545 -10.56242,11.1568575 -8.8489,14.9176205 0.43228,0.948752 0.78596,2.473443 0.78596,3.388201 0,1.472857 -0.29394,1.663197 -2.56843,1.663197 -1.41263,0 -6.21823,-0.45524 -10.67912,-1.011642 -4.46089,-0.556404 -9.87478,-1.014082 -12.030839,-1.017061 -3.716317,-0.0052 -11.59548,2.079216 -12.996979,3.438218 -0.864269,0.838059 -3.741436,0.798106 -3.847877,-0.05344 -0.04655,-0.372921 -0.124506,-2.737586 -0.173097,-5.254811 -0.07262,-3.764125 -0.461357,-5.238924 -2.189242,-8.305991 -2.789577,-4.951648 -6.1471,-7.2261915 -12.012261,-8.1376635 -7.661662,-1.190655 -12.636206,0.535167 -17.700645,6.1409015 -3.4314,3.798147 -4.454172,6.524574 -4.454172,11.873552 0,4.121297 0.16953,4.654393 2.034113,6.396176 2.706764,2.52849 2.566394,3.696759 -0.704195,5.861132 -3.275175,2.16741 -14.260577,15.983284 -16.959266,21.328956 -2.795847,5.538116 -4.50577,11.061256 -5.357691,17.305626 -0.662736,4.85773 -0.585345,6.25438 0.65518,11.8236 2.051334,9.20928 5.128627,14.6182 11.457503,20.13868 6.070253,5.29487 16.872299,12.44476 23.095633,15.28701 4.851567,2.21575 11.733094,3.28978 22.005001,3.43441 5.950074,0.0838 6.061721,0.11602 6.535367,1.88673 0.484622,1.81171 0.116242,2.79303 -2.36815,6.30854 -2.126142,3.00857 -6.400464,14.30959 -7.243715,19.15188 -0.976799,5.6092 -0.411609,14.24236 1.026564,15.68053 0.885056,0.88505 1.293081,0.9072 2.713051,0.14727 1.411965,-0.75567 2.088094,-0.72773 4.356979,0.18011 2.566144,1.02676 2.701048,1.01574 3.031484,-0.24787 0.43387,-1.65913 3.575644,-1.78732 5.790092,-0.23625 0.85294,0.59741 1.629872,0.97881 1.726528,0.84755 0.09665,-0.13127 0.860488,-1.23031 1.697418,-2.4423 1.271176,-1.84083 1.951316,-2.20363 4.131186,-2.20363 1.47413,0 2.74119,0.36875 2.91219,0.84755 0.16648,0.46615 0.55296,0.61362 0.85884,0.32771 0.30589,-0.2859 0.19511,-0.88089 -0.24619,-1.32217 -1.35438,-1.35439 -0.92222,-2.83702 2.24704,-7.70908 3.30578,-5.0819 5.98534,-12.50289 7.22503,-20.00951 l 0.78456,-4.75067 2.09846,0.20463 c 2.07712,0.20254 2.09659,0.24035 1.9132,3.7175 -0.28769,5.4547 -2.59168,13.57421 -5.57412,19.64372 -1.49386,3.04015 -2.70342,5.93877 -2.68788,6.44138 0.0595,1.92767 4.97106,-4.77912 7.64788,-10.44334 2.53175,-5.35721 2.98614,-5.93285 4.68325,-5.93285 1.61003,0 1.87948,0.27437 1.87948,1.91382 0,4.85157 -9.72708,20.26179 -13.55664,21.47725 -0.76685,0.24338 -1.13985,0.80378 -0.91866,1.38018 0.26234,0.68364 1.30408,0.92386 3.52511,0.81284 2.83099,-0.1415 3.17534,0.002 3.37428,1.40532 0.32367,2.28317 -1.06098,3.52241 -3.93575,3.52241 h -2.53109 l -0.40977,4.38814 c -0.22537,2.41348 -0.87598,5.28968 -1.44577,6.39155 -1.02793,1.98781 -1.0189,2.009 1.15927,2.71988 5.4442,1.77678 14.3771,2.26782 18.81741,1.03438 z M 79.620261,64.207103 c -3.076637,-1.237989 -2.48592,-7.012866 0.801767,-7.838023 2.786728,-0.699425 3.980587,0.111422 3.524161,2.393564 l -0.395893,1.979476 3.478367,-1.032974 c 1.913106,-0.568124 4.209755,-1.311032 5.103653,-1.650888 2.496585,-0.949203 11.611644,-0.718586 15.775844,0.399128 2.05107,0.550528 4.85408,1.004584 6.2289,1.009016 2.32512,0.0077 2.51453,-0.145468 2.71217,-2.190037 0.41221,-4.264518 5.29776,-2.525119 5.29776,1.886168 0,1.616136 -0.46681,2.495945 -1.7813,3.357233 -2.63624,1.727326 -8.9322,2.105517 -12.84679,0.771673 -4.4202,-1.506103 -11.417266,-1.404328 -16.670857,0.242502 -4.545924,1.425001 -8.735117,1.676169 -11.227782,0.673162 z M 58.168006,33.100116 c -4.074671,-2.686376 -5.285991,-6.3772 -3.822282,-11.64627 1.804773,-6.49682 10.524857,-8.743063 15.765019,-4.060976 1.958907,1.75028 2.170899,2.341373 2.419842,6.747135 l 0.272854,4.828793 -2.709078,2.709082 c -2.489072,2.489073 -3.004643,2.708717 -6.348565,2.704611 -2.421499,-0.003 -4.288147,-0.432128 -5.57779,-1.282375 z m 3.201963,-12.423514 c -0.214306,-0.346759 -1.110855,0.04707 -1.992328,0.875161 -0.881462,0.828097 -1.427326,1.789344 -1.213011,2.136104 0.214306,0.346761 1.110854,-0.04707 1.992326,-0.875159 0.881464,-0.828098 1.427328,-1.789346 1.213013,-2.136106 z m 71.657371,8.998009 c -7.49019,-8.018266 -0.33977,-20.4376975 9.73968,-16.916676 4.09213,1.429493 7.17963,5.824434 7.17963,10.219944 0,3.547867 -1.48841,6.973185 -3.35431,7.719404 -0.57913,0.231602 -3.40768,0.589207 -6.28566,0.794676 -5.21747,0.372496 -5.23865,0.367208 -7.27934,-1.817348 z m 5.39262,-12.356849 c 0,-1.028279 -1.80965,-0.575639 -3.01251,0.753507 -1.81554,2.006141 -0.58492,3.185954 1.38894,1.331605 0.89296,-0.838895 1.62357,-1.777196 1.62357,-2.085112 z M 71.394013,188.10783 c 2.118647,-3.3718 3.28115,-7.24852 3.286384,-10.9595 0.0025,-2.08309 -0.177027,-2.49745 -0.809858,-1.8646 -1.319065,1.31904 -3.809727,0.95415 -4.687951,-0.68683 l -0.803027,-1.50047 -0.555061,1.50047 c -0.387257,1.04686 -1.125355,1.50699 -2.441517,1.52203 -4.474086,0.0512 -5.399331,3.46499 -2.633889,9.71817 2.656911,6.00773 5.781146,6.82837 8.644919,2.27073 z m 33.044697,1.12271 c 2.19494,-1.53739 3.46945,-4.9683 3.46945,-9.33955 v -3.70837 l -2.36113,0.38316 c -1.79683,0.29159 -2.46236,0.11935 -2.7847,-0.72067 -0.59383,-1.54748 -1.29323,-1.37526 -2.16245,0.53247 -0.910106,1.99747 -3.014443,2.76113 -4.87084,1.76761 -0.759927,-0.4067 -1.381688,-0.5267 -1.381688,-0.26667 0,1.30595 2.355707,7.71141 2.835984,7.71141 0.304823,0 0.554214,0.38979 0.554214,0.86619 0,1.62078 2.105996,3.88009 3.6168,3.88009 0.82818,0 2.21614,-0.49756 3.08436,-1.10567 z m -12.98223,-0.12561 c 0.650698,-0.4133 0.536875,-1.58667 -0.508533,-5.24227 -0.740783,-2.59039 -1.346879,-5.52927 -1.346879,-6.53088 0,-2.29121 -2.256425,-3.2131 -4.000708,-1.63454 -0.655257,0.59299 -2.311536,1.07817 -3.680634,1.07817 -2.27216,0 -2.489264,0.16498 -2.489264,1.89167 0,1.04041 -0.460286,3.65883 -1.02286,5.8187 -0.562573,2.15987 -0.849684,4.20724 -0.638021,4.54971 0.467644,0.75667 12.508731,0.81775 13.686899,0.0695 z m -18.199386,-24.87326 -0.05026,-3.3902 -0.946039,3.3902 c -0.520321,1.8646 -0.781741,3.83932 -0.580941,4.38825 0.685257,1.87326 1.63102,-0.75812 1.577221,-4.38825 z"
               style="fill:#000000;stroke-width:0.678041" />
          </g>
          <g
             style="display:inline"
             inkscape:label="せんか"
             id="layer11">
            <path
               transform="scale(0.26458333)"
               id="path2071"
               d="m 511.54322,11.994747 c -15.15112,-0.787841 -28.82591,7.58706 -38.83283,18.327738 -11.96474,12.071301 -24.60027,26.529426 -24.40306,44.595884 -0.29842,5.161478 -0.40468,10.331935 -0.61681,15.49736 -35.47984,-4.491087 -71.98922,-11.759267 -107.42008,-2.88689 -3.45814,-0.419655 -10.26806,4.600209 -11.11697,-0.3527 -4.50794,-25.993646 -16.87747,-53.590358 -41.73588,-65.750671 -16.48955,-7.635925 -35.31242,-6.671737 -53.05468,-7.422223 -11.61306,-0.433097 -23.50785,1.14038 -33.50079,7.461682 -18.34958,10.933639 -35.68581,26.54182 -42.98586,47.12745 -5.83392,20.510351 -6.85447,43.142953 0.78832,63.322463 0.52405,4.40598 -4.7183,7.38597 -6.91273,10.83242 -20.91798,23.40515 -40.45445,48.3731 -55.918197,75.7504 -13.865508,29.29015 -22.645362,61.32374 -24.393382,93.73336 -0.006,22.00983 7.37371,43.30741 15.0201,63.68697 5.825282,16.42181 16.475959,30.43991 28.897859,42.45402 25.1801,25.10581 54.97896,45.21958 85.86848,62.60994 15.46598,7.45248 31.90295,14.70032 49.28085,15.47959 6.62111,-1.40426 12.00014,4.3715 18.6977,3.28497 11.46287,0.75759 23.31745,2.17873 34.02753,6.61137 -12.88667,23.10557 -28.45082,45.23825 -36.83502,70.69467 -6.73443,17.13107 -9.44301,36.17814 -19.70787,51.74687 -4.22184,5.91283 -12.56355,4.95942 -17.61848,9.97328 -4.47143,3.22571 -10.1532,3.26516 -15.22529,3.97156 -0.3018,17.73796 -1.14564,35.85565 1.01213,53.58938 3.75176,13.85793 10.91947,27.23484 21.28423,37.25726 11.11734,7.04925 25.49846,7.63418 38.15298,5.27371 14.29014,-5.24937 29.8766,-2.72747 44.80011,-3.94056 12.2829,-0.41982 24.69218,-0.44671 36.75393,-2.80497 8.55006,0.0576 15.77642,5.96524 24.46463,5.64659 11.9463,0.80434 24.13637,1.42198 35.23302,6.48905 25.46651,7.38344 52.45025,6.7867 78.68289,5.4691 10.65593,0.30954 19.29346,-6.44507 26.13622,-13.87388 13.34885,-14.33943 26.97752,-29.16149 35.62366,-46.90502 11.79402,-31.15657 9.46109,-65.42935 6.25722,-97.9423 -4.75582,-38.21362 -11.71936,-76.18548 -21.12936,-113.51695 -0.65882,-5.30624 6.75812,-6.16549 10.12866,-8.34557 6.94398,-3.61057 14.65745,-4.40271 22.05615,-6.34899 21.10871,-8.33993 37.51603,-25.00361 53.12467,-40.92933 21.36975,-23.58407 41.52776,-49.67976 51.56029,-80.26925 5.89628,-21.87708 10.64499,-44.65307 9.19634,-67.41736 -3.29503,-26.99035 -14.93337,-52.1251 -26.8898,-76.25317 -12.58302,-23.08705 -27.15663,-46.88021 -49.96507,-61.10831 -2.7503,-1.74687 -6.40392,-2.82479 -8.45608,-5.26186 3.21948,-9.51999 9.86527,-18.29405 8.07885,-28.80315 0.48075,-14.728475 -0.28389,-30.067556 -7.74344,-43.199818 -13.19495,-24.888257 -39.61844,-41.244956 -66.94629,-46.129642 -7.83902,-1.200857 -15.7989,-1.473756 -23.71885,-1.424473 z m 7.23679,19.317194 c 23.77012,0.367486 45.82429,13.790839 61.05701,31.375891 13.20333,15.624281 15.2136,39.682438 3.86503,56.805298 -3.2997,6.39725 -10.89627,14.60636 -5.12969,21.86231 9.13725,9.198 22.94299,11.89333 31.95595,21.42233 16.18386,16.71278 27.74005,37.24443 38.16876,57.93186 11.65718,24.87798 22.22003,52.51841 16.95754,80.37618 -3.1438,23.00488 -9.35594,45.87585 -22.72843,65.22389 -16.43623,24.95662 -35.45086,49.00265 -59.75071,66.73398 -17.06571,12.59345 -37.7988,17.85327 -57.6302,24.39085 -3.99048,1.70129 -10.48863,3.17279 -7.65569,8.91611 6.4076,30.87836 15.27965,61.2032 20.23986,92.39015 4.70891,29.11913 9.54881,58.61214 7.33281,88.19402 -4.03598,21.48368 -11.55931,42.82542 -26.70368,59.19629 -8.02151,8.74075 -15.91409,18.32775 -26.15768,24.44316 -24.05548,1.60226 -49.22104,2.73183 -72.05032,-6.15562 -4.8944,-2.32894 1.03351,-7.6348 1.13839,-11.17283 3.70236,-11.92587 4.60654,-24.40724 5.96819,-36.7443 7.61073,-0.38459 18.75673,1.51413 23.26507,-6.36673 1.56896,-4.61955 2.18384,-13.78112 -4.92054,-13.48317 -6.42143,-1.35789 -14.72571,1.57633 -19.99787,-3.0936 -1.0284,-3.61606 4.99716,-3.80416 6.46537,-6.37067 20.41003,-18.48322 35.22088,-42.70815 45.23984,-68.19515 1.46779,-5.66653 5.34825,-14.099 -0.17361,-18.71742 -6.36533,-3.0033 -13.38247,1.561 -15.66929,7.68281 -10.74171,18.32449 -18.83969,38.67654 -34.02351,53.94833 -1.94836,1.16007 0.27659,-3.36385 0.49718,-4.3918 13.59842,-30.07126 27.84008,-61.1955 29.57261,-94.70377 0.0206,-4.8464 1.30939,-13.442 -5.85769,-13.60154 -3.45141,-0.0154 -9.62625,-2.99191 -11.29123,1.19364 -4.82605,33.40953 -13.77526,66.7925 -32.17053,95.39817 -3.0789,6.7906 -9.4418,13.23361 -8.92413,21.05741 0.74801,2.94502 4.51873,6.42799 3.356,9.265 -2.14313,-0.97468 -3.33868,-3.78962 -6.26019,-3.7861 -8.15431,-2.68015 -18.24188,-0.77917 -22.76986,7.14012 -2.69322,2.4135 -4.01787,8.56852 -7.38872,8.79741 -7.72033,-3.5959 -17.26611,-10.41383 -25.55567,-4.28526 -2.80305,1.55546 -2.65359,8.14831 -6.84812,5.60714 -7.86681,-2.78059 -17.13969,-6.92664 -24.97761,-1.79342 -6.33207,2.97009 -9.77116,-4.87138 -10.4172,-9.87069 -5.54494,-28.15433 -0.84235,-56.8448 9.48992,-83.29555 6.17616,-17.83261 14.29569,-34.84151 24.61655,-50.62661 3.52455,-5.62824 3.32775,-15.00362 -2.63784,-18.75096 -21.7089,-2.9062 -43.78059,-1.43251 -65.47969,-4.65147 -23.2251,-2.18582 -44.98379,-11.56876 -64.48472,-24.01752 C 173.75171,440.01844 147.07361,422.42048 125.50342,399.5013 105.02221,376.65057 96.3143,345.86726 92.531151,316.04079 91.745339,293.71542 97.2101,271.29032 104.36888,250.20134 c 11.94782,-33.53586 35.44814,-61.01362 58.37453,-87.55972 6.76968,-8.37107 15.66019,-14.57197 23.06902,-22.2332 5.04587,-5.86895 -1.84476,-12.10326 -5.67224,-16.21572 -9.34001,-7.98798 -6.83679,-21.29176 -6.4496,-32.024986 0.23359,-14.477741 7.62117,-27.925234 18.10186,-37.722884 12.52911,-14.086553 30.75686,-23.304015 49.90588,-22.13852 19.31271,0.44304 40.09219,5.858086 52.29907,22.02606 8.86089,10.854515 14.51145,24.367595 14.18247,38.526859 0.93083,7.732951 -0.44541,16.403801 2.4002,23.708001 7.0972,4.04168 15.15754,-2.09267 21.77945,-4.56738 18.42497,-7.25764 38.53213,-10.89558 58.23039,-8.19196 24.41198,1.6156 48.68329,6.26356 73.18414,6.49916 5.09417,0.43286 7.36568,-4.80381 6.18127,-9.12688 -1.13617,-8.252049 -5.81486,-16.431546 -2.63588,-24.876982 5.42105,-16.867759 16.48597,-32.902419 32.44523,-40.984177 5.95092,-2.695704 12.49635,-3.970051 19.01534,-4.00707 z M 275.99616,615.05779 c -0.82477,7.5423 0.67555,16.15342 -3.07978,22.96913 -1.6351,-0.67973 -0.28079,-4.76588 -0.44194,-6.50483 0.69422,-6.14397 1.82076,-12.28851 3.52764,-18.16894 l -0.004,1.01016 z m -17.22389,41.6096 c 2.49423,8.49961 13.46293,12.40726 20.5641,6.88759 3.42096,-1.63609 1.04213,5.42456 1.6494,7.12236 -0.78787,17.4428 -6.2511,35.5394 -19.01929,47.86387 -4.88294,4.18 -11.65983,2.16272 -15.17004,-2.67138 -9.46947,-11.53488 -16.20268,-27.2881 -13.09252,-42.29619 3.80761,-10.49855 19.66751,-3.11334 23.63006,-13.49303 0.57695,-0.76363 0.84503,-3.70755 1.43829,-3.41322 z m 126.2888,4.86925 c 3.28074,2.82344 4.34232,9.25494 10.08431,6.81295 5.36825,-0.0207 14.01263,-3.59284 11.30645,5.14316 -0.0124,14.37033 0.0469,32.73093 -13.50092,41.51095 -8.04286,6.07168 -20.36088,1.39196 -22.25492,-8.53697 -2.18761,-6.5805 -7.27069,-11.76246 -8.74808,-18.70953 -1.60774,-4.84259 -3.35106,-9.70892 -4.02679,-14.78926 6.80066,3.09767 16.89186,4.3816 21.10271,-3.39348 2.24262,-2.59786 3.39986,-5.89447 6.03724,-8.03782 z m -53.35263,0.88192 c 6.97398,0.66923 5.70538,10.02402 7.06712,15.07534 1.67684,11.92541 7.22567,23.46604 6.81656,35.57631 -4.8511,2.97161 -11.57402,1.378 -17.05027,2.21365 -11.1396,-0.0838 -22.81016,1.34304 -33.59743,-1.65728 0.9066,-13.70205 5.50904,-27.3826 6.75539,-41.28012 0.36626,-5.10343 7.49673,-1.95404 10.74273,-3.48226 7.13001,-0.29334 12.30686,-6.34919 19.2659,-6.44564 z"
               style="fill:#252c1a;fill-opacity:1;stroke-width:1.01015" />
            <path
               transform="scale(0.26458333)"
               id="path2073"
               d="m 449.19114,206.31106 c -6.66238,0.22781 -8.73133,7.80531 -9.14621,13.29799 0.0275,4.94233 -6.02932,3.65387 -9.22642,3.65426 -15.73259,-0.33797 -30.75176,-6.6605 -46.59172,-6.60597 -10.71616,-0.40526 -21.55276,-0.42583 -32.20107,0.3953 -11.4387,3.70845 -23.20696,7.84334 -34.65099,10.6549 0.76887,-5.09241 3.26901,-12.7368 -2.60881,-15.6808 -8.36908,-2.72878 -18.64629,1.55364 -21.31278,10.30552 -3.32564,8.29527 0.15376,19.88437 9.57589,22.11357 17.67811,4.62843 35.41648,-2.56229 52.53624,-5.9742 18.2115,-3.43645 37.17621,-2.60684 54.88846,2.95931 11.41699,2.62825 23.50818,2.14112 34.94695,-0.14778 8.44058,-1.65219 17.6913,-7.69664 17.34375,-17.28795 0.0404,-7.69923 -4.83192,-17.54606 -13.55329,-17.68415 z"
               style="fill:#252c1a;fill-opacity:1;stroke-width:0.714286" />
            <path
               transform="scale(0.26458333)"
               id="path2075"
               d="m 526.15961,44.876908 c -17.82886,-0.0921 -33.12479,14.97129 -35.52701,32.248557 -2.7827,14.596621 4.01119,29.356975 14.72232,39.107035 5.63127,6.42966 15.03509,4.1236 22.52205,4.11316 9.22695,-1.02744 18.89851,-0.84394 27.68694,-4.06669 8.69005,-5.90833 11.833,-17.281961 11.97943,-27.31987 1.52057,-22.70686 -18.46699,-44.473206 -41.38373,-44.082192 z m -5.43387,19.61077 c 2.85529,0.660565 -0.74779,3.713704 -1.58064,4.987444 -2.41073,2.272913 -5.77462,7.397263 -9.49777,5.502232 0.24203,-4.768139 5.28663,-8.132094 9.20899,-10.107421 0.59752,-0.218678 1.22715,-0.399218 1.86942,-0.382255 z"
               style="fill:#252c1a;fill-opacity:1;stroke-width:0.714286" />
            <path
               transform="scale(0.26458333)"
               id="path2077"
               d="m 238.73216,55.303805 c -15.67464,0.396899 -31.25387,11.158145 -34.68493,26.910495 -1.77887,8.83734 -2.95322,18.61774 0.52895,27.18828 5.77894,12.52187 18.71066,21.67844 32.72461,21.48856 8.28526,0.40061 17.86675,0.34182 23.81426,-6.42696 5.15502,-5.1054 11.0955,-9.81995 15.32916,-15.58337 -1.38265,-11.491674 -0.53515,-23.377398 -3.68862,-34.59542 -4.64878,-10.189174 -15.68645,-16.22961 -26.28786,-18.410789 -2.54739,-0.469226 -5.14649,-0.67126 -7.73557,-0.570796 z m -8.12919,23.706753 c -1.15953,4.469928 -5.32922,8.891868 -9.8005,9.623325 1.54057,-4.17522 5.74331,-8.589298 9.8005,-9.623325 z"
               style="fill:#252c1a;fill-opacity:1;stroke-width:0.714286" />
          </g>
        </g>
      </g>
      <g
         inkscape:label="レイヤー 5"
         id="layer21">
        <path
           id="path3470"
           d="m 247.2274,67.090755 c -21.71368,-5.689331 -46.11514,1.768251 -60.64036,18.942841 -13.84039,16.057044 -18.82003,39.622424 -11.32714,59.809184 2.15677,6.7966 5.9049,12.95306 9.89707,18.66425 -1.0645,2.79038 -4.87554,4.18122 -7.01583,6.40715 -18.61561,14.90016 -37.55711,29.40607 -56.0715,44.42343 -3.17045,2.27515 -0.48495,6.66004 1.68821,8.70454 1.88442,1.69072 4.49257,3.57563 7.10199,3.23466 21.24221,-17.05598 41.5905,-35.30613 62.85309,-52.36025 3.4693,-0.98541 6.23657,2.67354 9.25594,3.84557 7.22919,3.56008 15.29866,5.42329 23.09655,7.04279 13.64744,1.71479 27.72883,-1.93472 39.15938,-9.55284 16.30434,-10.02969 26.65728,-28.67759 27.38548,-47.72021 1.18487,-19.57553 -7.91661,-39.441466 -23.6937,-51.055124 C 262.49747,72.6145 255.07979,69.067461 247.2274,67.090755 Z m -2.25288,11.287284 c 18.59297,4.65737 33.24196,21.314556 35.72657,40.286651 1.65033,10.58969 -0.81375,21.6672 -5.94162,30.99068 -11.101,19.23632 -36.10927,29.40322 -57.305,22.08943 -15.88729,-5.08031 -28.2917,-18.86545 -32.18149,-35.01518 -4.90224,-17.67837 2.24032,-37.378375 16.3329,-48.828155 11.80369,-10.174453 28.41349,-13.547776 43.36864,-9.523426 z"
           style="fill:#625e5b;fill-opacity:1;stroke-width:0.5326" />
      </g>
    </g>
    <path
       style="display:inline;opacity:1;fill:#f9b857;fill-opacity:1;stroke:#000000;stroke-width:0;stroke-linecap:round;stroke-linejoin:round"
       d="m 267.03731,167.94043 c -0.25161,0.10066 -0.37567,0.38461 -0.53546,0.58916 -0.55269,0.90505 -1.0845,1.82292 -1.63782,2.72594 -0.10779,0.16855 -0.22614,0.33047 -0.32661,0.50366 -0.64546,-0.48841 -1.20698,-1.07898 -1.87943,-1.53332 -0.19865,-0.11941 -0.34376,-0.36123 -0.58073,-0.39828 -0.17998,0.0512 -0.3781,0.19601 -0.31456,0.40959 10e-4,1.34871 -0.0179,2.70037 0.12475,4.04361 0.0409,0.63876 0.12312,1.28113 0.19991,1.91065 0.11906,0.1274 0.34423,0.0344 0.5098,0.0628 2.5559,0.0793 5.11447,0.10272 7.66937,0.19097 0.16823,-0.008 0.40315,0.0848 0.51924,-0.059 0.32579,-1.14636 0.49181,-2.32739 0.67961,-3.50196 0.11905,-0.92337 0.26601,-1.84926 0.27813,-2.78148 0.0167,-0.14635 -0.1095,-0.35469 -0.27184,-0.24756 -0.63184,0.33756 -1.16512,0.8209 -1.73734,1.24414 -0.30015,0.19786 -0.57549,0.42977 -0.84663,0.66501 -0.35398,-0.80667 -0.73584,-1.60042 -1.10614,-2.39939 -0.21742,-0.46044 -0.35325,-0.96946 -0.64835,-1.38797 -0.0254,-0.0241 -0.0602,-0.0392 -0.0958,-0.0362 z"
       id="path4963-4" />
    <path
       style="display:inline;opacity:1;fill:#f9b857;fill-opacity:1;stroke:#000000;stroke-width:0;stroke-linecap:round;stroke-linejoin:round"
       d="m 267.04512,166.91578 c -0.25073,-0.005 -0.50242,0.20445 -0.49734,0.4647 -0.015,0.24247 0.23186,0.44366 0.46613,0.41582 0.15919,0.008 0.30288,-0.0789 0.40275,-0.19723 0.10211,-0.0981 0.1754,-0.2497 0.11591,-0.38974 -0.0725,-0.19356 -0.29162,-0.29183 -0.48741,-0.29354 z"
       id="path4967-4" />
    <path
       style="display:inline;opacity:1;fill:#f9b857;fill-opacity:1;stroke:#000000;stroke-width:0;stroke-linecap:round;stroke-linejoin:round"
       d="m 271.62437,168.91702 c -0.2209,-0.005 -0.41559,0.20338 -0.39606,0.42414 -0.037,0.25261 0.21135,0.49808 0.46437,0.43934 0.27079,-0.0405 0.44288,-0.37166 0.30621,-0.61247 -0.0676,-0.14503 -0.20856,-0.25813 -0.37452,-0.25101 z"
       id="path4969-9" />
    <path
       style="display:inline;opacity:1;fill:#f9b857;fill-opacity:1;stroke:#000000;stroke-width:0;stroke-linecap:round;stroke-linejoin:round"
       d="m 261.85721,168.8974 c -0.26341,0.005 -0.46964,0.29622 -0.42324,0.54549 0.056,0.22041 0.28848,0.36117 0.50926,0.29803 0.3648,-0.0725 0.43438,-0.68045 0.0742,-0.81405 -0.0505,-0.0209 -0.1055,-0.0312 -0.1602,-0.0295 z"
       id="path4971-4" />
    <path
       style="display:inline;fill:#000000;stroke-width:0.414436"
       d="m 270.54267,176.49484 c -0.14798,-0.0249 -1.08376,-0.0497 -2.88406,-0.0763 -1.76015,-0.026 -2.30548,-0.0411 -2.61977,-0.0727 -0.0399,-0.005 -0.1577,6e-5 -0.26176,0.008 -0.23551,0.0202 -0.44951,0.0177 -0.58786,-0.007 -0.15498,-0.0276 -0.63099,-0.0533 -0.74635,-0.0404 -0.0515,0.006 -0.10865,0.016 -0.12671,0.0225 -0.0528,0.0192 -0.22357,0.0121 -0.34163,-0.0155 -0.20862,-0.0477 -0.25519,-0.0507 -0.54933,-0.0353 -0.22101,0.0121 -0.28429,0.0109 -0.31197,-4.1e-4 -0.0561,-0.0241 -0.0749,-0.0806 -0.0884,-0.26646 -0.0137,-0.18842 -0.0425,-0.43029 -0.0807,-0.68094 -0.0392,-0.25654 -0.0616,-0.52287 -0.10235,-1.21329 -0.008,-0.13668 -0.0287,-0.37639 -0.0457,-0.53268 -0.0305,-0.27842 -0.059,-0.80124 -0.0778,-1.4258 -0.005,-0.17429 -0.004,-0.70848 0.004,-1.2031 l 0.0128,-0.88964 0.0332,-0.0592 c 0.044,-0.0783 0.12087,-0.14558 0.2157,-0.18839 0.0987,-0.0446 0.16513,-0.0519 0.21826,-0.0238 0.0221,0.0121 0.0821,0.0623 0.13339,0.11288 0.12833,0.12565 0.27976,0.24829 0.51478,0.41643 0.35514,0.25405 0.42553,0.30594 0.51201,0.37744 0.10079,0.0834 0.36148,0.31808 0.5817,0.52384 0.0865,0.0812 0.22352,0.19989 0.30392,0.26417 0.0806,0.0641 0.16996,0.13672 0.19893,0.16108 0.0288,0.0244 0.0587,0.048 0.0663,0.0523 0.008,0.005 0.0318,-0.0237 0.0622,-0.0777 0.0267,-0.0472 0.072,-0.11397 0.10054,-0.14832 0.1404,-0.16871 0.39567,-0.57933 0.69273,-1.11461 0.15581,-0.28073 0.29185,-0.51028 0.43457,-0.73327 0.0743,-0.11615 0.16666,-0.26385 0.20525,-0.32838 0.0386,-0.0645 0.0797,-0.12786 0.0915,-0.14068 0.0109,-0.0133 0.0734,-0.12643 0.13702,-0.25243 0.12273,-0.24298 0.2625,-0.47397 0.38582,-0.63761 0.0888,-0.11785 0.28927,-0.33428 0.33008,-0.35603 0.0507,-0.0271 0.14591,-0.0282 0.18625,-0.001 0.084,0.0546 0.34079,0.58714 0.54243,1.12489 0.0339,0.0904 0.0801,0.20227 0.10272,0.24864 0.0226,0.0463 0.0589,0.13289 0.0806,0.19226 0.0217,0.0594 0.0854,0.19631 0.14146,0.30437 0.21236,0.40913 0.5187,1.06926 0.51797,1.11615 3e-4,0.005 0.0645,0.14187 0.14343,0.30551 0.079,0.16361 0.16331,0.34476 0.18744,0.40255 0.0241,0.0577 0.049,0.10393 0.055,0.1026 0.006,-0.001 0.10477,-0.0897 0.21886,-0.19626 0.21841,-0.20375 0.31872,-0.28031 0.52716,-0.40221 0.16136,-0.0944 0.27055,-0.17602 0.46898,-0.35064 0.26115,-0.2299 0.37328,-0.32426 0.47147,-0.39678 0.14527,-0.1078 0.792,-0.52463 0.81328,-0.52482 0.0189,-1.6e-4 0.0805,-0.0432 0.0716,-0.0501 -0.002,-0.001 -0.0225,-0.0109 -0.0444,-0.0201 -0.12211,-0.0506 -0.20824,-0.17766 -0.23339,-0.34397 -0.0174,-0.11554 -0.005,-0.19734 0.0468,-0.29658 0.11324,-0.21906 0.36976,-0.30169 0.57644,-0.18565 0.0748,0.042 0.16844,0.14671 0.20679,0.23105 0.026,0.0573 0.0296,0.0806 0.0281,0.18955 -8.8e-4,0.10937 -0.005,0.13196 -0.0336,0.19016 -0.0594,0.12251 -0.15419,0.20091 -0.2948,0.24385 -0.0373,0.0109 -0.0612,0.0211 -0.0535,0.0215 0.0289,0.001 0.0722,0.10345 0.0916,0.2149 0.0256,0.14832 0.0209,0.35637 -0.0149,0.64988 -0.0155,0.12662 -0.0437,0.3976 -0.0628,0.6022 -0.0463,0.49839 -0.0947,0.9193 -0.14161,1.23374 -0.16568,1.11108 -0.27678,1.78234 -0.37041,2.23803 -0.0209,0.10175 -0.0531,0.29289 -0.0715,0.42473 -0.0374,0.26746 -0.0541,0.34124 -0.1505,0.66527 -0.0369,0.12385 -0.0817,0.30152 -0.0996,0.39481 -0.0179,0.0933 -0.0387,0.18437 -0.0462,0.20246 -0.0263,0.0632 -0.10647,0.078 -0.27065,0.0504 z m 0.19553,-0.26482 c 0.0179,-0.0892 0.0471,-0.20719 0.065,-0.26223 0.10393,-0.3201 0.15654,-0.53874 0.19438,-0.80738 0.0211,-0.14931 0.0466,-0.30859 0.0567,-0.35399 0.0721,-0.32162 0.16616,-0.8692 0.30104,-1.75189 0.13644,-0.89286 0.16354,-1.10814 0.22591,-1.79428 0.0156,-0.17213 0.0403,-0.41124 0.0548,-0.53136 0.0404,-0.33478 0.0473,-0.50434 0.0263,-0.6432 -0.0211,-0.13941 -0.0353,-0.1744 -0.0771,-0.18972 -0.0263,-0.01 -0.0386,-0.006 -0.0789,0.0253 -0.0263,0.0202 -0.0542,0.0367 -0.0622,0.0367 -0.008,-1.3e-4 -0.18702,0.11131 -0.39773,0.24764 -0.39425,0.25522 -0.41798,0.27352 -0.87551,0.67652 -0.17289,0.1523 -0.27672,0.22765 -0.4808,0.34886 -0.21584,0.12817 -0.33551,0.22311 -0.63199,0.5012 l -0.20159,0.18902 -0.0553,-0.14513 c -0.0305,-0.0798 -0.12401,-0.28437 -0.2081,-0.45456 -0.0841,-0.17018 -0.1847,-0.39231 -0.22358,-0.49363 -0.0754,-0.1964 -0.27072,-0.60888 -0.45186,-0.95415 -0.11724,-0.22365 -0.131,-0.25331 -0.17662,-0.38428 -0.016,-0.0457 -0.0512,-0.12897 -0.0783,-0.18499 -0.0271,-0.056 -0.0761,-0.17372 -0.10865,-0.26155 -0.12801,-0.34483 -0.27656,-0.67913 -0.39461,-0.88802 -0.0705,-0.12479 -0.0866,-0.14569 -0.11203,-0.14631 -0.0231,-4.2e-4 -0.0587,0.0305 -0.16145,0.1411 -0.0726,0.0778 -0.147,0.16078 -0.16568,0.18406 -0.0859,0.10695 -0.29719,0.45682 -0.3994,0.66155 -0.0621,0.12417 -0.12782,0.24308 -0.14628,0.26422 -0.0186,0.0211 -0.0917,0.13194 -0.1629,0.24617 -0.0713,0.11422 -0.17578,0.28161 -0.23247,0.37191 -0.0567,0.0902 -0.21514,0.3631 -0.35211,0.60622 -0.30111,0.53445 -0.53571,0.91332 -0.67005,1.0822 -0.0363,0.0454 -0.0837,0.11845 -0.10586,0.1621 -0.022,0.0437 -0.0516,0.0976 -0.0657,0.11978 l -0.0257,0.0404 -0.18953,-0.15369 c -0.10429,-0.0844 -0.22115,-0.17569 -0.25979,-0.20261 -0.0386,-0.027 -0.15994,-0.13178 -0.26948,-0.23307 -0.50766,-0.46949 -0.57733,-0.52785 -0.92922,-0.77908 -0.15141,-0.10804 -0.32551,-0.23558 -0.38691,-0.28332 -0.10442,-0.0812 -0.35153,-0.30259 -0.3676,-0.32946 -0.024,-0.04 -0.16039,0.0144 -0.24391,0.0974 l -0.054,0.0531 -0.0144,0.81812 c -0.0198,1.13498 0.005,2.09616 0.069,2.66967 0.0172,0.15304 0.0379,0.39274 0.0462,0.53268 0.044,0.73784 0.0599,0.92249 0.10756,1.25475 0.0463,0.3232 0.0528,0.37589 0.0737,0.61329 0.0109,0.11905 0.0212,0.21854 0.0235,0.22106 0.002,0.002 0.11893,-10e-4 0.25883,-0.01 0.28103,-0.0155 0.32237,-0.013 0.55963,0.0337 0.18069,0.0356 0.25112,0.0363 0.40349,0.004 0.088,-0.0189 0.11833,-0.0189 0.41978,-0.001 0.17871,0.01 0.37269,0.0273 0.43106,0.0382 0.11567,0.0219 0.32887,0.0216 0.5608,-8.3e-4 0.068,-0.006 0.17433,-0.008 0.23652,-0.004 0.46554,0.0353 0.8906,0.0469 2.64256,0.0724 2.02611,0.0294 2.63463,0.0446 2.83091,0.0711 0.0681,0.01 0.14034,0.0177 0.16041,0.0189 l 0.0365,0.001 z m 0.9776,-6.54638 c 0.12701,-0.0359 0.20822,-0.12742 0.23411,-0.2633 0.0109,-0.0552 0.0109,-0.0894 8.2e-4,-0.13705 -0.0175,-0.0837 -0.0967,-0.19428 -0.17128,-0.23947 -0.0484,-0.0293 -0.0691,-0.0344 -0.14508,-0.0354 -0.10368,-8.7e-4 -0.15353,0.0181 -0.2252,0.088 -0.0707,0.0688 -0.10151,0.15686 -0.0944,0.26853 0.008,0.13235 0.0236,0.17362 0.0867,0.23843 0.0849,0.0878 0.19226,0.11482 0.31442,0.0802 z m -10.03158,0.0766 c -0.23544,-0.091 -0.33958,-0.32417 -0.25163,-0.56337 0.0751,-0.20433 0.24515,-0.32715 0.45003,-0.32514 0.0719,8.2e-4 0.10332,0.007 0.15536,0.0318 0.14605,0.0692 0.24601,0.21392 0.24503,0.35462 -8.2e-4,0.10188 -0.0231,0.21833 -0.0561,0.29248 -0.0335,0.0753 -0.12211,0.15766 -0.21274,0.19784 -0.0921,0.0408 -0.2409,0.0461 -0.32992,0.0121 z m 0.27862,-0.11071 c 0.12684,-0.0511 0.17646,-0.12694 0.19857,-0.30362 l 0.0159,-0.12658 -0.0328,-0.0647 c -0.0973,-0.19192 -0.32768,-0.2303 -0.49394,-0.0823 -0.15103,0.13443 -0.18107,0.36205 -0.0645,0.4882 0.10042,0.10853 0.24392,0.14249 0.37679,0.0891 z m 4.86309,-1.85689 c -0.26033,-0.0999 -0.37169,-0.36372 -0.2556,-0.60647 0.0547,-0.11457 0.11978,-0.1785 0.24016,-0.23605 l 0.10236,-0.049 0.14275,0.001 c 0.13455,0.001 0.14781,0.005 0.2309,0.0415 0.13432,0.06 0.19784,0.11518 0.24544,0.21339 0.035,0.072 0.04,0.0939 0.0385,0.16567 -0.001,0.0962 -0.0341,0.17705 -0.0953,0.24114 -0.0215,0.0224 -0.0593,0.0657 -0.0841,0.0961 -0.034,0.0417 -0.0699,0.067 -0.14724,0.10453 -0.0987,0.0473 -0.10696,0.0492 -0.22775,0.0507 -0.10236,0.001 -0.13719,-0.002 -0.19002,-0.0231 z m 0.27912,-0.0952 c 0.09,-0.0228 0.15153,-0.0577 0.20019,-0.11349 0.024,-0.0282 0.0603,-0.0661 0.0796,-0.0855 0.10345,-0.10126 0.0974,-0.27211 -0.0128,-0.37153 -0.13373,-0.1205 -0.36103,-0.15325 -0.52083,-0.0749 -0.0715,0.035 -0.1529,0.11906 -0.18629,0.19239 -0.0302,0.0662 -0.035,0.18881 -0.01,0.2514 0.0657,0.16167 0.26141,0.24946 0.44971,0.2018 z"
       id="path4958-5" />
    <path
       style="display:inline;opacity:1;fill:#914f3b;fill-opacity:1;stroke:#000000;stroke-width:0;stroke-linecap:round;stroke-linejoin:round"
       d="m 267.03016,166.88356 c -0.32027,-0.006 -0.59681,0.33512 -0.49093,0.64441 0.11106,0.29375 0.50588,0.39792 0.75612,0.21543 0.19428,-0.12098 0.38745,-0.39381 0.23359,-0.61721 -0.11155,-0.15351 -0.30985,-0.24684 -0.49878,-0.24263 z m 0.0305,0.14621 c 0.18663,-0.01 0.4359,0.14789 0.36877,0.35809 -0.0998,0.25149 -0.43023,0.40457 -0.66166,0.22484 -0.18737,-0.13783 -0.12103,-0.46088 0.094,-0.53832 0.0616,-0.0301 0.1304,-0.0451 0.19894,-0.0448 z"
       id="path4976-7" />
    <path
       style="display:inline;opacity:1;fill:#914f3b;fill-opacity:1;stroke:#000000;stroke-width:0;stroke-linecap:round;stroke-linejoin:round"
       d="m 267.03597,167.88289 c -0.17038,0.037 -0.2656,0.21426 -0.38046,0.3314 -0.33207,0.43445 -0.54852,0.94225 -0.85361,1.39473 -0.43165,0.68732 -0.79216,1.42243 -1.28874,2.06647 -0.53891,-0.39493 -0.99377,-0.89538 -1.54335,-1.27834 -0.27027,-0.18044 -0.50886,-0.40391 -0.76053,-0.60726 -0.18061,-0.0567 -0.3865,0.0796 -0.462,0.24284 -0.0572,0.41986 -0.0202,0.84839 -0.0342,1.27148 -8.3e-4,0.8622 -10e-4,1.72682 0.0959,2.58444 0.0514,0.76943 0.12355,1.5395 0.22808,2.30176 0.0732,0.14851 0.28138,0.0886 0.41386,0.11131 1.03644,0.0312 2.07237,0.0792 3.10943,0.0808 1.6392,0.0348 3.28007,0.0596 4.91785,0.11905 0.10634,0.0121 0.23001,0.023 0.32768,-0.0131 0.20105,-0.66784 0.33401,-1.3526 0.4473,-2.03971 0.24476,-1.37318 0.44434,-2.75703 0.53908,-4.14914 0.008,-0.16406 -0.008,-0.33281 -0.087,-0.47999 0.29875,-0.0575 0.46323,-0.42122 0.31707,-0.68502 -0.10804,-0.23555 -0.44095,-0.34476 -0.64597,-0.16596 -0.21839,0.15328 -0.2515,0.47822 -0.0898,0.68462 0.0306,0.0663 0.12751,0.0968 0.15628,0.14608 -0.49354,0.28614 -0.95839,0.62046 -1.38651,0.9981 -0.35847,0.28173 -0.75168,0.51828 -1.08277,0.83473 -0.0693,0.10767 -0.093,-0.0247 -0.12687,-0.0802 -0.31787,-0.66928 -0.61114,-1.35013 -0.9346,-2.01714 -0.24751,-0.52525 -0.4229,-1.08774 -0.72782,-1.584 -0.0347,-0.0466 -0.09,-0.0732 -0.14837,-0.068 z m 0.0121,0.14871 c 0.16522,0.17148 0.22711,0.4192 0.33301,0.62861 0.2463,0.61459 0.51692,1.21863 0.81308,1.81079 0.21751,0.4852 0.4444,0.97389 0.65564,1.45832 0.22562,-0.17363 0.42876,-0.39472 0.66906,-0.55904 0.41714,-0.27321 0.79675,-0.59617 1.18278,-0.9103 0.27991,-0.19991 0.56757,-0.39949 0.8771,-0.54404 0.0996,0.0639 0.0609,0.22616 0.0738,0.32748 -0.0411,0.87676 -0.1723,1.74937 -0.28446,2.62047 -0.12542,0.90439 -0.28825,1.8056 -0.47157,2.69918 -0.0624,0.2685 -0.14271,0.54017 -0.20155,0.80559 -0.15278,0.008 -0.30311,-0.0402 -0.45877,-0.0272 -1.84814,-0.0515 -3.69678,-0.0903 -5.5453,-0.12199 -0.43502,0.0253 -0.86721,-0.0719 -1.30139,-0.0386 -0.30876,0.0517 -0.61505,-0.06 -0.92551,-0.0446 -0.12976,-0.0174 -0.35072,0.0641 -0.30223,-0.1468 -0.11106,-0.8103 -0.16763,-1.62459 -0.23222,-2.43961 -0.10974,-1.15114 -0.0599,-2.31163 -0.0716,-3.46765 0.0702,-0.0696 0.16042,-0.17629 0.2657,-0.16315 0.52072,0.43867 1.09218,0.8141 1.58957,1.27987 0.27723,0.23306 0.5399,0.49001 0.84219,0.68963 0.0847,-0.0517 0.10659,-0.18778 0.17996,-0.26306 0.5147,-0.73543 0.9136,-1.54319 1.40397,-2.29416 0.28297,-0.44164 0.48007,-0.96428 0.89991,-1.29927 0.002,-4.1e-4 0.006,-0.001 0.008,-8.7e-4 z m 4.58495,0.99163 c 0.31174,8.2e-4 0.42118,0.50873 0.12482,0.62629 -0.20952,0.11288 -0.45893,-0.0894 -0.4263,-0.3153 10e-4,-0.16413 0.13002,-0.31623 0.30158,-0.3109 z"
       id="path4978-1" />
    <path
       style="display:inline;opacity:1;fill:#914f3b;fill-opacity:1;stroke:#000000;stroke-width:0;stroke-linecap:round;stroke-linejoin:round"
       d="m 261.86945,168.86144 c -0.36263,-8.8e-4 -0.61888,0.47765 -0.38218,0.76574 0.20467,0.29257 0.74383,0.16656 0.7862,-0.19274 0.0548,-0.17579 0.001,-0.37265 -0.14933,-0.4833 -0.0692,-0.0657 -0.15921,-0.098 -0.25469,-0.0897 z m 0.0149,0.14271 c 0.20542,-0.005 0.32786,0.23225 0.24922,0.41131 -0.0276,0.19397 -0.25826,0.29598 -0.42458,0.2122 -0.261,-0.0953 -0.19367,-0.51698 0.0472,-0.59868 0.0405,-0.0167 0.0843,-0.0255 0.12821,-0.0248 z"
       id="path4980-7" />
  </g>
  <g
     inkscape:label="レイヤー 8"
     id="layer6"
     inkscape:groupmode="layer">
    <path
       transform="scale(0.26458333)"
       id="path6154"
       d="m 1009.2588,634.50733 c -0.9456,0.27296 -1.4145,1.31295 -2.0031,2.02721 -2.5234,3.95686 -4.6601,8.16191 -7.38254,11.98841 -0.23076,0.47288 -0.5992,-0.27761 -0.87278,-0.35415 -2.57299,-2.17182 -5.1641,-4.33201 -7.85409,-6.3534 -0.97574,-0.59123 -2.08035,0.57952 -1.99811,1.56011 -0.24475,4.46013 0.0224,8.93483 0.25649,13.39093 0.28048,3.06541 0.41888,6.16369 1.02125,9.18632 0.22786,0.59431 1.09627,0.29364 1.58093,0.43215 9.83845,0.33956 19.68415,0.43846 29.52385,0.73947 0.682,-0.044 1.4433,0.14014 2.0724,-0.0653 1.7428,-6.80129 2.7465,-13.77293 3.4768,-20.74833 0.1087,-1.45666 0.3105,-2.97586 0.027,-4.40314 1.2,-0.53433 1.7298,-2.37988 0.5896,-3.25044 -0.8252,-0.7095 -2.2645,-0.44361 -2.6154,0.64516 -0.3979,0.85553 -0.043,1.80867 0.6371,2.39689 -0.1504,0.36885 -0.9284,0.62113 -1.2855,0.95079 -2.6233,1.76331 -5.0547,3.79356 -7.5684,5.7067 -0.1871,0.11562 -0.4434,0.56819 -0.5618,0.15043 -1.6179,-3.22937 -3.1059,-6.52683 -4.5601,-9.8336 -0.6443,-1.39169 -1.12,-2.93904 -2.1292,-4.11395 -0.1062,-0.0611 -0.2361,-0.061 -0.3546,-0.0523 z m 0.053,0.70286 c 1.1001,1.62719 1.6584,3.56639 2.5157,5.32732 1.4329,3.09815 2.8318,6.24387 4.2806,9.3157 1.2758,-0.99347 2.5141,-2.10501 3.8715,-3.02314 2.1065,-1.55532 4.0502,-3.43681 6.4717,-4.49258 0.2906,0.41021 0.1024,1.08028 0.1433,1.58182 -0.4168,6.34278 -1.458,12.64309 -2.6578,18.88931 -0.3042,1.22308 -0.4779,2.5277 -0.948,3.68646 -10.1638,-0.32591 -20.3486,-0.40313 -30.51494,-0.79924 -0.55907,-0.16505 -1.68773,0.26936 -1.56185,-0.63929 -0.66145,-5.39172 -1.139,-10.82091 -1.03932,-16.26158 -0.003,-2.03041 -0.004,-4.06083 -0.006,-6.09125 0.68159,-0.76066 1.26624,-0.0878 1.86273,0.40801 2.6798,2.00314 5.17548,4.23557 7.76602,6.3464 0.55566,0.4594 0.84876,-0.4854 1.14946,-0.79198 2.5702,-3.84299 4.7378,-7.93796 7.235,-11.82671 0.4375,-0.56335 0.8307,-1.26774 1.4317,-1.62925 z m 17.3307,3.67019 c 1.0099,0.14169 1.5332,1.79141 0.4394,2.22303 -0.8434,0.542 -1.7361,-0.57956 -1.4575,-1.40006 0.133,-0.41277 0.5773,-0.79188 1.0181,-0.82297 z"
       style="fill:#914f3b;fill-opacity:1;stroke-width:0.126269" />
    <path
       transform="scale(0.26458333)"
       id="path6156"
       d="m 1009.2506,634.46244 c -1.0582,0.28295 -1.5207,1.45579 -2.1404,2.25689 -2.5077,3.86804 -4.6226,7.99091 -7.29919,11.74517 -0.29869,0.28526 -0.67769,-0.43118 -0.98872,-0.53993 -2.59103,-2.10069 -5.09128,-4.34921 -7.83975,-6.24383 -1.05012,-0.36471 -1.99344,0.79653 -1.89083,1.79046 -0.14899,6.80014 0.1134,13.62095 0.90234,20.37856 0.18667,0.77477 0.10233,1.73265 0.61905,2.3765 1.68743,0.38294 3.46499,0.22591 5.18781,0.34652 9.08199,0.23954 18.17199,0.40961 27.24979,0.66216 0.9374,-0.12269 0.8068,-1.35594 1.0747,-2.02071 1.4572,-6.58867 2.5705,-13.27125 3.0611,-20.00511 0.066,-1.11443 0.043,-2.23117 0.055,-3.34687 1.4279,-0.57652 1.57,-3.06537 -0.028,-3.51901 -1.1199,-0.44368 -2.4368,0.49375 -2.3342,1.70439 0,0.64265 0.3091,1.25177 0.7647,1.69279 -3.1756,2.10259 -6.1195,4.53368 -9.173,6.79486 -0.3226,-0.14605 -0.3895,-0.78348 -0.6242,-1.07822 -1.9131,-3.87325 -3.5572,-7.86909 -5.412,-11.76854 -0.2923,-0.44946 -0.5388,-1.23658 -1.1848,-1.22608 z m 0.014,0.87402 c 1.0456,1.45418 1.554,3.22984 2.3448,4.82771 1.4553,3.20836 2.8856,6.43015 4.418,9.60223 0.3975,0.14892 0.7296,-0.46286 1.0703,-0.61926 2.24,-1.80032 4.541,-3.5294 6.8327,-5.26592 0.8058,-0.50889 1.5972,-1.19956 2.543,-1.37751 0.2063,2.05054 -0.2106,4.14741 -0.3863,6.20533 -0.7234,5.60033 -1.4685,11.23637 -2.8358,16.71596 0.029,1.02965 -0.7501,0.99915 -1.5593,0.92926 -9.5955,-0.24034 -19.2065,-0.32609 -28.80128,-0.72903 -0.60885,-0.0531 -1.25043,-0.032 -1.8306,-0.1773 -0.67684,-4.7491 -1.06188,-9.53707 -1.06514,-14.33608 -0.0403,-2.7869 -0.0632,-5.57403 -0.0957,-8.36103 0.33942,-0.35819 0.87654,-0.40146 1.2121,-0.0121 3.00298,2.13582 5.64449,4.74059 8.64009,6.87821 0.48153,0.13808 0.62803,-0.64284 0.91793,-0.89471 2.81,-4.21085 5.1296,-8.73642 8.0632,-12.86418 0.1602,-0.18092 0.3115,-0.42152 0.532,-0.5216 z m 17.3876,3.65663 c 1.0745,0.0866 1.3204,1.9947 0.1542,2.14509 -0.9782,0.16346 -1.5126,-1.22873 -0.8001,-1.85088 0.1565,-0.19663 0.3909,-0.3187 0.6459,-0.29421 z"
       style="fill:#914f3b;fill-opacity:1;stroke-width:0.126269" />
    <path
       transform="scale(0.26458333)"
       id="path6158"
       d="m 1009.2504,634.45652 c -1.0179,0.27217 -1.5353,1.37714 -2.1353,2.15399 -2.5008,3.86468 -4.6381,7.98055 -7.3211,11.71564 -0.28584,0.21203 -0.63913,-0.36784 -0.92236,-0.47605 -2.62222,-2.02428 -5.07954,-4.2893 -7.82005,-6.16245 -0.99319,-0.48762 -2.04728,0.64499 -1.96136,1.63482 -0.30312,5.04951 0.0363,10.11533 0.3423,15.15748 0.23303,2.45293 0.30305,4.95295 0.89005,7.35172 0.38709,0.85666 1.54303,0.541 2.28271,0.67278 10.00241,0.34436 20.01051,0.52004 30.01551,0.7586 0.7042,0.11926 1.2856,-0.41117 1.3444,-1.09992 1.5684,-6.92319 2.754,-13.95118 3.2825,-21.03396 0.071,-1.06091 0.058,-2.12446 0.057,-3.18701 1.0804,-0.62028 1.5469,-2.22676 0.6306,-3.17991 -0.8898,-1.02584 -2.8207,-0.56061 -3.0445,0.8131 -0.2358,0.80075 0.2545,1.59297 0.604,2.21465 -3.1306,2.06817 -6.0065,4.49303 -9.0675,6.65403 -2.2992,-4.41859 -4.0795,-9.09347 -6.3842,-13.50882 -0.1891,-0.24908 -0.4553,-0.50362 -0.7931,-0.47869 z m -0.039,1.0072 c 1.1375,1.49749 1.6451,3.3766 2.4963,5.04001 1.4352,3.05743 2.6982,6.20365 4.2762,9.18992 0.3187,0.42928 0.7653,-0.30748 1.0767,-0.438 2.7934,-2.22445 5.6018,-4.44997 8.6031,-6.39237 0.2262,-0.0806 0.8314,-0.57768 0.7588,0.0104 0.01,3.82783 -0.6665,7.6372 -1.1569,11.43387 -0.6116,3.93648 -1.1909,7.8935 -2.2849,11.72738 -0.4268,0.36839 -1.1502,0.14331 -1.6837,0.22375 -9.1905,-0.12125 -18.3829,-0.34527 -27.56955,-0.6708 -0.84438,-0.089 -1.79026,0.0195 -2.58259,-0.2203 -0.496,-2.91475 -0.72874,-5.87459 -0.89215,-8.82687 -0.16427,-4.51215 -0.29974,-9.03727 -0.23564,-13.54668 -0.0402,-0.68443 0.83134,-0.41937 1.12261,-0.11961 3.00198,2.09561 5.65061,4.6832 8.6228,6.82297 0.49532,0.0569 0.64792,-0.71194 0.96072,-0.99069 2.8767,-4.25279 5.1953,-8.87052 8.2414,-13.00841 0.076,-0.0815 0.1504,-0.18231 0.2468,-0.23453 z m 17.4863,3.6581 c 1.4168,0.21943 0.6896,2.64471 -0.5502,1.73571 -0.654,-0.50806 -0.3792,-1.80979 0.5502,-1.73571 z"
       style="fill:#914f3b;fill-opacity:1;stroke-width:0.126269" />
    <path
       transform="scale(0.26458333)"
       id="path6160"
       d="m 1009.1596,630.67634 c -1.2355,0.1342 -2.4535,1.62302 -1.6511,2.80826 0.6173,1.02705 2.2409,1.19935 3.0576,0.29717 0.6801,-0.54142 1.2185,-1.69932 0.4,-2.36803 -0.4783,-0.45719 -1.1386,-0.75557 -1.8065,-0.7374 z m 0.1704,0.72038 c 0.7527,-0.0943 1.8476,0.82651 1.1364,1.54778 -0.5114,0.93158 -2.1618,1.06673 -2.5051,-0.0787 -0.1794,-0.82618 0.5879,-1.47765 1.3687,-1.46911 z"
       style="fill:#914f3b;fill-opacity:1;stroke-width:0.126269" />
    <path
       transform="scale(0.26458333)"
       id="path6162"
       d="m 1009.2486,630.67388 c -1.4849,-0.0714 -2.6799,1.87499 -1.601,3.04994 0.8335,1.01018 2.5074,0.84734 3.2455,-0.19754 0.7277,-0.70536 0.6578,-2.03816 -0.3137,-2.49308 -0.3972,-0.24357 -0.865,-0.36956 -1.3308,-0.35932 z m 0.112,0.79904 c 0.6606,-0.0568 1.6605,0.72142 1.0832,1.3717 -0.4039,0.66723 -1.2994,0.97182 -1.9804,0.57462 -0.5751,-0.3856 -0.5982,-1.19674 -0.053,-1.62374 0.2574,-0.22926 0.6103,-0.32977 0.9505,-0.32258 z"
       style="fill:#914f3b;fill-opacity:1;stroke-width:0.126269" />
    <path
       transform="scale(0.26458333)"
       id="path6164"
       d="m 989.73489,638.15951 c -1.5682,0.0135 -2.45684,2.29856 -1.18353,3.28325 1.01854,0.79484 2.81224,0.0366 2.79938,-1.31128 0.24524,-0.97737 -0.67234,-1.93719 -1.61585,-1.97197 z m 0.0617,0.71051 c 0.71134,0.008 1.09112,0.79361 0.83233,1.41806 -0.0906,1.13548 -1.95425,1.04905 -2.05088,-0.0496 -0.11395,-0.69654 0.52664,-1.37997 1.21855,-1.36849 z"
       style="fill:#914f3b;fill-opacity:1;stroke-width:0.126269" />
    <path
       transform="scale(0.26458333)"
       id="path6166"
       d="m 989.70061,638.14496 c -1.59868,-0.0237 -2.47887,2.43052 -1.11743,3.34589 0.99987,0.72166 2.72493,0.0387 2.81713,-1.25357 0.21478,-1.03343 -0.61186,-2.15974 -1.6997,-2.09232 z m 0.13219,0.84936 c 1.25153,-0.0239 0.91537,2.20598 -0.24563,2.02055 -0.84028,0.0513 -1.20961,-1.00354 -0.69424,-1.58379 0.18483,-0.3249 0.56802,-0.49915 0.93987,-0.43676 z"
       style="fill:#914f3b;fill-opacity:1;stroke-width:0.126269" />
    <path
       transform="scale(0.26458333)"
       id="path6168"
       d="m 1009.3572,634.39906 c -1.2587,0.28244 -1.8472,1.65338 -2.5312,2.61239 -2.4038,3.74406 -4.5178,7.68572 -7.11635,11.29793 -1.30804,-0.72721 -2.38245,-1.85264 -3.58179,-2.75101 -1.76487,-1.35839 -3.4055,-2.93642 -5.36777,-4.00636 -0.26151,-0.0788 0.36692,-0.41173 0.43799,-0.60619 0.37038,-0.56599 0.37085,-1.44074 -0.003,-2.00502 -0.44681,-0.68292 -1.291,-1.04408 -2.0684,-0.70385 -1.52641,0.44079 -1.76724,3.09247 -0.11344,3.51063 0.26231,0.13652 1.00429,-0.0639 0.49842,0.29693 -0.80691,0.9119 -0.38249,2.25034 -0.50944,3.34884 -10e-4,6.37944 0.0852,12.79063 0.9896,19.1157 0.17168,0.70486 0.16265,1.88136 1.14111,1.91476 4.16406,0.34999 8.35391,0.30421 12.52897,0.4618 6.4031,0.1519 12.808,0.30992 19.2107,0.42307 0.7803,0.0433 1.1618,-0.74497 1.2109,-1.4151 1.6005,-7.24878 2.8733,-14.6021 3.251,-22.02483 0.098,-0.6554 -0.1658,-1.44465 0.202,-2.02499 1.3678,-0.84076 1.1356,-3.34231 -0.5278,-3.66575 -1.281,-0.31302 -2.5416,1.01779 -2.1478,2.28567 0.084,0.4719 0.3566,0.87384 0.5258,1.31472 -3.0029,2.09022 -5.8645,4.37474 -8.8459,6.49448 -1.6882,-2.82951 -2.8952,-5.94734 -4.3097,-8.92783 -0.8101,-1.6205 -1.4325,-3.37472 -2.5007,-4.84487 -0.1064,-0.0767 -0.2432,-0.10621 -0.3728,-0.10112 z m -0.1542,1.20819 c 1.2414,1.71478 1.8438,3.79041 2.7774,5.6798 1.3278,2.84492 2.5151,5.77535 4.0917,8.49267 0.417,0.19235 0.7822,-0.47293 1.1546,-0.61634 2.9352,-2.18884 5.741,-4.59288 8.8902,-6.46237 0.3226,-0.072 0.1091,0.65951 0.1877,0.87056 -0.092,4.53313 -0.8796,9.04105 -1.5514,13.52492 -0.5275,2.92691 -0.9125,5.89894 -1.8261,8.73839 -0.1931,0.51245 -0.957,0.15879 -1.3692,0.28489 -9.4882,-0.0121 -18.9767,-0.24801 -28.45702,-0.64363 -0.60385,-0.0621 -1.26849,-0.0156 -1.8409,-0.16804 -0.98259,-5.13734 -0.97858,-10.39439 -1.13617,-15.61051 -0.0563,-2.32867 -0.0675,-4.66114 -0.007,-6.9914 0.97681,-0.0994 1.68255,0.83631 2.45163,1.29554 2.44629,1.85367 4.66508,4.02087 7.22744,5.7119 0.54952,-0.0932 0.74792,-0.85573 1.11192,-1.21726 2.8517,-4.2193 5.1825,-8.78393 8.2355,-12.86347 l 0.041,-0.0392 z m -19.4321,3.47462 c 0.75776,-0.0615 0.9732,0.88647 0.62345,1.42324 -0.38469,0.78303 -1.93943,0.38341 -1.64446,-0.58917 0.0949,-0.46932 0.5308,-0.85819 1.02101,-0.83407 z m 36.8878,0.164 c 0.6747,0.0501 1.0322,0.894 0.5645,1.40672 -0.361,0.75985 -1.4339,0.13696 -1.3324,-0.56082 -0.034,-0.45503 0.2718,-0.89888 0.7679,-0.8459 z"
       style="fill:#914f3b;fill-opacity:1;stroke-width:0.126269" />
    <path
       transform="scale(0.26458333)"
       id="path6170"
       d="m 1009.1946,630.63541 c -1.5404,-0.0382 -2.7116,2.08143 -1.5162,3.22972 1.297,1.3537 3.9466,0.10458 3.7025,-1.75519 -0.127,-1.03229 -1.2741,-1.47302 -2.1863,-1.47453 z m 0.1019,0.9702 c 0.6527,-0.18309 1.5831,0.59176 1.0587,1.22841 -0.4662,0.74619 -1.715,1.02523 -2.1665,0.1275 -0.2969,-0.68369 0.3542,-1.52881 1.1078,-1.35591 z"
       style="fill:#914f3b;fill-opacity:1;stroke-width:0.126269" />
  </g>
</svg>
