<?xml version="1.0" encoding="UTF-8" standalone="no"?>
<svg
   xmlns:dc="http://purl.org/dc/elements/1.1/"
   xmlns:cc="http://creativecommons.org/ns#"
   xmlns:rdf="http://www.w3.org/1999/02/22-rdf-syntax-ns#"
   xmlns:svg="http://www.w3.org/2000/svg"
   xmlns="http://www.w3.org/2000/svg"
   xmlns:sodipodi="http://sodipodi.sourceforge.net/DTD/sodipodi-0.dtd"
   xmlns:inkscape="http://www.inkscape.org/namespaces/inkscape"
   version="1.1"
   id="svg833"
   width="416"
   height="384"
   viewBox="0 0 416 384"
   sodipodi:docname="rank_1.svg"
   inkscape:version="1.0.1 (3bc2e813f5, 2020-09-07)">
  <metadata
     id="metadata839">
    <rdf:RDF>
      <cc:Work
         rdf:about="">
        <dc:format>image/svg+xml</dc:format>
        <dc:type
           rdf:resource="http://purl.org/dc/dcmitype/StillImage" />
        <dc:title />
      </cc:Work>
    </rdf:RDF>
  </metadata>
  <defs
     id="defs837" />
  <sodipodi:namedview
     pagecolor="#ffffff"
     bordercolor="#666666"
     borderopacity="1"
     objecttolerance="10"
     gridtolerance="10"
     guidetolerance="10"
     inkscape:pageopacity="0"
     inkscape:pageshadow="2"
     inkscape:window-width="1366"
     inkscape:window-height="705"
     id="namedview835"
     showgrid="false"
     inkscape:zoom="0.52778042"
     inkscape:cx="182.77002"
     inkscape:cy="31.111047"
     inkscape:window-x="-8"
     inkscape:window-y="324"
     inkscape:window-maximized="1"
     inkscape:current-layer="layer4"
     inkscape:document-rotation="0" />
  <g
     inkscape:groupmode="layer"
     id="layer1"
     inkscape:label="Image 1"
     style="display:inline">
    <path
       style="fill:#f9b857;fill-opacity:1;stroke:#000000;stroke-width:0;stroke-linecap:round;stroke-linejoin:round"
       d="m 215.07658,84.821393 c -3.44533,1.064384 -5.19997,4.839558 -7.72219,7.197203 -8.72319,10.642764 -13.53142,23.753114 -21.29396,35.031694 -11.97526,19.33759 -21.84778,39.93942 -34.78064,58.68409 -1.03239,1.00957 -1.50235,3.83862 -2.71139,3.76308 -11.76016,-8.2877 -22.13686,-18.27425 -33.1704,-27.4539 -9.89945,-7.72078 -20.644304,-14.31978 -29.932624,-22.73026 -1.75093,-1.84474 -4.449902,-2.07275 -6.461314,-0.47645 -2.455294,1.47779 -5.642613,3.43968 -4.745672,6.8175 0.122398,32.86657 -0.789053,65.89214 3.255239,98.57023 1.465189,16.21309 2.454779,32.52854 5.080347,48.58294 0.97438,5.42572 0.97077,11.13058 2.31498,16.40697 2.83538,1.41314 6.5831,0.15045 9.78205,0.45884 5.974974,-0.47167 11.711154,0.72531 17.683574,1.25157 10.65468,-0.80973 21.34778,-0.71445 31.89939,0.36916 9.008,0.48496 18.00834,-1.05047 27.02404,-0.21188 45.466,0.92287 90.95465,0.41751 136.41597,1.45338 3.37335,-0.22148 7.28055,1.29926 10.37822,-0.45791 1.76089,-3.01544 1.53167,-6.89111 2.77363,-10.16936 5.12441,-16.93852 6.80214,-34.6981 9.9735,-52.0784 4.28252,-27.51829 8.21459,-55.11236 10.25959,-82.90112 0.41213,-9.75403 2.95242,-19.76297 0.53675,-29.42138 -0.45484,-2.43948 -3.4682,-4.68263 -5.56299,-2.52198 -12.43579,7.46219 -24.51919,15.64279 -35.0458,25.67798 -8.77803,8.32618 -20.01141,13.3724 -28.45162,22.11762 -2.13224,1.89137 -4.31729,4.45721 -6.5085,5.87014 -5.17471,-11.76971 -11.04747,-23.15951 -16.22823,-34.94329 -5.99892,-12.76757 -13.28364,-24.95031 -18.23228,-38.1687 -4.10559,-9.92373 -8.25471,-19.93774 -13.88094,-29.107989 -0.62942,-0.849572 -1.49351,-1.717105 -2.64873,-1.609778 z m 0.93163,79.909747 c 1.82855,0.89764 0.0178,3.55697 0.18483,5.03808 -1.67852,11.93904 -1.47986,24.07067 -1.73876,36.10561 -0.22578,15.50497 -1.74517,30.96113 -1.70943,46.47773 0.01,7.28366 -0.44471,14.65216 -0.13527,21.88329 2.21214,3.26977 6.97672,1.84001 10.35553,1.79902 1.68592,0.14335 5.5321,-1.23935 5.41619,1.64349 0.0517,3.39007 0.0142,6.9497 -0.73643,10.26742 -11.18864,0.72324 -22.47853,0.18564 -33.65815,0.58955 -3.3325,-0.15982 -6.89368,-0.16603 -10.09358,-1.02253 -0.48875,-2.79591 -1.06903,-5.89229 -0.35711,-8.64006 5.16,-1.50055 10.73506,-0.76056 15.97843,-1.68102 2.45635,-1.96126 1.21059,-5.75005 1.6957,-8.48264 0.34898,-24.88375 1.77389,-49.74088 2.09838,-74.62631 -1.4934,-3.10554 -4.50333,0.23305 -6.36787,1.1842 -1.5012,0.6758 -3.61726,2.62435 -5.24566,1.72727 -1.47096,-2.32397 -3.24749,-4.91608 -3.44437,-7.64459 4.31865,-6.64732 10.83091,-11.43505 16.63179,-16.70844 3.56875,-2.78332 7.1276,-5.8281 11.12578,-7.91007 z"
       id="path852" />
    <path
       style="fill:#f9b857;fill-opacity:1;stroke:#000000;stroke-width:0;stroke-linecap:round;stroke-linejoin:round"
       d="m 75.330252,113.01748 c -6.368023,0.20439 -11.324654,6.6043 -10.504265,12.83197 0.242525,6.17254 7.629045,9.99482 13.172426,8.01466 4.783963,-1.1997 7.043243,-6.25914 6.995173,-10.82555 1.09219,-5.41569 -4.533116,-10.27403 -9.663334,-10.02108 z"
       id="path854" />
    <path
       style="fill:#f9b857;fill-opacity:1;stroke:#000000;stroke-width:0;stroke-linecap:round;stroke-linejoin:round"
       d="m 214.12921,57.879813 c -7.79663,-0.283132 -14.16368,8.932317 -10.47466,16.027469 3.87882,7.296424 15.17764,7.011988 20.07967,0.943663 2.94052,-2.744913 5.30465,-7.2624 2.84024,-11.078789 -2.4439,-4.305 -7.64047,-6.379408 -12.44525,-5.892343 z"
       id="path856" />
    <path
       style="fill:#f9b857;fill-opacity:1;stroke:#000000;stroke-width:0;stroke-linecap:round;stroke-linejoin:round"
       d="m 339.42604,110.25311 c -5.62266,-0.21055 -9.90509,5.12683 -9.57447,10.52369 -0.68688,5.8391 4.53565,11.5735 10.51444,10.71335 6.35094,-0.22921 10.86256,-6.95074 9.35429,-12.95039 -1.20469,-4.48929 -5.29344,-8.8404 -10.29426,-8.28665 z"
       id="path858" />
  </g>
  <g
     inkscape:groupmode="layer"
     id="layer3"
     inkscape:label="Image 3"
     style="display:inline" />
  <g
     inkscape:groupmode="layer"
     inkscape:label="Image"
     id="g841"
     style="display:inline">
    <path
       style="fill:#000000;stroke-width:1"
       d="m 312.86977,314.58383 c -4.01324,-0.62327 -29.34788,-0.96104 -78.08,-1.04098 -47.64549,-0.0782 -62.40972,-0.29411 -70.92657,-1.03742 -1.08161,-0.0944 -4.26796,0.0564 -7.08078,0.3351 -6.36703,0.63087 -12.15975,0.639 -15.91265,0.0223 -4.20371,-0.69075 -17.09577,-1.21883 -20.21303,-0.82795 -1.39389,0.17477 -2.93355,0.46956 -3.42148,0.65507 -1.42015,0.53993 -6.04641,0.39107 -9.25107,-0.29768 -5.66316,-1.21714 -6.92438,-1.28179 -14.879544,-0.76271 -5.97736,0.39002 -7.68959,0.40982 -8.44324,0.0976 -1.52784,-0.63285 -2.0545,-2.15315 -2.48728,-7.17997 -0.43858,-5.09422 -1.300112,-11.63023 -2.425342,-18.4 -1.15174,-6.92923 -1.8543,-14.129 -3.20066,-32.8 -0.26651,-3.696 -0.90936,-10.176 -1.42854,-14.4 -0.92478,-7.52385 -1.88266,-21.66344 -2.61222,-38.56 -0.20358,-4.7149 -0.35502,-19.17208 -0.34109,-32.56138 l 0.0251,-24.08139 0.87677,-1.6109 c 1.16329,-2.13735 3.22075,-3.98298 5.76995,-5.17589 2.655922,-1.24286 4.451002,-1.46294 5.898702,-0.7232 0.60116,0.30718 2.24502,1.65871 3.65302,3.00338 3.51557,3.35746 7.65931,6.62041 14.080004,11.08717 9.70169,6.74929 11.62497,8.12846 13.99114,10.03301 2.7578,2.21976 9.89549,8.4799 15.92886,13.97046 2.376,2.16224 6.12,5.3304 8.32,7.04035 2.2,1.70996 4.648,3.64016 5.44,4.28934 0.792,0.64917 1.6068,1.27712 1.81067,1.39544 0.23287,0.13515 0.84828,-0.65513 1.65547,-2.12587 0.70664,-1.28754 1.90784,-3.10959 2.66933,-4.04899 3.74118,-4.61526 10.50258,-15.81974 18.35198,-30.41153 4.11719,-7.65372 7.71721,-13.9142 11.50078,-20 1.96957,-3.168 4.41668,-7.2 5.43804,-8.96 1.02135,-1.76 2.113,-3.488 2.4259,-3.84 0.3129,-0.352 1.9412,-3.448 3.61845,-6.88 3.23502,-6.61951 6.93549,-12.920342 10.21502,-17.393238 2.3605,-3.219443 7.71289,-9.147286 8.80626,-9.75304 1.36057,-0.753795 3.93899,-0.814854 5.04046,-0.11936 2.29264,1.447622 9.43158,15.769248 15.07935,30.251088 0.94923,2.434 2.23972,5.4458 2.86775,6.6929 0.62802,1.24709 1.6401,3.57564 2.24904,5.17455 0.60895,1.59891 2.38026,5.2831 3.93625,8.1871 5.89224,10.99695 14.41771,28.75384 14.41475,30.02312 -2.8e-4,0.11928 1.79557,3.81688 3.99077,8.21688 2.19521,4.4 4.54212,9.2727 5.21536,10.82822 0.67323,1.55553 1.36138,2.79591 1.52922,2.75641 0.16783,-0.0395 2.80254,-2.4642 5.8549,-5.38822 5.83784,-5.59237 8.5259,-7.69972 14.12368,-11.07245 4.33345,-2.61095 7.25989,-4.85961 12.56748,-9.65675 6.98629,-6.3144 9.98727,-8.90793 12.61907,-10.90577 3.89898,-2.95978 21.24805,-14.48019 21.82424,-14.49208 0.5122,-0.0106 2.16109,-1.19685 1.92112,-1.38213 -0.069,-0.0532 -0.6126,-0.29107 -1.20816,-0.52856 -3.32297,-1.32508 -5.70076,-4.7321 -6.43872,-9.22578 -0.51244,-3.12056 -0.19238,-5.33929 1.16032,-8.04315 2.98605,-5.9688 9.90039,-8.29632 15.53514,-5.2295 2.03725,1.1088 4.61126,3.91004 5.6785,6.17976 0.72582,1.54357 0.82758,2.17318 0.82758,5.12 0,2.96165 -0.1,3.57321 -0.84326,5.1584 -1.56445,3.3365 -4.10189,5.4919 -7.892,6.70375 -1.00362,0.32089 -1.65082,0.59118 -1.43824,0.60064 0.78256,0.0348 1.99273,2.77456 2.55481,5.78373 0.74803,4.00487 0.69283,9.63723 -0.17241,17.59348 -0.37325,3.432 -1.04103,10.776 -1.48394,16.32 -1.07885,13.50447 -2.2368,24.91329 -3.39405,33.44 -4.08899,30.12866 -6.85731,48.33502 -9.22969,60.70092 -0.5298,2.76151 -1.33268,7.94551 -1.7842,11.52 -0.91603,7.25196 -1.3415,9.25463 -3.83641,18.05818 -0.95376,3.36551 -2.10375,8.18951 -2.55552,10.72 -0.45175,2.5305 -0.98199,5.00369 -1.17831,5.49599 -0.68595,1.7202 -2.85162,2.15337 -7.30678,1.46147 z m 5.19766,-7.23656 c 0.45143,-2.42 1.20045,-5.624 1.66448,-7.12 2.69866,-8.70035 4.04554,-14.63577 4.97421,-21.92 0.5161,-4.048 1.15034,-8.368 1.40941,-9.6 1.8359,-8.72991 4.18787,-23.58316 7.5247,-47.52 3.37527,-24.21251 4.03239,-30.04848 5.47661,-48.64 0.36231,-4.664 0.94458,-11.144 1.29395,-14.4 0.9737,-9.07476 1.10106,-13.66618 0.48308,-17.41659 -0.62048,-3.76567 -1.0177,-4.70727 -2.15434,-5.10701 -0.71699,-0.25216 -1.04691,-0.14155 -2.12531,0.71255 -0.70211,0.55608 -1.45466,1.01105 -1.67235,1.01105 -0.21767,0 -5.02096,3.08106 -10.67396,6.8468 -10.579,7.04721 -11.21436,7.55163 -23.45388,18.62027 -4.62515,4.18269 -7.40888,6.25861 -12.88889,9.61166 -5.79533,3.54599 -9.00086,6.1576 -16.92545,13.78947 l -5.38719,5.1882 -1.54583,-3.9082 c -0.85021,-2.14951 -3.4572,-7.6522 -5.79332,-12.2282 -2.33612,-4.576 -5.13796,-10.552 -6.22633,-13.28 -2.11,-5.28874 -7.54302,-16.38247 -12.56802,-25.66272 -3.25459,-6.01065 -3.63439,-6.80921 -4.91636,-10.33728 -0.44766,-1.232 -1.43128,-3.4724 -2.18581,-4.97868 -0.75454,-1.50627 -2.11954,-4.67427 -3.03335,-7.04 -3.58717,-9.28676 -7.72625,-18.281236 -10.99512,-23.893098 -1.95238,-3.351751 -2.39406,-3.912957 -3.08513,-3.92 -0.6293,-0.0064 -1.57862,0.845177 -4.32,3.875232 -1.9324,2.135897 -3.92065,4.403897 -4.41833,5.04 -2.28882,2.925443 -7.88111,12.468566 -10.57468,18.045466 -1.63398,3.3831 -3.37299,6.62462 -3.86447,7.20339 -0.49148,0.57877 -2.43618,3.60277 -4.32155,6.72 -1.88538,3.11723 -4.65713,7.68369 -6.15946,10.14769 -1.50232,2.464 -5.69377,9.90311 -9.31432,16.53135 -7.95926,14.57123 -14.17322,24.9084 -17.74938,29.52678 -0.9633,1.24403 -2.22642,3.23509 -2.80694,4.4246 -0.58053,1.18949 -1.36192,2.65852 -1.73644,3.2645 l -0.68093,1.10178 -5.18348,-4.09204 c -2.85091,-2.25062 -6.04748,-4.67641 -7.10348,-5.39064 -1.056,-0.71424 -4.37492,-3.50986 -7.37539,-6.21248 -13.90591,-12.52554 -15.81169,-14.08133 -25.42461,-20.75547 -4.136,-2.87158 -8.893454,-6.26007 -10.572104,-7.52999 -2.85434,-2.15933 -9.62058,-8.06461 -10.06579,-8.78499 -0.66348,-1.07353 -4.335762,0.4482 -6.566692,2.72111 l -1.43542,1.46244 -0.0979,22.14652 c -0.13577,30.72384 0.87743,56.72817 2.81415,72.22653 0.51685,4.136 1.16521,10.616 1.4408,14.4 1.453192,19.95309 1.946942,24.94449 3.355392,33.92 1.37,8.73046 1.55997,10.15438 2.21095,16.57185 0.32648,3.21851 0.64875,5.90698 0.71615,5.97439 0.0674,0.0674 3.21807,-0.0884 7.00149,-0.34627 7.600144,-0.51795 8.720114,-0.46501 15.157644,0.71653 4.90284,0.89987 6.80933,0.89258 10.9213,-0.0417 2.37505,-0.53965 3.19578,-0.55446 11.36,-0.20499 4.84,0.20719 10.096,0.60462 11.68,0.88318 3.13768,0.55181 8.90761,0.46873 15.17692,-0.21852 1.8353,-0.20118 4.7153,-0.27932 6.4,-0.17362 12.61163,0.7912 24.11961,0.95525 71.54308,1.01983 54.84453,0.0747 71.31857,0.27253 76.64,0.92042 1.848,0.225 3.80479,0.42931 4.34842,0.45401 l 0.98841,0.0449 z M 191.74977,290 c -0.704,-0.14613 -2.85084,-0.37001 -4.77076,-0.49751 -4.84166,-0.32151 -4.82344,-0.29897 -5.09662,-6.30423 l -0.2076,-4.5637 0.90286,-0.90287 c 0.89943,-0.89942 0.92531,-0.90397 6.79749,-1.19555 6.47763,-0.32165 9.90482,-0.5974 10.27598,-0.82679 0.13291,-0.0821 0.23438,-2.69921 0.2255,-5.81571 -0.0161,-5.63474 0.17182,-15.66729 0.51659,-27.58637 0.0993,-3.432 0.2509,-8.832 0.33695,-12 0.0861,-3.168 0.29991,-7.56 0.47523,-9.76 0.17533,-2.2 0.38786,-8.392 0.47229,-13.76 0.0844,-5.368 0.23555,-10.516 0.33583,-11.44 0.10027,-0.924 0.0908,-1.68 -0.021,-1.68 -0.11183,0 -1.59819,0.98755 -3.30302,2.19455 -1.70484,1.207 -3.58918,2.359 -4.18745,2.56 -1.4262,0.47916 -2.98109,0.46436 -3.63093,-0.0345 -0.84735,-0.65055 -4.40131,-7.55964 -4.40131,-8.55639 0,-0.93954 1.24423,-2.80798 3.56698,-5.35646 0.67816,-0.74407 1.23302,-1.47566 1.23302,-1.62576 0,-0.15009 0.66237,-0.74858 1.47194,-1.32996 0.80956,-0.58139 3.22156,-2.7298 5.36,-4.77425 4.53453,-4.33524 5.50274,-5.14661 11.82749,-9.91155 3.92621,-2.95793 4.92346,-3.56563 5.85125,-3.56563 2.27082,0 3.30645,2.22118 2.25708,4.84092 -1.21293,3.02809 -1.92073,14.07011 -2.00758,31.31908 -0.0403,8.008 -0.18545,16.216 -0.3225,18.24 -0.13705,2.024 -0.26253,3.896 -0.27883,4.16 -0.0163,0.264 -0.12687,1.416 -0.24569,2.56 -0.11883,1.144 -0.29017,3.664 -0.38075,5.6 -0.0906,1.936 -0.30664,5.99625 -0.48014,9.02279 -0.1735,3.02654 -0.33467,12.09191 -0.35816,20.14528 l -0.0427,14.64249 0.72525,0.58727 c 0.65481,0.53023 1.19421,0.57073 5.5543,0.417 2.65597,-0.0936 5.33305,-0.29003 5.94905,-0.43642 1.50769,-0.35831 2.79218,0.12354 3.38492,1.26978 0.4009,0.77526 0.45426,1.8883 0.30627,6.38895 -0.19194,5.83741 -0.49608,7.07392 -1.84768,7.51201 -0.39793,0.12898 -7.56351,0.26278 -15.92351,0.29733 -8.36,0.0345 -16.064,0.14587 -17.12,0.24738 -1.056,0.10151 -2.496,0.065 -3.2,-0.0811 z M 342.19934,129.83042 c 3.42518,-1.01717 5.59181,-3.5198 6.24179,-7.20981 0.26374,-1.49738 0.25587,-2.42542 -0.0314,-3.70938 -0.5055,-2.2588 -2.68544,-5.22289 -4.72128,-6.41955 -1.31923,-0.77539 -1.88112,-0.90441 -3.93872,-0.90441 -2.80659,0 -4.14909,0.54439 -6.06352,2.45881 -1.88701,1.88702 -2.69258,4.28088 -2.4569,7.30119 0.27924,3.57867 0.70016,4.69021 2.43184,6.42189 2.3377,2.3377 5.24432,3.03942 8.53815,2.06126 z m -271.464346,5.63669 c -6.40439,-2.37781 -9.30625,-8.65201 -7.01031,-15.15723 1.96127,-5.55697 6.5187,-8.94133 12.06435,-8.95903 1.94448,-0.006 2.79968,0.15721 4.21605,0.80564 3.977352,1.8209 6.734702,5.70182 6.757282,9.51078 0.0164,2.75868 -0.54692,5.91675 -1.41541,7.9356 -0.88163,2.0494 -3.24915,4.30965 -5.687412,5.4297 -2.47631,1.13754 -6.50303,1.3336 -8.92455,0.43454 z m 7.50115,-3.09531 c 3.414462,-1.42665 4.730632,-3.49809 5.265842,-8.28755 l 0.38351,-3.43193 -0.91084,-1.73967 c -2.701172,-5.15918 -8.949942,-6.11611 -13.397122,-2.05164 -4.03961,3.69198 -4.77198,9.86289 -1.57079,13.2355 2.75563,2.9032 6.65226,3.76991 10.2294,2.27529 z M 209.18977,80.389716 c -7.08107,-2.611159 -10.18552,-9.715124 -7.13295,-16.322442 1.44133,-3.11977 3.17766,-4.873306 6.41286,-6.47641 l 2.75184,-1.36359 3.86413,0.0049 c 3.64213,0.0046 4.002,0.06434 6.26412,1.039798 3.65646,1.57672 5.39525,3.047812 6.72,5.685389 0.97223,1.935712 1.11734,2.525469 1.09982,4.469927 -0.0235,2.604454 -0.85939,4.803686 -2.49344,6.56 -0.57311,0.616 -1.58062,1.8003 -2.23889,2.631776 -0.90686,1.145475 -1.86423,1.842473 -3.95118,2.876595 -2.65357,1.314896 -2.87835,1.36808 -6.14531,1.453949 -2.76902,0.07278 -3.71382,-0.02992 -5.151,-0.559879 z m 7.52,-2.677434 c 2.42825,-0.648643 4.08107,-1.61425 5.37784,-3.141834 0.6458,-0.760745 1.60292,-1.815174 2.12692,-2.343174 2.7602,-2.781229 2.53969,-7.399133 -0.47992,-10.050387 -3.66191,-3.2152 -9.82528,-4.01904 -14.12184,-1.841805 -1.92207,0.973981 -4.09701,3.275594 -4.97857,5.268509 -0.79703,1.801824 -0.8786,5.122176 -0.16722,6.806957 1.83766,4.352188 7.16348,6.658534 12.24279,5.301734 z"
       id="path845" />
  </g>
  <g
     inkscape:groupmode="layer"
     id="layer2"
     inkscape:label="Image 2"
     style="display:inline;opacity:0.496403">
    <path
       style="fill:#914f3b;fill-opacity:1;stroke:#000000;stroke-width:0;stroke-linecap:round;stroke-linejoin:round"
       d="m 212.39021,55.795289 c -5.63684,1.182238 -10.84171,5.674323 -11.6256,11.610497 -1.51771,7.758346 6.44845,15.209336 14.10503,13.807345 7.01118,-0.398342 13.55774,-6.218933 14.57682,-13.171501 0.37423,-6.378002 -5.46458,-11.439102 -11.52842,-11.863324 -1.82965,-0.239674 -3.68106,-0.427595 -5.52783,-0.383017 z m 2.28145,3.877345 c 4.63437,-0.179948 10.91934,2.272944 11.03068,7.651997 -0.26564,4.056692 -3.8947,7.075633 -7.01549,9.150757 -5.14928,2.744234 -13.029,0.593335 -14.12349,-5.685108 -1.15641,-5.690773 4.42776,-11.502509 10.1083,-11.117646 z"
       id="path869" />
    <path
       style="fill:#914f3b;fill-opacity:1;stroke:#000000;stroke-width:0;stroke-linecap:round;stroke-linejoin:round"
       d="m 75.577572,111.09949 c -7.687365,0.038 -13.88959,7.70409 -12.767206,15.22813 0.590908,7.00764 8.900204,11.97234 15.433517,9.42738 5.357163,-1.60448 8.986303,-6.95171 8.615083,-12.51279 1.00145,-6.523 -4.85254,-12.39158 -11.281394,-12.14272 z m 0.656863,3.65901 c 4.439316,0.28438 8.242141,4.9609 6.866541,9.38204 -0.26306,4.07827 -3.008461,8.15949 -7.412385,8.40878 -5.881331,1.13501 -11.130429,-5.66354 -8.653945,-11.11395 1.436194,-3.67864 5.083109,-6.87724 9.199789,-6.67687 z"
       id="path871" />
    <path
       style="fill:#914f3b;fill-opacity:1;stroke:#000000;stroke-width:0;stroke-linecap:round;stroke-linejoin:round"
       d="m 215.0445,82.714665 c -4.32935,0.415169 -6.46042,4.976487 -9.20257,7.772268 -9.04448,11.178017 -14.1466,24.826647 -22.1326,36.701087 -12.14558,19.55059 -21.79301,40.67657 -35.62235,59.13252 -1.27927,0.13339 -2.57871,-1.95387 -3.82183,-2.56362 -13.60783,-10.80681 -25.80505,-23.37523 -40.42394,-32.89129 -6.649804,-4.46941 -12.651144,-9.77283 -18.905644,-14.74797 -3.19989,-1.64376 -6.877314,0.81884 -9.438483,2.69407 -2.30504,1.90513 -4.204425,4.55057 -3.482302,7.6964 0.03591,32.49424 -0.607671,65.11303 3.283393,97.43599 1.579395,16.90654 2.519174,33.89906 5.317916,50.65871 0.945226,5.36672 0.817656,11.02831 2.668986,16.19426 1.27077,2.85197 5.03638,0.71422 7.42194,1.21076 6.5349,-0.49314 13.077284,-0.2126 19.522004,0.96344 6.28549,0.91085 12.39455,-1.4767 18.66229,-0.53176 24.80884,1.46749 49.68255,0.6766 74.51916,1.14381 36.34482,0.36701 72.69663,0.52282 109.03393,1.32424 2.6418,0.24419 7.22018,1.14538 7.97488,-2.40635 2.45994,-9.71928 5.06637,-19.41735 6.99236,-29.27113 6.06899,-37.77179 12.56887,-75.54487 15.43482,-113.73221 0.59014,-11.03344 3.37064,-22.39736 0.39466,-33.30899 0.0298,-1.17073 -2.45801,-2.84828 -0.24794,-3.05673 5.01472,-1.58327 9.17988,-6.4007 8.65857,-11.8735 0.63228,-5.29787 -3.07547,-10.1563 -7.69641,-12.29075 -5.96232,-2.33337 -13.28204,0.90927 -15.30954,7.04047 -2.47186,6.21416 0.2725,14.20966 6.55105,16.9184 -11.74862,7.38834 -23.59381,14.83089 -33.7306,24.40681 -6.35959,5.94296 -13.51337,10.85124 -20.72315,15.64979 -4.8434,3.7667 -9.2394,8.06288 -13.76938,12.19087 -8.09336,-16.26518 -15.25191,-32.97079 -23.5962,-49.11653 -8.73142,-16.49777 -14.04774,-34.65208 -23.7248,-50.671203 -0.97526,-1.731687 -2.50484,-2.993921 -4.60822,-2.671862 z m 0.1471,3.911576 c 3.02262,2.321632 4.01842,6.493006 5.94454,9.66427 7.55496,15.590609 13.23694,32.061889 21.59643,47.290859 7.33814,14.28863 13.71686,29.04604 20.70056,43.50612 0.94951,1.16192 0.79958,4.24071 2.66816,4.07256 7.78269,-7.03512 15.21678,-14.59287 24.33356,-19.952 11.22573,-7.25147 19.8446,-17.81057 31.27956,-24.80137 5.62518,-3.48114 10.84637,-7.79565 16.93607,-10.42224 2.3379,2.01586 1.8021,5.80447 2.12448,8.6196 -0.23072,13.18456 -2.06536,26.32834 -3.04502,39.49979 -2.55377,26.18956 -6.46944,52.26296 -10.78577,78.20771 -2.30079,12.60889 -3.58474,25.41508 -7.44949,37.6941 -1.16288,3.66582 -1.62373,7.61264 -2.77512,11.22165 -3.64082,-0.0264 -7.37204,-0.69464 -11.07402,-0.49907 -53.74613,-0.86516 -107.50108,-1.09333 -161.25019,-1.57008 -8.38375,0.17031 -16.76429,-1.4628 -25.12618,-0.58236 -6.20197,1.8922 -12.42681,-0.88103 -18.70488,-0.55695 -4.734994,-0.0575 -9.469464,0.0883 -14.203984,0.13508 -2.24456,-17.77529 -4.91259,-35.54497 -6.072576,-53.47179 -1.762823,-19.10027 -4.006197,-38.12479 -3.94176,-57.33214 -0.258661,-18.00153 -0.318628,-36.00519 -0.476973,-54.00774 2.057606,-1.5115 4.176615,-3.58295 6.700929,-4.04018 8.47198,7.20108 17.436124,13.79131 26.501064,20.22912 12.55373,9.2954 23.45656,20.64319 36.15907,29.73104 1.90437,1.47315 4.71946,4.88289 5.66871,0.67453 6.41838,-10.06334 13.00858,-20.05071 18.66018,-30.60239 7.7318,-14.11476 15.94088,-27.96284 24.37525,-41.66155 5.94317,-10.98656 11.43452,-22.81634 21.15008,-31.009563 0.0353,-0.0076 0.0686,-0.04442 0.10732,-0.03701 z m 125.66076,25.515899 c 3.72323,0.28831 6.55663,4.05131 7.18479,7.53543 1.16407,5.82942 -4.70275,11.4915 -10.46726,9.99358 -3.72345,-1.06016 -6.26902,-4.71523 -5.80271,-8.59654 -0.38701,-3.95708 1.90334,-8.41524 6.25419,-8.71598 0.93448,-0.16063 1.88369,-0.21892 2.83099,-0.21649 z"
       id="path873" />
    <path
       style="opacity:0.107914;fill:#914f3b;fill-opacity:1;stroke:#000000;stroke-width:0;stroke-linecap:round;stroke-linejoin:round"
       d="m 215.92688,162.88004 c -3.0912,0.52097 -5.28046,3.20539 -7.81964,4.83687 -6.09915,4.77537 -11.9044,9.94477 -17.4152,15.38081 -1.64791,2.14161 -4.23324,4.09635 -4.55617,6.9278 0.84664,3.03506 2.51322,5.86876 4.36212,8.40237 2.43209,1.75753 5.47984,-0.33755 7.58726,-1.67929 1.13319,-0.74835 2.261,-1.51003 3.45476,-2.16013 -0.25924,19.79945 -1.63579,39.56865 -1.83692,59.37628 -0.17227,7.08268 -0.13998,14.23112 -0.55741,21.26729 -5.23455,1.08315 -10.68821,0.41502 -15.88496,1.61911 -1.81529,0.44003 -2.19127,2.07761 -1.87166,3.7458 0.20499,2.75047 -0.31973,5.93066 1.25084,8.34488 3.70635,1.59721 7.98168,1.0399 11.93265,1.2895 11.01946,0.0246 22.06841,0.34209 33.06951,-0.337 2.58719,-0.38677 2.26535,-3.71273 2.44614,-5.66759 -0.13217,-2.953 0.59325,-6.10635 -0.36517,-8.94367 -1.74525,-2.41432 -5.08995,-0.83514 -7.52189,-1.12649 -2.61561,-0.21968 -5.67639,0.98653 -7.99411,-0.63916 0.26757,-17.405 0.16639,-34.84747 1.63478,-52.18395 0.74391,-16.02859 0.24755,-32.15161 1.67178,-48.11028 0.0423,-2.77872 1.6361,-5.46533 1.08761,-8.22751 -0.33919,-1.19361 -1.36601,-2.20473 -2.67432,-2.11564 z"
       id="path875" />
  </g>
  <g
     inkscape:groupmode="layer"
     id="layer4"
     inkscape:label="Image 4"
     style="display:inline" />
</svg>
