<?xml version="1.0" encoding="UTF-8" standalone="no"?>
<svg
   xmlns:dc="http://purl.org/dc/elements/1.1/"
   xmlns:cc="http://creativecommons.org/ns#"
   xmlns:rdf="http://www.w3.org/1999/02/22-rdf-syntax-ns#"
   xmlns:svg="http://www.w3.org/2000/svg"
   xmlns="http://www.w3.org/2000/svg"
   xmlns:sodipodi="http://sodipodi.sourceforge.net/DTD/sodipodi-0.dtd"
   xmlns:inkscape="http://www.inkscape.org/namespaces/inkscape"
   version="1.1"
   id="svg5803"
   width="416"
   height="384"
   viewBox="0 0 416 384"
   sodipodi:docname="rank_3.svg"
   inkscape:version="1.0.1 (3bc2e813f5, 2020-09-07)">
  <metadata
     id="metadata5809">
    <rdf:RDF>
      <cc:Work
         rdf:about="">
        <dc:format>image/svg+xml</dc:format>
        <dc:type
           rdf:resource="http://purl.org/dc/dcmitype/StillImage" />
        <dc:title></dc:title>
      </cc:Work>
    </rdf:RDF>
  </metadata>
  <defs
     id="defs5807" />
  <sodipodi:namedview
     pagecolor="#ffffff"
     bordercolor="#666666"
     borderopacity="1"
     objecttolerance="10"
     gridtolerance="10"
     guidetolerance="10"
     inkscape:pageopacity="0"
     inkscape:pageshadow="2"
     inkscape:window-width="1280"
     inkscape:window-height="971"
     id="namedview5805"
     showgrid="false"
     inkscape:zoom="0.67672329"
     inkscape:cx="130.27864"
     inkscape:cy="130.51511"
     inkscape:window-x="-8"
     inkscape:window-y="-8"
     inkscape:window-maximized="1"
     inkscape:current-layer="layer13" />
  <g
     inkscape:groupmode="layer"
     id="layer12"
     inkscape:label="Image 1">
    <path
       style="opacity:1;fill:#b08567;fill-opacity:1;stroke:#000000;stroke-width:0;stroke-linecap:round;stroke-linejoin:round"
       d="m 217.26604,90.048738 c -7.66212,3.404949 -11.35748,12.194252 -15.98194,18.755062 -16.55859,28.51636 -32.55296,57.30523 -50.05275,85.23882 -21.0228,-15.14713 -39.8648,-33.3191 -61.283304,-48.10778 -2.969222,-4.07504 -8.260484,-4.33853 -11.662649,-0.77139 -4.142055,4.41715 -0.664884,12.14961 -1.655985,17.87738 0.511457,33.39821 0.45941,66.88059 4.618676,100.07806 1.859629,16.25791 2.604588,32.89537 6.166935,48.82577 4.667303,3.64004 11.62831,0.84572 17.099987,1.75735 71.22391,0.69116 142.46665,0.89695 213.65307,3.19366 4.35324,-3.17303 3.12364,-10.24928 5.4402,-14.82005 8.13764,-37.88891 13.26629,-76.41494 17.79607,-114.89392 1.10528,-15.34428 4.09868,-30.98413 1.7372,-46.30439 -2.18974,-5.15455 -7.74783,0.70833 -10.68429,2.07961 -17.84727,11.177 -32.91587,25.9231 -50.20142,37.78774 -4.88047,3.73983 -9.09813,8.24493 -13.89387,12.08163 -10.72811,-21.97367 -21.6169,-44.17646 -32.0796,-66.30816 -5.71642,-12.01664 -9.66112,-25.2359 -17.42041,-36.093882 -0.46987,-0.301453 -1.04234,-0.425133 -1.59592,-0.37551 z m -6.6102,87.704082 c 11.97695,0.16054 25.06247,6.20714 28.47755,18.57143 2.83857,11.06652 -7.64653,19.56953 -14.15963,26.89929 -3.87329,3.08179 -11.77663,11.31188 -1.47721,10.27698 8.91915,0.075 19.40745,1.74017 23.95929,10.53598 2.71492,6.82216 2.01745,14.72045 0.15919,21.68163 -7.1275,18.77687 -26.48352,27.75908 -42.27923,38.02597 -2.04827,1.31299 -5.11852,3.95911 -5.81873,-0.11169 -0.91826,-3.07627 -3.13599,-7.8721 -1.37151,-10.13935 14.68559,-5.39897 31.44395,-14.31274 35.30416,-30.81371 1.07883,-7.9419 -3.07374,-18.00101 -12.30204,-17.98163 -10.55486,-0.7698 -20.29127,4.19142 -29.55715,8.33265 -2.14852,-2.60889 -5.90741,-7.03653 -4.07143,-10.62245 13.12973,-10.35238 27.30395,-20.69992 35.82246,-35.45102 3.29544,-6.68001 -1.3413,-14.81163 -8.66735,-15.54082 -13.47472,-2.15868 -26.1369,5.87071 -35.49388,14.78164 -1.00475,-3.48919 -6.59357,-7.02894 -4.82857,-10.88776 9.3399,-9.67087 22.69369,-17.74736 36.30408,-17.55714 z"
       id="path6383" />
    <path
       style="opacity:1;fill:#b08567;fill-opacity:1;stroke:#000000;stroke-width:0;stroke-linecap:round;stroke-linejoin:round"
       d="m 217.1355,61.908084 c -6.94534,-0.28178 -13.69586,6.174963 -12.24184,13.29898 1.05303,5.370614 6.84819,8.805011 12.13061,7.879592 6.26002,0.07794 11.03854,-5.654628 12.50408,-11.270409 -0.15017,-6.090135 -6.72217,-10.259299 -12.39285,-9.908163 z"
       id="path6385" />
    <path
       style="opacity:1;fill:#b08567;fill-opacity:1;stroke:#000000;stroke-width:0;stroke-linecap:round;stroke-linejoin:round"
       d="m 341.59978,114.16727 c -7.01077,0.24608 -12.34335,8.56457 -9.00102,14.95 1.635,4.34951 6.27596,7.3566 10.92653,6.05918 8.08064,-0.88245 11.10464,-12.32958 5.2398,-17.55714 -1.82249,-2.01217 -4.3661,-3.57353 -7.16531,-3.45204 z"
       id="path6387" />
    <path
       style="opacity:1;fill:#b08567;fill-opacity:1;stroke:#000000;stroke-width:0;stroke-linecap:round;stroke-linejoin:round"
       d="m 77.26713,117.26421 c -8.280869,-0.0571 -13.973455,11.26851 -8.123469,17.49489 3.055977,3.18816 8.274779,5.09608 12.222449,2.2847 4.165246,-1.59362 5.649068,-6.13543 5.467347,-10.2449 0.610389,-5.43869 -4.300219,-9.84815 -9.566327,-9.53469 z"
       id="path6389" />
  </g>
  <g
     inkscape:groupmode="layer"
     inkscape:label="Image"
     id="g5811">
    <path
       style="fill:#000000;stroke-width:1"
       d="m 314.56,318.62431 c -3.98989,-0.61964 -29.27386,-0.95596 -78.08,-1.03858 -47.50124,-0.0804 -64.04109,-0.32312 -70.5952,-1.03587 -0.89937,-0.0978 -3.94172,0.0507 -6.76079,0.33004 -6.3833,0.63248 -12.80088,0.64169 -16.56401,0.0238 -4.12589,-0.67747 -16.70652,-1.19899 -19.69775,-0.81654 -1.32976,0.17002 -2.81514,0.4602 -3.30083,0.64487 -1.45613,0.55362 -6.6563,0.39529 -9.887,-0.30102 -5.44325,-1.17318 -6.69146,-1.23374 -14.863265,-0.72111 -10.24597,0.64275 -9.97206,0.81807 -10.62729,-6.80213 -0.43784,-5.09208 -1.29894,-11.62612 -2.42485,-18.4 -1.15174,-6.92923 -1.8543,-14.129 -3.20066,-32.8 -0.26651,-3.696 -0.90936,-10.176 -1.42854,-14.4 -0.92406,-7.51801 -1.88001,-21.62403 -2.61316,-38.56 -0.20579,-4.75363 -0.35608,-19.2098 -0.34202,-32.89752 l 0.0251,-24.41752 0.79319,-1.35349 c 2.29893,-3.92281 7.91643,-6.996 11.25594,-6.15784 0.46582,0.11691 2.11088,1.4104 3.6557,2.87442 3.8127,3.61329 7.78851,6.75082 14.255455,11.24975 9.70169,6.74928 11.62496,8.12846 13.99113,10.033 2.7578,2.21977 9.89549,8.4799 15.92887,13.97046 2.376,2.16224 6.048,5.27849 8.16,6.925 2.112,1.64651 4.776,3.72815 5.92,4.62587 l 2.08,1.63221 1.37553,-2.46542 c 0.75654,-1.35598 1.99929,-3.17847 2.76166,-4.04997 2.60079,-2.9731 10.12529,-15.41027 16.82444,-27.80895 5.36254,-9.9249 8.80491,-15.94411 12.6184,-22.06409 1.97949,-3.17676 4.42571,-7.21592 5.43603,-8.97592 1.01032,-1.76 2.0993,-3.488 2.41995,-3.84 0.32064,-0.352 2.0782,-3.664 3.90569,-7.36 5.18844,-10.49341 9.12664,-16.504001 15.23004,-23.244601 3.49742,-3.86254 4.30954,-4.38674 6.8437,-4.41734 2.14732,-0.0259 2.93208,0.78729 6.00086,6.21855 3.71719,6.57883 7.07908,13.919011 11.1154,24.268841 0.94923,2.434 2.23972,5.4458 2.86775,6.6929 0.62802,1.24709 1.63902,3.57564 2.24667,5.17454 0.60764,1.59891 2.45022,5.42711 4.09462,8.50711 6.09103,11.40862 11.29356,22.18829 14.20845,29.44 0.53058,1.32 2.75196,6 4.93639,10.4 2.18443,4.4 4.37357,8.96532 4.86475,10.14517 l 0.89306,2.14516 5.87839,-5.64918 c 6.12968,-5.89067 8.80326,-7.99783 14.51164,-11.43719 4.33344,-2.61095 7.25989,-4.85961 12.56748,-9.65675 6.99184,-6.31941 9.98827,-8.90875 12.61907,-10.90466 4.39462,-3.33405 20.79458,-14.16255 21.44943,-14.16255 0.57088,0 1.97782,-1.16101 1.66195,-1.37146 -0.0723,-0.0481 -0.63536,-0.31807 -1.25136,-0.59984 -3.09274,-1.41471 -5.32826,-4.61228 -6.08026,-8.69688 -0.87536,-4.75471 0.35757,-8.90254 3.52768,-11.86781 2.50327,-2.34149 4.69108,-3.22401 7.99258,-3.22401 2.31434,0 2.98515,0.13021 4.49776,0.87308 2.21962,1.09009 5.19242,4.04357 6.25949,6.21877 1.57408,3.20881 1.55075,7.90269 -0.0557,11.20497 -1.08528,2.23092 -4.08982,4.97824 -6.38253,5.83604 -0.9807,0.36693 -2.00099,0.66714 -2.26736,0.66714 -0.36729,0 -0.28934,0.25559 0.32275,1.05809 1.57335,2.06276 2.62068,8.38242 2.31412,13.96373 -0.11172,2.034 -0.49546,6.43418 -0.8528,9.77818 -0.35732,3.344 -1.0072,10.616 -1.44416,16.16 -1.45437,18.45203 -2.04477,23.62789 -5.60301,49.12 -2.85149,20.42857 -4.44599,30.64221 -6.54435,41.92 -0.78592,4.224 -1.79258,10.56 -2.23703,14.08 -0.89232,7.06724 -1.23046,8.64435 -3.81881,17.81068 -0.97696,3.45987 -2.16752,8.49987 -2.6457,11.2 -0.76195,4.30266 -0.97712,5.01806 -1.74144,5.78932 -0.7937,0.80092 -1.06838,0.87595 -3.05667,0.83494 -1.20153,-0.0248 -2.97661,-0.16805 -3.94461,-0.31839 z m 4.61317,-3.87655 c 0.0799,-0.396 0.38284,-2.088 0.6731,-3.76 0.29024,-1.672 0.79555,-3.76 1.12291,-4.64 0.66442,-1.78606 3.50557,-11.92758 4.28589,-15.29855 0.27738,-1.19819 0.87555,-5.08619 1.32931,-8.64 0.45373,-3.5538 1.23639,-8.62145 1.7392,-11.26145 2.40877,-12.64735 7.53821,-46.77672 10.05162,-66.88 0.68634,-5.48982 2.00477,-19.3429 2.58864,-27.2 0.27466,-3.696 0.87702,-10.32 1.33859,-14.72 0.46157,-4.4 0.83997,-9.8 0.8409,-12 0.003,-4.46919 -0.71482,-9.00451 -1.57264,-9.95239 -0.8128,-0.89814 -2.10189,-0.76319 -3.1489,0.32963 -0.49385,0.51549 -1.1328,0.9207 -1.41987,0.90047 -0.28704,-0.0202 -5.09293,3.01448 -10.67971,6.74379 -9.04383,6.03697 -10.79429,7.35072 -15.96179,11.97953 -12.87275,11.53084 -13.65599,12.15916 -19.76516,15.85587 -6.36483,3.8514 -8.35537,5.4503 -16.24657,13.05005 -6.02261,5.80019 -7.14869,6.72628 -7.14869,5.87913 0,-0.997 -3.67783,-9.19818 -7.46743,-16.6516 -2.37849,-4.67804 -5.08562,-10.51004 -6.01586,-12.96 -1.77852,-4.68411 -4.90924,-11.04037 -11.96604,-24.29448 -2.34266,-4.4 -4.69271,-9.24255 -5.22234,-10.76123 -0.52963,-1.51867 -1.60355,-4.03867 -2.38648,-5.6 -0.78294,-1.56132 -2.67351,-5.97711 -4.20128,-9.81287 -2.98134,-7.48522 -7.71904,-17.818201 -9.12692,-19.905901 -0.47475,-0.704 -1.33368,-2.11338 -1.90873,-3.13195 -1.29331,-2.29077 -1.68882,-2.24048 -4.18492,0.5322 -0.968,1.07526 -2.84,3.11686 -4.16,4.53689 -3.22156,3.465691 -8.70944,12.326231 -12.57484,20.302861 -1.66312,3.432 -3.37557,6.6 -3.80546,7.04 -0.42989,0.44 -1.47867,2.024 -2.33061,3.52 -0.85194,1.496 -3.37658,5.672 -5.6103,9.28 -2.23372,3.608 -5.64452,9.44 -7.57955,12.96 -1.93503,3.52 -5.21853,9.496 -7.29667,13.28 -5.57864,10.15789 -11.31552,19.42312 -15.28421,24.68445 -1.14689,1.52044 -2.26606,3.31226 -2.48703,3.98182 -0.4356,1.31987 -1.9459,3.97373 -2.26143,3.97373 -0.10712,0 -2.41217,-1.7439 -5.12233,-3.87533 -2.71017,-2.13143 -5.93557,-4.5645 -7.16757,-5.40683 -1.232,-0.84232 -4.184,-3.2971 -6.56,-5.45506 -6.27295,-5.69731 -14.302,-12.74004 -16.83918,-14.7706 -1.21045,-0.96875 -5.58482,-4.10757 -9.72082,-6.97515 -9.385355,-6.50707 -12.720865,-9.0539 -17.382565,-13.27247 -3.41286,-3.08843 -3.75282,-3.31547 -4.60043,-3.07239 -1.69627,0.48649 -3.4491,1.56688 -4.8059,2.96221 l -1.3489,1.38721 -0.20948,17.7592 c -0.33177,28.12572 0.84981,58.76661 2.92452,75.83921 0.60957,5.016 1.3242,12.144 1.58807,15.84 1.44096,20.18296 2.07032,26.35031 3.51043,34.4 0.66245,3.70286 1.63685,11.39005 2.12181,16.7394 l 0.40066,4.41939 2.90089,-0.19724 c 1.59549,-0.10848 4.81392,-0.33664 7.15207,-0.50701 4.476145,-0.32616 8.131215,-0.0601 11.667565,0.84943 3.0069,0.77333 6.74315,1.02425 8.3102,0.55812 3.12987,-0.93102 6.18661,-1.09276 14.39508,-0.7617 4.45279,0.17959 9.39198,0.54295 10.97598,0.80748 3.72654,0.62233 8.39538,0.61703 14.74321,-0.0167 2.88275,-0.2878 6.20885,-0.43075 7.65679,-0.32905 11.1213,0.78109 23.27436,0.95723 70.72,1.02495 48.22604,0.0688 75.06844,0.42803 78.72,1.05342 2.95453,0.50601 3.65154,0.44012 3.81317,-0.36047 z m -119.0999,-7.17418 c -0.67157,-0.2702 -1.19178,-1.58103 -3.12289,-7.8691 -1.78032,-5.79706 -1.82405,-6.02492 -1.27308,-6.63374 0.31381,-0.34676 1.0908,-0.71674 1.72663,-0.82219 2.23638,-0.37087 9.72638,-3.49862 12.99607,-5.42703 1.232,-0.72661 2.96,-1.72974 3.84,-2.22918 0.88,-0.49944 2.68,-1.72119 4,-2.71501 1.32,-0.99383 3.22754,-2.4277 4.23897,-3.18638 3.42834,-2.57164 5.45088,-5.07425 7.43354,-9.198 2.21923,-4.61581 2.54096,-6.19093 2.24382,-10.98519 -0.28274,-4.56189 -1.04415,-7.18906 -2.46701,-8.5121 -2.20303,-2.04848 -4.53862,-3.65818 -5.80907,-4.00364 -3.08528,-0.83894 -15.03432,0.55198 -18.10369,2.10734 -0.8315,0.42136 -2.50738,1.08385 -3.72419,1.47222 -2.98357,0.95225 -4.7892,1.89126 -7.31959,3.8065 -1.16967,0.88533 -2.39048,1.60968 -2.7129,1.60968 -1.11839,0 -3.12312,-2.57954 -5.10892,-6.5738 -2.63159,-5.29321 -2.59203,-6.54989 0.24351,-7.73465 0.60492,-0.25276 2.05063,-1.21658 3.21269,-2.14183 1.16206,-0.92525 3.12084,-2.37798 4.35284,-3.22829 1.232,-0.85031 3.248,-2.43105 4.48,-3.51275 1.232,-1.0817 3.32,-2.81369 4.64,-3.84886 3.75997,-2.94863 9.20705,-8.68373 12.64,-13.30835 0.352,-0.47419 1.504,-1.87445 2.56,-3.11171 2.45317,-2.87422 3.12107,-3.97858 3.99565,-6.60669 0.5414,-1.62691 0.6578,-2.49247 0.48871,-3.63429 -0.57668,-3.89442 -2.9243,-6.67411 -6.72436,-7.96195 -3.74816,-1.27026 -4.36357,-1.36445 -7.68,-1.17546 -4.60034,0.26216 -8.43428,1.2017 -12.16,2.97991 -1.76,0.84002 -4.064,1.866 -5.12,2.27996 -1.31813,0.51673 -2.42156,1.26786 -3.52,2.39619 -0.88,0.90394 -2.42665,2.18292 -3.437,2.84218 -1.01036,0.65925 -2.74738,2.18192 -3.86005,3.38371 l -2.02303,2.18506 -1.29247,-1.97419 c -2.1349,-3.26097 -4.46205,-7.01031 -5.23757,-8.43838 l -0.72996,-1.34419 0.90508,-1.21581 c 1.47231,-1.97776 6.86462,-7.04837 9.22087,-8.67075 6.79446,-4.67828 14.83727,-8.4707 20.53413,-9.68245 3.27371,-0.69633 9.79523,-0.83779 13.25379,-0.28749 6.01877,0.95766 13.02198,3.87408 16.55898,6.89583 3.56313,3.04408 6.65458,7.62946 8.30595,12.31974 1.9047,5.40985 0.0775,11.62464 -5.44778,18.52931 -1.19714,1.496 -5.65384,6.23097 -9.90378,10.52216 -4.24993,4.2912 -7.44031,7.70234 -7.08972,7.58033 1.20269,-0.41856 8.00285,-0.57515 10.24256,-0.23586 6.31463,0.95659 10.06102,1.74426 11.55985,2.43045 3.15893,1.4462 9.12691,8.0117 10.34699,11.38292 0.58078,1.60477 0.84284,12.57913 0.35909,15.03798 -0.71909,3.65504 -4.12289,11.3133 -6.78106,15.25676 -2.93335,4.35172 -9.93394,10.86417 -15.62662,14.537 -27.0255,17.43644 -26.73661,17.26464 -28.10498,16.71408 z M 346.01382,132.96346 c 2.93332,-1.71905 4.38618,-4.43843 4.38618,-8.20988 0,-2.70936 -1.02326,-4.86798 -3.26154,-6.88038 -2.9047,-2.61158 -6.17798,-2.98554 -9.50422,-1.08584 -2.97664,1.70003 -4.81098,5.36121 -4.37101,8.72414 0.45411,3.47096 0.86291,4.44415 2.59405,6.17528 1.97923,1.97921 3.02646,2.35164 6.2601,2.22626 1.95513,-0.0758 2.72604,-0.26369 3.89644,-0.94958 z M 72.641715,139.5919 c -3.188,-1.15505 -5.93262,-3.80231 -7.06951,-6.81875 -0.55219,-1.46507 -0.65075,-2.30986 -0.54938,-4.70866 0.10976,-2.59735 0.25671,-3.19273 1.31797,-5.34005 2.89634,-5.86034 8.85267,-8.71017 14.5732,-6.97261 1.83754,0.55813 2.62772,1.02607 4.21641,2.49692 3.3058,3.06059 4.28945,5.96288 3.53868,10.441 -0.74173,4.42422 -1.24141,5.63457 -3.15394,7.63965 -2.58657,2.71175 -4.55356,3.57799 -8.38448,3.69245 -2.20722,0.066 -3.44832,-0.0529 -4.48895,-0.42995 z m 7.10397,-3.18151 c 1.7197,-0.58596 3.90036,-2.35936 4.62552,-3.76165 0.57375,-1.10952 1.19141,-5.06369 1.13054,-7.23761 -0.0811,-2.89803 -3.01594,-6.06124 -6.24565,-6.73172 -6.67193,-1.38509 -12.88171,6.15386 -10.59553,12.86344 1.40288,4.11722 6.59547,6.39732 11.08512,4.86754 z M 212.8,84.951779 c -3.80418,-0.8264 -7.38818,-3.52843 -8.97184,-6.76402 -0.68065,-1.39064 -0.7826,-2.03968 -0.77916,-4.96 0.003,-2.93277 0.10846,-3.58379 0.82585,-5.12 1.29133,-2.76528 3.77919,-5.2488 6.64283,-6.63127 2.16066,-1.04309 2.78918,-1.19464 5.44999,-1.31415 4.8336,-0.21711 8.85619,1.05652 11.95671,3.7857 4.00279,3.5234 4.50843,9.78994 1.10695,13.71867 -0.74323,0.85844 -1.96901,2.29617 -2.72396,3.19497 -1.65877,1.97484 -4.94964,3.6822 -8.06737,4.18548 -2.52376,0.4074 -3.17843,0.39592 -5.44,-0.0954 z m 8.03557,-4.08952 c 1.79563,-0.83844 2.53266,-1.5045 5.19832,-4.69772 2.75328,-3.29819 2.66892,-6.59572 -0.24326,-9.5079 -2.37283,-2.37282 -4.53063,-3.163 -8.67736,-3.1776 -2.9991,-0.0106 -3.34704,0.0578 -5.37377,1.05554 -4.38141,2.15697 -6.5852,6.91234 -5.27201,11.37605 0.51811,1.76113 3.45069,4.7154 5.37411,5.41386 2.28505,0.82979 6.71449,0.60214 8.99397,-0.46223 z"
       id="path6376" />
  </g>
  <g
     inkscape:groupmode="layer"
     id="layer13"
     inkscape:label="Image 2"
     style="display:inline;opacity:0.69064748">
    <path
       style="opacity:1;fill:#312724;fill-opacity:1;stroke:#000000;stroke-width:0;stroke-linecap:round;stroke-linejoin:round"
       d="m 208.98456,176.15439 c -14.82901,0.45706 -29.07611,9.12591 -37.66735,20.57143 2.85995,3.06008 4.03985,9.31977 8.14898,10.68775 8.3169,-6.73255 17.35389,-14.15801 28.63673,-14.2204 6.18277,-1.67263 15.77944,2.46297 14.59592,9.93061 -3.57388,10.69928 -13.41825,17.79118 -21.00153,25.63236 -4.79114,5.69621 -13.21549,8.27701 -16.38418,15.19213 -0.19986,4.44046 3.35115,9.06037 6.4551,11.49388 9.39894,-5.81124 20.77947,-10.28094 31.98572,-8.66735 11.53919,4.45059 9.23368,21.16166 1.58163,28.18775 -7.95343,8.37985 -18.68845,13.38911 -29.05919,17.83266 -1.97031,4.56758 1.01646,10.14341 3.33674,14.0755 5.10737,1.37804 9.43316,-4.21908 13.86517,-6.05874 15.17339,-9.67347 33.77839,-20.44291 37.07564,-39.79023 1.31231,-7.84737 1.44743,-17.1223 -5.43469,-22.58164 -6.27132,-7.55888 -17.23247,-5.63447 -25.84898,-6.86734 7.83446,-9.52665 20.01051,-17.44759 22.26531,-30.36735 -0.25355,-13.49845 -13.2847,-23.01036 -25.66531,-24.93061 -2.28937,-0.19126 -4.59096,-0.162 -6.88571,-0.12041 z"
       id="path6394" />
    <path
       style="opacity:1;fill:#312724;fill-opacity:1;stroke:#000000;stroke-width:0;stroke-linecap:round;stroke-linejoin:round"
       d="m 216.04041,59.926579 c -5.80241,0.05062 -11.51634,4.391619 -12.97143,9.986735 -0.30409,4.035065 -0.65022,8.800512 2.92245,11.605102 4.44067,4.86708 12.02463,4.755758 17.49592,1.833673 4.8281,-3.246023 9.86855,-9.199511 7.46837,-15.381632 -2.26843,-5.832222 -9.09711,-8.24995 -14.91531,-8.043878 z m 0.96837,4.136735 c 4.82149,-0.283535 11.45269,2.673485 10.34796,8.47653 -1.55402,5.343101 -6.88903,9.417974 -12.54486,8.722909 -5.23315,0.289562 -9.57612,-5.351123 -7.88371,-10.373929 1.13584,-4.362659 5.67387,-7.373924 10.08061,-6.82551 z"
       id="path6407" />
    <path
       style="opacity:1;fill:#312724;fill-opacity:1;stroke:#000000;stroke-width:0;stroke-linecap:round;stroke-linejoin:round"
       d="m 217.54041,86.641885 c -5.12484,0.91131 -7.89357,6.15433 -11.15204,9.686735 -7.7831,10.09117 -12.5142,22.05746 -19.40714,32.72551 -12.44321,19.89477 -22.4479,41.27834 -36.1398,60.38775 -0.32488,2.17887 -2.42955,-0.49062 -3.43061,-0.87653 -14.29227,-10.78673 -26.59665,-24.04857 -41.68246,-33.82033 -6.820034,-4.52119 -12.86174,-9.96579 -19.311419,-14.96028 -3.11043,-1.15406 -6.319254,1.40832 -8.810204,3.02143 -2.528287,1.94503 -4.474103,4.78729 -3.700593,8.12347 -0.08126,31.49645 -0.289409,63.06696 3.096764,94.4276 1.789551,19.48785 3.305344,39.01664 6.267094,58.36628 0.870004,3.79828 0.111739,8.32729 2.304082,11.66632 5.438182,1.50248 11.31528,0.35709 16.914876,0.83627 6.37433,-0.28318 12.70588,2.20124 19.05553,0.45863 10.39565,-0.52585 20.80962,0.72859 31.2213,0.51106 53.20774,0.29884 106.44134,0.56122 159.6287,1.50833 3.04681,0.55295 6.51752,0.61554 9.43061,-0.49081 2.47233,-6.58356 3.23611,-13.74568 5.35715,-20.4745 3.53203,-15.46924 5.50712,-31.25025 8.20315,-46.87936 4.75661,-31.97387 9.23947,-64.06328 10.93154,-96.36758 -0.0175,-5.50245 0.81744,-11.35843 -1.8602,-16.41836 -0.44785,-1.55602 2.50576,-0.93145 3.2449,-2.05919 4.27899,-2.72985 7.09896,-7.70738 6.1102,-12.84693 -0.67926,-4.97224 -4.83169,-9.15315 -9.41122,-10.83572 -7.05387,-1.56178 -14.72751,4.22796 -14.45205,11.61531 -0.81791,5.42047 2.54502,10.36755 6.93878,13.19694 -12.70474,7.76204 -25.08633,16.21113 -35.91606,26.46709 -8.742,7.78503 -19.40244,13.12614 -27.53252,21.65333 -1.44563,1.33843 -2.88393,2.68844 -4.40652,3.93978 -7.63897,-15.34931 -14.36746,-31.17635 -22.22293,-46.44151 -7.46287,-14.42043 -13.03117,-29.68153 -20.0934,-44.28298 -2.43689,-3.867035 -3.67354,-9.102297 -7.78163,-11.577551 -0.4418,-0.175804 -0.91791,-0.269303 -1.39388,-0.260204 z m -0.15408,4.07347 c 4.05262,4.582533 5.85054,10.789195 8.61725,16.184945 6.98414,16.30332 14.09973,32.56506 22.55263,48.17392 4.90517,10.61954 9.58213,21.34379 14.81258,31.81279 1.49627,2.91039 2.42685,6.20427 4.15121,8.92222 7.79664,-6.35849 14.59549,-14.44977 23.51284,-19.4628 12.16867,-7.91622 21.86729,-19.05757 34.24027,-26.69781 4.85938,-3.03398 9.38779,-6.81733 14.61832,-9.15368 2.70898,0.14311 2.25012,4.06044 2.57551,6.00307 0.0681,17.3921 -2.36326,34.69507 -3.8159,52.01929 -3.6364,30.71571 -8.64989,61.26752 -13.84913,91.76435 -1.75243,8.24419 -4.24637,16.30621 -6.21966,24.49085 -3.33515,0.2531 -7.20909,-0.43523 -10.76217,-0.25866 -49.1275,-0.76007 -98.26933,-0.83917 -147.39273,-1.60529 -13.08704,1.12676 -26.15154,-1.32576 -39.27073,-0.29608 -4.69149,0.79016 -9.32965,0.36152 -13.95703,-0.62569 -6.20519,-0.6759 -12.45354,0.0494 -18.670404,0.14694 C 86.6431,294.9363 83.593933,277.84839 82.672043,260.54495 80.5285,237.391 77.995601,214.26425 78.173015,190.97785 c -0.115628,-14.43242 -0.05274,-28.86549 -0.07342,-43.29821 1.682792,-1.77329 3.997663,-3.82788 6.50102,-3.86735 6.04477,4.39464 11.562096,9.56231 17.801945,13.73953 11.43664,7.55855 21.60961,16.6838 31.90112,25.70231 5.41109,4.19186 10.46258,9.09826 16.49897,12.3551 2.69362,0.30541 2.58043,-3.57218 4.12962,-4.97552 9.10568,-13.06214 16.7313,-27.0449 24.51163,-40.91412 7.00188,-12.70891 15.20811,-24.68618 21.76546,-37.64205 4.32297,-7.82735 9.31419,-15.544824 16.17697,-21.362185 z m 124.3102,25.274485 c 6.36876,0.13902 10.23301,7.8166 7.32245,13.26429 -2.50231,5.13613 -11.49555,6.12974 -14.09081,0.57653 -3.09146,-4.98975 -0.53163,-12.5391 5.48571,-13.7102 0.42217,-0.083 0.85226,-0.13006 1.28265,-0.13062 z"
       id="path6409" />
    <path
       style="opacity:1;fill:#312724;fill-opacity:1;stroke:#000000;stroke-width:0;stroke-linecap:round;stroke-linejoin:round"
       d="m 76.908778,115.13984 c -9.847239,0.18206 -16.180991,13.71107 -9.464286,21.16735 5.190836,6.27919 16.448194,4.99037 19.983673,-2.41224 2.715287,-5.36802 2.35471,-12.9256 -3.024489,-16.55306 -2.064898,-1.781 -4.830909,-2.36024 -7.494898,-2.20205 z m 0.815306,3.87041 c 4.500384,-0.10865 8.412845,4.52096 7.185651,9.02531 0.351156,5.13008 -4.744784,9.30225 -9.743815,8.27061 -4.651893,-0.6047 -7.658868,-5.66061 -6.139795,-10.05408 0.968876,-3.80674 4.591099,-7.39101 8.697959,-7.24184 z"
       id="path6411" />
  </g>
</svg>
