<?xml version="1.0" encoding="UTF-8" standalone="no"?>
<svg
   xmlns:dc="http://purl.org/dc/elements/1.1/"
   xmlns:cc="http://creativecommons.org/ns#"
   xmlns:rdf="http://www.w3.org/1999/02/22-rdf-syntax-ns#"
   xmlns:svg="http://www.w3.org/2000/svg"
   xmlns="http://www.w3.org/2000/svg"
   xmlns:sodipodi="http://sodipodi.sourceforge.net/DTD/sodipodi-0.dtd"
   xmlns:inkscape="http://www.inkscape.org/namespaces/inkscape"
   width="300mm"
   height="300mm"
   viewBox="0 0 300 300"
   version="1.1"
   id="svg8"
   inkscape:version="1.0.1 (3bc2e813f5, 2020-09-07)"
   sodipodi:docname="sakana.svg">
  <defs
     id="defs2" />
  <sodipodi:namedview
     id="base"
     pagecolor="#ffffff"
     bordercolor="#666666"
     borderopacity="1.0"
     inkscape:pageopacity="0.0"
     inkscape:pageshadow="2"
     inkscape:zoom="0.24748737"
     inkscape:cx="-394.13681"
     inkscape:cy="443.99463"
     inkscape:document-units="mm"
     inkscape:current-layer="layer1"
     inkscape:document-rotation="0"
     showgrid="false"
     inkscape:window-width="1366"
     inkscape:window-height="705"
     inkscape:window-x="-8"
     inkscape:window-y="324"
     inkscape:window-maximized="1" />
  <metadata
     id="metadata5">
    <rdf:RDF>
      <cc:Work
         rdf:about="">
        <dc:format>image/svg+xml</dc:format>
        <dc:type
           rdf:resource="http://purl.org/dc/dcmitype/StillImage" />
        <dc:title />
      </cc:Work>
    </rdf:RDF>
  </metadata>
  <g
     inkscape:groupmode="layer"
     id="layer2"
     inkscape:label="いろ">
    <path
       style="fill:#a1e4f2;fill-opacity:1;stroke-width:1.21598"
       d="M 128.05795,62.938388 C 108.69719,62.905248 90.418159,71.670069 74.046529,81.261242 51.779913,95.738121 34.283167,117.15082 22.794823,140.95831 c 1.754499,7.36043 13.551856,8.86422 15.100015,16.7815 -0.688048,7.2108 -13.175887,11.17319 -8.200747,19.07808 17.467678,21.45428 43.776658,34.68268 70.797649,39.17265 26.4102,2.63331 52.84168,-4.45671 75.97551,-17.01069 21.31976,-9.98071 40.08501,-25.04603 54.10362,-43.97363 2.04598,-3.61349 5.10617,-2.35092 7.49299,0.26124 10.00655,6.79987 17.25768,18.34139 29.03155,22.17266 6.28951,-0.0272 9.8019,-7.6413 10.67073,-12.95068 -4.74826,-5.33037 -13.77775,-3.04979 -19.94969,-6.25327 -2.84546,-0.55464 -1.49935,-3.62888 1.25159,-2.16596 7.31684,0.14605 15.46451,4.86471 22.33416,1.51997 2.08668,-5.90589 3.52936,-13.23743 1.66485,-19.29895 -4.57064,-2.42804 -10.37115,1.4353 -15.45863,0.87637 -1.61749,0.92723 -6.33183,-0.28748 -2.92834,-1.78124 5.889,-2.38603 12.77297,-0.80631 18.47247,-3.27743 -0.45799,-4.79935 -0.032,-15.38958 -7.42177,-15.15466 -5.76836,0.39387 -12.06575,5.7336 -17.32773,4.22506 4.19384,-7.08636 15.70697,-4.48024 19.4747,-11.51381 0.77046,-5.33139 -4.04368,-14.536043 -10.21709,-9.5711 -11.66091,6.79519 -22.40593,15.45412 -31.67013,25.07485 -4.6257,0.29179 -5.34163,-6.78301 -7.87539,-9.63759 -15.08386,-22.030095 -37.70696,-38.525373 -62.59453,-47.926754 -8.95053,-3.750847 -17.76778,-8.3857 -27.79419,-6.681723 -3.22285,-0.0048 -6.44566,8.53e-4 -9.66847,0.01448 z m 16.0975,50.361102 c 5.76815,0.50857 3.6176,9.22459 4.75468,12.94593 -0.0608,14.30818 2.64777,29.425 -1.66724,43.34783 -4.37968,6.16355 -12.33774,-0.4931 -17.39897,-2.49134 -1.18203,-0.80582 -6.50252,-3.2756 -4.44355,-5.0468 6.28811,0.24554 12.8452,9.05349 18.82158,4.09919 2.1626,-4.87964 4.56022,-11.2771 2.53172,-16.47274 -2.97655,-3.57856 -9.99002,0.21363 -12.29046,-3.18483 4.75527,-1.6398 14.26846,0.0368 13.25468,-7.71151 2.14219,-8.61166 -7.69686,-5.25353 -12.7108,-5.38167 -3.44633,1.05345 -1.69101,-3.65136 0.98561,-2.50558 4.17284,-0.39893 11.87672,-0.0396 10.41896,-6.58577 0.45411,-4.55031 -3.67615,-9.40526 -8.11762,-5.96829 -4.42626,1.85057 -9.99407,7.26968 -14.44215,6.06329 3.97192,-6.25781 13.12853,-10.10808 20.30356,-11.10771 z m -75.948951,4.86867 c 7.99734,-0.56489 9.02613,14.18795 0.39899,13.48742 -10.48409,2.6455 -9.65644,-13.80017 -0.39899,-13.48742 z"
       id="path29" />
    <path
       style="fill:#a1e4f2;fill-opacity:1;stroke-width:0.303995"
       d="m 159.05401,213.26144 c -6.44826,1.38537 -12.74823,3.45632 -19.23779,4.68224 -2.07343,0.71961 -1.64556,3.6837 0.30221,4.24703 2.91643,1.72762 6.57411,3.41679 9.8644,1.58943 3.831,-1.87295 7.49857,-4.20273 10.7384,-6.9711 1.22566,-1.29227 0.11308,-3.67394 -1.66722,-3.5476 z"
       id="path31" />
    <path
       style="fill:#a1e4f2;fill-opacity:1;stroke-width:0.303995"
       d="m 118.89576,51.022348 c -2.69974,-0.155835 -5.42265,1.167808 -6.54511,3.713337 -1.32269,1.332883 -1.34059,4.112808 0.88912,4.465448 8.30849,-0.42644 16.64944,-0.661995 24.93533,-1.431506 2.43846,-0.101016 2.6586,-3.857213 0.29747,-4.315314 -6.24539,-1.385494 -12.65451,-2.181341 -19.0472,-2.441463 l -0.30395,0.0055 z"
       id="path33" />
  </g>
  <g
     inkscape:label="レイヤー 1"
     inkscape:groupmode="layer"
     id="layer1"
     style="display:inline">
    <path
       style="fill:#000000;stroke-width:1.0198"
       d="m 135.73543,228.13995 c -2.42318,-1.38532 -5.7064,-3.4449 -7.29604,-4.57683 -2.59394,-1.84704 -4.49487,-2.05987 -18.5398,-2.07576 -18.239281,-0.0206 -24.827901,-1.18741 -39.832401,-7.05387 -14.30769,-5.59405 -27.200996,-13.37495 -36.142174,-21.81127 -9.75436,-9.20357 -13.610646,-15.24892 -13.610646,-21.33678 0,-4.35032 0.342877,-4.9469 5.16239,-8.98202 l 5.162391,-4.3222 -7.184827,-4.69604 c -6.918403,-4.52189 -7.184923,-4.84731 -7.187159,-8.77524 -0.0097,-15.99021 25.243028,-50.51334 48.161315,-65.843131 9.48674,-6.345586 24.14309,-13.749754 32.89757,-16.619361 4.779331,-1.566607 5.237761,-2.020795 6.974231,-6.909976 2.94224,-8.284019 5.34578,-10.059116 13.61385,-10.054225 20.76815,0.01223 46.12852,7.932215 55.14586,17.221793 2.08676,2.149769 7.23594,5.636267 11.44264,7.747785 11.25519,5.649457 19.83132,11.445548 30.11062,20.349906 9.93821,8.608918 14.47377,13.749239 18.5854,21.063679 l 2.65403,4.72141 9.45806,-7.83305 c 12.18149,-10.088568 21.05458,-14.539726 28.14844,-14.120572 6.74219,0.398372 8.21399,2.400814 11.46778,15.602442 3.34841,13.58547 4.57391,22.59023 4.58009,33.6535 0.006,11.87433 -2.06523,20.39395 -7.38973,30.38695 -5.11503,9.59992 -7.79689,11.44963 -15.31034,10.55977 -7.74118,-0.91682 -12.85579,-3.98534 -22.92922,-13.75647 -9.24606,-8.96859 -9.25723,-8.97546 -10.57802,-6.50751 -1.95293,3.64906 -23.56039,24.10635 -30.25904,28.64833 -3.18478,2.15942 -8.08509,5.09046 -10.88955,6.51339 -3.26404,1.65612 -6.27838,4.26764 -8.3762,7.25687 -3.2939,4.69354 -20.51097,18.31996 -27.92898,22.10435 -5.71292,2.91451 -14.46331,2.67264 -20.11054,-0.55587 z m 19.77996,-9.74738 c 2.48158,-1.70737 4.51197,-3.24285 4.51197,-3.41218 0,-0.16933 -3.72328,0.77054 -8.27398,2.08859 -4.55067,1.31808 -9.2545,2.41571 -10.45298,2.43923 -1.76103,0.0346 -1.49974,0.40439 1.36216,1.92813 4.08121,2.17291 5.89493,1.74342 12.85283,-3.04377 z m -18.94351,-5.58807 c 4.76759,-0.91539 13.02799,-3.28157 18.35646,-5.25816 12.33707,-4.57645 36.44159,-16.85989 43.79999,-22.32007 9.58762,-7.11436 24.30887,-21.70901 28.82329,-28.57544 2.89105,-4.39729 4.9568,-6.53199 6.32104,-6.53199 1.21593,0 6.75975,4.67496 13.85981,11.68756 13.41725,13.25199 19.48601,16.98289 22.78149,14.00544 1.95774,-1.7688 7.21129,-11.33512 6.57458,-11.97183 -0.19428,-0.19429 -5.27317,-1.14959 -11.28639,-2.12286 -10.89348,-1.76317 -10.93313,-1.78001 -10.93313,-4.64434 0,-3.35564 -0.1969,-3.33216 11.13837,-1.32833 4.81128,0.85053 9.99236,1.7534 11.51351,2.00636 2.462,0.40944 2.8813,0.0436 3.81856,-3.33108 0.57908,-2.08505 1.05543,-6.48841 1.05855,-9.78521 l 0.006,-5.99422 -3.82426,0.586 c -2.10335,0.32228 -6.69247,0.89912 -10.19805,1.28186 -6.31193,0.68913 -6.37376,0.67102 -6.37376,-1.86641 0,-3.03434 1.32384,-3.51167 12.33598,-4.44812 l 7.74686,-0.65879 -0.84875,-4.7105 c -1.75425,-9.73601 -1.6743,-9.59919 -5.1969,-8.89466 -1.76083,0.35216 -5.69499,1.78185 -8.74258,3.17708 -7.29369,3.33915 -10.39363,3.35767 -10.39363,0.0621 0,-2.02089 1.07542,-2.96824 5.86388,-5.16558 3.22512,-1.47997 7.81423,-3.21497 10.19802,-3.85558 2.74384,-0.73737 4.32595,-1.74198 4.31177,-2.7379 -0.0291,-2.02 -3.7452,-10.24144 -4.62948,-10.24144 -4.31148,0 -31.44843,20.40285 -33.57803,25.24552 -0.72769,1.65474 -1.85822,2.28149 -4.07921,2.26148 -2.84074,-0.0256 -3.36982,-0.66035 -7.01281,-8.41336 -3.30417,-7.03197 -5.47627,-9.89775 -13.4551,-17.75208 -15.98574,-15.736556 -29.60937,-24.259352 -52.9709,-33.138198 l -14.27724,-5.426256 -14.27724,0.03378 c -12.5582,0.0296 -15.44373,0.375627 -23.96536,2.873291 -28.441221,8.336028 -51.145751,24.170355 -69.287159,48.321423 -7.58426,10.09666 -15.356478,23.7762 -15.356478,27.02824 0,0.87187 2.409275,3.09111 5.353952,4.93166 8.208036,5.13031 9.94309,6.999 9.94309,10.70896 0,2.69539 -1.037847,4.23775 -5.748656,8.54316 -5.183301,4.73725 -5.642057,5.48785 -4.664868,7.63253 1.932792,4.24205 13.526118,15.75143 20.610089,20.46084 13.913569,9.24971 34.337969,17.82435 47.203479,19.81711 8.527651,1.32085 28.826541,0.55378 39.481211,-1.49194 z m -5.21462,-43.05445 c -6.3147,-3.20579 -7.58509,-4.27779 -7.8556,-6.62872 -0.44954,-3.90699 2.29598,-3.71131 10.73083,0.76486 3.6993,1.96312 7.29943,3.56931 8.00029,3.56931 1.35777,0 3.26796,-7.03068 3.74052,-13.76734 l 0.28614,-4.07921 -6.88338,-0.30155 c -6.54632,-0.28677 -6.88337,-0.42411 -6.88337,-2.80446 0,-2.42256 0.23266,-2.50291 7.24772,-2.50291 6.19,0 7.15738,-0.23541 6.62872,-1.61311 -0.34047,-0.88721 -0.61902,-3.08205 -0.61902,-4.87741 v -3.26428 l -7.13861,0.40338 c -7.05035,0.39837 -7.13863,0.37168 -7.13863,-2.15773 0,-2.42362 0.38459,-2.59971 7.16493,-3.28064 l 7.16491,-0.71953 -0.68125,-3.71813 c -1.36134,-7.42999 -1.36875,-7.43603 -6.3623,-5.20037 -2.43874,1.09186 -5.79942,3.13405 -7.46814,4.53818 -3.99989,3.3657 -9.01993,3.5108 -8.93995,0.25843 0.0968,-3.93816 12.45874,-11.66685 20.35497,-12.72595 6.19887,-0.83144 7.27114,1.79734 8.50958,20.86216 1.15911,17.84371 -0.0584,34.30157 -2.85291,38.56662 -2.46775,3.76624 -7.79982,3.35186 -17.00545,-1.3216 z M 61.003709,130.89022 c -2.71173,-3.44741 -2.42323,-7.57151 0.7974,-11.39902 2.481,-2.94849 3.14733,-3.20289 7.19413,-2.74677 5.15045,0.58053 7.32834,2.80716 7.37586,7.54099 0.0463,4.61559 -0.83781,6.32745 -4.15353,8.04208 -4.12717,2.13424 -8.88408,1.52454 -11.21386,-1.43728 z m 11.3206,-11.36546 c 0,-0.56088 -0.68836,-1.0198 -1.52969,-1.0198 -0.84135,0 -1.52971,0.45892 -1.52971,1.0198 0,0.5609 0.68836,1.0198 1.52971,1.0198 0.84133,0 1.52969,-0.4589 1.52969,-1.0198 z M 139.44294,55.748639 c 0.57829,-0.476083 -13.91709,-2.681864 -18.75177,-2.853481 -3.85227,-0.136742 -5.00148,0.250871 -6.26071,2.11165 l -1.54235,2.279147 13.11665,-0.636307 c 7.21415,-0.349955 13.26134,-0.755415 13.43818,-0.901009 z"
       id="path24" />
    <path
       style="fill:#304955;fill-opacity:1;stroke-width:0.60799"
       d="m 117.79179,44.510923 c -5.01507,-0.239592 -10.66205,1.765485 -12.38068,6.931329 -1.88545,3.906505 -3.1976,9.290133 -8.235061,10.134521 -18.88295,7.285119 -37.08321,17.367799 -51.086775,32.226513 -12.607861,13.197254 -24.241862,28.276624 -29.684666,45.932984 -1.095345,3.73022 -1.299938,8.70781 2.675396,10.82864 3.39778,2.73606 7.114879,5.03369 10.709897,7.49419 -3.254431,3.18566 -7.968327,5.54542 -9.701725,9.92379 -1.605604,10.29171 6.764637,18.29993 13.506163,24.76243 14.528019,13.31266 32.86916,22.09907 51.80027,27.14929 13.40803,3.29057 27.402381,0.87381 40.874611,3.26579 6.33674,3.17815 12.22992,8.3507 19.7787,8.04519 10.83779,0.008 19.07211,-8.19628 27.22063,-14.26165 5.28982,-4.04003 9.74535,-8.98273 14.29729,-13.77479 8.47793,-5.948 17.96305,-10.55827 25.36077,-17.98028 7.60774,-6.91393 15.07807,-14.09686 21.91405,-21.72436 9.96983,7.02248 17.39058,18.97264 30.17866,21.15024 5.43091,1.60171 11.53036,-0.47444 14.43622,-5.43985 7.32956,-10.6208 10.84469,-23.555 10.32396,-36.42242 0.005,-14.47687 -2.62614,-28.99068 -7.42175,-42.62823 -6.8304,-13.36107 -23.81656,-2.622299 -32.02876,3.775 -4.90037,3.57779 -9.41468,7.63585 -14.23198,11.31907 -9.0014,-15.905568 -23.34707,-28.172712 -38.45115,-38.175994 -9.46361,-5.812547 -19.61929,-10.520863 -27.9243,-18.031065 -13.6251,-9.1298 -30.20776,-12.590858 -46.28268,-14.307247 -1.87818,-0.144768 -3.76302,-0.229331 -5.64709,-0.193091 z m 2.20872,8.963112 c 5.35734,0.197774 10.6467,1.062519 15.90869,1.998532 -7.30072,0.575555 -14.64875,0.838209 -21.9803,1.180346 1.04403,-2.474214 3.53667,-3.350133 6.07161,-3.178878 z m 37.56241,14.902898 c 18.33968,6.871064 36.35507,15.393747 50.70215,29.007161 8.46505,7.240126 16.21135,15.607246 20.69401,25.955416 1.33838,2.98774 4.24991,7.59576 8.1283,5.46954 3.49457,-2.94528 6.01606,-7.012 9.79115,-9.67248 7.88314,-6.28306 15.7634,-12.91561 25.01987,-17.04229 2.14255,0.80974 2.80882,4.1026 3.82725,6.08109 0.74049,1.67004 1.32996,4.42465 -1.27297,4.77011 -5.90627,2.68574 -13.20506,3.77572 -17.59016,8.90731 -1.54817,2.87319 2.20181,4.92249 4.60505,3.75956 5.84981,-1.22429 11.13297,-5.13593 17.14723,-5.19405 1.50438,3.8395 2.18434,8.30896 2.61483,12.29995 -6.04636,1.67648 -13.04399,0.26643 -18.67789,3.41638 -2.01854,1.59488 -1.44885,5.61711 1.64584,5.11687 6.00019,-0.22731 11.97954,-1.11001 17.89893,-2.08524 -0.74815,5.83969 0.33248,12.29163 -2.36429,17.69705 -5.28373,0.47999 -10.71628,-1.45745 -16.02945,-2.05924 -2.77455,0.0298 -6.65424,-2.22324 -8.88392,0.14735 -1.0123,2.70917 0.52363,6.16538 3.80826,5.91247 5.86169,1.4559 12.16855,1.78311 17.78967,3.69781 -2.01723,3.98787 -3.60233,9.01416 -7.59039,11.53995 -4.33203,0.50444 -7.72161,-3.47097 -10.9842,-5.76879 -8.10424,-6.45201 -14.74043,-14.7596 -23.4385,-20.4235 -3.1223,-0.62702 -4.51996,3.55547 -6.42296,5.29476 -8.21889,10.40368 -17.53025,19.96278 -27.90595,28.21479 -13.61998,9.53616 -28.86716,16.66279 -44.09797,23.07497 -16.2442,6.58341 -34.016,8.04276 -51.28412,7.87793 C 87.476459,213.51555 71.443639,206.0478 56.581859,197.8955 46.25852,191.65561 36.09434,184.06527 29.823153,173.56638 c -0.53346,-3.66712 3.886812,-5.62674 5.805596,-8.18413 2.988797,-2.68167 6.616994,-7.44853 3.392634,-11.33094 -3.557393,-4.9109 -9.958767,-6.78174 -13.50879,-11.5162 -0.223147,-4.81374 3.56394,-8.85065 5.466752,-13.082 15.958314,-27.62572 41.536404,-50.027391 72.044065,-60.059852 9.15678,-3.385949 18.85583,-5.089926 28.60982,-4.827926 6.78465,0.32819 14.00483,-1.826066 20.24802,1.608574 1.8939,0.734331 3.78778,1.468647 5.68167,2.202979 z m 0.31113,147.716777 c -4.3408,2.97577 -10.20794,8.03028 -15.6985,4.44593 -2.26568,-1.03098 2.00331,-0.66732 2.64927,-1.22548 4.31065,-0.93959 9.07812,-2.39316 13.04923,-3.22045 z"
       id="path41" />
    <path
       style="fill:#304955;fill-opacity:1;stroke-width:0.60799"
       d="m 67.110049,116.09708 c -6.59025,0.52564 -10.90834,9.68806 -6.41003,14.89697 3.12943,4.71475 10.3343,3.39066 13.98735,0.0914 4.6688,-4.7445 1.96399,-14.60943 -5.20692,-14.79056 -0.78128,-0.13849 -1.57606,-0.22386 -2.3704,-0.19783 z m 3.41995,2.99722 c 1.95357,0.40223 0.15678,1.16896 -0.74337,0.31942 0.14137,-0.26306 0.46718,-0.33868 0.74337,-0.31942 z"
       id="path43" />
    <path
       style="fill:#304955;fill-opacity:1;stroke-width:0.60799"
       d="m 143.6708,111.26523 c -7.73493,0.96352 -15.16109,4.94625 -20.56244,10.51277 -2.19801,1.91531 -0.64394,5.37656 2.24671,5.0373 5.1378,-0.003 8.56309,-4.85931 13.20159,-6.4994 1.76523,-1.20029 5.45988,-2.31998 5.36351,1.13198 0.25637,2.05554 1.59555,4.99586 0.61036,6.52164 -4.12623,1.22213 -9.41007,-0.25611 -12.8343,2.74308 -0.98869,1.86813 -0.40154,5.56458 2.50843,4.38424 3.62128,-0.10133 7.24254,-0.20262 10.8638,-0.30404 -0.047,2.69495 0.91335,5.81547 0.16386,8.35512 -4.15526,1.06021 -9.33437,-0.97631 -12.91266,1.83465 -1.70208,2.41069 1.1208,4.79029 3.5482,4.59201 3.28791,0.48253 6.62254,0.40286 9.93566,0.45835 -0.70664,5.43007 -0.8507,11.35663 -3.38196,16.33619 -4.82214,-0.39544 -8.91922,-3.9537 -13.49929,-5.4351 -1.88714,-1.4175 -6.04579,-1.6345 -5.94691,1.59953 0.51108,4.58256 5.98222,5.92898 9.30154,8.07012 3.92771,1.57937 8.24748,4.28212 12.59443,3.3107 5.87252,-1.86851 6.00102,-9.35782 6.64753,-14.42196 0.67789,-14.05692 1.03244,-28.34397 -1.52591,-42.23753 -0.59669,-3.33237 -2.37902,-6.6246 -6.32215,-5.98965 z"
       id="path45" />
  </g>
  <g
     inkscape:groupmode="layer"
     id="layer3"
     inkscape:label="しろめ">
    <path
       style="fill:#ffffff;fill-opacity:1;stroke-width:0.425593"
       id="path50"
       d="m 69.334909,119.74704 c 0.22197,-0.006 0.44413,-0.006 0.66619,-0.005 0.18475,0.01 0.38508,0.0293 0.53185,0.15153 0.0453,0.0656 0.11578,0.20108 0.0705,0.28347 -0.008,0.0145 -0.0258,0.0209 -0.0386,0.0312 -0.3776,0.15893 -0.0258,0.0145 0.84673,-0.51111 0.0194,-0.0113 -0.0402,0.0212 -0.0615,0.0291 -0.0783,0.0293 -0.15312,0.0286 -0.23527,0.0256 -0.25435,-0.0413 -0.49533,-0.13834 -0.72139,-0.25943 -0.14192,-0.098 -0.34135,-0.17337 -0.40288,-0.3486 0.0343,-0.0449 0.0111,-0.0254 0.0765,-0.0497 -0.29112,0.17621 -0.58613,0.34616 -0.87335,0.52865 -0.0315,0.0199 0.0686,-0.0299 0.1045,-0.0402 0.0979,-0.0281 0.17768,-0.0339 0.27849,-0.0466 0.23591,-0.0224 0.47311,-0.0238 0.70986,-0.0233 0.16277,-4.4e-4 0.30804,0.047 0.4346,0.14669 0.0949,0.0804 0.10759,0.19676 0.11805,0.3133 0.004,0.14123 0.0287,0.28672 -0.0338,0.41761 -0.25617,0.23443 -1.05366,0.64893 0.80908,-0.4648 0.0182,-0.0113 -0.037,0.0211 -0.0566,0.0291 -0.0533,0.0216 -0.0722,0.0208 -0.1282,0.0288 -0.19162,-0.01 -0.37325,-0.0857 -0.55828,-0.13223 -0.23338,-0.0558 -0.45748,-0.14509 -0.61399,-0.33242 -0.0376,-0.0651 -0.0946,-0.16455 -0.0585,-0.24437 0.0134,-0.0294 0.0607,-0.0468 0.085,-0.059 0.3967,-0.12241 0.0158,-0.01 -0.84223,0.5055 -0.0199,0.0113 0.0436,-0.0162 0.0662,-0.0217 0.022,-0.005 0.0445,-0.01 0.0671,-0.0113 0.0173,-0.001 0.0379,0.0113 0.052,0.002 0.29845,-0.21247 0.58444,-0.44193 0.87666,-0.66289 -0.21119,0.0494 -0.44458,0.073 -0.65449,0.006 -0.0146,-0.008 -0.031,-0.0145 -0.0441,-0.0264 -0.008,-0.006 0.15071,-0.052 0.0485,0.0161 -0.29638,0.19703 -0.60951,0.36768 -0.91112,0.55662 -0.0192,0.0113 0.0412,-0.0188 0.0629,-0.0252 0.0249,-0.008 0.0507,-0.0113 0.0761,-0.0161 0.15678,-0.0216 0.3157,-0.0254 0.47378,-0.0228 0.008,8.5e-4 0.0169,0.006 0.0231,0.003 1.27224,-0.92855 1.12661,-0.60993 0.5515,-0.67572 -0.50451,-0.0429 -1.17481,0.22727 -1.31765,0.73601 -0.0387,0.16313 -0.0278,0.30941 0.0525,0.4564 0.10716,0.178 0.28201,0.24305 0.47546,0.28412 0.29212,0.0582 0.58997,0.075 0.88679,0.0896 0.25411,0.018 0.51242,0.003 0.75105,-0.0906 0.80117,-0.49164 1.12861,-0.41388 1.08169,-1.16206 -0.0475,-0.29674 -0.26195,-0.38229 -0.5155,-0.47846 -0.22519,-0.074 -0.46037,-0.10439 -0.69588,-0.11984 -0.16505,-0.008 -0.33039,-0.008 -0.49558,-0.006 -0.16092,-4.2e-4 -0.32057,-0.005 -0.47869,0.0277 -0.75082,0.37026 -1.04919,0.32038 -1.08391,0.92247 0.0119,0.17514 0.0988,0.30791 0.22728,0.42031 0.17,0.1356 0.38221,0.16706 0.59206,0.18595 0.16751,0.0129 0.33542,0.01 0.50317,0.006 0,0 0.88001,-0.63833 0.88001,-0.63833 v 0 c -0.15993,-0.005 -0.31994,-0.008 -0.47981,-0.0145 -0.18766,-0.0129 -0.3855,-0.0235 -0.5459,-0.13255 -0.10895,-0.0906 -0.1766,-0.17987 -0.17209,-0.32872 0.009,-0.0748 0.0159,-0.16354 0.0731,-0.22021 0.0117,-0.0113 0.0549,-0.037 0.0405,-0.0289 -0.30752,0.17174 -0.61325,0.34671 -0.91987,0.52006 0.14062,-0.0796 0.30304,-0.0619 0.45944,-0.0624 0.16468,3.2e-4 0.32936,-0.003 0.49404,-4.4e-4 0.23067,0.006 0.46215,0.0235 0.68523,0.087 0.20018,0.0674 0.41887,0.12643 0.4406,0.36934 8.5e-4,0.12691 -0.006,0.26362 -0.0638,0.38002 -0.0125,0.0254 -0.0719,0.0838 -0.0467,0.0709 0.3038,-0.15394 0.59439,-0.33284 0.89158,-0.49928 -0.21083,0.14461 -0.48157,0.15732 -0.73004,0.14879 -0.28953,-0.0113 -0.58129,-0.0235 -0.86505,-0.0869 -0.16246,-0.0237 -0.32456,-0.0508 -0.41591,-0.20282 -0.0625,-0.11855 -0.0549,-0.24417 -0.005,-0.36779 0.18883,-0.29248 1.11999,-0.66565 -0.84092,0.43387 -0.0201,0.0113 0.0373,-0.028 0.0587,-0.0367 0.062,-0.0252 0.10045,-0.0188 0.16672,-0.0195 0.63005,0.0944 0.40273,-4.3e-4 1.27729,-0.6345 0.008,-0.006 -0.0204,0.002 -0.0307,0.002 -0.16213,0.003 -0.32452,4.1e-4 -0.48637,0.0129 -0.49847,0.041 -0.36945,0.0788 -1.16061,0.61229 -0.0302,0.0204 0.0309,0.12353 0.0415,0.13479 0.0175,0.0185 0.042,0.0288 0.0629,0.0433 0.22178,0.0944 0.45094,0.0589 0.68605,0.0614 0.31219,-0.22714 0.63405,-0.44157 0.93659,-0.68142 0.0168,-0.0129 -0.0421,-0.008 -0.0634,-0.0113 -0.0359,-0.005 -0.11799,-0.0174 -0.15468,0.002 -0.97789,0.51397 -0.7473,0.30777 -1.0815,0.61742 -0.0857,0.15249 -0.0389,0.3073 0.0549,0.44687 0.17163,0.20467 0.40479,0.31643 0.66142,0.3829 0.18747,0.0529 0.36976,0.12611 0.55995,0.16572 0.061,0.008 0.15989,0.0214 0.21792,-0.0113 0.35529,-0.19999 0.91143,-0.30499 1.08185,-0.71847 0.0328,-0.15168 0.0246,-0.30626 0.0127,-0.46025 -0.0178,-0.14573 -0.0494,-0.28714 -0.16194,-0.39086 -0.15533,-0.12386 -0.28056,-0.18606 -0.48409,-0.20385 -0.24174,8.5e-4 -0.48369,0.001 -0.72487,0.0201 -0.66471,0.0558 -0.56472,0.0964 -1.43062,0.65534 -0.0234,0.0145 -0.0253,0.0508 -0.029,0.0785 -0.004,0.0277 0.005,0.0557 0.007,0.0835 0.0959,0.194 0.27609,0.29418 0.45615,0.40234 0.23426,0.13045 0.48162,0.2275 0.7386,0.30406 0.014,0.002 0.16634,0.0209 0.18151,0.0211 0.0116,7e-5 0.13642,-0.0161 0.1483,-0.0222 1.01064,-0.56347 0.80841,-0.26536 1.05542,-0.65417 0.0348,-0.15796 -0.006,-0.31552 -0.10518,-0.44374 -0.15959,-0.14911 -0.37257,-0.19323 -0.58558,-0.21329 -0.21723,4.2e-4 -0.43458,0.002 -0.65172,-0.005 0,0 -0.91311,0.66341 -0.91311,0.66341 z" />
  </g>
</svg>
