<?xml version="1.0" encoding="UTF-8" standalone="no"?>
<svg
   xmlns:dc="http://purl.org/dc/elements/1.1/"
   xmlns:cc="http://creativecommons.org/ns#"
   xmlns:rdf="http://www.w3.org/1999/02/22-rdf-syntax-ns#"
   xmlns:svg="http://www.w3.org/2000/svg"
   xmlns="http://www.w3.org/2000/svg"
   xmlns:sodipodi="http://sodipodi.sourceforge.net/DTD/sodipodi-0.dtd"
   xmlns:inkscape="http://www.inkscape.org/namespaces/inkscape"
   inkscape:version="1.0 (4035a4fb49, 2020-05-01)"
   sodipodi:docname="serch_cat.svg"
   viewBox="0 0 1269.8413 1269.8413"
   height="1269.8413"
   width="1269.8413"
   id="svg10"
   version="1.1">
  <metadata
     id="metadata16">
    <rdf:RDF>
      <cc:Work
         rdf:about="">
        <dc:format>image/svg+xml</dc:format>
        <dc:type
           rdf:resource="http://purl.org/dc/dcmitype/StillImage" />
        <dc:title></dc:title>
      </cc:Work>
    </rdf:RDF>
  </metadata>
  <defs
     id="defs14" />
  <sodipodi:namedview
     inkscape:current-layer="svg10"
     inkscape:window-maximized="1"
     inkscape:window-y="-9"
     inkscape:window-x="-9"
     inkscape:cy="709.83228"
     inkscape:cx="1428.4412"
     inkscape:zoom="0.32681249"
     showgrid="false"
     id="namedview12"
     inkscape:window-height="1001"
     inkscape:window-width="1920"
     inkscape:pageshadow="2"
     inkscape:pageopacity="0"
     guidetolerance="10"
     gridtolerance="10"
     objecttolerance="10"
     borderopacity="1"
     bordercolor="#666666"
     pagecolor="#ffffff" />
  <g
     inkscape:label="Image 1"
     id="layer1"
     inkscape:groupmode="layer">
    <path
       id="path27"
       d="m 785.42176,763.34464 c -13.19511,1.37456 -21.13272,16.27405 -16.05403,28.41429 15.01327,48.58317 43.39791,91.69564 67.95081,135.83878 34.08695,58.91107 68.03659,117.98819 105.20121,174.97989 5.06708,5.163 7.70852,14.7457 -2.31078,14.7707 -26.75711,0.854 -53.18057,-9.5962 -79.81926,-6.7415 -8.71437,3.9014 -25.35719,14.4462 -16.18843,25.3664 27.85369,31.3776 71.88344,38.435 110.63104,48.0017 28.12568,6.6435 57.64128,7.7425 85.61738,12.7932 16.2713,10.7971 31.9376,22.8869 48.5767,32.9021 19.1572,-0.3043 40.5873,-1.8513 53.8472,-17.6865 21.8428,-20.4148 43.6909,-41.6024 63.2002,-63.8886 -4.4797,-39.1268 -13.5594,-78.1086 -27.764,-114.8494 -17.7727,-36.284 -37.0694,-73.32386 -66.0413,-101.99923 -8.0849,-6.94114 -23.6314,-19.9085 -33.0272,-8.24596 -4.9048,8.19597 -0.8297,20.61351 -4.0797,27.78999 -13.3195,-8.58352 -21.668,-24.95432 -36.5344,-31.04588 -11.4198,1.55053 -26.5324,7.91794 -29.6716,19.94723 0.4928,8.11724 7.7107,17.0532 4.1013,24.69884 -16.63085,-7.93053 -26.0949,-30.15305 -46.72708,-30.59066 -14.11763,-2.32238 -17.4407,14.2411 -16.89509,24.83324 -1.27896,12.93127 1.28606,27.41257 -2.07233,39.46957 -17.38589,-17.55481 -27.41403,-41.66293 -41.32363,-62.1788 -33.57641,-55.11089 -60.87945,-114.79491 -103.14963,-164.12101 -4.69811,-4.48571 -10.63725,-8.83121 -17.46738,-8.45839 z"
       style="fill:#ffffff;fill-opacity:1;stroke-width:2.21973" />
    <path
       id="path29"
       d="m 766.7334,535.06938 c -7.60063,-0.4593 -15.91462,5.21893 -15.95645,13.26024 -14.61343,2.80523 -29.62577,0.92313 -44.45635,1.92817 -8.97072,0.79501 -18.47295,-0.13762 -27.04414,2.94461 -6.26544,4.23439 -7.37518,13.44434 -5.48283,20.2682 2.14283,7.57936 11.58384,6.85305 17.76883,7.66473 18.93443,1.78117 38.00754,1.13887 56.76968,4.09491 3.07641,0.75611 -1.34293,1.81848 -2.22409,1.62017 -21.56,2.91324 -43.61456,-0.11116 -65.0796,4.26425 -11.54893,5.08406 -15.14851,20.08211 -12.14437,31.44844 2.39687,9.38443 10.59857,16.97056 20.46287,17.42947 2.65169,0.57812 7.75292,-0.53162 7.11679,3.87492 2.40905,9.9756 13.31067,13.89929 20.60716,19.73697 1.63857,1.37384 4.81409,3.26613 5.19598,4.6238 -14.16342,2.45636 -28.80931,1.10876 -42.81414,4.44513 -11.99055,3.10363 -12.06518,22.02597 -1.31668,26.88683 7.95711,3.49185 18.39128,2.75813 25.89205,3.70478 -8.40173,7.3401 -18.97957,10.91606 -27.71302,17.76055 -5.62239,5.63814 -3.49707,16.60776 4.0236,19.57997 8.87496,5.2447 20.02573,3.2113 28.2617,-2.29878 8.50414,-5.2962 17.94066,-10.23007 24.06961,-18.35568 1.65125,-4.87011 2.73816,-11.74201 -1.27989,-15.71273 -1.45436,-1.4916 -5.44706,-2.55157 -5.6361,-3.21429 7.8728,-0.50198 16.00562,-0.40333 23.9316,0.52116 1.65155,14.14392 -0.0149,28.93876 4.55701,42.59803 4.91097,6.81407 14.82805,5.56276 21.89144,3.4718 8.43333,-3.3527 8.1102,-13.71316 9.31483,-21.21475 1.116,-9.12264 1.10391,-18.63124 2.27773,-27.57273 17.90905,-0.78972 36.229,-2.012 53.81966,0.55946 5.51064,2.11826 12.09038,2.73725 16.84087,-1.5006 5.16664,-4.15971 7.95249,-12.27983 3.32924,-17.8801 -8.59242,-11.74404 -20.88485,-20.83223 -34.2734,-26.41015 -7.76415,-3.02553 -19.62592,-2.50871 -22.94141,6.59104 -1.21137,2.77816 -0.29096,6.00341 -0.51808,8.73083 -8.80692,1.35184 -17.81188,1.07456 -26.9129,0.61619 11.64634,-8.68089 25.09209,-15.52553 35.42453,-25.98096 3.54086,-3.94557 2.54647,-10.80321 -0.68517,-14.60605 -7.23544,-3.63304 -16.0427,-3.41363 -23.86414,-2.01256 -12.36375,5.55859 -21.29899,17.14521 -34.40216,21.05607 -1.99757,-0.13546 -7.81681,-0.90238 -4.15082,-3.58982 7.57731,-8.27581 18.59962,-13.28928 24.20597,-23.30929 4.46095,-2.24983 10.12736,-0.69617 14.93713,-1.37798 14.94942,0.0838 30.0979,-0.94486 44.88344,0.62691 1.86326,0.94411 0.37967,4.4372 1.60484,6.25229 2.83902,11.33582 18.24276,17.51129 27.40186,9.4911 8.34652,-6.9547 7.26435,-19.26831 6.11126,-28.94385 -1.76076,-8.4838 -8.10144,-16.97764 -17.47544,-17.17349 -21.40211,-2.69158 -43.01018,-0.0808 -64.19824,-3.65879 -3.46966,-0.69911 1.68619,-1.29439 2.89852,-1.49755 22.01059,-2.77637 44.69188,-1.72054 66.7856,-5.03371 8.16458,-1.31266 9.2411,-11.57592 7.20417,-18.07784 -0.92061,-4.91829 -4.1936,-9.96691 -9.76824,-9.81053 -22.5244,-2.72574 -45.44217,-1.00847 -67.89718,-3.36695 -3.11518,-3.60846 -4.56369,-8.92124 -9.43285,-10.96105 -3.01051,-1.68796 -6.47611,-2.51421 -9.92028,-2.49079 z m -47.03396,81.65223 c 4.65687,0.0116 9.44688,0.0456 13.93776,0.22072 -5.68618,6.0655 -12.74855,11.94991 -21.49598,11.96196 -2.91124,0.60374 -5.67674,1.786 -8.435,2.81883 -0.71275,-4.96333 -0.30249,-10.00615 -0.42152,-15.00151 5.47158,0 10.94317,0 16.41474,0 z"
       style="fill:#ffffff;fill-opacity:1;stroke-width:0.784794" />
    <path
       id="path31"
       d="m 816.91573,698.52712 c -7.04162,0.70952 -16.63355,3.49736 -17.98434,11.56956 0.66595,6.18415 7.53164,9.17183 11.67677,12.96505 11.26224,7.7724 22.82091,17.76471 37.13983,18.39297 7.88684,0.15499 16.86184,-6.19018 16.88072,-14.51868 -2.27012,-7.60658 -10.42716,-11.34809 -16.44694,-15.63456 -9.69087,-5.43144 -19.86716,-12.15002 -31.26604,-12.77434 z"
       style="fill:#ffffff;fill-opacity:1;stroke-width:0.784794" />
    <path
       id="path33"
       d="m 414.11748,534.40107 c -6.37967,-0.44661 -12.60099,3.84456 -13.31543,10.45063 -2.19336,10.74651 -1.88078,21.796 -2.87861,32.63331 -8.16759,1.89031 -19.768,1.9311 -23.31081,11.20629 -2.67339,7.16082 -0.42732,16.00963 6.57571,19.7348 4.55516,3.1104 10.19312,2.45987 15.33106,3.36603 -5.13609,19.60657 -13.5838,37.97122 -20.4874,56.95575 -2.83061,9.19637 -4.58009,21.49234 3.21122,28.78905 4.89356,4.03542 12.17333,0.51511 14.19985,-4.94481 1.62847,-2.80723 2.84081,-5.82666 4.36848,-8.68638 3.55636,19.02392 -0.85343,38.88692 4.70416,57.6256 2.41131,8.88751 14.16945,9.76154 20.4031,4.53708 7.16367,-5.77255 5.04133,-16.23819 6.00577,-24.27762 0.83054,-18.91435 0.1518,-37.98597 2.28974,-56.75382 1.90513,4.8198 7.9995,7.64994 12.37888,4.24586 8.7111,-7.05254 7.0025,-20.17104 2.30073,-29.05422 -4.39941,-9.113 -11.62618,-16.97154 -14.6229,-26.66305 5.1546,-4.41091 14.0942,-5.78585 16.15571,-13.05332 0.50767,-2.62306 4.14271,1.18965 5.77301,1.31302 5.14508,2.85542 11.73955,5.63693 17.15613,1.74031 3.2158,-2.62504 2.55068,2.97743 5.04599,4.03127 6.0583,5.8099 14.83566,5.86676 22.46776,7.55517 1.79814,2.18222 -0.9119,4.52892 -3.2388,4.33782 -10.9117,2.50418 -23.39332,0.70026 -33.0487,7.20723 -8.30759,6.53228 -6.29107,18.32504 -7.02418,27.58388 -0.0931,9.57904 -1.39687,21.19419 6.85711,28.09046 7.19686,8.36195 19.46984,6.50322 28.84729,8.43653 -5.76338,11.11803 -17.61353,17.15303 -27.68082,23.76145 -5.38313,3.83083 -13.99406,6.38922 -15.24369,13.786 0.80575,8.02723 7.76431,14.86494 15.17471,17.39575 9.70952,0.63271 18.48733,-5.14449 26.5818,-9.81452 10.19733,-6.45927 18.31779,-15.55838 26.60481,-24.20138 11.36897,10.04463 21.25367,22.27579 34.61522,29.79304 11.25116,6.6309 27.97736,-2.64952 27.36966,-15.86754 -0.78512,-9.26914 -11.29239,-12.11058 -17.11794,-17.67877 -6.55763,-5.40279 -13.21398,-10.86792 -18.5641,-17.51125 10.75356,-1.24507 23.94644,-1.9038 30.57015,-12.06926 3.43132,-6.40699 2.03299,-14.21446 2.55212,-21.23541 -0.61554,-9.46097 1.16577,-20.11307 -4.42826,-28.40277 -6.80395,-7.84779 -18.36145,-6.87721 -27.76075,-8.16297 -4.40493,-0.6856 -9.50029,-0.0748 -13.44703,-2.23248 -0.0877,-3.66065 5.48537,-3.30396 7.84947,-4.21366 6.38646,-1.13202 15.57488,-1.81663 17.4877,-9.42059 6.78953,0.82907 14.82695,2.14472 20.35865,-3.18362 7.06932,-5.41745 9.13285,-17.72595 1.15113,-23.29396 -13.78285,-11.2557 -27.98547,-22.01629 -41.21938,-33.9473 -7.20583,-7.0428 -17.40506,-11.81835 -27.59152,-9.23099 -13.82477,2.05592 -21.56302,15.16608 -31.69937,23.29175 -8.88979,7.31869 -17.64765,15.83321 -28.83502,19.15999 -5.32409,0.38184 -10.68132,0.18634 -16.00856,-0.0598 -1.69029,-12.34835 0.105,-25.4738 -4.56314,-37.25164 -2.20539,-4.55503 -7.62881,-5.92504 -12.30071,-5.81697 z m 109.06174,41.79332 c 1.78807,2.73736 11.59362,8.7952 3.53004,7.45246 -10.11548,-0.0202 -20.23408,0.084 -30.34637,-0.22838 5.54086,-5.80458 11.28853,-11.4062 16.95123,-17.09071 3.28838,3.28887 6.57673,6.57775 9.8651,9.86663 z m -31.84544,74.27333 c 2.79177,-0.0486 7.83476,-0.42122 6.97117,3.93776 -0.33708,2.39127 1.23187,8.0019 -3.01348,7.34977 -3.35523,-0.35221 -7.93472,1.48599 -10.55027,-1.1128 -0.18549,-2.94965 -1.48613,-7.37099 0.87063,-9.63825 1.83485,-0.60303 3.81796,-0.48209 5.72195,-0.53648 z m 45.22065,0.68823 c 3.06603,-0.24462 7.76596,0.28383 7.11679,4.54475 0.87459,2.69185 -0.47707,5.62866 -3.6358,5.26976 -3.39421,-0.12044 -7.90373,1.50693 -10.62537,-1.01778 -2.06365,-3.51403 -0.6809,-8.85975 4.11097,-8.62046 1.00482,-0.1361 2.01997,-0.1843 3.03341,-0.17627 z"
       style="fill:#ffffff;fill-opacity:1;stroke-width:0.784794" />
  </g>
  <g
     style="display:inline"
     id="g18"
     inkscape:label="Image"
     inkscape:groupmode="layer">
    <path
       id="path22"
       d="m 1088.1532,1238.4862 c -5.1687,-1.7769 -11.5792,-4.8292 -14.2455,-6.7831 -36.0985,-26.4511 -36.4341,-26.6016 -66.7364,-29.9219 -15.76337,-1.7271 -35.88117,-4.4231 -44.70635,-5.991 -23.2686,-4.134 -83.56014,-23.0792 -97.67999,-30.6936 -15.70049,-8.467 -30.30048,-23.5456 -33.45796,-34.5551 -2.3037,-8.0326 -1.78715,-9.3996 6.50722,-17.2223 16.42715,-15.4926 24.03209,-16.3068 76.1376,-8.1503 21.34593,3.3413 21.42749,3.3324 17.98398,-1.9686 -1.90246,-2.9288 -9.67874,-15.2913 -17.28061,-27.472 -7.60177,-12.1808 -16.39432,-25.6644 -19.53897,-29.9635 -3.14466,-4.299 -12.45633,-20.7138 -20.69263,-36.4772 -8.2364,-15.76335 -20.24491,-37.13339 -26.68554,-47.48894 l -11.71037,-18.82832 -9.53953,4.10523 c -5.24666,2.25795 -12.53912,5.01511 -16.20535,6.12711 -3.66633,1.11199 -10.69625,4.10594 -15.62221,6.6532 -14.67221,7.5873 -75.34939,21.539 -112.44854,25.85567 -125.12411,14.55875 -245.08803,-12.50608 -345.9806,-78.05597 -71.70132,-46.58441 -102.58277,-79.26137 -126.06333,-133.39272 -15.47418,-35.67376 -15.65659,-36.55492 -18.84864,-91.0705 -3.46135,-59.11255 9.04996,-110.42458 42.32007,-173.56673 3.60252,-6.83699 9.80647,-22.6655 13.78663,-35.17444 3.98017,-12.50896 30.27955,-88.52561 58.44303,-168.92594 28.16349,-80.40029 51.20639,-147.38129 51.20639,-148.84663 0,-1.46534 1.58987,-3.98378 3.53317,-5.59653 2.80938,-2.33157 5.51997,0.2867 13.23202,12.78109 9.82433,15.91675 119.18105,168.05575 124.79345,173.61479 2.31048,2.28864 9.66223,1.80891 30.40523,-1.98399 63.07875,-11.53412 147.66184,-8.9281 220.17456,6.78358 7.6783,1.66371 9.2139,-0.0557 81.8526,-91.64874 87.83454,-110.7542 77.78923,-98.88343 80.97851,-95.69409 1.43034,1.43035 18.40503,70.91117 37.72138,154.40184 41.93216,181.24176 38.82834,169.35664 48.5194,185.79266 4.29788,7.28929 9.40198,17.50241 11.34228,22.6958 1.9404,5.19339 8.4832,21.74071 14.5396,36.77185 16.6363,41.28854 21.5958,69.19591 19.9152,112.06565 -2.2219,56.68272 -15.2018,95.31158 -49.2173,146.47345 -17.35858,26.1086 -54.31544,64.61236 -78.23428,81.50907 -8.11432,5.73213 -14.80968,12.24457 -14.87842,14.47216 -0.12013,3.89039 25.6666,46.95527 32.4306,54.16052 2.67375,2.84806 3.8077,0.50414 6.12741,-12.66499 3.37744,-19.17365 5.68699,-22.43187 18.65505,-26.31713 8.65774,-2.59394 11.52919,-2.16018 24.25,3.66356 l 14.42937,6.60601 4.75287,-5.37265 c 7.9707,-9.00994 27.4942,-20.21721 35.2189,-20.21721 4.6559,0 10.8868,3.2414 17.2068,8.95116 9.5422,8.62071 10.026,8.76188 13.1093,3.82484 1.7607,-2.81944 6.7919,-7.30979 11.1803,-9.97852 15.8237,-9.62293 34.9759,1.80921 61.3484,36.61974 7.992,10.54893 17.241,25.30804 20.5533,32.79819 3.3125,7.49014 9.3773,18.63483 13.4773,24.76597 11.8785,17.7634 26.6116,51.9178 27.9036,64.6863 1.4082,13.9163 5.5104,32.9297 9.1968,42.6256 1.4552,3.8274 3.3159,13.2471 4.1349,20.9325 l 1.4891,13.9737 -16.2673,19.1439 c -24.0031,28.2476 -56.3778,58.7589 -68.6518,64.7007 -16.1669,7.8263 -33.0286,10.2953 -44.1647,6.4668 z m 38.1562,-15.374 c 13.034,-6.1951 28.7503,-20.3583 55.6912,-50.1876 l 22.4546,-24.8618 -1.3963,-15.9745 c -0.768,-8.786 -3.3025,-22.4232 -5.6324,-30.3049 -2.3299,-7.8817 -5.8649,-22.5377 -7.8555,-32.5689 -7.8691,-39.6552 -56.047,-122.24727 -82.7756,-141.90382 -19.4885,-14.33191 -32.2269,-8.53043 -29.2231,13.30938 2.3678,17.21609 -1.1514,16.46819 -20.1697,-4.28681 -8.5352,-9.31475 -17.5249,-16.9359 -19.9772,-16.9359 -5.5232,0 -25.7251,12.86269 -27.5108,17.51626 -0.7218,1.88103 0.5839,7.39638 2.9014,12.25638 4.4215,9.27206 3.3514,17.18263 -2.306,17.04608 -1.8363,-0.0441 -7.4332,-5.51206 -12.43769,-12.15049 -15.14146,-20.08528 -40.96195,-26.95023 -45.2069,-12.01918 -3.2179,11.31827 -4.62372,42.26046 -2.13166,46.91701 2.91926,5.45462 0.0851,12.40829 -4.43003,10.87107 -3.16312,-1.07681 -7.75832,-8.19341 -47.26121,-73.1929 -15.04687,-24.75855 -27.40081,-46.18994 -27.45323,-47.62541 -0.32799,-8.98697 -59.74483,-99.85468 -71.87696,-109.92352 -1.98926,-1.6509 -6.77559,-3.79446 -10.63624,-4.76342 -9.2379,-2.31854 -20.30933,8.12245 -20.30933,19.1528 0,18.44162 27.15428,73.28646 79.54838,160.66771 14.60727,24.36163 31.51383,53.67363 37.57015,65.13786 9.38174,17.7593 22.64546,38.8838 56.52805,90.0303 3.37364,5.0927 6.13388,11.2258 6.13388,13.6293 0,5.1031 -10.22331,8.3436 -19.20822,6.0885 -3.39939,-0.8532 -19.33297,-3.3857 -35.40792,-5.6278 -27.86966,-3.8871 -29.66184,-3.851 -38.58182,0.7781 -18.96835,9.8438 -17.41952,20.2246 5.47103,36.6669 23.57475,16.9337 107.54721,39.2556 152.86482,40.6352 21.7429,0.6619 27.1276,2.8422 51.7028,20.9346 9.0907,6.6925 19.0567,13.2517 22.1469,14.5761 8.039,3.4451 27.4409,1.5004 38.7746,-3.8866 z M 423.3501,743.33908 c 3.3564,-3.35647 4.09435,-11.10444 4.09435,-42.99098 0,-35.10504 1.9197,-46.02077 6.15327,-34.98833 2.10775,5.49277 8.78568,4.86278 11.99363,-1.13146 4.47835,-8.3679 3.08823,-16.77302 -4.84225,-29.27824 -14.62009,-23.0534 -14.52027,-22.42545 -4.24495,-26.71876 5.19301,-2.16977 9.17892,-5.68437 9.17892,-8.09356 0,-2.34207 0.87931,-3.8299 1.95407,-3.30624 1.07486,0.52368 5.26533,2.60788 9.31239,4.63158 5.83338,2.917 8.39808,3.03008 12.3762,0.5457 2.75983,-1.72357 5.01798,-2.03511 5.01798,-0.69228 0,5.27223 8.63005,10.63023 17.1219,10.63023 6.9774,0 8.93321,1.0628 8.93321,4.85431 0,4.11377 -2.6676,5.06843 -17.48631,6.25795 -23.4029,1.87855 -26.80742,5.9788 -26.80742,32.2858 0,17.09289 0.75221,20.1233 6.39539,25.76648 4.91416,4.91419 9.13829,6.39536 18.23862,6.39536 6.51378,0 11.84323,1.08252 11.84323,2.4056 0,5.42559 -13.79218,18.1998 -27.26149,25.24949 -7.90175,4.13565 -14.99312,9.15017 -15.75856,11.14336 -2.03266,5.29222 5.61025,15.584 12.93881,17.42336 8.60266,2.15911 30.00953,-9.7436 43.1368,-23.98503 l 10.24988,-11.11989 15.3606,15.36058 c 17.11247,17.11246 26.47964,21.01633 36.71331,15.3008 9.69536,-5.41489 10.63079,-18.47563 1.61746,-22.58238 -7.67532,-3.49715 -30.09755,-23.55374 -30.09755,-26.92221 0,-1.25052 4.5317,-2.27368 10.07065,-2.27368 6.24294,0 12.67997,-2.05249 16.9358,-5.40013 6.42812,-5.05633 6.86516,-6.77235 6.86516,-26.95407 0,-27.62084 -2.92552,-30.88696 -28.98494,-32.35943 -15.09725,-0.85308 -18.04267,-1.74937 -17.36925,-5.2854 0.44607,-2.34197 3.73014,-4.58635 7.29809,-4.98752 13.51651,-1.51983 18.21205,-3.40515 18.21205,-7.31236 0,-2.89534 1.52411,-3.55045 5.39901,-2.3206 8.40466,2.66751 16.8682,-0.60325 20.13945,-7.78287 4.10184,-9.00252 1.83999,-13.26287 -12.15275,-22.89012 -6.62335,-4.55696 -18.78318,-14.48233 -27.02174,-22.05636 -12.6294,-11.6105 -16.51579,-13.75646 -24.77271,-13.6786 -11.94347,0.11255 -18.23236,3.56247 -28.91118,15.85971 -4.50789,5.19104 -14.48877,13.7722 -22.1799,19.06924 -11.32606,7.80057 -15.9107,9.4731 -24.12289,8.80033 l -10.13928,-0.83064 -0.78278,-18.12997 c -0.88403,-20.47554 -3.27381,-24.86101 -13.54749,-24.86101 -10.27029,0 -12.66325,4.38508 -13.54749,24.82547 l -0.78288,18.09443 -10.04203,1.62363 c -10.7812,1.74314 -14.60706,5.5365 -14.67046,14.54579 -0.0554,7.89959 6.73363,13.86507 15.77938,13.86507 4.19663,0 7.63039,0.46273 7.63039,1.02829 0,4.34438 -12.2339,39.1601 -17.2326,49.04125 -3.41929,6.75925 -6.21698,16.87489 -6.21698,22.4792 0,17.58169 13.07444,21.55035 18.61698,5.65104 5.12673,-14.70648 7.43813,-7.89285 7.43813,21.92639 0,31.47427 2.22759,37.96606 13.02756,37.96606 2.66134,0 6.68131,-1.84246 8.93321,-4.09438 z m 58.8101,-87.09861 c 0,-7.19616 0.72379,-7.81653 9.11931,-7.81653 8.39553,0 9.11931,0.62037 9.11931,7.81653 0,7.19617 -0.72378,7.81655 -9.11931,7.81655 -8.39552,0 -9.11931,-0.62038 -9.11931,-7.81655 z m 45.29986,4.0747 c -2.96584,-7.72892 1.03905,-12.27461 10.04941,-11.40627 7.0965,0.68389 8.4859,1.88428 8.4859,7.33157 0,5.44731 -1.3894,6.64769 -8.4859,7.33159 -5.84427,0.56323 -8.9725,-0.45058 -10.04941,-3.25689 z m -25.0688,-85.45867 11.03512,-11.03514 11.03511,11.03514 11.03512,11.0351 h -22.07023 -22.07023 z m 277.12991,168.28281 c 2.07667,-2.49375 4.12215,-13.14475 4.87866,-25.40375 l 1.30282,-21.10962 26.70739,-0.74254 c 15.99617,-0.44474 28.86717,0.41326 32.09235,2.13931 8.07564,4.322 18.65053,-3.27281 17.5688,-12.61794 -1.14657,-9.90551 -30.27719,-31.76981 -42.32817,-31.76981 -9.95544,0 -15.72316,5.45973 -13.74775,13.01369 1.27245,4.86585 0.0995,5.22491 -17.06261,5.22491 -10.13589,0 -17.92725,-0.50166 -17.31406,-1.11481 0.61319,-0.61317 10.26383,-7.08737 21.44596,-14.38713 18.04174,-11.77781 20.23886,-14.07273 19.5122,-20.38067 -0.74441,-6.4604 -1.91509,-7.17945 -12.84269,-7.88811 -9.5147,-0.61702 -13.59253,0.50429 -19.54144,5.37339 -16.55323,13.54875 -24.48514,17.89433 -29.66266,16.25104 -7.81444,-2.48021 -6.48751,-5.13482 7.81475,-15.63366 7.16514,-5.25972 13.02756,-11.22198 13.02756,-13.24948 0,-2.98155 6.22713,-3.68636 32.56889,-3.68636 31.68824,0 32.56899,0.15294 32.56899,5.65725 0,14.01295 19.30671,20.67986 27.2101,9.39609 5.85339,-8.35678 5.19054,-25.93592 -1.28846,-34.1726 -5.256,-6.68187 -5.95732,-6.80639 -42.33966,-7.51654 -30.82657,-0.60169 -36.99502,-1.37376 -36.99502,-4.63037 0,-3.22589 6.36902,-4.13572 36.47714,-5.21102 20.0625,-0.71652 37.94287,-2.25132 39.73412,-3.41068 5.30915,-3.43615 4.04449,-19.4341 -1.78284,-22.5528 -2.77183,-1.48345 -20.38813,-2.69718 -39.1472,-2.69718 -33.88115,0 -34.12367,-0.0428 -36.55634,-6.44101 -4.58012,-12.04662 -28.68834,-11.05996 -28.68834,1.17412 0,5.01676 -1.61665,5.26689 -34.04294,5.26689 -18.72367,0 -36.31083,1.21373 -39.08266,2.69718 -5.82734,3.1187 -7.09209,19.11665 -1.78285,22.5528 1.79126,1.15936 19.08531,2.69416 38.43131,3.41068 28.95016,1.07222 35.17442,1.99434 35.17442,5.21102 0,3.24859 -6.02482,4.03049 -35.69384,4.63232 -34.97427,0.70946 -35.80167,0.86099 -41.03685,7.51654 -12.02092,15.28209 -3.13552,39.96143 14.38742,39.96143 7.50205,0 8.94203,0.93753 9.0041,5.8624 0.0544,4.28891 3.96036,8.21518 14.55351,14.62824 7.96381,4.82119 13.49989,9.6965 12.30233,10.83399 -1.19756,1.13749 -12.47951,2.46903 -25.07094,2.95897 -24.15008,0.93971 -27.79272,2.81943 -27.87407,14.38366 -0.0687,9.6971 6.76851,13.85631 22.94451,13.95875 l 14.79563,0.0938 -7.62064,6.22977 c -4.1914,3.42635 -12.10566,8.25218 -17.58726,10.72405 -7.96474,3.59161 -9.96662,5.90084 -9.96662,11.49691 0,4.9755 1.92114,7.87791 6.63637,10.02633 10.92083,4.97586 17.34248,3.5576 34.42222,-7.60231 14.00177,-9.14871 16.2628,-11.71838 16.2628,-18.48253 0,-5.66522 -1.45342,-8.23652 -5.21106,-9.21917 -10.74386,-2.80957 -4.66394,-6.19749 9.77066,-5.44461 l 14.98173,0.78139 0.77047,20.72066 c 0.42381,11.39635 2.03297,22.2418 3.57595,24.10101 3.9775,4.79255 19.08429,4.20118 23.34381,-0.9138 z M 701.02343,625.06598 v -10.51373 h 18.72604 18.72603 l -7.48871,7.81655 c -4.2111,4.39542 -10.20124,7.81654 -13.6863,7.81654 -3.40872,0 -8.46549,1.21373 -11.23732,2.69718 -4.59562,2.4595 -5.03974,1.77068 -5.03974,-7.81654 z m 157.4475,110.45656 c 8.20408,-8.20416 5.48293,-12.57814 -15.7878,-25.3768 -10.42141,-6.27055 -19.18709,-9.61152 -25.21765,-9.61152 -9.46023,0 -18.40882,6.08699 -16.72395,11.37585 0.51757,1.62496 8.99435,8.52375 18.83714,15.33066 19.16277,13.25219 31.33081,15.84328 38.89226,8.28181 z"
       style="fill:#000000;stroke-width:2.60551" />
  </g>
  <g
     inkscape:label="Image 2"
     id="layer2"
     inkscape:groupmode="layer">
    <path
       id="path38"
       d="m 361.53511,149.7076 c -5.55034,1.33568 -4.81309,9.23748 -7.41222,13.28242 -37.48077,107.98389 -74.79501,216.03477 -112.53602,323.92304 -13.60043,34.37869 -32.63644,66.82218 -41.78339,102.95486 -6.18733,22.826 -10.26708,46.32149 -9.45424,70.05041 0.46617,34.05467 -1.09028,69.8014 13.34615,101.55649 14.10882,36.35754 34.9512,70.64778 64.52234,96.49327 46.19547,40.29077 99.05956,73.17685 155.89135,96.22175 68.58885,27.56996 143.22448,39.24068 216.98441,35.66983 45.45723,-1.11443 90.38598,-10.18785 134.15044,-22.04569 19.56526,-5.81566 37.784,-15.01884 56.94828,-21.94643 5.41197,-3.80414 6.7241,5.82219 9.96176,8.9551 23.57491,37.77331 41.95389,78.75965 67.61135,115.19925 7.23775,11.7331 15.821,24.0013 21.57378,35.8718 -24.42902,-1.1205 -48.77237,-9.6027 -73.32102,-5.7493 -11.82394,2.7701 -21.33038,11.8301 -28.42321,21.2033 -1.8693,12.9105 8.76924,23.4801 17.21469,31.7881 18.16197,17.7892 44.11474,22.7776 67.28739,30.8871 24.99604,8.088 50.61399,14.1818 76.77811,16.889 15.43504,2.6087 31.47964,2.7782 46.31794,8.0297 16.8746,7.2158 29.4653,21.6617 46.3155,28.8331 19.6582,8.2927 42.1554,0.6226 58.6636,-11.169 28.2741,-22.641 52.3811,-50.0183 75.7826,-77.5342 0.1825,-16.4122 -4.2172,-32.8519 -8.8109,-48.4776 -4.7143,-19.5538 -6.1069,-40.2341 -14.8815,-58.7602 -10.4115,-24.756 -25.7731,-46.97197 -37.737,-70.95243 -13.4742,-21.95177 -28.9882,-43.94392 -50.7232,-58.41001 -9.5298,-6.61381 -23.0529,-6.48958 -31.5905,1.77275 -3.6897,2.66237 -6.5465,7.31076 -10.7633,8.75601 -9.3852,-5.55525 -18.2049,-17.54576 -30.4664,-14.2581 -13.9922,4.42741 -25.6425,14.06472 -35.93894,24.21848 -13.21879,-5.75936 -28.44231,-15.20722 -43.0722,-8.08198 -13.42389,4.67536 -13.3195,21.39068 -16.40907,32.56457 -0.5985,2.30985 -1.54561,7.87307 -3.93218,3.16307 -11.22685,-15.67706 -21.59399,-32.12167 -29.60857,-49.6709 -1.27578,-6.84795 7.59216,-9.63931 11.41936,-13.78476 54.9033,-43.18699 101.8678,-100.33522 121.0666,-168.47785 8.5425,-33.25953 10.478,-68.09467 7.9567,-102.25694 -4.2908,-39.65212 -20.9159,-76.50669 -35.7424,-113.09069 -7.5185,-16.1944 -17.6144,-31.24041 -21.14584,-49.03569 -24.92453,-99.84431 -46.00078,-200.62815 -71.68606,-300.28761 -1.8852,-3.44236 -0.91819,-10.55423 -5.56548,-11.4648 -8.11148,5.06802 -12.98046,14.28105 -19.46494,21.21542 -42.92923,53.07502 -84.18955,107.58119 -128.47017,159.44909 -3.83079,4.42109 -8.79547,10.08262 -15.34466,7.30066 -75.69327,-14.9763 -154.20883,-18.28778 -230.31799,-4.28761 -5.19385,0.22017 -11.294,2.6342 -15.99999,1.13806 -17.7208,-20.8711 -32.79859,-43.89153 -49.19527,-65.81148 -28.18695,-38.75134 -55.71227,-78.03662 -83.2673,-117.18724 -1.77166,-1.98037 -3.78923,-4.65768 -6.72839,-4.64612 z m 52.72621,388.1147 c 6.24364,-1.19824 10.7601,3.99786 10.93656,9.88643 1.75121,10.25295 1.36916,20.94369 2.99615,31.33273 4.62011,3.72393 11.812,1.79747 17.4127,1.99884 11.6449,-2.31083 20.59456,-11.401 29.78395,-18.31281 10.91891,-8.10168 18.7424,-22.17853 33.11605,-24.41498 8.84905,-1.79974 17.67914,1.41746 23.97808,7.71038 13.73776,12.60917 29.0092,23.47951 42.94919,35.69566 7.44496,7.50286 -0.72,21.03242 -10.62808,20.44055 -4.41365,0.75356 -12.61765,-3.27985 -13.76789,3.50325 -3.45756,5.54329 -11.74905,3.92791 -17.20564,6.11273 -4.47361,-0.0507 -11.25681,6.74182 -5.18092,9.70471 12.03984,4.72921 26.61171,0.29584 37.74972,7.54952 7.15465,6.6771 4.41345,17.61197 5.24828,26.33563 -0.86517,8.19159 2.18674,18.49071 -4.46438,24.81011 -7.09346,6.26291 -16.87774,5.43557 -25.46299,7.05932 -5.74046,2.62676 0.0116,8.23369 2.81961,10.60189 8.55385,8.95328 18.95864,15.77873 28.6082,23.35087 5.68302,10.64042 -7.62299,22.2568 -18.09307,18.52835 -11.04664,-3.88313 -18.87211,-13.72639 -27.71535,-20.75422 -4.23414,-2.64753 -6.61699,-8.40886 -11.39933,-9.88969 -6.94256,3.11739 -10.81298,10.86864 -16.96018,15.33564 -9.88096,8.23318 -20.99532,16.577 -34.10949,18.08044 -7.71655,-0.26662 -14.65956,-8.39926 -13.97919,-15.93999 13.44687,-11.8148 32.6524,-17.78917 42.07955,-33.98348 3.27507,-5.57352 -6.27895,-5.78974 -9.96503,-6.19401 -11.04471,1.14132 -24.58606,-5.42948 -24.96196,-17.79964 -0.74011,-12.20897 -2.47381,-25.61365 3.12688,-36.93386 8.18391,-8.39811 21.3143,-6.14005 31.85884,-8.8046 4.49379,-0.005 10.94021,-3.99168 7.62348,-9.00957 -5.15102,-5.58474 -14.22016,-1.42378 -20.03275,-6.2564 -4.45645,-1.39446 -4.80749,-9.73484 -10.20337,-7.18398 -7.7111,4.88292 -15.60899,-1.47816 -22.48375,-4.62733 -4.43092,0.19021 -2.95878,7.80038 -7.76292,8.91025 -3.62546,3.13453 -11.32898,3.90319 -11.80287,9.48075 4.15069,15.02948 18.92319,26.36969 18.32761,42.64117 -0.33006,4.97289 -4.72102,13.86524 -10.56679,9.61808 -1.43596,-2.43293 -6.14503,-8.20979 -8.05663,-3.02784 -2.5073,25.28568 -0.40556,50.92604 -3.95542,76.04458 -2.28326,8.2294 -17.74251,9.08196 -19.06714,-0.43737 -3.9696,-18.84139 -0.86996,-38.47513 -4.54281,-57.30073 -2.88824,-4.54139 -6.71379,1.68507 -7.30019,4.6548 -1.47429,5.41689 -8.35465,13.72511 -13.59674,7.19877 -6.24154,-11.70702 -0.23494,-25.04648 4.22472,-36.35623 5.67201,-15.43499 12.28459,-30.66099 16.1313,-46.67794 -1.64164,-4.49803 -8.43665,-0.7629 -12.18741,-2.80598 -7.32378,-0.78507 -11.97784,-7.74138 -10.67244,-14.75251 -0.0451,-8.83994 10.7329,-11.00266 17.66837,-11.38662 7.76203,0.0103 6.6114,-10.10853 7.17553,-15.3209 1.18802,-8.8304 -0.64079,-19.3266 5.06894,-26.82795 2.05088,-1.55018 4.79148,-1.53303 7.24102,-1.58682 z m 353.03363,0.51979 c 7.73418,-0.75626 12.49115,5.70522 16.02028,11.46267 4.68627,4.52219 12.46162,1.82626 18.28534,3.15462 18.27633,1.18163 36.87598,9e-4 54.83493,2.81654 5.68464,4.18925 6.4634,13.75677 2.81655,19.26364 -12.18832,4.66716 -25.70009,2.86927 -38.61554,4.23683 -12.41389,1.22076 -25.54523,0.0604 -37.41002,4.27408 -4.0002,3.52762 2.85699,7.0172 6.11272,6.42755 21.8083,2.37034 44.10884,0.73597 65.62569,3.96387 10.69287,4.59895 12.23795,18.56388 10.84359,28.75706 -0.10649,8.76153 -8.56878,15.77977 -17.18029,13.28614 -7.23572,-1.11961 -10.4997,-8.28364 -11.3845,-14.7842 -1.98861,-6.14156 -10.21902,-3.48438 -14.99424,-4.63524 -16.1037,-0.20195 -32.58786,-2.04405 -48.47625,1.09817 -4.76141,3.14191 -7.08482,9.03538 -12.02684,12.22334 -5.51004,5.32385 -13.30186,8.96578 -17.00702,15.79209 1.91878,6.77712 11.61572,5.65694 16.39005,2.50805 10.55382,-4.77216 17.97297,-15.08207 29.10147,-18.46918 6.61976,-0.59906 14.26646,-1.13592 20.15952,2.03476 2.16928,4.93974 1.18506,10.58653 -3.88991,13.33474 -10.92218,9.21482 -24.06794,15.85424 -34.84443,24.91575 2.39808,4.00089 9.15316,2.13248 13.47631,3.14617 7.21794,0.0873 14.93217,0.26884 21.72731,-2.01574 0.0129,-4.75409 -1.12855,-10.52469 3.61524,-13.67493 9.38498,-5.39992 20.90151,0.0535 28.8437,5.75986 7.43828,5.92333 16.58946,11.45858 20.64761,20.38984 3.17453,8.98928 -7.25688,17.46063 -15.63573,13.29881 -17.8141,-3.37386 -36.23339,-1.29741 -54.27498,-1.96577 -7.80176,-1.91185 -4.93115,8.14228 -6.21853,12.65148 -1.87351,11.49278 -0.25177,24.15836 -5.53363,34.60932 -5.08279,4.59938 -13.57856,4.15457 -19.69892,2.23337 -4.61724,-4.31899 -2.94803,-11.99134 -4.22304,-17.77009 -1.28981,-9.19373 -0.0473,-18.78543 -1.42694,-27.78059 -10.01645,-1.49761 -21.13723,-3.39091 -30.95875,0.0275 -3.61164,3.88151 3.97546,5.94997 6.45857,7.33282 3.24508,2.13769 1.8113,8.17738 1.75653,12.01535 -7.18016,9.10827 -18.29288,14.39698 -28.27954,19.94611 -8.28903,3.79596 -22.50944,3.08721 -25.36791,-7.22202 -1.8818,-7.14494 5.53831,-10.83342 10.93424,-13.30809 8.17699,-4.76438 16.85603,-9.67219 23.21081,-16.60686 -3.20909,-4.02275 -10.50845,-0.7991 -15.39459,-1.84085 -8.27996,-0.18598 -21.55013,-0.92051 -21.74027,-11.91014 -1.22827,-6.1946 3.2492,-11.56357 9.45539,-11.90851 13.82215,-2.91337 28.45087,-1.06371 42.04321,-4.96751 3.7559,-3.71298 -3.61517,-6.59879 -5.74566,-8.7565 -6.56921,-5.73919 -16.90383,-9.28223 -19.78918,-18.18133 0.25578,-7.35976 -9.17921,-6.96519 -14.21794,-7.42062 -16.98475,-5.09446 -18.91052,-31.68987 -5.05626,-41.18959 15.64226,-4.10621 32.11446,-2.4324 48.23846,-3.79292 7.41452,-1.08866 15.76954,0.67202 22.64421,-2.49728 3.95647,-3.76086 -2.20823,-7.84954 -6.02206,-7.07726 -22.02742,-2.31813 -44.37674,-1.93168 -66.19387,-5.50528 -4.16582,-5.51637 -3.83213,-15.3485 1.55723,-19.84048 17.26753,-4.17359 35.50442,-2.03809 53.34953,-2.88415 7.14462,-0.63472 18.73332,1.37244 21.04485,-7.8073 0.98291,-5.56356 7.62616,-7.10679 12.4135,-7.14806 z m 51.06755,163.55817 c 13.80446,1.83445 25.60969,10.08035 36.65274,17.97805 3.83762,2.78584 9.41881,7.97719 4.50515,12.69545 -7.37762,10.13272 -21.10351,4.65337 -29.87673,-0.44761 -9.56038,-5.75138 -18.92566,-12.20804 -27.07747,-19.67388 -1.81942,-8.2479 9.94603,-10.62663 15.79631,-10.55201 z m -32.30468,63.65643 c 14.55271,0.77798 21.9574,15.28049 29.83043,25.44398 21.58314,30.89202 42.8329,62.39752 59.01009,96.5464 21.27731,36.59733 42.76826,73.15264 66.3631,108.31333 1.68674,3.85173 6.71141,7.3217 10.0111,3.01939 3.21237,-6.31221 -1.16465,-13.69398 -0.42683,-20.46379 0.15024,-13.18028 -0.23726,-27.04091 4.82595,-39.44007 6.21822,-6.5571 17.10667,-2.84249 24.02198,0.69305 12.02616,6.14113 18.7689,18.5066 28.91976,26.7878 5.6995,2.9611 9.2805,-5.28294 7.446,-9.81248 -0.6685,-6.58028 -6.0868,-12.88328 -4.3886,-19.49605 6.3544,-7.7325 15.619,-13.56523 25.2665,-16.18721 5.5845,0.65132 8.67,7.16192 13.1158,10.14231 8.3885,7.48083 15.7244,16.67175 25.3291,22.61454 5.6891,-0.35616 3.0443,-8.48269 3.6123,-12.11088 0.3738,-6.68821 -1.7781,-16.625 5.5219,-20.13886 13.4172,-2.57286 24.0563,8.82718 32.633,17.43217 27.4864,31.20215 47.5934,68.47898 63.7106,106.69228 8.4998,21.8533 12.3142,45.2808 17.8205,68.043 2.3839,11.2412 3.5967,22.6813 4.6653,34.109 -22.4971,24.0505 -43.5057,49.8656 -69.8536,69.7649 -13.0281,8.3835 -29.5201,11.8808 -44.5365,8.2532 -20.9892,-8.8748 -36.1324,-29.2223 -59.1939,-33.7521 -23.0831,-2.5277 -46.29914,-3.8735 -69.05924,-8.8933 -31.82802,-6.8886 -64.06199,-14.7388 -93.1678,-29.8157 -9.57988,-5.7651 -20.44192,-12.7097 -24.07268,-23.8297 0.8263,-8.9816 10.72333,-13.8566 18.30225,-16.652 11.64265,-2.181 23.53883,1.4386 35.18726,2.2768 14.45064,1.124 28.62933,6.2107 43.18577,5.1332 5.05993,-0.5471 11.97911,-4.5647 8.6398,-10.5287 -11.07168,-21.8359 -26.1707,-41.3766 -38.84,-62.2978 -23.09086,-36.6762 -43.08712,-75.21749 -65.67984,-112.23536 -24.87927,-42.87253 -50.82447,-85.62491 -69.3051,-131.6757 -3.51645,-10.38604 -8.57722,-24.4594 0.74587,-33.31466 2.83998,-2.61794 6.26021,-4.75182 10.35973,-4.62099 z"
       style="fill:#000000;fill-opacity:1;stroke-width:1.08182" />
  </g>
</svg>
