<?xml version="1.0" encoding="UTF-8" standalone="no"?>
<svg
   xmlns:dc="http://purl.org/dc/elements/1.1/"
   xmlns:cc="http://creativecommons.org/ns#"
   xmlns:rdf="http://www.w3.org/1999/02/22-rdf-syntax-ns#"
   xmlns:svg="http://www.w3.org/2000/svg"
   xmlns="http://www.w3.org/2000/svg"
   xmlns:sodipodi="http://sodipodi.sourceforge.net/DTD/sodipodi-0.dtd"
   xmlns:inkscape="http://www.inkscape.org/namespaces/inkscape"
   inkscape:version="1.0 (4035a4fb49, 2020-05-01)"
   sodipodi:docname="PCロゴ.svg"
   viewBox="0 0 1500 1000"
   id="svg10"
   version="1.1">
  <metadata
     id="metadata16">
    <rdf:RDF>
      <cc:Work
         rdf:about="">
        <dc:format>image/svg+xml</dc:format>
        <dc:type
           rdf:resource="http://purl.org/dc/dcmitype/StillImage" />
        <dc:title></dc:title>
      </cc:Work>
    </rdf:RDF>
  </metadata>
  <defs
     id="defs14" />
  <sodipodi:namedview
     scale-x="1"
     inkscape:current-layer="g18"
     inkscape:window-maximized="1"
     inkscape:window-y="-8"
     inkscape:window-x="1432"
     inkscape:cy="774.71034"
     inkscape:cx="716.54189"
     inkscape:zoom="0.23207343"
     showgrid="false"
     id="namedview12"
     inkscape:pageshadow="2"
     inkscape:pageopacity="0"
     guidetolerance="10"
     gridtolerance="10"
     objecttolerance="10"
     borderopacity="1"
     bordercolor="#666666"
     pagecolor="#ffffff" />
  <g
     inkscape:label="ssasd"
     id="layer1"
     inkscape:groupmode="layer">
    <path
       id="path33"
       d="m 489.87762,346.56117 c -3.2981,0.1247 -7.3331,0.7992 -8.9778,4.0632 -2.0033,4.3103 -1.8178,9.2256 -2.2129,13.8599 -0.3643,0.6571 0.4852,2.5964 -0.6825,2.4193 -15.0208,0.3145 -30.0551,0.2059 -45.0651,0.8992 -3.2831,0.1865 -6.951,0.4806 -9.3569,3.0162 -2.1277,1.8417 -3.7652,4.3305 -3.9622,7.2045 -0.9244,8.6465 -0.7694,17.3661 -1.0302,26.0487 -0.3595,15.1503 -0.2569,30.3625 -1.5856,45.4452 -0.8113,10.1673 -4.0045,19.8811 -6.2453,29.7854 -1.291,5.9021 2.0391,12.7021 7.9568,14.5473 2.5262,0.3042 5.5077,0.5136 7.5154,-1.3739 2.8688,-2.5996 3.6293,-6.6248 4.8329,-10.1329 3.3251,-11.3769 4.8115,-23.161 6.7807,-34.8145 -0.098,-0.674 0.4101,-0.9729 1.0588,-0.7817 2.5169,0.2135 5.2289,1.5823 7.6211,0.1098 2.605,-1.6728 3.6531,-4.7994 5.1114,-7.3732 0.045,6.3493 -1.9549,12.5049 -4.2304,18.3748 -1.928,4.6689 -5.4115,8.4632 -7.6416,12.9583 -0.7016,2.0746 -0.6169,4.3885 -0.2508,6.5207 1.2749,3.6407 5.4497,5.7592 9.1642,5.3976 3.4528,-0.7375 5.5906,-3.9078 7.7716,-6.4119 2.5732,-2.9848 4.0533,-6.6959 6.3517,-9.8575 0.5,-0.7819 1.0718,0.3311 1.4025,0.6918 1.455,2.1786 3.6648,4.2498 6.4689,4.1171 3.5245,0.1476 6.1251,-3.0345 6.7564,-6.2446 0.4301,-2.2731 0.758,-4.7471 0.01,-6.979 -2.0241,-4.9272 -6.5545,-8.1911 -9.1322,-12.7418 -0.4953,-0.7136 -0.1306,-1.6824 0.7697,-1.6937 2.995,-0.5932 6.7997,0.041 8.9218,-2.6727 2.1475,-2.7771 3.0352,-6.2888 4.962,-9.198 1.5658,6.2557 2.3276,12.6913 3.262,19.0592 0.2702,2.7971 0.9047,5.6167 0.654,8.4156 -1.5742,3.6395 -4.4254,6.5732 -6.8457,9.6819 -3.1857,4.0622 -7.2124,7.5211 -9.7195,12.0805 -1.4476,3.5636 0.146,7.8218 3.1968,10.0235 2.6823,2.2758 6.616,3.0432 9.9763,2.0543 3.1,-1.3526 5.1672,-4.2278 7.5924,-6.4699 1.1808,-1.1469 2.3724,-2.4904 3.5857,-3.4757 3.6177,5.3283 7.0099,11.4678 13.0456,14.396 3.1254,1.1779 6.6664,1.2485 9.9042,0.5099 4.6085,-1.3711 7.3617,-5.8 9.4586,-9.816 2.5264,-5.2192 4.2965,-10.8146 5.3777,-16.5053 0.179,-3.1162 0.5335,-6.5051 -1.1862,-9.2954 -1.608,-2.6938 -3.4976,-5.5518 -6.3983,-6.9685 -1.6735,-0.3526 -3.5133,-0.3667 -5.1653,0.1027 -1.6254,0.9447 -1.4773,3.1846 -2.0064,4.7702 -0.8095,3.2154 -1.0288,6.6079 -2.3262,9.6792 -0.3313,0.9972 -1.5994,1.3886 -2.2816,0.4869 -2.0828,-2.2875 -2.5482,-5.5531 -3.583,-8.39 -0.941,-1.5062 0.4632,-2.8558 0.9453,-4.267 7.0354,-14.8822 12.6809,-30.4224 16.6118,-46.4129 0.3528,-1.6038 0.9129,-3.1913 1.1398,-4.8053 -1.2023,-3.0089 -2.8139,-6.2557 -5.9749,-7.5988 -4.5433,-2.2172 -10.4639,0.082 -12.5588,4.6229 -2.4983,5.7195 -3.3471,12.0359 -5.4405,17.8654 -0.063,0.5014 -0.7163,0.5161 -0.59,-0.075 -1.1819,-8.8787 -1.7269,-17.8964 -2.1938,-26.8671 -0.084,-1.9054 -0.073,-3.8305 -0.095,-5.744 4.1857,-0.872 8.5428,-0.617 12.8114,-0.9601 3.4061,-0.3395 7.0563,-0.021 10.2274,-1.5179 2.1349,-1.3137 3.6103,-3.5635 3.8596,-6.0744 0.4731,-3.1984 0.8914,-6.6 -0.091,-9.7389 -0.8128,-1.8685 -2.7857,-2.7081 -4.4444,-3.615 0.2512,-1.0002 1.3663,-1.6765 1.7328,-2.6864 2.2242,-3.9392 1.3099,-9.5469 -2.6039,-12.0782 -4.7065,-3.3374 -11.2225,-4.2924 -16.4722,-1.6563 -2.195,1.0016 -4.1139,2.4998 -6.2421,3.6155 -1.0292,-2.2226 -1.4431,-5.0868 -3.8671,-6.3132 -1.9397,-1.0353 -4.2115,-1.2577 -6.3756,-1.2157 z m 10.7262,11.9061 c 2.6625,0.8517 4.899,2.6774 7.2173,4.1888 1.6156,1.2802 3.5584,2.3295 4.7426,4.0462 -0.7867,0.5458 -2.1644,0.2991 -3.1706,0.4234 -2.9668,0.01 -5.9628,0.2089 -8.9135,-0.091 -0.6131,-2.5993 -1.0288,-5.3968 -0.4124,-7.9926 0.1052,-0.2231 0.2173,-0.6083 0.5366,-0.5744 z m -21.0673,31.3394 c 0.8161,10.0281 1.7137,20.1058 2.2485,30.1355 -0.018,0.5732 0.2372,1.5327 -0.6688,1.3519 -3.3912,0.2494 -7.2604,0.508 -9.6359,3.2921 -1.2556,1.3441 -2.0427,3.0212 -2.9086,4.6216 -0.1434,-5.2846 -0.068,-10.572 -0.088,-15.8578 3.2106,-0.7756 7.1818,-1.7693 8.4892,-5.2095 0.9071,-2.6271 0.8907,-5.6947 -0.2647,-8.2388 -2.1306,-3.2581 -6.4278,-3.7624 -9.9923,-3.8714 -5.6927,-0.053 -11.4076,-0.2658 -17.0886,0.1528 -2.7151,0.3347 -5.523,1.4009 -7.0097,3.8461 -2.2366,2.9868 -1.7258,7.4332 0.9375,9.9868 2.0159,2.3244 5.228,2.737 8.089,3.1539 -0.01,2.4978 0.02,4.9961 -0.033,7.4936 -3.1099,0.3241 -6.8025,0.736 -8.6609,3.626 -1.9236,3.2949 -2.2501,7.2258 -3.5473,10.772 -0.1279,0.5294 -0.6197,1.7107 -0.6628,1.5418 -0.4045,-8.319 -0.086,-16.6782 -0.1138,-25.013 0.1275,-7.2429 -0.065,-14.5089 0.4055,-21.7331 0,-1.1478 1.6117,-0.5658 2.3484,-0.8109 12.6653,-0.4549 25.3726,-0.2078 38.0546,-0.279 0.034,0.3465 0.067,0.6929 0.101,1.0394 z"
       style="fill:#ffd66b;fill-opacity:1;stroke-width:0.21545" />
    <path
       id="path35"
       d="m 398.39762,349.31067 c -2.9186,-0.129 -5.8311,0.8076 -8.0318,2.752 -2.9848,2.1147 -4.3895,5.9727 -3.679,9.5311 0.7216,4.2192 4.7668,6.5991 8.1084,8.6599 2.8167,1.5101 5.6488,3.6577 9.0172,3.4011 2.355,-0.1513 5.0169,0.038 7.0362,-1.3782 3.4151,-2.6371 5.4963,-6.9842 4.9739,-11.3186 -0.2522,-2.988 -2.0309,-5.7194 -4.6545,-7.1723 -2.7952,-1.7219 -5.6481,-3.6366 -8.9113,-4.2953 -1.2782,-0.1678 -2.5716,-0.1936 -3.8591,-0.1797 z"
       style="fill:#ffd66b;fill-opacity:1;stroke-width:0.21545" />
    <path
       id="path37"
       d="m 392.46812,392.60917 c -4.8769,0 -9.9901,2.9255 -11.3586,7.8092 -1.1478,3.5858 -0.1529,8.0788 3.2621,10.0725 3.3728,2.3169 6.8299,4.6499 10.6739,6.103 3.6615,0.4254 7.7006,-0.014 10.6736,-2.396 2.8671,-1.9829 3.4502,-5.7333 3.3206,-8.9718 -0.1421,-1.9234 0.3906,-4.3096 -1.2638,-5.7393 -3.8653,-4.2606 -9.5011,-7.0189 -15.3078,-6.8776 z"
       style="fill:#ffd66b;fill-opacity:1;stroke-width:0.21545" />
    <path
       id="path39"
       d="m 400.56932,434.87637 c -3.3398,0.048 -6.0673,2.5674 -7.3328,5.5095 -3.1027,6.8189 -5.2965,14.0108 -8.094,20.9511 -1.8397,5.1007 -4.1796,10.0502 -5.534,15.3112 -0.747,5.4208 2.3063,11.1658 7.1338,13.7034 2.9019,1.3845 6.3588,1.1267 9.3704,0.2499 2.886,-1.1649 4.005,-4.4142 5.2693,-6.9936 3.7266,-9.0333 6.5865,-18.3971 9.4943,-27.7177 0.916,-3.4156 2.1939,-7.0188 1.1649,-10.5633 -0.726,-3.9733 -3.8333,-6.9506 -6.9512,-9.2445 -1.3237,-0.8946 -2.9312,-1.2959 -4.5207,-1.206 z"
       style="fill:#ffd66b;fill-opacity:1;stroke-width:0.21545" />
    <path
       id="path41"
       d="m 1148.5965,572.74657 c -2.2927,1.93 -3.6122,4.8673 -5.381,7.274 -16.3177,25.5284 -32.2274,51.3204 -47.7447,77.3426 -0.9202,1.9406 -2.541,3.7242 -3.016,5.8076 1.555,1.3594 3.9783,0.6047 5.8766,0.8758 28.2882,0.037 56.5748,-0.5542 84.8557,-1.1485 4.6559,-0.3075 9.4467,0.048 14.0053,-1.0395 1.7896,-0.7401 0.5161,-2.9616 -0.018,-4.1401 -7.4451,-14.6862 -15.8294,-28.875 -23.8124,-43.2719 -7.7987,-13.6082 -15.2832,-27.4164 -23.6883,-40.664 -0.312,-0.3394 -0.5487,-0.9977 -1.0773,-1.036 z m 8.0124,32.3252 c 3.173,-0.082 5.1482,3.4636 4.6579,6.3121 -0.038,2.435 -0.06,5.2581 -2.2096,6.9045 -1.8402,2.2364 -5.9148,2.769 -7.5852,0.08 -1.7325,-2.8488 -2.6534,-6.8649 -0.185,-9.568 1.3755,-1.6202 2.9696,-3.7288 5.3219,-3.7283 z m -17.9053,1.48 c 3.0727,-0.2604 4.9278,2.8019 4.9994,5.5404 0.3034,3.4928 -0.067,8.1673 -3.7193,9.7948 -2.3679,1.2008 -5.0054,-0.9053 -5.7112,-3.1356 -1.0037,-2.6235 -0.5381,-5.5556 -0.4755,-8.3076 0.4002,-2.4308 2.4373,-4.0914 4.9066,-3.892 z m -12.4489,8.8682 c 3.8225,0.5856 6.0194,4.7046 6.4158,8.238 0.3273,3.2742 -2.8757,5.3782 -5.369,6.7318 -1.6236,0.9637 -3.8822,1.1348 -5.1417,-0.5303 -1.7027,-1.4357 -2.7252,-3.6217 -2.271,-5.8487 0.039,-2.557 0.3075,-5.5353 2.6763,-7.0602 1.0356,-0.8525 2.2991,-1.6099 3.6896,-1.5306 z m 41.7796,0.7368 c 3.0707,0.4692 6.268,3.1652 5.513,6.5687 -0.6079,3.2138 -2.3199,6.6684 -5.3762,8.1385 -2.3433,0.6798 -5.0834,-0.6397 -6.4431,-2.5577 -1.3312,-3.3196 0.7209,-6.8084 2.356,-9.6364 0.8882,-1.3222 2.2044,-2.6988 3.9503,-2.5131 z m -19.2069,5.3326 c 3.573,-0.1285 6.1552,2.9371 7.3477,5.9909 1.0622,2.0716 1.7438,4.639 4.1062,5.6195 2.9449,2.0224 6.7729,3.6246 8.2933,7.0793 0.8369,4.1975 -1.4107,8.5421 -4.4002,11.3742 -2.6913,2.1033 -6.3402,4.2866 -9.8173,2.6422 -2.8287,-1.1742 -5.6286,-2.9279 -8.8331,-2.4107 -4.3455,0.3936 -8.0283,3.6373 -12.4304,3.595 -3.2312,-1.0126 -5.7401,-3.5556 -7.9523,-5.9867 -2.2211,-2.7018 -1.943,-6.6379 -0.9052,-9.7692 1.7931,-4.5207 7.2263,-5.2604 10.3839,-8.4195 2.9748,-2.9801 4.6583,-7.6173 8.8182,-9.205 1.7506,-0.5071 3.5872,-0.4492 5.3892,-0.51 z"
       style="fill:#ffd66b;fill-opacity:1;stroke-width:0.30469" />
    <path
       id="path43"
       d="m 1237.499,551.77367 c -1.182,-0.088 -2.419,0.5462 -2.7983,1.7183 -1.7255,4.7101 -2.828,9.6212 -3.9715,14.4975 -2.177,9.8227 -4.0279,19.7347 -5.1099,29.7422 -0.045,1.2981 -0.3666,2.6964 0.134,3.9399 0.6806,1.0163 1.6462,2.2015 3.0081,2.0903 1.2095,-0.089 2.5677,-0.3698 3.2843,-1.4547 2.2315,-2.9844 3.7576,-6.424 5.2692,-9.8102 1.9939,-4.5772 3.5265,-9.3519 4.4959,-14.2513 1.624,-7.2284 3.612,-14.3885 4.7668,-21.7157 0.1454,-1.0553 0.3189,-2.5367 -0.8496,-3.0889 -1.9781,-0.8448 -4.1343,-1.2011 -6.2478,-1.5397 -0.6566,-0.087 -1.3183,-0.1467 -1.9812,-0.1277 z"
       style="fill:#ffd66b;fill-opacity:1;stroke-width:0.107725" />
    <path
       id="path45"
       d="m 1225.0428,619.58647 c -1.0978,-0.084 -2.1012,0.6055 -2.5305,1.5984 -0.6454,1.3381 -1.3438,2.7535 -1.3748,4.2652 0.1055,1.2435 1.5598,1.4887 2.5583,1.6161 1.2675,0.086 2.7278,0.4966 3.8657,-0.2672 0.9303,-0.8731 0.9694,-2.2791 1.2085,-3.4546 0.1164,-1.0844 0.3986,-2.5646 -0.7377,-3.2271 -0.8993,-0.5055 -1.987,-0.5104 -2.9895,-0.5308 z"
       style="fill:#ffd66b;fill-opacity:1;stroke-width:0.107725" />
  </g>
  <g
     id="g18"
     inkscape:label="Image"
     inkscape:groupmode="layer">
    <path
       id="path22"
       d="m 733.87432,694.55327 c -3.0938,-1.928 -5.7191,-5.0144 -6.4586,-7.5929 -0.9548,-3.3291 -0.8897,-127.6827 0.069,-131.134 0.8717,-3.1396 5.5434,-8.4237 8.5731,-9.6969 1.78,-0.7482 13.4661,-0.9176 63.292,-0.9176 59.4126,0 61.1814,0.037 63.7228,1.3335 3.4155,1.7425 7.3538,6.3964 8.0075,9.4624 0.2854,1.3386 0.5189,31.1321 0.5189,66.2077 v 63.7738 l -1.5582,2.9184 c -0.9627,1.8032 -2.7634,3.6828 -4.7123,4.9188 -2.9704,1.8837 -3.5645,2.0003 -10.1972,2.0003 -6.8799,0 -7.089,-0.046 -9.0262,-1.9832 -1.0907,-1.0907 -1.9831,-2.4646 -1.9831,-3.053 0,-0.9635 -4.5175,-1.0698 -45.4559,-1.0698 -40.9384,0 -45.4558,0.1063 -45.4558,1.0698 0,0.5884 -0.8924,1.9623 -1.9832,3.053 -1.9232,1.9233 -2.1844,1.9831 -8.6501,1.9806 -5.3308,0 -7.075,-0.2567 -8.7024,-1.2709 z m 28.1103,-33.6474 c -3.0889,-4.0913 -4.2072,-7.594 -3.58,-11.2134 0.8737,-5.0413 2.7476,-7.141 10.0267,-11.2344 3.0092,-1.6922 6.2148,-3.6407 7.1235,-4.3299 l 1.6522,-1.2531 -4.7826,-2.4085 c -6.4912,-3.2689 -8.3593,-5.5789 -8.3593,-10.3366 0,-3.2959 0.2639,-3.9699 2.5442,-6.4969 3.1732,-3.5165 5.8218,-4.6502 10.8333,-4.637 3.2616,0.01 5.1808,0.5876 11.3858,3.4348 l 7.4629,3.4243 2.2032,-2.5866 c 1.2118,-1.4227 3.3921,-4.2659 4.8452,-6.3181 l 2.642,-3.7315 -3.9977,0.2299 c -4.7964,0.2758 -9.246,-1.5693 -11.7649,-4.8789 -1.8827,-2.4736 -5.8006,-12.7947 -5.8006,-15.2808 0,-2.7273 2.6356,-7.3915 4.9668,-8.7895 4.881,-2.9272 10.2901,-2.3292 14.6626,1.6211 2.0272,1.8314 3.1569,3.8491 5.1897,9.2684 l 2.5985,6.9273 2.0896,-4.5369 c 3.4641,-7.521 8.2691,-11.3122 14.3779,-11.3443 6.9899,-0.037 12.4258,5.1762 12.4258,11.9161 0,4.5896 -9.4182,23.1378 -17.3416,34.1523 -1.993,2.7705 -3.5062,5.2273 -3.3628,5.4594 0.1435,0.2322 3.0701,2.0849 6.5035,4.1173 7.5542,4.4716 9.5758,6.8638 9.9866,11.8182 0.398,4.7992 -0.7354,7.9181 -3.9244,10.7992 -2.9173,2.6355 -5.8851,3.4605 -10.763,2.9918 -2.6046,-0.2502 -4.7286,-1.3049 -11.0971,-5.5102 -4.3317,-2.8604 -8.1944,-5.2007 -8.5839,-5.2007 -0.3894,0 -3.4052,2.0608 -6.7018,4.5795 -5.3841,4.1138 -10.0288,7.2556 -17.1324,11.5888 l -2.3746,1.4484 34.0919,0.011 34.0919,0.011 v -47.1519 -47.152 h -45.4559 -45.4558 v 47.152 47.1519 h 5.7888 5.7887 l -2.8029,-3.7124 z m 2.9983,-54.5385 c -2.2317,-1.6167 -3.2098,-3.1854 -5.8686,-9.4132 -3.4561,-8.0952 -3.8316,-10.7919 -2.0022,-14.3796 2.3654,-4.6387 7.4772,-6.6072 13.3113,-5.1259 4.1961,1.0655 6.058,2.9418 9.2526,9.3243 4.2539,8.499 4.3881,12.7881 0.5376,17.1736 -2.8218,3.2139 -5.2489,4.3607 -9.2285,4.3607 -2.5805,0 -3.9233,-0.4339 -6.0022,-1.9399 z m 180.388,85.3908 c -1.7367,-1.0588 -3.5213,-3.6262 -4.5823,-6.5921 -0.028,-0.08 -8.7386,1.5375 -19.3559,3.5934 -12.0837,2.34 -20.3871,3.6301 -22.1998,3.4493 -8.2771,-0.8255 -13.5615,-10.2633 -9.7561,-17.4244 1.8197,-3.4244 4.8449,-5.1848 10.4595,-6.0866 7.1882,-1.1546 7.2808,-1.1984 7.2808,-3.4468 0,-1.9378 -0.089,-1.9896 -3.426,-1.9896 -4.1472,0 -6.4212,-1.0944 -9.6119,-4.6262 -2.5496,-2.822 -3.7331,-6.5383 -4.3603,-13.6918 -0.2597,-2.9616 -0.045,-4.1796 1.0426,-5.9035 1.9161,-3.0383 5.029,-4.5028 8.6934,-4.0898 3.3177,0.374 5.374,1.877 6.7106,4.9049 0.8392,1.9012 0.9002,1.6663 0.925,-3.5618 l 0.027,-5.5972 h -5.1221 c -5.6224,0 -7.6884,-0.7593 -10.7071,-3.9353 -3.6956,-3.8882 -3.6951,-10.6303 0,-14.519 3.0177,-3.1749 5.0842,-3.9344 10.7062,-3.9344 h 5.122 v -3.053 -3.053 h -4.0186 c -3.322,0 -4.3765,-0.3011 -6.083,-1.737 -1.2404,-1.0437 -2.2391,-2.6691 -2.5024,-4.0724 -0.241,-1.2845 -1.4901,-3.7131 -2.7757,-5.3969 -3.2471,-4.2525 -4.2963,-7.1075 -4.2885,-11.6694 0.01,-4.7591 1.6767,-8.381 7.4338,-16.1349 2.2164,-2.9851 5.4506,-8.1214 7.187,-11.4138 5.2847,-10.0204 9.1724,-12.9636 17.0074,-12.8754 8.7614,0.099 13.2485,3.04 24.5203,16.0738 2.8564,3.303 2.8696,3.3092 2.8845,1.3569 0.037,-4.9346 5.5101,-11.687 10.6225,-13.1067 1.4766,-0.41 9.2496,-0.7214 18.0606,-0.7236 16.9532,0 17.7718,0.1548 21.0869,4.0946 1.4386,1.7098 1.7769,2.8118 1.7769,5.7892 0,3.2676 -0.2715,3.978 -2.4362,6.374 -1.5721,1.7401 -3.2566,2.8505 -4.7491,3.1305 -1.8387,0.3449 -2.313,0.7552 -2.313,2.0006 0,1.1877 0.4904,1.6744 2.0271,2.0119 1.1525,0.2531 3.0118,1.5957 4.3096,3.1118 l 2.2825,2.6667 1.458,-4.9237 c 0.8019,-2.708 2.20848,-8.2524 3.12588,-12.3208 1.3092,-5.8065 2.0749,-7.8254 3.561,-9.3891 5.1278,-5.3957 12.0261,-5.2379 16.9657,0.388 2.6257,2.9905 3.2803,6.0196 2.2943,10.6169 -0.4097,1.9105 -0.7449,3.6112 -0.7449,3.7794 0,0.1682 2.1673,0.3058 4.8162,0.3058 3.0592,0 5.672,0.4061 7.162,1.1132 7.6458,3.6282 8.4627,15.0196 1.4364,20.0311 -2.0069,1.4315 -3.0771,1.6049 -11.1371,1.8045 l -8.9167,0.2208 -1.1299,2.9587 c -1.5882,4.1586 -5.5686,7.5744 -9.516,8.1664 -3.0981,0.4646 -6.3411,0.1927 -8.66538,-0.7265 -0.9448,-0.3736 -1.1873,-0.113 -1.1873,1.2756 0,2.2975 -3.5901,6.328 -6.1344,6.8869 -1.6649,0.3656 -2.007,0.7785 -2.007,2.4222 0,1.7086 0.2569,1.9818 1.8658,1.9839 2.537,0 6.0036,2.2325 7.6361,4.91 2.72188,4.4642 1.1019,10.5673 -3.5593,13.4092 -2.049,1.2493 -3.4441,1.3483 -19.0244,1.3507 -18.5686,0 -19.8856,-0.2302 -24.1459,-4.2721 -4.5945,-4.3591 -4.8043,-5.4853 -4.8209,-25.8735 l -0.014,-18.2754 -2.0354,1.95 c -1.9841,1.9009 -2.0353,2.1136 -2.0353,8.4485 0,5.0215 -0.2856,7.0358 -1.2562,8.8625 -1.6834,3.1677 -4.8236,5.1927 -8.9279,5.7572 l -3.3848,0.4655 v 2.6501 2.6501 h 4.1044 c 4.5523,0 6.8272,0.924 9.6894,3.9354 3.6956,3.8882 3.6951,10.6302 0,14.519 -2.8613,3.0104 -5.1365,3.9343 -9.6885,3.9343 h -4.1044 l 0.079,5.5972 c 0.043,3.0785 0.227,4.9866 0.4084,4.2403 0.6695,-2.7562 3.5802,-5.7136 6.3599,-6.4621 3.437,-0.9255 6.4452,-0.037 9.039,2.6706 2.5977,2.7114 2.9071,6.1208 1.1047,12.1727 -2.2928,7.6958 -7.2088,11.6329 -14.5262,11.6329 -2.2068,0 -2.4654,0.1863 -2.4654,1.7753 0,1.5151 0.2237,1.7127 1.5265,1.3485 0.8396,-0.2347 3.8162,-0.5972 6.6148,-0.8055 4.4117,-0.3284 5.3904,-0.1879 7.3599,1.0566 1.3596,0.8591 2.6946,2.5124 3.3255,4.1185 0.6982,1.7774 1.4774,2.6833 2.308,2.6833 1.1816,0 1.2548,-0.8706 1.2689,-15.0954 0.017,-17.164 0.3413,-18.5887 5.2376,-23.003 4.3498,-3.9218 6.1453,-4.098 39.1856,-3.8473 32.22328,0.2445 30.93368,0.072 35.41438,4.7429 3.965,4.1336 4.2747,5.7361 4.2747,22.1189 v 14.8113 l 2.4216,0.8757 c 7.1737,2.594 6.728,15.7573 -0.6807,20.0991 l -2.8778,1.6865 h -43.36088 c -42.0875,0 -43.4259,-0.042 -45.5746,-1.3522 z m 29.6907,-31.5498 c 0,-10.0636 -0.058,-10.5159 -1.3569,-10.5159 -1.2985,0 -1.3569,0.4523 -1.3569,10.5159 0,10.0636 0.058,10.5159 1.3569,10.5159 1.2985,0 1.3569,-0.4523 1.3569,-10.5159 z m 19.6749,0 c 0,-10.0636 -0.058,-10.5159 -1.3569,-10.5159 -1.2985,0 -1.3569,0.4523 -1.3569,10.5159 0,10.0636 0.058,10.5159 1.3569,10.5159 1.2986,0 1.3569,-0.4523 1.3569,-10.5159 z m 18.99648,0 c 0,-10.0636 -0.058,-10.5159 -1.3569,-10.5159 -1.2986,0 -1.3569,0.4523 -1.3569,10.5159 0,10.0636 0.058,10.5159 1.3569,10.5159 1.2985,0 1.3569,-0.4523 1.3569,-10.5159 z m -43.42048,-55.9717 c 0,-1.8738 -0.1885,-2.0354 -2.3746,-2.0354 -2.1861,0 -2.3745,0.1616 -2.3745,2.0354 0,1.8738 0.1884,2.0353 2.3745,2.0353 2.1861,0 2.3746,-0.1615 2.3746,-2.0353 z m 8.8198,-20.3534 v -2.0353 h -6.7845 -6.7844 v 2.0353 2.0353 h 6.7844 6.7845 z m -48.1697,-3.7687 c 0,-0.5013 -5.1365,-8.125 -7.6372,-11.3352 l -1.9885,-2.5528 -3.7362,5.6058 c -2.0548,3.0831 -4.1632,6.0877 -4.6853,6.6768 -0.5221,0.5891 -0.9492,1.276 -0.9492,1.5265 0,0.2504 4.2742,0.4554 9.4982,0.4554 5.224,0 9.4982,-0.1694 9.4982,-0.3765 z m 39.3499,-16.2454 c 0,-1.4861 -0.294,-1.6961 -2.3746,-1.6961 -2.0806,0 -2.3745,0.21 -2.3745,1.6961 0,1.4861 0.2939,1.6961 2.3745,1.6961 2.0806,0 2.3746,-0.21 2.3746,-1.6961 z m 101.95058,117.6663 c -2.8047,-1.4083 -4.2385,-3.9395 -4.2507,-7.5042 -0.01,-2.5686 4.4542,-10.4856 24.4936,-43.4494 11.6443,-19.1542 27.2654,-44.9007 34.7136,-57.2145 7.4482,-12.3138 14.13,-23.2175 14.8486,-24.2306 0.7184,-1.013 2.3757,-2.1372 3.6827,-2.498 3.7511,-1.0358 5.9324,0.1205 8.6,4.5584 1.2734,2.1187 7.6616,12.5533 14.196,23.1879 16.3149,26.5524 53.8421,87.7067 56.6203,92.2685 1.2841,2.1085 2.2733,4.6465 2.2743,5.8352 0,3.2274 -1.2538,6.1129 -3.0102,6.9131 -2.3962,1.0918 -14.0934,1.4436 -72.2955,2.1744 -29.2919,0.3678 -58.6007,0.8332 -65.1307,1.0343 -11.1514,0.3433 -12.0471,0.278 -14.742,-1.0751 z m 84.2589,-18.283 c 36.8185,-0.6073 40.1001,-0.7553 41.2033,-1.8586 1.146,-1.1459 0.1165,-3.1233 -23.3986,-44.9455 -13.5284,-24.0608 -25.048,-43.8244 -25.599,-43.9191 -0.6668,-0.1146 -10.189,14.7158 -28.4788,44.355 -15.1124,24.4899 -27.5746,45.096 -27.6939,45.7913 -0.2048,1.1946 0.4493,1.2635 11.8728,1.2505 6.6493,-0.01 30.0917,-0.3106 52.0942,-0.6736 z m -28.3882,-10.5275 c -2.8977,-2.3605 -3.9503,-3.7319 -4.5373,-5.9118 -1.5837,-5.8817 1.0279,-10.5513 7.4455,-13.312 2.5148,-1.0818 3.8061,-2.3137 6.3911,-6.097 3.573,-5.2293 5.2611,-6.2064 10.7225,-6.2064 4.117,0 6.7848,2.2174 8.5569,7.1121 0.6732,1.8593 1.8392,3.6911 2.591,4.0707 0.7519,0.3795 2.9837,1.7307 4.9596,3.0027 5.2662,3.3903 6.0668,6.4937 3.1564,12.2369 -1.6608,3.2774 -3.6714,5.1077 -7.3439,6.6849 -2.7584,1.1846 -4.2271,1.0187 -7.7958,-0.8811 -4.1694,-2.2195 -7.1187,-2.1401 -12.5865,0.3392 -2.4688,1.1194 -5.2308,2.0353 -6.1377,2.0353 -0.9482,0 -3.2519,-1.3059 -5.4218,-3.0735 z m -6.8786,-23.523 c -1.638,-1.9467 -1.7977,-2.5919 -1.5362,-6.2069 0.253,-3.4973 0.58,-4.2918 2.4569,-5.9688 1.1908,-1.064 2.9,-1.9345 3.7984,-1.9345 3.7542,0 7.8235,6.299 6.7731,10.4843 -0.5496,2.19 -5.4178,5.7984 -7.8227,5.7984 -1.239,0 -2.4395,-0.7108 -3.6695,-2.1725 z m 41.9053,0.823 c -2.8036,-1.7094 -2.93,-4.3919 -0.4422,-9.3842 2.6285,-5.2749 5.1955,-6.0462 9.3214,-2.8007 2.2376,1.7601 2.4046,4.9529 0.4586,8.7675 -2.4192,4.7419 -5.3851,5.8274 -9.3378,3.4174 z m -26.7985,-8.2031 c -4.1421,-2.4125 -4.2446,-13.5531 -0.1393,-15.1285 5.38,-2.0644 8.9408,2.4788 7.6459,9.7553 -0.8367,4.7019 -4.3462,7.214 -7.5066,5.3732 z m 15.1625,-3.0675 c -1.6139,-2.0516 -2.4323,-5.6253 -1.7678,-7.7189 0.2549,-0.8032 1.3841,-2.5089 2.5092,-3.7904 2.6714,-3.0425 5.8486,-3.2262 8.0283,-0.4643 1.2323,1.5615 1.4257,2.5183 1.1859,5.8677 -0.248,3.4638 -0.5776,4.262 -2.4515,5.9364 -2.7991,2.501 -5.6201,2.5647 -7.5041,0.1695 z m 70.5667,13.6805 c -6.0909,-1.007 -7.147,-2.0502 -6.5676,-6.488 1.4328,-10.9759 5.2508,-13.9178 14.4986,-11.1715 4.4889,1.333 4.9792,2.2975 4.1573,8.1773 -0.9413,6.7342 -1.8479,9.0809 -3.7939,9.8207 -1.9379,0.7368 -1.7416,0.7448 -8.2944,-0.3385 z m 6.3095,-8.4703 c 0.6998,-3.2714 0.059,-4.0955 -3.197,-4.1133 -1.5315,-0.01 -2.0912,0.4463 -2.8834,2.3424 -1.5226,3.6442 -1.2945,4.3179 1.5611,4.6099 3.734,0.3817 3.8454,0.3118 4.5193,-2.839 z m -221.1705,-1.6737 c -6.3168,-2.8171 -7.99378,-11.715 -3.2668,-17.3327 2.5746,-3.0597 5.3139,-3.5672 17.9109,-3.3177 10.4471,0.2068 11.3423,0.3271 13.4096,1.8016 2.9186,2.0817 4.4686,5.1813 4.4686,8.9359 0,3.7547 -1.55,6.8542 -4.4686,8.9359 -2.0912,1.4915 -2.8803,1.5893 -14.088,1.7452 -8.9066,0.1239 -12.3957,-0.068 -13.9657,-0.7682 z m 221.9091,-12.2876 c -0.3731,-0.1278 -2.1506,-0.431 -3.9499,-0.6738 -1.8792,-0.2536 -3.8465,-1.0164 -4.6224,-1.7924 -1.2054,-1.2054 -1.3072,-1.949 -0.9452,-6.9052 0.9685,-13.2593 2.7361,-24.5124 5.8649,-37.336 3.0708,-12.5864 3.5762,-13.7937 6.6364,-15.8537 4.3153,-2.9049 15.1771,-1.4742 19.1773,2.5261 3.0459,3.0459 2.8755,4.6498 -2.7735,26.1129 -1.1786,4.4777 -2.7872,10.1258 -3.5746,12.5512 -2.1787,6.7104 -8.4486,19.4294 -10.1734,20.6375 -1.4012,0.9814 -3.9479,1.3126 -5.6396,0.7334 z m 1.5316,-6.874 c 2.3088,-0.6187 8.8128,-14.8322 10.3591,-22.6382 0.3326,-1.6792 1.0653,-4.8848 1.6282,-7.1237 1.9973,-7.9435 3.7815,-16.4733 3.7815,-18.0781 0,-1.407 -0.4852,-1.7403 -3.5817,-2.4602 -5.3863,-1.2523 -7.2023,-1.0926 -7.8911,0.6938 -2.6117,6.7739 -6.7631,26.1077 -8.5472,39.8065 -0.928,7.1249 -0.919,7.85 0.1122,8.9894 1.2077,1.3345 1.7715,1.4449 4.139,0.8105 z M 897.71882,501.02547 c -2.644,-0.7738 -6.3931,-4.033 -7.86,-6.8329 -0.7552,-1.4416 -0.967,-5.7066 -0.9937,-20.0141 l -0.034,-18.1821 -2.6525,5.1871 c -3.4595,6.7656 -5.3464,8.2799 -9.7906,7.8572 -5.782,-0.5499 -8.715,-5.4892 -8.7528,-14.7404 -0.023,-5.6891 0.8734,-8.2304 6.1035,-17.3004 2.3668,-4.1046 5.8046,-10.8212 7.6395,-14.9258 l 3.3361,-7.4629 -4.8617,-0.5041 c -8.2219,-0.8526 -12.6639,-5.2687 -12.6639,-12.59 0,-3.9842 0.6372,-5.6241 3.3055,-8.5071 2.9901,-3.2307 4.8837,-3.8405 11.9258,-3.8405 h 6.4789 v -6.326 -6.3261 l -4.4119,0.6344 c -5.7186,0.8223 -8.6297,0.2272 -11.586,-2.3685 -4.9535,-4.3492 -6.4068,-10.5137 -3.4966,-14.8321 1.7806,-2.6422 3.2591,-3.2322 14.4062,-5.7492 4.4777,-1.0111 11.5511,-2.8687 15.7187,-4.128 11.1303,-3.3632 17.2126,-2.9824 23.0118,1.4409 3.7952,2.8947 5.1539,5.5374 4.8225,9.3801 -0.41,4.7545 -2.095,6.6056 -7.8191,8.5896 l -4.8646,1.6861 v 8.9994 8.9994 h 5.3859 5.3861 l 0.4239,-3.2226 c 0.6285,-4.7766 2.3027,-8.1451 5.341,-10.7458 3.7702,-3.2271 5.9849,-3.6631 18.6291,-3.6674 8.5625,0 11.017,-0.1965 10.7982,-0.8518 -0.2144,-0.6418 -2.7444,-0.7924 -10.4029,-0.6192 -10.9694,0.2481 -12.9225,-0.1343 -16.1182,-3.1554 -4.1407,-3.9147 -5.527,-9.0965 -3.4882,-13.0391 1.7695,-3.4219 3.489,-3.818 20.3419,-4.6865 8.5823,-0.4423 20.3364,-1.2539 26.1201,-1.8035 23.50248,-2.2334 25.47198,-2.1204 31.39148,1.8005 5.7149,3.7854 7.6575,9.7865 4.477,13.8298 -2.024,2.5731 -3.0671,2.8492 -15.77268,4.1739 -11.0312,1.1502 -11.276,1.2101 -11.276,2.7616 v 1.5859 h 13.0601 c 14.66988,0 16.49198,0.4424 19.32218,4.6788 3.3258,4.9785 1.3894,12.5056 -3.9011,15.1637 -2.003,1.0063 -4.3414,1.1863 -15.42108,1.1872 -7.212,0 -13.0601,0.2724 -13.0601,0.607 0,0.3333 4.6558,0.7278 10.3463,0.8767 8.99248,0.2353 10.71498,0.4641 13.16408,1.7489 3.4467,1.8082 6.5669,5.4724 7.6022,8.9278 1.004,3.3511 1.0425,34.6782 0.047,38.2633 -0.9197,3.3116 -4.9419,7.7823 -8.4317,9.3717 -2.2272,1.0144 -4.5078,1.2386 -12.72078,1.2509 -8.4363,0.013 -10.0071,0.1746 -10.0071,1.0325 0,0.8652 1.7531,1.0178 11.7032,1.0187 13.17988,0 15.19018,0.5248 17.96528,4.6788 3.2274,4.8313 1.3361,11.8539 -3.9011,14.4852 -1.9747,0.9921 -4.2763,1.1864 -14.06418,1.1873 -7.3491,0 -11.7032,0.2535 -11.7032,0.6795 0,0.4315 5.3717,0.6788 14.75618,0.6795 16.5373,0 18.1304,0.3558 21.0183,4.6788 3.3258,4.9785 1.3894,12.5056 -3.9011,15.1636 -2.1742,1.0924 -5.7977,1.1863 -45.79208,1.1873 -40.9686,0 -43.5651,-0.07 -45.7951,-1.2552 -7.3441,-3.9026 -7.3441,-14.6167 0,-18.5193 2.1097,-1.1211 4.0982,-1.2563 18.4877,-1.2563 9.5882,0 16.1236,-0.2579 16.1236,-0.6365 0,-0.3657 -5.3243,-0.7264 -12.5152,-0.848 l -12.5153,-0.2116 -2.4284,-2.3553 c -1.3355,-1.2954 -2.7739,-3.5088 -3.1963,-4.9187 -1.0448,-3.4874 0.08,-7.0232 3.1963,-10.0456 l 2.4284,-2.3553 12.5153,-0.2116 c 10.3351,-0.1747 12.5152,-0.3815 12.5152,-1.1872 0,-0.8023 -1.7181,-0.9784 -9.6678,-0.9906 -7.8808,-0.012 -10.1706,-0.2433 -12.3875,-1.2504 -3.3267,-1.5113 -7.0309,-5.5934 -7.5837,-8.3574 l -0.4097,-2.0485 -1.7108,2.1861 c -1.8107,2.3137 -5.1477,4.0575 -7.7642,4.0575 -0.866,0 -2.6898,-0.5686 -4.0529,-1.2636 l -2.4785,-1.2636 -0.2092,23.4827 c -0.2081,23.361 -0.2175,23.4961 -1.8192,26.0725 -3.0718,4.9411 -9.4854,7.4204 -15.0119,5.8032 z m 63.0954,-67.757 c 0,-1.1925 -0.4523,-1.3569 -3.7314,-1.3569 -3.2791,0 -3.7315,0.1644 -3.7315,1.3569 0,1.1924 0.4524,1.3568 3.7315,1.3568 3.2791,0 3.7314,-0.1644 3.7314,-1.3568 z m 32.5654,0 c 0,-1.1925 -0.4523,-1.3569 -3.7314,-1.3569 -3.2792,0 -3.7315,0.1644 -3.7315,1.3569 0,1.1924 0.4523,1.3568 3.7315,1.3568 3.2791,0 3.7314,-0.1644 3.7314,-1.3568 z m -61.9534,-29.8899 c 1.2565,-2.8679 4.2868,-6.0386 7.2543,-7.5906 2.3857,-1.2477 4.2228,-1.5044 12.4659,-1.7418 5.3173,-0.1531 9.6678,-0.5498 9.6678,-0.8815 0,-0.3338 -6.8139,-0.603 -15.265,-0.603 h -15.265 l -0.01,4.2403 c -0.01,5.6863 -0.8962,8.5506 -3.6674,11.7882 -2.2648,2.6459 -5.5104,4.4677 -9.505,5.3354 -1.9777,0.4296 -1.9663,0.4461 5.4276,7.8658 l 7.4094,7.4353 0.3606,-12.0569 c 0.1983,-6.6312 0.7026,-12.8373 1.1206,-13.7912 z m 29.388,10.8934 c 0,-1.1924 -0.4523,-1.3569 -3.7314,-1.3569 -3.2791,0 -3.7315,0.1645 -3.7315,1.3569 0,1.1924 0.4524,1.3569 3.7315,1.3569 3.2791,0 3.7314,-0.1645 3.7314,-1.3569 z m 32.5654,0 c 0,-1.1924 -0.4523,-1.3569 -3.7314,-1.3569 -3.2792,0 -3.7315,0.1645 -3.7315,1.3569 0,1.1924 0.4523,1.3569 3.7315,1.3569 3.2791,0 3.7314,-0.1645 3.7314,-1.3569 z m -262.1555,86.1741 c -2.3015,-0.7346 -6.2083,-4.3053 -7.5844,-6.9319 -0.7912,-1.5103 -0.9673,-8.2437 -1.0028,-38.3322 -0.024,-20.1253 -0.2964,-35.8914 -0.6079,-35.1432 -0.3107,0.7463 -1.5326,2.2728 -2.7153,3.3922 -1.9259,1.8228 -2.601,2.0353 -6.466,2.0353 -5.0141,0 -7.2191,-1.2495 -9.6905,-5.4913 -1.8121,-3.1103 -1.7921,-6.1002 0.1265,-18.9327 2.2217,-14.86 2.308,-15.1565 5.3847,-18.5051 3.3754,-3.6737 6.0296,-4.9013 10.5975,-4.9013 h 3.4141 v -12.6612 c 0,-12.3168 0.047,-12.7408 1.7141,-15.5862 1.0326,-1.7621 2.9297,-3.6373 4.7715,-4.7167 2.6509,-1.5535 3.6375,-1.7548 7.4197,-1.514 3.6027,0.2294 4.8012,0.6331 6.8839,2.3187 4.5733,3.7015 5.3003,6.0208 5.5614,17.7425 l 0.2305,10.3463 h 3.365 c 6.0361,0 8.9248,2.4519 12.4781,10.5913 l 2.3366,5.3521 0.023,-15.265 c 0.026,-17.0466 0.3585,-18.6215 4.8292,-22.8631 4.532,-4.2997 4.3158,-4.2747 36.8885,-4.2747 23.2642,0 30.0208,0.1948 31.7391,0.9149 3.2277,1.3526 6.4564,4.3166 8.1493,7.4814 1.4899,2.7852 1.4977,2.9887 1.6956,44.3053 l 0.1988,41.5073 1.9034,0.4181 c 1.0469,0.2299 2.9323,1.4796 4.1898,2.777 2.0592,2.1245 2.3124,2.8189 2.548,6.9892 0.2926,5.1772 -0.4897,7.3283 -3.8142,10.488 -2.4423,2.3214 -5.6096,3.1306 -12.3367,3.1521 l -5.0768,0.016 7.2077,7.2933 c 3.9643,4.0113 7.5463,7.9601 7.9602,8.7752 1.0736,2.1144 0.9296,7.4019 -0.2645,9.711 -0.5594,1.0817 -2.1338,2.8185 -3.4988,3.8596 -2.0855,1.5907 -3.2791,1.9333 -7.4737,2.1451 -7.568,0.3821 -10.7255,-1.4155 -18.333,-10.4371 -3.2859,-3.8968 -6.3525,-8.0806 -6.8145,-9.2973 -1.0379,-2.733 -0.531,-6.9242 1.1907,-9.8448 l 1.2997,-2.205 h -12.9944 -12.9946 l 1.7402,1.8657 c 2.1614,2.3175 3.0828,4.0862 3.2689,6.2756 0.3596,4.2314 -0.079,5.5372 -2.8895,8.6105 -4.6559,5.0906 -15.4624,13.7218 -18.0958,14.4533 -4.2444,1.1791 -9.5908,0.8079 -13.31,-0.924 -6.1505,-2.864 -8.6599,-7.5118 -7.1278,-13.2017 0.7931,-2.9453 0.8046,-2.9564 10.5478,-10.1878 2.9851,-2.2156 6.0091,-4.6726 6.72,-5.46 l 1.2924,-1.4316 h -5.3631 c -6.5066,0 -9.7227,-0.8275 -12.558,-3.2132 -7.9949,-6.727 -2.9,-20.5283 7.5783,-20.5283 h 1.9911 v -17.2836 -17.2835 l -1.7402,0.6616 c -4.8473,1.8429 -12.1384,0.016 -15.1335,-3.7912 l -1.3977,-1.7769 -0.1929,44.6696 c -0.1891,43.7942 -0.2207,44.7229 -1.6102,47.3835 -2.8053,5.3714 -10.245,8.3442 -16.1587,6.4567 z m 91.8658,-60.7324 v -1.6961 h -14.9258 -14.9258 v 1.6961 1.6961 h 14.9258 14.9258 z m 0,-23.0672 v -1.6961 h -14.9258 -14.9258 v 1.6961 1.6962 h 14.9258 14.9258 z m 0,-23.0671 v -1.6961 h -14.9258 -14.9258 v 1.6961 1.6961 h 14.9258 14.9258 z m 0,-22.7279 c 0,-1.3158 -0.4524,-1.3569 -14.9258,-1.3569 -14.4735,0 -14.9258,0.041 -14.9258,1.3569 0,1.3158 0.4523,1.3569 14.9258,1.3569 14.4734,0 14.9258,-0.041 14.9258,-1.3569 z m -583.8705,127.6767 c -4.2481,-3.0937 -5.011,-5.7448 -5.0682,-17.6127 l -0.048,-9.9933 -1.3295,4.664 c -0.7312,2.5653 -1.7612,5.2806 -2.289,6.034 -3.8125,5.4432 -12.7308,5.1069 -17.1183,-0.6454 -2.5279,-3.3142 -2.7414,-7.5833 -0.8729,-17.451 2.5161,-13.2875 2.536,-13.3428 6.0489,-16.7463 4.4358,-4.2977 8.2737,-5.2427 14.4699,-3.5628 1.0286,0.2788 1.1873,-0.1903 1.1873,-3.5097 v -3.8315 l -6.6977,0.4748 c -8.194,0.581 -10.7291,-0.1269 -13.9558,-3.8965 -2.5499,-2.979 -3.5776,-6.9618 -2.7586,-10.6909 0.7178,-3.2681 4.9091,-7.2795 8.1532,-7.8032 3.6536,-0.5899 4.2378,-0.9654 6.6214,-4.2558 l 2.0559,-2.838 -1.935,-2.5716 c -1.0642,-1.4144 -3.9637,-5.014 -6.4432,-7.9991 -2.4796,-2.9852 -4.8601,-6.4654 -5.2901,-7.7338 -1.6743,-4.9382 -0.6929,-9.7147 3.0457,-14.8243 2.5372,-3.4675 3.5829,-4.2405 5.7367,-4.2405 1.7006,0 2.076,-0.5601 4.8888,-7.2933 1.6757,-4.0113 3.2424,-7.952 3.4817,-8.7572 0.2392,-0.8052 1.7648,-2.6897 3.3901,-4.1879 2.2109,-2.038 3.7493,-2.8431 6.1086,-3.1969 3.8545,-0.578 8.5362,1.0032 10.5498,3.5631 1.8273,2.323 2.912,6.6094 2.339,9.2435 -0.4344,1.9973 -8.012,16.5731 -11.6028,22.3184 -1.6083,2.5733 -2.0496,4.593 -1.0036,4.593 0.3179,0 1.9208,-2.4704 3.5618,-5.4898 6.1088,-11.2394 8.7094,-13.6649 15.0335,-14.0207 3.3723,-0.1897 4.6825,0.044 6.4441,1.1494 3.1376,1.9689 4.907,5.1971 4.91,8.9582 0,2.714 -0.5672,4.0161 -4.1268,9.4371 -2.2712,3.4587 -5.3338,7.919 -6.8059,9.9117 l -2.6765,3.623 2.9048,0.015 c 3.5368,0.018 7.7052,1.8566 10.1555,4.4791 3.536,3.7844 9.7813,20.5323 9.137,24.5026 -0.6538,4.0292 -3.5049,7.5627 -7.6235,9.4483 -4.5482,2.0822 -6.8933,1.7166 -9.7327,-1.5173 -3.1532,-3.5912 -4.12,-3.1421 -4.119,1.9134 v 4.2403 l 4.2394,0.036 c 5.0171,0.043 9.054,1.8585 11.6231,5.2268 1.8768,2.4606 5.8461,13.595 5.8461,16.3992 0,4.4521 -3.8492,9.1983 -8.5017,10.4829 -5.0075,1.3826 -10.4454,-1.8772 -12.0909,-7.2481 -0.9344,-3.05 -0.9801,-2.6472 -1.0632,9.3642 -0.048,6.9032 -0.3643,13.7473 -0.7033,15.2093 -0.386,1.6642 -1.6435,3.6849 -3.3632,5.4046 -2.5847,2.5848 -3.0172,2.7615 -7.339,2.999 -4.2244,0.2322 -4.8154,0.09 -7.3745,-1.7736 z m 13.6976,-86.8722 c -0.1974,-0.3194 -0.6832,-1.4339 -1.0797,-2.4766 l -0.7208,-1.8959 -1.6741,2.2692 c -0.9208,1.248 -1.6741,2.3625 -1.6741,2.4765 0,0.1141 1.2392,0.2075 2.7538,0.2075 1.5146,0 2.5923,-0.2614 2.3949,-0.5807 z m 256.7268,88.1805 c -4.9034,-1.5949 -11.6467,-7.6121 -13.9546,-12.4517 l -1.1024,-2.3117 -3.8333,4.0193 c -4.9522,5.1925 -6.8279,6.1437 -11.3719,5.7669 -6.5948,-0.5469 -11.1186,-5.0916 -11.1186,-11.17 0,-3.9074 0.5436,-4.7973 7.4195,-12.1451 2.8224,-3.0162 6.299,-7.1926 7.7257,-9.281 l 2.594,-3.797 -1.4069,-8.6978 c -0.7738,-4.7838 -1.5852,-9.7537 -1.8032,-11.0442 l -0.3963,-2.3463 -1.5182,3.0153 c -1.8001,3.5754 -4.7282,5.4787 -8.509,5.5308 -1.5118,0.021 -2.7487,0.1855 -2.7487,0.3658 0,0.1804 1.9786,2.465 4.3969,5.077 5.8859,6.3573 7.1066,10.8315 4.4975,16.4847 -1.3948,3.022 -3.7182,5.3787 -5.9777,6.0632 -2.1898,0.6633 -6.7281,-0.7704 -8.1466,-2.5737 l -1.2319,-1.5661 -2.3103,3.9555 c -1.2708,2.1755 -3.8738,5.6353 -5.7846,7.6884 -3.3744,3.6259 -3.5782,3.733 -7.0995,3.733 -5.7867,0 -9.3063,-2.8434 -10.4974,-8.4805 -0.6027,-2.8529 0.3806,-5.694 3.2897,-9.5051 3.1069,-4.0703 5.9835,-9.7058 7.4143,-14.5255 1.1736,-3.9533 1.0364,-4.8045 -0.5607,-3.479 -0.6231,0.5171 -2.4529,0.7495 -4.7675,0.6055 -4.3252,-0.2691 -3.6296,-1.7234 -5.4737,11.4429 -2.1505,15.3545 -6.4274,29.858 -9.7409,33.0325 -3.8951,3.7318 -10.2097,3.1952 -14.6498,-1.2449 -2.3069,-2.3069 -3.1085,-3.744 -3.7919,-6.7974 -0.7883,-3.5225 -0.7317,-4.311 0.627,-8.7358 5.7158,-18.6155 6.9613,-30.155 7.487,-69.3672 l 0.419,-31.2596 1.8715,-2.8265 c 1.0294,-1.5546 3.1437,-3.6688 4.6985,-4.6981 l 2.8269,-1.8715 25.418,-0.1935 25.4179,-0.1935 -0.4446,-4.7843 c -0.5276,-5.6762 0.2807,-9.2148 2.7846,-12.1905 2.4466,-2.9076 5.3799,-4.0092 10.6756,-4.0092 4.1367,0 4.6093,0.1622 7.1454,2.4535 1.4937,1.3494 2.7158,2.8802 2.7158,3.4018 0,0.6846 0.7077,0.4849 2.5441,-0.7178 7.3806,-4.8336 17.3127,-3.5097 22.826,3.0426 1.4249,1.6933 1.7677,2.808 1.7677,5.7481 0,2.0061 -0.3677,4.4544 -0.817,5.4406 -0.7019,1.5404 -0.6451,1.8894 0.4027,2.4758 4.1432,2.3186 4.1176,13.9454 -0.04,18.32 -3.4115,3.5892 -4.7456,3.9343 -15.2109,3.9343 h -9.6267 l 0.5057,10.0071 c 0.2781,5.5039 0.7134,11.3809 0.9673,13.0601 l 0.4616,3.053 1.6029,-6.3765 c 1.3628,-5.4215 1.9885,-6.7621 4.178,-8.9516 5.2344,-5.2344 13.061,-4.2941 17.407,2.0915 2.0764,3.051 1.941,5.644 -0.8157,15.6177 -4.0416,14.6225 -9.1229,28.4427 -14.0363,38.1761 -2.2512,4.4595 -2.2934,6.2135 -0.2657,11.0429 1.4448,3.4414 2.0963,2.4155 2.9785,-4.6909 0.71,-5.7184 1.4069,-6.9854 4.5694,-8.3074 3.8377,-1.6042 8.3949,0.8656 11.5589,6.2646 2.5782,4.3994 3.0757,7.8596 1.8892,13.1406 -2.7827,12.386 -7.3301,21.4271 -12.4973,24.8465 -2.9723,1.967 -8.2916,2.7479 -11.5338,1.6933 z m 9.0261,-2.3539 c 4.4666,-1.8663 8.4643,-8.0196 11.5259,-17.7406 3.5126,-11.1534 3.1052,-15.7019 -1.9015,-21.232 -2.521,-2.7845 -3.194,-3.1612 -5.6473,-3.1612 -1.5318,0 -3.1044,0.3192 -3.4946,0.7094 -0.3902,0.3902 -1.1823,3.4183 -1.7602,6.7292 -1.1608,6.6504 -1.8801,8.474 -3.3424,8.474 -1.3156,0 -2.6807,-2.2826 -4.0575,-6.7845 l -1.1411,-3.7314 2.8333,-6.106 c 6.0505,-13.0395 11.0658,-27.1374 14.5518,-40.905 l 1.768,-6.9827 -1.3121,-2.9663 c -2.7476,-6.2113 -10.9407,-7.367 -15.4904,-2.1852 -1.5089,1.7185 -2.4826,4.2646 -4.2126,11.0153 -2.4687,9.6331 -2.671,10.1789 -3.4634,9.348 -0.6487,-0.6802 -2.9749,-31.7709 -2.4746,-33.0746 0.2637,-0.6872 2.8996,-0.9771 10.8207,-1.1899 11.2673,-0.3027 12.811,-0.7434 15.1593,-4.3273 1.377,-2.1017 2.0166,-10.1189 1.013,-12.6983 -0.4011,-1.0307 -1.5749,-2.2374 -2.6086,-2.6815 -1.0336,-0.4441 -1.9864,-0.8781 -2.1172,-0.9645 -0.1308,-0.086 0.3915,-0.8324 1.1606,-1.658 0.7692,-0.8256 1.5897,-2.7764 1.8235,-4.3351 0.6262,-4.1759 -0.9183,-7.2904 -4.7201,-9.5184 -5.8009,-3.3996 -12.4298,-3.1175 -18.0805,0.7696 -1.91,1.3138 -3.5463,2.2886 -3.6364,2.1663 -0.09,-0.1223 -0.4471,-1.2598 -0.7934,-2.5278 -0.9773,-3.5793 -3.6505,-5.164 -8.6421,-5.1231 -8.3598,0.068 -10.6528,2.7515 -11.2441,13.1573 l -0.407,7.1617 -25.1025,0.3626 c -27.3584,0.3952 -27.0776,0.3545 -30.9957,4.4956 -3.3806,3.573 -3.4253,4.0079 -3.9601,38.5623 -0.5534,35.7546 -1.1887,43.2428 -4.8632,57.3287 -1.1194,4.2911 -2.3526,9.0553 -2.7406,10.5871 -2.2588,8.9197 4.6592,17.2698 12.548,15.1455 1.7609,-0.4741 3.0277,-1.3976 3.9364,-2.8696 2.8432,-4.6055 6.4256,-19.1051 8.7121,-35.2612 0.6746,-4.7667 1.3816,-8.8217 1.5711,-9.0112 0.1894,-0.1895 1.6969,0.017 3.3499,0.4593 4.2967,1.1492 6.4961,-0.05 8.8585,-4.8309 l 1.8439,-3.7314 0.022,2.6007 c 0.028,3.3738 -2.2808,12.3744 -4.4095,17.1876 -0.9198,2.08 -3.1231,5.8057 -4.8962,8.2794 -2.8852,4.0254 -3.22,4.8699 -3.1882,8.0427 0.028,2.7538 0.3906,3.923 1.6263,5.2383 2.007,2.1363 5.5454,3.3279 8.1702,2.7514 2.6327,-0.5782 8.1141,-6.7136 11.021,-12.3359 1.2178,-2.3552 2.5194,-4.2814 2.8926,-4.2804 0.3731,0 1.2001,0.9185 1.8376,2.039 2.2394,3.9353 8.0973,4.3423 10.6618,0.7407 0.7487,-1.0514 1.5613,-3.1625 1.8057,-4.6914 0.7972,-4.9849 -0.1155,-7.2652 -5.2317,-13.0712 -5.8199,-6.6047 -5.8741,-7.6869 -0.389,-7.7763 4.7641,-0.078 6.3216,-1.3858 8.8277,-7.4149 0.9253,-2.2259 1.9615,-4.1401 2.3027,-4.2539 0.5681,-0.1894 3.2998,16.2998 4.1004,24.7512 0.3291,3.4743 0.2449,3.6823 -3.5106,8.6719 -2.1162,2.8118 -5.832,7.2157 -8.2573,9.7866 -2.4252,2.5709 -4.6961,5.6736 -5.0464,6.8949 -1.8767,6.5437 4.6317,12.8114 12.0926,11.6453 2.0059,-0.3135 3.5054,-1.4217 7.3884,-5.4607 l 4.8718,-5.0673 3.015,4.7038 c 3.3388,5.2088 7.8043,9.4211 10.9601,10.3388 3.1399,0.9131 7.623,0.8264 10.0664,-0.1945 z m -80.3996,-83.7194 c 0.1204,-12.9668 0.3444,-23.9576 0.4979,-24.4241 0.215,-0.6533 4.9429,-0.848 20.5928,-0.848 h 20.3137 l 0.4579,5.9364 c 0.2518,3.265 0.84,10.5159 1.3072,16.113 0.4671,5.5972 0.7285,10.4057 0.5807,10.6855 -0.1478,0.2799 -1.553,0.5089 -3.1226,0.5089 -4.0445,0 -7.2538,1.9453 -9.0713,5.4984 l -1.5254,2.9821 -0.019,-8.5094 -0.019,-8.5095 2.8918,-0.7734 c 4.4025,-1.1775 6.2672,-3.566 6.2672,-8.0278 0,-6.6603 -3.2932,-8.3177 -16.692,-8.4009 -10.8553,-0.067 -14.6641,0.5508 -16.8477,2.7344 -4.9333,4.9333 -2.0971,12.7406 5.0158,13.8072 l 3.0822,0.4622 v 3.9409 3.9409 l -3.0952,0.3489 c -3.8175,0.4302 -6.1646,2.4819 -7.1258,6.2286 -1.7465,6.8081 -2.7442,9.8816 -3.2076,9.8816 -0.2751,0 -0.4017,-10.6092 -0.2814,-23.5759 z m 9.9381,5.56 c 2.2035,-0.4134 2.415,-0.6545 2.415,-2.7522 0,-2.0119 -0.216,-2.299 -1.7298,-2.299 -2.3252,0 -5.3028,-1.6135 -7.0301,-3.8094 l -1.4168,-1.8012 v 7.9726 7.9726 l 2.6733,-2.4152 c 1.4828,-1.3396 3.7489,-2.617 5.0884,-2.8682 z m 27.8716,0.668 c 1.2922,-0.2424 2.8521,-0.2479 3.4665,-0.012 0.9735,0.3736 1.0613,0.022 0.6835,-2.7339 -0.2384,-1.7394 -0.4334,-4.5067 -0.4334,-6.1494 v -2.9869 l -2.5504,2.6809 c -1.6989,1.786 -3.3975,2.8399 -5.0883,3.1571 l -2.538,0.4761 v 4.734 4.7339 l 2.0553,-1.7295 c 1.1304,-0.9511 3.1126,-1.9277 4.4048,-2.1701 z m 2.4872,-24.8853 -0.2347,-5.2579 h -18.9429 -18.9429 v 5.1798 5.1798 l 1.4168,-1.8011 c 2.7333,-3.4748 4.2764,-3.8094 17.5678,-3.8094 13.6848,0 16.1838,0.5501 18.1629,3.9986 0.6376,1.1109 1.1701,1.9632 1.1835,1.894 0.013,-0.069 -0.081,-2.4919 -0.2105,-5.3838 z m 21.3283,-29.7668 c -0.7441,-3.7205 -0.4913,-6.7164 0.6021,-7.136 1.0589,-0.4063 11.9076,7.0113 12.3956,8.4753 0.184,0.5522 -1.6194,0.7809 -6.1567,0.7809 h -6.417 z m 9.3795,0.2026 c -0.3545,-0.3084 -2.2473,-1.7082 -4.2064,-3.1108 l -3.5618,-2.5501 v 3.1108 3.1108 h 4.2064 c 2.3135,0 3.9163,-0.2523 3.5618,-0.5607 z m -208.9272,133.1031 c -12.6618,-2.5706 -17.4606,-7.7651 -19.2839,-20.8742 -0.438,-3.1491 -0.7303,-18.2312 -0.7303,-37.6844 v -32.4338 l -3.8232,-3.2663 c -4.3621,-3.7267 -6.317,-7.3882 -6.3385,-11.8723 -0.018,-3.6789 1.5517,-6.8083 8.7053,-17.3581 2.7438,-4.0465 6.7257,-10.8682 8.8486,-15.1593 4.9874,-10.0813 5.8117,-11.2688 9.1564,-13.191 3.9576,-2.2745 6.6701,-2.6663 11.7812,-1.702 5.8029,1.095 8.8866,3.7001 9.4625,7.9939 l 0.394,2.9377 9.5712,-0.2243 9.5712,-0.2242 4.3429,3.053 c 7.9829,5.6117 8.6687,9.6337 3.4592,20.2867 -1.8657,3.8152 -3.3922,7.0701 -3.3922,7.2331 0,0.1631 2.0253,0.2964 4.5008,0.2964 6.4214,0 9.5633,1.1384 13.2364,4.7957 4.5681,4.5485 4.8017,6.1911 4.5347,31.8915 l -0.2225,21.4222 -1.8209,2.7501 c -2.6644,4.0237 -6.4351,5.6282 -13.2276,5.6282 -4.4975,0 -5.7765,-0.2481 -7.2487,-1.4062 -0.9831,-0.7733 -1.7876,-1.8419 -1.7876,-2.3745 0,-0.8136 -2.7655,-0.9685 -17.3003,-0.9685 h -17.3004 v 12.5513 c 0,11.6466 0.098,12.649 1.3569,13.9081 1.2817,1.2817 2.2615,1.3569 17.6842,1.3569 9.4618,0 16.8542,-0.282 17.5805,-0.6707 1.2225,-0.6543 2.5197,-3.6357 4.006,-9.2074 2.307,-8.6482 13.4858,-8.844 19.6431,-0.344 2.5537,3.5252 3.0964,7.1434 1.8667,12.4444 -1.4456,6.2317 -3.3738,10.2458 -6.6064,13.7527 -6.1277,6.6478 -8.4477,7.0927 -36.5345,7.0054 -12.5004,-0.039 -23.3385,-0.1946 -24.0848,-0.3461 z m 10.5159,-81.3198 v -7.8021 h -2.7138 -2.7138 v 7.8021 7.8021 h 2.7138 2.7138 z m 28.4947,0 v -7.8021 h -3.053 -3.053 v 7.8021 7.8021 h 3.053 3.053 z m -22.7394,-34.2389 c 0.9392,-1.8534 1.7076,-3.5325 1.7076,-3.7315 0,-0.199 -2.4386,-0.3618 -5.4191,-0.3618 h -5.419 l -1.7458,2.7655 c -3.0529,4.8361 -3.1515,4.6974 3.3409,4.6974 h 5.8279 z m 295.1352,115.0052 c -6.9836,-1.2702 -11.4537,-3.4365 -14.822,-7.1828 -5.7082,-6.3489 -6.7385,-13.8088 -6.4284,-46.5456 l 0.2186,-23.0768 2.0532,-3.3195 c 1.271,-2.0548 3.3181,-4.1018 5.373,-5.3728 l 3.3198,-2.0533 28.21,-0.2219 c 19.6933,-0.1549 29.2983,0.016 31.8146,0.5671 4.224,0.9245 7.6932,3.6701 9.7624,7.7261 1.2975,2.5433 1.3786,3.5007 0.9817,11.5978 -0.5333,10.8806 -2.0513,20.4777 -3.9298,24.8444 -2.9503,6.8581 -9.6848,10.5228 -20.6627,11.244 -7.6114,0.4999 -11.2655,-0.5933 -14.5727,-4.3599 -4.6891,-5.3407 -5.3656,-10.9357 -1.7936,-14.8335 2.0239,-2.2084 2.6722,-2.4758 7.2106,-2.974 2.9134,-0.3198 5.2317,-0.9287 5.5759,-1.4645 0.8971,-1.3966 1.9428,-5.4417 1.9471,-7.5319 v -1.8657 h -14.5866 -14.5866 v 18.613 c 0,10.3118 0.2919,19.3808 0.6545,20.3344 0.3846,1.0116 1.4336,1.939 2.5441,2.2492 1.0394,0.2902 11.3541,0.5277 22.9216,0.5277 24.4461,0 24.5867,-0.03 26.3527,-5.5841 0.5658,-1.7796 1.2274,-4.2289 1.4701,-5.4428 0.2428,-1.2139 1.3455,-3.1112 2.4504,-4.2161 4.2815,-4.2815 10.4491,-3.9656 15.8782,0.8133 5.3445,4.7044 6.5022,8.6126 4.6969,15.8562 -1.6884,6.7747 -3.8575,11.2723 -7.1689,14.8647 -6.6209,7.1829 -10.0191,7.7835 -43.6794,7.7206 -18.286,-0.034 -27.9264,-0.3163 -31.2085,-0.9133 z m -59.0248,-3.0214 c -3.0863,-0.7669 -4.6322,-1.7682 -7.3153,-4.738 -3.1836,-3.5239 -4.2032,-7.2281 -3.2338,-11.7482 0.402,-1.8747 1.2992,-4.2128 1.9937,-5.1958 2.2133,-3.133 6.6273,-12.4705 8.3945,-17.7582 3.0695,-9.1845 4.74,-19.7855 5.61,-35.601 l 0.4485,-8.1514 -3.2073,0.255 -3.2072,0.2551 -4.6723,-4.9941 c -5.1983,-5.5563 -6.4058,-8.4195 -5.6623,-13.4264 0.4254,-2.8643 1.1185,-3.7493 9.0708,-11.5818 9.1265,-8.9891 14.3216,-15.4149 20.6901,-25.5916 7.0911,-11.3313 12.4757,-14.0779 24.2821,-12.3856 6.769,0.9703 9.0293,2.2343 9.7342,5.4434 l 0.4503,2.0505 16.5999,-0.084 16.5998,-0.084 3.7556,2.2653 c 10.5452,6.3609 12.2178,13.1259 5.6761,22.958 l -2.0312,3.053 18.1426,0.3392 c 15.1673,0.2836 18.4765,0.5234 20.178,1.4621 2.2744,1.2546 4.5322,3.554 5.6821,5.7866 1.0659,2.0698 0.9527,8.0602 -0.1939,10.255 -1.2851,2.4598 -4.3799,5.3147 -6.7196,6.1987 -1.2847,0.4855 -17.8538,0.7217 -50.6206,0.7217 h -48.7108 l -0.3823,15.0954 c -0.515,20.3306 -2.6254,33.4894 -7.7527,48.3392 -3.9765,11.5167 -11.1977,24.0501 -15.0087,26.0495 -1.7781,0.9329 -6.3607,1.3661 -8.5903,0.812 z m 64.584,-117.9428 1.7022,-2.8834 h -12.9267 -12.9268 l -2.1105,3.0675 -2.1105,3.0675 13.3351,-0.1841 13.335,-0.1841 z m -230.8031,114.8803 c -2.7163,-1.216 -6.1328,-4.897 -7.4285,-8.0034 -1.9258,-4.6174 -1.3864,-7.8388 3.2995,-19.7034 2.3933,-6.0599 5.4871,-14.3107 6.8751,-18.3351 2.8193,-8.1743 3.971,-9.9922 7.3451,-11.5933 3.6211,-1.7184 6.6121,-1.4003 10.3551,1.1012 4.2081,2.8123 7.0308,8.0071 7.0308,12.9394 0,4.4457 -10.874,37.5648 -13.2676,40.4095 -3.2462,3.8578 -9.5501,5.2709 -14.2095,3.1851 z m 9.2869,-1.4934 c 3.1343,-0.8785 5.126,-4.8226 10.2884,-20.3743 6.3243,-19.0524 6.6773,-20.5828 5.7472,-24.9198 -0.5544,-2.5849 -1.45,-4.0871 -3.8941,-6.5312 -3.4339,-3.4339 -5.7487,-4.2558 -9.2571,-3.2871 -3.3487,0.9246 -5.2311,3.6958 -8.0464,11.8458 -1.3965,4.0427 -4.3062,11.7866 -6.4661,17.2087 -2.1599,5.422 -4.1345,10.8084 -4.3881,11.9696 -0.6742,3.0875 0.8003,7.995 3.241,10.7862 3.283,3.7547 7.3808,4.8139 12.7752,3.3021 z m -2.1632,-72.6549 c -2.2384,-0.8281 -9.29,-5.3261 -11.3818,-7.2602 -4.5451,-4.2025 -4.5678,-10.1147 -0.058,-15.0078 3.3128,-3.5941 8.0829,-5.4302 12.5252,-4.8213 3.8263,0.5244 11.9356,4.6134 13.7672,6.9419 1.9763,2.5126 2.9876,6.7481 2.4566,10.2893 -0.5213,3.4765 -4.161,7.9796 -7.6201,9.4277 -2.1652,0.9064 -7.734,1.1538 -9.6896,0.4304 z m 10.445,-2.8049 c 3.6573,-2.0878 4.8205,-4.4396 4.8155,-9.7358 0,-4.7622 -0.014,-4.7872 -2.8731,-7.3241 -6.2523,-5.5485 -14.9588,-6.8245 -20.6892,-3.0323 -4.4487,2.944 -5.8362,9.1458 -3.011,13.4577 1.0763,1.6426 9.5598,6.9848 12.587,7.9262 2.3385,0.7272 6.7137,0.1109 9.1708,-1.2917 z m -3.3213,-39.9429 c -2.6875,-0.6574 -12.5352,-7.0808 -13.9919,-9.1265 -1.9358,-2.7186 -2.4465,-7.8125 -1.0534,-10.5066 1.816,-3.5116 6.0713,-6.7971 9.8543,-7.6084 4.2374,-0.9088 6.7266,-0.468 11.9754,2.1209 7.2672,3.5844 9.8375,6.9528 9.8375,12.8922 0,8.5745 -7.8751,14.368 -16.6219,12.2284 z m 11.6395,-4.4782 c 2.7698,-3.0224 3.8662,-6.8822 3.022,-10.6393 -0.8081,-3.5967 -1.9898,-4.8548 -7.4741,-7.9577 -3.8831,-2.1969 -5.0558,-2.5326 -8.8835,-2.5433 -3.4477,-0.01 -4.9624,0.3312 -6.942,1.562 -3.7555,2.335 -5.4912,5.1396 -5.4361,8.7839 0.071,4.6679 2.5211,7.2608 11.3604,12.0208 2.9672,1.5978 3.9419,1.7849 7.7793,1.4933 3.9561,-0.3005 4.6019,-0.5677 6.574,-2.7197 z"
       style="fill:#000000;stroke-width:0.678446" />
  </g>
</svg>
