<?xml version="1.0" encoding="UTF-8" standalone="no"?>
<svg
   xmlns:dc="http://purl.org/dc/elements/1.1/"
   xmlns:cc="http://creativecommons.org/ns#"
   xmlns:rdf="http://www.w3.org/1999/02/22-rdf-syntax-ns#"
   xmlns:svg="http://www.w3.org/2000/svg"
   xmlns="http://www.w3.org/2000/svg"
   xmlns:sodipodi="http://sodipodi.sourceforge.net/DTD/sodipodi-0.dtd"
   xmlns:inkscape="http://www.inkscape.org/namespaces/inkscape"
   inkscape:version="1.0 (4035a4fb49, 2020-05-01)"
   sodipodi:docname="鳥.svg"
   viewBox="0 0 812.87042 812.87042"
   height="812.87042"
   width="812.87042"
   id="svg10"
   version="1.1">
  <metadata
     id="metadata16">
    <rdf:RDF>
      <cc:Work
         rdf:about="">
        <dc:format>image/svg+xml</dc:format>
        <dc:type
           rdf:resource="http://purl.org/dc/dcmitype/StillImage" />
        <dc:title></dc:title>
      </cc:Work>
    </rdf:RDF>
  </metadata>
  <defs
     id="defs14" />
  <sodipodi:namedview
     inkscape:current-layer="layer1"
     inkscape:window-maximized="1"
     inkscape:window-y="-8"
     inkscape:window-x="1432"
     inkscape:cy="178.84846"
     inkscape:cx="584.7024"
     inkscape:zoom="1.6435584"
     showgrid="false"
     id="namedview12"
     inkscape:window-height="971"
     inkscape:window-width="1280"
     inkscape:pageshadow="2"
     inkscape:pageopacity="0"
     guidetolerance="10"
     gridtolerance="10"
     objecttolerance="10"
     borderopacity="1"
     bordercolor="#666666"
     pagecolor="#ffffff" />
  <g
     style="display:inline;mix-blend-mode:multiply"
     inkscape:label="いろ"
     id="layer1"
     inkscape:groupmode="layer">
    <path
       id="path29"
       d="m 523.61359,28.473251 c -9.61918,0.265933 -17.24032,6.785202 -25.54242,10.764087 -7.51143,4.816093 -14.72181,10.904645 -17.99774,19.465377 -3.22625,5.682578 -3.49248,12.581629 -2.64036,18.894608 1.85053,2.584532 0.92435,6.027941 2.65478,8.617925 0.51804,5.440238 3.83883,9.893095 6.0392,14.660692 0.29778,3.76206 5.2312,4.44265 6.49434,7.82054 3.61214,3.4913 8.87295,4.54981 12.59652,8.00117 6.42701,2.35353 13.59769,1.46516 20.33864,1.86983 7.98567,-0.29781 16.52036,0.88848 23.83833,-3.05937 4.56593,-1.67586 9.7675,0.0999 14.23764,-1.68152 1.52773,-4.00316 2.18916,-8.63861 4.51811,-12.25427 10.68647,2.14226 20.7264,6.89835 31.06571,10.3144 24.58398,8.68667 49.18626,17.4274 72.84968,28.44368 12.65309,5.61719 25.84442,10.61424 38.62023,15.4248 3.0117,-0.80558 0.0479,-3.90229 -1.26203,-4.8865 -8.46158,-8.70843 -18.57094,-15.53359 -29.39124,-20.96386 C 656.14187,117.2816 631.59559,105.67303 609.48562,90.048534 596.46373,81.331915 583.15638,72.675078 572.71684,60.812396 561.10154,48.561702 547.59236,38.049084 532.2339,30.91056 c -2.68863,-1.346708 -5.52987,-2.66211 -8.62031,-2.437309 z m 12.20081,22.384976 c 6.45441,-0.232894 13.62837,2.994926 15.3428,9.723092 2.80989,7.201301 1.26464,17.509201 -6.90551,20.33507 -5.04602,1.83102 -10.86773,1.204911 -14.89598,-2.540695 -4.45067,-3.358163 -8.84215,-8.221298 -7.53772,-14.223379 0.26886,-7.076099 6.85564,-13.51674 13.99641,-13.294088 z"
       style="fill:#b8615d;fill-opacity:1;stroke-width:0.608436" />
    <path
       d="m 577.07934,108.18438 c -0.39651,-0.93478 -0.99249,-1.76236 -1.54735,-2.607 -0.37076,-0.53668 -0.8564,-0.943 -1.41912,-1.26173 0,0 -12.79609,8.22383 -12.79609,8.22383 v 0 c 0.1169,0.0827 0.22299,0.18336 0.35071,0.24814 0.0798,0.0405 0.17955,0.0256 0.26119,0.0622 0.2063,0.0926 0.32138,0.24773 0.47326,0.40695 0.44455,0.68073 0.96335,1.34162 1.26334,2.09936 0,0 13.41406,-7.17177 13.41406,-7.17177 z"
       id="path39"
       style="fill:#b8615d;fill-opacity:1" />
    <path
       d="m 574.65713,108.47385 c -0.17444,-0.8888 -0.34965,-1.77295 -0.43659,-2.67665 0,0 -13.47207,7.0622 -13.47207,7.0622 v 0 c 0.12412,0.9208 0.31756,1.82719 0.47153,2.74293 0,0 13.43713,-7.12848 13.43713,-7.12848 z"
       id="path41"
       style="fill:#b8615d;fill-opacity:1" />
    <path
       d="m 706.60922,155.33754 c 0.53154,0.64534 1.0541,1.31123 1.64139,1.90866 0.52107,0.66413 1.18859,1.11227 1.95771,1.43816 0,0 5.04765,-3.39716 5.04765,-3.39716 v 0 c -0.73301,-0.23678 -1.356,-0.59396 -1.82134,-1.22618 -0.57606,-0.53607 -1.02954,-1.19699 -1.56132,-1.77451 0,0 -5.26409,3.05103 -5.26409,3.05103 z"
       id="path43"
       style="fill:#b8615d;fill-opacity:1" />
    <path
       id="path47"
       d="m 486.1404,15.542128 c -14.04606,1.282827 -25.66593,10.306628 -35.25695,19.992212 -13.63499,11.979633 -21.59637,29.023832 -24.71743,46.691951 -4.26219,19.372599 -3.59883,39.405039 -3.24915,59.110819 0.76259,16.50467 8.55631,31.68579 11.7961,47.54274 -0.39069,11.77815 0.2598,24.16671 -5.59221,34.88266 -6.0603,13.88765 -14.28655,26.89591 -25.62974,37.08084 -10.18338,9.43432 -19.52949,20.33687 -32.10754,26.57506 -25.0828,7.11896 -49.2207,17.31413 -73.08224,27.75322 -19.67389,10.13257 -37.16119,24.05252 -54.27438,37.9646 -19.76323,16.51321 -32.73137,39.22898 -48.1686,59.48209 -20.99015,28.66055 -41.01065,58.06139 -58.35807,89.09302 -7.54521,13.53703 -16.43758,26.32925 -23.8055,39.93217 -3.84802,8.06124 -10.32286,15.23228 -11.49934,24.52054 -1.42236,8.35654 -4.178817,16.98179 -3.289788,25.45495 3.098198,1.61357 5.002878,-3.69261 7.771018,-4.69554 1.50044,-1.32779 4.69211,-2.43591 4.79806,0.62517 1.25032,16.8723 -1.42493,33.92833 0.4588,50.74688 0.7873,6.07345 5.39184,0.44361 7.95252,-1.10414 2.34295,-1.58541 7.27481,-5.58573 8.7844,-1.02852 0.58408,2.49759 2.57578,6.98488 5.60979,4.06029 7.59869,-5.46755 15.50955,-10.55351 21.70977,-17.72006 8.992,-9.78743 19.0374,-19.86402 32.39995,-23.00046 6.18937,-1.83352 12.61559,-4.02209 16.13416,-9.92187 7.34095,-9.85094 20.12527,-11.48192 30.8714,-15.40425 23.19117,-7.32378 47.65853,-10.99052 69.73215,-21.76537 22.17243,-9.13669 43.92008,-20.47055 60.89652,-37.75778 15.57255,-14.51433 30.35556,-30.21387 40.54628,-49.08037 13.99356,-24.93967 25.61837,-51.63237 31.41615,-79.72745 3.50662,-20.69291 1.58156,-41.89369 4.46712,-62.5803 14.44814,-20.28382 30.16599,-40.12705 39.38446,-63.52771 4.60434,-12.18121 11.52469,-24.56234 9.23984,-38.06183 -1.31283,-20.90258 -5.80403,-41.43783 -4.28708,-62.42801 0.4957,-7.70043 -0.1194,-15.5871 2.22164,-23.03467 11.86597,2.38743 23.74601,-1.24398 34.11584,-6.90047 3.45161,-2.63615 10.42965,-3.32014 11.7355,-7.22987 -10.52105,-2.64312 -22.06453,-0.54596 -32.25038,-4.58295 -3.58662,-3.88485 -9.40378,-4.19144 -12.90008,-8.31751 -4.91007,-4.06939 -6.92171,-10.271658 -9.55418,-15.834143 -4.5755,-11.904729 -7.8311,-25.816236 -0.93683,-37.553518 5.91491,-12.711844 19.5479,-19.001954 31.06967,-25.639754 2.82079,-1.824969 6.24356,-2.333733 9.22136,-3.475445 -1.44224,-3.293446 -6.79007,-4.120688 -9.97034,-5.996958 -7.43253,-2.960387 -15.34188,-5.205238 -23.40267,-5.140264 z M 328.86979,317.91258 c -0.009,1.78398 -3.62307,3.41522 -5.07201,4.80647 -18.65107,16.19963 -33.97055,35.85165 -49.1505,55.23724 -35.04644,46.49385 -56.80239,101.82485 -94.75372,146.2929 -9.51854,11.61212 -21.59848,20.56917 -33.48297,29.54158 -2.94529,3.49383 3.11562,2.94589 5.18292,2.71078 3.74592,1.42388 -2.58509,7.47029 1.89738,7.95756 15.52291,-3.74493 30.88071,-10.05935 46.15216,-13.35223 -0.74065,2.7917 -5.3946,2.43337 -7.59971,3.68258 -13.86937,3.8351 -27.37648,9.33672 -41.45482,12.11489 -4.85362,-0.73708 1.87012,-6.84102 -1.85032,-8.17771 -4.32098,0.0935 -9.25726,2.9623 -13.13711,1.88225 7.7394,-9.10877 19.16992,-14.16802 27.819,-22.37838 19.47643,-17.2807 33.84853,-39.39816 47.9299,-61.07096 20.9202,-33.58602 38.41067,-69.38867 62.19756,-101.1198 15.25544,-18.50794 30.01719,-37.88075 48.05371,-53.7106 2.24196,-1.63655 4.4697,-3.85495 7.26853,-4.41657 z m -9.81461,182.97513 c -12.13711,10.40863 -24.93561,20.13609 -36.7207,31.0017 -5.98373,4.8294 -12.13874,11.66045 -19.65109,13.04973 18.36219,-12.75164 33.66548,-29.36821 52.01908,-42.12045 1.35444,-0.79056 2.75244,-1.78358 4.35271,-1.93098 z"
       style="fill:#f6f5f5;fill-opacity:1;stroke-width:0.860458" />
    <path
       id="path49"
       d="m 341.22711,537.93783 c -11.07645,4.73344 -21.94026,10.12949 -32.84363,15.28154 -2.47356,5.84424 -2.01575,12.91731 -3.22646,19.21443 -1.24388,10.65112 -2.38075,21.3146 -3.57822,31.97108 4.85969,4.32769 15.44962,6.54024 19.33342,-0.60501 11.71983,-19.62969 16.92588,-42.28818 21.59549,-64.42514 0.13998,-0.7587 -0.45242,-1.59756 -1.2806,-1.4369 z"
       style="fill:#f6f5f5;fill-opacity:1;stroke-width:0.860458" />
    <path
       id="path51"
       d="m 303.31316,556.00409 c -5.33943,1.38293 -11.09007,3.35977 -15.43111,6.45176 0.26499,14.21956 4.43679,28.08765 8.28695,41.67677 0.12967,2.77844 4.15249,3.57792 4.23339,0.3899 0.69076,-15.92556 3.8779,-31.91117 4.15776,-47.89829 -0.22199,-0.48085 -0.76092,-0.65791 -1.24699,-0.62014 z"
       style="fill:#f6f5f5;fill-opacity:1;stroke-width:0.860458" />
    <path
       id="path53"
       d="m 300.68104,609.09546 c -1.46172,-0.0469 -1.88556,1.68615 -1.41253,2.81119 0.54098,1.21356 -0.10276,2.99095 1.19364,3.77543 1.67035,0.63402 2.30451,-1.58214 2.53852,-2.79733 0.39363,-1.61341 -0.27151,-3.95276 -2.31963,-3.78929 z"
       style="fill:#f6f5f5;fill-opacity:1;stroke-width:0.215115" />
    <path
       d="m 342.05155,532.24891 c -0.3368,0.95732 -0.88192,1.81916 -1.34118,2.72107 -0.50289,0.97013 -1.08632,1.89207 -1.65045,2.82655 -0.30813,0.7175 -0.66227,1.41295 -0.88155,2.1647 -0.20894,0.71788 -0.36763,1.47742 -0.71363,2.14402 -0.30093,0.64726 -0.64482,1.26506 -0.91099,1.92845 -0.48737,0.92741 -0.99482,1.84646 -1.29781,2.85339 -0.0165,0.68786 0.54506,0.63477 1.00138,0.37203 1.45812,-0.83953 2.90967,-1.69268 4.32446,-2.60333 0.18957,-0.12201 1.36366,-1.25075 1.49807,-1.37822 1.03534,-1.03501 1.95015,-2.16856 2.65966,-3.44872 0,0 -3.93071,1.74906 -3.93071,1.74906 v 0 c -0.74766,1.23056 -1.67176,2.33328 -2.70942,3.33232 -0.25807,0.23694 -0.51015,0.48056 -0.77421,0.7108 -0.24263,0.21155 -1.03688,0.75053 -0.7453,0.61412 1.0444,-0.48862 1.99795,-1.15355 3.02375,-1.68009 0.15969,-0.082 -0.31043,0.19663 -0.41622,0.34164 -0.0665,0.0911 -0.0484,0.22042 -0.074,0.33031 -0.0131,0.0562 0.0243,-0.11291 0.0365,-0.16937 0.35725,-0.97862 0.86765,-1.88291 1.31208,-2.82271 0.28701,-0.64825 0.62947,-1.27005 0.91513,-1.91943 0.27695,-0.71348 0.48393,-1.45164 0.69357,-2.18724 0.25257,-0.71324 0.57161,-1.40296 0.92377,-2.07224 0.57534,-0.93455 1.13283,-1.88001 1.63782,-2.85482 0.48468,-0.93087 1.10125,-1.8484 1.25267,-2.90548 0,0 -3.83337,1.95319 -3.83337,1.95319 z"
       id="path55"
       style="fill:#f6f5f5;fill-opacity:1" />
    <path
       d="m 340.42063,537.24303 c 0.19995,0.60373 0.25716,1.23727 0.2991,1.86777 0.0788,0.73249 0.0118,1.45637 -0.0632,2.18448 0,0 3.85282,-1.91454 3.85282,-1.91454 v 0 c 0.0742,-0.75003 0.1027,-1.49909 0.0291,-2.25143 -0.0546,-0.67142 -0.13135,-1.34613 -0.36163,-1.9839 0,0 -3.75629,2.09762 -3.75629,2.09762 z"
       id="path57"
       style="fill:#f6f5f5;fill-opacity:1" />
    <path
       d="m 131.52408,548.80579 c 1.70515,2.67017 3.00508,5.6012 4.34047,8.4718 1.77003,3.82983 3.50105,7.67529 5.34341,11.47114 0,0 7.48251,-4.24864 7.48251,-4.24864 v 0 c -1.83937,-3.79211 -3.56722,-7.63402 -5.33656,-11.45904 -1.3488,-2.89693 -2.66467,-5.85537 -4.38529,-8.55008 0,0 -7.44454,4.31482 -7.44454,4.31482 z"
       id="path59"
       style="fill:#f6f5f5;fill-opacity:1" />
    <path
       d="m 142.01432,547.79258 c 0.003,2.61171 -0.0272,5.22286 0.0572,7.83339 0.1619,4.66171 1.11502,9.23654 1.98677,13.80303 0.12335,0.54803 0.24671,1.09606 0.37007,1.6441 0,0 7.57924,-4.07358 7.57924,-4.07358 v 0 c -0.1192,-0.54027 -0.2384,-1.08054 -0.3576,-1.62081 -0.86337,-4.52464 -1.78914,-9.06129 -1.9232,-13.68155 -0.0681,-2.60326 -0.0433,-5.20695 -0.0457,-7.81098 0,0 -7.66674,3.9064 -7.66674,3.9064 z"
       id="path61"
       style="fill:#f6f5f5;fill-opacity:1" />
    <path
       d="m 145.63616,553.47851 c 0.95739,4.42041 1.70107,8.89395 2.415,13.36107 0.75626,4.1453 1.49138,8.29082 2.06882,12.46526 0,0 7.6119,-4.01221 7.6119,-4.01221 v 0 c -0.58696,-4.17859 -1.33057,-8.32857 -2.07718,-12.48109 -0.73063,-4.52342 -1.44322,-9.07229 -2.50596,-13.52826 0,0 -7.51258,4.19523 -7.51258,4.19523 z"
       id="path63"
       style="fill:#f6f5f5;fill-opacity:1" />
    <path
       d="m 96.60024,591.11264 c 0.362807,1.40464 0.52388,2.84668 0.634705,4.28955 0,0 4.962835,-2.57908 4.962835,-2.57908 v 0 c -0.12408,-1.47668 -0.30174,-2.95251 -0.68674,-4.38731 0,0 -4.9108,2.67684 -4.9108,2.67684 z"
       id="path69"
       style="fill:#f6f5f5;fill-opacity:1" />
    <path
       d="m 301.44663,542.1801 c 0.0652,0.35678 0.15008,0.71053 0.19568,1.07035 0.79122,6.24344 0.82877,12.58487 1.17497,18.86138 0.31168,5.29041 0.15711,2.7704 0.46042,7.56021 0,0 4.96726,-2.57055 4.96726,-2.57055 v 0 c -0.30175,-4.78699 -0.14791,-2.26837 -0.45828,-7.55608 -0.23481,-4.30759 -0.37671,-8.62106 -0.663,-12.92564 -0.11003,-1.65435 -0.30702,-4.2687 -0.54738,-6.00316 -0.053,-0.3823 -0.1537,-0.75645 -0.23055,-1.13467 0,0 -4.89912,2.69816 -4.89912,2.69816 z"
       id="path71"
       style="fill:#f6f5f5;fill-opacity:1" />
    <path
       d="m 305.12218,548.77841 c 0.28861,3.53459 0.30444,7.08649 0.35407,10.6306 0.038,3.78198 0.0218,1.92605 0.0493,5.56779 0,0 4.98143,-2.54299 4.98143,-2.54299 v 0 c -0.0284,-3.64368 -0.0116,-1.78665 -0.051,-5.57109 -0.0519,-3.54259 -0.0897,-7.08854 -0.35043,-10.62347 0,0 -4.98338,2.53916 -4.98338,2.53916 z"
       id="path73"
       style="fill:#f6f5f5;fill-opacity:1" />
    <path
       d="m 283.8519,561.3612 c 0.55694,1.02557 0.80232,2.17901 1.19429,3.27443 0.31872,0.84747 0.41916,1.76605 0.71264,2.61979 0.0374,0.10871 0.46082,1.03477 0.51637,1.15707 0.54343,1.14624 1.61929,1.84935 2.44854,2.75853 0.78841,0.93882 0.97128,2.13121 1.34161,3.25434 0.0683,0.23878 0.1366,0.47755 0.2049,0.71633 0,0 4.91003,-2.67826 4.91003,-2.67826 v 0 c -0.0711,-0.24391 -0.14223,-0.48782 -0.21334,-0.73173 -0.38029,-1.20269 -0.63165,-2.4511 -1.45787,-3.45585 -0.77494,-0.88566 -1.82798,-1.52819 -2.36303,-2.61224 -0.0706,-0.1561 -0.41121,-0.89671 -0.46926,-1.07187 -0.28945,-0.87326 -0.40921,-1.80189 -0.7372,-2.66464 -0.40872,-1.14731 -0.66036,-2.36067 -1.27789,-3.42026 0,0 -4.80979,2.85436 -4.80979,2.85436 z"
       id="path75"
       style="fill:#f6f5f5;fill-opacity:1" />
    <path
       d="m 295.37196,602.68802 c 0.38778,1.22214 0.5293,2.50096 0.62929,3.77351 0.0405,1.30967 0.62334,2.46644 1.00213,3.69254 0.0673,0.15012 0.13453,0.30025 0.2018,0.45038 0,0 4.87362,-2.74395 4.87362,-2.74395 v 0 c -0.0572,-0.13197 -0.11435,-0.26393 -0.17152,-0.39589 -0.37734,-1.18536 -0.91809,-2.31299 -0.94404,-3.58379 -0.11668,-1.3138 -0.27894,-2.6322 -0.69216,-3.89095 0,0 -4.89912,2.69815 -4.89912,2.69815 z"
       id="path77"
       style="fill:#f6f5f5;fill-opacity:1" />
    <path
       d="m 535.85835,122.28798 c 0.26648,-0.42295 0.75322,-0.52674 1.1386,-0.78883 0.15055,-0.10239 0.26784,-0.24771 0.41398,-0.35631 0.14977,-0.1113 0.31434,-0.20116 0.47152,-0.30174 -1.43214,0.83526 -2.86428,1.67052 -4.29642,2.50578 0.86947,-0.49484 1.84864,-0.63516 2.82647,-0.73845 0,0 4.4966,-3.32595 4.4966,-3.32595 v 0 c -1.01049,0.0666 -2.02731,0.1577 -2.97426,0.5474 -2.45738,1.42674 -5.0611,2.71247 -7.27358,4.52491 0,0 5.19709,-2.06681 5.19709,-2.06681 z"
       id="path79"
       style="fill:#f6f5f5;fill-opacity:1" />
    <path
       d="m 533.38483,122.52743 c 0.36832,0.59797 0.54515,1.28031 0.79313,1.93103 0,0 4.88834,-2.71763 4.88834,-2.71763 v 0 c -0.26294,-0.70087 -0.46761,-1.42949 -0.87169,-2.06776 0,0 -4.80978,2.85436 -4.80978,2.85436 z"
       id="path81"
       style="fill:#f6f5f5;fill-opacity:1" />
    <path
       d="m 530.46615,122.54364 c 0.73587,0.62337 1.12701,1.52376 1.63116,2.32052 0.36705,0.57346 0.17277,0.29747 0.58173,0.82874 0,0 4.80426,-2.86365 4.80426,-2.86365 v 0 c -0.38403,-0.48435 -0.19743,-0.22484 -0.55439,-0.78236 -0.54479,-0.85134 -0.96876,-1.80337 -1.7359,-2.49295 0,0 -4.72686,2.9897 -4.72686,2.9897 z"
       id="path83"
       style="fill:#ffffff;fill-opacity:1" />
    <path
       id="path131"
       d="m 306.80865,609.39723 c -2.18611,-0.51141 -2.41519,1.85495 -2.43089,3.43549 -2.7022,20.43186 -5.51863,40.96701 -9.83652,61.09637 -1.39577,5.87333 -5.69399,10.12204 -9.25665,14.73703 -3.04803,4.84807 -0.054,10.66919 2.53374,14.98811 1.49323,3.25216 4.84278,6.02232 3.91662,9.87414 -0.77533,27.12099 -7.15346,53.82143 -7.64442,81.0111 -0.29858,2.56916 0.92258,5.49284 3.76283,5.87028 10.01613,1.96516 20.28359,0.3854 30.37905,0.008 1.57154,-0.4565 4.98304,0.41611 5.06024,-1.9604 -1.35203,-1.79773 -4.20984,-1.07974 -6.16942,-1.77218 -3.9929,-0.93713 -8.44271,-1.26321 -12.13213,-2.99059 4.58948,-3.63487 10.71542,-4.55415 16.12068,-6.53169 3.13301,-1.16481 6.6279,-1.84968 9.36704,-3.73499 -0.29689,-2.35758 -3.8235,-1.51512 -5.56412,-2.26203 -8.22639,-1.58938 -16.65341,-2.53042 -24.72838,-4.70315 -1.67891,-2.568 -0.62765,-5.97959 -0.98567,-8.86255 0.23202,-16.97084 0.90039,-33.95251 2.68137,-50.85107 0.68628,-7.15405 3.88798,-13.70981 6.10724,-20.38968 -1.563,-5.79309 -3.23567,-11.78214 -1.79922,-17.76327 3.38124,-22.46852 8.52704,-44.64064 13.09442,-66.91541 0.65177,-2.60462 -2.81515,-1.92578 -4.35065,-2.12057 -2.70661,-0.10926 -5.41601,-0.1908 -8.12516,-0.16334 z"
       style="fill:#deb0b9;fill-opacity:1;stroke-width:0.430229" />
    <path
       id="path133"
       d="m 315.91993,638.56627 c -2.06787,1.10984 -1.63182,4.19035 -2.29231,6.16437 -1.14344,8.57332 -1.89206,17.25301 -1.86041,25.90114 2.09503,4.91563 6.05227,9.00424 7.08198,14.41436 6.5458,27.48273 12.92562,55.05602 21.02217,82.14361 0.45934,2.29501 2.57661,4.4627 1.1111,6.82812 -0.57462,2.32726 2.14108,4.30443 4.21658,4.53758 10.73356,-1.52859 21.63883,-1.92117 32.44281,-3.1553 1.77817,0.16306 2.25527,-2.73178 0.25377,-2.62927 -4.08905,-0.94018 -8.49691,-1.3235 -12.27918,-3.18806 3.91004,-2.671 8.29865,-4.71778 12.17859,-7.49654 3.02184,-1.48668 -0.3023,-3.17568 -2.28584,-2.57015 -9.3687,0.0702 -18.73165,1.46126 -28.04976,1.31673 -5.41234,-17.85018 -9.46126,-36.11528 -13.74581,-54.2718 -1.99507,-9.70028 -4.68681,-19.44012 -5.26915,-29.28509 -0.0185,-5.09476 2.67613,-10.91294 -1.01843,-15.35801 -2.92181,-3.96749 -6.59026,-7.57908 -7.31902,-12.66401 -1.16271,-3.43034 -1.10482,-7.52689 -3.31655,-10.47509 -0.25375,-0.16909 -0.56599,-0.25286 -0.87054,-0.21259 z"
       style="fill:#deb0b9;fill-opacity:1;stroke-width:0.430229" />
    <path
       d="m 318.51565,799.71887 c 1.16729,0 2.33457,0 3.50186,0 0.7362,0.0212 1.46729,0.12011 2.18957,0.25874 0,0 4.59841,-3.18372 4.59841,-3.18372 v 0 c -0.74072,-0.1989 -1.50128,-0.27749 -2.26316,-0.36249 -1.16729,0 -2.33458,0 -3.50187,0 0,0 -4.52481,3.28747 -4.52481,3.28747 z"
       id="path135"
       style="fill:#deb0b9;fill-opacity:1" />
    <path
       d="m 375.3059,775.19581 c 1.12814,0.0128 2.25753,-0.0317 3.38432,0.0311 0.55363,0.10594 0.30897,0.0128 0.74454,0.24982 0,0 4.71465,-3.0089 4.71465,-3.0089 v 0 c -0.54684,-0.43473 -0.24478,-0.27278 -0.90514,-0.48777 -1.13184,-0.13811 -2.27511,-0.047 -3.41355,-0.0718 0,0 -4.52482,3.28747 -4.52482,3.28747 z"
       id="path137"
       style="fill:#deb0b9;fill-opacity:1" />
  </g>
  <g
     style="display:inline;mix-blend-mode:multiply"
     inkscape:label="iro"
     id="layer2"
     inkscape:groupmode="layer">
    <path
       d="m 524.66522,51.356633 c 1.66253,7.552272 3.53669,15.048931 5.67974,22.478781 1.68532,5.305363 0.85265,2.79362 2.48027,7.541078 0,0 4.8969,-2.702186 4.8969,-2.702186 v 0 c -1.61906,-4.731989 -0.79083,-2.228324 -2.46697,-7.516828 -2.1335,-7.413289 -4.00674,-14.892138 -5.65303,-22.429217 0,0 -4.93691,2.628372 -4.93691,2.628372 z"
       id="path91"
       style="fill:#ffffff;fill-opacity:1" />
    <path
       d="m 519.57784,53.397343 c 0.1765,0.399828 0.37025,0.792481 0.52951,1.199484 0.9266,2.367962 1.76774,4.768561 2.67401,7.144379 1.91155,5.011202 3.84006,10.014116 5.83338,14.993298 1.04785,2.467026 1.87145,4.69071 3.23631,6.977216 0.37719,0.631897 0.86553,1.190431 1.29829,1.785646 0,0 4.81344,-2.848194 4.81344,-2.848194 v 0 c -0.41841,-0.570524 -0.89237,-1.104199 -1.25522,-1.711571 -1.34249,-2.247179 -2.18342,-4.511913 -3.20969,-6.93008 -1.99082,-4.97607 -3.91808,-9.975443 -5.82779,-14.983263 -0.90961,-2.38528 -1.75851,-4.793691 -2.68887,-7.170954 -0.15551,-0.397349 -0.34285,-0.781492 -0.51427,-1.172238 0,0 -4.8891,2.716277 -4.8891,2.716277 z"
       id="path93"
       style="fill:#ffffff;fill-opacity:1" />
    <path
       d="m 520.23677,56.699155 c 0,5.809508 0,11.619015 0,17.428523 0,0 4.98338,-2.53916 4.98338,-2.53916 v 0 c 0,-5.809507 0,-11.619015 0,-17.428523 0,0 -4.98338,2.53916 -4.98338,2.53916 z"
       id="path95"
       style="fill:#ffffff;fill-opacity:1" />
    <path
       d="m 527.24303,52.743526 c 0.0627,0.578811 0.14488,1.15584 0.18803,1.736434 0.56388,7.588093 0.63692,15.224053 0.80816,22.828337 0.0234,1.252306 0.0468,2.504611 0.0702,3.756917 0,0 4.9786,-2.548531 4.9786,-2.548531 v 0 c -0.0237,-1.25294 -0.0475,-2.50588 -0.0712,-3.75882 -0.10997,-4.831399 -0.2228,-9.662735 -0.40529,-14.492093 -0.089,-2.355129 -0.23373,-5.926946 -0.42543,-8.379801 -0.0459,-0.587745 -0.1327,-1.171583 -0.19905,-1.757375 0,0 -4.94404,2.614932 -4.94404,2.614932 z"
       id="path97"
       style="fill:#ffffff;fill-opacity:1" />
    <path
       d="m 526.6902,54.235115 c 0,7.40721 0,14.814421 0,22.221631 0,0 4.98339,-2.53916 4.98339,-2.53916 v 0 c 0,-7.40721 0,-14.81442 0,-22.22163 0,0 -4.98339,2.539159 -4.98339,2.539159 z"
       id="path99"
       style="fill:#ffffff;fill-opacity:1" />
    <path
       d="m 522.38791,62.273608 c 0,8.088357 0,16.176714 0,24.265072 0,2.184358 0,4.368717 0,6.553076 0,0 4.98338,-2.53916 4.98338,-2.53916 v 0 c 0,-2.184358 0,-4.368717 0,-6.553076 0,-8.088357 0,-16.176715 0,-24.265072 0,0 -4.98338,2.53916 -4.98338,2.53916 z"
       id="path101"
       style="fill:#ffffff;fill-opacity:1" />
    <path
       d="m 524.16827,58.468536 c 1.03049,8.340178 2.19169,16.664363 3.28948,24.996174 0.35663,2.552368 0.6142,5.118044 0.97066,7.670496 0.29206,2.091376 -0.0789,1.481486 0.6208,2.389432 0,0 4.78705,-2.892333 4.78705,-2.892333 v 0 c -0.66513,-0.528765 -0.17858,-0.08856 -0.45705,-2.099213 -0.35368,-2.553606 -0.61682,-5.119258 -0.97179,-7.672649 -1.09765,-8.319592 -2.26658,-16.631165 -3.27172,-24.962123 0,0 -4.96743,2.570216 -4.96743,2.570216 z"
       id="path103"
       style="fill:#ffffff;fill-opacity:1" />
    <path
       d="m 532.02865,39.666824 c 1.18342,10.714511 2.22068,21.444118 3.27958,32.171465 0.71768,7.548088 1.38092,15.109516 2.4302,22.620781 0,0 4.94789,-2.607645 4.94789,-2.607645 v 0 c -1.03509,-7.506324 -1.70465,-15.059563 -2.41993,-22.601209 -1.06023,-10.738752 -2.08873,-21.481084 -3.29697,-32.204501 0,0 -4.94077,2.621109 -4.94077,2.621109 z"
       id="path105"
       style="fill:#ffffff;fill-opacity:1" />
    <path
       d="m 538.30639,59.898084 c 0,8.787698 0,17.575396 0,26.363094 0,2.017768 0,4.035536 0,6.053304 0,0 4.98338,-2.539159 4.98338,-2.539159 v 0 c 0,-2.017769 0,-4.035537 0,-6.053305 0,-8.787698 0,-17.575396 0,-26.363094 0,0 -4.98338,2.53916 -4.98338,2.53916 z"
       id="path107"
       style="fill:#ffffff;fill-opacity:1" />
    <path
       d="m 540.14621,52.030457 c 0.52674,6.39306 0.86142,12.800239 1.44058,19.189242 0.56025,6.180474 0.77352,7.56987 1.50948,13.652916 0.80495,5.044796 0.94195,10.243676 2.43525,15.156975 0,0 4.90732,-2.683223 4.90732,-2.683223 v 0 c -1.44634,-4.893511 -1.58955,-10.057979 -2.39004,-15.072579 -0.7338,-6.095555 -0.94063,-7.439052 -1.49908,-13.632986 -0.57674,-6.396902 -0.90396,-12.812207 -1.45208,-19.211278 0,0 -4.95143,2.600933 -4.95143,2.600933 z"
       id="path109"
       style="fill:#ffffff;fill-opacity:1" />
    <path
       d="m 547.89034,49.449081 c 0.64029,9.614347 1.29179,19.229297 1.96407,28.842275 0.36091,5.271231 0.65778,10.546521 0.92827,15.823064 0.0586,1.142278 0.11072,2.284879 0.16966,3.427137 0.11603,2.248319 -0.009,1.451277 0.20809,2.633743 1.65246,-1.139218 3.30491,-2.278437 4.95737,-3.417656 0,0 -4.98205,2.54178 -4.98205,2.54178 v 0 c 1.65539,-0.581289 3.31078,-1.162579 4.96617,-1.743868 -0.27437,-1.931848 -0.2503,-4.08415 -0.3493,-6.006519 -0.27189,-5.279402 -0.57074,-10.557509 -0.93269,-15.831599 -0.29229,-4.173118 -0.60812,-8.34458 -0.89409,-12.518135 -0.32246,-4.706039 -0.54753,-9.419759 -0.88571,-14.124579 -0.0534,-0.743214 -0.13225,-1.484383 -0.19837,-2.226575 0,0 -4.95142,2.600932 -4.95142,2.600932 z"
       id="path111"
       style="fill:#ffffff;fill-opacity:1" />
    <path
       d="m 548.20166,62.736773 c -0.0124,9.796441 0.11647,19.592396 -0.24965,29.38381 -0.21548,1.89461 0.38611,1.675024 -0.47806,1.860804 0,0 5.1572,-2.164436 5.1572,-2.164436 v 0 c 0.32048,-0.963994 0.11273,-0.247068 0.31354,-2.217199 0.354,-9.797705 0.22735,-19.59975 0.24035,-29.402138 0,0 -4.98338,2.539159 -4.98338,2.539159 z"
       id="path113"
       style="fill:#ffffff;fill-opacity:1" />
    <path
       d="m 544.75983,57.644012 c 0,9.20533 0,18.410659 0,27.615988 0,2.526673 0,5.053346 0,7.580018 0,0 4.98338,-2.539159 4.98338,-2.539159 v 0 c 0,-2.526673 0,-5.053346 0,-7.580018 0,-9.20533 0,-18.410659 0,-27.615988 0,0 -4.98338,2.539159 -4.98338,2.539159 z"
       id="path115"
       style="fill:#ffffff;fill-opacity:1" />
    <path
       d="m 543.46914,50.966197 c 0.11932,10.619398 0.42755,21.233554 0.74574,31.848539 0.21431,4.537363 0.15558,9.089222 0.45035,13.62299 0,0 4.96755,-2.56999 4.96755,-2.56999 v 0 c -0.26741,-4.530128 -0.24207,-9.074124 -0.44215,-13.607076 -0.31783,-10.609919 -0.62534,-21.219157 -0.73811,-31.833623 0,0 -4.98338,2.53916 -4.98338,2.53916 z"
       id="path117"
       style="fill:#ffffff;fill-opacity:1" />
    <path
       d="m 540.88777,53.823412 c 0,9.131687 0,18.263373 0,27.395059 0,3.539833 0,7.079665 0,10.619497 0,0 4.98338,-2.53916 4.98338,-2.53916 v 0 c 0,-3.539832 0,-7.079664 0,-10.619496 0,-9.131686 0,-18.263373 0,-27.395059 0,0 -4.98338,2.539159 -4.98338,2.539159 z"
       id="path119"
       style="fill:#ffffff;fill-opacity:1" />
    <path
       d="m 535.29479,52.481262 c 0.17853,8.963281 0.36885,17.926367 0.54966,26.889684 0.10967,4.126816 0.10713,8.256896 0.26125,12.382552 0,0 4.97425,-2.557006 4.97425,-2.557006 v 0 c -0.14164,-4.123461 -0.15293,-8.250378 -0.25726,-12.374769 -0.18138,-8.95992 -0.37511,-17.919503 -0.54452,-26.87962 0,0 -4.98338,2.539159 -4.98338,2.539159 z"
       id="path121"
       style="fill:#ffffff;fill-opacity:1" />
    <path
       d="m 536.27034,61.315298 c 0.49951,8.718848 0.73455,17.451109 0.96369,26.180587 0.29058,1.875221 -0.10394,3.803196 0.18884,5.677971 0,0 4.95103,-2.601674 4.95103,-2.601674 v 0 c -0.1713,-1.869963 0.0109,-3.75895 -0.1632,-5.628569 -0.23097,-8.740886 -0.46093,-17.485509 -0.98131,-26.214677 0,0 -4.95905,2.586362 -4.95905,2.586362 z"
       id="path123"
       style="fill:#ffffff;fill-opacity:1" />
    <path
       d="m 535.7812,50.423731 c 0.20733,10.695019 0.25772,21.392686 0.32646,32.089361 0.0243,3.754836 0.0122,2.118307 0.0344,4.909601 0,0 4.98138,-2.543076 4.98138,-2.543076 v 0 c -0.0217,-2.7906 -0.01,-1.154306 -0.034,-4.908895 -0.0692,-10.701751 -0.1167,-21.40467 -0.33427,-32.104582 0,0 -4.97394,2.557591 -4.97394,2.557591 z"
       id="path125"
       style="fill:#ffffff;fill-opacity:1" />
    <path
       d="m 533.08644,66.494579 c -0.50941,6.811255 -0.77443,13.637756 -1.03396,20.462176 -0.0914,1.979231 -0.0318,1.16529 -0.1394,2.44439 0,0 5.00288,-2.500536 5.00288,-2.500536 v 0 c 0.0922,-1.296774 0.04,-0.475963 0.12954,-2.463992 0.26115,-6.82331 0.53709,-13.647633 1.0358,-20.458535 0,0 -4.99486,2.516497 -4.99486,2.516497 z"
       id="path127"
       style="fill:#ffffff;fill-opacity:1" />
    <path
       d="m 530.19332,47.992211 c 0.22756,6.765844 0.2881,13.536156 0.44601,20.304157 0.0977,3.61519 0.16912,7.229614 0.17795,10.845992 0,0 4.98257,-2.540749 4.98257,-2.540749 v 0 c -0.0142,-3.61964 -0.0861,-7.237518 -0.18307,-10.855994 -0.1574,-6.77687 -0.20668,-13.556922 -0.45972,-20.330749 0,0 -4.96374,2.577343 -4.96374,2.577343 z"
       id="path129"
       style="fill:#ffffff;fill-opacity:1" />
  </g>
  <g
     style="display:inline"
     id="g18"
     inkscape:label="Image"
     inkscape:groupmode="layer">
    <path
       id="path22"
       d="m 287.55695,802.57118 c -1.15633,-0.35043 -3.11891,-1.30317 -4.36128,-2.1172 -2.10955,-1.38223 -2.22711,-1.75189 -1.77857,-5.59274 0.26417,-2.26197 0.87541,-9.41665 1.35833,-15.8993 0.48291,-6.48264 1.94955,-19.10245 3.25922,-28.04403 1.30965,-8.94157 2.79687,-21.04237 3.30493,-26.89068 1.02331,-11.77937 1.09518,-11.45651 -4.94095,-22.19723 -1.70991,-3.04265 -2.46152,-5.47894 -2.46152,-7.97894 0,-4.26008 0.82301,-6.01714 4.92367,-10.51165 5.47857,-6.00477 6.02385,-7.69175 9.403,-29.09048 4.75429,-30.10703 4.48898,-26.82245 2.75596,-34.11835 -0.86065,-3.62327 -3.03206,-10.70735 -4.82537,-15.74241 -3.12423,-8.77188 -8.99222,-32.74463 -9.01822,-36.84247 -0.0256,-4.03399 -0.61716,-4.09548 -11.8022,-1.2268 -5.79661,1.48668 -16.20906,4.06389 -23.13878,5.72713 -13.58936,3.26167 -30.99713,9.69629 -35.69721,13.19515 -1.60277,1.19315 -5.53892,4.49119 -8.74699,7.32898 -6.53617,5.78176 -10.20137,7.66056 -18.71757,9.59474 -9.7468,2.21368 -17.52178,8.10123 -31.13896,23.57978 -5.6133,6.3806 -8.70541,9.25845 -10.3056,9.5915 -1.25737,0.26169 -4.11509,2.00547 -6.35048,3.87507 -6.41089,5.36181 -7.37563,5.86979 -9.24633,4.86863 -1.00305,-0.53682 -1.89156,-2.18106 -2.30308,-4.26201 -0.36851,-1.8634 -1.07991,-3.52463 -1.5809,-3.69162 -0.50099,-0.167 -3.34932,1.54201 -6.32962,3.79779 -2.98029,2.25578 -6.08655,4.10141 -6.9028,4.10141 -3.68545,0 -4.19172,-6.37584 -3.27004,-41.18196 0.20319,-7.67295 0.057,-14.2572 -0.32495,-14.63167 -0.3819,-0.37447 -3.03552,1.83167 -5.89692,4.90255 -4.548919,4.88193 -5.367489,5.44652 -6.515409,4.49383 -1.10726,-0.91894 -1.22557,-2.17524 -0.75547,-8.02202 0.91015,-11.32004 3.43833,-24.37919 6.144439,-31.73873 1.39454,-3.79261 2.57368,-7.43126 2.62029,-8.08588 0.0466,-0.65462 3.85378,-6.62707 8.46037,-13.27213 4.60659,-6.64505 12.63368,-19.46084 17.83797,-28.47954 25.4735,-44.14395 31.45199,-53.41 58.56864,-90.77529 8.92245,-12.29467 19.05083,-26.45081 22.5075,-31.45811 12.87365,-18.64862 20.61951,-26.88833 39.56886,-42.09165 23.1712,-18.59057 38.21574,-28.11973 55.93657,-35.43005 21.62545,-8.92107 49.4359,-19.33593 59.82192,-22.40298 7.8221,-2.3099 16.04206,-8.37645 30.02177,-22.15684 15.06512,-14.85034 19.2914,-20.17423 25.32055,-31.89658 7.008,-13.62552 9.46171,-21.93228 9.97255,-33.76093 l 0.42722,-9.89219 -4.56647,-13.33586 c -5.97501,-17.44942 -7.76355,-25.25746 -8.64964,-37.76092 -1.6275,-22.96552 2.53368,-57.534813 8.91854,-74.091313 4.10607,-10.64738 10.78488,-19.79289 22.73808,-31.13599 15.81497,-15.00775 25.72464,-19.48337 40.57233,-18.32416 8.13339,0.635 8.46007,0.75337 37.8947,13.73114 16.82394,7.4177 29.10411,16.22637 44.30143,31.77781 11.84876,12.12485 15.31053,14.79971 43.08214,33.289053 14.5622,9.69498 22.43112,14.24857 38.61134,22.3436 40.14286,20.08363 54.1198,29.74439 60.12036,41.55474 2.21875,4.36696 0.9336,4.60892 -9.83594,1.85186 -5.30249,-1.35747 -13.11592,-3.21548 -17.36317,-4.12891 -4.24724,-0.91343 -15.58679,-4.21182 -25.19898,-7.32976 -47.27315,-15.33413 -79.10098,-24.76577 -88.19644,-26.13551 -3.12955,-0.47131 -8.49448,-1.55928 -11.92205,-2.41771 -3.42758,-0.85844 -6.98127,-1.5608 -7.89709,-1.5608 -3.06457,0 -8.92938,2.45034 -16.94253,7.07866 -11.22137,6.48136 -24.98577,12.95554 -30.67414,14.4278 -2.66463,0.68965 -7.70332,1.25391 -11.19709,1.25391 -6.06821,0 -6.3877,0.0931 -7.1438,2.08181 -1.36371,3.58684 -2.64226,21.53572 -2.13888,30.02658 0.26506,4.47078 1.19908,12.91502 2.0756,18.76496 0.87653,5.84995 2.24577,17.11096 3.04275,25.02446 1.40285,13.92942 1.40111,14.5752 -0.0545,20.25282 -3.86359,15.06956 -16.33393,43.39676 -24.18195,54.9309 -6.16593,9.06199 -21.56102,30.37296 -23.08011,31.94913 -2.23278,2.31666 -2.75102,7.00302 -2.77177,25.06417 -0.0393,34.24235 -2.97931,49.13861 -16.29818,82.57931 -16.99217,42.66351 -37.17893,69.90924 -73.14731,98.72567 l -6.92043,5.54437 -2.61053,10.41952 c -1.43579,5.73074 -3.35312,13.52875 -4.26071,17.32892 -2.8081,11.75771 -8.81326,29.19128 -12.5748,36.50588 -3.94547,7.67227 -5.44842,12.02227 -7.32747,21.20792 -1.76359,8.62126 -1.57845,12.32625 1.20049,24.02316 2.2745,9.57371 2.70493,10.59267 6.04276,14.30515 4.94906,5.50453 5.73602,8.22469 4.15013,14.34487 -1.48688,5.73805 -1.02592,9.09208 4.88215,35.52326 6.32832,28.31129 12.05817,49.24399 13.73654,50.18325 1.03352,0.57839 5.6585,0.5229 14.99007,-0.17983 7.42246,-0.55896 14.77265,-0.88176 16.33377,-0.71731 4.98138,0.52472 4.08054,2.56505 -3.32017,7.51986 -5.85065,3.91705 -6.43662,4.52033 -4.72438,4.86397 10.74575,2.15665 14.97822,3.47279 15.21173,4.73032 0.3642,1.96122 -3.92453,2.97742 -16.50853,3.91164 -5.81203,0.43148 -14.27997,1.20586 -18.81765,1.72085 -4.53768,0.51499 -9.15797,0.70856 -10.2673,0.43013 -2.66243,-0.66823 -4.41533,-4.50674 -6.30199,-13.80013 -1.63799,-8.06838 -4.91405,-21.63889 -10.92395,-45.25039 -2.10523,-8.27095 -5.01751,-20.41488 -6.47174,-26.9865 -2.22886,-10.07212 -3.14275,-12.71526 -5.81979,-16.83184 -1.74665,-2.6859 -3.42376,-4.8993 -3.72689,-4.91867 -0.30315,-0.0193 -0.80368,1.98585 -1.11231,4.45604 -0.50913,4.07496 -0.36795,6.78231 0.95266,18.26912 0.33163,2.88452 -0.096,4.86799 -2.02275,9.38116 -1.3438,3.14778 -2.83,8.08597 -3.30264,10.97375 -1.34942,8.24469 -3.12971,58.13371 -2.11086,59.15256 0.16032,0.16032 6.80197,1.38605 14.75924,2.72384 15.45936,2.59908 19.8061,3.90352 19.8061,5.94377 0,1.53968 -1.29788,2.05953 -14.53012,5.81982 -5.64434,1.60399 -10.54305,3.17483 -10.88605,3.49077 -0.34299,0.31595 4.91428,1.52215 11.68283,2.68046 11.97952,2.05007 16.00214,3.6001 14.10494,5.43505 -1.74462,1.68737 -44.40764,3.1903 -49.21408,1.73371 z m 32.17864,-3.04832 6.50296,-0.54041 -10.39551,-1.75039 c -5.71753,-0.96271 -10.83861,-2.20116 -11.38019,-2.75212 -1.75871,-1.78918 1.92732,-3.68284 14.40623,-7.40107 6.74366,-2.00936 11.44877,-3.79681 10.8554,-4.12393 -0.57602,-0.31755 -7.08288,-1.5458 -14.45968,-2.72944 -7.3768,-1.18364 -14.0153,-2.33079 -14.75222,-2.54922 -2.57211,-0.76242 -2.82479,-5.56828 -1.57782,-30.00985 1.60586,-31.47597 2.04083,-35.00387 5.36441,-43.50934 l 2.96259,-7.58164 -1.28214,-5.1042 c -0.70518,-2.80732 -1.28213,-6.19867 -1.28213,-7.53634 0,-3.57716 6.13379,-37.43596 8.88,-49.01803 1.3033,-5.49663 2.9462,-13.04417 3.65088,-16.77229 0.70469,-3.72813 1.43008,-7.02025 1.61198,-7.31584 0.1819,-0.29558 -2.7195,-0.53742 -6.44756,-0.53742 h -6.7783 l -0.43987,2.43861 c -0.24194,1.34124 -0.99432,6.97885 -1.67197,12.52803 -0.67765,5.54917 -1.94934,14.32817 -2.82597,19.50889 -0.87664,5.18071 -2.35351,13.96416 -3.28194,19.51876 -2.01774,12.07177 -3.51261,15.72865 -8.69395,21.26792 -3.51523,3.75806 -3.91863,4.5767 -3.91863,7.95213 0,3.06139 0.73351,4.975 3.93499,10.26576 l 3.93499,6.50296 -0.47024,10.97375 c -0.25864,6.03557 -1.56677,18.38935 -2.90696,27.45286 -1.34019,9.06351 -3.01497,23.65792 -3.72174,32.43202 -1.47507,18.31236 -1.54362,18.05675 5.1129,19.06875 3.95907,0.6019 17.44769,0.28689 29.06949,-0.67891 z m 35.35986,-22.93665 c 4.24725,-0.43694 11.67865,-1.03247 16.51423,-1.3234 4.83558,-0.29094 8.56233,-0.76647 8.28168,-1.05674 -0.28066,-0.29029 -3.68448,-1.07647 -7.56403,-1.74709 -7.7404,-1.338 -9.56383,-3.0029 -5.24712,-4.79094 1.26804,-0.52524 4.48564,-2.40443 7.15022,-4.17596 l 4.8447,-3.22098 -4.47079,-0.0162 c -2.45893,-0.009 -9.50157,0.42773 -15.65031,0.9703 -8.17638,0.7215 -11.42135,0.74467 -12.07977,0.0863 -1.13326,-1.13327 -12.59892,-47.09881 -16.49401,-66.12415 -3.15268,-15.39905 -3.40835,-18.43584 -2.01722,-23.96051 1.22447,-4.86278 0.56865,-6.84254 -3.99371,-12.0562 -3.60297,-4.11732 -4.03387,-5.08924 -5.81609,-13.11862 -1.11111,-5.00589 -2.17581,-8.21221 -2.51854,-7.58458 -1.27563,2.33612 -2.70676,11.15355 -2.81515,17.34468 -0.0626,3.57663 -0.38477,8.33192 -0.71589,10.56731 -0.57491,3.8812 -0.44003,4.3089 2.9931,9.49114 3.02169,4.56117 3.88932,6.83017 5.43948,14.22523 4.43835,21.17321 19.52162,79.33461 20.82053,80.2844 1.14507,0.83729 1.18298,1.22821 0.26216,2.70269 -0.92749,1.48513 -0.86879,1.95336 0.42399,3.38187 0.92394,1.02095 2.15947,1.51548 3.2154,1.28699 0.94318,-0.20408 5.18989,-0.72856 9.43714,-1.1655 z M 137.2263,637.40936 c 2.74973,-2.29762 6.00771,-4.40093 7.23996,-4.67401 1.53555,-0.3403 4.83476,-3.47206 10.48607,-9.95385 12.22898,-14.02606 21.54921,-21.00035 30.86661,-23.09737 8.65085,-1.947 15.62449,-5.20128 15.63845,-7.29775 0.01,-1.48077 11.17956,-11.98819 12.12359,-11.40475 0.49697,0.30715 1.83788,-0.17647 2.97979,-1.0747 1.14192,-0.89823 2.5298,-1.45908 3.08419,-1.24634 0.55439,0.21274 3.00014,-0.4935 5.435,-1.56941 7.16037,-3.16401 18.94054,-6.66285 33.28391,-9.88569 16.39804,-3.6845 29.43278,-7.56536 36.98561,-11.0118 3.12955,-1.42805 12.70398,-5.61974 21.27652,-9.31486 23.09238,-9.95378 35.98095,-19.08788 58.47071,-41.43806 12.4735,-12.3961 20.11065,-21.81304 28.33496,-34.93826 13.61713,-21.73168 29.4841,-60.55697 33.89463,-82.93767 1.6621,-8.4341 3.03409,-30.04469 3.0964,-48.77223 0.0406,-12.20228 0.74271,-16.00615 3.50508,-18.98998 2.71485,-2.9325 16.86349,-22.459 22.75779,-31.40798 7.70926,-11.70453 15.23201,-28.01378 21.39443,-46.38296 l 2.98312,-8.89223 -0.47203,-11.38019 c -0.25961,-6.2591 -1.49568,-18.33023 -2.74682,-26.82472 -1.8842,-12.79266 -2.27009,-18.09642 -2.24741,-30.88908 0.0185,-10.4677 0.40114,-17.01617 1.18724,-20.32176 1.23014,-5.17279 1.37973,-5.90874 1.52834,-7.51905 0.11718,-1.26989 3.34524,-1.35719 3.34524,-0.0905 0,1.54692 13.48025,0.33089 19.50889,-1.75987 7.59919,-2.63544 27.3911,-12.68914 26.57893,-13.50131 -0.18141,-0.1814 -2.27583,0.0875 -4.65427,0.59759 -3.39641,0.7284 -5.2971,0.6933 -8.85697,-0.16356 -2.4929,-0.60004 -7.85966,-1.10124 -11.92613,-1.11378 -7.38852,-0.0228 -7.3959,-0.0249 -10.77288,-3.07107 -2.14987,-1.93927 -4.17972,-3.04826 -5.57943,-3.04826 -1.54998,0 -3.17071,-1.04356 -5.48453,-3.53141 -1.80642,-1.94227 -3.99232,-3.91516 -4.85755,-4.38418 -0.98123,-0.5319 -1.64235,-1.8521 -1.75704,-3.50864 -0.10113,-1.46073 -0.76492,-2.98104 -1.4751,-3.37848 -0.71018,-0.39744 -1.30287,-1.34457 -1.31708,-2.10474 -0.0142,-0.76017 -0.56292,-2.09218 -1.21931,-2.96002 -0.6564,-0.86784 -1.19345,-2.52396 -1.19345,-3.68026 0,-1.156313 -0.50098,-2.823923 -1.1133,-3.705773 -0.61231,-0.88187 -1.32568,-2.88367 -1.58526,-4.44845 -0.25959,-1.56477 -0.85105,-5.13238 -1.31434,-7.928 -0.96664,-5.83296 0.0523,-10.87758 3.55733,-17.61196 1.14472,-2.19939 2.08131,-4.40789 2.08131,-4.90778 0,-2.37044 15.0157,-14.74859 19.91722,-16.4187 2.01081,-0.68515 3.65602,-1.58187 3.65602,-1.99271 0,-0.41084 2.01875,-1.70282 4.48611,-2.87106 2.46736,-1.16824 4.6837,-2.44377 4.9252,-2.83452 0.24149,-0.39075 1.42342,-0.71606 2.6265,-0.7229 5.39671,-0.0307 4.02542,-1.43068 -5.41068,-5.52389 -13.95722,-6.05438 -26.01316,-7.17065 -33.85829,-3.13497 -1.78832,0.91994 -3.80017,1.60317 -4.47079,1.51828 -2.04379,-0.2587 -6.76296,3.10688 -16.41183,11.70444 -17.36145,15.46982 -24.47963,27.54767 -28.68165,48.66595 -3.75794,18.886423 -4.71762,29.966373 -4.26177,49.204313 0.46093,19.45267 0.98587,22.41115 7.39561,41.68124 5.77411,17.35911 5.63603,16.6166 5.19968,27.96172 -0.32677,8.49622 -0.80962,11.62718 -2.61003,16.92437 -2.96788,8.73213 -8.34668,19.75375 -13.43436,27.52818 -7.24324,11.06828 -28.00935,31.24704 -44.63981,43.37722 -0.75041,0.54734 -4.12095,1.52259 -7.49009,2.16722 -3.36915,0.64462 -8.48016,2.13959 -11.3578,3.32216 -2.87765,1.18258 -9.98737,3.91631 -15.79939,6.07497 -17.85288,6.63078 -35.06872,13.69728 -42.91459,17.61494 -13.91452,6.94791 -38.73409,24.72896 -57.93679,41.50663 -6.38606,5.57961 -15.55799,16.70026 -25.68896,31.14701 -4.54603,6.48264 -14.89928,20.93142 -23.00721,32.10838 -24.73714,34.10071 -31.12587,43.82591 -47.52549,72.34547 -13.82373,24.03999 -18.68479,32.12274 -24.09473,40.06358 -2.82855,4.15182 -4.95549,8.03692 -4.72655,8.63355 0.22896,0.59663 -1.39608,3.47924 -3.61118,6.40579 -2.2151,2.92655 -4.78761,7.3527 -5.71668,9.83588 -2.34004,6.25429 -4.888979,19.27244 -5.523319,28.2091 l -0.53154,7.48839 3.402389,-3.69116 c 3.9637,-4.30011 7.7972,-6.26317 9.30006,-4.7624 1.44482,1.44282 1.70963,14.85002 0.59067,29.90504 -0.93557,12.5874 -0.61872,22.36144 0.79927,24.65579 0.53375,0.86363 1.02807,0.80866 2.55982,-0.2847 9.14769,-6.52947 9.8519,-6.91404 11.54609,-6.30516 1.13577,0.40818 2.13173,1.92661 2.89183,4.40888 0.63767,2.08245 1.42871,3.78627 1.75788,3.78627 0.32916,0 2.84826,-1.87987 5.59798,-4.17748 z m 11.36766,-71.05207 c -0.85883,-1.03483 -0.79812,-1.77467 0.34174,-4.165 0.76235,-1.59864 1.18968,-3.10304 0.94963,-3.34309 -0.24005,-0.24005 -3.53526,0.49802 -7.3227,1.64015 -13.1789,3.97419 -10.24154,-0.57755 8.50235,-13.17522 13.67836,-9.19316 24.35398,-19.94328 37.96027,-38.22517 15.05442,-20.22763 26.57764,-38.52696 44.63781,-70.8866 13.0565,-23.39426 31.62835,-52.94175 39.2192,-62.39709 8.57637,-10.68295 28.21905,-33.95378 34.60366,-40.99524 11.02633,-12.16073 22.53005,-20.66705 22.37149,-16.5424 -0.0215,0.55885 -2.06949,2.29636 -4.55112,3.86114 -6.1412,3.87229 -17.40301,15.73944 -35.54826,37.45903 -20.44418,24.4714 -32.35777,42.15891 -52.64971,78.16639 -21.28585,37.77113 -30.95217,53.09284 -47.25129,74.89615 -12.8591,17.2016 -22.96743,27.2019 -37.39973,37 -6.16394,4.18469 -11.10163,7.71407 -10.97265,7.84305 0.12898,0.12898 2.23301,-0.28389 4.67562,-0.9175 2.44261,-0.6336 5.09411,-0.94475 5.89221,-0.69145 1.82805,0.5802 1.85719,3.07064 0.0713,6.09389 -0.75889,1.28469 -1.15318,2.56242 -0.8762,2.8394 0.27698,0.27697 4.83014,-1.01671 10.11815,-2.87486 10.8322,-3.80631 36.17846,-11.39751 38.05517,-11.39751 1.7053,0 1.54794,2.23548 -0.19334,2.74664 -0.78239,0.22967 -6.54361,1.88864 -12.80271,3.68661 -6.2591,1.79797 -16.30314,4.92683 -22.32009,6.95303 -11.90905,4.01035 -13.93292,4.32685 -15.51079,2.42565 z M 261.61535,544.9624 c 0,-0.38815 2.31339,-2.05865 5.14087,-3.71222 2.82748,-1.65357 10.23476,-7.57487 16.46063,-13.15844 22.04018,-19.76641 34.85775,-29.56083 36.47086,-27.86887 0.61511,0.64519 0.19089,1.40117 -1.48654,2.64907 -1.291,0.96044 -5.5385,4.12388 -9.43887,7.0299 -3.90038,2.90601 -11.98889,9.73086 -17.97448,15.16634 -13.45649,12.21975 -18.8934,16.67092 -23.0639,18.88228 -3.35847,1.78079 -6.10857,2.23637 -6.10857,1.01194 z m 40.63108,66.75146 c 0.008,-1.14761 -0.47711,-1.82896 -1.30167,-1.82896 -0.96609,0 -1.18431,0.48436 -0.82397,1.82896 0.26958,1.00592 0.50074,2.37764 0.51369,3.04826 0.0399,2.06561 1.59719,-0.87931 1.61195,-3.04826 z m 15.41732,-4.6535 c 5.09846,-2.63651 15.88547,-29.09395 20.39051,-50.01204 0.9147,-4.24725 2.40802,-10.40694 3.31848,-13.6882 0.91044,-3.28127 1.53479,-6.08652 1.38743,-6.23387 -0.14736,-0.14737 -2.32271,1.00762 -4.83411,2.56661 -2.5114,1.55901 -10.37509,5.35072 -17.47485,8.42604 l -12.90868,5.59147 -0.22659,3.90437 c -0.12462,2.1474 -1.11033,11.2202 -2.19046,20.16178 -1.08014,8.94157 -2.2058,18.69092 -2.50148,21.66522 l -0.53758,5.40782 2.72805,1.25119 c 4.94539,2.26814 9.64075,2.61881 12.84928,0.95961 z m -17.81813,-4.28808 c 0.014,-2.5707 0.56446,-9.0635 1.22337,-14.42845 2.84286,-23.14685 3.80055,-32.20729 3.44217,-32.56566 -0.21043,-0.21043 -4.18685,1.25706 -8.8365,3.2611 -9.79286,4.2208 -9.14641,2.23131 -5.9112,18.1917 2.06201,10.17259 6.36893,26.19943 7.73755,28.79279 1.41339,2.67822 2.31925,1.42198 2.34461,-3.25148 z M 711.94557,154.8572 c 0,-0.83662 -9.18736,-9.72183 -13.8188,-13.36434 -5.51464,-4.33713 -17.71224,-11.1243 -40.23709,-22.38929 -18.0738,-9.03896 -34.38575,-18.49842 -46.11352,-26.74167 -2.15436,-1.51427 -9.30367,-6.359943 -15.88735,-10.768163 -10.30213,-6.89798 -13.31033,-9.44413 -21.58559,-18.27012 -14.21606,-15.16216 -22.7612,-21.80331 -38.46556,-29.89486 -9.05402,-4.66501 -9.24025,-4.71985 -14.24917,-4.19632 -5.07899,0.53086 -12.31661,3.63951 -15.70558,6.74574 -0.89415,0.81956 -3.02395,1.86879 -4.73286,2.33163 -1.70892,0.46283 -4.69056,2.2354 -6.62589,3.93904 -1.93531,1.70365 -5.14113,4.44274 -7.12402,6.08687 -2.40599,1.99493 -4.09311,4.29335 -5.07176,6.9094 -0.80657,2.15604 -1.86801,4.42835 -2.35877,5.04957 -2.50076,3.16556 -3.40578,17.08898 -1.19942,18.45259 0.38194,0.23605 0.69444,1.66628 0.69444,3.17828 0,1.512 0.36579,2.97517 0.81287,3.25148 0.44707,0.27631 0.81287,1.38286 0.81287,2.45901 0,2.303863 2.19389,7.426943 4.16848,9.734053 0.76528,0.89415 1.51216,2.70864 1.65973,4.0322 0.19586,1.75665 0.79332,2.52919 2.21251,2.86093 1.11573,0.2608 2.59002,1.66005 3.45974,3.28363 1.14438,2.1363 2.23988,2.98135 4.47325,3.45057 1.62674,0.34177 4.36897,1.89639 6.09383,3.4547 2.60431,2.35283 3.79048,2.84709 6.99492,2.91461 2.12233,0.0447 6.41933,0.24971 9.54888,0.45552 13.47825,0.88634 22.12781,0.42443 25.64414,-1.36946 4.98915,-2.54528 9.97968,-3.48046 13.9988,-2.62326 l 3.60211,0.76825 1.04301,-4.14306 c 1.86193,-7.39594 3.33165,-10.39339 4.79407,-9.77735 0.72371,0.30487 2.59611,0.8296 4.16088,1.16606 1.56478,0.33647 6.13718,1.90389 10.16088,3.48315 4.02371,1.57927 14.63167,5.43962 23.57325,8.57855 31.48209,11.05176 40.77888,14.62007 54.90843,21.07507 19.47275,8.896 28.28976,12.5819 37.20454,15.55313 4.16594,1.38848 8.55544,3.05718 9.75444,3.7082 2.49491,1.35469 3.39931,1.51849 3.39931,0.61566 z M 532.70764,81.402887 c -3.85823,-1.9708 -9.0222,-6.73015 -10.63431,-9.80106 -1.78056,-3.39178 -1.44801,-9.58959 0.73615,-13.7199 2.77776,-5.25282 8.95038,-8.37476 15.4392,-7.80869 6.18273,0.53936 10.3109,3.24357 12.7996,8.38455 5.62944,11.62886 0.2976,23.2839 -11.09971,24.2632 -2.92873,0.25164 -4.85396,-0.0988 -7.24093,-1.3181 z m 11.86293,-3.58115 c 5.54612,-2.86801 7.23912,-10.66044 3.78482,-17.42064 -2.31642,-4.53335 -5.13996,-6.58855 -9.76841,-7.11024 -7.52001,-0.84762 -13.46132,3.26431 -14.20119,9.82852 -0.22761,2.01923 -0.18052,4.60087 0.10462,5.73697 0.76923,3.06483 5.10118,7.59686 7.83554,8.19742 1.31738,0.28935 2.6039,0.86373 2.85895,1.27641 0.73788,1.19392 6.72037,0.86985 9.38567,-0.50844 z m -11.6495,-4.07804 c -2.44096,-1.32445 -4.68422,-4.99717 -4.68422,-7.66911 0,-2.50605 2.06324,-6.07004 4.40064,-7.60156 1.15298,-0.75546 3.68057,-1.34002 5.79417,-1.34002 3.03779,0 4.18849,0.43944 6.06535,2.31631 2.67797,2.67796 3.72597,6.88995 2.51005,10.08805 -1.77165,4.6598 -9.17551,6.87073 -14.08599,4.20633 z m 10.69579,-9.62354 c 0.54793,-0.66022 0.71951,-2.04955 0.40691,-3.29503 -0.69865,-2.78366 -3.86507,-2.61439 -4.2678,0.22813 -0.53961,3.80864 1.74149,5.62063 3.86089,3.0669 z"
       style="fill:#000000;stroke-width:0.81287" />
  </g>
</svg>
