<?xml version="1.0" encoding="UTF-8" standalone="no"?>
<svg
   xmlns:dc="http://purl.org/dc/elements/1.1/"
   xmlns:cc="http://creativecommons.org/ns#"
   xmlns:rdf="http://www.w3.org/1999/02/22-rdf-syntax-ns#"
   xmlns:svg="http://www.w3.org/2000/svg"
   xmlns="http://www.w3.org/2000/svg"
   xmlns:sodipodi="http://sodipodi.sourceforge.net/DTD/sodipodi-0.dtd"
   xmlns:inkscape="http://www.inkscape.org/namespaces/inkscape"
   version="1.1"
   id="svg833"
   width="700"
   height="700"
   viewBox="0 0 700 700"
   sodipodi:docname="★.svg"
   inkscape:version="1.0.1 (3bc2e813f5, 2020-09-07)">
  <metadata
     id="metadata839">
    <rdf:RDF>
      <cc:Work
         rdf:about="">
        <dc:format>image/svg+xml</dc:format>
        <dc:type
           rdf:resource="http://purl.org/dc/dcmitype/StillImage" />
        <dc:title></dc:title>
      </cc:Work>
    </rdf:RDF>
  </metadata>
  <defs
     id="defs837" />
  <sodipodi:namedview
     pagecolor="#ffffff"
     bordercolor="#666666"
     borderopacity="1"
     objecttolerance="10"
     gridtolerance="10"
     guidetolerance="10"
     inkscape:pageopacity="0"
     inkscape:pageshadow="2"
     inkscape:window-width="1280"
     inkscape:window-height="971"
     id="namedview835"
     showgrid="false"
     inkscape:zoom="0.27444582"
     inkscape:cx="664.41445"
     inkscape:cy="441.77467"
     inkscape:window-x="-8"
     inkscape:window-y="-8"
     inkscape:window-maximized="1"
     inkscape:current-layer="layer4"
     inkscape:document-rotation="0" />
  <g
     inkscape:groupmode="layer"
     id="layer1"
     inkscape:label="Image 1"
     style="display:none">
    <path
       style="fill:#fefc83;fill-opacity:1;stroke:#000000;stroke-width:0;stroke-linecap:round;stroke-linejoin:round"
       d="m 398.93315,97.023817 c -5.34622,4.013613 -5.00722,12.764223 -8.27376,18.352073 -23.54476,66.05721 -45.91793,132.5592 -68.53281,198.91595 -5.42096,13.75608 -22.65196,13.59714 -34.91093,14.80222 -55.1676,3.39386 -110.37311,8.11677 -164.94314,16.99628 -4.7818,0.34463 -3.71048,5.99201 0.10738,7.14629 48.26697,35.49197 97.84483,69.24219 147.76904,102.31677 9.6836,6.24389 2.51296,18.10933 -0.74478,25.89826 -20.94689,57.32686 -36.70276,116.40244 -53.93045,174.9181 -4.37469,16.13814 -9.58125,32.15382 -13.32246,48.40868 3.36955,4.34591 8.38574,-2.88363 11.8349,-4.35586 59.29231,-44.48666 117.43248,-90.63231 178.60893,-132.5302 9.60213,-6.25595 21.50162,-1.25268 29.36933,5.49949 63.37275,42.75411 123.23696,91.15262 190.95576,127.13687 3.79723,2.91316 7.89465,-1.21122 5.82477,-5.21084 -14.4501,-53.15396 -33.28749,-105.03524 -51.87002,-156.86179 -9.41682,-25.83493 -19.62105,-51.46535 -24.57925,-78.61023 36.02687,-32.56474 74.63969,-62.16608 111.90293,-93.34193 11.56374,-10.12637 24.44304,-19.12721 34.64499,-30.62144 -0.39345,-5.08036 -8.46618,-2.56322 -11.87854,-3.89241 -55.82277,-4.41065 -111.97186,-3.65306 -167.76588,-7.38847 -12.08527,-0.54615 -24.74686,-6.84381 -28.42725,-19.08596 -24.19042,-60.1923 -45.40751,-121.74478 -69.12982,-182.20359 -4.12782,-8.43591 -5.60657,-18.75233 -11.43077,-26.112136 -0.39583,-0.182264 -0.84589,-0.251076 -1.27817,-0.176127 z"
       id="path850" />
    <path
       style="fill:#fefc83;fill-opacity:1;stroke:#000000;stroke-width:0;stroke-linecap:round;stroke-linejoin:round"
       d="m 398.11233,105.96838 c -2.37781,-0.22529 -5.43921,0.32731 -5.73409,3.22968 -23.40335,65.3493 -45.60046,131.12106 -67.75309,196.90191 -1.68951,4.32727 -2.76629,8.9856 -4.92723,13.08573 -1.55277,2.26114 -5.51063,3.04192 -4.5939,6.45566 -0.006,98.31513 -0.013,196.63027 -0.0195,294.94542 1.16019,3.7102 4.66152,-0.1135 6.42359,-1.35487 21.66208,-15.83186 43.44019,-31.66399 65.34409,-47.22453 4.981,-3.24909 10.15329,-7.74328 16.5415,-6.90441 7.10942,0.34547 13.10171,4.44291 18.48195,8.61969 15.07287,10.20556 30.37136,20.09791 44.80268,31.21704 26.63348,19.63325 53.65876,38.7398 81.16128,57.13783 7.0673,0.69567 14.32773,0.0973 21.46905,0.2971 12.81598,-0.10968 25.7147,0.22085 38.47869,-0.16538 2.80088,-1.39094 -0.14004,-4.805 -0.35913,-7.04019 -14.58308,-47.40708 -31.67803,-93.98028 -48.92146,-140.46869 -6.64133,-17.94294 -12.82873,-36.20178 -15.71371,-55.19995 21.72167,-19.1642 44.32544,-37.3077 66.6035,-55.81827 25.64233,-21.26418 51.729,-41.99182 77.23839,-63.41437 2.22845,-1.51681 4.68735,-5.42416 1.50961,-7.30787 -5.45658,-2.19377 -11.5984,-1.34353 -17.34307,-2.03114 -48.97189,-2.80847 -98.07937,-4.57846 -147.08259,-5.17719 -11.87524,-0.6545 -24.91571,-1.126 -34.84131,-8.5354 -5.93109,-4.41727 -8.18521,-12.11367 -11.02532,-18.67426 -23.91449,-63.86242 -47.29704,-127.92923 -72.07539,-191.46513 -1.63863,-2.13722 -5.27439,-0.72657 -7.66459,-1.10841 z"
       id="path852" />
    <path
       style="fill:#fefc83;fill-opacity:1;stroke:#000000;stroke-width:0;stroke-linecap:round;stroke-linejoin:round"
       d="m 547.7731,604.76826 c -1.06226,0.4826 -1.11228,1.72136 -1.03764,2.73056 8.3e-4,17.66818 0.002,35.33636 0.003,53.00454 0.0672,1.42571 1.6007,1.8829 2.56874,2.61951 17.46555,11.26839 35.1356,22.23321 53.18971,32.53679 4.54198,2.51403 9.03557,5.1597 13.8209,7.19245 1.28745,0.36148 2.45997,-0.63035 3.28143,-1.50383 0.94961,-1.30296 0.12727,-2.94336 -0.0518,-4.35581 -1.93709,-8.64331 -4.51257,-17.12711 -6.9994,-25.62382 -6.40984,-21.40287 -13.28262,-42.66546 -20.41482,-63.83775 -0.41518,-1.06641 -0.58781,-2.69536 -1.98825,-2.85875 -3.14673,-0.1216 -6.31678,-0.0171 -9.47247,-0.052 -10.76862,0.0157 -21.54377,-0.0313 -32.30831,0.0235 -0.19697,0.0415 -0.39394,0.0831 -0.5909,0.12462 z"
       id="path854" />
    <path
       style="fill:#fefc83;fill-opacity:1;stroke:#000000;stroke-width:0;stroke-linecap:round;stroke-linejoin:round"
       d="m 249.9914,603.89684 c -6.28707,0.0178 -12.57547,-0.0181 -18.86169,0.0607 -1.13326,0.11506 -1.58395,1.23576 -1.77715,2.21085 -6.69982,23.20369 -13.39698,46.40838 -20.00308,69.63895 -2.72945,9.69722 -5.3664,19.42958 -8.2123,29.08803 -0.40723,1.94532 2.16292,3.39218 3.77003,2.43188 3.87203,-1.90826 7.30061,-4.57989 10.77655,-7.11128 13.24022,-10.01881 26.31023,-20.26019 39.4814,-30.36927 8.00666,-6.19027 16.05945,-12.33105 24.05916,-18.52378 1.00144,-0.95651 0.47639,-2.46222 0.60749,-3.68583 0,-14.00045 0,-28.00091 0,-42.00136 -0.0186,-1.17855 -1.20487,-1.93024 -2.30934,-1.74002 -9.17702,5.2e-4 -18.35405,-10e-4 -27.53107,10e-4 z"
       id="path856" />
    <path
       style="fill:#fefc83;fill-opacity:1;stroke:#000000;stroke-width:0;stroke-linecap:round;stroke-linejoin:round"
       d="m 189.79126,336.49646 c -8.47955,0.82928 -16.9334,1.91332 -25.39167,2.93628 -13.52699,1.7186 -27.04935,3.50215 -40.51431,5.65924 -1.82468,0.38414 -3.80062,0.47979 -5.43607,1.44869 -1.40094,0.93431 -1.31873,3.13331 -0.0369,4.13809 3.60864,3.14312 7.52393,5.91479 11.34717,8.78798 19.50647,14.30932 39.35609,28.14213 59.16513,42.02709 1.04423,0.72678 2.59324,0.0202 2.72878,-1.24474 0.0254,-20.66821 0.0791,-41.33768 0.0176,-62.00617 -0.0416,-0.98645 -0.87882,-1.79987 -1.87968,-1.74646 z"
       id="path858" />
    <path
       style="fill:#fefc83;fill-opacity:1;stroke:#000000;stroke-width:0;stroke-linecap:round;stroke-linejoin:round"
       d="m 399.13431,95.796674 c -1.56865,0.192071 -2.14209,1.915572 -2.79292,3.118557 -3.28362,7.148139 -5.63136,14.673429 -8.31715,22.055229 -8.03115,22.59479 -15.97637,45.22014 -23.76344,67.90031 -0.98077,2.92392 -2.05469,5.82664 -2.97009,8.76671 -0.31891,1.22711 0.8958,2.31319 2.08572,2.13286 25.1088,0.0746 50.21781,0.0314 75.3267,0.0434 1.27558,-0.005 2.1078,-1.45662 1.55876,-2.58244 -7.45192,-19.96072 -14.89783,-39.92441 -22.59083,-59.79391 -4.54899,-11.72038 -8.96608,-23.49471 -13.76592,-35.11569 -0.89827,-1.95473 -1.58789,-4.070273 -2.95632,-5.760242 -0.45899,-0.499233 -1.12723,-0.823156 -1.81451,-0.764814 z"
       id="path860" />
  </g>
  <g
     inkscape:groupmode="layer"
     id="layer3"
     inkscape:label="Image 3"
     style="display:inline">
    <path
       style="fill:#ffffff;fill-opacity:1;stroke:#000000;stroke-width:0;stroke-linecap:round;stroke-linejoin:round"
       d="m 345.71469,54.360739 c -10.7099,11.429721 -11.28456,30.237531 -18.38814,44.111381 -20.98323,56.73929 -38.16006,114.94464 -60.08407,171.27207 -10.51731,18.907 -35.80133,10.6824 -53.28265,14.88175 -48.98626,3.90363 -98.13323,8.17454 -146.61168,16.08645 -7.37271,9.40495 11.34297,14.14065 16.19364,20.23451 44.64298,33.60214 92.9009,62.43952 137.0773,96.47745 -8.19463,35.44384 -23.1292,69.43979 -32.32415,104.80984 -13.14594,45.38623 -28.32399,90.43391 -39.28414,136.31838 5.85233,10.96577 17.37808,-4.96593 23.98823,-8.06197 57.40087,-42.85555 112.92025,-88.74903 173.61785,-126.94441 13.12603,-3.05036 25.21401,11.55494 37.0155,17.51444 59.21337,40.88852 116.88855,84.34324 179.81078,119.53502 12.89157,-1.15033 0.3057,-19.68322 -0.13089,-28.09482 -20.3075,-70.98607 -49.38924,-139.15226 -69.73632,-210.06943 -4.5474,-12.96629 15.64097,-16.51036 21.14012,-25.30206 41.23066,-34.98886 84.89348,-68.06122 124.68674,-104.15113 -3.27639,-9.95975 -20.5896,-5.55591 -29.80529,-7.82391 -54.21313,-4.35697 -109.23046,-0.76784 -162.93682,-8.99404 -19.67198,-5.29922 -19.0672,-30.77276 -27.93097,-45.65357 -23.26398,-57.6247 -42.11592,-117.15198 -67.22803,-173.94185 -1.2657,-1.780608 -3.57483,-2.990366 -5.78706,-2.204101 z"
       id="path878" />
  </g>
  <g
     inkscape:groupmode="layer"
     id="layer2"
     inkscape:label="Image 2"
     style="display:inline">
    <path
       style="fill:#d40000;fill-opacity:1;stroke:#000000;stroke-width:0;stroke-linecap:round;stroke-linejoin:round"
       d="m 345.11588,59.04889 c -30.00772,71.32949 -48.38604,148.53464 -81.3429,219.00668 -29.91955,12.84816 -65.19498,7.13053 -97.0718,13.15474 -30.08011,4.41944 -62.09163,3.79902 -90.99184,12.61452 -0.26897,14.57448 21.05354,20.76397 29.91113,30.33812 37.90781,28.69281 81.12857,52.15119 116.47762,83.12206 -20.69739,78.6435 -50.60033,155.52695 -67.679,235.14004 5.73617,11.81162 18.74436,-9.15376 26.09662,-10.96668 54.98867,-38.71807 105.75074,-84.67621 164.00238,-118.12157 20.53308,-5.44738 36.53538,16.93609 53.46712,24.8085 54.33175,36.69497 106.23766,78.7918 165.3474,107.36127 6.58279,-9.14235 -5.85467,-24.34772 -6.56352,-35.2063 -19.18163,-66.97139 -48.09852,-130.99981 -65.19283,-198.47531 -0.52218,-21.15459 31.22726,-29.68358 43.8883,-45.6805 33.06893,-28.0377 68.44837,-54.02904 99.40428,-84.21149 -13.69264,-8.42385 -35.49156,-2.23067 -51.8104,-5.50847 -46.71629,-3.99252 -95.05811,1.09043 -140.65844,-9.52894 -23.48867,-22.02131 -27.61707,-57.72551 -41.18762,-85.90741 -18.05479,-43.60053 -30.92191,-90.10719 -53.37083,-131.53362 -0.7627,-0.55842 -1.82984,-0.75605 -2.72567,-0.40564 z"
       id="path865" />
    <path
       style="fill:#d40000;fill-opacity:1;stroke:#000000;stroke-width:0;stroke-linecap:round;stroke-linejoin:round"
       d="m 345.89032,57.50978 c -5.83879,3.17849 -5.84851,12.03184 -9.05546,17.41647 -24.43061,66.19788 -45.54903,133.63155 -69.52243,199.91697 -12.90385,11.70066 -31.427,8.35713 -47.36744,10.47315 -43.98971,3.17998 -88.00247,6.81759 -131.57776,13.69576 -5.25953,1.07681 -16.09496,2.45779 -13.76314,10.22118 8.19258,12.36014 22.43713,19.1794 33.7529,28.33912 36.17486,25.89225 73.3685,50.57654 110.28142,75.19349 7.96401,6.81555 0.6813,17.50055 -2.25987,24.93734 -13.55053,36.00138 -23.37828,73.30207 -34.87278,109.99624 -9.47491,33.92862 -20.88034,67.45152 -27.95391,101.97765 -1.80107,6.54218 6.73965,10.68995 11.11112,5.65621 58.28613,-44.03405 116.29464,-89.58667 176.80043,-130.98215 10.36577,-7.3463 22.60588,1.22318 31.09788,7.45871 60.55518,40.80015 117.50596,87.67111 182.60328,121.38141 3.94627,3.37851 13.19897,3.57646 11.57419,-3.68527 -11.54228,-44.37747 -27.59376,-87.47844 -42.51297,-130.81111 -11.5967,-33.98839 -26.23406,-67.19501 -33.28715,-102.53481 18.5245,-19.66307 41.78954,-34.1119 61.88339,-52.19969 27.21278,-23.24698 56.31129,-44.52852 81.64519,-69.84892 2.58065,-6.55312 -7.58445,-6.46959 -11.71498,-6.95702 -56.76082,-4.07713 -113.87492,-3.30024 -170.49365,-8.13204 -12.52142,-0.41919 -21.02792,-10.96116 -24.67168,-21.99389 -25.176,-62.94675 -45.94254,-127.69114 -73.61234,-189.63303 -2.16916,-3.23067 -3.52859,-9.30005 -8.08424,-9.88577 z"
       id="path867" />
    <path
       style="fill:#d40000;fill-opacity:1;stroke:#000000;stroke-width:0;stroke-linecap:round;stroke-linejoin:round"
       d="m 345.82993,54.191043 c -7.89221,2.430897 -7.26038,13.297927 -10.80819,19.428127 -23.87244,66.412 -45.67416,133.61507 -69.2542,200.08425 -13.17578,11.22326 -31.65051,7.59566 -47.47034,9.86077 -46.87725,3.60009 -93.90881,7.13089 -140.31902,14.78698 -8.91899,1.52838 -8.53086,13.50422 -2.07075,17.85175 40.8613,30.93504 83.4727,59.56401 126.25288,87.77505 6.35124,5.05927 18.39646,8.21157 18.27208,17.88618 -4.37703,13.72679 -10.87298,26.82207 -14.75079,40.80094 -19.1112,61.02484 -38.41746,122.08334 -53.8407,184.16383 -2.86836,5.72323 -0.0602,15.32388 7.58354,13.88889 34.3098,-23.47721 66.31351,-50.30328 99.96606,-74.76093 28.59482,-20.71566 56.55225,-43.16884 86.23312,-61.72256 13.18017,-3.70414 23.4063,8.7604 33.88577,14.55576 49.16542,34.51617 96.94843,71.14453 148.5764,102.02453 11.4855,5.99055 21.94243,15.20322 34.76558,18.06142 8.50469,7.7e-4 5.73664,-10.61675 4.19434,-15.72062 -18.41916,-68.76874 -45.83147,-134.65149 -68.06059,-202.18397 -2.00974,-8.26993 -5.33068,-16.69652 -5.24606,-25.0302 46.11471,-40.13657 95.03644,-77.5115 141.27415,-117.70078 5.25515,-3.47861 3.63183,-12.18753 -3.11996,-12.27858 -57.85058,-5.35898 -116.35905,-4.15404 -174.08487,-7.88451 -11.52914,-0.0687 -22.94986,-6.47881 -26.68507,-17.79232 C 411.35472,211.96896 394.50956,162.49039 375.63866,113.8118 367.6328,94.74627 362.23689,74.20767 351.22949,56.59644 c -1.3347,-1.536606 -3.30412,-2.663693 -5.39956,-2.405397 z"
       id="path869" />
    <path
       style="fill:#d40000;fill-opacity:1;stroke:#000000;stroke-width:0;stroke-linecap:round;stroke-linejoin:round"
       d="m 346.53948,51.521457 c -8.03964,3.485114 -7.56317,14.698653 -11.34259,21.537843 -23.79733,66.6455 -45.82558,133.97656 -69.42935,200.64412 -13.4884,11.39818 -32.39418,7.57565 -48.62118,9.93861 -47.80255,3.29747 -95.62519,7.74308 -142.95994,15.14443 -7.70258,1.0888 -8.7545,11.53188 -2.06572,14.85003 44.24639,32.77526 89.58092,64.16347 135.88214,93.96891 6.61414,3.84841 16.33511,10.02973 11.17401,18.96135 -15.45701,36.67953 -25.51642,75.38209 -37.42928,113.30598 -11.27435,39.26137 -23.62162,78.31683 -32.85554,118.10001 0.39765,7.40689 9.43658,6.08716 13.11393,1.85438 59.54201,-44.78966 117.92793,-91.07684 179.36796,-133.21005 10.53329,-8.31329 22.82343,1.66169 31.62722,7.75875 48.6089,33.33101 95.04503,69.86003 145.46778,100.52686 15.25835,8.7076 29.69398,19.6459 46.2821,25.60127 8.78108,-0.76151 3.63414,-11.70385 2.65701,-16.84531 -18.90005,-67.57013 -44.83049,-132.85585 -67.36866,-199.22504 -2.46341,-9.3118 -6.28509,-19.128 -6.21729,-28.56784 47.25636,-40.80786 96.53997,-79.21463 144.09219,-119.66083 4.40032,-5.23451 -1.95963,-11.41056 -7.69423,-10.3135 -58.04556,-4.94269 -116.3922,-4.42836 -174.47666,-7.78232 -12.5645,-0.99517 -23.32557,-9.96208 -26.59379,-22.15693 -25.50872,-65.23477 -48.42327,-131.49254 -74.73723,-196.40939 -1.76832,-3.15884 -3.16369,-8.656959 -7.87288,-8.021333 z"
       id="path871" />
    <path
       style="fill:#d40000;fill-opacity:1;stroke:#000000;stroke-width:0;stroke-linecap:round;stroke-linejoin:round"
       d="m 374.5415,119.93181 c -2.97603,0.62305 -3.68554,3.84236 -3.48336,6.44602 -0.42029,41.54175 -0.21245,83.08799 -0.29727,124.63162 -0.0222,86.72525 -0.0267,173.4505 -0.0407,260.17574 0.0818,3.09526 3.30052,4.64654 6.07262,4.1409 47.63926,0 95.27853,0 142.9178,0 3.20596,-0.0482 5.06681,-3.75775 3.55279,-6.47565 -7.98479,-22.13111 -16.78544,-43.92925 -23.75806,-66.41481 -2.60447,-8.53571 -4.40447,-17.20129 -6.14651,-25.91692 17.87811,-15.89922 36.59982,-30.81613 55.00465,-46.09479 27.90923,-22.97641 55.90759,-45.85772 83.90034,-68.70745 3.01605,-2.90727 7.40148,-5.36171 8.10776,-9.85494 0.44722,-3.71414 -3.32385,-6.04791 -6.60162,-6.27516 -11.19705,-1.35901 -22.48715,-1.35686 -33.71142,-2.12814 -41.57036,-2.33047 -83.2538,-3.53973 -124.84192,-4.20432 -10.04396,-0.5097 -20.34131,-0.31978 -29.80025,-4.03263 -5.57496,-2.09848 -10.46801,-6.1273 -12.90798,-11.64272 -5.14303,-10.66816 -8.687,-22.01545 -12.95902,-33.04334 -13.43229,-36.13981 -26.76073,-72.32243 -40.46368,-108.35893 -0.86297,-1.67199 -2.72642,-2.45001 -4.54417,-2.24448 z"
       id="path873" />
    <path
       style="fill:#d40000;fill-opacity:1;stroke:#000000;stroke-width:0;stroke-linecap:round;stroke-linejoin:round"
       d="m 67.88552,299.53303 c -2.51124,0.18197 -5.04231,2.16744 -5.0657,4.83151 -0.0444,2.15485 1.46022,4.14245 3.3308,5.07282 2.0482,0.83507 4.6299,-0.24554 5.37291,-2.3496 0.28594,-0.94974 0.46262,-1.9455 0.65654,-2.92376 0.31938,-2.3713 -1.73355,-4.69235 -4.13283,-4.62633 -0.0539,0.007 -0.10783,-0.008 -0.16172,-0.005 z"
       id="path875" />
  </g>
  <g
     inkscape:groupmode="layer"
     inkscape:label="Image"
     id="g841"
     style="display:inline">
    <path
       style="fill:#000000;stroke-width:1"
       d="m 139.49244,687.41305 c -2.1125,-0.63252 -5.2208,-2.44638 -6.9074,-4.0308 -5.6616,-5.3188 -5.3632,-10.5848 2.1173,-37.36404 12.6405,-45.25191 25.0445,-88.28615 35.3259,-122.55927 5.6097,-18.7 10.985,-36.7 11.9452,-40 0.9601,-3.3 3.9601,-12.9 6.6665,-21.33333 13.447,-41.90159 12.7688,-39.11966 10.0766,-41.33334 -1.3378,-1.1 -23.9466,-16.51077 -50.2417,-34.24614 -80.2326,-54.11471 -116.474796,-81.69615 -116.474796,-88.64099 0,-1.26363 1.3539,-3.87147 3.0086,-5.79519 3.4431,-4.00292 6.734,-4.6224 59.658096,-11.23017 43.3508,-5.41253 82.6675,-9.06359 122.5164,-11.37721 18.6173,-1.08094 34.049,-2.16467 34.2927,-2.4083 0.2436,-0.24362 8.2059,-23.81124 17.694,-52.37248 21.7256,-65.39867 44.7021,-131.90799 60.547,-175.262848 5.3006,-14.503565 9.4666,-20 15.1592,-20 5.6436,0 12.5771,6.429763 16.7072,15.493393 7.4587,16.36819 51.625,133.846275 78.6394,209.173275 l 7.1726,20 11.9691,0.27742 c 44.9564,1.04203 112.3984,3.36092 128.6357,4.42294 10.6333,0.69548 30.0104,1.8881 43.0601,2.65026 15.1756,0.88632 25.5635,2.12066 28.8231,3.42487 4.7158,1.88689 5.1531,2.51905 5.8577,8.46861 0.4188,3.53622 0.4205,7.73346 0,9.32719 -0.6403,2.44843 -34.7989,30.88179 -153.021,127.37341 l -5.2764,4.30652 6.208,16.54106 c 3.4143,9.09758 9.576,25.24105 13.6927,35.87438 24.5166,63.32679 45.2794,125.63494 57.7594,173.33334 3.2868,12.56209 3.8505,16.7755 3.1189,23.31289 l -0.8929,7.97956 -5.1054,0.82768 c -5.4405,0.882 -7.1766,0.18007 -37.5612,-15.18644 -36.8757,-18.64923 -101.0712,-62.4014 -168.6667,-114.95408 -7.7,-5.98643 -15.5615,-11.89188 -17.4701,-13.12321 l -3.4701,-2.23882 -27.8632,19.78222 c -46.6606,33.12788 -71.3261,51.34949 -108.5299,80.1764 -35.3932,27.42393 -65.0595,49.38565 -68.4548,50.67656 -4.2576,1.61874 -5.4164,1.62249 -10.7195,0.0347 z m 31.5566,-38.91255 c 66.6768,-51.56623 92.8279,-71.40457 116.0994,-88.07336 14.565,-10.43251 32.8354,-23.65729 40.6011,-29.38841 7.7656,-5.73112 15.7792,-10.75219 17.8079,-11.15794 6.6268,-1.32536 15.621,0.85695 20.2376,4.91031 2.392,2.10021 10.6166,7.78624 18.277,12.63563 7.6604,4.84938 19.328,12.98561 25.928,18.0805 14.4692,11.16954 55.5203,40.39704 76.6667,54.58502 31.5731,21.18377 78.1985,48.94594 79.6928,47.45161 1.8544,-1.85432 -19.6233,-71.33799 -37.7369,-122.08492 -4.5807,-12.83333 -14.0591,-38.63333 -21.0632,-57.33333 -8.5197,-22.74658 -13.7053,-38.82556 -15.667,-48.5795 l -2.9324,-14.57948 7.1867,-6.4257 c 3.9526,-3.53415 21.5866,-18.24278 39.1866,-32.68584 17.6,-14.44308 40.4314,-33.19075 50.7364,-41.66148 10.3051,-8.47074 26.4786,-21.66524 35.9413,-29.32112 20.0853,-16.25034 20.555,-15.1951 -7.3796,-16.58222 -9.8806,-0.49062 -22.7647,-1.18729 -28.6314,-1.54813 -18.9758,-1.16715 -86.155,-3.27997 -104.6667,-3.29183 -29.2219,-0.0187 -41.2919,-3.21894 -49.6633,-13.16776 -1.8027,-2.14244 -5.5374,-10.1042 -8.2993,-17.69281 -8.1451,-22.37933 -46.6777,-125.76029 -53.3484,-143.1308 -20.1563,-52.4869 -21.5868,-55.999998 -22.8028,-55.999998 -0.6134,0 -3.3315,6.299998 -6.0403,13.999998 -2.7087,7.7 -6.7427,19.1 -8.9643,25.33334 -15.4811,43.43634 -54.0714,156.60994 -59.7857,175.33333 -2.5678,8.41372 -3.4621,9.465 -11.5285,13.55257 -7.1647,3.63061 -8.1205,3.75296 -45.5674,5.83297 -38.0841,2.11542 -89.745,7.39268 -130.6666,13.3479 -16.8673,2.45465 -18.1755,2.74141 -17.7523,3.89141 1.2098,3.28784 129.3678,92.70429 141.0856,98.43608 3.3,1.6142 8.3916,4.96788 11.3147,7.45263 4.5858,3.89805 5.2948,5.2242 5.1693,9.66873 -0.1358,4.81323 -1.8923,9.66021 -6.493,17.91777 -1.0521,1.88838 -3.9799,9.98838 -6.5063,18 -19.6473,62.30576 -24.0584,76.89567 -39.4756,130.5666 -3.7917,13.2 -8.2771,28.8 -9.9674,34.66667 -1.6904,5.86667 -4.7264,16.66667 -6.7468,24 -2.0203,7.33333 -3.9524,14.08333 -4.2934,15 -1.4124,3.79593 3.349,0.95577 20.0475,-11.95844 z"
       id="path845" />
  </g>
  <g
     inkscape:groupmode="layer"
     id="layer4"
     inkscape:label="Image 4">
    <path
       style="fill:#000000;fill-opacity:1;stroke:#000000;stroke-width:0;stroke-linecap:round;stroke-linejoin:round"
       d="m 344.13447,16.714824 c -13.77669,2.681596 -15.4339,20.580223 -20.71618,30.996742 -26.62281,71.456954 -48.86715,144.674794 -75.39013,216.024484 -67.49663,5.42867 -136.67382,9.82837 -204.108054,20.97979 -9.419004,0.6552 -20.635524,12.02141 -11.169525,20.32148 34.333769,32.39222 75.362779,56.61752 113.614499,83.99525 16.34967,11.84274 34.70259,22.53689 49.79364,35.2543 -15.48033,56.14416 -33.90014,111.56166 -49.37825,167.75961 -6.82623,27.08819 -17.07796,53.63862 -21.19366,81.25072 -0.29388,14.5491 19.55478,24.90767 30.30023,13.87575 67.24674,-47.35119 130.83483,-100.26744 199.23904,-145.61851 68.68091,48.53634 133.75248,104.00776 210.71512,139.35434 7.57651,3.52496 22.94098,8.30894 25.14016,-3.87536 2.01484,-21.1426 -7.45149,-41.59101 -12.33666,-61.83626 -19.28724,-63.63429 -43.54754,-126.19433 -66.3482,-188.21664 31.46282,-30.31243 67.07446,-56.11328 100.30328,-84.47183 18.15529,-16.29919 39.57976,-29.68615 54.80333,-48.89708 3.77894,-8.67877 0.9594,-23.12369 -10.96315,-22.57747 C 587.72004,262.95286 517.90028,264.25836 449.24331,259.82191 422.0843,185.13144 395.63089,110.0986 365.43026,36.57522 361.56065,27.549478 355.23036,16.93679 344.13447,16.714824 Z m 3.45511,44.742156 c 27.44586,67.04875 49.5273,136.33869 78.51661,202.80242 4.74199,13.49875 18.11303,21.47837 32.18495,20.65546 57.24527,3.70013 114.64343,3.47867 171.76042,7.88546 -46.04194,41.18186 -96.46927,78.62929 -143.01903,119.7904 -2.085,12.13462 4.39477,25.08963 7.35023,37.1634 22.7119,67.29822 49.74438,133.34858 67.27102,202.20036 -67.24174,-36.71914 -127.08297,-84.75235 -190.83094,-126.90444 -10.39422,-7.95006 -25.59004,-12.53689 -36.35984,-2.45071 -60.7302,42.43618 -118.8868,88.41698 -178.39929,132.51492 20.00293,-72.63847 41.67013,-145.29616 65.83225,-216.40912 5.4261,-9.70474 9.4051,-24.66577 -2.45169,-31.51236 C 170.6665,374.7554 121.82248,341.83992 75.36487,306.35745 133.6901,295.58343 194.14183,293.80576 253.4496,287.09147 c 10.66163,-2.04443 22.10618,-7.44477 22.8613,-19.75813 22.89334,-69.03128 46.25243,-137.91741 71.05452,-206.33894 z"
       id="path881" />
  </g>
</svg>
