<?xml version="1.0" encoding="UTF-8" standalone="no"?>
<svg
   xmlns:dc="http://purl.org/dc/elements/1.1/"
   xmlns:cc="http://creativecommons.org/ns#"
   xmlns:rdf="http://www.w3.org/1999/02/22-rdf-syntax-ns#"
   xmlns:svg="http://www.w3.org/2000/svg"
   xmlns="http://www.w3.org/2000/svg"
   xmlns:sodipodi="http://sodipodi.sourceforge.net/DTD/sodipodi-0.dtd"
   xmlns:inkscape="http://www.inkscape.org/namespaces/inkscape"
   version="1.1"
   id="svg833"
   width="96"
   height="96"
   viewBox="0 0 96 96"
   sodipodi:docname="sonota.svg"
   inkscape:version="1.0.1 (3bc2e813f5, 2020-09-07)">
  <metadata
     id="metadata839">
    <rdf:RDF>
      <cc:Work
         rdf:about="">
        <dc:format>image/svg+xml</dc:format>
        <dc:type
           rdf:resource="http://purl.org/dc/dcmitype/StillImage" />
        <dc:title />
      </cc:Work>
    </rdf:RDF>
  </metadata>
  <defs
     id="defs837" />
  <sodipodi:namedview
     pagecolor="#ffffff"
     bordercolor="#666666"
     borderopacity="1"
     objecttolerance="10"
     gridtolerance="10"
     guidetolerance="10"
     inkscape:pageopacity="0"
     inkscape:pageshadow="2"
     inkscape:window-width="1280"
     inkscape:window-height="971"
     id="namedview835"
     showgrid="false"
     showguides="true"
     inkscape:guide-bbox="true"
     inkscape:zoom="3.234375"
     inkscape:cx="-11.298389"
     inkscape:cy="58.133597"
     inkscape:window-x="-8"
     inkscape:window-y="-8"
     inkscape:window-maximized="1"
     inkscape:current-layer="layer3"
     inkscape:document-rotation="0" />
  <g
     inkscape:groupmode="layer"
     inkscape:label="Image"
     id="g841"
     style="display:inline">
    <path
       style="fill:#000000;stroke-width:1"
       d="M 39.210821,87.916074 C 36.512489,87.656551 34.559615,87.203136 26.30123,84.918743 23.503175,84.144759 20.367174,83.408256 19.332339,83.282071 16.013929,82.877427 13.618854,81.970941 12.49938,80.69593 11.247418,79.270023 11.056852,78.77232 10.207972,74.711405 9.6151366,71.87537 9.5708457,71.124653 9.864821,68.895072 c 0.409194,-3.103427 0.915703,-4.651174 3.101962,-9.478701 2.021933,-4.464678 3.267794,-6.342812 7.36412,-11.101411 4.207069,-4.887245 8.414109,-8.319661 12.477141,-10.179779 2.56783,-1.17559 8.208541,-2.353834 11.284883,-2.35721 3.379603,-0.0037 8.763981,0.802356 10.450233,1.564442 1.147665,0.518678 4.828071,2.607386 8.618394,4.89112 1.838022,1.10744 5.640861,5.237677 7.856717,8.533126 2.562803,3.81144 3.647792,5.015248 5.436438,6.031808 2.078979,1.181568 3.802099,2.883901 4.704829,4.64808 0.954013,1.864391 4.611283,16.440244 4.611283,18.378013 0,1.527136 -0.658627,3.406835 -1.532205,4.372851 -2.322723,2.568512 -7.767292,2.740208 -17.027795,0.53698 -5.569267,-1.325021 -6.499734,-1.276343 -11.599091,0.606848 -6.332797,2.3387 -11.090333,3.0856 -16.400909,2.574835 z m 9.708068,-1.775418 c 1.291436,-0.265689 4.099436,-1.140281 6.24,-1.943539 5.368508,-2.01456 6.498332,-2.065293 12.691932,-0.56992 4.276685,1.032554 5.51106,1.202378 8.96,1.232704 3.45577,0.0304 4.170163,-0.0541 5.250679,-0.620986 1.550451,-0.813427 2.429321,-2.38224 2.429321,-4.336416 0,-1.486489 -3.103721,-14.647673 -4.039625,-17.129849 -0.679562,-1.802304 -2.161082,-3.522899 -3.716778,-4.316557 -2.02711,-1.034154 -4.288029,-3.358515 -6.668416,-6.855533 -2.925017,-4.297139 -6.276361,-7.706765 -9.099699,-9.257952 -1.229517,-0.675517 -3.262224,-1.857709 -4.517133,-2.627094 -3.132717,-1.920669 -5.699561,-2.459133 -11.798349,-2.475005 -4.032646,-0.0105 -5.229805,0.104646 -7.488541,0.72024 -3.977017,1.083898 -7.443886,3.007158 -11.12506,6.171677 -2.126613,1.828141 -7.190271,7.649241 -9.01426,10.362646 -3.013047,4.482272 -6.101155,12.517635 -6.210527,16.16 -0.06122,2.038672 1.246725,7.30104 2.160289,8.691699 0.914768,1.39249 3.142073,2.347495 6.274428,2.690295 1.124019,0.123011 4.779671,0.980518 8.123671,1.905574 6.383684,1.765927 10.023623,2.613978 12.16,2.833091 2.059584,0.211239 6.849325,-0.112774 9.388068,-0.635075 z M 34.890821,56.723255 c -0.616,-0.276032 -1.433411,-0.992333 -1.816473,-1.591783 -0.692935,-1.084374 -0.693303,-1.093939 -0.07234,-1.883366 0.343274,-0.436403 1.423313,-1.184458 2.400084,-1.662349 1.499539,-0.733658 2.20806,-0.872208 4.552339,-0.890208 3.239385,-0.02486 4.53528,0.491741 5.188329,2.068346 0.356506,0.860684 0.34936,1.148905 -0.04601,1.855091 -1.064089,1.900633 -7.636336,3.255702 -10.205933,2.104269 z m 6.020026,-1.248301 c 3.04505,-0.810544 4.028013,-1.918035 2.539974,-2.861754 -1.872518,-1.187555 -6.094163,-0.856157 -8.382214,0.658003 -0.709197,0.469322 -1.111325,0.912688 -0.893616,0.985258 0.217705,0.07257 0.39583,0.313939 0.39583,0.536378 0,1.09902 3.39969,1.464787 6.340026,0.682115 z m -9.646692,-7.753216 c -0.684707,-0.684704 0.378976,-2.346666 1.501908,-2.346666 0.890477,0 0.989145,0.925059 0.189462,1.776282 -0.736688,0.784169 -1.290741,0.971014 -1.69137,0.570384 z m 12.546986,-0.31448 c -0.304553,-0.366963 -0.251116,-0.639338 0.260336,-1.326963 0.828711,-1.114157 1.889194,-1.299412 2.180701,-0.380944 0.398083,1.25424 -1.636265,2.677603 -2.441037,1.707907 z m 24.99968,-8.646131 c -1.178512,-0.401232 -2.559449,-1.115623 -2.55366,-1.321069 0.03508,-1.245162 0.724272,-4.748587 0.999334,-5.08002 0.436051,-0.525407 2.836877,-0.555884 3.946941,-0.0501 1.021254,0.465314 1.262989,1.370014 0.977219,3.657254 -0.314483,2.517044 -1.440643,3.450746 -3.369834,2.79394 z m 1.728551,-1.946055 c 0.390089,-1.272419 0.315491,-3.005704 -0.141808,-3.294966 -1.35177,-0.855052 -2.160954,-0.177221 -2.420042,2.027203 l -0.214816,1.827763 h 1.302493 c 0.961734,0 1.347408,-0.146509 1.474173,-0.56 z m -1.495543,-5.429876 c -1.676662,-0.253266 -1.838614,-1.02462 -1.199405,-5.712617 0.875943,-6.4242 0.763872,-6.136011 2.723095,-7.002472 1.38863,-0.614118 1.737862,-0.930736 1.914704,-1.735886 0.300323,-1.367358 -0.05111,-2.241785 -0.996327,-2.479018 -0.948444,-0.238044 -2.291228,0.301147 -2.57198,1.03277 -0.109418,0.285141 0.05026,0.940306 0.354841,1.455922 l 0.553786,0.937484 -1.15553,1.058424 c -1.992809,1.825343 -4.067008,1.239125 -5.536441,-1.564731 -0.806151,-1.53823 -0.659444,-4.301573 0.316464,-5.960879 1.863872,-3.1690854 4.126886,-4.2791205 8.723785,-4.2791205 3.669882,0 5.145722,0.5571916 6.803789,2.5687174 1.625914,1.9725121 2.240058,5.6331991 1.381507,8.2346321 -0.483328,1.464497 -2.640806,3.452388 -5.087206,4.687326 l -1.915613,0.966999 -0.671238,2.915332 c -0.369181,1.603433 -0.671239,3.235656 -0.671239,3.627163 0,1.332886 -0.638156,1.601734 -2.966992,1.249954 z m 1.644874,-2.570124 c 0.166403,-0.66 0.54256,-2.319532 0.835907,-3.687848 l 0.533357,-2.487849 2.167187,-1.091377 c 3.902566,-1.965301 5.145667,-3.50053 5.145667,-6.354896 0,-4.334028 -2.514797,-6.7435761 -7.04,-6.7453607 -3.986057,-0.00157 -6.409952,1.1837631 -7.647241,3.7396627 -0.887344,1.83301 -0.869968,3.683428 0.04724,5.03032 1.054887,1.549066 1.670912,1.849562 2.413667,1.177377 0.488628,-0.442199 0.581559,-0.860865 0.463594,-2.088534 -0.135981,-1.415182 -0.06766,-1.602683 0.872154,-2.393481 0.783264,-0.659075 1.361641,-0.858014 2.494512,-0.858014 2.123174,0 2.956073,0.860105 2.956073,3.052626 0,1.983278 -0.648003,2.965184 -2.511385,3.805453 -0.750288,0.338333 -1.348423,0.858168 -1.448727,1.259084 -0.371804,1.48608 -1.152064,8.276611 -0.982534,8.550915 0.09923,0.160557 0.454368,0.291922 0.789197,0.291922 0.436361,0 0.69447,-0.339868 0.911332,-1.2 z"
       id="path846" />
  </g>
  <g
     inkscape:groupmode="layer"
     id="layer1"
     inkscape:label="Image 1"
     style="display:inline;mix-blend-mode:multiply">
    <path
       style="fill:#e784a0;fill-opacity:1;stroke:#000000;stroke-width:0;stroke-linecap:round;stroke-linejoin:round;stroke-miterlimit:4;stroke-dasharray:none;stroke-opacity:1"
       d="m 40.090985,51.712119 c -2.180925,0.08262 -4.525308,0.59584 -6.114595,2.197966 -0.233476,0.445104 0.491672,0.662558 0.447707,1.142003 0.606555,0.91274 1.874753,0.952169 2.867283,1.022871 2.155246,0.0044 4.415083,-0.331837 6.283686,-1.46524 0.607569,-0.319899 1.009364,-1.156193 0.474607,-1.71973 -0.961844,-1.081371 -2.612521,-1.170465 -3.958688,-1.17787 z"
       id="path856" />
    <path
       style="fill:#e06270;fill-opacity:1;stroke:#000000;stroke-width:0;stroke-linecap:round;stroke-linejoin:round;stroke-miterlimit:4;stroke-dasharray:none;stroke-opacity:1"
       d="m 72.157741,7.549752 c -2.916891,-0.076428 -6.151742,0.7652943 -7.80294,3.373702 -1.608734,2.247562 -1.80676,5.607919 0.270716,7.641536 0.681537,1.067774 2.231086,1.552583 3.151237,0.47909 1.361871,-1.028918 0.469795,-2.905432 1.040164,-4.208054 1.020568,-0.834156 3.088343,-1.331524 3.912145,-0.03843 0.34265,1.460896 0.235311,3.401854 -1.383909,4.046112 -1.141586,0.61954 -2.383093,1.424711 -2.417644,2.879351 -0.366571,2.683463 -1.02354,5.417623 -0.758774,8.130873 0.376023,1.61824 2.954233,1.460246 3.160204,-0.198126 0.617261,-2.087752 1.153691,-4.200987 1.605508,-6.330655 2.689715,-1.570641 6.3187,-2.919417 7.127005,-6.292226 0.645429,-3.2071 -0.300526,-7.1848234 -3.518881,-8.6462591 C 75.186889,7.7240426 73.652233,7.5255449 72.157741,7.549752 Z"
       id="path862" />
    <path
       style="fill:#e06270;fill-opacity:1;stroke:#000000;stroke-width:0;stroke-linecap:round;stroke-linejoin:round;stroke-miterlimit:4;stroke-dasharray:none;stroke-opacity:1"
       d="m 69.467234,32.242553 c -2.07115,0.05346 -2.38877,2.538159 -2.552322,4.131109 -0.558582,1.415459 0.882848,2.249839 2.129595,1.891681 1.469697,0.231668 2.801271,-0.982236 2.643965,-2.476581 0.165129,-1.5334 -0.253972,-3.639013 -2.221238,-3.546209 z"
       id="path864" />
    <path
       style="fill:#ffffff;fill-opacity:1;stroke:#000000;stroke-width:0;stroke-linecap:round;stroke-linejoin:round;stroke-miterlimit:4;stroke-dasharray:none;stroke-opacity:1"
       d="m 42.636036,36.328969 c -8.18055,0.05014 -15.621193,4.752226 -20.75366,10.871583 -3.990698,4.087088 -7.345808,8.805927 -9.380463,14.171969 -1.599066,4.106145 -3.4678589,8.597804 -2.077023,13.041512 0.523536,3.176014 1.831418,6.94665 5.377208,7.745852 7.911763,1.847687 15.767979,4.016371 23.746376,5.541065 5.528738,0.23552 11.01735,-0.798275 16.180555,-2.753624 3.444659,-1.374073 7.310365,-1.713533 10.91512,-0.625774 4.720655,1.151054 9.695332,1.718406 14.538988,1.178311 3.243004,-0.700785 4.845947,-4.390672 3.950482,-7.415461 C 83.859094,72.493075 82.87086,66.760478 80.742316,61.416529 79.199496,58.038477 75.159809,57.074806 73.160391,54.03727 69.55519,49.484664 66.23769,44.40709 61.060551,41.417737 57.095537,38.851047 52.762162,36.343884 47.874355,36.458793 46.129944,36.373169 44.382806,36.309669 42.636036,36.328969 Z m 2.582728,9.957125 c -0.559855,0.751554 -0.380389,0.100745 0,0 z m -5.503623,5.449879 c 1.710735,0.02865 4.304572,-0.315621 4.698067,1.958334 -0.836879,1.714796 -3.243879,1.960352 -4.958333,2.270531 -1.971423,0.247127 -5.12157,0.40398 -5.828502,-1.951691 1.545816,-1.680732 3.845368,-2.389473 6.088768,-2.277174 z"
       id="path866" />
  </g>
  <g
     inkscape:groupmode="layer"
     id="layer3"
     inkscape:label="Image 2">
    <path
       style="fill:#000000;fill-opacity:1;stroke:#000000;stroke-width:0;stroke-linecap:round;stroke-linejoin:round"
       d="m 44.052814,35.603857 c -3.364831,0.0977 -6.712608,0.758172 -9.904479,1.814464 -4.83722,1.757453 -8.802465,5.250035 -12.312781,8.91359 -3.319233,3.588133 -6.487682,7.419728 -8.532393,11.898635 -1.641804,3.520734 -3.3436239,7.129116 -3.693194,11.052047 -0.4153673,2.831637 0.434337,5.633136 1.067616,8.364631 0.443324,2.060636 1.882006,3.884518 3.863432,4.65325 2.761387,1.130213 5.79485,1.210577 8.638095,2.037896 5.443743,1.286622 10.759716,3.219239 16.344976,3.828159 3.825862,0.203439 7.704484,-0.01266 11.395566,-1.106501 2.998675,-0.761142 5.825103,-2.068371 8.830847,-2.789632 2.442854,-0.475774 4.908835,0.08342 7.297566,0.643442 4.126712,0.86925 8.342635,1.856739 12.587464,1.462293 2.118496,-0.233609 4.48843,-1.055868 5.45339,-3.126898 0.734598,-1.505716 1.142101,-3.241947 0.691308,-4.895091 -1.057601,-5.306736 -2.374821,-10.567223 -3.968722,-15.738464 -0.824657,-2.927731 -3.392071,-4.882897 -5.868808,-6.406308 -2.502686,-1.742557 -3.891882,-4.562957 -5.744353,-6.902981 -1.890833,-2.458318 -3.882138,-4.908544 -6.36194,-6.798268 -2.73128,-1.83762 -5.606789,-3.461799 -8.522322,-4.986935 -2.595433,-1.267668 -5.533044,-1.475073 -8.358363,-1.808578 -0.965115,-0.08291 -1.9342,-0.123898 -2.902905,-0.108751 z m 0.09095,1.839289 c 3.735461,0.07573 7.652713,0.0049 11.047049,1.834165 2.345907,1.304529 4.682244,2.637927 6.946287,4.080627 3.578386,2.541419 6.227624,6.150531 8.731751,9.711749 1.732973,2.370589 3.805343,4.561374 6.416914,5.964128 1.704633,1.207478 2.87098,3.078616 3.338643,5.104523 1.407994,4.958612 2.650278,9.957359 3.543664,15.036383 0.465102,2.063115 -0.704998,4.366301 -2.724852,5.075179 -1.753554,0.607366 -3.630968,0.35183 -5.45032,0.387069 -4.384229,0.02973 -8.530593,-1.552577 -12.837507,-2.160652 -2.04801,-0.327013 -4.097525,0.146261 -6.025143,0.819734 -3.718071,1.20659 -7.369269,2.792128 -11.305399,3.067056 -2.291139,0.175155 -4.622372,0.329113 -6.930586,0.129167 -7.087712,-1.237253 -13.879352,-3.760538 -20.992003,-4.913546 -1.853285,-0.322183 -3.94796,-0.953432 -4.945707,-2.704504 -1.032863,-2.39993 -1.580633,-4.964267 -1.908249,-7.534574 -0.05326,-2.562478 0.852237,-5.030987 1.652691,-7.42943 1.574602,-4.301789 3.570993,-8.543834 6.581819,-12.037674 3.33835,-4.030381 6.799729,-8.184633 11.389839,-10.86846 3.442217,-2.06204 7.379726,-3.488214 11.42558,-3.518667 0.68584,-0.02764 1.357439,-0.0407 2.045529,-0.04227 z"
       id="path908" />
    <path
       style="fill:#000000;fill-opacity:1;stroke:#000000;stroke-width:0;stroke-linecap:round;stroke-linejoin:round"
       d="m 44.216808,35.431887 c -4.759096,0.169232 -9.611001,1.160241 -13.781401,3.536533 -5.237743,3.167797 -9.462086,7.752286 -13.205384,12.536326 -3.170893,4.028897 -5.275597,8.776007 -6.924805,13.597035 -0.8790722,2.89648 -1.3338349,5.996909 -0.6107528,8.981072 0.5675868,2.574915 0.8785838,5.532181 3.0502918,7.327448 1.843202,1.578399 4.407226,1.796041 6.6828,2.323518 6.775669,1.215241 13.26596,3.807336 20.125001,4.611414 4.276954,0.182394 8.619588,-0.11247 12.700917,-1.489928 2.87503,-0.793637 5.653466,-2.095004 8.590145,-2.523659 3.923039,-0.109494 7.679388,1.284413 11.53442,1.842994 2.796443,0.433654 5.6618,0.4442 8.475735,0.220551 2.643062,-0.504099 4.92971,-2.70867 5.177044,-5.444585 C 86.281357,78.43041 85.381546,75.972504 84.9319,73.521352 83.931142,69.473967 83.031194,65.371569 81.532328,61.473856 80.36919,58.704421 77.6309,57.236788 75.383777,55.473251 72.672208,53.033763 70.997879,49.703676 68.576148,47.00362 66.420365,44.335398 63.833912,42.008992 60.80657,40.370204 57.600873,38.548924 54.37958,36.42059 50.625624,36.001633 48.506182,35.673476 46.364912,35.413754 44.216808,35.431887 Z m 0.179045,2.210748 c 3.908589,0.08676 8.082313,0.110126 11.49366,2.276872 3.518095,1.977406 7.233775,3.852057 9.893117,6.981583 3.633,3.895076 6.104311,8.938053 10.698067,11.879528 2.034682,1.178177 3.384368,3.134468 3.917948,5.404403 1.45472,5.084097 2.790346,10.216839 3.59896,15.441612 0.338908,2.257627 -1.44902,4.507539 -3.731883,4.658817 -3.053977,0.301896 -6.151091,0.127068 -9.175626,-0.385744 -3.487481,-0.57563 -6.932455,-1.871514 -10.508251,-1.639015 -3.088337,0.489224 -5.975393,1.807184 -8.972123,2.658908 -4.162318,1.386444 -8.593653,1.62788 -12.942733,1.332336 -7.192818,-1.3842 -14.178455,-3.765842 -21.410024,-5.021738 -1.997561,-0.361743 -4.112446,-1.548525 -4.580614,-3.662349 -1.151352,-3.323718 -1.957585,-6.936262 -0.804948,-10.381326 1.368672,-4.676995 3.303604,-9.25024 6.08514,-13.268222 3.949039,-5.067771 8.15569,-10.265019 13.894021,-13.337863 3.443837,-1.94404 7.380868,-2.966801 11.342995,-2.923913 0.400733,-0.0089 0.801466,-0.01323 1.202294,-0.01389 z"
       id="path910" />
    <path
       style="fill:#000000;fill-opacity:1;stroke:#000000;stroke-width:0;stroke-linecap:round;stroke-linejoin:round"
       d="m 45.484924,44.980196 c -0.958462,0.163509 -1.995724,1.077873 -1.947162,2.106582 0.182317,0.963886 1.458624,1.030719 2.045592,0.391304 0.914132,-0.480506 1.313852,-2.19842 0.06975,-2.491244 -0.05575,-0.0072 -0.112048,-0.0089 -0.168177,-0.0066 z"
       id="path912" />
    <path
       style="fill:#000000;fill-opacity:1;stroke:#000000;stroke-width:0;stroke-linecap:round;stroke-linejoin:round"
       d="m 45.520854,44.809302 c -1.072328,0.161514 -2.163087,1.15888 -2.179952,2.279589 0.208421,0.988745 1.459986,1.312938 2.190822,0.65459 0.983487,-0.514942 1.635298,-2.203846 0.411835,-2.832428 -0.130572,-0.06538 -0.276023,-0.105115 -0.422705,-0.101751 z"
       id="path914" />
    <path
       style="fill:#000000;fill-opacity:1;stroke:#000000;stroke-width:0;stroke-linecap:round;stroke-linejoin:round"
       d="m 32.720733,45.195474 c -1.133105,0.109512 -2.428369,1.675043 -1.540459,2.708333 0.808187,0.572719 1.780284,-0.38631 2.198672,-1.049215 0.438451,-0.641443 0.284031,-1.689124 -0.658213,-1.659118 z"
       id="path916" />
    <path
       style="fill:#000000;fill-opacity:1;stroke:#000000;stroke-width:0;stroke-linecap:round;stroke-linejoin:round"
       d="m 32.704429,45.007068 c -1.024306,0.168834 -2.075141,1.182095 -1.991244,2.271135 0.09446,0.867481 1.183716,1.325302 1.821558,0.67663 0.751828,-0.547983 1.796804,-1.751642 0.924517,-2.63919 -0.194433,-0.202521 -0.472786,-0.322718 -0.754831,-0.308575 z"
       id="path918" />
    <path
       style="fill:#000000;fill-opacity:1;stroke:#000000;stroke-width:0;stroke-linecap:round;stroke-linejoin:round"
       d="m 39.316144,50.542394 c -2.5572,-0.05446 -5.161312,1.088207 -6.784722,3.067633 -0.398605,0.931433 0.578304,1.798498 1.120471,2.452596 1.865376,1.742225 4.662385,1.323012 6.952294,0.917271 1.709709,-0.435759 3.773359,-0.872398 4.746679,-2.498792 0.652858,-1.593787 -0.797149,-3.465495 -2.407307,-3.69052 -1.191297,-0.237947 -2.417698,-0.237372 -3.627415,-0.248188 z m 0.969203,1.586956 c 1.22703,0.05422 2.844179,0.100529 3.612319,1.230375 0.05533,0.898286 -1.142034,1.194686 -1.808583,1.505162 -2.145806,0.785539 -4.528415,1.011263 -6.764787,0.483364 -0.59558,-0.148298 -0.58592,-0.876458 -0.944142,-1.245169 1.573564,-1.450068 3.8158,-1.916892 5.905193,-1.973732 z"
       id="path920" />
    <path
       style="fill:#000000;fill-opacity:1;stroke:#000000;stroke-width:0;stroke-linecap:round;stroke-linejoin:round"
       d="m 39.482207,50.376633 c -2.72126,-0.08715 -5.540502,1.121844 -7.161836,3.334541 -0.236369,1.121853 0.813424,2.05696 1.559481,2.751208 2.218488,1.679711 5.216904,1.009427 7.708635,0.450785 1.603702,-0.462605 3.671391,-1.143885 4.068539,-2.988829 0.196417,-1.885624 -1.621786,-3.35963 -3.397041,-3.422705 -0.920437,-0.119844 -1.850916,-0.130742 -2.777778,-0.125 z m 0.781099,2.012983 c 1.127684,0.06613 2.586143,-7.7e-5 3.358997,0.961051 0.0293,0.872212 -1.170419,1.062313 -1.790155,1.354472 -2.120144,0.668785 -4.497637,1.130077 -6.641306,0.290455 -0.333696,-0.352253 -0.818349,-0.994879 -0.09843,-1.20471 1.489369,-1.064175 3.389757,-1.385962 5.170894,-1.401268 z"
       id="path922" />
    <path
       style="fill:#000000;fill-opacity:1;stroke:#000000;stroke-width:0;stroke-linecap:round;stroke-linejoin:round"
       d="m 72.193861,6.9557392 c -2.886193,-0.016724 -6.143722,0.5461946 -7.971454,3.0203833 -1.449319,1.6186015 -1.935642,3.8548975 -1.641302,5.9710405 0.123678,1.80302 1.4436,3.507555 3.13359,4.112441 1.70907,0.390618 3.25262,-0.998078 4.259058,-2.172403 -0.166202,-0.782723 -1.213397,-1.603592 -0.773249,-2.451087 0.70142,-0.994637 2.854039,-1.268233 3.121075,0.201087 0.140366,0.911629 -0.03281,2.036085 -1.006945,2.40157 -1.149007,0.639913 -2.67355,1.171488 -2.875905,2.680555 -0.541054,2.849158 -0.989104,5.738905 -1.110206,8.639493 -0.09295,0.992212 0.456736,2.09983 1.552838,2.182669 0.959186,0.126965 2.240789,0.455844 3.004831,-0.313103 0.529015,-1.154366 0.416408,-2.502974 0.78758,-3.710243 0.253794,-1.255094 0.547052,-2.501696 0.841345,-3.747789 2.699016,-1.471017 5.936359,-2.961393 7.065052,-6.054207 0.97147,-3.432309 -0.126671,-7.673381 -3.197902,-9.6954914 C 75.837638,7.0769073 73.959181,6.94178 72.193861,6.9557392 Z m -0.0015,1.7376208 c 2.348093,-0.1048731 5.02546,0.7153223 6.136172,2.958635 1.295054,2.480551 1.229886,5.927472 -1.103563,7.756039 -1.592021,1.382645 -3.657266,2.093746 -5.371377,3.232488 -0.588361,2.33282 -0.880215,4.771034 -1.733393,7.013889 -0.341303,0.350255 -1.067976,0.155128 -0.892512,-0.430254 0.158176,-2.738661 0.372466,-5.487869 1.070048,-8.147343 1.047865,-1.234585 3.15596,-1.55479 3.583937,-3.337862 0.399942,-1.466918 0.438608,-3.498427 -0.966486,-4.443841 -1.744411,-0.91531 -4.369008,-0.405695 -5.337862,1.392512 -0.423055,1.092259 0.08687,2.386154 -0.429348,3.417271 -0.32082,0.446995 -0.940382,0.541642 -1.285024,0.07337 -1.54004,-1.276426 -2.032376,-3.511739 -1.209234,-5.325483 0.78614,-2.420428 3.233445,-3.8395585 5.667139,-4.0471787 0.611874,-0.07892 1.237578,-0.109576 1.871509,-0.1122413 z"
       id="path924" />
    <path
       style="fill:#000000;fill-opacity:1;stroke:#000000;stroke-width:0;stroke-linecap:round;stroke-linejoin:round"
       d="m 72.447787,6.8020556 c -2.989333,0.00394 -6.427831,0.4462772 -8.346619,3.0250604 -2.055817,2.515691 -2.602257,6.678937 -0.260567,9.190217 1.007669,1.273865 2.925126,1.653364 4.283514,0.711957 0.775825,-0.502803 1.544387,-1.119473 2.078804,-1.853865 -0.307669,-0.776499 -1.416609,-2.027333 -0.403985,-2.727053 0.752189,-0.35037 2.131511,-0.539024 2.3125,0.562802 0.230714,1.003361 -0.32476,1.990374 -1.266451,2.369372 -1.195866,0.528518 -2.436056,1.360771 -2.59466,2.783708 -0.56815,3.053426 -1.161597,6.161949 -1.033817,9.279287 0.203437,1.388276 1.739194,1.749345 2.925725,1.711957 0.912167,0.151815 1.985342,-0.240102 2.144324,-1.25785 0.462229,-2.215283 0.805841,-4.488493 1.402174,-6.658212 2.678807,-1.596471 6.029867,-3.060134 7.064612,-6.275062 C 81.70641,14.229661 80.62694,10.076876 77.594269,8.007406 76.110902,6.9388559 74.217965,6.7797792 72.447787,6.8020556 Z m -0.518116,2.0827295 c 2.074752,-0.00192 4.562523,0.402724 5.781099,2.2681159 1.711668,2.336027 1.767257,6.0236 -0.53593,8.00936 -1.569747,1.399161 -3.634272,2.0805 -5.307066,3.299818 -0.971718,2.276308 -0.949803,4.896093 -2.046195,7.125907 -0.5285,0.303235 -0.306928,-0.618226 -0.354771,-0.856583 0.202238,-2.50494 0.280825,-5.118276 1.106884,-7.527475 0.981368,-1.249592 2.906847,-1.648339 3.429046,-3.29831 0.451214,-1.530037 0.511126,-3.598348 -0.858997,-4.686292 -1.120823,-0.676435 -2.58875,-0.591263 -3.808273,-0.257246 -1.439006,0.503026 -2.284294,1.973743 -2.192935,3.46558 -0.02823,0.603472 0.128021,1.9245 -0.827295,1.76721 -1.784927,-1.095809 -2.296211,-3.626619 -1.366848,-5.457126 0.965525,-2.452257 3.637165,-3.7697112 6.15157,-3.8239734 0.270261,-0.018301 0.548174,-0.028205 0.829711,-0.028985 z"
       id="path926" />
    <path
       style="fill:#000000;fill-opacity:1;stroke:#000000;stroke-width:0;stroke-linecap:round;stroke-linejoin:round"
       d="m 68.858113,31.824701 c -0.862144,-0.08425 -1.990278,0.215478 -2.053744,1.251207 -0.251922,1.459215 -0.781955,2.947193 -0.667573,4.430254 0.770691,0.875448 2.020139,1.217171 3.113527,1.54378 1.257839,0.419958 2.465003,-0.511943 2.801026,-1.70471 0.457492,-1.341085 0.363675,-2.834492 0.201389,-4.220713 -0.546698,-1.269653 -2.22388,-1.302685 -3.394625,-1.299818 z m 0.659722,1.600845 c 1.109827,0.02514 1.082581,1.288981 1.006038,2.089674 -0.0394,0.634443 -0.03585,1.725681 -0.958937,1.613828 -0.525841,0.05986 -1.057785,0.0992 -1.586654,0.0619 0.221739,-1.226265 0.118461,-2.68006 0.967995,-3.66244 0.176764,-0.08489 0.376676,-0.115532 0.571558,-0.102959 z"
       id="path928" />
    <path
       style="fill:#000000;fill-opacity:1;stroke:#000000;stroke-width:0;stroke-linecap:round;stroke-linejoin:round"
       d="m 68.836373,31.746198 c -0.922702,-0.111357 -2.058771,0.199525 -2.194142,1.274759 -0.286529,1.408152 -0.75369,2.842739 -0.705012,4.283212 0.567691,1.252503 2.142986,1.560874 3.339372,1.911836 1.447291,0.398233 2.848998,-0.794709 3.038043,-2.21558 0.301045,-1.416878 0.47899,-3.031662 -0.127113,-4.385266 -0.735581,-1.038071 -2.257672,-0.812231 -3.351148,-0.868961 z m 0.705315,1.888285 c 1.005305,0.176372 0.80359,1.52798 0.741243,2.261172 -0.01496,0.565914 -0.301977,1.133918 -0.985205,1.040157 -0.353673,-0.02406 -1.279032,0.354043 -1.035326,-0.340278 0.217674,-0.985444 0.123429,-2.343667 1.063104,-2.950785 0.07051,-0.01694 0.14437,-0.01896 0.216184,-0.01027 z"
       id="path930" />
  </g>
</svg>
