<?xml version="1.0" encoding="UTF-8" standalone="no"?>
<svg
   xmlns:dc="http://purl.org/dc/elements/1.1/"
   xmlns:cc="http://creativecommons.org/ns#"
   xmlns:rdf="http://www.w3.org/1999/02/22-rdf-syntax-ns#"
   xmlns:svg="http://www.w3.org/2000/svg"
   xmlns="http://www.w3.org/2000/svg"
   xmlns:sodipodi="http://sodipodi.sourceforge.net/DTD/sodipodi-0.dtd"
   xmlns:inkscape="http://www.inkscape.org/namespaces/inkscape"
   inkscape:version="1.0 (4035a4fb49, 2020-05-01)"
   sodipodi:docname="らっこ.svg"
   viewBox="0 0 320 320"
   height="320"
   width="320"
   id="svg147"
   version="1.1">
  <metadata
     id="metadata153">
    <rdf:RDF>
      <cc:Work
         rdf:about="">
        <dc:format>image/svg+xml</dc:format>
        <dc:type
           rdf:resource="http://purl.org/dc/dcmitype/StillImage" />
        <dc:title></dc:title>
      </cc:Work>
    </rdf:RDF>
  </metadata>
  <defs
     id="defs151" />
  <sodipodi:namedview
     inkscape:current-layer="layer3"
     inkscape:window-maximized="1"
     inkscape:window-y="-8"
     inkscape:window-x="1432"
     inkscape:cy="123.29856"
     inkscape:cx="193.1698"
     inkscape:zoom="2.309375"
     showgrid="false"
     id="namedview149"
     inkscape:window-height="971"
     inkscape:window-width="1280"
     inkscape:pageshadow="2"
     inkscape:pageopacity="0"
     guidetolerance="10"
     gridtolerance="10"
     objecttolerance="10"
     borderopacity="1"
     bordercolor="#666666"
     pagecolor="#ffffff" />
  <g
     inkscape:label="iro"
     id="layer3"
     inkscape:groupmode="layer">
    <path
       id="path164"
       d="m 210.78633,20.265894 c -4.79481,3.706114 -7.85199,9.216447 -8.80159,15.163227 -2.37606,1.17226 -5.23469,2.405247 -7.56411,4.0064 -6.85392,4.400747 -13.1832,9.706102 -18.79584,15.592721 -2.04062,3.248642 -4.37118,6.397954 -5.95951,9.951827 -2.44309,4.841072 -4.93906,9.742826 -6.19966,15.032102 -1.00235,1.923498 -4.1937,3.449357 -2.75372,5.942997 0.98528,1.619096 -2.33508,2.877047 -0.70873,4.577979 2.72195,2.293608 -1.43054,5.657747 0.91425,8.112312 0.73074,1.801291 0.76997,3.809351 1.80987,5.504911 0.71106,5.10922 3.35997,9.85709 6.32443,14.01048 0.89229,1.21579 2.71415,2.93141 3.20281,3.65782 -1.31579,-0.0958 -2.45337,1.12199 -3.82527,1.38616 -7.23586,4.27962 -12.78503,10.83374 -18.71805,16.67994 -6.02553,6.55057 -10.98278,14.20888 -14.26318,22.49124 -1.01197,3.16001 -1.97526,6.53065 -1.92151,9.82409 0.85739,0.7523 -0.63042,2.14526 -0.19537,3.27723 0.51084,4.17986 2.4486,8.43557 5.60216,11.26353 1.48763,1.25985 4.89153,3.40806 5.87873,0.48545 0.30615,-1.014 0.14693,-2.76469 1.54008,-1.71431 1.88911,0.38988 1.57591,-2.16598 2.3317,-2.96008 1.1886,1.24185 3.36689,1.07056 3.56648,-0.88464 0.64366,-3.3977 0.32707,-6.95357 1.7363,-10.2089 1.22201,-4.25672 2.0709,-8.71521 3.5005,-12.85182 2.12755,1.26556 3.97139,-1.80796 6.22801,-1.60521 4.28951,-0.5935 9.00255,-0.33507 12.64049,2.37308 6.2559,4.07815 12.94539,8.25015 17.01699,14.7235 2.35361,4.78549 2.09295,10.42362 1.62297,15.58018 -0.75774,0.9961 -1.76383,2.73629 -1.16881,3.48105 -1.83087,0.0963 -4.67009,-1.68457 -5.84573,0.34083 -0.41453,1.423 2.07394,2.09959 1.77266,3.03705 -2.0159,0.83196 -1.21602,3.37798 0.58525,3.9183 1.5486,0.57912 -1.40294,1.83501 -0.93539,3.05988 0.79124,2.39837 4.10234,1.44351 6.01574,1.72953 4.65607,0.0377 9.16337,1.2093 13.72462,1.94435 7.32726,-0.81102 14.74601,-2.24154 21.11215,-6.17388 7.66399,-4.44699 15.49292,-9.38086 20.76624,-16.65596 5.5797,-9.39001 7.62935,-20.39574 11.8988,-30.30845 -0.27507,-1.09387 2.05026,-0.0161 2.87708,-0.47131 2.85579,-0.69873 6.61756,-0.40568 8.67642,-2.82815 1.82786,-2.30869 4.64493,-3.90691 7.30801,-5.16323 1.39795,-0.13305 1.46065,-1.56319 1.63143,-2.5296 0.98999,-1.05088 2.90498,-2.379 2.00102,-3.90815 1.47268,-0.53407 3.17495,-1.38308 2.96431,-3.19689 2.4565,-1.46421 2.35322,-4.60007 3.68704,-6.86906 3.05994,-7.15202 5.88406,-14.50116 7.95101,-21.96635 -0.0707,-8.393698 0.33207,-16.981407 -2.45081,-25.043142 0.92361,-1.465163 3.83752,-2.012809 4.74206,-4.051932 1.72231,-2.89351 2.67518,-6.469291 2.21075,-9.775879 -5.94454,-2.243728 -12.42471,-3.915912 -17.46448,-7.960926 -10.22908,-12.225225 -22.94042,-22.982736 -38.3053,-27.986237 -6.88131,-2.796853 -14.35816,-4.157727 -21.7742,-3.756828 -2.84001,1.564794 -5.75475,-0.997251 -8.1343,-2.372293 -2.7609,-1.718809 -4.65375,-4.578943 -7.4408,-6.175575 l -0.39623,0.174649 z m 4.22276,48.586772 c 3.0256,0.322079 6.27343,2.835045 5.2884,6.20264 -0.19076,4.665323 -7.17621,5.659921 -9.27097,1.862313 -2.02408,-3.143669 0.0317,-7.93794 3.98257,-8.064953 z m 38.49797,19.910353 c 3.66598,-0.297903 6.28302,4.268579 4.47565,7.268269 -2.08112,2.33914 -6.62204,2.949712 -8.04212,-0.395808 -0.64492,-2.3916 -0.46842,-5.366426 2.01962,-6.604363 0.46484,-0.274602 1.02268,-0.290801 1.54685,-0.268098 z m -28.114,0.652908 c 2.09114,0.368043 4.67816,1.129145 5.81106,2.981227 -1.25211,2.848541 -3.75376,5.017366 -6.66357,6.033489 -0.35724,1.01657 -1.04253,-0.0572 -1.73883,0.116711 0.66428,-2.271701 -0.40629,-4.830259 0.70671,-7.108299 0.34424,-0.833074 0.6042,-2.413848 1.88463,-2.023128 z"
       style="fill:#e8d7cf;fill-opacity:1;stroke-width:0.433018" />
    <path
       id="path166"
       d="m 109.98879,145.38345 c -1.92591,0.56152 -3.87842,1.13279 -5.80852,1.54093 -4.945425,4.19155 -8.091627,10.09988 -11.90261,15.27253 -2.868868,4.75584 -6.857284,9.03106 -8.590455,14.37226 -0.227169,1.58188 0.459445,4.88321 2.651389,4.02572 -0.794886,1.37397 -2.490046,2.41638 -3.26032,4.00203 -1.862828,2.04689 -2.465108,5.33823 -2.746955,7.55497 -2.119677,-1.55547 -3.412057,1.86005 -4.023175,3.40494 -2.244516,7.53884 -1.183593,15.64059 0.198937,23.24309 1.474395,6.52301 4.517707,12.6519 8.151032,18.22426 0.629088,0.71535 1.292566,1.65361 2.341846,1.69232 -3.94085,2.19222 -7.5435,5.23566 -11.804804,6.74138 -4.217483,0.98726 -8.485422,-0.71047 -11.426092,-3.75857 -7.889233,-7.31314 -15.883963,-15.44966 -19.369747,-25.87185 -2.186201,-7.62709 -3.070489,-15.59569 -5.37889,-23.17066 -1.881004,-1.46657 -3.597595,1.54392 -4.986468,2.53129 -4.229006,4.51392 -9.164319,8.29133 -14.219384,11.79381 -2.257234,3.27506 -2.226012,7.58263 -2.747871,11.40713 -0.74947,10.55674 1.021019,22.25673 8.879467,29.99848 11.09908,10.81524 26.371288,17.02946 41.743066,18.11485 10.170938,0.2347 18.343206,-6.89252 26.162889,-12.43657 2.449182,-1.95121 5.793099,-2.73978 8.753335,-2.7766 3.69039,1.32664 6.13088,4.56391 8.87613,7.07964 0.53252,0.71342 -1.79548,2.09083 -2.51487,2.77265 -7.56292,6.44714 -16.769987,10.3708 -25.682087,14.51937 -1.562254,0.37626 -1.683615,2.56756 0.0059,2.80024 1.972953,0.71091 4.353792,0.75652 6.126523,1.38109 -1.025663,1.55794 -4.641481,2.50417 -3.593539,4.8114 2.212295,1.18253 5.018137,0.49198 7.358753,1.55042 3.452375,0.79801 6.91399,2.75438 10.53282,2.94721 6.72801,-3.67803 12.91378,-8.32888 19.87469,-11.62588 7.2699,-3.70606 14.78421,-7.38974 22.57542,-9.72561 0.78926,2.33451 3.63093,0.13248 5.09413,-0.22265 16.78186,-7.33458 33.47807,-14.96965 49.53218,-23.80173 11.84709,-6.48662 20.41585,-17.241 29.30507,-27.11194 6.40551,-8.20354 13.12582,-16.28875 18.26669,-25.3674 1.08718,-1.37242 -0.73971,-3.10236 -1.9545,-1.7363 -8.2662,6.46445 -17.03319,12.73571 -27.18285,15.67744 -6.88786,1.57377 -13.88206,0.85473 -20.73664,-0.21313 -3.05881,-0.53416 -6.79861,0.0869 -9.42828,-1.4978 0.96277,-1.16387 3.41278,-2.9571 0.81991,-3.87568 -2.0575,-2.00759 -4.19784,-0.68642 -5.98076,0.92775 -5.72157,4.63827 -13.4906,3.58877 -20.32037,3.81143 -2.00154,0.59005 -0.55729,4.05379 -1.6568,4.83255 -5.45162,-3.46167 -11.43086,-6.08309 -16.72361,-9.77673 2.57135,-1.65821 6.10895,-1.79497 8.25016,-4.05193 -0.0877,-3.12113 -1.93989,-6.05398 -2.00439,-9.26083 0.13504,-1.72212 -1.75969,-5.08096 -3.47429,-2.86535 -0.36385,1.09628 -0.6084,2.46386 -2.07544,2.3114 -1.56064,0.27884 -1.26817,2.36958 -2.05007,3.10216 -3.64088,-0.96922 -6.98868,-3.3135 -8.26653,-6.98882 -1.28513,-2.01732 -1.15155,-4.95217 -3.02322,-6.53367 -2.21333,0.10136 -3.02211,2.9348 -4.47564,4.29888 -3.75559,4.53669 -8.29655,8.52451 -13.97412,10.30277 -2.47375,-6.74146 -6.45333,-13.22458 -12.00778,-17.74019 -0.39943,-0.12973 1.31545,-2.13572 1.72699,-2.88904 2.98814,-4.28418 7.97213,-6.87239 10.95484,-11.28298 2.37047,-3.16639 4.42069,-6.99222 4.68961,-10.96921 -1.15822,-1.8522 -3.56873,0.26847 -5.20128,0.35267 -1.18511,0.48128 -2.20688,0.43863 -2.59219,-0.88803 -0.36806,-0.56903 -0.97624,-1.02872 -1.68725,-0.95991 z"
       style="fill:#e8d7cf;fill-opacity:1;stroke-width:0.433018" />
    <path
       d="m 137.87115,269.74274 c 0.44851,-0.13169 0.91923,-0.16266 1.3822,-0.20961 1.01578,-0.0809 2.03563,-0.0896 3.05405,-0.10118 0.79857,-0.0348 1.59361,-0.12053 2.39045,-0.18051 0.31199,-0.0199 0.16132,-0.0112 0.45199,-0.0262 0,0 1.13454,-0.83265 1.13454,-0.83265 v 0 c -0.29204,0.013 -0.14067,0.005 -0.4541,0.0233 -0.79554,0.0572 -1.58887,0.14187 -2.38524,0.18763 -1.02077,0.0104 -2.04264,0.0192 -3.06132,0.0913 -0.46876,0.0447 -0.94095,0.0811 -1.40124,0.18454 0,0 -1.11133,0.86339 -1.11133,0.86339 z"
       id="path168"
       style="fill:#e8d7cf;fill-opacity:1" />
    <path
       d="m 142.62716,267.73902 c -1.99753,1.13433 -1.25116,0.64478 -0.72623,0.52956 0.24091,-0.0529 0.48452,-0.0775 0.72957,-0.1006 0.6259,-0.0384 1.2533,-0.0408 1.88016,-0.0432 0.38227,-0.0112 0.76697,0.0119 1.11067,0.19001 0.14252,0.13771 0.0705,0.0646 0.2151,0.22005 0,0 1.20274,-0.7307 1.20274,-0.7307 v 0 c -0.15527,-0.16842 -0.0757,-0.0826 -0.23867,-0.2575 -0.36741,-0.21886 -0.72768,-0.2595 -1.15156,-0.2494 -0.62904,0.001 -1.25836,0.004 -1.88682,0.0341 -0.32136,0.0234 -0.64287,0.0543 -0.95741,0.12793 -0.0576,0.0135 -0.11898,0.0192 -0.17107,0.0472 -0.44446,0.23934 -0.87612,0.50171 -1.31417,0.75257 0,0 1.30769,-0.52005 1.30769,-0.52005 z"
       id="path170"
       style="fill:#e8d7cf;fill-opacity:1" />
    <path
       d="m 135.85191,272.16565 c -0.004,-0.001 0.2137,-0.13408 0.15958,-0.10168 -0.0846,0.0506 -0.21944,0.0612 -0.25239,0.15406 -0.029,0.0816 0.15651,-0.0743 0.23616,-0.10833 0.30518,-0.13024 0.36049,-0.1434 0.68126,-0.25582 0.72439,-0.24143 1.46393,-0.43454 2.20403,-0.62106 0.69437,-0.16254 1.35951,-0.42376 2.02186,-0.68359 0.83835,-0.3664 1.71969,-0.61317 2.6041,-0.83866 0.55705,-0.13837 1.11304,-0.28467 1.64885,-0.49241 0.19816,-0.0768 0.60653,-0.25242 0.80908,-0.33865 0,0 0.39042,-0.30844 0.39042,-0.30844 v 0 c -0.41027,0.17522 -0.81866,0.36027 -1.24216,0.50213 -0.13106,0.0439 -0.26492,0.079 -0.39772,0.11732 -0.443,0.1279 -0.36259,0.10354 -0.81334,0.21766 -0.88533,0.22422 -1.76913,0.46658 -2.60793,0.83372 -0.66117,0.26066 -1.32488,0.52426 -2.01795,0.68863 -0.74085,0.18581 -1.48097,0.3786 -2.2067,0.6176 -0.58464,0.20116 -1.18527,0.42031 -1.67684,0.80793 0,0 0.45969,-0.19041 0.45969,-0.19041 z"
       id="path172"
       style="fill:#e8d7cf;fill-opacity:1" />
    <path
       d="m 135.36794,271.69159 c 0.67183,-0.30039 1.3789,-0.50937 2.08152,-0.72329 0.87526,-0.25341 1.74809,-0.51508 2.61799,-0.78626 0.23921,-0.0746 0.47735,-0.15262 0.71741,-0.22438 0.23985,-0.0717 0.48148,-0.1373 0.72222,-0.20596 1.38182,-0.36903 2.79693,-0.57767 4.21024,-0.78074 0.16399,-0.0241 0.32797,-0.0483 0.49196,-0.0725 0,0 0.3982,-0.29832 0.3982,-0.29832 v 0 c -0.16394,0.0242 -0.32789,0.0484 -0.49184,0.0726 -1.41432,0.20298 -2.83072,0.40908 -4.21428,0.77541 -0.24101,0.0683 -0.48295,0.13337 -0.72301,0.20493 -0.24011,0.0716 -0.4782,0.14977 -0.71737,0.22443 -0.86975,0.27152 -1.74228,0.53412 -2.61779,0.78652 -0.70282,0.21314 -1.41285,0.41745 -2.08347,0.72079 0,0 -0.39178,0.30671 -0.39178,0.30671 z"
       id="path174"
       style="fill:#e8d7cf;fill-opacity:1" />
    <path
       d="m 145.60802,268.20925 c 0.0667,0.14353 0.15138,0.27812 0.23242,0.41392 0.0639,0.0973 0.12448,0.1969 0.19257,0.29137 0,0 0.42831,-0.25322 0.42831,-0.25322 v 0 c -0.0677,-0.093 -0.12688,-0.19165 -0.19034,-0.28755 -0.0781,-0.13092 -0.16037,-0.26055 -0.22418,-0.39911 0,0 -0.43878,0.23459 -0.43878,0.23459 z"
       id="path176"
       style="fill:#e8d7cf;fill-opacity:1" />
    <path
       d="m 146.02789,268.19172 c 0.0192,0.19311 0.0586,0.38358 0.0927,0.57445 0,0 0.43927,-0.23369 0.43927,-0.23369 v 0 c -0.0339,-0.18968 -0.0725,-0.37906 -0.0909,-0.57106 0,0 -0.44106,0.2303 -0.44106,0.2303 z"
       id="path178"
       style="fill:#e8d7cf;fill-opacity:1" />
    <path
       d="m 145.5629,268.40084 c 0,0.21577 0,0.43154 0,0.64731 0,0 0.44332,-0.22588 0.44332,-0.22588 v 0 c 0,-0.21577 0,-0.43154 0,-0.64731 0,0 -0.44332,0.22588 -0.44332,0.22588 z"
       id="path180"
       style="fill:#e8d7cf;fill-opacity:1" />
    <path
       d="m 144.05872,268.15113 c 0.0962,0.27146 0.19693,0.54133 0.28505,0.81555 0.0137,0.0397 0.0273,0.0793 0.041,0.11902 0,0 0.67017,-0.36989 0.67017,-0.36989 v 0 c -0.0134,-0.0392 -0.0269,-0.0785 -0.0403,-0.11777 -0.0899,-0.27759 -0.19052,-0.55165 -0.29071,-0.82567 0,0 -0.6652,0.37876 -0.6652,0.37876 z"
       id="path182"
       style="fill:#e8d7cf;fill-opacity:1" />
    <path
       d="m 145.46132,267.99301 c -0.10292,0.25956 -0.18571,0.52578 -0.25835,0.79523 -0.0416,0.18121 -0.0227,0.093 -0.057,0.26463 0,0 0.68893,-0.33364 0.68893,-0.33364 v 0 c 0.0356,-0.16889 0.0161,-0.0821 0.0591,-0.26023 0.0735,-0.26638 0.15765,-0.52989 0.26285,-0.78562 0,0 -0.69555,0.31963 -0.69555,0.31963 z"
       id="path184"
       style="fill:#e8d7cf;fill-opacity:1" />
    <path
       d="m 145.02253,268.38511 c 0.003,0.25019 -0.009,0.50019 -0.0179,0.75015 0,0 0.68327,-0.34511 0.68327,-0.34511 v 0 c 0.009,-0.25076 0.0198,-0.50158 0.0167,-0.75256 0,0 -0.68204,0.34752 -0.68204,0.34752 z"
       id="path186"
       style="fill:#e8d7cf;fill-opacity:1" />
    <path
       d="m 144.98425,268.39885 c -0.0275,0.24749 -0.0417,0.49635 -0.0565,0.74488 0,0 0.68413,-0.3434 0.68413,-0.3434 v 0 c 0.0153,-0.24988 0.0336,-0.49953 0.0544,-0.749 0,0 -0.68205,0.34752 -0.68205,0.34752 z"
       id="path188"
       style="fill:#e8d7cf;fill-opacity:1" />
    <path
       d="m 144.6193,268.45229 c -0.10518,0.30438 -0.1398,0.62652 -0.17369,0.94497 0,0 0.68578,-0.34007 0.68578,-0.34007 v 0 c 0.035,-0.31199 0.0693,-0.62964 0.18346,-0.92453 0,0 -0.69555,0.31963 -0.69555,0.31963 z"
       id="path190"
       style="fill:#e8d7cf;fill-opacity:1" />
    <path
       d="m 145.89767,268.41304 c 0.0486,0.10352 0.0894,0.2105 0.13291,0.31619 0,0 0.66794,-0.3739 0.66794,-0.3739 v 0 c -0.0451,-0.10962 -0.0872,-0.22078 -0.13927,-0.32735 0,0 -0.66158,0.38506 -0.66158,0.38506 z"
       id="path192"
       style="fill:#e8d7cf;fill-opacity:1" />
    <path
       d="m 146.43865,268.49993 c -0.0227,0.29493 -0.0454,0.5893 -0.083,0.88277 -0.008,0.0457 -0.0163,0.0914 -0.0244,0.13707 0,0 0.68782,-0.33593 0.68782,-0.33593 v 0 c 0.008,-0.0467 0.0153,-0.0934 0.0229,-0.1401 0.0366,-0.29613 0.0609,-0.59352 0.0787,-0.89133 0,0 -0.68205,0.34752 -0.68205,0.34752 z"
       id="path194"
       style="fill:#e8d7cf;fill-opacity:1" />
    <path
       d="m 146.13246,268.50909 c 0,0.27216 0,0.54432 0,0.81648 0,0 0.68205,-0.34751 0.68205,-0.34751 v 0 c 0,-0.27217 0,-0.54433 0,-0.81649 0,0 -0.68205,0.34752 -0.68205,0.34752 z"
       id="path196"
       style="fill:#e8d7cf;fill-opacity:1" />
    <path
       d="m 142.80265,268.93926 c 0.0167,0.36898 0.0331,0.73801 0.0495,1.10703 0.006,0.0641 0.0122,0.12811 0.0183,0.19217 0,0 0.67883,-0.35375 0.67883,-0.35375 v 0 c -0.006,-0.063 -0.0111,-0.12597 -0.0167,-0.18895 -0.0164,-0.368 -0.0338,-0.73593 -0.0479,-1.10402 0,0 -0.68204,0.34752 -0.68204,0.34752 z"
       id="path198"
       style="fill:#e8d7cf;fill-opacity:1" />
    <path
       d="m 143.10884,268.62391 c 0,0.0306 -10e-4,0.0612 0,0.0918 0.005,0.10926 0.016,0.21814 0.023,0.32728 0.0135,0.20981 0.0236,0.41971 0.0383,0.62945 0.01,0.15193 0.0205,0.30252 0.0453,0.45265 0,0 0.67655,-0.35809 0.67655,-0.35809 v 0 c -0.022,-0.14829 -0.0324,-0.29712 -0.0422,-0.44674 -0.0234,-0.34759 -0.0469,-0.69581 -0.0589,-1.04383 0,0 -0.68204,0.34752 -0.68204,0.34752 z"
       id="path200"
       style="fill:#e8d7cf;fill-opacity:1" />
    <path
       d="m 143.68295,269.16432 c 0,0.26751 0,0.53502 0,0.80254 0,0 0.68204,-0.34752 0.68204,-0.34752 v 0 c 0,-0.26751 0,-0.53503 0,-0.80254 0,0 -0.68204,0.34752 -0.68204,0.34752 z"
       id="path202"
       style="fill:#e8d7cf;fill-opacity:1" />
    <path
       d="m 141.69271,269.18428 c 0,0.0724 -9.3e-4,0.10031 0.005,0.18258 0.01,0.12752 0.0249,0.25456 0.0354,0.38201 0.0194,0.23338 0.0194,0.25303 0.0343,0.49136 0.0362,0.31158 0.0206,0.63055 0.0767,0.93956 0,0 0.67609,-0.35895 0.67609,-0.35895 v 0 c -0.0485,-0.3078 -0.0396,-0.62288 -0.073,-0.93244 -0.0226,-0.35069 -0.0626,-0.70052 -0.0727,-1.05164 0,0 -0.68205,0.34752 -0.68205,0.34752 z"
       id="path204"
       style="fill:#e8d7cf;fill-opacity:1" />
    <path
       d="m 142.19027,268.96837 c 0,0.36907 0,0.73814 0,1.10721 0,0.11239 0,0.22478 0,0.33716 0,0 0.68205,-0.34751 0.68205,-0.34751 v 0 c 0,-0.11239 0,-0.22478 0,-0.33717 0,-0.36907 0,-0.73814 0,-1.10721 0,0 -0.68205,0.34752 -0.68205,0.34752 z"
       id="path206"
       style="fill:#e8d7cf;fill-opacity:1" />
    <path
       d="m 140.73587,269.99261 c 0.008,0.32048 0.0299,0.64068 0.046,0.96092 0,0 0.68028,-0.35095 0.68028,-0.35095 v 0 c -0.0161,-0.31905 -0.0384,-0.63807 -0.0442,-0.95749 0,0 -0.68204,0.34752 -0.68204,0.34752 z"
       id="path208"
       style="fill:#e8d7cf;fill-opacity:1" />
    <path
       d="m 141.15688,269.87321 c 0,0.2007 0,0.4014 0,0.6021 0,0 0.68205,-0.34752 0.68205,-0.34752 v 0 c 0,-0.2007 0,-0.4014 0,-0.6021 0,0 -0.68205,0.34752 -0.68205,0.34752 z"
       id="path210"
       style="fill:#e8d7cf;fill-opacity:1" />
    <path
       d="m 140.5445,269.7767 c 0.005,0.42953 -0.006,0.85885 -0.0178,1.28818 0,0 0.68295,-0.34573 0.68295,-0.34573 v 0 c 0.0111,-0.42993 0.0213,-0.85986 0.0169,-1.28997 0,0 -0.68205,0.34752 -0.68205,0.34752 z"
       id="path212"
       style="fill:#e8d7cf;fill-opacity:1" />
    <path
       d="m 141.50135,269.72927 c 0.004,0.36077 -0.0146,0.72118 -0.0349,1.08124 -0.004,0.0664 -0.007,0.13274 -0.0111,0.19911 0,0 0.68397,-0.34371 0.68397,-0.34371 v 0 c 0.004,-0.0664 0.007,-0.13275 0.0111,-0.19912 0.0199,-0.36134 0.0371,-0.72302 0.033,-1.08504 0,0 -0.68204,0.34752 -0.68204,0.34752 z"
       id="path214"
       style="fill:#e8d7cf;fill-opacity:1" />
    <path
       d="m 140.81242,269.99261 c 0.0409,0.25224 0.0518,0.50846 0.0635,0.76341 0.007,0.17561 0.01,0.35135 0.0123,0.52707 0,0 0.68157,-0.34843 0.68157,-0.34843 v 0 c -0.003,-0.1765 -0.006,-0.35301 -0.0135,-0.52937 -0.0123,-0.25403 -0.0277,-0.50801 -0.0618,-0.7602 0,0 -0.68204,0.34752 -0.68204,0.34752 z"
       id="path216"
       style="fill:#e8d7cf;fill-opacity:1" />
    <path
       d="m 139.9704,270.06915 c 0.003,0.28282 -0.004,0.56544 -0.0114,0.84811 0,0 0.68298,-0.34566 0.68298,-0.34566 v 0 c 0.008,-0.28329 0.0134,-0.56655 0.0104,-0.84996 0,0 -0.68204,0.34751 -0.68204,0.34751 z"
       id="path218"
       style="fill:#e8d7cf;fill-opacity:1" />
    <path
       d="m 139.70248,270.20229 c 0,0.38772 0,0.77544 0,1.16317 0,0 0.68204,-0.34752 0.68204,-0.34752 v 0 c 0,-0.38772 0,-0.77545 0,-1.16317 0,0 -0.68204,0.34752 -0.68204,0.34752 z"
       id="path220"
       style="fill:#e8d7cf;fill-opacity:1" />
    <path
       d="m 139.12838,270.18855 c 0.007,0.32156 -0.0271,0.64195 -0.0587,0.96148 -0.005,0.0561 -0.0105,0.1122 -0.0157,0.1683 0,0 0.68527,-0.34112 0.68527,-0.34112 v 0 c 0.005,-0.056 0.0106,-0.11201 0.0159,-0.16802 0.0313,-0.32177 0.0628,-0.64442 0.0553,-0.96816 0,0 -0.68204,0.34752 -0.68204,0.34752 z"
       id="path222"
       style="fill:#e8d7cf;fill-opacity:1" />
    <path
       d="m 138.66909,270.53302 c 0,0.36446 0,0.72892 0,1.09339 0,0.13427 0,0.26855 0,0.40283 0,0 0.68204,-0.34752 0.68204,-0.34752 v 0 c 0,-0.13428 0,-0.26855 0,-0.40283 0,-0.36446 0,-0.72893 0,-1.09339 0,0 -0.68204,0.34752 -0.68204,0.34752 z"
       id="path224"
       style="fill:#e8d7cf;fill-opacity:1" />
    <path
       d="m 138.32463,270.33707 c 0.006,0.34969 -0.007,0.69869 -0.0226,1.04794 -0.0139,0.28622 -0.0242,0.57262 -0.0411,0.8587 0,0 0.68402,-0.34361 0.68402,-0.34361 v 0 c 0.016,-0.28639 0.027,-0.57303 0.0407,-0.85953 0.0156,-0.35027 0.0267,-0.70035 0.021,-1.05102 0,0 -0.68204,0.34752 -0.68204,0.34752 z"
       id="path226"
       style="fill:#e8d7cf;fill-opacity:1" />
    <path
       d="m 138.20981,270.87748 c -0.0308,0.3322 -0.0819,0.66149 -0.13397,0.99097 -0.0258,0.21446 -0.0658,0.42716 -0.11509,0.63737 0,0 0.68963,-0.33221 0.68963,-0.33221 v 0 c 0.0466,-0.21225 0.0858,-0.42624 0.11286,-0.64195 0.0525,-0.33266 0.10485,-0.66545 0.12861,-1.0017 0,0 -0.68204,0.34752 -0.68204,0.34752 z"
       id="path228"
       style="fill:#e8d7cf;fill-opacity:1" />
    <path
       d="m 136.76193,271.12004 c 0.0183,0.22749 0.0231,0.45584 0.0278,0.68394 0.002,0.10108 0.003,0.20218 0.004,0.30327 0,0 0.68174,-0.34811 0.68174,-0.34811 v 0 c -9.4e-4,-0.10139 -0.002,-0.20278 -0.004,-0.30415 -0.005,-0.23014 -0.01,-0.46064 -0.031,-0.68999 0,0 -0.67815,0.35504 -0.67815,0.35504 z"
       id="path230"
       style="fill:#e8d7cf;fill-opacity:1" />
    <path
       d="m 136.9085,270.81009 c -0.005,0.34961 0.0277,0.69834 0.0471,1.04719 0.008,0.18742 0.0148,0.37453 0.0374,0.56084 0,0 0.67799,-0.35536 0.67799,-0.35536 v 0 c -0.0204,-0.18507 -0.0262,-0.37091 -0.0353,-0.55681 -0.0196,-0.34754 -0.0507,-0.69502 -0.0451,-1.04338 0,0 -0.68204,0.34752 -0.68204,0.34752 z"
       id="path232"
       style="fill:#e8d7cf;fill-opacity:1" />
    <path
       d="m 137.36779,270.4182 c 0,0.4259 0,0.8518 0,1.2777 0,0.2539 0,0.50781 0,0.76171 0,0 0.68204,-0.34752 0.68204,-0.34752 v 0 c 0,-0.2539 0,-0.50781 0,-0.76171 0,-0.4259 0,-0.8518 0,-1.2777 0,0 -0.68204,0.34752 -0.68204,0.34752 z"
       id="path234"
       style="fill:#e8d7cf;fill-opacity:1" />
    <path
       d="m 137.82707,270.77182 c 0,0.30156 0,0.60312 0,0.90468 0,0.11958 0,0.23915 0,0.35872 0,0 0.68204,-0.34752 0.68204,-0.34752 v 0 c 0,-0.11957 0,-0.23914 0,-0.35871 0,-0.30157 0,-0.60313 0,-0.90469 0,0 -0.68204,0.34752 -0.68204,0.34752 z"
       id="path236"
       style="fill:#e8d7cf;fill-opacity:1" />
    <path
       d="m 135.83684,271.92003 c 0,0.2074 0,0.4148 0,0.62221 0,0 0.68204,-0.34752 0.68204,-0.34752 v 0 c 0,-0.2074 0,-0.41481 0,-0.62221 0,0 -0.68204,0.34752 -0.68204,0.34752 z"
       id="path238"
       style="fill:#e8d7cf;fill-opacity:1" />
    <path
       d="m 135.68374,271.45159 c 0,0.32538 0,0.65077 0,0.97616 0,0.15576 0,0.31152 0,0.46727 0,0 0.68204,-0.34752 0.68204,-0.34752 v 0 c 0,-0.15575 0,-0.31151 0,-0.46726 0,-0.32539 0,-0.65078 0,-0.97617 0,0 -0.68204,0.34752 -0.68204,0.34752 z"
       id="path240"
       style="fill:#e8d7cf;fill-opacity:1" />
    <path
       d="m 136.87023,271.49902 c -0.007,0.36316 -0.0191,0.72638 -0.0282,1.08957 -0.001,0.047 -0.002,0.094 -0.004,0.14096 0,0 0.68293,-0.34578 0.68293,-0.34578 v 0 c 0.001,-0.047 0.002,-0.094 0.004,-0.14098 0.009,-0.36375 0.0217,-0.72751 0.0273,-1.09129 0,0 -0.68204,0.34752 -0.68204,0.34752 z"
       id="path242"
       style="fill:#e8d7cf;fill-opacity:1" />
    <path
       d="m 136.29612,271.44701 c -0.004,0.32648 0.008,0.65273 0.0178,0.97902 0.002,0.0674 0.004,0.13478 0.006,0.20217 0,0 0.68106,-0.34944 0.68106,-0.34944 v 0 c -0.002,-0.0674 -0.004,-0.13481 -0.006,-0.20221 -0.009,-0.32563 -0.0209,-0.65124 -0.0168,-0.97706 0,0 -0.68204,0.34752 -0.68204,0.34752 z"
       id="path244"
       style="fill:#e8d7cf;fill-opacity:1" />
    <path
       id="path246"
       d="m 157.40531,157.69669 c -0.37909,0.0629 -0.686,0.35326 -0.81674,0.70826 -0.1621,0.40122 -0.32674,0.80351 -0.459,1.21523 -0.14578,0.49246 0.16589,1.05395 0.65439,1.20402 0.3802,0.13036 0.80607,-0.007 1.08395,-0.28579 0.36999,-0.33801 0.75667,-0.65981 1.10785,-1.0171 0.31464,-0.37285 0.29061,-0.97224 -0.0534,-1.31871 -0.18414,-0.2107 -0.4618,-0.27373 -0.71793,-0.35024 -0.25257,-0.10899 -0.51937,-0.20545 -0.79912,-0.15567 z"
       style="fill:#ffffff;fill-opacity:1;stroke-width:0.0191369" />
    <path
       id="path248"
       d="m 218.0678,69.66457 c -1.38571,-0.02461 -2.58498,1.324702 -2.33993,2.701885 0.21244,1.809914 2.52169,3.174678 4.12369,2.114323 1.15154,-0.725568 1.53635,-2.444934 0.65932,-3.526862 -0.54398,-0.797317 -1.46798,-1.320644 -2.44308,-1.289346 z"
       style="fill:#ffffff;fill-opacity:1;stroke-width:0.0765474" />
    <path
       id="path250"
       d="m 255.70888,88.334805 c -0.90739,0.212157 -1.58538,1.04002 -1.91369,1.879897 -0.51176,1.681697 0.84535,3.633349 2.59514,3.730491 1.15627,0.01352 2.55361,-0.7311 2.64298,-1.996064 -0.0405,-1.261278 -1.09845,-2.15803 -1.92774,-2.982658 -0.38372,-0.340446 -0.85213,-0.694365 -1.39669,-0.631666 z"
       style="fill:#ffffff;fill-opacity:1;stroke-width:0.0765474" />
    <path
       d="m 255.26461,88.635569 c 0.38444,0.111079 0.74578,0.285058 1.12183,0.419721 0.32678,0.09571 0.6547,0.189743 0.95507,0.352481 0.29706,0.194346 0.47452,0.507287 0.65522,0.80281 0.10961,0.192319 0.0607,0.09478 0.14766,0.292244 0,0 1.33372,-0.751652 1.33372,-0.751652 v 0 c -0.0956,-0.211788 -0.043,-0.108683 -0.15747,-0.309398 -0.19417,-0.317622 -0.38763,-0.647346 -0.69588,-0.868906 -0.30159,-0.177715 -0.63181,-0.289535 -0.97051,-0.375757 -0.38291,-0.127351 -0.7458,-0.305131 -1.12941,-0.430803 0,0 -1.26023,0.86926 -1.26023,0.86926 z"
       id="path252"
       style="fill:#e8d7cf;fill-opacity:1" />
    <path
       d="m 257.65494,90.073612 c 0.19989,0.222325 0.37219,0.470313 0.55627,0.706632 0.17521,0.196712 0.23995,0.433732 0.29391,0.68346 0.0561,0.289143 0.14349,0.570047 0.19106,0.86133 0.0676,0.241432 0.0704,0.494814 0.13078,0.736699 0.0572,0.268877 0.17416,0.517005 0.24934,0.780326 0.13063,0.450394 0.15607,0.922098 0.17992,1.387865 0.0178,0.432903 0.0188,0.866242 0.0189,1.299437 -4.7e-4,0.323372 -0.001,0.646743 -0.002,0.970115 -0.0293,0.255422 -0.0133,0.126157 -0.0481,0.387772 0,0 1.37272,-0.677835 1.37272,-0.677835 v 0 c 0.0323,-0.270021 0.0192,-0.135087 0.0396,-0.404791 4.7e-4,-0.323463 0.001,-0.646926 0.002,-0.970389 -5.5e-4,-0.435638 -0.002,-0.871444 -0.0226,-1.306703 -0.0271,-0.47693 -0.0589,-0.95886 -0.19651,-1.419096 -0.0778,-0.259233 -0.18968,-0.506345 -0.24505,-0.772423 -0.0502,-0.241237 -0.0649,-0.48947 -0.12668,-0.729017 -0.0522,-0.292478 -0.13825,-0.576284 -0.19448,-0.867743 -0.0606,-0.270167 -0.14333,-0.527912 -0.32752,-0.742828 -0.18831,-0.240974 -0.36493,-0.493419 -0.566,-0.722729 0,0 -1.30535,0.799918 -1.30535,0.799918 z"
       id="path254"
       style="fill:#ffe7ce;fill-opacity:1" />
    <path
       id="path260"
       d="m 167.54383,155.86508 c -2.7811,-0.02 -5.73046,0.36023 -8.02328,2.06574 -1.94584,1.39073 -3.38557,3.49394 -3.82187,5.86032 -0.22058,0.90348 -0.22045,1.84523 -0.43608,2.74752 -0.95436,0.9012 -1.03709,2.30745 -1.40975,3.49403 -0.32692,1.3721 -0.80044,2.69968 -1.28092,4.02242 -0.77929,2.5719 -0.36545,5.31018 -0.93307,7.91414 -0.29632,0.9539 -0.88018,1.84031 -0.83426,2.87825 -0.18724,3.33461 1.09296,6.48858 1.98504,9.63772 0.0705,0.33434 0.25792,0.7221 0.23066,1.02739 -2.10972,0.98728 -4.35737,1.64159 -6.52913,2.47703 -0.6617,0.25891 -1.68344,0.4527 -1.64846,1.35027 0.066,0.8144 0.93221,1.21916 1.5084,1.68262 3.31205,2.21544 6.92076,3.92517 10.44568,5.76386 1.57895,0.79517 2.93814,1.93813 4.43905,2.85639 0.65741,0.45667 1.59838,-0.0337 1.67014,-0.81167 0.25398,-1.39523 0.0647,-2.82141 0.35912,-4.18484 1.26512,-0.0403 2.49896,0.3629 3.75394,0.48662 2.24135,0.2846 4.51565,0.17532 6.76017,-0.0146 5.23421,-0.6623 10.23955,-3.07049 13.96477,-6.81605 0.5388,-0.58011 1.39927,-0.76533 1.88465,-1.38289 0.5301,-0.68675 -0.15112,-1.41278 -0.54308,-1.96365 -0.48635,-0.67616 -1.01729,-1.35174 -1.46881,-2.03313 1.56188,0.0819 3.09328,0.45563 4.65026,0.5602 0.63038,8.5e-4 1.06105,-0.58784 1.11652,-1.16511 0.86679,-1.22671 2.21051,-2.19687 2.60575,-3.7112 0.25448,-1.65877 0.27446,-3.34992 0.26444,-5.02592 -0.13512,-2.51684 -0.60703,-5.01978 -1.3536,-7.42605 -0.69382,-2.10294 -1.77605,-4.09235 -3.19705,-5.79129 -0.20091,-0.26799 -0.59566,-0.42799 -0.82991,-0.52596 0.01,-0.96313 -0.99442,-1.44108 -1.60533,-2.02899 -4.26304,-3.47095 -8.69062,-6.76284 -13.40659,-9.59586 -0.7269,-0.35302 -1.53113,-1.028 -2.38273,-0.70272 -0.54624,-0.91364 -1.7186,-1.08712 -2.66521,-1.33722 -1.07365,-0.23665 -2.17113,-0.32779 -3.26946,-0.30736 z"
       style="fill:#ffe7ce;fill-opacity:1;stroke-width:0.0765474" />
    <path
       d="m 193.18934,192.25234 c 0.0918,0.38239 0.16644,0.76848 0.24056,1.15462 0.047,0.25206 0.0253,0.13066 0.0655,0.36412 0,0 0.67598,-0.35917 0.67598,-0.35917 v 0 c -0.0408,-0.23444 -0.0189,-0.11264 -0.0662,-0.36534 -0.0745,-0.38796 -0.14977,-0.77588 -0.24335,-1.15979 0,0 -0.67254,0.36556 -0.67254,0.36556 z"
       id="path262"
       style="fill:#e8d7cf;fill-opacity:1" />
    <path
       d="m 193.00053,192.85105 c 0.0413,0.0963 0.0697,0.19713 0.0988,0.29754 0,0 0.67186,-0.36682 0.67186,-0.36682 v 0 c -0.0306,-0.10312 -0.0604,-0.20665 -0.10321,-0.30556 0,0 -0.66742,0.37484 -0.66742,0.37484 z"
       id="path264"
       style="fill:#e8d7cf;fill-opacity:1" />
    <path
       d="m 187.49369,193.03659 c 0.14682,0.20723 0.27348,0.42889 0.4018,0.64796 0,0 0.66268,-0.38316 0.66268,-0.38316 v 0 c -0.12978,-0.22157 -0.25805,-0.44563 -0.4062,-0.65546 0,0 -0.65828,0.39066 -0.65828,0.39066 z"
       id="path266"
       style="fill:#e8d7cf;fill-opacity:1" />
    <path
       d="m 157.49976,156.95954 c 0.0393,0.42646 0.0519,0.85479 0.0631,1.28272 0.009,0.3636 0.0124,0.7273 0.0138,1.09099 3.4e-4,0.16603 8e-5,0.33207 -8e-5,0.4981 0,0 0.68207,-0.34745 0.68207,-0.34745 v 0 c 1.6e-4,-0.16615 4.1e-4,-0.3323 -9e-5,-0.49845 -0.002,-0.36421 -0.006,-0.72842 -0.0146,-1.09254 -0.0117,-0.42737 -0.0273,-0.85467 -0.0622,-1.28089 0,0 -0.68204,0.34752 -0.68204,0.34752 z"
       id="path268"
       style="fill:#e8d7cf;fill-opacity:1" />
    <path
       d="m 157.7294,157.76951 c 0.057,0.34717 0.13542,0.69014 0.20725,1.03438 0,0 0.67474,-0.36149 0.67474,-0.36149 v 0 c -0.071,-0.33913 -0.15142,-0.67719 -0.19995,-1.02041 0,0 -0.68204,0.34752 -0.68204,0.34752 z"
       id="path270"
       style="fill:#e8d7cf;fill-opacity:1" />
    <path
       d="m 158.38005,157.69296 c 0.0339,0.26963 0.056,0.54027 0.0751,0.81138 0,0 0.67955,-0.35236 0.67955,-0.35236 v 0 c -0.0194,-0.26939 -0.0452,-0.53805 -0.0726,-0.80653 0,0 -0.68204,0.34751 -0.68204,0.34751 z"
       id="path272"
       style="fill:#e8d7cf;fill-opacity:1" />
    <path
       d="m 158.22696,158.3145 c 0,0.19083 0,0.38166 0,0.5725 0,0 0.68204,-0.34752 0.68204,-0.34752 v 0 c 0,-0.19083 0,-0.38167 0,-0.5725 0,0 -0.68204,0.34752 -0.68204,0.34752 z"
       id="path274"
       style="fill:#e8d7cf;fill-opacity:1" />
    <path
       d="m 157.88249,159.06001 c 0,0.12574 0,0.25147 0,0.3772 0,0 0.68205,-0.34752 0.68205,-0.34752 v 0 c 0,-0.12573 0,-0.25146 0,-0.37719 0,0 -0.68205,0.34751 -0.68205,0.34751 z"
       id="path276"
       style="fill:#e8d7cf;fill-opacity:1" />
    <path
       d="m 157.19357,159.00343 c 0,0.3589 0,0.71781 0,1.07671 0,0.20773 0.01,0.11805 -0.0161,0.27018 0,0 0.68677,-0.33809 0.68677,-0.33809 v 0 c 0.0178,-0.16204 0.0114,-0.069 0.0114,-0.2796 0,-0.35891 0,-0.71782 0,-1.07672 0,0 -0.68204,0.34752 -0.68204,0.34752 z"
       id="path278"
       style="fill:#e8d7cf;fill-opacity:1" />
    <path
       d="m 156.88738,159.05086 c -0.009,0.38026 -0.0143,0.76105 -0.0379,1.14077 -0.005,0.0723 -0.011,0.14462 -0.0165,0.21694 0,0 0.68461,-0.34242 0.68461,-0.34242 v 0 c 0.005,-0.0727 0.0107,-0.14533 0.016,-0.21799 0.0216,-0.38115 0.0286,-0.76318 0.0359,-1.14482 0,0 -0.68204,0.34752 -0.68204,0.34752 z"
       id="path280"
       style="fill:#deafac;fill-opacity:1" />
    <path
       d="m 248.48669,103.87436 c 0,0.90351 0,1.80702 0,2.71053 0,0.81091 0,1.62182 0,2.43273 0,0 2.72817,-1.39007 2.72817,-1.39007 v 0 c 0,-0.81091 0,-1.62182 0,-2.43273 0,-0.90351 0,-1.80702 0,-2.71053 0,0 -2.72817,1.39007 -2.72817,1.39007 z"
       id="path284"
       style="fill:#deafac;fill-opacity:1" />
    <path
       d="m 252.64556,103.31217 c 0.0792,1.20186 0.0948,2.4069 0.11157,3.61091 0,0 2.72616,-1.39402 2.72616,-1.39402 v 0 c -0.0181,-1.21177 -0.0329,-2.42512 -0.12355,-3.63408 0,0 -2.71418,1.41719 -2.71418,1.41719 z"
       id="path286"
       style="fill:#deafac;fill-opacity:1" />
    <path
       d="m 256.29453,102.90086 c 0.0933,1.0745 0.21457,2.14725 0.33595,3.21934 0.0244,0.2171 0.0489,0.4342 0.0733,0.6513 0,0 2.71243,-1.42055 2.71243,-1.42055 v 0 c -0.0244,-0.21707 -0.0488,-0.43415 -0.0732,-0.65123 -0.11816,-1.06155 -0.2493,-2.12326 -0.32024,-3.18894 0,0 -2.72817,1.39008 -2.72817,1.39008 z"
       id="path288"
       style="fill:#deafac;fill-opacity:1" />
    <path
       d="m 201.18039,81.198015 c 0.007,1.047692 -0.0569,2.094287 -0.0948,3.14106 -0.035,1.02381 -0.0494,2.048192 -0.0569,3.072528 -5.3e-4,0.109837 -0.001,0.219675 -0.002,0.329513 0,0 2.72892,-1.388616 2.72892,-1.388616 v 0 c 6.4e-4,-0.109601 0.001,-0.219201 0.002,-0.328802 0.009,-1.021744 0.0242,-2.043521 0.0608,-3.064695 0.0389,-1.05001 0.1,-2.099996 0.0897,-3.15106 0,0 -2.72817,1.390072 -2.72817,1.390072 z"
       id="path290"
       style="fill:#deafac;fill-opacity:1" />
    <path
       d="m 204.39538,82.098272 c 0.0159,1.255315 -0.0271,2.509448 -0.11035,3.761779 -0.0248,0.319366 -0.0496,0.638732 -0.0743,0.958098 0,0 2.7387,-1.369197 2.7387,-1.369197 v 0 c 0.0242,-0.320537 0.0484,-0.641073 0.0726,-0.96161 0.0766,-1.258431 0.11771,-2.518174 0.10157,-3.779143 0,0 -2.72817,1.390073 -2.72817,1.390073 z"
       id="path292"
       style="fill:#deafac;fill-opacity:1" />
    <path
       d="m 208.22275,83.549376 c 0,1.281557 0,2.563114 0,3.844671 0,0 2.72817,-1.390072 2.72817,-1.390072 v 0 c 0,-1.281557 0,-2.563114 0,-3.844671 0,0 -2.72817,1.390072 -2.72817,1.390072 z"
       id="path294"
       style="fill:#deafac;fill-opacity:1" />
    <path
       d="m 258.05287,89.840375 c 0.0621,0.214648 0.14258,0.423756 0.2283,0.629992 0.0656,0.188527 0.15374,0.367921 0.24604,0.544477 0.0643,0.148661 0.12765,0.298117 0.17841,0.452054 0.10584,0.285875 0.18557,0.580178 0.26453,0.874333 0.18464,0.669068 0.33149,1.3475 0.45339,2.030526 0.0951,0.626419 0.19228,1.252868 0.25745,1.88329 0.004,0.04131 0.0773,0.843066 0.0815,0.88985 0.0643,0.806148 0.12113,1.612895 0.17689,2.419686 0.023,0.333371 0.0113,0.184374 0.0336,0.447117 0,0 0.67911,-0.353208 0.67911,-0.353208 v 0 c -0.0216,-0.261774 -0.0101,-0.113098 -0.0331,-0.446135 -0.056,-0.807283 -0.11238,-1.614583 -0.17766,-2.42117 -0.009,-0.101867 -0.0722,-0.794577 -0.0824,-0.891441 -0.0661,-0.63182 -0.1634,-1.259799 -0.2597,-1.887547 -0.12326,-0.684903 -0.27104,-1.365268 -0.45649,-2.036282 -0.0796,-0.295534 -0.1607,-0.590929 -0.26671,-0.878334 -0.0532,-0.157336 -0.11718,-0.310906 -0.18438,-0.462694 -0.0913,-0.174608 -0.17751,-0.352305 -0.24271,-0.538591 -0.0836,-0.201692 -0.1631,-0.406229 -0.2211,-0.616836 0,0 -0.67505,0.360913 -0.67505,0.360913 z"
       id="path296"
       style="fill:#e8d7cf;fill-opacity:1" />
    <path
       d="m 258.30922,89.544079 c 0.31395,0.645095 0.65999,1.273791 0.97855,1.91662 0.0996,0.201001 0.19577,0.403695 0.29365,0.605542 0.35943,0.755717 0.68378,1.527452 0.92534,2.32938 0.15631,0.518937 0.17464,0.632388 0.29573,1.149577 0.19325,0.842342 0.28841,1.701931 0.35564,2.562136 0,0 0.67929,-0.352872 0.67929,-0.352872 v 0 c -0.0686,-0.863768 -0.16611,-1.726744 -0.36109,-2.572424 -0.12203,-0.517813 -0.14161,-0.635736 -0.29874,-1.155112 -0.24353,-0.804957 -0.56956,-1.579803 -0.93051,-2.338639 -0.0981,-0.202231 -0.19448,-0.405307 -0.2943,-0.606694 -0.3179,-0.641335 -0.66326,-1.268552 -0.97615,-1.912355 0,0 -0.66741,0.374841 -0.66741,0.374841 z"
       id="path298"
       style="fill:#e8d7cf;fill-opacity:1" />
    <path
       d="m 257.61068,89.6015 c 0.46666,1.047203 0.90613,2.105725 1.33429,3.169155 0.58617,1.498538 1.07949,3.03087 1.57346,4.561567 0.12076,0.355191 0.21829,0.717809 0.33577,1.074034 0.036,0.109105 0.0774,0.216343 0.1161,0.324515 0,0 0.66973,-0.370693 0.66973,-0.370693 v 0 c -0.1642,-0.461109 -0.30366,-0.929642 -0.45073,-1.396494 -0.49462,-1.532357 -0.98881,-3.06628 -1.57609,-4.566295 -0.42824,-1.063338 -0.86807,-2.121638 -1.3342,-3.169002 0,0 -0.66833,0.373213 -0.66833,0.373213 z"
       id="path300"
       style="fill:#e8d7cf;fill-opacity:1" />
    <path
       d="m 258.4082,89.713338 c 0.0357,0.126921 0.0668,0.240984 0.10939,0.368963 0.23763,0.714784 0.51285,1.417928 0.7755,2.123688 0.43512,1.174038 0.84412,2.358118 1.18849,3.562248 0.0592,0.207129 0.11356,0.415629 0.17035,0.623444 0.12077,0.441652 0.21843,0.88874 0.30956,1.337213 0,0 0.67491,-0.361171 0.67491,-0.361171 v 0 c -0.0921,-0.449919 -0.19058,-0.89849 -0.31195,-1.341647 -0.0571,-0.20831 -0.11168,-0.417302 -0.17116,-0.624931 -0.3454,-1.205581 -0.75517,-2.391168 -1.19097,-3.566747 -0.26209,-0.704292 -0.53709,-1.405958 -0.77324,-2.119593 -0.0386,-0.116738 -0.0751,-0.248228 -0.10926,-0.368713 0,0 -0.67162,0.367246 -0.67162,0.367246 z"
       id="path302"
       style="fill:#e8d7cf;fill-opacity:1" />
    <path
       d="m 258.81027,89.340698 c 0.0125,0.09864 0.0151,0.130695 0.0386,0.24169 0.10877,0.513763 0.24967,1.020924 0.38585,1.527798 0.16849,0.610604 0.33017,1.222972 0.48853,1.836264 0,0 0.67303,-0.364649 0.67303,-0.364649 v 0 c -0.15858,-0.613473 -0.32044,-1.226037 -0.48886,-1.8369 -0.13534,-0.504502 -0.27754,-1.009599 -0.38257,-1.521685 -0.0246,-0.11979 -0.0234,-0.129439 -0.0325,-0.230036 0,0 -0.68204,0.347518 -0.68204,0.347518 z"
       id="path304"
       style="fill:#e8d7cf;fill-opacity:1" />
    <path
       d="m 258.67209,94.63335 c 0.20379,0.710668 0.32961,1.441204 0.44836,2.170022 0.0856,0.533435 0.16666,1.067515 0.2442,1.602166 0,0 0.67696,-0.357313 0.67696,-0.357313 v 0 c -0.0777,-0.535059 -0.15913,-1.069532 -0.24484,-1.60338 -0.12021,-0.732488 -0.24672,-1.467078 -0.45417,-2.180774 0,0 -0.67051,0.369279 -0.67051,0.369279 z"
       id="path306"
       style="fill:#e8d7cf;fill-opacity:1" />
    <circle
       r="0.57677943"
       cy="162.81461"
       cx="-56.292286"
       style="fill:#e8d7cf;stroke:#000000"
       id="path308" />
    <path
       id="path314"
       d="m 33.965591,187.93663 c -2.511267,0.12465 -4.438824,2.04573 -6.197041,3.63991 -3.924852,3.96469 -6.708891,9.00326 -8.326337,14.32092 -0.392188,0.99205 0.860372,1.94325 1.687632,1.23792 5.376402,-3.57994 10.211691,-7.88858 14.797872,-12.41952 0.779101,-0.73202 1.549246,-1.55855 2.648362,-1.75372 1.188957,-0.69876 0.21086,-2.05786 -0.283166,-2.88637 -0.812589,-1.54154 -2.692271,-2.12627 -4.327322,-2.13914 z"
       style="fill:#e8d7cf;fill-opacity:1;stroke-width:0.153095" />
    <path
       d="m 79.237515,191.19265 c 0.06312,0.23826 0.101555,0.48259 0.141592,0.7256 0.03649,0.2531 0.06005,0.50764 0.08327,0.7622 0,0 0.678833,-0.35375 0.678833,-0.35375 v 0 c -0.02367,-0.25626 -0.0479,-0.51252 -0.08589,-0.76717 -0.04085,-0.24299 -0.08057,-0.48672 -0.1416,-0.72562 0,0 -0.67621,0.35874 -0.67621,0.35874 z"
       id="path318"
       style="fill:#e8d7cf;fill-opacity:1" />
    <path
       d="m 79.425687,191.32228 c 0.14618,0.20398 0.178658,0.53259 0.224517,0.77312 0.04905,0.30297 0.08318,0.60804 0.1187,0.9128 0,0 0.677948,-0.35544 0.677948,-0.35544 v 0 c -0.036,-0.30646 -0.07055,-0.61325 -0.121307,-0.91773 -0.05405,-0.28062 -0.08609,-0.59016 -0.257177,-0.82858 0,0 -0.642681,0.41583 -0.642681,0.41583 z"
       id="path320"
       style="fill:#e8d7cf;fill-opacity:1" />
  </g>
  <g
     id="g155"
     inkscape:label="Image"
     inkscape:groupmode="layer">
    <path
       id="path159"
       d="m 100.5206,288.90731 c -1.055995,-0.31059 -3.753688,-1.23633 -5.994866,-2.0572 -3.669888,-1.34416 -4.347801,-1.49249 -6.821037,-1.49249 -5.204627,0 -5.284678,-1.3104 -0.255824,-4.18762 2.230868,-1.27637 2.2176,-1.28431 -3.669395,-2.19401 -4.360502,-0.67382 -5.628067,-1.07079 -5.419273,-1.69718 0.17448,-0.52343 0.633209,-0.72914 5.2004,-2.33201 6.892204,-2.41884 17.509385,-7.93537 22.002245,-11.43203 1.01323,-0.78858 2.5727,-2.11703 3.46549,-2.95212 1.38169,-1.29242 1.59221,-1.64201 1.41469,-2.34929 -0.28437,-1.13301 -4.47174,-5.1698 -6.28164,-6.05574 -1.71905,-0.84148 -2.59963,-0.88057 -5.330859,-0.23664 -2.691478,0.63456 -3.90617,1.31331 -7.0276,3.9269 -5.827923,4.87976 -11.95055,8.55665 -16.722326,10.04245 -2.101344,0.6543 -3.017223,0.74418 -7.36,0.7223 -5.477335,-0.0276 -9.299076,-0.69364 -16.627514,-2.89778 -10.313442,-3.10193 -23.993496,-11.8834 -28.229282,-18.12087 -4.064329,-5.98499 -6.420173,-14.43077 -6.40339,-22.95636 0.0174,-8.83815 2.610739,-18.61912 6.811488,-25.69002 1.655629,-2.78684 5.67612,-7.04292 7.808535,-8.2661 2.531137,-1.45189 5.578464,-1.10871 7.027788,0.79145 1.229225,1.6116 1.616447,3.03916 3.508748,12.93562 0.966371,5.05397 2.126636,10.48505 2.578367,12.06905 1.516296,5.31691 5.405858,12.05863 9.967221,17.27602 3.40249,3.89185 7.949242,8.41685 10.548669,10.4982 3.265802,2.61492 4.83609,3.25638 7.96937,3.25545 2.952857,-9.6e-4 3.5171,-0.23987 8.64,-3.65982 1.76,-1.17494 3.44735,-2.22751 3.749664,-2.33904 0.475248,-0.17534 0.354707,-0.49713 -0.89032,-2.3768 -2.026576,-3.05962 -6.36992,-11.72217 -7.026528,-14.01401 -0.302541,-1.056 -0.6704,-2.07117 -0.817463,-2.25594 -0.147062,-0.18477 -0.578147,-3.06477 -0.957971,-6.4 -1.051744,-9.2354 -0.60759,-17.05058 1.183539,-20.8251 0.278573,-0.58705 1.190384,-1.55869 2.026247,-2.15919 1.265017,-0.90883 1.584652,-1.3523 1.906982,-2.6458 0.220493,-0.88484 1.205072,-2.76791 2.286544,-4.37317 1.044618,-1.55056 1.899306,-2.94633 1.899306,-3.10171 0,-0.15538 -0.31945,-0.82393 -0.709885,-1.48567 -0.498339,-0.84463 -0.712899,-1.73354 -0.72,-2.98292 -0.0099,-1.74337 0.06607,-1.89417 3.715917,-7.37513 2.049318,-3.07746 4.029843,-6.20266 4.401168,-6.94491 0.371324,-0.74225 1.5136,-2.25425 2.538393,-3.36 2.9756,-3.21068 4.493987,-5.31138 4.879178,-6.75038 0.273529,-1.02185 0.956659,-1.92312 2.876664,-3.79525 2.65005,-2.58396 3.56194,-3.11617 4.29577,-2.50715 0.34824,0.28902 0.75597,0.1892 1.85276,-0.45356 2.30889,-1.3531 3.92463,-0.98072 4.54368,1.04716 0.26635,0.87251 0.41473,0.85637 4.07944,-0.44375 3.62767,-1.28698 4.02274,-0.77259 2.79882,3.64406 -1.51376,5.4626 -5.48717,10.89333 -10.99826,15.03209 -0.8615,0.64698 -2.47315,2.39306 -3.58144,3.88019 l -2.01508,2.70387 2.30143,2.42299 c 1.2658,1.33265 3.40486,4.00391 4.75348,5.93613 2.22487,3.18767 2.51638,3.78736 3.14666,6.47314 0.38205,1.628 0.82663,2.96 0.98797,2.96 0.16133,0 0.29334,-0.12765 0.29334,-0.28367 0,-0.15602 0.68094,-0.38578 1.5132,-0.51058 3.66966,-0.5503 9.96791,-5.69805 13.51444,-11.04575 0.75869,-1.144 1.86061,-2.58676 2.4487,-3.20613 0.96533,-1.01666 1.13042,-1.48324 1.69833,-4.8 0.69405,-4.05344 2.34006,-9.12562 4.09199,-12.60949 1.57011,-3.12232 5.53246,-9.32637 8.32976,-13.04234 6.83738,-9.08288 21.56046,-21.95161 24.76428,-21.64525 1.52209,0.14555 1.48147,1.05477 -0.0473,1.05963 -1.97916,0.006 -7.52984,4.2332 -14.485,11.03052 -6.95012,6.79239 -8.73334,8.9047 -13.11311,15.53306 -4.67489,7.075 -7.87113,14.24446 -8.06032,18.08 -0.0391,0.792 -0.2384,1.84537 -0.44298,2.34083 -0.51035,1.23604 -0.47678,1.39711 0.33543,1.60951 l 0.70737,0.18498 -0.70737,0.75296 c -1.36197,1.44975 -0.74904,5.13055 1.58389,9.51172 0.70288,1.32 1.63857,2.78006 2.07929,3.24458 0.78072,0.82287 5.12807,3.04346 5.40878,2.76276 0.0774,-0.0774 0.30498,-0.99269 0.50578,-2.03402 0.2008,-1.04133 0.46413,-2.00545 0.58517,-2.1425 0.12104,-0.13705 0.6189,0.0645 1.10636,0.44797 1.01602,0.7992 1.27412,0.59335 1.6275,-1.29804 0.34637,-1.8539 0.69848,-2.0476 1.96548,-1.08121 1.0394,0.79279 1.13734,0.8106 1.64773,0.29966 0.52679,-0.52736 0.63793,-1.52189 0.66745,-5.97262 0.006,-0.84102 0.34223,-2.18933 0.799,-3.2 0.43415,-0.96062 1.24482,-3.89903 1.80147,-6.5298 1.34309,-6.34741 2.33077,-9.6705 3.64655,-12.26904 1.32307,-2.61292 8.01916,-10.62774 8.87909,-10.62774 0.87325,0 0.7311,0.38095 -0.72644,1.94675 -4.99706,5.36827 -6.97017,8.22686 -8.55041,12.38765 l -0.64352,1.69441 1.29632,-1.17115 c 2.20813,-1.99491 4.39009,-2.78743 8.13262,-2.95388 2.47392,-0.11002 3.62692,-0.0196 4.78672,0.37564 0.84029,0.28632 1.79016,0.52058 2.1108,0.52058 0.32065,0 0.835,0.22705 1.143,0.50455 0.308,0.27751 1.46222,1.03351 2.56492,1.68 4.07548,2.38936 10.23886,7.0174 13.07118,9.81504 4.65333,4.59637 6.00972,8.24339 6.03123,16.21656 0.0141,5.21802 -0.14496,5.69992 -2.38408,7.22385 l -1.0579,0.72 h 1.02618 c 1.61976,0 6.60427,-1.80924 10.20557,-3.70435 6.25684,-3.29253 10.12786,-6.3176 16.14241,-12.61477 3.50529,-3.66999 6.56263,-6.28884 14.75745,-12.64088 3.04172,-2.35773 4.36304,-2.82613 4.36304,-1.54667 0,0.23467 -0.2644,0.42667 -0.58756,0.42667 -0.32316,0 -1.45375,0.684 -2.51243,1.52 -1.05868,0.836 -4.07028,3.20474 -6.69244,5.26388 -2.9062,2.28218 -6.07388,5.14238 -8.11345,7.32588 -6.11345,6.54489 -10.83894,10.20871 -17.46342,13.53995 -1.93088,0.97098 -4.8502,2.19369 -6.48737,2.71714 l -2.97667,0.95172 -3.22985,-0.6261 c -1.77641,-0.34436 -3.2733,-0.58265 -3.32642,-0.52953 -0.23114,0.23114 1.62348,2.2314 2.31145,2.49297 1.22124,0.46431 0.95817,1.43456 -0.55287,2.03917 -1.53918,0.61585 -1.40533,0.95375 0.81755,2.06391 0.79941,0.39925 1.45348,0.9266 1.45348,1.1719 0,0.24529 -0.612,1.01699 -1.36,1.71488 l -1.36,1.26888 0.90083,0.34268 c 0.49546,0.18847 2.60081,0.34267 4.67855,0.34267 3.76863,0 9.4466,0.78508 12.55139,1.73546 0.81992,0.25099 1.5539,0.3932 1.63105,0.31604 0.0772,-0.0772 2.0452,-0.36175 4.37342,-0.63244 5.22668,-0.60766 9.51237,-1.67087 12.2097,-3.02902 13.11712,-6.60469 23.04784,-14.49077 26.23812,-20.83592 2.15581,-4.28769 4.0049,-9.11361 5.70977,-14.90189 1.56451,-5.31175 3.8914,-11.66569 4.57481,-12.49223 0.87336,-1.0563 1.28069,0.50318 0.44358,1.69831 -0.81031,1.15688 -2.10666,4.69387 -3.74637,10.22169 -1.64647,5.55063 -3.48583,10.52978 -5.5264,14.96 -0.62826,1.364 -1.08566,2.48 -1.01645,2.48 0.0692,0 -1.20965,2.7 -2.84192,6 -2.73165,5.52263 -3.39902,6.57284 -8.38811,13.2 -9.78142,12.99295 -11.73137,15.40851 -16.90023,20.93572 -14.22718,15.21355 -17.40588,17.61217 -34.57174,26.08759 -22.38214,11.0509 -36.62043,17.43514 -46.39321,20.80204 -4.28286,1.47552 -9.61138,2.89465 -10.86878,2.89465 -1.82984,0 -16.93963,8.06103 -21.61802,11.53315 -5.91289,4.38832 -6.49254,4.59169 -10.08,3.53654 z m 5.86502,-1.82795 c 0.93776,-0.61683 2.85208,-1.972 4.25405,-3.01149 5.89962,-4.3743 21.87129,-12.33405 32.37681,-16.13552 3.44125,-1.24523 4.06413,-1.35194 4.06413,-0.69623 0,0.25633 -0.98949,0.78978 -2.38171,1.28404 -4.3122,1.53086 -9.16964,3.47278 -9.0317,3.61072 0.23132,0.23132 9.38584,-2.89938 15.00393,-5.13112 6.79652,-2.69985 12.91513,-5.4978 30.69042,-14.03425 22.21289,-10.66758 27.88392,-14.37904 36.5709,-23.93425 2.22219,-2.44429 5.5856,-6.07425 7.47425,-8.06658 3.40312,-3.58996 4.61784,-5.11184 14.74169,-18.46943 4.16551,-5.49606 5.65316,-7.74292 7.32122,-11.05763 l 2.09345,-4.16 -2.59232,2.47484 c -3.51775,3.35833 -9.40551,7.69628 -13.67629,10.07633 -9.34754,5.20926 -11.55522,6.02219 -18.88221,6.95292 -4.60325,0.58475 -6.91542,0.4923 -11.33163,-0.45306 -2.47634,-0.5301 -4.5803,-0.73469 -8,-0.77793 -5.22385,-0.066 -6.49204,-0.41425 -6.65665,-1.8277 -0.072,-0.61829 0.19343,-1.08456 1.04112,-1.82884 l 1.13776,-0.99897 -1.04112,-0.52738 c -0.57261,-0.29006 -1.28215,-0.73843 -1.57676,-0.99636 -0.48064,-0.42081 -0.75541,-0.30053 -2.67569,1.17128 -2.8814,2.20848 -4.80129,3.13318 -8.40123,4.04637 -3.37314,0.85567 -8.12412,1.03207 -11.41451,0.4238 -2.31629,-0.42819 -2.40149,-0.32258 -2.40802,2.9847 -0.006,3.05426 -0.19945,3.10803 -3.19402,0.88807 -1.18106,-0.87556 -3.35867,-2.18378 -4.83914,-2.90716 -5.33109,-2.60485 -10.83259,-5.87988 -10.84234,-6.45441 -0.0116,-0.68349 1.50874,-1.47045 5.1106,-2.64532 4.22103,-1.37684 3.96687,-0.8566 2.53843,-5.19584 -0.86773,-2.63594 -1.24296,-4.34124 -1.251,-5.68534 -0.0106,-1.78105 -0.079,-1.95842 -0.94454,-2.45082 l -0.93306,-0.53082 -0.38272,1.59537 c -0.41864,1.74506 -0.91207,2.13076 -2.05799,1.60865 -0.71812,-0.3272 -0.76895,-0.26434 -1.19377,1.47628 -0.29489,1.20825 -0.6227,1.8525 -0.97733,1.9208 -0.29348,0.0565 -1.73348,-0.45951 -3.19998,-1.14674 -3.10987,-1.45733 -4.12774,-2.52998 -5.99035,-6.31272 -1.13872,-2.31261 -1.54543,-3.54457 -2.09578,-6.34824 -0.15407,-0.7849 -0.24683,-0.85135 -0.68303,-0.48934 -0.27761,0.2304 -1.21669,1.47396 -2.08685,2.76348 -2.03833,3.02067 -5.19693,6.35907 -7.94201,8.39408 -2.29781,1.70344 -6.55484,3.84002 -7.65105,3.84002 -0.5568,0 -0.62896,0.15318 -0.48993,1.04 0.0897,0.572 -0.53472,-0.9164 -1.38755,-3.30754 -1.26862,-3.55691 -1.95169,-4.92447 -3.75611,-7.52 -1.21303,-1.74486 -3.25611,-4.27922 -4.54018,-5.63192 -2.23401,-2.35341 -2.35034,-2.4293 -2.69786,-1.76 -0.57703,1.11129 -3.793544,5.01946 -4.131137,5.01946 -0.495108,0 -0.350663,-1.16474 0.201248,-1.62279 0.777702,-0.64543 5.798419,-7.81639 6.067829,-8.66651 0.24191,-0.76338 2.4517,-2.89134 3.97173,-3.82467 2.95517,-1.81452 7.35301,-6.95893 9.13526,-10.68603 1.13619,-2.37606 2.25024,-6.17416 1.9106,-6.5138 -0.11165,-0.11164 -1.51063,0.25709 -3.10886,0.81941 -3.23363,1.13772 -3.89232,1.05563 -4.24025,-0.52844 -0.3045,-1.38642 -1.12403,-1.46779 -3.36905,-0.33451 -1.54957,0.78222 -2.06247,0.91308 -2.41902,0.61717 -0.35025,-0.29069 -0.61565,-0.26863 -1.1746,0.0976 -1.8662,1.22278 -4.526827,4.46976 -7.581639,9.25248 -1.8373,2.87655 -3.683696,5.59008 -4.103104,6.03008 -0.99824,1.04725 -8.252548,12.1628 -8.550564,13.10176 -0.260505,0.82078 0.287338,3.0654 0.976128,3.9994 0.444666,0.60297 0.470788,0.60379 0.891808,0.028 0.287485,-0.39316 0.629216,-0.51814 1.013511,-0.37067 0.441897,0.16957 0.490953,0.31131 0.206275,0.59599 -0.20543,0.20544 -0.37351,0.70472 -0.37351,1.10952 0,0.51887 -0.185933,0.736 -0.63025,0.736 -0.42535,0 -1.138275,0.75424 -2.192906,2.32 -2.609302,3.87391 -2.715052,4.17459 -2.874396,8.17308 -0.171098,4.29347 -0.773271,4.78917 -1.022448,0.84166 -0.110749,-1.75447 -0.237722,-2.32192 -0.412477,-1.84337 -0.138864,0.38026 -0.620333,0.9324 -1.069933,1.22699 -1.165277,0.76352 -1.974035,2.83598 -2.519856,6.45717 -0.607741,4.03202 -0.602061,7.83343 0.02029,13.58325 0.358032,3.30773 0.636064,4.70706 0.989024,4.97772 0.309187,0.23709 0.414381,0.61785 0.284099,1.02833 -0.722953,2.27783 5.5064,15.98551 8.571888,18.86243 0.765939,0.71883 0.827754,0.72662 1.624128,0.20482 0.807767,-0.52927 1.792823,-0.46386 1.792823,0.11905 0,0.16017 -0.435412,0.47158 -0.967584,0.69201 -0.53217,0.22043 -1.07217,0.5619 -1.2,0.75882 -0.127828,0.19692 -0.796036,0.61897 -1.484903,0.93789 -0.68887,0.31892 -2.854099,1.64645 -4.811625,2.95007 -4.146631,2.76147 -5.6081,3.35008 -8.318026,3.35008 -4.081002,0 -6.702042,-1.49213 -12.625942,-7.1878 -6.561037,-6.30826 -11.571184,-12.69991 -14.407015,-18.37963 -2.129335,-4.26472 -3.01257,-7.54253 -5.288896,-19.62787 -1.974572,-10.48327 -2.462077,-11.68932 -5.03683,-12.46074 -1.753571,-0.52538 -3.206557,0.013 -5.759777,2.13403 -6.846154,5.68739 -11.560758,17.56104 -12.008029,30.24201 -0.312501,8.85996 1.840827,17.23968 6.010253,23.38903 2.121252,3.12856 7.862836,8.01212 13.25839,11.27704 6.46369,3.91127 11.094713,5.84281 18.56,7.74115 11.014684,2.8009 16.637305,2.68513 23.417987,-0.48219 3.042377,-1.42112 8.279529,-4.91236 12.408585,-8.27193 3.386256,-2.75519 4.559492,-3.40754 7.283354,-4.04974 2.729027,-0.64341 4.282197,-0.60235 5.845667,0.15451 2.18638,1.0584 5.78341,4.40582 7.05734,6.5676 0.28804,0.48877 0.72812,0.0966 3.26265,-2.9078 1.88151,-2.23025 3.57907,-4.67938 4.74464,-6.84522 0.9982,-1.85485 2.086,-3.63006 2.41735,-3.94492 0.33133,-0.31485 0.60243,-0.75363 0.60243,-0.97506 0,-0.70914 2.34386,-2.70892 4.15337,-3.54365 2.43386,-1.12275 6.30943,-2.01402 6.76719,-1.55626 0.5308,0.5308 0.0361,1.04744 -1.00293,1.04744 -1.49276,0 -5.86606,1.51777 -7.13444,2.47604 -0.64351,0.48618 -1.4867,1.53196 -1.87375,2.32396 -0.38705,0.792 -0.88968,1.55273 -1.11695,1.6905 -0.22727,0.13778 -1.06558,1.51361 -1.86292,3.0574 -0.86079,1.66667 -2.62976,4.22973 -4.35467,6.3095 -1.59773,1.92643 -3.05955,3.82383 -3.2485,4.21645 -0.18894,0.39262 -0.64567,0.8082 -1.01497,0.92353 -0.36929,0.11532 -1.60743,1.02915 -2.75143,2.03072 -3.05494,2.67461 -5.19606,4.19015 -8.98804,6.36195 -5.285458,3.02717 -11.598347,6.00817 -15.956651,7.53486 -4.51266,1.58077 -4.660653,1.38432 1.811974,2.40528 2.149008,0.33898 4.057008,0.70885 4.24,0.82195 0.893619,0.55229 0.229766,1.44916 -2.227286,3.00911 -1.408,0.89391 -2.56,1.77232 -2.56,1.95202 0,0.1964 1.073283,0.32673 2.690617,0.32673 2.416986,0 3.157347,0.16501 7.28,1.62256 8.190606,2.89576 8.288096,2.90507 11.094406,1.05918 z m 55.73499,-80.38058 c 0,-3.19867 0.21199,-3.37699 3.30815,-2.78264 6.76275,1.29821 13.53877,-0.0903 18.74961,-3.84217 1.42023,-1.02257 2.58224,-1.98493 2.58224,-2.13858 0,-0.15365 0.49586,-0.57192 1.1019,-0.9295 l 1.10191,-0.65014 -1.10813,-1.45173 c -1.65943,-2.17397 -1.86125,-2.6383 -1.2489,-2.87329 0.49664,-0.19057 2.15436,-0.0486 4.76297,0.40803 0.87253,0.15272 1.18425,0.11277 1.03276,-0.13236 -0.11935,-0.19311 0.3651,-0.91044 1.07656,-1.59407 0.71145,-0.68363 1.43471,-1.73515 1.60724,-2.33672 0.72684,-2.53433 0.0929,-8.64311 -1.30907,-12.61432 -0.66974,-1.89712 -2.59164,-4.96367 -3.11088,-4.96367 -0.13608,0 -1.20168,1.34249 -2.36801,2.98332 -1.16633,1.64083 -3.06959,4.01742 -4.22947,5.28133 -1.15989,1.2639 -2.10888,2.49029 -2.10888,2.72531 0,0.59358 -1.60374,1.2943 -2.01683,0.88121 -0.21263,-0.21263 0.49512,-1.18539 2.11624,-2.90866 2.17022,-2.30696 5.90241,-7.02028 7.38212,-9.32278 l 0.54,-0.84026 -2.97076,-2.39268 c -5.07838,-4.09014 -12.83388,-9.27966 -13.19475,-8.82912 -0.0451,0.0563 -0.69116,1.83033 -1.43573,3.94233 -1.52842,4.33537 -4.93866,11.68 -5.42324,11.68 -0.73838,0 -0.55333,-0.69255 1.03131,-3.85956 1.55759,-3.11295 4.69542,-11.17116 4.6928,-12.0515 -0.002,-0.76095 -3.45467,-1.4649 -6.2246,-1.26921 -3.25481,0.22995 -4.55284,0.61642 -6.44124,1.91779 -2.06567,1.42352 -3.3595,3.76551 -3.57697,6.47478 -0.10951,1.36429 -0.30343,2.0677 -0.57004,2.0677 -0.24279,0 -0.62169,0.97818 -0.9493,2.45071 -0.29988,1.34789 -0.83616,3.11189 -1.19174,3.92 -0.48028,1.09151 -0.67902,2.36715 -0.77297,4.96135 -0.0966,2.66681 -0.26669,3.72553 -0.71988,4.48 -0.88445,1.47246 -0.62422,4.48519 0.75628,8.75552 0.62112,1.92129 1.1293,3.71221 1.1293,3.97981 0,0.33488 -1.22197,0.91065 -3.92,1.84703 -2.156,0.74827 -4.1161,1.46637 -4.35578,1.59577 -0.48951,0.2643 5.42565,3.78693 9.70885,5.78188 1.41181,0.65757 3.34893,1.78785 4.30472,2.51175 0.95579,0.7239 1.85579,1.31618 2,1.31618 0.14421,0 0.26221,-0.98048 0.26221,-2.17884 z m 11.84,-28.05455 c 0,-0.0844 0.91829,-1.77636 2.04064,-3.76 1.12235,-1.98364 2.85846,-5.08261 3.85801,-6.88661 0.99956,-1.804 1.95779,-3.28 2.12941,-3.28 0.68332,0 0.62655,0.98511 -0.11436,1.98434 -0.43052,0.58061 -1.8362,2.99966 -3.12375,5.37566 -3.08226,5.6879 -3.74482,6.72 -4.31397,6.72 -0.26179,0 -0.47598,-0.069 -0.47598,-0.15339 z m 88,-24.81909 c -0.616,-0.14238 -1.696,-0.41038 -2.4,-0.59556 -0.704,-0.18518 -2.18,-0.34013 -3.28,-0.34433 -1.6271,-0.006 -2,-0.10428 -2,-0.526 0,-0.46167 0.41127,-0.49281 3.76,-0.28474 2.068,0.1285 3.83233,0.34854 3.92073,0.489 0.56994,0.90551 3.92727,0.60567 9.83927,-0.87872 1.72175,-0.4323 2,-0.60367 2,-1.23181 0,-0.90437 0.63971,-1.56249 2.35338,-2.4211 0.72964,-0.36557 1.68662,-1.00111 2.12662,-1.41231 0.70809,-0.66175 2.39798,-1.523 4.32,-2.20167 l 0.64,-0.22599 -0.64,-0.47584 c -0.62554,-0.46508 -0.61416,-0.49966 0.50336,-1.52955 0.62886,-0.57954 1.41786,-1.20732 1.75334,-1.39507 0.5958,-0.33342 0.59609,-0.35671 0.0125,-1.00159 -0.78348,-0.86574 -0.33793,-1.41782 1.57691,-1.95394 1.35111,-0.37829 1.89344,-1.0718 1.05635,-1.35083 -0.63206,-0.21068 -0.007,-1.23875 0.97983,-1.61118 0.77795,-0.29365 0.98207,-0.62437 1.31578,-2.13193 0.21723,-0.9814 1.1566,-3.29636 2.08747,-5.14436 0.93087,-1.848 2.08365,-4.512 2.56174,-5.92 0.47808,-1.408 1.63598,-4.75877 2.5731,-7.44615 0.93713,-2.68738 1.70208,-4.95759 1.6999,-5.04489 -0.002,-0.0873 0.17424,-0.95504 0.39204,-1.92828 0.3078,-1.3754 0.32058,-3.60168 0.0574,-9.995109 -0.33355,-8.10248 -0.35591,-8.28145 -1.49415,-11.95956 -1.34157,-4.3352 -1.36879,-4.55643 -0.53371,-4.33805 0.36306,0.0949 0.83894,-0.0773 1.14356,-0.41389 0.28695,-0.31708 0.86556,-0.66281 1.2858,-0.76828 2.04671,-0.51369 4.43203,-5.75248 4.24616,-9.325667 l -0.0973,-1.871002 -2.88,-0.849971 c -5.11023,-1.50817 -9.99403,-3.624358 -12.21866,-5.294432 -0.56026,-0.420595 -1.21085,-0.76472 -1.44575,-0.76472 -0.23491,0 -1.49184,-1.445702 -2.79318,-3.212669 -4.01347,-5.44951 -11.8744,-12.521696 -19.70392,-17.726877 -5.30857,-3.529212 -10.15631,-5.800713 -17.90512,-8.389779 l -7.05338,-2.356707 -6.05796,-0.518541 c -5.74794,-0.492003 -6.11169,-0.489606 -7.10784,0.04686 -1.44949,0.780601 -2.73067,0.505465 -6.10542,-1.311155 -2.22752,-1.199063 -3.40753,-2.131184 -5.70201,-4.504157 l -2.89324,-2.992197 -1.43116,0.907618 c -3.72653,2.363296 -6.79749,7.841187 -7.52659,13.425744 -0.18688,1.431456 -0.30787,1.660374 -0.7957,1.505542 -0.5877,-0.186528 -6.14268,2.403306 -6.5425,3.05024 -0.1163,0.188163 -0.48732,0.254554 -0.82451,0.147533 -0.33719,-0.107021 -0.61307,-0.0668 -0.61307,0.08938 0,0.156179 -1.548,1.449757 -3.44,2.874618 -3.62731,2.731715 -10.39859,8.431904 -12.96,10.909955 -0.836,0.808797 -1.52,1.720793 -1.52,2.026665 0,0.305869 -0.19005,0.671284 -0.42232,0.812029 -0.68825,0.417037 -3.09768,3.791418 -3.09768,4.338263 0,0.277315 -1.2337,2.712227 -2.74155,5.410921 -3.82217,6.840776 -5.25219,10.251686 -5.25667,12.538356 -0.003,1.42238 -0.85919,2.83313 -2.41517,3.9785 -1.4981,1.10276 -1.71431,1.74257 -0.93644,2.77102 0.71168,0.94091 0.57575,2.01468 -0.33017,2.60827 -0.44,0.28829 -0.8,0.71194 -0.8,0.94144 0,0.70669 1.09489,2.38496 1.55732,2.38711 0.30449,10e-4 0.37119,0.22071 0.21959,0.72202 -0.11975,0.396 -0.30055,1.34327 -0.40176,2.10504 -0.11089,0.83453 -0.41277,1.52789 -0.75954,1.74445 -0.53405,0.33352 -0.49346,0.47117 0.56367,1.91126 0.97408,1.32698 1.11142,1.72285 0.94768,2.731829 -0.16012,0.98671 -0.0388,1.36994 0.74062,2.33985 0.65256,0.81203 0.83107,1.26092 0.59521,1.49677 -1.23792,1.23793 6.37335,15.97726 8.29062,16.05487 0.21637,0.009 1.00837,0.68677 1.76,1.50668 2.03557,2.22051 7.01364,6.588 10.21863,8.96527 2.76256,2.0491 3.04206,2.34321 2.62408,2.76119 -0.40429,0.40429 -7.01031,-4.77412 -11.0288,-8.64539 -1.51397,-1.4585 -2.90579,-2.65182 -3.09294,-2.65182 -0.7204,0 -4.06028,-4.2936 -6.02586,-7.74655 -2.20377,-3.8714 -4.24096,-9.38901 -3.67539,-9.95458 0.21644,-0.21644 -6.4e-4,-0.69013 -0.66066,-1.44189 -0.84252,-0.95958 -0.95876,-1.30014 -0.81347,-2.38336 0.14423,-1.075299 0.006,-1.490989 -0.92475,-2.786929 -1.25085,-1.7411 -1.36679,-2.43706 -0.45425,-2.72669 0.96926,-0.30763 0.88343,-2.93203 -0.16,-4.89211 -1.02249,-1.92073 -1.00606,-2.2204 0.15798,-2.88278 1.13358,-0.64504 1.14118,-0.69316 0.34426,-2.18003 -0.78223,-1.45947 -0.5057,-2.1063 1.58738,-3.71314 1.36846,-1.05055 1.57149,-1.36537 1.75412,-2.72 0.37067,-2.74931 1.14277,-4.96843 3.38729,-9.735648 1.21494,-2.580419 2.20897,-4.774384 2.20897,-4.875472 0,-0.101091 0.936,-1.698073 2.08,-3.548851 1.144,-1.850778 2.08,-3.444787 2.08,-3.54224 0,-0.594624 2.95056,-3.865453 5.33107,-5.909728 1.5371,-1.32 3.5244,-3.048 4.41622,-3.84 1.89494,-1.682845 6.70037,-5.488397 8.91851,-7.062806 0.85018,-0.603456 3.3673,-2.033194 5.59358,-3.177194 l 4.04778,-2.08 0.70311,-2.758934 c 0.85572,-3.357757 2.26407,-6.322868 4.136,-8.707904 1.44993,-1.847362 4.34431,-4.053162 5.31843,-4.053162 0.30429,0 2.03421,1.476 3.84427,3.28 2.73426,2.725098 3.76453,3.516874 6.08986,4.68015 2.15253,1.076826 2.89904,1.316992 3.23275,1.040032 0.80123,-0.664963 4.16943,-0.745312 9.64842,-0.230163 l 5.44,0.511482 9.09015,3.001507 c 6.18786,2.04319 9.25294,3.207347 9.6,3.646205 0.28042,0.354579 1.15785,0.968848 1.94985,1.36504 2.44821,1.224691 8.63733,5.516093 12.48798,8.658889 5.17988,4.227677 8.1889,7.183232 11.21085,11.011626 2.18339,2.766067 2.84005,3.389491 3.94058,3.741142 0.93352,0.298288 1.30692,0.588813 1.27395,0.991194 -0.0808,0.986026 7.34569,4.227322 13.00664,5.676768 0.792,0.202787 1.60494,0.503754 1.80652,0.668816 1.00321,0.821434 0.73555,4.670661 -0.56682,8.151571 -0.7283,1.94654 -2.89093,4.50788 -4.56936,5.41178 -0.87782,0.47273 -1.15034,0.82157 -1.15034,1.47249 0,0.47968 0.21973,0.93731 0.50206,1.04566 0.32705,0.12549 0.4333,0.40933 0.3048,0.8142 -0.1085,0.34186 0.0339,1.45857 0.31646,2.48158 0.3525,1.27626 0.62315,4.49509 0.86233,10.25595 0.3427,8.254349 0.3362,8.448599 -0.38555,11.519999 -0.40377,1.71824 -1.43732,4.9668 -2.29677,7.21901 -0.85946,2.25221 -1.4778,4.23221 -1.3741,4.4 0.1037,0.16779 0.0732,0.48507 -0.0678,0.70507 -0.399,0.62272 -1.05131,2.58173 -1.05665,3.17333 -0.003,0.29333 -0.12288,0.58133 -0.26718,0.64 -0.63989,0.26017 -3.55777,6.34009 -3.94136,8.21253 -0.26804,1.30842 -0.6171,2.13402 -0.98565,2.33126 -0.37543,0.20093 -0.57063,0.67691 -0.57063,1.39143 0,1.04417 -0.0695,1.10624 -1.80266,1.61008 -1.34314,0.39046 -1.71021,0.6165 -1.44,0.88671 0.64683,0.64683 0.38663,1.42041 -0.77606,2.30724 -0.95817,0.73083 -1.10812,1.00781 -0.94577,1.74699 0.23314,1.06147 -0.0716,1.34972 -2.33442,2.20853 -0.9344,0.35463 -2.22392,1.05138 -2.8656,1.54834 -0.64169,0.49696 -1.82118,1.26806 -2.6211,1.71357 -1.2055,0.6714 -1.4398,0.95144 -1.36911,1.63644 0.0469,0.45453 -0.0971,0.96624 -0.32,1.13713 -0.46514,0.3566 -4.25002,1.39276 -5.58712,1.52953 -0.49399,0.0505 -1.67382,0.25276 -2.62184,0.44938 -1.92534,0.39934 -2.87419,0.40459 -4.51632,0.025 z m 10.07733,-24.51403 c -1.27647,-2.37026 -7.72931,-6.688 -10.61128,-7.10025 -1.09666,-0.15687 -1.56939,-0.37996 -1.64579,-0.77666 -0.28318,-1.47045 4.02736,-0.0315 8.089,2.70034 3.16557,2.12913 5.61074,4.74707 5.61074,6.00719 0,0.75321 -0.85474,0.26109 -1.44267,-0.83062 z M 270.60061,118.914 c -1.496,-0.32747 -4.232,-0.70363 -6.08,-0.8359 -2.66645,-0.19084 -3.36,-0.33956 -3.36,-0.72048 0,-0.59787 3.24794,-0.51819 7.84,0.19234 4.12396,0.63811 5.44,1.02034 5.44,1.57999 0,0.56628 -0.35866,0.54611 -3.84,-0.21595 z m 3.60902,-4.29972 c -3.2476,-1.42108 -10.60443,-2.25286 -12.70113,-1.43602 -1.23411,0.48079 -1.81786,-0.0604 -0.7821,-0.72506 1.28151,-0.82239 4.0029,-0.95817 7.47964,-0.37319 3.96151,0.66654 8.15457,2.00346 8.15457,2.6 0,0.5462 -0.80904,0.52147 -2.15098,-0.0657 z m -49.78812,-12.85666 c -0.0753,-0.132 -0.31094,-0.78 -0.5237,-1.44 -0.44093,-1.367809 -0.53883,-1.398689 -2.08955,-0.659209 -0.82655,0.394159 -1.22975,0.445109 -1.48697,0.18789 -0.48768,-0.48768 -0.13918,-0.93013 0.91266,-1.15867 1.57299,-0.34177 1.84561,-0.67489 1.2492,-1.52639 -0.2874,-0.41031 -0.52254,-1.34682 -0.52254,-2.08112 0,-1.61715 1.10754,-5.34433 1.79124,-6.02803 0.78319,-0.78319 2.54396,-0.58144 5.02973,0.57629 4.0714,1.89624 4.25812,2.7608 1.28889,5.96792 -2.00852,2.16944 -4.22743,3.64031 -5.02815,3.33304 -0.64274,-0.24664 -0.64748,-0.0922 -0.0417,1.357629 0.264,0.63185 0.48,1.27522 0.48,1.42973 0,0.34227 -0.86812,0.37581 -1.0591,0.0409 z m 26.65584,-3.679999 c -1.85897,-1.26521 -2.39674,-2.28745 -2.39674,-4.5559 0,-1.73907 0.13717,-2.22316 0.96,-3.38804 0.528,-0.74749 1.464,-1.61542 2.08,-1.92874 1.00808,-0.51275 1.2854,-0.52604 2.77523,-0.13301 2.01939,0.53272 2.62772,0.84838 3.50044,1.81631 1.39431,1.54641 1.86472,4.90966 0.8828,6.31156 -0.28684,0.40952 -1.17904,1.16157 -1.98265,1.6712 -1.89219,1.19999 -4.23717,1.28325 -5.81908,0.20662 z m 6.57481,-5.48888 c 0.50471,-0.36905 0.55827,-0.6051 0.30116,-1.32731 -0.17199,-0.48314 -0.7052,-1.17064 -1.18491,-1.52778 -0.84687,-0.63048 -0.89102,-0.63232 -1.52,-0.0631 -0.82514,0.74674 -0.82846,1.9064 -0.008,2.72706 0.75154,0.75154 1.55775,0.81543 2.41156,0.19112 z m -80.04033,-0.96112 c -0.4957,-1.27012 3.47036,-3.45315 8.81601,-4.85259 2.35982,-0.61778 3.09289,-0.57729 3.88477,0.21459 0.9062,0.9062 0.34402,1.50913 -0.74302,0.79687 -0.71912,-0.47118 -0.96322,-0.46301 -3.15421,0.10558 -3.50224,0.90887 -7.07158,2.48734 -7.86985,3.48027 -0.64758,0.80551 -0.71208,0.82314 -0.9337,0.25528 z m 13.08468,-8.30665 c -0.66624,-1.1368 -2.44385,-1.62045 -6.4159,-1.74563 -3.08395,-0.0972 -3.92,-0.21889 -3.92,-0.57063 0,-0.35653 0.73572,-0.44709 3.63225,-0.44709 1.99773,0 4.12173,0.16389 4.72,0.36419 1.42034,0.47555 3.16775,1.78405 3.16775,2.37209 0,0.58707 -0.84459,0.60638 -1.1841,0.0271 z m 4.46618,-2.91965 c -0.96686,-1.49271 -3.40555,-2.83269 -7.39555,-4.06361 -2.91214,-0.89839 -4.00045,-1.53285 -3.4955,-2.03779 0.27841,-0.27841 7.78136,2.31649 9.09416,3.14522 1.4756,0.93151 3.70171,3.38534 3.44622,3.79874 -0.34022,0.55048 -0.94821,0.23989 -1.64933,-0.84256 z m 18.30179,-0.56986 c -2.79413,-1.12736 -3.98387,-2.83633 -3.98387,-5.72253 0,-5.636368 5.79697,-7.909213 10.14122,-3.976112 1.41074,1.277232 1.49703,1.452252 1.63133,3.308862 0.26378,3.64675 -1.85209,6.32643 -5.24204,6.63888 -0.86378,0.0796 -2.00977,-0.0325 -2.54664,-0.2491 z m 6.19213,-6.37784 c 0.2112,-0.2112 0.384,-0.70492 0.384,-1.09714 0,-1.70075 -2.56684,-2.436299 -3.25226,-0.93197 -0.73825,1.6203 1.61341,3.28395 2.86826,2.02911 z"
       style="fill:#000000;stroke-width:0.32" />
  </g>
</svg>
