<?xml version="1.0" encoding="UTF-8" standalone="no"?>
<svg
   xmlns:dc="http://purl.org/dc/elements/1.1/"
   xmlns:cc="http://creativecommons.org/ns#"
   xmlns:rdf="http://www.w3.org/1999/02/22-rdf-syntax-ns#"
   xmlns:svg="http://www.w3.org/2000/svg"
   xmlns="http://www.w3.org/2000/svg"
   xmlns:sodipodi="http://sodipodi.sourceforge.net/DTD/sodipodi-0.dtd"
   xmlns:inkscape="http://www.inkscape.org/namespaces/inkscape"
   width="200mm"
   height="200mm"
   viewBox="0 0 200 200"
   version="1.1"
   id="svg8"
   inkscape:version="1.0.1 (3bc2e813f5, 2020-09-07)"
   sodipodi:docname="checkNikukyu.svg">
  <defs
     id="defs2" />
  <sodipodi:namedview
     id="base"
     pagecolor="#ffffff"
     bordercolor="#666666"
     borderopacity="1.0"
     inkscape:pageopacity="0"
     inkscape:pageshadow="2"
     inkscape:zoom="0.49497475"
     inkscape:cx="295.14452"
     inkscape:cy="460.64795"
     inkscape:document-units="mm"
     inkscape:current-layer="layer2"
     inkscape:document-rotation="0"
     showgrid="false"
     inkscape:window-width="1264"
     inkscape:window-height="967"
     inkscape:window-x="0"
     inkscape:window-y="0"
     inkscape:window-maximized="0" />
  <metadata
     id="metadata5">
    <rdf:RDF>
      <cc:Work
         rdf:about="">
        <dc:format>image/svg+xml</dc:format>
        <dc:type
           rdf:resource="http://purl.org/dc/dcmitype/StillImage" />
        <dc:title></dc:title>
      </cc:Work>
    </rdf:RDF>
  </metadata>
  <g
     inkscape:label="レイヤー 1"
     inkscape:groupmode="layer"
     id="layer1">
    <rect
       style="fill:#ffeac3;fill-opacity:1;stroke:#000000;stroke-width:5.02;stroke-linecap:round;stroke-linejoin:round;stroke-miterlimit:4;stroke-dasharray:none;stroke-opacity:1;paint-order:normal"
       id="rect1432"
       width="107.5038"
       height="107.50373"
       x="44.816086"
       y="46.173309" />
  </g>
  <g
     inkscape:groupmode="layer"
     id="layer2"
     inkscape:label="レイヤー 2">
    <path
       style="fill:#000000;stroke-width:0.084667"
       d="m 74.157739,143.02501 c -1.862159,-0.34836 -2.59714,-0.57941 -3.971918,-1.24859 -1.625633,-0.79129 -2.190786,-1.28016 -3.172129,-2.74396 -2.457393,-3.66548 -4.190276,-6.90999 -4.798924,-8.98514 -0.362022,-1.23424 -0.383599,-1.43885 -0.366359,-3.47535 0.01937,-2.29501 0.25564,-4.153 0.683602,-5.37695 0.316452,-0.90506 1.712514,-4.08629 2.341252,-5.33507 0.260767,-0.51793 0.761097,-1.3249 1.111827,-1.79324 0.993177,-1.32621 5.002286,-5.26206 6.765528,-6.64194 1.430138,-1.11918 1.59264,-1.2882 1.597938,-1.66204 0.0062,-0.44967 0.556199,-1.22315 0.869461,-1.22315 0.284296,0 1.967086,-1.60469 2.645668,-2.52288 1.162912,-1.57356 2.068806,-2.831654 2.720174,-3.77781 0.390183,-0.566764 1.399236,-1.653909 2.491769,-2.684584 4.480837,-4.227202 4.36697,-4.133004 6.36912,-5.269531 2.43237,-1.380764 3.145616,-1.69002 4.798502,-2.08057 1.922717,-0.454311 4.087261,-0.384321 6.4714,0.209237 0.54097,0.134683 1.51472,0.375415 2.1639,0.534959 0.64916,0.159542 1.47537,0.434246 1.83603,0.610448 1.17514,0.574145 3.65956,2.032836 4.19664,2.463997 1.58108,1.269255 4.45134,5.132674 6.20986,8.358574 0.84928,1.55794 1.72982,2.77537 3.10236,4.2893 0.68661,0.75736 1.65699,1.97207 2.15639,2.69936 0.92954,1.35373 1.50661,1.91367 2.13059,2.06736 0.21776,0.0536 0.57742,0.37804 0.93643,0.84462 0.61482,0.79898 3.5621,3.69996 3.75904,3.69996 0.0635,0 0.53918,0.63443 1.05722,1.40982 0.57605,0.86227 1.17775,1.5917 1.54921,1.8781 0.735,0.5667 2.19586,2.58978 2.61923,3.62723 0.6507,1.59455 0.8012,2.73729 0.80427,6.10656 0.003,3.48686 -0.0979,4.23632 -0.85172,6.31893 -0.55318,1.52824 -0.91505,2.21444 -1.82334,3.45777 -1.02515,1.4033 -1.81019,2.17721 -3.49427,3.4448 -2.24868,1.69259 -2.40895,1.73771 -6.0625,1.70739 -3.73569,-0.031 -4.85925,-0.22868 -6.9781,-1.22776 -0.79343,-0.37412 -1.69906,-0.85282 -2.01252,-1.06378 -0.51306,-0.34527 -3.67796,-1.79061 -3.92098,-1.79061 -0.0545,0 -0.68936,-0.32818 -1.41064,-0.72929 -0.87353,-0.48576 -1.70557,-0.83084 -2.49175,-1.03343 -3.52961,-0.90953 -4.07442,-0.98395 -5.311387,-0.72543 -0.32458,0.0678 -1.483633,0.21313 -2.57568,0.32287 -2.212713,0.22237 -2.562013,0.32014 -4.239814,1.18668 -1.213968,0.62702 -1.436348,0.78005 -3.994582,2.74906 -0.84342,0.64917 -1.771902,1.33884 -2.063271,1.5326 -0.664628,0.44201 -3.39741,1.45501 -4.700103,1.74225 -1.420674,0.31327 -5.745678,0.39145 -7.147424,0.12918 z M 128.8078,104.301 c -1.6856,-0.60516 -3.02311,-2.00508 -3.9069,-4.08921 -1.48643,-3.505253 -1.57179,-4.23904 -0.69598,-5.982431 1.17457,-2.338098 3.54232,-4.998841 6.27689,-7.05362 1.97383,-1.483157 2.92162,-2.039827 4.9696,-2.918831 1.7457,-0.749266 3.1653,-1.04654 5.55282,-1.162793 1.67646,-0.08163 1.95079,-0.06391 2.60723,0.168387 1.49901,0.530462 3.07124,1.761854 3.62979,2.842854 0.28749,0.556455 0.35201,0.881915 0.39812,2.008654 0.0994,2.430563 -0.49163,5.768155 -1.34131,7.573266 -1.62921,3.461283 -5.18378,6.281994 -9.71519,7.709464 -1.63407,0.51475 -4.22568,1.00519 -5.72099,1.08264 -1.12906,0.0585 -1.47893,0.0281 -2.05408,-0.17838 z M 66.616895,99.801822 c -0.468839,-0.137005 -1.4721,-0.301232 -2.229463,-0.364965 -2.272989,-0.191275 -4.601446,-1.228938 -6.887183,-3.069225 -1.888863,-1.520771 -4.759719,-5.258122 -5.962532,-7.762197 -1.089926,-2.269046 -1.394343,-3.214827 -1.715768,-5.330834 -0.469751,-3.092272 -0.229895,-4.552277 1.044588,-6.358569 0.954082,-1.352193 1.642609,-1.77069 4.367925,-2.654891 1.614449,-0.523785 1.721497,-0.540683 3.425756,-0.540683 2.311619,0 3.743261,0.346494 5.690953,1.377349 1.880374,0.995223 2.29898,1.302416 3.697334,2.71325 1.188159,1.198762 1.231949,1.265728 2.428086,3.712541 1.259505,2.576446 1.353745,2.82045 2.031878,5.261073 0.595234,2.142312 0.808929,3.845318 0.837368,6.673137 l 0.0251,2.491758 -0.386744,0.69816 c -0.212719,0.383985 -0.625826,0.882566 -0.918022,1.107952 -0.292196,0.225384 -0.767339,0.621215 -1.055847,0.879619 -0.288525,0.258406 -0.917775,0.68932 -1.398339,0.957586 -1.018301,0.568447 -1.620862,0.610477 -2.995036,0.208939 z M 112.05872,86.252346 c -0.2164,-0.0984 -0.67001,-0.405931 -1.00804,-0.683378 -0.33801,-0.277445 -0.84788,-0.644984 -1.13305,-0.816742 -0.59545,-0.358674 -1.07197,-1.114247 -1.07197,-1.699705 0,-0.221397 -0.14746,-0.619813 -0.32765,-0.885362 -0.56658,-0.834895 -0.65644,-1.386929 -0.64909,-3.987764 0.006,-2.339909 0.026,-2.514795 0.5478,-4.917945 1.02253,-4.709871 1.56357,-6.406657 2.93899,-9.217204 1.48232,-3.028954 2.6587,-4.041257 5.48979,-4.724083 3.81086,-0.91914 5.81189,-0.663911 7.42017,0.946436 1.08427,1.085682 1.42348,1.645074 1.83598,3.027816 0.31151,1.04426 0.35905,1.459961 0.41229,3.606492 0.0514,2.070337 0.019,2.664371 -0.2201,4.050121 -0.36294,2.102642 -0.91968,3.836308 -1.73758,5.410661 -0.91843,1.76785 -3.21633,4.648147 -5.39599,6.763574 -1.5498,1.504141 -1.93009,1.801857 -2.8816,2.255996 -1.19042,0.568161 -2.80024,1.063318 -3.43045,1.05515 -0.21783,-0.0029 -0.57312,-0.08566 -0.7895,-0.184063 z M 87.337834,84.251242 c -0.108276,-0.03922 -0.462291,-0.287535 -0.786878,-0.551854 -0.324577,-0.26432 -0.902965,-0.706926 -1.285276,-0.983568 -1.304101,-0.943625 -4.816271,-5.553288 -6.201226,-8.139016 -0.271595,-0.507057 -0.711808,-1.453055 -0.978261,-2.102225 -0.266467,-0.649169 -0.653845,-1.516744 -0.860849,-1.927942 -0.998103,-1.982608 -1.625245,-6.046749 -1.311365,-8.498101 0.192551,-1.503766 0.966381,-3.73561 1.574967,-4.542428 0.564874,-0.748864 1.603235,-1.411833 2.551275,-1.628927 1.033032,-0.236553 4.144291,-0.315491 5.10204,-0.129447 1.129268,0.219366 2.571162,0.814748 3.626486,1.497438 2.000132,1.293882 4.425983,4.237175 4.985618,6.049089 0.135223,0.437623 0.489761,1.924933 0.787987,3.305134 1.176061,5.44294 1.063812,8.958763 -0.41947,13.138457 -0.411996,1.160952 -0.659061,1.647074 -1.055964,2.077657 -0.683952,0.742008 -1.953738,1.579616 -2.55722,1.686885 -0.265859,0.04726 -0.744324,0.25577 -1.063239,0.463372 -0.455443,0.296473 -0.722743,0.375231 -1.24587,0.367101 -0.366317,-0.0057 -0.75456,-0.04243 -0.862755,-0.08163 z"
       id="path22" />
  </g>
</svg>
